<?xml version="1.0" encoding="UTF-8" standalone="no"?>
<!-- Created with Inkscape (http://www.inkscape.org/) -->

<svg
   version="1.1"
   id="svg1"
   width="113.82118"
   height="94.42849"
   viewBox="0 0 113.82119 94.428492"
   sodipodi:docname="Icon_virgin.svg"
   inkscape:version="1.4.2 (ebf0e940d0, 2025-05-08)"
   xmlns:inkscape="http://www.inkscape.org/namespaces/inkscape"
   xmlns:sodipodi="http://sodipodi.sourceforge.net/DTD/sodipodi-0.dtd"
   xmlns="http://www.w3.org/2000/svg"
   xmlns:svg="http://www.w3.org/2000/svg">
  <defs
     id="defs1" />
  <sodipodi:namedview
     id="namedview1"
     pagecolor="#505050"
     bordercolor="#eeeeee"
     borderopacity="1"
     inkscape:showpageshadow="0"
     inkscape:pageopacity="0"
     inkscape:pagecheckerboard="0"
     inkscape:deskcolor="#505050"
     inkscape:zoom="3.679109"
     inkscape:cx="12.09532"
     inkscape:cy="58.981672"
     inkscape:window-width="1838"
     inkscape:window-height="1011"
     inkscape:window-x="40"
     inkscape:window-y="47"
     inkscape:window-maximized="1"
     inkscape:current-layer="svg1" />
  <path
     style="fill:#0061aa"
     d="m 82.061531,94.193636 c -6.83558,-1.06337 -9.35464,-1.548 -12.40286,-2.38614 -11.156175,-3.06748 -24.245092,-10.24909 -29.940184,-16.42754 l -1.333489,-1.44666 -1.976575,1.15844 c -11.409814,6.68711 -19.808738,7.65755 -25.706893,2.97028 -5.4701391,-4.34714 -10.11817913,-11.16697 -10.61844813,-15.57992 -0.214134,-1.88891 -0.193022,-1.90951 2.32574603,-2.26981 l 1.531355,-0.21905 -1.499327,-1.58721 c -1.98724603,-2.10373 -1.330884,-6.341341 1.835563,-11.850792 0.40461,-0.704 1.539536,-2.681476 2.522058,-4.394391 0.982522,-1.712914 2.568435,-4.088914 3.5242531,-5.279999 0.955817,-1.191086 1.965426,-2.613625 2.243576,-3.161198 3.547248,-6.983214 22.758203,-23.430469 34.154616,-29.2411097 12.606617,-6.427683 19.108369,-6.009805 26.889569,1.728233 7.92847,7.8844967 8.83546,11.2659777 5.71546,21.3086067 -1.36856,4.405113 -1.25117,4.302581 -4.03987,3.528437 -1.2625,-0.35047 -3.1345,-0.733969 -4.16,-0.852221 -1.0255,-0.118253 -2.61624,-0.471569 -3.53497,-0.785148 -0.91872,-0.313578 -3.0361,-0.753427 -4.705283,-0.977441 l -3.034871,-0.407299 0.921317,-1.613235 c 0.506725,-0.887279 1.721377,-3.317431 2.699227,-5.400338 l 1.77791,-3.787104 -1.353941,0.209132 c -7.728783,1.193802 -23.736526,12.784459 -32.932202,23.845075 -0.951109,1.144 -2.629676,3.16 -3.730149,4.48 -4.469756,5.361402 -11.822043,18.560002 -10.338859,18.560002 0.507943,0 7.234445,-2.91515 9.166917,-3.97278 6.251919,-3.42164 10.093698,-5.601286 11.360352,-6.445327 1.754453,-1.169087 3.34608,-1.933143 6.08,-2.918685 1.144,-0.412396 1.72,-0.671481 1.28,-0.575743 -0.44,0.09574 -1.567784,0.307591 -2.506187,0.470786 -1.021536,0.177652 -2.868976,0.943781 -4.603916,1.909232 -3.320115,1.847562 -3.268892,1.830154 -2.798403,0.951037 1.532031,-2.862625 15.380924,-7.359162 22.94825,-7.450968 4.11738,-0.04995 4.786337,-0.269674 2.607379,-0.856407 -7.371055,-1.984819 -26.025359,3.955273 -27.03801,8.609716 -0.322375,1.481739 -0.399534,1.597059 -1.422387,2.125999 -4.35661,2.25289 2.609909,-15.752944 8.039923,-20.780179 8.930727,-8.268278 26.097793,-7.783807 47.973353,1.353852 3.51244,1.467185 3.61339,1.650615 2.57116,4.671969 -0.84353,2.445376 -0.66833,2.567056 0.46654,0.324015 0.76672,-1.515386 1.00412,-1.752928 1.57267,-1.573567 0.36829,0.116189 1.31763,0.371467 2.10963,0.567285 4.21775,1.042815 11.220869,7.197914 15.617639,13.726473 6.81628,10.121162 3.25361,28.153112 -6.97538,35.304962 -4.642559,3.24595 -15.024319,5.41025 -21.282259,4.43673 z m 6.78081,-5.17033 c 0.45002,-0.28613 3.61898,-9.14439 3.61964,-10.11804 4.4e-4,-0.6514 -0.11627,-0.66708 -4.19582,-0.56389 -3.863,0.0977 -4.40982,0.0367 -6.88522,-0.76856 -3.21186,-1.04481 -2.75009,-1.42572 -4.46989,3.68707 -1.88505,5.60406 -1.85498,5.68555 2.30399,6.24348 2.31737,0.31088 2.29157,0.34964 4.34353,-6.52521 0.23263,-0.7794 0.57074,-1.46466 0.75136,-1.5228 0.18062,-0.0581 -0.28139,1.73154 -1.0267,3.97708 -0.7453,2.24554 -1.36109,4.19436 -1.3684,4.33072 -0.0439,0.81771 5.91776,1.90216 6.92751,1.26015 z m 14.831119,-1.29707 c 3.79229,-3.01946 5.24978,-6.07782 5.02529,-10.54489 -0.20056,-3.99066 -0.94042,-6.46806 -1.92962,-6.46121 -1.33401,0.009 -1.57333,0.39963 -1.03492,1.68823 1.39255,3.33284 -0.30152,12.17631 -2.9181,15.2332 -1.40563,1.64216 -1.13264,1.66912 0.85735,0.0847 z m -29.038679,-5.41309 c 1.01929,-2.77085 1.92844,-5.33268 2.02033,-5.69295 0.15508,-0.60796 -9.15123,-4.43988 -9.60214,-3.95374 -0.25975,0.28004 -5.631443,11.17855 -5.631443,11.42551 0,0.24118 9.767223,3.13276 10.880003,3.22102 0.33828,0.0268 1.02717,-1.44939 2.33325,-4.99984 z m -24.909226,-3.38631 c -3.843967,-2.80297 -6.110985,-6.41497 -4.724337,-7.52718 4.599367,-3.68911 8.228026,-6.44442 8.487099,-6.44442 0.176927,0 0.238798,-0.216 0.137491,-0.48 -0.295471,-0.76999 0.178748,-0.57504 2.536489,1.04273 1.562783,1.07231 2.252101,1.75491 2.330353,2.30765 0.293593,2.07383 3.017294,3.59171 5.125954,2.85663 0.899597,-0.3136 1.413737,-0.19159 4.607747,1.09346 12.63419,5.0831 25.23786,6.21942 33.749289,3.04277 l 1.67411,-0.62482 -0.91941,-1.82134 c -4.339099,-8.5957 -16.070989,-16.982467 -30.350629,-21.696703 -5.65033,-1.865385 -5.48945,-1.883835 -8.01916,0.919621 -6.01429,6.665122 -14.047056,14.079302 -18.591702,17.160002 -1.246542,0.845 -2.791797,2.01443 -3.433899,2.59873 l -1.16746,1.06236 1.735943,1.62945 c 1.880784,1.76541 7.927491,6.26553 8.422122,6.26796 0.167215,8.2e-4 -0.552785,-0.62328 -1.6,-1.3869 z m -27.953701,-0.24277 c 2.986388,-0.90709 2.798178,-1.0389 -1.227772,-0.85985 l -3.437448,0.15288 -0.878026,-0.93993 c -1.183127,-1.26654 -1.592026,-2.99179 -1.469525,-6.20032 0.171101,-4.48145 -1.057906,-2.25772 -1.538582,2.78387 -0.467005,4.8982 2.77504,6.81785 8.551353,5.06335 z m 5.089675,-6.38362 c 1.144,-0.35559 2.887398,-1.14184 3.874218,-1.74722 1.714097,-1.05154 6.267115,-3.03799 6.963189,-3.03799 0.181935,0 0.445947,-0.18 0.586692,-0.4 0.140746,-0.22 0.687901,-0.64293 1.215901,-0.93984 2.211184,-1.24341 0.593143,-2.54338 -4.107079,-3.29972 -7.370217,-1.18599 -15.276067,0.5584 -13.961615,3.08057 l 0.395554,0.75899 -0.784054,-0.72 c -1.02909,-0.94502 -1.790703,-0.90882 -2.882299,0.137 l -0.894514,0.85699 0.840304,1.46301 c 1.507319,2.6243 2.882856,3.72905 5.233703,4.2034 0.616,0.1243 1.192,0.2407 1.28,0.25867 0.088,0.018 1.096,-0.25827 2.24,-0.61386 z m 80.168321,-8.04728 c 2.71651,-6.55381 3.09108,-8.51597 1.83168,-9.595027 -0.484,-0.414692 -1.51423,-1.585598 -2.28939,-2.602013 -2.18465,-2.864582 -5.12553,-5.205406 -5.61891,-4.47243 -0.21159,0.314346 -1.496129,2.551538 -2.854529,4.971537 -2.69119,4.794373 -2.62213,4.730023 -3.93262,3.664623 -0.92009,-0.747998 -4.80856,-3.104623 -5.12269,-3.104623 -0.0948,0 0.74357,0.672214 1.86293,1.493809 3.7656,2.763894 8.13292,6.419294 8.96889,7.506874 2.461339,3.20213 2.911349,3.38147 3.470819,1.38323 0.22422,-0.80085 0.95329,-2.14135 1.62015,-2.97889 0.66687,-0.83754 1.31008,-1.91166 1.42936,-2.38694 0.11929,-0.47527 0.34493,-0.94327 0.50144,-1.03999 0.4071,-0.2516 0.43931,-0.36307 -1.33962,4.63603 -0.89329,2.51032 -1.57729,4.58708 -1.52,4.61504 0.0573,0.028 0.39217,0.22237 0.74417,0.43202 0.352,0.20965 0.72749,0.38965 0.83442,0.4 0.10693,0.0104 0.74319,-1.30511 1.4139,-2.92325 z m -92.030571,-4.50359 c 2.33648,-5.029992 6.65632,-11.893545 7.649054,-12.153151 0.343356,-0.08979 1.525021,-1.51279 2.625922,-3.162222 2.453936,-3.676629 4.162061,-5.736981 7.586858,-9.151326 3.055777,-3.046451 3.106606,-3.169332 1.249902,-3.021663 -1.125466,0.08951 -1.659179,-0.07145 -2.8,-0.844474 -0.775217,-0.525286 -2.201486,-1.464301 -3.169486,-2.086698 -0.968,-0.622398 -2.178273,-1.568474 -2.689496,-2.102393 l -0.929496,-0.970761 3.020981,-3.290827 c 3.473697,-3.783981 6.484677,-7.371368 5.552994,-6.616031 -0.349241,0.283137 -2.218983,1.785849 -4.154983,3.339359 -4.543173,3.645592 -10.719737,9.604424 -12.959999,12.503143 -0.968,1.252514 -2.635657,3.412514 -3.705905,4.8 -2.180374,2.82667 -4.6140951,6.493033 -4.6140951,6.95106 0,0.165607 -0.864,2.204846 -1.92,4.531642 -2.445778,5.389038 -1.760034,7.368212 3.496705,10.092082 0.9808121,0.50822 2.4312951,1.35217 3.2232951,1.87544 1.826132,1.20651 1.630506,1.25994 2.537749,-0.69318 z m 45.451499,-7.274343 c 3.812393,-3.570349 3.887003,-3.444999 -2.069249,-3.476537 -3.50493,-0.01856 -10.071856,0.801726 -10.593362,1.323232 -0.104893,0.104894 1.158618,0.612494 2.807803,1.128 4.711564,1.472751 6.651113,2.647481 6.221141,3.767969 -0.330751,0.861929 0.264309,0.412779 3.633667,-2.742664 z M 33.682566,50.186647 c 0.38443,-0.202723 1.130963,-0.788941 1.658963,-1.302708 2.029847,-1.975129 7.624285,-4.728705 9.607305,-4.728705 0.583353,0 0.792695,-0.17161 0.792695,-0.649815 0,-1.416445 4.006165,-7.483332 6.947644,-10.521427 1.363162,-1.407936 1.397311,-1.398045 -2.275666,-0.659175 -1.723619,0.346729 -3.587931,0.636912 -4.142916,0.64485 -2.271905,0.0325 -4.457889,2.231216 -9.760007,9.816863 -3.800491,5.437297 -4.985358,8.537755 -2.828018,7.400117 z M 79.254861,35.001901 c -0.10633,-0.106334 -0.38233,-0.117702 -0.61333,-0.02526 -0.25528,0.102153 -0.17945,0.177979 0.19333,0.193334 0.33733,0.01389 0.52633,-0.06174 0.42,-0.16807 z m -5.74022,-9.856342 c 0.31409,-7.062396 -5.64965,-11.46584 -7.2785,-5.374213 -0.20238,0.756862 -1.00846,2.431098 -1.79129,3.720525 -1.765045,2.907277 -1.79281,2.743363 0.46469,2.743363 1.86161,0 7.0843,1.803259 7.58931,2.620393 0.49238,0.796683 0.87799,-0.611719 1.01579,-3.710068 z m 5.88401,-5.020181 c 0.0564,-6.272735 -2.70182,-9.383393 -6.24751,-7.045703 -1.10082,0.725771 -0.93963,0.845163 1.82996,1.35548 3.5109,0.646909 4.37121,2.443596 3.94954,8.248219 -0.13147,1.809696 -0.0977,2.186255 0.13186,1.47186 0.16969,-0.528 0.32095,-2.341435 0.33615,-4.029856 z M 55.661529,16.955234 c 0.41366,-0.267327 0.405213,-0.310877 -0.06112,-0.315099 -0.297613,-0.0027 -0.630111,0.139099 -0.738885,0.315099 -0.250299,0.404992 0.17332,0.404992 0.8,0 z m 8.640002,-4.332893 c 0.44,-0.13323 2.096,-0.40477 3.68,-0.603424 l 2.88,-0.361188 -1.68199,-1.141587 C 68.254451,9.8882693 65.750391,7.7500273 63.614962,5.7644933 l -3.882593,-3.610062 -1.79542,0.166247 c -2.463338,0.228094 -5.215642,1.203547 -10.11542,3.585043 -2.288,1.112063 -4.448,2.125904 -4.8,2.252979 -0.427082,0.154181 -0.501517,0.282556 -0.223739,0.385878 0.228943,0.08516 0.804943,0.002 1.28,-0.184727 3.54351,-1.393043 5.316613,-1.149244 7.800524,1.072563 0.823232,0.7363637 2.570324,1.8623237 3.882425,2.5021317 2.809594,1.370018 3.048631,1.764342 1.796648,2.963818 -1.619199,1.551291 -1.041261,1.48143 2.504142,-0.3027 1.891999,-0.952098 3.799999,-1.840094 4.240002,-1.973323 z"
     id="path1" />
</svg>
