<?xml version="1.0" encoding="UTF-8" standalone="no"?>
<!-- Created with Inkscape (http://www.inkscape.org/) -->

<svg
   version="1.1"
   id="svg1"
   width="130.1545"
   height="70.444542"
   viewBox="0 0 130.1545 70.444544"
   sodipodi:docname="Icon_gunslinger.svg"
   inkscape:version="1.4.2 (ebf0e940d0, 2025-05-08)"
   xmlns:inkscape="http://www.inkscape.org/namespaces/inkscape"
   xmlns:sodipodi="http://sodipodi.sourceforge.net/DTD/sodipodi-0.dtd"
   xmlns="http://www.w3.org/2000/svg"
   xmlns:svg="http://www.w3.org/2000/svg">
  <defs
     id="defs1" />
  <sodipodi:namedview
     id="namedview1"
     pagecolor="#505050"
     bordercolor="#eeeeee"
     borderopacity="1"
     inkscape:showpageshadow="0"
     inkscape:pageopacity="0"
     inkscape:pagecheckerboard="0"
     inkscape:deskcolor="#505050"
     inkscape:zoom="6.2605754"
     inkscape:cx="70.360944"
     inkscape:cy="31.466756"
     inkscape:window-width="1838"
     inkscape:window-height="1011"
     inkscape:window-x="40"
     inkscape:window-y="47"
     inkscape:window-maximized="1"
     inkscape:current-layer="svg1" />
  <g
     id="g2"
     transform="translate(-28.517853,-59.51864)">
    <path
       style="fill:#0b98c7"
       d="m 83.999998,98.41327 c -0.704,-0.221898 -2.792,-0.58029 -4.64,-0.796426 -12.257609,-1.43361 -12.22114,-1.424184 -12.762421,-3.298511 l -0.299858,-1.038335 -0.02886,1.000817 c -0.01606,0.556892 0.197811,1.188939 0.482163,1.42493 0.711673,0.590636 -0.09126,0.882183 -2.511024,0.911761 -1.432218,0.01751 -1.84,-0.08389 -1.84,-0.457508 0,-0.264 -0.036,-0.491126 -0.08,-0.504723 -0.912531,-0.282 -6.064356,-0.742921 -6.24826,-0.559017 -0.14061,0.14061 -3.634274,0.115475 -7.763697,-0.05586 -4.129423,-0.171331 -8.200966,-0.339654 -9.047873,-0.37405 -1.783717,-0.07244 -2.333675,-0.675729 -1.828135,-2.005401 0.306293,-0.805611 0.283868,-0.82201 -1.199954,-0.877523 -0.831644,-0.03111 -2.01608,-0.08299 -2.63208,-0.115285 -0.616,-0.03229 -1.870449,-0.07884 -2.787666,-0.103429 -2.385986,-0.06398 -2.970725,-2.467937 -1.473079,-6.056072 0.743347,-1.780948 1.130711,-1.782993 10.71384,-0.05656 12.194099,2.196803 12.108958,2.18308 16.746905,2.699383 4.7703,0.531037 9.420184,0.926901 18.719999,1.593713 15.356059,1.101054 14.585625,1.182754 11.359995,-1.204662 -1.143997,-0.846717 -2.079995,-1.746717 -2.079995,-2 0,-0.632584 0.280661,-0.577094 0.908706,0.179665 0.292212,0.352098 1.395294,1.108098 2.451294,1.68 1.360059,0.736572 1.92,1.226469 1.92,1.679822 0,0.689535 2.516777,0.923807 3.76,0.349996 0.508969,-0.234916 0.56,-0.01787 0.56,2.381776 v 2.640244 l -2.48,-0.198769 c -8.034434,-0.643952 -9.162333,-0.643404 -9.958132,0.0048 l -0.758132,0.617561 0.758132,0.847419 c 0.418656,0.467962 1.617868,1.135805 2.678132,1.491457 2.062798,0.691939 1.489523,0.869966 -0.64,0.198748 z m -4.496,-3.983537 c -0.353465,-0.337495 -11.361248,-2.039154 -11.60623,-1.794172 -0.294963,0.294964 0.04373,0.377857 4.90223,1.199817 5.210676,0.88154 7.188411,1.05688 6.704,0.594355 z M 48.503871,92.838624 c -0.320596,-0.518735 -1.428478,-0.615216 -2.009,-0.174956 -0.513915,0.389746 -0.42866,0.437055 0.804013,0.446153 0.758387,0.0056 1.300631,-0.116442 1.204987,-0.271197 z m -5.130714,-0.657336 c -0.120061,-0.194263 -1.133322,-0.322662 -2.352043,-0.29805 l -2.141115,0.04324 2.24,0.377023 c 2.413048,0.406148 2.574298,0.397402 2.253158,-0.122213 z m 17.906841,-1.644953 c -3.879266,-0.8086 -14.783275,-2.329886 -19.382546,-2.704182 -4.979069,-0.405203 -8.288212,-0.956682 -10.272665,-1.71197 -1.154575,-0.439434 -1.462193,0.02436 -1.39987,2.110563 0.06301,2.109163 0.409191,2.499089 0.685368,0.771972 0.243257,-1.521248 0.03611,-1.478822 4.21182,-0.862616 1.714842,0.253057 4.269894,0.544095 5.677894,0.646751 1.408,0.102657 3.568,0.319604 4.8,0.482106 1.232,0.162502 3.32,0.368952 4.64,0.458779 4.053124,0.275816 10.069724,0.875318 10.211937,1.01753 0.0741,0.0741 0.578729,0.117437 1.121396,0.0963 0.9123,-0.03553 0.890191,-0.05854 -0.293334,-0.305233 z m 25.76,7.68624 c -2.988871,-0.220955 -3.914516,-0.672636 -3.779178,-1.8441 0.113846,-0.985442 -0.09856,-0.969462 7.059178,-0.53109 l 4.08,0.249877 v 1.166765 1.166766 l -2.48,-0.0154 c -1.364,-0.0085 -3.56,-0.09524 -4.88,-0.19282 z m -0.182409,-0.906319 c 0.337776,-0.546534 -0.583988,-0.969239 -1.173524,-0.538159 -0.304766,0.22285 -0.460358,0.498943 -0.34576,0.613541 0.304601,0.304601 1.315439,0.254446 1.519284,-0.07538 z m 7.028699,-10.13664 c -0.113246,-0.45121 -0.05374,-1.13521 0.132246,-1.52 0.289967,-0.599933 0.341234,-0.483041 0.359806,0.820382 0.02391,1.677841 -0.175407,1.961233 -0.492052,0.699618 z m -1.561756,-8.934589 c -1.603754,-0.603619 -1.968279,-0.648828 -2.24,-0.277806 -0.469888,0.641609 -5.144613,-0.94308 -5.657582,-1.917868 -0.688952,-1.309209 -6.788692,-3.472342 -9.400366,-3.333625 -1.58226,0.08404 -1.586864,0.08138 -1.68842,-0.976634 -0.193294,-2.01374 1.251214,-2.642211 2.424733,-1.054943 0.79555,1.07604 3.807072,2.324585 3.466548,1.437194 -0.105697,-0.275442 -0.272198,-0.819634 -0.370002,-1.209317 -0.335578,-1.33705 -5.97448,-2.886506 -9.528426,-2.618218 -4.421291,0.333763 -5.815669,-1.61705 -4.06876,-5.692423 1.315892,-3.069852 3.712133,-4.031807 5.085122,-2.041389 1.385488,2.00854 1.763576,2.250216 6.132619,3.92 2.2,0.840808 4.216,1.706003 4.48,1.922656 0.264,0.216653 3.396,1.360657 6.96,2.542231 l 6.48,2.148316 v 0.967635 c 0,0.709938 -0.122502,0.920627 -0.459986,0.791122 -0.252992,-0.09708 -1.080992,-0.339179 -1.84,-0.537994 -0.759008,-0.198815 -3.324014,-0.980209 -5.700014,-1.736433 -2.376,-0.756224 -4.608,-1.463692 -4.96,-1.572151 -0.564908,-0.174062 -0.650677,-0.0319 -0.730998,1.211603 l -0.091,1.408802 1.690999,0.628936 c 0.930049,0.345915 4.026745,1.402113 6.881547,2.347107 l 5.19055,1.71817 0.0095,1.36 c 0.0052,0.748 -0.02655,1.343343 -0.07055,1.322985 -0.044,-0.02036 -0.94196,-0.361438 -1.995466,-0.757956 z m -4.644534,-2.134254 c 0,0.195244 0.236525,0.258375 0.536603,0.143225 0.480142,-0.184248 0.471725,-0.23133 -0.08,-0.447466 -0.996009,-0.390182 -1.416603,-0.321108 -1.416603,0.232648 0,0.425213 0.08688,0.447081 0.48,0.120818 0.316629,-0.262779 0.48,-0.279533 0.48,-0.04923 z m -1.80428,-0.750775 c -0.101306,-0.264 -0.240787,-0.48 -0.309957,-0.48 -0.06917,0 -0.125763,0.216 -0.125763,0.48 0,0.264 0.13948,0.48 0.309957,0.48 0.170476,0 0.22707,-0.216 0.125763,-0.48 z M 74.701663,71.546162 c -0.341362,-0.24961 -0.688715,-0.385781 -0.771894,-0.302601 -0.176115,0.176115 0.649068,0.74434 1.091391,0.751537 0.165638,0.0027 0.02187,-0.199326 -0.319497,-0.448936 z M 71.85194,66.730168 c -0.521431,-0.229818 -1.158903,-0.336942 -1.416603,-0.238053 -0.611113,0.234506 0.409093,0.664456 1.564661,0.659402 0.778813,-0.0034 0.774892,-0.01457 -0.148058,-0.421349 z m 18.868058,7.836601 c -7.190502,-2.226349 -8.966841,-2.993253 -8.873101,-3.830808 0.128783,-1.15064 0.03779,-1.158793 4.47659,0.401111 2.265739,0.796237 5.009847,1.622864 6.098018,1.836949 1.956247,0.384868 1.978493,0.401369 1.978493,1.467611 0,1.282715 0.05286,1.280918 -3.68,0.125137 z"
       id="path4" />
    <path
       style="fill:#8f191c"
       d="m 130.27217,129.25508 c -0.68118,-0.92135 -0.68702,-0.96555 -0.085,-0.64335 0.35554,0.19029 0.86177,0.26334 1.12495,0.16235 0.31389,-0.12045 0.45285,-0.009 0.40394,0.32439 -0.16063,1.09445 -0.70674,1.15368 -1.44391,0.15661 z M 131.36,129.6 c 0.10877,-0.176 0.0453,-0.32 -0.14112,-0.32 -0.18638,0 -0.33888,0.144 -0.33888,0.32 0,0.176 0.0635,0.32 0.14111,0.32 0.0776,0 0.23011,-0.144 0.33889,-0.32 z m 3.5538,-3.0483 c 3.30558,-3.44521 3.90371,-3.95601 1.58283,-1.3517 -1.37241,1.54 -2.60264,2.8 -2.73386,2.8 -0.13121,0 0.38676,-0.65174 1.15103,-1.4483 z m -6.61802,0.2483 -0.77578,-0.88 0.88,0.77578 c 0.82249,0.72508 1.02674,0.98422 0.77578,0.98422 -0.0573,0 -0.45332,-0.396 -0.88,-0.88 z m 5.35103,-1.85029 c 0.75083,-0.56878 0.96407,-0.57563 1.17053,-0.0376 0.11545,0.30086 -0.12721,0.44044 -0.79895,0.45954 -0.89494,0.0254 -0.92183,-0.005 -0.37158,-0.42194 z M 125.76,124.64 c -0.3195,-0.38498 -0.31142,-0.58533 0.0408,-1.01204 0.34239,-0.41478 0.35103,-0.56171 0.0392,-0.66667 -0.60269,-0.20284 -0.48009,-0.72129 0.17056,-0.72129 0.67889,0 0.74602,1.50184 0.0854,1.91014 -0.3159,0.19523 -0.27234,0.33666 0.18565,0.60274 0.32912,0.19121 0.43603,0.35203 0.23758,0.35739 -0.19845,0.005 -0.54008,-0.20627 -0.75918,-0.47027 z m 9.61005,-1.04 c 0.014,-0.33463 1.58995,-1.45075 1.58995,-1.12606 0,0.26891 -1.15947,1.36606 -1.44366,1.36606 -0.086,0 -0.15182,-0.108 -0.14629,-0.24 z M 122.83918,122 c -0.40625,-0.518 -0.39119,-0.5248 0.20082,-0.0905 0.352,0.25819 0.7,0.51019 0.77333,0.56 0.0733,0.0498 -0.017,0.0906 -0.20082,0.0906 -0.18378,0 -0.53178,-0.252 -0.77333,-0.56 z m 9.77796,-2.3435 c 0,-0.33908 0.11314,-0.6165 0.25143,-0.6165 0.13828,0 0.25143,0.2075 0.25143,0.46111 0,0.25361 -0.11315,0.53104 -0.25143,0.61651 -0.13829,0.0855 -0.25143,-0.12204 -0.25143,-0.46112 z m -11.84755,-0.3765 -0.60959,-0.72 0.72,0.60959 c 0.396,0.33528 0.72,0.65928 0.72,0.72 0,0.25608 -0.25754,0.067 -0.83041,-0.60959 z M 130,119.14807 c -0.45775,-0.18471 -0.54378,-0.74807 -0.11424,-0.74807 0.15717,0 0.36865,0.216 0.46996,0.48 0.1013,0.264 0.15271,0.46863 0.11423,0.45473 -0.0385,-0.0139 -0.24995,-0.0979 -0.46995,-0.18666 z m 3.50738,-0.28114 c -0.34944,-0.39544 -0.28411,-0.46693 0.42667,-0.46693 0.50564,0 0.78893,0.15106 0.71261,0.38 -0.19088,0.57265 -0.67727,0.60976 -1.13928,0.0869 z m 3.09394,-0.0335 c -0.69945,-0.84279 0.23588,-1.33843 1.02902,-0.54529 l 0.66323,0.66323 -0.65502,0.1713 c -0.36847,0.0964 -0.82222,-0.0302 -1.03723,-0.28924 z M 125.92,118.08 c -0.10878,-0.176 -0.0453,-0.32 0.14111,-0.32 0.18639,0 0.33889,0.144 0.33889,0.32 0,0.176 -0.0635,0.32 -0.14112,0.32 -0.0776,0 -0.23011,-0.144 -0.33888,-0.32 z m 2.67918,-0.24 c -0.39804,-0.50754 -0.38672,-0.51886 0.12082,-0.12082 0.308,0.24155 0.56,0.49355 0.56,0.56 0,0.26337 -0.26278,0.0939 -0.68082,-0.43918 z m -9.6,-0.64 c -0.39804,-0.50754 -0.38672,-0.51886 0.12082,-0.12082 0.53304,0.41804 0.70255,0.68082 0.43918,0.68082 -0.0665,0 -0.31845,-0.252 -0.56,-0.56 z m 10.39976,0.14602 c -0.12185,-0.21231 -0.10371,-0.27927 0.0403,-0.1488 0.14402,0.13047 0.45511,0.0768 0.6913,-0.11918 0.27,-0.22408 0.42945,-0.23576 0.42945,-0.0315 0,0.49969 -0.91124,0.73471 -1.16106,0.29944 z m 2.92106,0.094 c 0.10877,-0.176 0.26127,-0.32 0.33888,-0.32 0.0776,0 0.14112,0.144 0.14112,0.32 0,0.176 -0.1525,0.32 -0.33889,0.32 -0.18639,0 -0.24989,-0.144 -0.14111,-0.32 z m 3.36,0.0315 c 0,-0.3323 0.6087,-0.81335 0.78901,-0.62355 0.0585,0.0616 -0.095,0.29772 -0.34129,0.52466 -0.24625,0.22694 -0.44772,0.27144 -0.44772,0.0989 z m -7.40082,-0.9115 c -0.39804,-0.50754 -0.38672,-0.51886 0.12082,-0.12082 0.308,0.24155 0.56,0.49355 0.56,0.56 0,0.26337 -0.26278,0.0939 -0.68082,-0.43918 z m 6.44082,0.24 c 0,-0.176 0.144,-0.32 0.32,-0.32 0.176,0 0.32,0.144 0.32,0.32 0,0.176 -0.144,0.32 -0.32,0.32 -0.176,0 -0.32,-0.144 -0.32,-0.32 z m 3.84,-0.28118 c 0,-0.39142 1.88905,-1.13644 2.16975,-0.85573 0.12608,0.12608 -0.0501,0.43346 -0.39142,0.68307 -0.68908,0.50387 -1.77833,0.60963 -1.77833,0.17266 z m -11.36323,-0.68404 c -0.11055,-0.17887 -0.31891,-0.25235 -0.46302,-0.16328 -0.14412,0.0891 -0.80793,-0.52058 -1.47514,-1.35478 -1.78438,-2.23096 -1.84234,-2.31783 -1.5378,-2.30458 0.15355,0.007 0.82763,0.80196 1.49795,1.76729 0.67032,0.96533 1.33801,1.68145 1.48374,1.59138 0.14574,-0.0901 0.44293,0.0506 0.66042,0.31271 0.21749,0.26206 0.31431,0.47648 0.21514,0.47648 -0.0992,0 -0.27074,-0.14635 -0.38129,-0.32522 z M 123.04,114.88 c -0.10878,-0.176 0.0352,-0.32 0.32,-0.32 0.28477,0 0.42877,0.144 0.32,0.32 -0.10878,0.176 -0.25278,0.32 -0.32,0.32 -0.0672,0 -0.21123,-0.144 -0.32,-0.32 z m 13.92,0.054 c 0,-0.13527 0.1728,-0.41875 0.384,-0.62995 0.52365,-0.52366 0.91427,-0.48397 0.70121,0.0713 -0.19051,0.49646 -1.08521,0.95708 -1.08521,0.55869 z m 3.84,-0.39284 c 0,-0.18639 0.144,-0.24989 0.32,-0.14111 0.176,0.10877 0.32,0.26127 0.32,0.33888 0,0.0776 -0.144,0.14112 -0.32,0.14112 -0.176,0 -0.32,-0.1525 -0.32,-0.33889 z M 130.02114,113.84 c -0.16348,-0.22 -0.28288,-0.76322 -0.26534,-1.20716 0.0284,-0.71982 -0.0979,-0.81055 -1.16816,-0.83861 -0.66003,-0.0173 -1.17026,0.0579 -1.13385,0.16715 0.0364,0.10924 -0.0418,0.23462 -0.17379,0.27862 -0.63494,0.21164 -0.60768,0.01 0.10422,-0.77124 0.68945,-0.75653 0.70456,-0.82448 0.13578,-0.61069 -1.2214,0.45909 -1.98856,0.40183 -2.349,-0.17532 -0.30244,-0.48427 -0.27473,-0.54572 0.16923,-0.37536 0.41037,0.15747 0.48112,0.0741 0.31169,-0.36747 -0.16321,-0.42532 -0.0957,-0.52379 0.26445,-0.38559 0.27496,0.10551 0.48363,0.0103 0.48363,-0.22058 0,-1.3608 0.74428,-2.04406 1.65843,-1.52246 0.90003,0.51355 1.451,1.30871 0.9068,1.30871 -0.16207,0 0.039,0.36 0.44674,0.8 0.40778,0.44 0.9769,0.8 1.26472,0.8 0.28782,0 0.52331,0.1594 0.52331,0.35423 0,0.19698 -0.23319,0.26476 -0.52527,0.15268 -0.434,-0.16655 -0.4567,-0.11896 -0.13065,0.27391 0.44648,0.53798 1.71029,-0.0513 2.059,-0.96002 0.21898,-0.57064 0.85682,-0.59079 1.59584,-0.0504 0.51815,0.37888 0.50479,0.41464 -0.1741,0.46578 -0.40444,0.0305 -0.78278,0.1977 -0.84076,0.37163 -0.058,0.17393 -0.2991,0.24192 -0.53583,0.15108 -0.25072,-0.0962 -0.52243,0.12475 -0.65082,0.52926 -0.16624,0.52379 -0.40923,0.65833 -0.98891,0.54752 -0.7724,-0.14766 -1.04518,0.19557 -0.4485,0.56434 0.39431,0.24369 0.42496,1.12 0.0392,1.12 -0.15445,0 -0.41457,-0.18 -0.57804,-0.4 z m 3.21377,0.17842 c 0.36329,-0.36329 1.54347,-0.45177 1.32568,-0.0994 -0.1091,0.17653 -0.50187,0.32097 -0.87281,0.32097 -0.37095,0 -0.57474,-0.0997 -0.45287,-0.22158 z M 131.59985,113.2 c 0.0733,-0.22 0.40466,-0.45261 0.73648,-0.51691 0.52195,-0.10115 0.54545,-0.0472 0.1743,0.4 -0.50759,0.6116 -1.10085,0.68775 -0.91078,0.11691 z m 1.90532,-0.57456 C 133.16853,112.08639 133.19944,112 133.72897,112 c 0.35874,0 0.58565,0.19588 0.54531,0.47073 -0.11298,0.76978 -0.35463,0.81839 -0.76911,0.15471 z m 3.93805,0.32934 c 0.11055,-0.17887 0.33505,-0.24238 0.49889,-0.14112 0.44385,0.27432 0.36109,0.46634 -0.201,0.46634 -0.27439,0 -0.40844,-0.14635 -0.29789,-0.32522 z m 8.50938,-0.34649 c -0.95007,-0.32719 -1.95807,-0.79677 -2.24,-1.04351 -0.28193,-0.24675 -1.0886,-0.7474 -1.7926,-1.11256 -0.704,-0.36517 -1.0365,-0.6703 -0.73889,-0.67808 0.29761,-0.008 0.63247,0.13368 0.74413,0.31434 0.11166,0.18067 0.39446,0.28867 0.62845,0.24 0.23399,-0.0487 0.70459,0.23157 1.04579,0.62274 l 0.62036,0.71123 0.68796,-0.79123 c 0.78875,-0.90714 1.49604,-1.01972 1.7787,-0.28312 0.11929,0.31086 -0.0848,0.74152 -0.52576,1.10936 -0.39641,0.33068 -0.54924,0.60604 -0.33963,0.61189 0.20961,0.006 0.4756,-0.14224 0.59109,-0.32909 0.11548,-0.18686 0.59198,-0.49202 1.05888,-0.67814 0.48363,-0.1928 0.6768,-0.40232 0.44892,-0.48693 -0.97946,-0.36368 -0.42787,-1.3645 0.64,-1.16123 1.48439,0.28256 1.8486,1.02952 0.96,1.96889 -0.22,0.23258 -0.4,0.70058 -0.4,1.04 0,0.77283 -0.80517,0.75896 -3.1674,-0.0546 z m 2.67091,-0.72499 c 0.93964,-0.87083 1.02884,-1.33334 0.31031,-1.60907 -0.76428,-0.29328 -0.80167,-0.25658 -0.59153,0.58067 0.15653,0.62366 0.0172,0.87099 -0.7139,1.26719 -0.60735,0.32914 -0.72827,0.49653 -0.36488,0.5051 0.29893,0.007 0.91093,-0.32771 1.36,-0.74389 z m 2.52097,1.10302 c -0.6805,-0.1823 -0.68285,-0.20187 -0.10871,-0.90632 0.78151,-0.95889 1.08109,-0.90918 0.81879,0.13588 -0.18822,0.74994 -0.15291,0.80451 0.28531,0.44082 0.27933,-0.23182 0.50013,-0.27161 0.50013,-0.0901 0,0.4527 -0.67028,0.64082 -1.49552,0.41974 z m 1.52695,-1.35369 c -0.25704,-0.73736 -0.25493,-1.12334 0.008,-1.44 0.19748,-0.23795 0.23342,-0.44275 0.0799,-0.45512 -0.15355,-0.0124 0.009,-0.13917 0.36082,-0.28178 0.41929,-0.16986 0.81987,-0.10182 1.16158,0.19733 0.46207,0.4045 0.54392,0.36765 0.71724,-0.32293 0.10761,-0.42875 0.44082,-0.87362 0.74047,-0.98861 0.46474,-0.17834 0.45401,-0.10872 -0.073,0.47361 -0.59792,0.6607 -0.59889,0.6965 -0.03,1.11248 0.32937,0.24084 0.48578,0.59487 0.35575,0.80526 -0.17392,0.28141 -0.29584,0.27223 -0.48674,-0.0367 -0.29007,-0.46935 -1.88992,0.83071 -1.89978,1.54378 -0.0106,0.76658 -0.58542,0.39281 -0.93409,-0.60737 z m 1.42172,-0.61392 c 0.11601,-0.18771 0.14512,-0.4071 0.0647,-0.48754 -0.22319,-0.22319 -1.19784,0.21868 -1.19784,0.54306 0,0.40058 0.87786,0.35756 1.13315,-0.0555 z m -29.25658,1.00389 c -0.27512,-0.17003 -0.30785,-0.33495 -0.0928,-0.46782 0.18263,-0.11287 0.42842,-0.0493 0.54621,0.14129 0.29391,0.47555 0.0602,0.6439 -0.45336,0.32653 z m 10.95009,-0.16853 c 0,-0.25625 0.12,-0.39176 0.26667,-0.30111 0.14667,0.0906 0.26667,0.30031 0.26667,0.46592 0,0.16562 -0.12,0.30112 -0.26667,0.30112 -0.14667,0 -0.26667,-0.20967 -0.26667,-0.46593 z M 154.24,112 c 0.264,-0.17061 0.624,-0.3102 0.8,-0.3102 0.176,0 0.104,0.13959 -0.16,0.3102 -0.264,0.17061 -0.624,0.3102 -0.8,0.3102 -0.176,0 -0.104,-0.13959 0.16,-0.3102 z m -38.4,-0.64 c -0.41021,-0.2651 -0.39858,-0.31092 0.08,-0.3151 0.308,-0.003 0.56,0.1391 0.56,0.3151 0,0.39027 -0.0361,0.39027 -0.64,0 z m 7.129,-0.039 c -0.19744,-0.19744 -0.27377,-0.58107 -0.16962,-0.85249 0.11197,-0.29177 0.0554,-0.41067 -0.13849,-0.29087 -0.18032,0.11145 -0.6619,-0.15293 -1.07016,-0.58751 -0.40826,-0.43457 -0.61639,-0.79013 -0.46251,-0.79013 0.15388,0 0.10698,-0.1728 -0.10422,-0.384 -0.45201,-0.45201 -0.51721,-1.0161 -0.0867,-0.75002 0.16484,0.10187 0.24696,-0.2141 0.18431,-0.70912 -0.0702,-0.555 0.13049,-1.19256 0.53046,-1.68486 0.3539,-0.4356 0.55046,-0.612 0.4368,-0.392 -0.12093,0.23407 -0.008,0.4 0.27335,0.4 0.80459,0 0.92414,0.62633 0.23075,1.20894 -0.65192,0.54777 -1.30626,2.86244 -0.70395,2.4902 0.16871,-0.10427 0.41094,-0.021 0.5383,0.18508 0.14461,0.23399 0.0928,0.28894 -0.13789,0.14633 -0.20319,-0.12558 -0.36944,-0.0998 -0.36944,0.0572 0,0.51633 0.41401,0.71256 0.80999,0.38392 0.77651,-0.64444 1.51862,-0.0146 0.96978,0.82304 -0.36576,0.55821 -0.38799,0.77601 -0.0915,0.89609 0.21545,0.0872 0.24052,0.17001 0.0557,0.1839 -0.1848,0.0139 -0.49755,-0.13628 -0.695,-0.33373 z m 0.551,-1.241 c 0,-0.176 -0.1525,-0.32 -0.33889,-0.32 -0.18639,0 -0.24989,0.144 -0.14111,0.32 0.10877,0.176 0.26127,0.32 0.33888,0.32 0.0776,0 0.14112,-0.144 0.14112,-0.32 z m 32.64,1.14251 c 0,-0.088 0.288,-0.31413 0.64,-0.50251 0.352,-0.18839 0.64,-0.27052 0.64,-0.18252 0,0.088 -0.288,0.31413 -0.64,0.50252 -0.352,0.18838 -0.64,0.27051 -0.64,0.18251 z M 114.24,110.08 c -0.18839,-0.352 -0.27052,-0.64 -0.18252,-0.64 0.088,0 0.31413,0.288 0.50252,0.64 0.18838,0.352 0.27051,0.64 0.18251,0.64 -0.088,0 -0.31413,-0.288 -0.50251,-0.64 z m 36.30143,-0.03 c -0.0986,-0.15948 0.18929,-0.28996 0.63968,-0.28996 0.98049,0 1.0597,0.18238 0.1792,0.41263 -0.35182,0.092 -0.72032,0.0368 -0.81888,-0.12267 z m 7.35721,0.0757 c 0.2022,-0.33579 0.0891,-0.38638 -0.49857,-0.22308 l -0.76007,0.2112 0.7334,-0.63907 0.73341,-0.63906 -0.71112,-0.81785 c -0.39111,-0.44982 -0.89264,-0.81785 -1.11452,-0.81785 -0.22187,0 -0.4841,-0.13057 -0.58273,-0.29016 -0.46669,-0.75511 1.21319,0.17281 2.06106,1.13848 1.11148,1.26591 1.15403,1.47633 0.41907,2.07249 -0.4484,0.36373 -0.4965,0.36457 -0.27993,0.005 z M 116.48,109.94914 c 0,-0.0609 0.216,-0.29004 0.48,-0.50914 0.27667,-0.22962 0.48,-0.26072 0.48,-0.0734 0,0.17872 -0.216,0.40783 -0.48,0.50914 -0.264,0.1013 -0.48,0.13434 -0.48,0.0734 z m 14.33554,-0.26924 c 0.27922,-0.33795 0.30547,-0.57095 0.08,-0.7103 -0.18455,-0.11406 -0.33554,-0.3441 -0.33554,-0.5112 0,-0.1671 0.288,-0.12397 0.64,0.0959 0.81074,0.50632 0.8023,0.63071 -0.08,1.18017 -0.64631,0.40249 -0.67747,0.39691 -0.30446,-0.0545 z M 129.44,108.56043 c -1.16443,-1.56372 -1.27913,-2.16973 -0.27178,-1.43592 0.47467,0.34577 0.88683,0.99034 0.93757,1.46625 0.10993,1.03101 0.12505,1.0317 -0.66579,-0.0303 z m 10.28,0.62429 c -0.0868,-0.1404 -0.0297,-0.46259 0.12695,-0.71597 0.21469,-0.34738 0.27145,-0.28459 0.23078,0.25528 -0.0585,0.77682 -0.11633,0.85128 -0.35773,0.46069 z m 2.82286,-0.33073 c 0.17096,-0.53865 0.0743,-0.8611 -0.35384,-1.18083 -0.32396,-0.24191 0.22596,-0.12333 1.22204,0.2635 1.72515,0.66997 1.76316,0.70837 0.80129,0.80948 -0.55538,0.0584 -1.21113,0.27325 -1.45723,0.47749 -0.36915,0.30637 -0.40629,0.24169 -0.21226,-0.36964 z M 124.48,108.8 c 0,-0.176 0.1525,-0.32 0.33888,-0.32 0.18639,0 0.24989,0.144 0.14112,0.32 -0.10878,0.176 -0.26128,0.32 -0.33889,0.32 -0.0776,0 -0.14111,-0.144 -0.14111,-0.32 z m 23.91354,-0.29606 c -0.10802,-0.41305 -0.0255,-0.56404 0.25031,-0.45819 0.22627,0.0868 0.50793,0.002 0.62589,-0.18916 0.11796,-0.19087 0.34853,-0.26419 0.51237,-0.16293 0.16384,0.10126 0.29789,-0.0558 0.29789,-0.34901 0,-0.35467 0.16943,-0.46811 0.50617,-0.33889 0.27839,0.10683 0.56639,0.19424 0.64,0.19424 0.0736,0 0.13383,0.144 0.13383,0.32 0,0.176 -0.216,0.32 -0.48,0.32 -0.264,0 -0.48,0.20059 -0.48,0.44576 0,0.93073 -1.7698,1.12317 -2.00646,0.21818 z m 2.58646,0.39746 c 0.231,-0.0924 0.507,-0.0811 0.61333,0.0253 0.10633,0.10634 -0.0827,0.18197 -0.42,0.16807 -0.37278,-0.0153 -0.44861,-0.0912 -0.19333,-0.19333 z m 1.5,-0.4214 c 0.10877,-0.176 0.0368,-0.32 -0.16,-0.32 -0.19678,0 -0.26446,-0.151 -0.1504,-0.33554 0.14193,-0.22966 0.33206,-0.23206 0.6025,-0.008 0.27347,0.22697 0.53303,0.20712 0.84302,-0.0645 0.24634,-0.21581 0.1774,-0.0684 -0.15321,0.32762 -0.59148,0.70847 -1.36808,1.02483 -0.98191,0.4 z m -39.84851,-0.97195 c -0.53852,-0.75629 -0.84512,-0.9237 -1.38179,-0.75452 -0.5246,0.16539 -0.35109,-0.1573 0.72484,-1.34805 1.77423,-1.96354 1.77055,-1.95986 1.52028,-1.52174 -0.11427,0.20006 -0.006,0.53105 0.24021,0.73554 0.67444,0.55973 0.98034,-0.18962 0.33915,-0.83081 -0.85511,-0.85511 1.65222,-3.24777 2.76411,-2.6377 0.41894,0.22986 1.04096,0.46423 1.38228,0.52082 0.96299,0.15965 1.01881,0.40841 0.0917,0.40841 -0.45895,0 -0.92777,-0.151 -1.04183,-0.33554 -0.14198,-0.22974 -0.34845,-0.21846 -0.65481,0.0358 -0.24609,0.20424 -0.65174,0.29294 -0.90144,0.19712 -0.24971,-0.0958 -0.67623,0.0713 -0.94782,0.37144 -0.52541,0.58056 2.9239,0.8675 3.50031,0.29118 0.37287,-0.37282 0.78211,-0.28287 0.69337,0.1524 -0.10346,0.50747 1.32742,0.72818 1.7809,0.27469 0.43465,-0.43464 0.8591,-0.44803 0.8591,-0.0271 0,0.176 -0.18,0.3222 -0.4,0.3249 -0.7382,0.009 -1.24535,0.53482 -1.33903,1.38822 -0.0511,0.46578 0.0397,0.84688 0.20192,0.84688 0.16218,0 0.21521,0.12891 0.11783,0.28647 -0.0974,0.15755 0.0381,0.36903 0.30111,0.46995 0.56481,0.21674 0.64271,0.84358 0.10483,0.84358 -0.20533,0 -0.27825,-0.0951 -0.16203,-0.2113 0.11621,-0.11621 -0.0882,-0.42106 -0.4542,-0.67743 -0.42553,-0.29805 -0.60696,-0.69 -0.50314,-1.08699 0.12773,-0.48845 0.0714,-0.5454 -0.26398,-0.26703 -0.25805,0.21416 -0.50001,0.23461 -0.61299,0.0518 -0.10265,-0.16611 0.0261,-0.38365 0.28612,-0.48343 0.26002,-0.0998 0.39324,-0.38866 0.29604,-0.64197 -0.1811,-0.47192 -0.65783,-0.51749 -1.28825,-0.12313 -0.19567,0.1224 -0.84367,0.25133 -1.44,0.28652 -0.67277,0.0397 -1.34485,0.3507 -1.77099,0.81953 -0.37771,0.41556 -0.83555,0.71458 -1.01741,0.66449 -0.86469,-0.23819 -1.29641,1.14548 -0.6435,2.06242 0.34719,0.48757 0.55925,0.8865 0.47125,0.8865 -0.088,0 -0.47144,-0.43738 -0.85209,-0.97195 z M 116.32,101.44 c 0.10877,-0.176 0.0538,-0.32 -0.12223,-0.32 -0.176,0 -0.409,0.144 -0.51777,0.32 -0.10878,0.176 -0.0538,0.32 0.12223,0.32 0.176,0 0.40899,-0.144 0.51777,-0.32 z m 9.22324,6.78079 c -0.94497,-0.13456 -1.4801,-0.85152 -1.22812,-1.64544 0.28574,-0.90026 0.86138,-0.83191 0.6337,0.0752 -0.14598,0.58164 -0.0438,0.74112 0.5013,0.78217 0.47659,0.0359 0.63077,-0.0889 0.50732,-0.4106 -0.17939,-0.46746 0.29594,-0.6655 0.53326,-0.22217 0.32549,0.60802 -0.2799,1.51584 -0.94746,1.42079 z M 145.52,107.93941 c -0.59918,-0.15658 -0.78761,-1.05941 -0.22112,-1.05941 0.18639,0 0.26178,-0.12476 0.16755,-0.27724 -0.0942,-0.15247 0.099,-0.52185 0.42934,-0.82084 0.7937,-0.71828 1.0694,-0.20335 0.48955,0.91433 -0.25406,0.48969 -0.38219,1.01937 -0.28474,1.17705 0.0974,0.15768 0.13269,0.26999 0.0783,0.24958 -0.0544,-0.0204 -0.35088,-0.10298 -0.65888,-0.18347 z m 9.08455,-0.43006 c -0.4546,-0.37872 -0.58084,-0.62935 -0.31698,-0.62935 0.24116,0 0.61834,0.288 0.83816,0.64 0.49106,0.7863 0.43404,0.78513 -0.52118,-0.0106 z M 114.56,107.2 c 0,-0.176 0.2965,-0.32 0.65888,-0.32 0.36239,0 0.56989,0.144 0.46112,0.32 -0.10878,0.176 -0.40528,0.32 -0.65889,0.32 -0.25361,0 -0.46111,-0.144 -0.46111,-0.32 z m 25.8821,-0.21844 c -0.0208,-0.14386 0.008,-0.40556 0.063,-0.58156 0.33219,-1.05355 0.41696,-6.437719 0.1058,-6.720003 -0.66501,-0.603291 -1.78328,-2.72 -1.437,-2.72 0.19035,0 0.3461,-0.191666 0.3461,-0.425926 0,-0.23426 0.396,-0.61106 0.88,-0.837335 0.484,-0.226274 1.15287,-0.552866 1.48639,-0.725759 0.4756,-0.246546 0.56826,-0.214977 0.42961,0.146353 -0.23216,0.604998 0.21358,1.297193 0.90023,1.397971 0.40713,0.05975 0.45469,-0.01238 0.18559,-0.28148 -0.53002,-0.530016 -0.44126,-1.734866 0.14435,-1.959587 0.75363,-0.289195 0.77383,-0.270229 0.77383,0.726581 0,1.142309 0.69422,1.766664 1.63305,1.468693 0.57745,-0.183277 0.6657,-0.124194 0.49172,0.329191 -0.15906,0.414504 -0.0854,0.50396 0.29484,0.35805 0.81755,-0.313721 0.41442,0.871447 -0.42148,1.23913 -1.03739,0.456312 -0.88273,0.891121 0.23004,0.646716 0.8336,-0.18309 0.97371,-0.106524 1.15948,0.63366 0.13488,0.537395 0.37065,0.780775 0.65183,0.672875 0.24228,-0.093 0.44052,-0.0296 0.44052,0.14091 0,0.17048 -0.34237,0.30996 -0.76082,0.30996 -1.33293,0 -1.63522,0.7905 -0.61123,1.59835 0.49063,0.38706 0.67605,0.66707 0.41205,0.62223 -0.70791,-0.12023 -1.6,0.3452 -1.6,0.83477 0,0.23478 -0.16847,0.531 -0.37438,0.65826 -0.25173,0.15557 -0.30744,0.0569 -0.17005,-0.30112 0.23536,-0.61332 0.0937,-0.65628 -0.72301,-0.21922 -0.42012,0.22484 -0.68994,0.18727 -0.95581,-0.13309 -0.29386,-0.35408 -0.22812,-0.49153 0.31799,-0.66486 0.6638,-0.21068 1.90526,-1.25643 1.90526,-1.6049 0,-0.0933 -0.41794,0.13941 -0.92876,0.51708 -0.51082,0.37766 -1.11713,0.62387 -1.34736,0.54713 -0.53001,-0.17667 -2.20388,1.29151 -2.20388,1.93307 0,0.26504 -0.2166,0.72124 -0.48133,1.01377 -0.42844,0.47342 -0.42844,0.53186 0,0.53186 0.26473,0 0.48133,-0.1103 0.48133,-0.2451 0,-0.33069 1.21568,-0.69773 2.43949,-0.73654 1.11573,-0.0354 1.13322,0.44658 0.0344,0.94678 -0.39263,0.17872 -0.67081,0.52087 -0.61818,0.76033 0.0737,0.33513 -0.0866,0.31593 -0.69609,-0.0834 -0.43549,-0.28534 -0.83855,-0.39756 -0.8957,-0.24939 -0.14474,0.37531 -1.5354,0.77584 -1.5818,0.45558 z m 1.89192,-4.16996 c -0.058,-0.33843 0.15102,-0.59537 0.54598,-0.67106 1.03431,-0.19824 1.3571,-0.69845 0.58158,-0.90126 -1.22983,-0.3216 -1.33509,-2.359283 -0.12188,-2.359283 0.64787,0 1.40938,-0.744248 1.08916,-1.064469 -0.11307,-0.11307 -0.37323,0.02369 -0.57814,0.303917 -0.49984,0.683571 -2.46263,0.77456 -2.94456,0.136502 -0.20561,-0.272219 -0.4754,-0.39338 -0.59953,-0.269247 -0.37211,0.372102 0.13132,1.262217 0.81498,1.441 0.36144,0.09452 0.63839,0.436587 0.63839,0.7885 0,0.34186 -0.144,0.53257 -0.32,0.4238 -0.18221,-0.11261 -0.32,0.16297 -0.32,0.64 0,0.47703 0.13779,0.75261 0.32,0.64 0.18149,-0.11217 0.32,0.15667 0.32,0.62111 0,0.45039 0.15031,0.81889 0.33402,0.81889 0.18372,0 0.29172,-0.24678 0.24,-0.5484 z m 4.16461,-2.41303 c 0.0722,-0.37208 -0.078,-0.462219 -0.56,-0.33616 -0.67689,0.177 -0.82507,0.46448 -0.43863,0.85092 0.33715,0.33716 0.88849,0.053 0.99863,-0.51476 z M 143.04,97.458883 c 0,-0.337752 -0.61412,-0.479652 -0.79678,-0.184105 -0.11055,0.178871 0.0235,0.325219 0.29789,0.325219 0.27439,0 0.49889,-0.0635 0.49889,-0.141114 z m -1.61164,-0.644868 c 0.52712,-0.635137 0.11192,-1.295613 -0.49685,-0.790374 -0.49842,0.413648 -0.61291,1.256356 -0.1707,1.256356 0.15445,0 0.45485,-0.209692 0.66755,-0.465982 z M 147.84,106.24 c 0,-0.352 0.0552,-0.64 0.12267,-0.64 0.0675,0 0.198,0.288 0.29005,0.64 0.0921,0.352 0.0368,0.64 -0.12268,0.64 -0.15953,0 -0.29004,-0.288 -0.29004,-0.64 z m -21.08872,-0.38883 c -0.3609,-0.57789 -0.34331,-0.5807 0.43633,-0.0699 0.93661,0.61369 0.96925,0.67202 0.37605,0.67202 -0.23998,0 -0.60555,-0.27097 -0.81238,-0.60216 z m 25.88872,0.4266 c 0,-0.176 0.144,-0.409 0.32,-0.51777 0.176,-0.10878 0.32,-0.0538 0.32,0.12223 0,0.176 -0.144,0.40899 -0.32,0.51777 -0.176,0.10877 -0.32,0.0538 -0.32,-0.12223 z m -51.26851,-0.24746 c -1.22024,-0.2116 -2.491493,-1.82518 -2.491493,-3.1624 0,-1.1904 -1.04508,-2.45797 -1.790654,-2.17187 -0.266257,0.10217 -0.559071,-0.14298 -0.740385,-0.61987 -0.164963,-0.433887 -0.526965,-0.876006 -0.804447,-0.982486 -0.357964,-0.137364 -0.504513,-0.62029 -0.504513,-1.662529 0,-0.986638 0.115547,-1.397516 0.351925,-1.251426 0.255901,0.158155 0.255901,0.03808 0,-0.440078 -0.658766,-1.230916 -0.453077,-5.718557 0.270784,-5.907851 0.804801,-0.210461 0.761067,-1.511802 -0.05081,-1.511802 -0.381203,0 -0.570269,-0.240083 -0.567002,-0.72 0.0029,-0.420905 0.102563,-0.570571 0.24,-0.360286 0.155229,0.237508 0.492115,0.263599 0.991626,0.0768 0.659718,-0.246712 0.700667,-0.350506 0.32,-0.811124 -0.397028,-0.480416 -0.3737,-0.489088 0.257821,-0.09584 0.722163,0.449685 1.220451,1.910455 0.651681,1.910455 -0.178871,0 -0.06458,0.288 0.253971,0.64 0.504429,0.557387 0.513269,0.64 0.06848,0.64 -0.721676,0 -0.955086,0.520253 -0.562509,1.253789 0.26094,0.487571 0.179336,0.898247 -0.366933,1.846613 l -0.702503,1.219598 0.701732,-0.609596 c 0.385952,-0.335278 0.701731,-0.803278 0.701731,-1.04 0,-0.264894 0.369166,-0.430404 0.96,-0.430404 0.746667,0 0.96,0.142222 0.96,0.64 0,0.352 0.144,0.64 0.32,0.64 0.175998,0 0.319998,-0.231407 0.319998,-0.514237 0,-0.337447 0.17401,-0.44746 0.50617,-0.32 0.27839,0.10683 0.67439,0.203364 0.88,0.21452 0.2056,0.01116 0.0498,0.150516 -0.34617,0.309688 -0.396,0.159173 -0.72,0.510045 -0.72,0.779717 0,0.466251 -0.989553,0.638796 -3.039998,0.530076 -0.608408,-0.03226 -0.606641,-0.0196 0.0358,0.256489 0.893495,0.383976 2.044197,1.873321 2.044197,2.645787 0,0.338652 -0.144,0.526733 -0.32,0.417959 -0.176,-0.108773 -0.32,0.04213 -0.32,0.335351 0,0.331437 -0.173546,0.466526 -0.458741,0.357087 -0.308639,-0.118436 -0.443415,0.02742 -0.411902,0.445763 0.02576,0.34199 0.232194,0.621799 0.458741,0.621799 0.226546,0 0.411902,0.154016 0.411902,0.342257 0,0.724761 1.439511,0.147325 1.476791,-0.592384 0.0202,-0.40157 0.15118,-0.83357 0.29099,-0.96 0.1398,-0.12643 0.16376,0.02213 0.0533,0.330127 -0.13084,0.364634 -0.0425,0.56 0.25311,0.56 0.24973,0 0.58528,0.234492 0.74567,0.521094 0.2008,0.358806 0.36156,0.407932 0.51619,0.15774 0.12351,-0.199845 -5.7e-4,-0.449743 -0.27572,-0.55533 -0.51409,-0.197276 -0.71318,-1.403504 -0.23165,-1.403504 0.14775,0 0.45226,-0.396 0.67668,-0.879999 0.40696,-0.877675 0.40876,-0.878098 0.68105,-0.16 0.16309,0.430103 0.54246,0.719999 0.94221,0.719999 0.36806,0 0.58703,-0.132951 0.4866,-0.295447 -0.10043,-0.162496 0.39066,0.0175 1.0913,0.4 0.70063,0.382496 1.1343,0.743447 0.96371,0.802114 -0.1706,0.05867 -0.31018,0.319165 -0.31018,0.578886 0,0.25972 0.131,0.391253 0.29112,0.292295 0.41351,-0.255566 1.34068,0.151808 1.12815,0.495684 -0.0974,0.157557 -0.0246,0.286468 0.16184,0.286468 0.18639,0 0.33889,-0.219698 0.33889,-0.488217 0,-0.422113 0.14081,-0.411875 1.04,0.07561 l 1.04,0.563831 -0.96,0.109004 c -0.528,0.06 -1.104,0.25812 -1.28,0.44036 -0.21907,0.22682 -0.0929,0.26272 0.4,0.11381 0.43283,-0.13077 0.72,-0.0813 0.72,0.12403 0,0.18786 -0.12721,0.34157 -0.28268,0.34157 -0.15547,0 -0.35799,0.288 -0.45004,0.64 -0.0921,0.352 -0.40655,0.64 -0.69889,0.64 -0.3859,0 -0.47587,-0.17535 -0.32839,-0.64 0.15841,-0.49913 0.0575,-0.64 -0.45844,-0.64 -0.37472,0 -0.66156,0.20812 -0.66156,0.48 0,0.264 0.1525,0.48 0.33888,0.48 0.18639,0 0.25604,0.13405 0.15478,0.29789 -0.10126,0.16383 -0.0378,0.38833 0.14112,0.49888 0.54899,0.33929 0.36109,0.76615 -0.31483,0.71524 -0.35203,-0.0265 -0.71719,-0.29125 -0.81147,-0.5883 -0.14341,-0.45186 -1.69924,-1.16243 -1.88145,-0.85929 -0.0316,0.0526 -0.22936,0.49562 -0.43947,0.98456 -0.4407,1.02551 -1.22931,1.43727 -1.75187,0.91471 -0.26839,-0.26839 -0.20167,-0.47802 0.25948,-0.81522 0.46382,-0.33915 0.68851,-0.35968 0.88868,-0.0812 0.15184,0.21123 0.17979,-0.0432 0.0645,-0.58728 -0.35155,-1.65926 -2.05657,-2.37527 -2.71711,-1.14104 -0.961776,1.79709 0.2213,3.05348 3.45563,3.66975 1.66563,0.31738 2.29317,0.33765 2.29333,0.0741 1.3e-4,-0.19955 0.36013,-0.38359 0.8,-0.40897 0.43988,-0.0254 0.79978,0.0595 0.79978,0.18863 0,0.76023 -3.97851,1.46413 -6.14851,1.08783 z M 103.04,105.6 c -0.62041,-0.40094 -0.96,-0.40094 -0.96,0 0,0.176 0.324,0.31779 0.72,0.3151 0.58222,-0.004 0.62814,-0.0643 0.24,-0.3151 z m -1.28,-0.32 c 0,-0.176 -0.1525,-0.32 -0.33889,-0.32 -0.18639,0 -0.24989,0.144 -0.14111,0.32 0.10877,0.176 0.26127,0.32 0.33888,0.32 0.0776,0 0.14112,-0.144 0.14112,-0.32 z m -1.18204,-0.52464 c 0.34074,-0.34074 -0.0863,-0.73975 -0.586373,-0.54786 -0.257352,0.0988 -0.388242,0.30847 -0.290866,0.46603 0.207424,0.33562 0.587959,0.37112 0.877239,0.0818 z M 100.48,100.64 c 0.33221,-0.40029 0.28871,-0.48 -0.26193,-0.48 -0.700842,0 -1.137272,0.41413 -0.79604,0.75536 0.322431,0.32243 0.6278,0.24295 1.05797,-0.27536 z m 4.48,0.16 c 0,-0.176 -0.216,-0.32 -0.48,-0.32 -0.264,0 -0.48,0.144 -0.48,0.32 0,0.176 0.216,0.32 0.48,0.32 0.264,0 0.48,-0.144 0.48,-0.32 z m -0.32,-1.474239 c 0,-0.06917 -0.2965,-0.125764 -0.65889,-0.125764 -0.36239,0 -0.57377,0.137711 -0.46975,0.306025 0.17076,0.276289 1.12864,0.123301 1.12864,-0.180261 z m -8.662494,-1.805764 c 0.01237,-0.132 -0.121508,-0.24 -0.297508,-0.24 -0.176,0 -0.309879,0.396 -0.297509,0.88 0.02099,0.821111 0.50709,0.298258 0.595017,-0.64 z m 8.037834,0.951293 c 0.34413,0.08999 0.62466,0.0029 0.62466,-0.193971 0,-0.196527 -0.432,-0.357322 -0.96,-0.357322 -0.93155,0 -1.20492,0.288417 -0.72667,0.766667 0.12833,0.128333 0.27924,0.09562 0.33534,-0.0727 0.0561,-0.168316 0.38311,-0.232521 0.72667,-0.142678 z m -6.066604,-1.385921 c 0.363206,-0.437636 0.334089,-0.582641 -0.194628,-0.969249 -0.796082,-0.582109 -1.554677,-0.435372 -1.701922,0.329208 -0.205024,1.064606 1.161465,1.525765 1.89655,0.640041 z M 109.88758,105.84 c -0.12661,-0.22 -0.10857,-0.28947 0.0401,-0.15438 0.14865,0.1351 0.78374,-0.2249 1.41131,-0.8 L 112.48,103.84 l -1.10278,1.2 c -1.25743,1.36829 -1.18499,1.32939 -1.48964,0.8 z m 13.37386,-0.51526 c -0.27487,-0.17432 -0.34394,-0.56275 -0.2012,-1.13145 0.16117,-0.64216 0.0626,-0.99041 -0.38145,-1.3473 -0.56298,-0.45251 -0.55573,-0.46043 0.12121,-0.13239 0.396,0.1919 0.72,0.48785 0.72,0.65766 0,0.1698 0.19836,0.30874 0.44081,0.30874 0.78038,0 1.29764,0.88759 0.83919,1.44 -0.44546,0.53674 -0.91629,0.5994 -1.53856,0.20474 z M 124.48,104.64 c 0,-0.176 -0.0635,-0.32 -0.14112,-0.32 -0.0776,0 -0.23011,0.144 -0.33888,0.32 -0.10878,0.176 -0.0453,0.32 0.14111,0.32 0.18639,0 0.33889,-0.144 0.33889,-0.32 z m 29.01886,0.2878 c -0.11188,-0.4278 -0.31794,-0.58434 -0.56677,-0.43056 -0.27558,0.17032 -0.3079,0.10899 -0.10952,-0.2078 0.1548,-0.24719 0.24,-0.70144 0.18932,-1.00944 -0.12616,-0.76687 0.34395,-0.70445 0.85475,0.11348 0.23133,0.37042 0.26597,0.57792 0.077,0.46112 -0.18899,-0.11681 -0.34362,-0.0599 -0.34362,0.12651 0,0.18639 0.18136,0.33889 0.40302,0.33889 0.22166,0 0.6048,0.324 0.85141,0.72 0.41042,0.65904 0.40339,0.68281 -0.083,0.28081 -0.34541,-0.28545 -0.53141,-0.31346 -0.53141,-0.08 0,0.62404 -0.55769,0.3885 -0.74114,-0.31301 z m -45.01564,0.0666 c -0.45994,-0.12801 -0.64896,-0.31311 -0.44714,-0.43785 0.1923,-0.11884 0.62285,-0.009 0.95677,0.24349 0.66875,0.5062 0.64429,0.51554 -0.50963,0.19436 z M 142.4,104.64 c 0,-0.176 0.144,-0.32 0.32,-0.32 0.176,0 0.32,0.144 0.32,0.32 0,0.176 -0.144,0.32 -0.32,0.32 -0.176,0 -0.32,-0.144 -0.32,-0.32 z m 8.48,0 c -0.10878,-0.176 0.0267,-0.32 0.30111,-0.32 0.27439,0 0.49889,0.144 0.49889,0.32 0,0.176 -0.13551,0.32 -0.30112,0.32 -0.16561,0 -0.39011,-0.144 -0.49888,-0.32 z m -29.74634,-0.29789 c -0.10126,-0.16384 -0.0378,-0.38834 0.14112,-0.49889 0.17887,-0.11054 0.32522,0.0235 0.32522,0.29789 0,0.56209 -0.19202,0.64485 -0.46634,0.201 z m -13.44331,-0.32536 c -0.0827,-0.13374 0.2052,-0.40514 0.63968,-0.6031 0.46072,-0.20992 0.78997,-0.62953 0.78997,-1.00679 0,-0.69139 0.46584,-0.86754 0.8122,-0.30712 0.11548,0.18685 0.55598,0.47129 0.97888,0.63208 0.42291,0.16078 0.76892,0.45531 0.76892,0.65449 0,0.20302 -0.22879,0.27437 -0.52066,0.16237 -0.3075,-0.118 -0.70731,0.0317 -0.97657,0.36576 -0.42258,0.52421 -0.44147,0.51307 -0.25842,-0.15243 0.15473,-0.5625 0.089,-0.67636 -0.30343,-0.52576 -0.27551,0.10572 -0.50092,0.30402 -0.50092,0.44066 0,0.34353 -1.24453,0.63936 -1.42965,0.33984 z M 112.64,103.04 c 0.18838,-0.352 0.41451,-0.64 0.50251,-0.64 0.088,0 0.006,0.288 -0.18251,0.64 -0.18839,0.352 -0.41452,0.64 -0.50252,0.64 -0.088,0 -0.006,-0.288 0.18252,-0.64 z m 7.44,-0.86059 c 0.308,-0.0805 0.812,-0.0805 1.12,0 0.308,0.0805 0.056,0.14635 -0.56,0.14635 -0.616,0 -0.868,-0.0659 -0.56,-0.14635 z m -7.042,-0.32971 c -0.22109,-0.0794 -0.32193,-0.2739 -0.22409,-0.43222 0.0994,-0.16078 -0.23987,-0.20429 -0.7685,-0.0986 -0.75709,0.15142 -1.02115,0.0496 -1.32013,-0.50904 -0.34319,-0.64125 -0.32117,-0.67019 0.26946,-0.35409 0.88185,0.47195 1.57167,0.46263 1.09426,-0.0148 -0.19744,-0.19744 -0.28466,-0.593443 -0.19381,-0.879996 0.14332,-0.452068 0.11804,-0.457494 -0.19109,-0.04101 -0.315,0.42441 -0.40189,0.420733 -0.75018,-0.03176 -0.21666,-0.281465 -0.5081,-0.518553 -0.64765,-0.526862 -0.68681,-0.0409 -2.15051,-0.845914 -2.11303,-1.162139 0.12699,-1.071264 -0.0276,-1.263539 -0.59965,-0.745841 -0.78241,0.708069 -2.91205,-0.4923 -2.26234,-1.275161 0.3343,-0.402804 0.46359,-0.368406 0.92764,0.246812 0.6554,0.868878 1.7439,0.63203 1.49363,-0.325 -0.1065,-0.40726 -0.0236,-0.55978 0.24779,-0.455655 0.22433,0.08608 0.49447,0.589529 0.60032,1.118768 0.15543,0.777125 0.33164,0.941031 0.91591,0.851946 0.3979,-0.06067 0.68894,-0.282449 0.64675,-0.492846 -0.14361,-0.716098 2.68945,1.285305 3.00581,2.123451 0.1732,0.458855 0.31667,0.906282 0.31883,0.994282 0.002,0.088 0.16923,0.468881 0.37127,0.846401 0.40636,0.75929 -0.0694,1.43328 -0.8212,1.1633 z m -3.758,-3.929703 c 0.10877,-0.176 0.0453,-0.32 -0.14112,-0.32 -0.18638,0 -0.33888,0.144 -0.33888,0.32 0,0.176 0.0635,0.32 0.14111,0.32 0.0776,0 0.23011,-0.144 0.33889,-0.32 z m 1.44,-0.32 c 0,-0.176 -0.144,-0.32 -0.32,-0.32 -0.176,0 -0.32,0.144 -0.32,0.32 0,0.176 0.144,0.32 0.32,0.32 0.176,0 0.32,-0.144 0.32,-0.32 z m 38.59089,3.569993 c -0.11073,-0.17917 -0.0454,-0.42214 0.14518,-0.53992 0.49199,-0.30407 0.80943,0.11243 0.39871,0.52314 -0.22982,0.22982 -0.40881,0.23534 -0.54389,0.0168 z m 2.09662,-0.89352 c -0.59777,-0.725201 -1.13751,-1.09506 -1.43273,-0.981775 -0.34973,0.134204 -0.4513,-0.02185 -0.38822,-0.596471 0.047,-0.428024 -0.0309,-0.778227 -0.17311,-0.778227 -0.14219,0 -0.456,-0.396 -0.69735,-0.88 -0.24136,-0.483999 -0.58521,-0.851999 -0.76413,-0.817777 -0.17892,0.03422 -0.32531,-0.146377 -0.32531,-0.40133 0,-0.680588 0.69646,0.01747 3.06129,3.068309 1.99334,2.571581 2.4984,3.545311 0.71956,1.387271 z M 114.24,100.48 c 0,-0.352 0.1525,-0.640003 0.33888,-0.640003 0.18639,0 0.24332,-0.15463 0.12652,-0.343623 -0.11681,-0.188994 0.0849,-0.157958 0.44829,0.06897 0.61176,0.382051 0.62241,0.454866 0.14389,0.983626 -0.6771,0.74818 -1.05758,0.72337 -1.05758,-0.069 z m 12.03055,-2.609445 c 0.14283,-0.231092 0.0876,-0.282489 -0.14737,-0.137248 -0.40351,0.249386 -2.55566,-0.333343 -3.08318,-0.834823 -0.21334,-0.202801 -0.21334,-0.269915 0,-0.201344 0.29363,0.09438 0.48,-0.118539 0.48,-0.548401 0,-0.09419 -0.28367,-0.01944 -0.63038,0.16611 -0.79331,0.424564 -1.93386,-1.554282 -2.24922,-3.902378 -0.19733,-1.469292 -0.17865,-1.512756 0.73652,-1.713761 1.40798,-0.309244 2.69812,0.436399 1.81968,1.051687 -1.24646,0.873049 -0.59668,3.185656 1.16104,4.132251 0.5953,0.320588 1.08236,0.673715 1.08236,0.784725 0,0.337381 2.38088,0.091 3.16239,-0.327249 0.60974,-0.326321 1.40463,-0.256789 0.97094,0.08493 -2.12196,1.671967 -3.93247,2.464357 -3.30278,1.445499 z m 1.66945,0.150846 c 0.231,-0.09244 0.507,-0.08107 0.61333,0.02526 0.10633,0.106333 -0.0827,0.181965 -0.42,0.16807 -0.37278,-0.01536 -0.44861,-0.09118 -0.19333,-0.193333 z m 1.02,-0.421404 c 0,-0.176 0.144,-0.32 0.32,-0.32 0.176,0 0.32,0.144 0.32,0.32 0,0.176 -0.144,0.32 -0.32,0.32 -0.176,0 -0.32,-0.144 -0.32,-0.32 z m 2.4,-0.959999 c -0.10878,-0.176 -0.0206,-0.32 0.19591,-0.32 0.21653,0 0.69303,-0.25097 1.05889,-0.557711 0.48278,-0.404767 0.45245,-0.317012 -0.11058,0.32 -0.87882,0.99428 -0.87543,0.992629 -1.14422,0.557711 z m 4,-0.96 c -0.28842,-0.186388 -0.32789,-0.312156 -0.0989,-0.3151 0.20961,-0.0027 0.47011,0.1391 0.57889,0.3151 0.24553,0.397288 0.13476,0.397288 -0.48,0 z m -9.44,-0.64 c 0.10877,-0.176 0.35793,-0.32 0.55369,-0.32 0.19575,0 0.62545,-0.243927 0.95488,-0.542059 0.5031,-0.455299 0.56834,-0.462236 0.40759,-0.04334 -0.10525,0.274293 -0.55022,0.662219 -0.98882,0.862059 -0.98088,0.446916 -1.18259,0.456344 -0.92734,0.04334 z m 7.78,0.101403 c 0.231,-0.09244 0.507,-0.08107 0.61333,0.02526 0.10633,0.106334 -0.0827,0.181965 -0.42,0.16807 -0.37278,-0.01535 -0.44861,-0.09118 -0.19333,-0.193333 z m 5.70428,-0.261403 c 0.1013,-0.264 0.31278,-0.48 0.46995,-0.48 0.15717,0 0.28577,0.216 0.28577,0.48 0,0.264 -0.21148,0.48 -0.46996,0.48 -0.28627,0 -0.39796,-0.187613 -0.28576,-0.48 z m -1.00428,-0.48 c 0.68662,-0.758714 0.26979,-0.825999 -1.00343,-0.161972 -1.20612,0.629038 -1.71158,0.60636 -1.73906,-0.07803 -0.0204,-0.508549 -0.0439,-0.505699 -0.25507,0.03102 -0.20856,0.529986 -0.27537,0.539472 -0.64686,0.09185 -0.37525,-0.452152 -0.49441,-0.451894 -1.26493,0.0027 -0.78518,0.463278 -0.80278,0.462317 -0.22864,-0.01247 0.76866,-0.635646 -0.23955,-2.32338 -1.31962,-2.209039 -0.43832,0.0464 -0.62413,-0.161711 -0.67314,-0.753939 -0.052,-0.627817 0.0498,-0.772937 0.43769,-0.624094 0.27797,0.106666 0.57412,0.193939 0.65811,0.193939 0.084,0 0.0631,0.145017 -0.0464,0.32226 -0.10954,0.177243 0.062,0.418739 0.38111,0.536658 0.31916,0.11792 0.67219,0.351351 0.78451,0.518737 0.11232,0.167386 0.3797,0.19589 0.59416,0.06334 0.30007,-0.185454 0.28988,-0.306577 -0.0442,-0.525539 -0.25984,-0.170296 0.14401,-0.186494 1.00584,-0.04034 0.792,0.134309 2.016,0.224932 2.72,0.201386 0.91301,-0.03054 1.0965,0.02852 0.64,0.205996 -0.79637,0.309597 -0.12342,0.621177 1.15386,0.534252 0.84605,-0.05758 2.96709,-2.136748 2.17978,-2.136748 -0.22179,0 -0.65461,-0.227478 -0.96183,-0.505506 -0.72625,-0.657246 -1.88292,-0.102672 -1.9121,0.916764 -0.0194,0.677833 -0.0317,0.680831 -0.28223,0.06874 -0.14407,-0.352 -0.5885,-0.928 -0.98763,-1.28 l -0.72568,-0.64 0.21401,0.88 c 0.2428,0.998364 -0.0396,1.056834 -3.24465,0.671879 -1.5668,-0.188185 -1.6406,-0.234689 -1.04,-0.655364 0.7891,-0.552708 0.80404,-0.993244 0.0662,-1.952125 -0.52703,-0.684921 -1.91365,-0.734129 -1.49268,-0.05297 0.0899,0.145397 -0.019,0.369395 -0.24183,0.497773 -0.22287,0.128379 -0.29847,0.115578 -0.168,-0.02845 0.13047,-0.144024 0.0585,-0.482753 -0.16,-0.752731 -0.31685,-0.391545 -0.31629,-0.442244 0.003,-0.250558 0.22,0.132172 0.4,0.08781 0.4,-0.09857 0,-0.186387 -0.23484,-0.338885 -0.52187,-0.338885 -0.41911,0 -0.48557,-0.22369 -0.33752,-1.136003 0.16078,-0.99082 0.11047,-1.112558 -0.39366,-0.952553 -0.32102,0.101889 -1.48696,-0.24656 -2.62247,-0.783745 C 126.20001,83.63574 125.1,83.200389 124.88,83.20025 c -0.22,-1.39e-4 -0.4,-0.168252 -0.4,-0.373585 0,-0.205334 -0.0842,-0.289092 -0.18721,-0.18613 -0.2548,0.2548 -2.05279,-0.393858 -2.05279,-0.740582 0,-0.346918 1.27587,-1.050751 1.49945,-0.827172 0.26813,0.26813 -0.23708,0.874092 -0.56156,0.673551 -0.16384,-0.101258 -0.29789,-0.02159 -0.29789,0.177037 0,0.198628 0.324,0.311707 0.72,0.251288 0.40094,-0.06117 0.67875,-0.30114 0.62691,-0.541514 -0.0605,-0.280567 0.0887,-0.361915 0.42617,-0.232403 0.28559,0.109592 0.67901,0.199258 0.87425,0.199258 0.19524,0 0.0755,0.227755 -0.26617,0.506123 -0.6125,0.499061 -0.61223,0.503195 0.0188,0.296291 0.77185,-0.253062 0.79439,-0.255477 1.6,-0.171449 0.44383,0.04629 0.2967,0.174259 -0.48,0.417483 -0.93764,0.29362 -1.00546,0.370349 -0.41651,0.471233 0.38692,0.06628 0.96292,-0.01308 1.28,-0.176347 0.78316,-0.403259 1.37817,-0.139789 1.16834,0.51734 -0.13523,0.423515 -0.10469,0.444629 0.1422,0.09833 0.17293,-0.242548 0.45805,-0.352227 0.6336,-0.24373 0.17555,0.108498 0.38685,-0.156696 0.46955,-0.589319 0.0827,-0.432622 0.0393,-0.717914 -0.0966,-0.633981 -0.45461,0.280967 -1.90062,-0.469882 -1.90062,-0.98691 0,-0.513736 -0.52555,-1.193154 -1.12,-1.44792 -0.176,-0.07543 -0.284,-0.245143 -0.24,-0.377143 0.044,-0.132 -0.0928,-0.24 -0.304,-0.24 -0.26607,0 -0.2817,-0.102299 -0.0509,-0.333102 0.40079,-0.40079 5.37684,1.895108 5.4269,2.503913 0.0739,0.898359 0.15115,1.029189 0.608,1.029189 0.264,0 0.48,0.209475 0.48,0.4655 0,0.73192 2.17145,1.020191 2.81759,0.374049 0.69606,-0.696056 -0.0956,-1.510368 -2.30238,-2.368337 -1.11302,-0.432724 -1.41328,-0.666505 -1.04,-0.809745 0.28863,-0.11076 0.52479,-0.0619 0.52479,0.108576 0,0.170476 0.144,0.309957 0.32,0.309957 0.176,0 0.32,-0.202519 0.32,-0.450042 0,-0.29858 0.22449,-0.391334 0.66705,-0.275604 0.50929,0.133183 0.56605,0.239619 0.24,0.450042 -0.34966,0.225657 -0.34006,0.332709 0.053,0.590704 0.60977,0.400294 1.05347,0.415023 0.81366,0.02701 -0.10126,-0.163838 -0.0155,-0.402088 0.19056,-0.529442 0.23399,-0.144616 0.28893,-0.09284 0.14633,0.137888 -0.1279,0.206959 -0.0441,0.371598 0.19056,0.374343 0.32879,0.0038 0.32404,0.06498 -0.0221,0.284223 -0.55973,0.354528 -0.17603,1.023372 0.44941,0.78337 0.25735,-0.09875 0.38824,-0.308466 0.29086,-0.466024 -0.26923,-0.435629 0.14343,-0.344682 1.15955,0.255553 1.13807,0.672274 1.55785,2.178443 0.81437,2.921925 -0.3602,0.360204 -0.51319,0.391726 -0.51319,0.105739 0,-0.224101 -0.14635,-0.317008 -0.32522,-0.20646 -0.17887,0.110548 -0.2355,0.346176 -0.12583,0.523617 0.13046,0.2111 -0.32242,0.24437 -1.31016,0.09625 -1.12844,-0.169219 -1.58017,-0.114871 -1.78927,0.215268 -0.37707,0.595333 -0.35959,0.92164 0.0494,0.92164 0.18639,0 0.23075,-0.18 0.0986,-0.4 -0.18512,-0.308129 -0.13434,-0.315855 0.22111,-0.03364 0.25378,0.2015 1.32171,0.804699 2.37316,1.340444 1.38619,0.706302 1.914,1.154262 1.92,1.629513 0.005,0.360487 0.15227,0.621287 0.32827,0.579555 0.176,-0.04173 0.30103,-0.249674 0.27785,-0.462094 -0.0232,-0.21242 0.80482,0.188946 1.84,0.891924 1.88142,1.27765 2.61835,3.001525 1.56215,3.654295 -0.176,0.108774 -0.32,0.04836 -0.32,-0.134255 0,-0.220705 -0.26822,-0.209816 -0.8,0.03248 -0.44,0.200477 -0.8,0.495949 -0.8,0.656603 0,0.160655 -0.252,0.241391 -0.56,0.179415 -0.308,-0.06198 -0.83916,0.143465 -1.18034,0.456536 -0.8485,0.778576 -1.377,0.721869 -0.65966,-0.07078 z m -3.2,-0.96 c 0.10877,-0.176 0.0453,-0.32 -0.14112,-0.32 -0.18639,0 -0.33888,0.144 -0.33888,0.32 0,0.176 0.0635,0.32 0.14111,0.32 0.0776,0 0.23011,-0.144 0.33889,-0.32 z m 1.29315,-3.22129 c 0.37525,-0.607153 -0.17203,-0.756973 -0.72934,-0.199663 -0.49887,0.498862 -0.49974,0.540953 -0.0113,0.540953 0.29133,0 0.6246,-0.153581 0.74061,-0.34129 z m -1.1572,-1.485148 c -0.38187,-0.492278 -0.34339,-0.48692 0.27152,0.03781 0.39405,0.336254 0.79122,0.536598 0.88261,0.445207 0.18134,-0.181332 -2.52632,-2.496578 -2.91972,-2.496578 -0.13306,0 0.0963,0.36 0.50964,0.8 0.41336,0.44 0.64596,0.8 0.51689,0.8 -0.12906,0 -0.12037,0.18 0.0193,0.4 0.13969,0.22 0.27419,0.508 0.29889,0.64 0.0247,0.132 0.0629,0.3408 0.0849,0.464 0.022,0.1232 0.20669,0.0573 0.41043,-0.146438 0.28059,-0.280584 0.26252,-0.509562 -0.0745,-0.944 z m 2.76288,-0.237647 c 0.59928,-0.447734 0.59562,-0.457647 -0.10382,-0.281373 -0.39874,0.10049 -0.80324,0.309328 -0.89889,0.464084 -0.27066,0.437938 0.31478,0.331262 1.00271,-0.182711 z m -6.09037,-2.994114 c -0.0985,-0.09852 -0.35673,-2.03e-4 -0.5738,0.218491 -0.31368,0.316037 -0.27693,0.352793 0.17914,0.179134 0.31559,-0.12017 0.49319,-0.299101 0.39466,-0.397625 z M 145.44,93.489054 c -0.704,-0.668217 -1.48818,-1.492617 -1.74261,-1.831999 -0.25443,-0.339381 0.35757,0.170024 1.36,1.132011 1.65679,1.589941 1.98007,1.946681 1.74261,1.92293 -0.044,-0.0044 -0.656,-0.554724 -1.36,-1.222942 z m -18.65262,0.143219 c 0.22694,-0.246249 0.46304,-0.39983 0.52466,-0.34129 0.18981,0.180306 -0.29124,0.789015 -0.62355,0.789015 -0.17255,0 -0.12805,-0.201477 0.0989,-0.447725 z M 103.52,92.311037 c -0.704,-0.23202 -1.0915,-0.432921 -0.86112,-0.446447 0.23039,-0.01353 0.32989,-0.168592 0.22112,-0.344592 -0.1208,-0.19546 0.37001,-0.32 1.26111,-0.32 1.34281,0 1.45889,0.06365 1.45889,0.8 0,0.889773 -0.22287,0.9231 -2.08,0.311039 z m 26.4,0.211982 c 0,-0.211005 -0.324,-0.513877 -0.72,-0.67305 -0.48724,-0.195845 -0.55163,-0.295961 -0.19919,-0.309688 0.59192,-0.02305 1.43675,0.84882 1.12479,1.160783 -0.11308,0.11308 -0.2056,0.03296 -0.2056,-0.178045 z m 9.28,-0.701907 c 0,-0.186387 0.144,-0.249888 0.32,-0.141114 0.176,0.108774 0.32,0.261272 0.32,0.338885 0,0.07761 -0.144,0.141115 -0.32,0.141115 -0.176,0 -0.32,-0.152499 -0.32,-0.338886 z m -38.13715,-0.381114 c -0.42692,-0.403851 -0.93457,-0.521573 -2.635771,-0.611235 l -0.932919,-0.04917 0.711492,-0.576131 c 0.560249,-0.453662 0.643195,-0.703744 0.390203,-1.176464 -0.279786,-0.522785 -0.201746,-0.600334 0.604142,-0.600334 0.798757,0 0.882383,0.08043 0.610963,0.587591 -0.404535,0.755879 0.2477,1.512327 1.10963,1.286927 0.39098,-0.102243 0.54092,-0.03489 0.40651,0.18261 -0.11714,0.189535 0.0146,0.572218 0.29281,0.850407 0.59391,0.593905 0.0651,0.694336 -0.55706,0.105799 z m 22.30883,-0.919048 c -0.562,-0.343039 -1.24639,-0.50404 -1.68,-0.395211 -0.49113,0.123266 -0.73503,0.04073 -0.74186,-0.251051 -0.007,-0.312843 -0.12604,-0.282224 -0.42352,0.109232 -0.61055,0.803426 -3.90244,-0.407181 -4.18668,-1.539668 -0.21848,-0.87049 -0.87,-0.988158 -1.57391,-0.284254 -0.60541,0.605409 -0.89006,0.602576 -1.66455,-0.01657 -0.609,-0.486846 -0.60805,-0.493002 0.0486,-0.314394 0.41321,0.112401 0.98407,-0.06509 1.49047,-0.463431 0.45141,-0.355083 0.96158,-0.645605 1.1337,-0.645605 0.6132,0 1.9723,-0.867369 1.74126,-1.111263 -0.30962,-0.326858 0.56214,-0.04911 4.44798,1.417142 1.77466,0.669638 3.10296,1.283157 2.95176,1.363375 -0.15119,0.08022 -0.10072,0.104209 0.11216,0.05331 0.34623,-0.08278 3.25648,0.763115 3.58432,1.041826 0.0722,0.06143 -0.11946,0.388852 -0.42604,0.727612 -0.54946,0.607152 -0.56684,0.606487 -1.22006,-0.04673 -0.61097,-0.610972 -0.69312,-0.620987 -1.05331,-0.128407 -0.21711,0.296926 -0.6095,0.450268 -0.88332,0.345194 -0.28397,-0.108971 -0.53841,0.003 -0.60065,0.264343 -0.0887,0.372426 -0.27735,0.350022 -1.05631,-0.125453 z m -4.41835,-1.114286 C 118.847,89.300331 118.571,89.288963 118.34,89.381401 c -0.25528,0.102153 -0.17945,0.177979 0.19333,0.193334 0.33733,0.01389 0.52633,-0.06174 0.42,-0.168071 z m 2.96667,0.05222 c 0,-0.07761 -0.144,-0.230111 -0.32,-0.338885 -0.176,-0.108774 -0.32,-0.04527 -0.32,0.141114 0,0.186387 0.144,0.338886 0.32,0.338886 0.176,0 0.32,-0.0635 0.32,-0.141115 z m -4.13636,-0.950396 c -0.26058,-0.313977 -0.27092,-0.515663 -0.034,-0.662112 0.65112,-0.402415 -0.0104,-0.765964 -1.35612,-0.74529 -1.10147,0.01692 -1.2194,0.07087 -0.63321,0.289673 0.3962,0.147884 0.9722,0.1745 1.28,0.05915 0.46656,-0.174848 0.49438,-0.129306 0.16726,0.273794 -0.30078,0.370643 -0.30451,0.571399 -0.016,0.859914 0.53362,0.533621 1.04354,0.468914 0.59203,-0.07512 z m -2.74364,0.13151 c 0.10877,-0.176 0.33327,-0.32 0.49888,-0.32 0.16562,0 0.30112,0.144 0.30112,0.32 0,0.176 -0.2245,0.32 -0.49889,0.32 -0.27439,0 -0.40989,-0.144 -0.30111,-0.32 z m 10.74987,-1.297703 c -1.12757,-0.521584 -3.17957,-1.330779 -4.56,-1.798212 C 119.77486,85.051397 118.72,84.5147 118.72,84.267102 c 0,-0.234907 -0.1525,-0.427104 -0.33889,-0.427104 -0.18639,0 -0.23476,0.168471 -0.1075,0.37438 0.15775,0.255248 0.0536,0.306162 -0.32729,0.16 -0.30727,-0.117909 -0.67409,-0.21438 -0.81517,-0.21438 -0.40023,0 -0.60452,-1.160232 -0.28958,-1.644577 0.22342,-0.343592 0.41612,-0.266702 0.91367,0.364577 0.34679,0.44 0.63373,0.6488 0.63764,0.464 0.004,-0.1848 -0.15108,-0.494202 -0.34444,-0.68756 -0.44706,-0.447055 -0.55867,-3.025335 -0.15064,-3.480011 0.36292,-0.404418 1.85698,-0.196317 1.59808,0.222591 -0.22606,0.36578 1.46236,-0.348873 2.13009,-0.901594 0.98976,-0.819289 1.31942,0.809943 0.42288,2.089936 -0.44006,0.628279 -0.56244,0.663639 -0.88,0.254266 -0.39304,-0.50668 -3.03447,-1.322681 -3.3288,-1.028347 -0.0964,0.09644 0.44218,0.45182 1.19693,0.789734 l 1.37228,0.614388 -1.00463,0.519516 c -1.15742,0.598524 -1.25982,0.983993 -0.38567,1.451822 0.84112,0.450153 0.87549,0.434366 0.84645,-0.388741 -0.0312,-0.883477 1.2231,-1.200574 1.5349,-0.388042 0.287,0.747923 -0.13824,1.316451 -0.5005,0.669135 -0.40693,-0.727145 -0.98498,-0.653544 -0.74735,0.09516 0.12878,0.405754 4.3e-4,0.725468 -0.37577,0.935999 -0.31425,0.175862 -0.47142,0.419692 -0.34927,0.541845 0.12216,0.122153 0.44784,-0.0036 0.72374,-0.279545 0.58899,-0.588992 1.26659,-0.400824 5.46027,1.516302 1.93997,0.886857 2.57142,1.329445 2.57142,1.802336 0,0.779577 0.0745,0.7905 -2.39298,-0.35089 z m -2.99654,-2.415631 C 122.687,84.820331 122.411,84.808963 122.18,84.901401 c -0.25528,0.102153 -0.17945,0.177979 0.19333,0.193334 0.33733,0.01389 0.52633,-0.06174 0.42,-0.168071 z m -11.79415,2.193334 c -0.39804,-0.507538 -0.38672,-0.518857 0.12082,-0.120818 0.308,0.24155 0.56,0.49355 0.56,0.56 0,0.263371 -0.26278,0.09386 -0.68082,-0.439182 z m 2.12082,-0.08 c 0.10877,-0.176 0.44127,-0.330121 0.73888,-0.342492 0.44616,-0.01854 0.43182,-0.06526 -0.0817,-0.266238 -0.59985,-0.234743 -0.59766,-0.250339 0.0593,-0.422146 0.98549,-0.257713 1.15277,0.558371 0.20314,0.99105 -0.97314,0.443394 -1.17442,0.45211 -0.91961,0.03983 z m 14.56013,-0.799838 c -0.29439,-0.354724 -0.31982,-0.608471 -0.0846,-0.843734 0.52621,-0.526209 1.52443,-0.183366 1.52443,0.523572 0,0.794958 -0.88289,0.991274 -1.43987,0.320162 z M 95.253331,85.866664 c -0.463642,-0.463642 -0.174818,-1.066146 0.506667,-1.056935 0.672755,0.0091 0.680734,0.03254 0.121607,0.357386 -0.483166,0.280711 -0.513976,0.401133 -0.16,0.625369 0.241116,0.152743 0.282393,0.279919 0.09173,0.282614 -0.190667,0.0027 -0.442667,-0.0911 -0.56,-0.208434 z m 20.990479,-0.327619 c 0.29752,-0.297523 0.6308,-0.451104 0.74061,-0.34129 0.31494,0.314939 -0.16854,0.882243 -0.75188,0.882243 -0.48847,0 -0.48759,-0.04209 0.0113,-0.540953 z M 106.72,84.183961 c -1.408,-0.496194 -3.66403,-1.230172 -5.01339,-1.631061 -2.309406,-0.686112 -2.464808,-0.789735 -2.647889,-1.765636 -0.11341,-0.604528 -0.427225,-1.097607 -0.752736,-1.18273 -0.339728,-0.08884 -0.587766,-0.502715 -0.633668,-1.057334 -0.04148,-0.501243 -0.254727,-1.041001 -0.473872,-1.199463 -0.280149,-0.202571 -0.238931,-0.237216 0.138828,-0.116689 0.295502,0.09428 1.065746,0.270565 1.711654,0.391738 0.645908,0.121173 1.052133,0.309617 0.902724,0.418763 -0.149409,0.109147 -0.487654,0.486449 -0.751654,0.838449 -0.431015,0.574687 -0.429294,0.600528 0.01686,0.25322 0.392592,-0.305613 0.685669,-0.288825 1.396573,0.08 0.49485,0.256729 1.06326,0.457652 1.26315,0.446496 0.19988,-0.01116 0.0394,-0.150515 -0.35658,-0.309688 -0.396,-0.159172 -0.72,-0.502283 -0.72,-0.762468 0,-0.520184 3.24824,0.218571 3.46067,0.78707 0.0554,0.148179 0.27735,0.20162 0.49329,0.118758 0.2537,-0.09736 0.38791,0.163742 0.37932,0.737976 -0.009,0.630689 0.12605,0.855871 0.46672,0.775759 0.264,-0.06208 1.14266,-0.287452 1.95257,-0.500822 0.80992,-0.213371 1.74592,-0.280697 2.08,-0.149615 0.33409,0.131082 0.42743,0.248452 0.20743,0.260823 -0.22,0.01237 -0.4,0.256123 -0.4,0.541673 0,0.447388 0.0749,0.458451 0.54142,0.08 0.40251,-0.326497 0.47754,-0.33294 0.29242,-0.02511 -0.14023,0.233184 -0.0374,0.737053 0.23542,1.153408 0.43996,0.671467 0.42824,0.831738 -0.12771,1.745928 -0.72806,1.197199 -0.47825,1.192385 -3.66155,0.07055 z m 0.48,-2.6182 c 0,-0.157169 -0.216,-0.285763 -0.48,-0.285763 -0.264,0 -0.48,0.21148 -0.48,0.469957 0,0.28627 0.18761,0.397963 0.48,0.285763 0.264,-0.101306 0.48,-0.312787 0.48,-0.469957 z m -8.581336,-3.555096 c -0.22962,-0.22962 -0.378667,-0.248514 -0.378667,-0.048 0,0.427129 0.378436,0.805564 0.592,0.592 0.09093,-0.09093 -0.0051,-0.335734 -0.213333,-0.544 z M 115.2,84.799998 c -0.264,-0.17061 -0.336,-0.3102 -0.16,-0.3102 0.176,0 0.536,0.13959 0.8,0.3102 0.264,0.17061 0.336,0.3102 0.16,0.3102 -0.176,0 -0.536,-0.13959 -0.8,-0.3102 z m -0.71949,-1.500486 c -0.48461,-0.12667 -0.49837,-0.207368 -0.10286,-0.60288 0.54173,-0.54173 0.95272,-0.606475 0.64024,-0.100857 -0.12094,0.195677 -0.0214,0.481472 0.22111,0.6351 0.46089,0.291926 0.18965,0.316471 -0.75849,0.06864 z M 113.68,81.379414 c 0.308,-0.08049 0.812,-0.08049 1.12,0 0.308,0.08049 0.056,0.146343 -0.56,0.146343 -0.616,0 -0.868,-0.06585 -0.56,-0.146343 z m 18.74,-0.318013 c 0.231,-0.09244 0.507,-0.08107 0.61333,0.02526 0.10633,0.106333 -0.0827,0.181964 -0.42,0.16807 -0.37278,-0.01535 -0.44861,-0.09118 -0.19333,-0.193334 z m -20.02818,-0.540094 c -0.73944,-0.365685 -0.84939,-1.16921 -0.19001,-1.388729 0.19899,-0.06625 0.45146,0.236728 0.56103,0.673285 0.15067,0.600346 0.45236,0.825166 1.23818,0.922725 1.02751,0.127562 1.02838,0.129118 0.079,0.140907 -0.528,0.0066 -1.28768,-0.150128 -1.68818,-0.348188 z M 95.106067,79.039998 c -0.01572,-1.073614 0.04889,-1.277162 0.253931,-0.8 0.235169,0.547269 0.278276,0.55886 0.297508,0.08 0.01237,-0.308 0.166492,-0.56 0.342492,-0.56 0.466271,0 0.391343,0.502426 -0.140789,0.944056 -0.253434,0.210332 -0.521824,0.695964 -0.596422,1.079183 -0.0746,0.383218 -0.145122,0.04876 -0.15672,-0.743239 z m 12.277343,0.922116 c 0.14879,-0.240739 -0.12168,-0.289967 -0.86338,-0.157148 -0.68899,0.123379 -0.85815,0.09858 -0.4672,-0.0685 0.9055,-0.386988 0.88977,-1.167788 -0.0246,-1.223344 -0.6076,-0.03691 -0.69658,0.04347 -0.41872,0.378276 0.22101,0.266302 -0.60887,0.109871 -2.22112,-0.418679 -1.54225,-0.505601 -2.41759,-0.940479 -2.18383,-1.084951 0.79883,-0.493707 -0.28058,-1.066969 -1.210889,-0.64309 -1.116861,0.508876 -1.154948,0.49139 -0.92503,-0.42468 0.132716,-0.528782 0.06726,-0.8 -0.193085,-0.8 -0.293565,0 -0.282026,-0.134768 0.04531,-0.529182 0.504949,-0.608426 0.494062,-0.737705 -0.09349,-1.110141 -0.327648,-0.207689 -0.2967,-0.27202 0.132668,-0.275777 0.562022,-0.0049 0.769114,-0.47462 0.32,-0.725787 -0.543548,-0.30398 0.635516,0.05662 5.040006,1.541392 2.552,0.860294 4.712,1.639618 4.8,1.731833 0.088,0.09221 0.376,0.203517 0.64,0.24734 2.68379,0.445495 6.1742,2.031709 5.61714,2.552703 -0.14562,0.13619 -0.32905,0.06762 -0.40762,-0.152381 -0.18155,-0.508352 -1.1239,-0.517628 -1.62552,-0.016 -0.29867,0.298667 -0.384,0.183706 -0.384,-0.517322 0,-0.778542 -0.0981,-0.875038 -0.72,-0.70837 -0.396,0.106124 -0.972,0.194919 -1.28,0.197322 -0.308,0.0024 -0.56,0.206889 -0.56,0.454412 0,0.292496 -0.22405,0.391453 -0.64,0.282678 -0.352,-0.09205 -0.64,-0.29005 -0.64,-0.439999 0,-0.149949 0.216,-0.189748 0.48,-0.08844 0.50451,0.193601 0.67853,-0.363809 0.20495,-0.6565 -0.73128,-0.451954 -1.88828,0.591921 -1.79294,1.617644 0.0628,0.675642 -0.0653,1.087954 -0.37494,1.206768 -0.28904,0.110917 -0.38681,0.04537 -0.25366,-0.170076 z m 8.80185,-0.148783 c 0.0154,-0.372781 0.0912,-0.448608 0.19333,-0.193333 0.0924,0.231 0.0811,0.507 -0.0253,0.613333 -0.10633,0.106334 -0.18196,-0.08267 -0.16807,-0.42 z M 135.68,79.699095 c 0,-0.256046 -0.2082,-0.328309 -0.56,-0.194375 -0.44901,0.17094 -0.48072,0.133328 -0.16,-0.189763 0.30798,-0.31026 0.48711,-0.315848 0.77866,-0.02429 0.20827,0.208266 0.28027,0.477066 0.16,0.597333 -0.12026,0.120267 -0.21866,0.03526 -0.21866,-0.188903 z m -4.25999,-0.241992 c -0.19997,-0.323564 0.0455,-2.337105 0.28493,-2.337105 0.0577,0 0.47172,0.167114 0.92,0.371365 1.06969,0.487382 1.09828,1.548635 0.0417,1.548635 -0.42533,0 -0.83097,0.172907 -0.90141,0.384239 -0.0903,0.271019 -0.19207,0.280703 -0.34524,0.03287 z m -15.9837,-1.461653 c -0.30597,-0.377092 -0.53961,-0.980334 -0.51919,-1.340537 0.0341,-0.60228 0.0496,-0.606175 0.19241,-0.04847 0.11495,0.448921 0.22118,0.499822 0.40898,0.195957 0.19601,-0.317142 0.40777,-0.266954 0.9312,0.220695 0.64641,0.602224 0.65146,0.654743 0.1102,1.14458 -0.52391,0.474129 -0.60984,0.460956 -1.1236,-0.172227 z m 8.07442,-0.222953 c 0.2589,-0.163735 0.37038,-0.39805 0.24773,-0.5207 -0.12265,-0.12265 -0.47177,-0.02248 -0.77583,0.222601 -0.44772,0.360877 -0.43398,0.280195 0.0723,-0.424344 0.53419,-0.743427 1.7451,-1.242194 1.7451,-0.718797 0,0.414959 -1.06798,1.748277 -1.39681,1.743841 -0.19975,-0.0027 -0.15136,-0.138865 0.10754,-0.302601 z M 95.679998,75.626665 c 0,-0.293334 0.09475,-0.438583 0.210557,-0.322777 0.115806,0.115807 0.407286,0.04729 0.647733,-0.152266 0.240446,-0.199554 0.531184,-0.268816 0.646082,-0.153918 0.207927,0.207927 -0.806974,1.132721 -1.264372,1.152117 -0.132,0.0056 -0.24,-0.229823 -0.24,-0.523156 z m -0.602534,-1.988467 c 0.0082,-2.586571 -0.02779,-2.535239 1.066047,-1.521505 1.052605,0.975521 1.033605,1.28312 -0.06351,1.028275 -0.6529,-0.151659 -0.756128,-0.120585 -0.4,0.120409 0.264,0.178652 0.330629,0.327026 0.148066,0.329721 -0.182564,0.0027 -0.367019,0.465356 -0.409901,1.028135 -0.144617,1.897927 -0.347952,1.310041 -0.340699,-0.985035 z m 3.002533,0.9218 c 0.108774,-0.176 0.261273,-0.32 0.338886,-0.32 0.07761,0 0.141114,0.144 0.141114,0.32 0,0.176 -0.152498,0.32 -0.338885,0.32 -0.186387,0 -0.249889,-0.144 -0.141115,-0.32 z M 97.194664,74.20029 c 0.217067,-0.218694 0.475277,-0.317015 0.573801,-0.218491 0.09852,0.09852 -0.07908,0.277455 -0.394667,0.397625 -0.456063,0.173659 -0.492819,0.136903 -0.179134,-0.179134 z m 0.725333,-1.560292 c 0,-0.176 0.144,-0.32 0.32,-0.32 0.176,0 0.32,0.144 0.32,0.32 0,0.176 -0.144,0.32 -0.32,0.32 -0.176,0 -0.32,-0.144 -0.32,-0.32 z"
       id="path3" />
    <path
       style="fill:#690a0c"
       d="m 130.88,129.73706 c 0,-0.12458 0.252,-0.42984 0.56,-0.67835 0.51911,-0.41886 0.50987,-0.43816 -0.12648,-0.26436 -0.54347,0.14844 -1.20026,-0.31475 -3.15279,-2.22343 -1.35647,-1.32601 -2.3057,-2.41092 -2.10938,-2.41092 0.19631,0 0.73268,-0.7936 1.19193,-1.76355 0.66931,-1.41361 1.14463,-1.93745 2.3955,-2.64 1.90652,-1.07079 2.00331,-0.84062 -1.46668,-3.48823 -3.31644,-2.53046 -4.94687,-4.71952 -4.34825,-5.83806 0.19727,-0.36859 0.29338,-0.67016 0.21358,-0.67016 -0.0798,0 -0.40887,-0.0856 -0.73126,-0.19019 -0.47583,-0.15439 -0.49756,-0.12754 -0.11544,0.1426 0.2589,0.18303 0.3797,0.42382 0.26845,0.53507 -0.11126,0.11126 -0.55904,-0.32272 -0.99508,-0.9644 -0.87417,-1.28646 -0.82149,-2.1725 0.17047,-2.8673 0.67843,-0.47519 0.52003,-1.13578 -0.27234,-1.13578 -0.28089,0 -0.39428,-0.16593 -0.27335,-0.4 0.11366,-0.22 -0.0894,-0.04 -0.45133,0.4 -0.40075,0.48724 -0.58767,1.0502 -0.47814,1.44 0.16801,0.5979 0.1466,0.59474 -0.32557,-0.0481 -1.28129,-1.74438 -1.13504,-3.31193 0.30901,-3.31193 0.25143,0 0.45715,-0.144 0.45715,-0.32 0,-0.42094 -0.42445,-0.40755 -0.8591,0.0271 -0.45348,0.45349 -1.88436,0.23278 -1.7809,-0.27469 0.0887,-0.43527 -0.3205,-0.52522 -0.69337,-0.1524 -0.13202,0.132 -1.08759,0.24325 -2.12348,0.24722 l -1.88345,0.007 0.85002,-0.88723 c 0.46751,-0.48797 1.00307,-0.88264 1.19015,-0.87705 0.18707,0.006 0.0606,0.2216 -0.28103,0.48 -0.52109,0.39414 -0.53702,0.46983 -0.0989,0.46983 0.28725,0 0.61559,-0.151 0.72965,-0.33554 0.131,-0.21196 0.34421,-0.22509 0.57889,-0.0357 0.20433,0.16495 1.30751,0.39595 2.45151,0.51335 2.96107,0.30387 3.61559,0.68797 3.37327,1.9796 -0.23644,1.26038 0.76655,1.80529 1.7255,0.93744 0.53324,-0.48257 0.64245,-0.45352 1.57707,0.41955 0.55229,0.51591 1.00416,0.87518 1.00416,0.79838 0,-0.0768 0.288,0.0145 0.64,0.20287 0.352,0.18838 0.64,0.49666 0.64,0.68506 0,0.1884 0.38107,0.79534 0.84683,1.34874 0.69894,0.83046 0.80695,0.88045 0.61844,0.2862 -0.28098,-0.88576 0.15987,-0.94563 0.69175,-0.0939 0.59065,0.94578 -0.66773,1.81464 -1.48395,1.02462 -0.30155,-0.29187 -0.43996,-0.60647 -0.30757,-0.69912 0.32504,-0.22746 -0.0389,-0.70058 -1.0159,-1.32071 -0.82982,-0.52672 -1.5896,0.21075 -1.5896,1.54291 0,0.23092 -0.20867,0.32609 -0.48363,0.22058 -0.36013,-0.1382 -0.42766,-0.0397 -0.26445,0.38559 0.16943,0.44153 0.0987,0.52494 -0.31169,0.36747 -0.44396,-0.17036 -0.47167,-0.10891 -0.16923,0.37536 0.36044,0.57715 1.1276,0.63441 2.349,0.17532 0.5832,-0.21921 0.57397,-0.16801 -0.10407,0.57693 -0.47556,0.52248 -0.6199,0.89422 -0.4,1.03012 0.31413,0.19415 0.45819,0.0108 0.39575,-0.50374 -0.0132,-0.10924 0.52059,-0.18434 1.18632,-0.16688 1.11634,0.0293 1.20629,0.10092 1.15745,0.92196 -0.0291,0.48963 0.14346,1.05325 0.38353,1.25248 0.61943,0.51409 0.95072,0.0403 0.4889,-0.69915 -0.52535,-0.84123 -0.50305,-0.88306 0.38062,-0.71413 0.57968,0.11081 0.82267,-0.0237 0.98891,-0.54752 0.13427,-0.42303 0.3967,-0.62678 0.6715,-0.52133 0.2481,0.0952 0.45109,0.0442 0.45109,-0.11339 0,-0.50024 1.08796,-0.55613 2.01046,-0.10329 0.52243,0.25646 0.79831,0.58622 0.6675,0.79788 -0.13964,0.22594 -0.0489,0.29394 0.24295,0.18197 0.25624,-0.0983 0.73939,0.0212 1.07365,0.26561 0.33427,0.24443 0.47224,0.4496 0.3066,0.45595 -0.16564,0.006 0.45415,0.28338 1.37731,0.61562 2.3224,0.83581 4.24361,3.51008 3.67247,5.11197 -0.41165,1.15455 -11.59094,11.80048 -11.59094,11.03793 z m 3.93734,-4.82495 c -0.20646,-0.53803 -0.4197,-0.53118 -1.17053,0.0376 -0.55025,0.41685 -0.52336,0.44738 0.37158,0.42194 0.67174,-0.0191 0.9144,-0.15868 0.79895,-0.45954 z m 1.499,-1.62323 c 0.35401,-0.30311 0.64366,-0.66984 0.64366,-0.81494 0,-0.32469 -1.57593,0.79143 -1.58995,1.12606 -0.0157,0.37376 0.24742,0.28727 0.94629,-0.31112 z M 133.12,119.50111 c 0,-0.25361 -0.11315,-0.46111 -0.25143,-0.46111 -0.13829,0 -0.25143,0.27742 -0.25143,0.6165 0,0.33908 0.11314,0.54658 0.25143,0.46112 0.13828,-0.0855 0.25143,-0.3629 0.25143,-0.61651 z m 1.52666,-0.72111 c 0.0763,-0.22894 -0.20697,-0.38 -0.71261,-0.38 -0.71078,0 -0.77611,0.0715 -0.42667,0.46693 0.46201,0.52283 0.9484,0.48572 1.13928,-0.0869 z m 2.98368,-0.49189 c -0.50599,-0.50598 -0.7519,-0.57456 -1.03723,-0.28923 -0.54195,0.54195 0.20401,1.34379 1.04544,1.12376 l 0.65502,-0.1713 z M 132.8,117.44 c 0,-0.176 -0.0635,-0.32 -0.14112,-0.32 -0.0776,0 -0.23011,0.144 -0.33888,0.32 -0.10878,0.176 -0.0453,0.32 0.14111,0.32 0.18639,0 0.33889,-0.144 0.33889,-0.32 z m 3.66901,-0.59205 c -0.18031,-0.1898 -0.78901,0.29125 -0.78901,0.62355 0,0.17255 0.20147,0.12805 0.44772,-0.0989 0.24625,-0.22694 0.39983,-0.46303 0.34129,-0.52466 z M 130.56,117.12 c 0,-0.176 -0.0635,-0.32 -0.14112,-0.32 -0.0776,0 -0.23011,0.144 -0.33888,0.32 -0.10878,0.176 -0.0453,0.32 0.14111,0.32 0.18639,0 0.33889,-0.144 0.33889,-0.32 z m 4.8,-0.32 c 0,-0.176 -0.144,-0.32 -0.32,-0.32 -0.176,0 -0.32,0.144 -0.32,0.32 0,0.176 0.144,0.32 0.32,0.32 0.176,0 0.32,-0.144 0.32,-0.32 z m 4.97833,-0.45384 c 0.34136,-0.24961 0.5175,-0.55699 0.39142,-0.68307 -0.2807,-0.28071 -2.16975,0.46431 -2.16975,0.85573 0,0.43697 1.08925,0.33121 1.77833,-0.17266 z m -2.29312,-1.9709 c 0.21306,-0.55523 -0.17756,-0.59492 -0.70121,-0.0713 -0.2112,0.2112 -0.384,0.49468 -0.384,0.62995 0,0.39839 0.8947,-0.0622 1.08521,-0.55869 z m -3.48462,-0.45623 c 0.11373,-0.18401 -0.0795,-0.27856 -0.45287,-0.22158 -0.91877,0.14022 -1.23019,0.54255 -0.41994,0.54255 0.37094,0 0.76371,-0.14444 0.87281,-0.32097 z m -2.04996,-0.83594 c 0.37115,-0.44721 0.34765,-0.50115 -0.1743,-0.4 -0.33182,0.0643 -0.66323,0.29691 -0.73648,0.51691 -0.19007,0.57084 0.40319,0.49469 0.91078,-0.11691 z m 1.76365,-0.61236 C 134.31462,112.19588 134.08771,112 133.72897,112 c -0.52953,0 -0.56044,0.0864 -0.2238,0.62544 0.41448,0.66368 0.65613,0.61507 0.76911,-0.15471 z m -8.98435,-0.77466 c -0.11779,-0.19058 -0.36358,-0.25416 -0.54621,-0.14129 -0.215,0.13287 -0.18227,0.29779 0.0928,0.46782 0.51352,0.31737 0.74727,0.14902 0.45336,-0.32653 z M 124.96,108.8 c 0.10877,-0.176 0.0453,-0.32 -0.14112,-0.32 -0.18638,0 -0.33888,0.144 -0.33888,0.32 0,0.176 0.0635,0.32 0.14111,0.32 0.0776,0 0.23011,-0.144 0.33889,-0.32 z m 1.5307,-2 c -0.23732,-0.44333 -0.71265,-0.24529 -0.53326,0.22217 0.12345,0.32171 -0.0307,0.4465 -0.50732,0.4106 -0.54507,-0.041 -0.64728,-0.20053 -0.5013,-0.78217 0.22768,-0.90716 -0.34796,-0.97551 -0.6337,-0.0752 -0.25198,0.79392 0.28315,1.51088 1.22812,1.64544 0.66756,0.0951 1.27295,-0.81277 0.94746,-1.42079 z M 121.6,104.14111 c 0,-0.27439 -0.14635,-0.40843 -0.32522,-0.29789 -0.17887,0.11055 -0.24238,0.33505 -0.14112,0.49889 0.27432,0.44385 0.46634,0.36109 0.46634,-0.201 z m 2.71597,19.22299 c -0.52579,-0.4296 -0.85905,-0.78627 -0.74059,-0.7926 0.11846,-0.006 -0.16954,-0.42398 -0.64,-0.92812 -1.65569,-1.77422 -4.76251,-5.65943 -5.66425,-7.08338 -4.75894,-7.51498 -5.58207,-9.57068 -3.6153,-9.02892 0.18186,0.0501 0.6397,-0.24893 1.01741,-0.66449 0.42958,-0.47262 1.09821,-0.77994 1.78549,-0.82064 0.6043,-0.0358 1.27825,-0.21407 1.49768,-0.39617 0.28999,-0.24067 0.49552,-0.15066 0.75253,0.32956 0.25489,0.47626 0.25585,0.66066 0.003,0.66066 -0.19258,0 -0.25523,0.15358 -0.13922,0.34129 0.11602,0.18771 0.29166,0.26056 0.39033,0.16189 0.2488,-0.2488 2.06432,3.00167 1.96896,3.5252 -0.0192,0.10529 0.31642,0.57397 0.74578,1.04152 0.42935,0.46756 1.5851,1.93547 2.56832,3.26203 0.98323,1.32657 2.58998,3.17072 3.57057,4.09812 1.94219,1.83684 2.02856,1.96995 1.27827,1.96995 -0.73049,0 -2.37538,1.75568 -2.37538,2.53538 0,0.45128 -0.20544,0.66462 -0.64,0.66462 -0.70658,0 -0.87027,0.50129 -0.24,0.73496 0.30366,0.11259 0.28342,0.27137 -0.084,0.65927 -0.44159,0.46616 -0.56785,0.44248 -1.44,-0.27013 z M 126.4,118.08 c 0,-0.176 -0.1525,-0.32 -0.33889,-0.32 -0.18639,0 -0.24989,0.144 -0.14111,0.32 0.10877,0.176 0.26127,0.32 0.33888,0.32 0.0776,0 0.14112,-0.144 0.14112,-0.32 z m -2.72,-3.2 c 0.10877,-0.176 -0.0352,-0.32 -0.32,-0.32 -0.28478,0 -0.42878,0.144 -0.32,0.32 0.10877,0.176 0.25277,0.32 0.32,0.32 0.0672,0 0.21122,-0.144 0.32,-0.32 z m -7.2,-3.52 c 0,-0.176 -0.252,-0.3178 -0.56,-0.3151 -0.47858,0.004 -0.49021,0.05 -0.08,0.3151 0.60391,0.39027 0.64,0.39027 0.64,0 z m 0.96,-1.99342 c 0,-0.1873 -0.20333,-0.1562 -0.48,0.0734 -0.264,0.2191 -0.48,0.44821 -0.48,0.50914 0,0.0609 0.216,0.0279 0.48,-0.0734 0.264,-0.10131 0.48,-0.33042 0.48,-0.50914 z M 115.68,107.2 c 0.10877,-0.176 -0.0987,-0.32 -0.46112,-0.32 -0.36238,0 -0.65888,0.144 -0.65888,0.32 0,0.176 0.2075,0.32 0.46111,0.32 0.25361,0 0.55011,-0.144 0.65889,-0.32 z m 33.44,5.30285 c 0,-0.25142 0.18,-0.64742 0.4,-0.88 0.22,-0.23257 0.4,-0.63885 0.4,-0.90285 0,-0.264 0.288,-0.49928 0.64,-0.52284 0.352,-0.0236 1.072,-0.15544 1.6,-0.29308 0.84187,-0.21945 0.90993,-0.18944 0.55312,0.24391 -0.30318,0.36821 -0.32129,0.71929 -0.0711,1.37746 0.18471,0.48582 0.2598,0.95934 0.16688,1.05226 -0.0929,0.0929 -0.16895,0.0553 -0.16895,-0.0836 0,-0.13889 -0.22506,-0.0657 -0.50013,0.16255 -0.43822,0.36369 -0.47353,0.30912 -0.28531,-0.44082 0.26907,-1.07203 -0.056,-1.09287 -0.87174,-0.0559 -0.68129,0.86612 -1.86282,1.08358 -1.86282,0.34285 z m -1.49161,-0.38076 c 0.73109,-0.3962 0.87043,-0.64353 0.7139,-1.26719 -0.21014,-0.83725 -0.17275,-0.87395 0.59153,-0.58067 0.98939,0.37967 -0.43213,2.38214 -1.67031,2.35296 -0.36339,-0.009 -0.24247,-0.17596 0.36488,-0.5051 z m -1.46765,-0.42463 c 0.44094,-0.36784 0.64505,-0.7985 0.52576,-1.10936 -0.28266,-0.7366 -0.98995,-0.62402 -1.7787,0.28312 l -0.68796,0.79123 -0.61328,-0.70712 c -0.3373,-0.38891 -0.78276,-0.71719 -0.98992,-0.72951 -0.43578,-0.0259 -1.44352,-0.39339 -2.13664,-0.77913 -0.264,-0.14693 -0.42885,-0.46054 -0.36632,-0.69691 0.0625,-0.23638 0.11653,-0.72293 0.12,-1.08121 0.004,-0.44536 0.21781,-0.65143 0.67489,-0.65143 0.99336,0 1.88801,1.03029 1.63183,1.87923 -0.17313,0.57371 -0.13479,0.62977 0.20763,0.30363 0.89642,-0.85381 4.77197,-0.11964 4.77197,0.90398 0,0.30948 0.18,0.62952 0.4,0.71121 0.22788,0.0846 0.0347,0.29413 -0.44892,0.48693 -0.4669,0.18612 -0.9434,0.49128 -1.05888,0.67814 -0.11549,0.18685 -0.38148,0.33495 -0.59109,0.32909 -0.20961,-0.006 -0.0568,-0.28121 0.33963,-0.61189 z m 7.44478,0.36621 c 0.0145,-0.58841 1.65257,-1.76745 1.89978,-1.36745 0.1909,0.30888 0.31282,0.31806 0.48674,0.0367 0.13003,-0.2104 -0.0282,-0.56851 -0.36,-0.81461 -0.54604,-0.40503 -0.55176,-0.48006 -0.0736,-0.96572 0.47847,-0.48597 0.45884,-0.58617 -0.25455,-1.29956 -0.94293,-0.94293 -1.11664,-0.95441 -1.64482,-0.10866 -0.31985,0.51216 -0.5142,0.5819 -0.84849,0.30446 -0.29855,-0.24778 -0.4982,-0.25535 -0.64098,-0.0243 -0.11406,0.18454 -0.0261,0.33554 0.19551,0.33554 0.86808,0 -0.26054,0.57053 -1.48511,0.75074 -0.704,0.1036 -1.1,0.10906 -0.88,0.0121 0.22,-0.0969 0.4,-0.38022 0.4,-0.62955 0,-0.24933 0.216,-0.45333 0.48,-0.45333 0.63369,0 0.61594,-0.51936 -0.0262,-0.76577 -0.71796,-0.2755 -0.77382,-0.25351 -0.77382,0.30465 0,0.27439 -0.13405,0.41604 -0.29789,0.31478 -0.16384,-0.10126 -0.39441,-0.0279 -0.51237,0.16293 -0.11796,0.19087 -0.40858,0.27255 -0.64582,0.18152 -0.27753,-0.1065 -0.36788,-1.7e-4 -0.25339,0.29818 0.22227,0.57922 0.0454,0.57923 -1.34081,4e-5 -1.27862,-0.53424 -1.25248,-0.46802 -0.6461,-1.63681 0.5813,-1.12046 0.30681,-1.63676 -0.48785,-0.9176 -0.33037,0.29899 -0.54719,0.63237 -0.48182,0.74084 0.27715,0.45987 -0.67274,0.88881 -1.38487,0.62537 -0.78798,-0.29149 -0.44031,-1.22813 0.45586,-1.22813 0.22362,0 0.47575,-0.18 0.56029,-0.4 0.22849,-0.59459 -1.99203,-0.42751 -3.31468,0.24942 -1.07934,0.55239 -1.0848,0.55166 -0.53055,-0.0708 0.308,-0.34594 0.56,-0.84584 0.56,-1.11088 0,-0.64156 1.67387,-2.10974 2.20388,-1.93307 0.23023,0.0767 0.83654,-0.16947 1.34736,-0.54713 0.51082,-0.37767 0.92876,-0.61035 0.92876,-0.51708 0,0.34847 -1.24146,1.39422 -1.90526,1.6049 -0.54611,0.17333 -0.61185,0.31078 -0.31799,0.66486 0.26587,0.32036 0.53569,0.35793 0.95581,0.13309 0.81667,-0.43706 0.95837,-0.3941 0.72301,0.21922 -0.13739,0.35805 -0.0817,0.45669 0.17005,0.30112 0.20591,-0.12726 0.37438,-0.42348 0.37438,-0.65826 0,-0.48957 0.89209,-0.955 1.6,-0.83477 0.264,0.0448 0.0786,-0.23517 -0.41205,-0.62223 -1.02399,-0.80785 -0.7217,-1.59835 0.61123,-1.59835 0.41845,0 0.76082,-0.13948 0.76082,-0.30996 0,-0.17048 -0.19824,-0.23389 -0.44052,-0.14091 -0.28118,0.1079 -0.51695,-0.13548 -0.65183,-0.672875 -0.18577,-0.740184 -0.32588,-0.81675 -1.15948,-0.63366 -1.11277,0.244405 -1.26743,-0.190404 -0.23004,-0.646716 0.8359,-0.367683 1.23903,-1.552851 0.42148,-1.23913 -0.38023,0.14591 -0.4539,0.05645 -0.29484,-0.35805 0.17398,-0.453385 0.0857,-0.512468 -0.49172,-0.329191 -0.94812,0.300921 -1.63305,-0.329435 -1.63305,-1.502929 0,-0.739415 -0.11429,-0.911198 -0.50618,-0.760818 -0.27839,0.10683 -0.56639,0.194237 -0.64,0.194237 -0.29576,0 -0.10976,1.496068 0.228,1.833823 0.2691,0.269098 0.22154,0.341234 -0.18559,0.28148 -0.68665,-0.100778 -1.13239,-0.792973 -0.90023,-1.397971 0.13865,-0.36133 0.046,-0.392899 -0.42961,-0.146353 -0.33352,0.172893 -1.00239,0.499485 -1.48639,0.725759 -0.484,0.226275 -0.88,0.586281 -0.88,0.800013 0,0.571449 -1.37995,0.851376 -1.76,0.357023 -1.04535,-1.359724 -3.94256,-2.042782 -5.03147,-1.186241 -0.45622,0.358857 -0.99527,0.652467 -1.19789,0.652467 -0.20263,0 -0.28203,0.139778 -0.17644,0.310618 0.19843,0.321073 -1.28712,0.843801 -1.9942,0.701708 -0.22,-0.04421 -0.4,0.05314 -0.4,0.216341 0,0.163198 -0.39326,0.3719 -0.87392,0.463782 -0.83509,0.159639 -0.84575,0.145926 -0.24,-0.308702 0.34866,-0.26167 0.84992,-0.644059 1.11392,-0.849755 0.94688,-0.737765 1.67703,-2.468832 1.47255,-3.491201 -0.40833,-2.041691 -1.54164,-2.452682 -2.09978,-0.761486 -0.40801,1.236271 -1.20538,2.064447 -2.10981,2.191312 -1.03382,0.145013 -1.01757,-0.533494 0.017,-0.711533 1.04042,-0.17904 1.34905,-0.964917 0.97079,-2.472016 -0.18538,-0.738601 -0.30774,-0.788967 -1.46652,-0.60367 -1.03496,0.165496 -1.26427,0.108207 -1.26427,-0.315853 0,-0.346969 0.17192,-0.452046 0.52065,-0.318223 0.30576,0.11733 0.6819,-0.02072 0.91131,-0.334454 0.36019,-0.49258 0.44234,-0.482565 1.05331,0.128407 0.65539,0.655386 0.66883,0.655837 1.22513,0.04113 0.4315,-0.476797 0.62271,-0.526622 0.82114,-0.213965 0.14226,0.224159 0.26086,0.307053 0.26356,0.184209 0.003,-0.122845 0.4369,-0.07276 0.9649,0.111304 0.83791,0.292097 1.13196,0.771201 0.99923,1.62804 -0.0201,0.129795 0.2661,0.201795 0.63602,0.16 1.14289,-0.129129 2.19125,1.531861 1.38676,2.197143 -0.57414,0.474792 -0.55654,0.475753 0.22864,0.01247 0.77052,-0.454627 0.88968,-0.454885 1.26493,-0.0027 0.37149,0.447621 0.4383,0.438135 0.64686,-0.09185 0.21121,-0.536723 0.23464,-0.539573 0.25507,-0.03102 0.0275,0.684388 0.53294,0.707066 1.73906,0.07803 1.27322,-0.664027 1.69005,-0.596742 1.00343,0.161972 -0.71734,0.792648 -0.18884,0.849355 0.65966,0.07078 0.34118,-0.313071 0.87234,-0.518512 1.18034,-0.456536 0.308,0.06198 0.56,-0.01876 0.56,-0.179415 0,-0.160654 0.36,-0.456126 0.8,-0.656603 0.53178,-0.242296 0.8,-0.253185 0.8,-0.03248 0,0.182614 0.144,0.243029 0.32,0.134255 0.176,-0.108774 0.32,-0.639706 0.32,-1.179849 V 91.11818 l 1.80582,1.720963 c 0.99321,0.94653 2.07846,1.978216 2.41167,2.292635 0.33322,0.31442 0.51789,0.713988 0.41039,0.887929 -0.1075,0.173941 -0.0144,0.276689 0.20697,0.228328 0.22133,-0.04836 0.59989,0.308072 0.84125,0.792071 0.24135,0.484 0.55516,0.88 0.69735,0.88 0.1422,0 0.22092,0.342707 0.17494,0.76157 -0.0621,0.565821 0.052,0.730259 0.444,0.639754 1.36565,-0.315309 3.63744,3.76236 2.77456,4.9801 -0.24692,0.34848 -0.22377,0.39935 0.0946,0.20781 0.28348,-0.17056 0.47912,-0.0335 0.59733,0.41857 0.19569,0.74834 0.6127,0.8853 0.82878,0.2722 0.0786,-0.22308 0.45825,0.13077 0.85828,0.8 0.39451,0.66 0.8931,1.2 1.10798,1.2 0.21487,0 0.71068,0.36803 1.10179,0.81785 l 0.71112,0.81785 -0.73341,0.63906 -0.7334,0.63907 0.72,-0.19848 c 1.04745,-0.28875 0.88361,0.005 -0.43774,0.78451 -1.5405,0.90892 -3.32361,1.64212 -3.31674,1.36381 z m -5.3528,-5.82367 c -0.0921,-0.352 -0.22257,-0.64 -0.29005,-0.64 -0.0675,0 -0.12267,0.288 -0.12267,0.64 0,0.352 0.13051,0.64 0.29004,0.64 0.15952,0 0.21473,-0.288 0.12268,-0.64 z m 5.02728,-0.35777 c 0,-0.176 -0.144,-0.23101 -0.32,-0.12223 -0.176,0.10877 -0.32,0.34177 -0.32,0.51777 0,0.176 0.144,0.231 0.32,0.12223 0.176,-0.10878 0.32,-0.34177 0.32,-0.51777 z M 143.04,104.64 c 0,-0.176 -0.144,-0.32 -0.32,-0.32 -0.176,0 -0.32,0.144 -0.32,0.32 0,0.176 0.144,0.32 0.32,0.32 0.176,0 0.32,-0.144 0.32,-0.32 z m 8.64,0 c 0,-0.176 -0.2245,-0.32 -0.49889,-0.32 -0.27439,0 -0.40989,0.144 -0.30111,0.32 0.10877,0.176 0.33327,0.32 0.49888,0.32 0.16561,0 0.30112,-0.144 0.30112,-0.32 z m -1.68005,-4.02671 c -0.30494,-0.30495 -0.91631,0.18899 -0.68906,0.5567 0.13508,0.21856 0.31407,0.21304 0.54389,-0.0168 0.1884,-0.1884 0.25373,-0.43137 0.14517,-0.53992 z M 140.16,94.879998 c 0,-0.264 -0.1286,-0.48 -0.28577,-0.48 -0.15717,0 -0.36865,0.216 -0.46995,0.48 -0.1122,0.292387 -5.1e-4,0.48 0.28576,0.48 0.25848,0 0.46996,-0.216 0.46996,-0.48 z m -9.61592,16.620822 c -0.32605,-0.39287 -0.30335,-0.44046 0.13065,-0.27391 0.2889,0.11086 0.52527,0.0589 0.52527,-0.11535 0,-0.17431 0.288,-0.39223 0.64,-0.48428 0.87626,-0.22915 0.80504,0.23097 -0.13066,0.84406 -0.6803,0.44576 -0.81691,0.44921 -1.16526,0.0295 z M 152.96,111.07423 c 0,-0.32438 0.97465,-0.76625 1.19784,-0.54306 0.0804,0.0804 0.0513,0.29983 -0.0647,0.48754 -0.25529,0.41308 -1.13315,0.4561 -1.13315,0.0555 z m 1.33676,-1.40584 c -0.31806,-0.38323 -0.29117,-0.51277 0.14087,-0.67855 0.66883,-0.25666 0.73542,-0.17667 0.46713,0.56118 -0.18701,0.5143 -0.26593,0.52954 -0.608,0.11737 z M 102.08,105.6 c 0,-0.40094 0.33959,-0.40094 0.96,0 0.38814,0.25084 0.34222,0.31113 -0.24,0.3151 -0.396,0.003 -0.72,-0.1391 -0.72,-0.3151 z m 7.23098,-0.47932 c -0.48137,-0.44611 -1.03917,-0.70979 -1.23956,-0.58594 -0.90782,0.56106 -1.75142,0.38022 -1.75142,-0.37545 0,-0.50363 0.14395,-0.69327 0.44,-0.57966 0.50609,0.1942 0.60328,-0.40095 0.11478,-0.70286 -0.17887,-0.11055 -0.24238,-0.33505 -0.14112,-0.49888 0.10126,-0.16384 0.0316,-0.29789 -0.15478,-0.29789 -0.18638,0 -0.33888,-0.216 -0.33888,-0.48 0,-0.27188 0.28684,-0.48 0.66156,-0.48 0.51594,0 0.61685,0.14087 0.45844,0.64 -0.14748,0.46465 -0.0575,0.64 0.32839,0.64 0.29234,0 0.60684,-0.288 0.69889,-0.64 0.0921,-0.352 0.29457,-0.64 0.45004,-0.64 0.15547,0 0.28268,-0.15371 0.28268,-0.34157 0,-0.20265 -0.27659,-0.25378 -0.68008,-0.12571 -0.45764,0.14525 -0.60846,0.1 -0.46111,-0.13844 0.40068,-0.648321 2.36302,-0.42089 2.75944,0.31982 0.28574,0.53391 0.55758,0.63473 1.30716,0.48481 0.52863,-0.10572 0.86787,-0.0622 0.7685,0.0986 -0.0978,0.15832 -0.0127,0.34291 0.18913,0.4102 0.43625,0.14541 -0.8522,2.28782 -2.03166,3.37822 l -0.78519,0.7259 z M 109.12,103.67691 c 0,-0.13664 0.22541,-0.33494 0.50092,-0.44066 0.39245,-0.1506 0.45816,-0.0367 0.30343,0.52576 -0.18305,0.6655 -0.16416,0.67664 0.25842,0.15243 0.26926,-0.33402 0.66907,-0.48376 0.97657,-0.36576 0.29187,0.112 0.52066,0.0406 0.52066,-0.16237 0,-0.19918 -0.34601,-0.49371 -0.76892,-0.65449 -0.4229,-0.16079 -0.8634,-0.44523 -0.97888,-0.63208 -0.34636,-0.56042 -0.8122,-0.38427 -0.8122,0.30712 0,0.37726 -0.32925,0.79687 -0.78997,1.00679 -0.43448,0.19796 -0.72234,0.46936 -0.63968,0.6031 0.18512,0.29952 1.42965,0.004 1.42965,-0.33984 z m -7.84,1.60309 c -0.10878,-0.176 -0.0453,-0.32 0.14111,-0.32 0.18639,0 0.33889,0.144 0.33889,0.32 0,0.176 -0.0635,0.32 -0.14112,0.32 -0.0776,0 -0.23011,-0.144 -0.33888,-0.32 z m -1.579279,-0.60647 c -0.09738,-0.15756 0.03351,-0.36727 0.290866,-0.46603 0.500053,-0.19189 0.927113,0.20712 0.586373,0.54786 -0.28928,0.28929 -0.669815,0.25379 -0.877239,-0.0818 z M 113.689,104.601 c -0.19744,-0.19744 -0.28426,-0.55374 -0.19292,-0.79177 0.13516,-0.35222 0.25773,-0.34113 0.65843,0.0596 0.30568,0.30568 0.37882,0.60587 0.19292,0.79178 -0.18591,0.1859 -0.43554,0.16332 -0.65843,-0.0596 z M 124,104.64 c 0.10877,-0.176 0.26127,-0.32 0.33888,-0.32 0.0776,0 0.14112,0.144 0.14112,0.32 0,0.176 -0.1525,0.32 -0.33889,0.32 -0.18639,0 -0.24989,-0.144 -0.14111,-0.32 z m 29.6,-0.65889 c 0,-0.18639 0.144,-0.24989 0.32,-0.14111 0.176,0.10877 0.32,0.26127 0.32,0.33888 0,0.0776 -0.144,0.14112 -0.32,0.14112 -0.176,0 -0.32,-0.1525 -0.32,-0.33889 z m -50.85474,-1.12778 c 0.0154,-0.37278 0.0912,-0.44861 0.19333,-0.19333 0.0924,0.231 0.0811,0.507 -0.0253,0.61333 -0.10633,0.10633 -0.18196,-0.0827 -0.16807,-0.42 z M 141.76,102.54111 c 0,-0.46444 -0.13851,-0.73328 -0.32,-0.62111 -0.176,0.10877 -0.32,-0.087 -0.32,-0.43495 0,-0.34799 -0.0914,-0.89649 -0.20305,-1.21888 -0.17845,-0.515131 -0.1409,-0.508607 0.30982,0.0538 0.51027,0.63675 0.51292,0.63654 0.52305,-0.0427 0.006,-0.4183 -0.23705,-0.747329 -0.62821,-0.84962 -0.68366,-0.178783 -1.18709,-1.068898 -0.81498,-1.441 0.12413,-0.124133 0.39392,-0.003 0.59953,0.269247 0.48193,0.638058 2.44472,0.547069 2.94456,-0.136502 0.20491,-0.280225 0.46507,-0.416987 0.57814,-0.303917 0.32022,0.320221 -0.44129,1.064469 -1.08916,1.064469 -1.21321,0 -1.10795,2.037683 0.12188,2.359283 0.77552,0.20281 0.45273,0.70302 -0.58158,0.90126 -0.39496,0.0757 -0.604,0.33263 -0.54598,0.67106 0.0517,0.30162 -0.0563,0.5484 -0.24,0.5484 -0.18371,0 -0.33402,-0.3685 -0.33402,-0.81889 z m -42.33797,-1.62575 c -0.341232,-0.34123 0.0952,-0.75536 0.79604,-0.75536 0.55064,0 0.59414,0.0797 0.26193,0.48 -0.43017,0.51831 -0.735539,0.59779 -1.05797,0.27536 z M 104,100.8 c 0,-0.176 0.216,-0.32 0.48,-0.32 0.264,0 0.48,0.144 0.48,0.32 0,0.176 -0.216,0.32 -0.48,0.32 -0.264,0 -0.48,-0.144 -0.48,-0.32 z m 9.95712,0.08 c -0.0204,-0.22 -0.004,-0.436 0.0371,-0.48 0.0408,-0.044 -0.1752,-0.436043 -0.48,-0.871205 -0.83064,-1.185899 -0.67124,-1.415728 0.43538,-0.627745 0.54426,0.387547 0.84892,0.793353 0.67702,0.90179 -0.1719,0.108436 -0.3845,0.48516 -0.47244,0.83716 -0.0879,0.352 -0.17661,0.46 -0.19702,0.24 z M 145.5,100.9133 c -0.38644,-0.38644 -0.23826,-0.67392 0.43863,-0.85092 0.48203,-0.126059 0.63218,-0.0359 0.56,0.33616 -0.11014,0.56772 -0.66148,0.85192 -0.99863,0.51476 z M 98.879997,99.519997 c 0,-0.176 -0.185356,-0.32 -0.411902,-0.32 -0.226547,0 -0.43298,-0.279809 -0.458741,-0.621799 -0.03151,-0.418343 0.103263,-0.564199 0.411902,-0.445763 0.292959,0.112419 0.467871,-0.03871 0.484005,-0.418201 0.01904,-0.447806 0.06796,-0.475956 0.198539,-0.114237 0.0953,0.264 0.464644,0.712242 0.82076,0.996092 0.35612,0.28385 0.54627,0.67985 0.42257,0.88 -0.27725,0.448604 -1.467133,0.484215 -1.467133,0.04391 z m 4.631363,-0.01398 c -0.10402,-0.168314 0.10736,-0.306025 0.46975,-0.306025 0.77266,0 0.85061,0.177956 0.18914,0.431788 -0.25837,0.09914 -0.55487,0.04255 -0.65889,-0.125763 z m 4.14791,0.04751 c 0.21253,-0.343876 -0.71464,-0.75125 -1.12815,-0.495684 -0.16012,0.09896 -0.29112,-0.04457 -0.29112,-0.318962 0,-0.605504 0.6016,-0.62914 1.36,-0.05343 0.61919,0.470036 0.75029,1.154545 0.22111,1.154545 -0.18639,0 -0.25921,-0.128911 -0.16184,-0.286469 z m -12.276781,-1.39353 c -0.01237,-0.484 0.121509,-0.88 0.297509,-0.88 0.375588,0 0.375588,0.245959 0,1.12 -0.2437,0.567121 -0.277579,0.539791 -0.297509,-0.24 z m 7.570841,0.526667 c -0.47825,-0.47825 -0.20488,-0.766667 0.72667,-0.766667 0.528,0 0.96,0.160795 0.96,0.357322 0,0.196852 -0.28053,0.283962 -0.62466,0.193971 -0.34356,-0.08984 -0.67056,-0.02564 -0.72667,0.142678 -0.0561,0.168316 -0.20701,0.201029 -0.33534,0.0727 z M 100.8,97.082675 c 0,-1.375875 0.0494,-1.464072 0.72,-1.284369 0.396,0.106124 0.82491,0.194919 0.95314,0.197322 0.3265,0.0061 -0.43509,1.604369 -0.76451,1.604369 -0.14775,0 -0.26863,0.216 -0.26863,0.48 0,0.264 -0.144,0.48 -0.32,0.48 -0.176,0 -0.32,-0.664794 -0.32,-1.477322 z m 8,0.837322 c 0,-0.176 0.1525,-0.32 0.33888,-0.32 0.18639,0 0.24989,0.144 0.14112,0.32 -0.10878,0.176 -0.26128,0.32 -0.33889,0.32 -0.0776,0 -0.14111,-0.144 -0.14111,-0.32 z m -1.23043,-0.289361 c -0.3127,-0.193263 -0.30008,-0.329947 0.0579,-0.627053 0.36012,-0.29887 0.4969,-0.277964 0.64117,0.098 0.22314,0.58148 -0.1533,0.866363 -0.69908,0.529054 z m 2.51043,-0.03064 c 0,-0.176 0.144,-0.32 0.32,-0.32 0.176,0 0.32,0.144 0.32,0.32 0,0.176 -0.144,0.32 -0.32,0.32 -0.176,0 -0.32,-0.144 -0.32,-0.32 z m 32.16322,-0.325219 c 0.11055,-0.178871 0.33505,-0.242373 0.49889,-0.141115 0.44385,0.274317 0.36109,0.466334 -0.201,0.466334 -0.27439,0 -0.40844,-0.146348 -0.29789,-0.325219 z m -38.98989,-0.208114 c -0.72631,-0.726312 0.0315,-0.953006 0.92551,-0.276844 0.61028,0.461596 0.60948,0.470002 -0.0455,0.48 -0.36667,0.0056 -0.76267,-0.08582 -0.88,-0.203156 z m 5.4209,-0.292838 c -0.37054,-0.965626 -0.18928,-1.107702 0.77623,-0.608418 0.53375,0.276015 0.88526,0.639713 0.78111,0.808218 -0.30183,0.48837 -1.3446,0.354587 -1.55734,-0.1998 z M 140.48,96.83918 c 0,-0.24245 0.20318,-0.609442 0.45151,-0.815539 0.60877,-0.505239 1.02397,0.155237 0.49685,0.790374 -0.48783,0.587802 -0.94836,0.600022 -0.94836,0.02517 z m -17.56211,-0.175765 c -0.32148,-0.198682 -0.30287,-0.296061 0.085,-0.44491 0.27312,-0.104806 0.57554,-0.06279 0.67205,0.09336 0.25229,0.408215 -0.2717,0.651533 -0.75708,0.351553 z m -16.67862,-0.664773 c -0.27321,-0.510494 -0.4675,-0.593994 -0.77954,-0.335022 -0.57564,0.477736 -5.00284,-1.538486 -4.88261,-2.223622 0.1422,-0.810364 2.1107,-0.506568 4.80811,0.742028 1.91273,0.885381 2.47947,1.293382 2.39632,1.725131 -0.15876,0.824406 -1.11953,0.881397 -1.54228,0.09149 z m -9.019273,-1.817241 c 0.231,-0.09244 0.507,-0.08107 0.613334,0.02526 0.106333,0.106334 -0.08267,0.181965 -0.42,0.16807 -0.372782,-0.01535 -0.448608,-0.09118 -0.193334,-0.193333 z M 134.72,93.439998 c 0,-0.176 0.15249,-0.32 0.33888,-0.32 0.18639,0 0.24989,0.144 0.14112,0.32 -0.10878,0.176 -0.26128,0.32 -0.33889,0.32 -0.0776,0 -0.14111,-0.144 -0.14111,-0.32 z m -35.200003,-0.8 c 0,-0.264 0.144,-0.48 0.32,-0.48 0.176003,0 0.320003,0.216 0.320003,0.48 0,0.264 -0.144,0.48 -0.320003,0.48 -0.176,0 -0.32,-0.216 -0.32,-0.48 z m 38.540223,-0.192 c -0.0979,-0.1584 0.0465,-0.288 0.32089,-0.288 0.33967,0 0.49889,-0.302787 0.49889,-0.948742 0,-1.249499 1.06785,-1.902443 1.89181,-1.156764 0.30722,0.278028 0.73338,0.505506 0.94703,0.505506 0.21364,0 -0.002,0.4896 -0.47969,1.088 -0.86444,1.083361 -2.71585,1.549282 -3.17893,0.8 z M 139.84,92.018883 c 0,-0.07761 -0.144,-0.230111 -0.32,-0.338885 -0.176,-0.108774 -0.32,-0.04527 -0.32,0.141114 0,0.186387 0.144,0.338886 0.32,0.338886 0.176,0 0.32,-0.0635 0.32,-0.141115 z m -6.4,0.178437 c 0,-0.155473 -0.31771,-0.365762 -0.70603,-0.467308 -0.38831,-0.101547 -0.60893,-0.281724 -0.49026,-0.400395 0.30408,-0.304082 2.18608,0.523284 1.97333,0.867519 -0.22639,0.366316 -0.77704,0.366447 -0.77704,1.84e-4 z m -31.87657,-0.917322 c -0.53577,-0.533602 -0.46672,-0.564549 1.46465,-0.656503 1.12706,-0.05366 2.1763,0.05289 2.36341,0.24 0.23534,0.235337 -0.12133,0.336503 -1.18638,0.336503 -0.93377,0 -1.44638,0.123789 -1.32511,0.32 0.33677,0.544904 -0.72232,0.351841 -1.31657,-0.24 z m -4.423762,-0.624132 c -0.236888,-0.617319 0.04921,-1.055868 0.688811,-1.055868 0.444787,0 0.435947,-0.08261 -0.06848,-0.64 -0.51121,-0.564881 -0.518352,-0.64 -0.06085,-0.64 1.027607,0 1.260786,1.170978 0.403826,2.027937 -0.628267,0.628267 -0.817201,0.688662 -0.963301,0.307931 z m 25.879022,0.18966 c -0.13579,-0.219715 -0.69041,-0.279103 -1.45888,-0.156219 -1.2155,0.194366 -1.79334,-0.389442 -0.91981,-0.929309 0.176,-0.108774 0.32,-0.02848 0.32,0.178436 0,0.227586 0.2722,0.305025 0.68903,0.196022 0.61531,-0.160908 2.51097,0.528934 2.51097,0.913759 0,0.305995 -0.92888,0.141033 -1.14131,-0.202689 z m 12.74512,-0.826481 c 0.29752,-0.297524 0.6308,-0.451104 0.74061,-0.34129 0.31494,0.314939 -0.16854,0.882243 -0.75188,0.882243 -0.48847,0 -0.4876,-0.04209 0.0113,-0.540953 z M 130,89.079659 c -1.1,-0.625915 -2,-1.268895 -2,-1.428844 0,-0.396784 0.002,-0.396351 2.06274,0.515123 1.75842,0.777659 1.93514,0.663877 0.87899,-0.56594 -0.30846,-0.359173 -0.34838,-0.56 -0.11133,-0.56 0.20328,0 0.3696,0.142302 0.3696,0.316227 0,0.173925 0.29293,0.281925 0.65097,0.24 0.93554,-0.10955 1.86946,1.440296 1.28921,2.139456 -0.58002,0.698874 -0.86292,0.639772 -3.14018,-0.656022 z m 5,0.744339 c -0.022,-0.1232 -0.0602,-0.332 -0.0849,-0.464 -0.0247,-0.132 -0.1592,-0.42 -0.29889,-0.64 -0.36395,-0.573189 0.26653,-0.495062 0.75504,0.09356 0.31026,0.373843 0.31977,0.583416 0.0392,0.864 -0.20374,0.203741 -0.38843,0.269638 -0.41043,0.146438 z m -16.66,-0.442597 c 0.231,-0.09244 0.507,-0.08107 0.61333,0.02526 0.10633,0.106334 -0.0827,0.181965 -0.42,0.168071 -0.37278,-0.01535 -0.44861,-0.09118 -0.19333,-0.193334 z m 2.94,-0.120289 c 0,-0.186387 0.144,-0.249888 0.32,-0.141114 0.176,0.108774 0.32,0.261272 0.32,0.338885 0,0.07761 -0.144,0.141115 -0.32,0.141115 -0.176,0 -0.32,-0.152499 -0.32,-0.338886 z m 17.38314,-0.261272 c -0.14406,-0.550875 -0.28191,-0.606686 -0.80587,-0.32627 -0.34765,0.186054 -0.71266,0.257707 -0.81114,0.159229 -0.0985,-0.09848 0.16586,-0.30913 0.58741,-0.468114 1.18965,-0.448664 2.5179,0.487286 1.54492,1.088624 -0.18785,0.116096 -0.41974,-0.08797 -0.51532,-0.453469 z M 115.84,88.618434 c 0,-0.19594 -0.27286,-0.254962 -0.64,-0.138436 -0.352,0.11172 -0.64,0.05913 -0.64,-0.116872 0,-0.539498 1.33064,-0.797784 1.63505,-0.317372 0.3675,0.579994 0.35468,0.914244 -0.035,0.914244 -0.176,0 -0.32,-0.153704 -0.32,-0.341564 z m 1.28,-0.138436 c -0.22222,-0.267757 -0.25687,-0.48 -0.0784,-0.48 0.176,0 0.49927,0.216 0.71837,0.48 0.22222,0.267757 0.25687,0.48 0.0784,0.48 -0.176,0 -0.49926,-0.216 -0.71836,-0.48 z m -5.62069,-1.19344 C 111.07069,86.949402 110.72,86.391479 110.72,86.046729 c 0,-0.34475 -0.21059,-0.707627 -0.46797,-0.806394 -0.4068,-0.156102 -0.40319,-0.278445 0.0276,-0.935885 0.27255,-0.415969 0.41178,-0.891854 0.30939,-1.057522 -0.10239,-0.165668 0.9292,0.127274 2.29242,0.650981 1.36322,0.523708 2.73361,1.03051 3.04532,1.126228 0.44112,0.135455 0.48563,0.271767 0.20082,0.614946 -0.28431,0.342577 -0.25435,0.440915 0.13437,0.440915 0.27516,0 0.59074,-0.146349 0.70129,-0.32522 0.11055,-0.178871 0.34577,-0.235745 0.52272,-0.126386 0.39517,0.244229 -1.16712,1.091606 -2.01256,1.091606 -0.33741,0 -0.68368,-0.18 -0.7695,-0.4 -0.0872,-0.223566 -0.80105,-0.429568 -1.61838,-0.467036 -1.33741,-0.06131 -1.42575,-0.0203 -1.03393,0.48 0.68816,0.878672 0.98124,0.995672 2.01336,0.803734 0.78715,-0.146383 0.90055,-0.101742 0.58842,0.231636 -0.60443,0.64556 -2.28477,0.601994 -3.15404,-0.08177 z m 5.46069,0.07344 c -0.61704,-0.265149 -0.61485,-0.275825 0.0611,-0.297509 0.38561,-0.01237 0.79011,0.121509 0.89889,0.297509 0.23392,0.37849 -0.0792,0.37849 -0.96,0 z M 96.203932,86.087167 c -0.888682,-0.568531 -0.896521,-0.596508 -0.262223,-0.935974 0.721721,-0.386253 1.658288,0.241591 1.658288,1.111662 0,0.582762 -0.262064,0.549782 -1.396065,-0.175688 z M 131.43466,85.72029 c 0.21707,-0.218694 0.47528,-0.317015 0.5738,-0.218491 0.0985,0.09852 -0.0791,0.277455 -0.39466,0.397625 -0.45607,0.173659 -0.49282,0.136903 -0.17914,-0.179134 z m 2.32534,0.02082 c 0,-0.186387 0.144,-0.249888 0.32,-0.141114 0.176,0.108774 0.32,0.261272 0.32,0.338885 0,0.07761 -0.144,0.141115 -0.32,0.141115 -0.176,0 -0.32,-0.152499 -0.32,-0.338886 z m -3.68,-0.621114 c -0.10878,-0.176 -0.0453,-0.32 0.14111,-0.32 0.18639,0 0.33889,0.144 0.33889,0.32 0,0.176 -0.0635,0.32 -0.14112,0.32 -0.0776,0 -0.23011,-0.144 -0.33888,-0.32 z m -7.9,-0.218597 c 0.231,-0.09244 0.507,-0.08107 0.61333,0.02526 0.10633,0.106334 -0.0827,0.181965 -0.42,0.168071 -0.37278,-0.01535 -0.44861,-0.09118 -0.19333,-0.193334 z m -2.82,-0.387167 c 0,-0.15717 0.22777,-0.37317 0.50617,-0.48 0.78299,-0.300463 0.86052,-0.235216 0.33954,0.285764 -0.54401,0.544013 -0.84571,0.613305 -0.84571,0.194236 z m 17.76,-0.03424 c 0.10877,-0.176 0.26127,-0.32 0.33888,-0.32 0.0776,0 0.14112,0.144 0.14112,0.32 0,0.176 -0.1525,0.32 -0.33889,0.32 -0.18639,0 -0.24989,-0.144 -0.14111,-0.32 z m -18.88,-0.32 c -0.10878,-0.176 -0.0453,-0.32 0.14111,-0.32 0.18639,0 0.33889,0.144 0.33889,0.32 0,0.176 -0.0635,0.32 -0.14112,0.32 -0.0776,0 -0.23011,-0.144 -0.33888,-0.32 z m -2.65321,-0.716453 c -0.40663,-0.195846 -0.66054,-0.542527 -0.57005,-0.778342 0.0897,-0.233863 0.0357,-0.425205 -0.12012,-0.425205 -0.15581,0 -0.33631,0.159062 -0.40111,0.353471 -0.0845,0.253371 -0.49684,0.239916 -1.45619,-0.04751 -1.75574,-0.526032 -1.4878,-0.836597 0.86883,-1.00706 2.26867,-0.164101 2.36618,-0.236892 2.39208,-1.785704 0.0292,-1.747452 0.37729,-2.115667 1.21144,-1.281523 0.37858,0.37858 0.54245,0.736952 0.36417,0.796381 -0.41693,0.138975 -0.26534,2.95045 0.18327,3.399055 0.18749,0.187491 0.33768,0.492092 0.33377,0.676892 -0.004,0.1848 -0.29085,-0.024 -0.63764,-0.464 -0.65767,-0.834427 -1.42638,-0.446207 -1.0514,0.530981 0.19444,0.506695 -0.11396,0.515686 -1.11705,0.03257 z m 4.56005,-0.264837 c -0.11601,-0.18771 -0.13409,-0.418129 -0.0402,-0.512043 0.22922,-0.22922 0.85334,0.174663 0.85334,0.552218 0,0.408951 -0.55245,0.381657 -0.81316,-0.04018 z m 5.61316,-0.29871 c 0.264,-0.17061 0.84,-0.3102 1.28,-0.3102 0.63326,0 0.69995,0.06465 0.32,0.3102 -0.264,0.17061 -0.84,0.3102 -1.28,0.3102 -0.63326,0 -0.69996,-0.06465 -0.32,-0.3102 z m 6.72,-0.16 c 0,-0.264 -0.216,-0.48 -0.48,-0.48 -0.264,0 -0.48,-0.06022 -0.48,-0.133828 0,-0.07361 -0.0936,-0.377795 -0.20805,-0.675978 -0.17992,-0.468874 -0.061,-0.510609 0.88,-0.308791 1.36301,0.292332 1.31963,0.241973 1.06893,1.240837 -0.22536,0.897906 -0.78088,1.152418 -0.78088,0.35776 z m -7.52,-0.48 c 0.10877,-0.176 0.44127,-0.317795 0.73888,-0.3151 0.46633,0.0042 0.47478,0.04777 0.0611,0.3151 -0.62668,0.404991 -1.0503,0.404991 -0.8,0 z m -18.72,-0.490043 c 0,-0.258477 0.216,-0.469957 0.48,-0.469957 0.264,0 0.48,0.128594 0.48,0.285763 0,0.15717 -0.216,0.368651 -0.48,0.469957 -0.29239,0.1122 -0.48,5.07e-4 -0.48,-0.285763 z m 16.64,0.151157 c 0,-0.186387 0.13405,-0.256038 0.29789,-0.15478 0.16383,0.101258 0.38978,0.03541 0.50211,-0.146334 0.11232,-0.181742 0.34062,-0.246141 0.50733,-0.143108 0.16671,0.103032 0.22026,0.321381 0.119,0.485219 -0.2536,0.410342 -1.42633,0.376635 -1.42633,-0.041 z m -1.11847,-0.298629 c -0.10347,-0.167424 0.0515,-0.670157 0.34442,-1.117184 0.33288,-0.508041 0.46564,-1.147319 0.3541,-1.705052 -0.1347,-0.673468 -0.019,-0.991875 0.47191,-1.298434 0.64875,-0.405154 1.32841,-0.206819 0.73877,0.215584 -0.42616,0.305289 -0.6007,0.971688 -0.61695,2.355587 -0.0138,1.169835 -0.88284,2.21194 -1.29225,1.549499 z m 13.39679,-0.155698 c -0.0976,-0.254334 -0.45214,-0.54961 -0.78789,-0.65617 -0.84009,-0.266636 -0.76441,-0.61773 0.23092,-1.071233 1.03634,-0.472189 1.41443,-0.196149 0.57529,0.420017 -0.59366,0.435909 -0.58384,0.465313 0.26336,0.788773 1.00797,0.384844 1.07779,0.527452 0.38788,0.792195 -0.27689,0.106253 -0.56972,-0.0134 -0.66956,-0.273582 z M 97.199997,80.859502 c -1.907608,-0.687973 -2.322513,-1.340688 -1.359999,-2.139504 0.548617,-0.455312 0.632732,-0.96 0.16,-0.96 -0.176,0 -0.331369,0.252 -0.345264,0.56 -0.01559,0.345467 -0.150945,0.215214 -0.353333,-0.34 -0.427265,-1.172123 -0.225421,-1.323368 1.157156,-0.867076 1.066257,0.351897 1.372539,0.884454 1.17015,2.034632 -0.02589,0.147156 0.232857,0.340762 0.575003,0.430235 0.518983,0.135717 1.245335,1.5867 0.931861,1.861515 -0.05257,0.04608 -0.923574,-0.214828 -1.935574,-0.579802 z M 109.44,81.138143 c 0,-0.27398 0.18,-0.5091 0.4,-0.52249 0.22,-0.01339 -0.087,-0.200514 -0.68223,-0.415832 -1.43425,-0.518827 -1.6863,-2.090614 -0.4303,-2.683349 0.83387,-0.393523 1.35253,-0.279766 1.35253,0.296648 0,0.184443 -0.216,0.252464 -0.48,0.151158 -0.264,-0.101307 -0.48,-0.06151 -0.48,0.08844 0,0.149949 0.288,0.347949 0.64,0.439999 0.41595,0.108775 0.64,0.0098 0.64,-0.282678 0,-0.247523 0.252,-0.452008 0.56,-0.454412 0.308,-0.0024 0.884,-0.0912 1.28,-0.197322 0.62192,-0.166668 0.72,-0.07017 0.72,0.70837 0,0.701028 0.0853,0.815989 0.384,0.517322 0.94238,-0.942385 2.48268,0.09361 1.78948,1.203599 -0.61311,0.981741 -2.10419,0.879921 -2.36557,-0.161536 -0.21772,-0.867438 -0.86268,-0.909251 -1.02618,-0.06653 -0.0541,0.278576 0.16195,0.573939 0.48,0.656363 0.34352,0.08902 0.18498,0.16493 -0.39053,0.186981 -0.53284,0.02042 -1.28884,0.261286 -1.68,0.535266 -0.64369,0.450861 -0.7112,0.450861 -0.7112,0 z m -4.27793,-0.08274 c -0.66316,-0.663165 -0.16653,-1.352709 0.83793,-1.163399 1.46459,0.276032 2.23106,0.725495 1.25896,0.73826 -0.40757,0.0054 -1.00064,0.148664 -1.31793,0.318472 -0.31728,0.169808 -0.66782,0.217808 -0.77896,0.106667 z M 132.48,80.010041 c 0,-0.170476 -0.21764,-0.226443 -0.48363,-0.124371 -0.34607,0.132797 -0.42735,0.03892 -0.28577,-0.330043 0.29089,-0.758026 1.4094,-0.659324 1.4094,0.124371 0,0.352 -0.144,0.64 -0.32,0.64 -0.176,0 -0.32,-0.139481 -0.32,-0.309957 z m -31.9875,-0.82458 C 99.877524,78.848273 99.60336,78.83762 99.241087,79.136837 98.837524,79.470156 98.835504,79.42634 99.225563,78.799998 99.734021,77.983535 100.8,77.828023 100.8,78.57031 c 0,0.269671 0.324,0.620544 0.72,0.779716 0.396,0.159173 0.504,0.284413 0.24,0.278313 -0.264,-0.0061 -0.83438,-0.205396 -1.2675,-0.442878 z m 25.2675,0.174537 c 0,-0.176 0.1525,-0.32 0.33888,-0.32 0.18639,0 0.24989,0.144 0.14112,0.32 -0.10878,0.176 -0.26128,0.32 -0.33889,0.32 -0.0776,0 -0.14111,-0.144 -0.14111,-0.32 z m -20.13251,-0.446876 c -0.30071,-0.362329 -0.2274,-0.438008 0.38746,-0.4 0.41709,0.02578 0.75835,0.226876 0.75836,0.446876 3e-5,0.53631 -0.68508,0.508281 -1.14582,-0.04688 z m -7.174159,-0.406457 c -0.117334,-0.117334 -0.213334,-0.362134 -0.213334,-0.544 0,-0.200514 0.149047,-0.18162 0.378667,0.048 0.208267,0.208266 0.304267,0.453066 0.213333,0.544 -0.09093,0.09093 -0.261333,0.06933 -0.378666,-0.048 z m 1.546666,-1.36181 c -0.62028,-0.242452 -0.617904,-0.257185 0.07713,-0.478164 0.75732,-0.240777 1.36287,-0.03097 1.36287,0.472192 0,0.353681 -0.54466,0.355939 -1.440009,0.006 z m -2.56,-0.801309 c -1.169798,-0.340192 -1.225128,-0.403376 -0.642665,-0.733893 0.350534,-0.198909 0.534013,-0.464974 0.407733,-0.591254 -0.126281,-0.126281 -0.449081,-0.04745 -0.717334,0.175181 -0.268254,0.222631 -0.489939,0.279151 -0.492634,0.1256 -0.0027,-0.15355 -0.14449,-0.06318 -0.315099,0.200818 -0.244374,0.378141 -0.31124,0.304576 -0.3151,-0.346667 -0.0027,-0.454666 0.07525,-0.90682 0.173219,-1.004785 0.271961,-0.271962 3.333606,0.785955 3.147244,1.087495 -0.08972,0.145176 -0.01064,0.263957 0.175751,0.263957 0.385032,0 0.464463,0.850661 0.09888,1.059008 -0.132,0.07523 -0.816,-0.03073 -1.52,-0.23546 z M 97.165796,73.88971 c -1.770445,-0.650956 -2.396813,-1.09024 -1.085143,-0.761032 1.07274,0.26924 1.158108,-0.217698 0.159345,-0.908897 -0.680632,-0.471033 -0.654386,-0.47898 0.48,-0.145341 0.659999,0.194116 1.199999,0.47909 1.199999,0.633276 0,0.154186 0.18,0.256964 0.4,0.228395 0.764123,-0.09922 1.2,0.02569 1.2,0.343887 0,0.176 -0.252,0.322205 -0.56,0.3249 -0.436237,0.0038 -0.464047,0.0657 -0.125835,0.28 0.878293,0.556514 -0.159725,0.559508 -1.668366,0.0048 z"
       id="path2" />
  </g>
</svg>
