<?xml version="1.0" encoding="UTF-8" standalone="no"?>
<!-- Created with Inkscape (http://www.inkscape.org/) -->

<svg
   version="1.1"
   id="svg1"
   width="106.48591"
   height="101.85709"
   viewBox="0 0 106.48591 101.85709"
   sodipodi:docname="Icon_chef.svg"
   inkscape:version="1.4.2 (ebf0e940d0, 2025-05-08)"
   xmlns:inkscape="http://www.inkscape.org/namespaces/inkscape"
   xmlns:sodipodi="http://sodipodi.sourceforge.net/DTD/sodipodi-0.dtd"
   xmlns="http://www.w3.org/2000/svg"
   xmlns:svg="http://www.w3.org/2000/svg">
  <defs
     id="defs1" />
  <sodipodi:namedview
     id="namedview1"
     pagecolor="#505050"
     bordercolor="#eeeeee"
     borderopacity="1"
     inkscape:showpageshadow="0"
     inkscape:pageopacity="0"
     inkscape:pagecheckerboard="0"
     inkscape:deskcolor="#505050"
     inkscape:zoom="1.3007615"
     inkscape:cx="53.814633"
     inkscape:cy="48.433169"
     inkscape:window-width="1838"
     inkscape:window-height="1011"
     inkscape:window-x="40"
     inkscape:window-y="47"
     inkscape:window-maximized="1"
     inkscape:current-layer="svg1" />
  <path
     style="fill:#0164ac"
     d="m 85.119998,147.49987 c -9.235914,-1.1345 -16.29591,-3.5692 -19.64892,-6.77609 -2.180585,-2.08556 -1.760725,-2.14082 1.959629,-0.25788 1.797058,0.90952 3.595161,1.60307 4.119235,1.58883 l 0.930056,-0.0253 -0.96,-0.32819 c -5.12051,-1.75053 -5.753316,-2.40072 -3.6,-3.69886 7.11683,-4.29045 25.639113,-6.79825 38.640002,-5.23162 1.672,0.20148 3.904,0.42016 4.96,0.48596 1.056,0.0658 2.496,0.20438 3.2,0.30798 2.06448,0.30379 -1.26745,-0.62715 -5.05991,-1.41374 -7.61446,-1.57929 -19.038273,-1.2705 -30.620092,0.82768 -4.952418,0.89718 -13.437401,3.67528 -13.439316,4.4002 -3.76e-4,0.14239 0.134852,0.17512 0.300507,0.0727 0.580087,-0.35851 4.498809,-1.76463 4.498809,-1.61426 0,0.0835 -0.756,0.53275 -1.68,0.99828 -0.924,0.46554 -2.085261,1.13237 -2.580581,1.48184 l -0.900581,0.63541 -0.765621,-0.71927 c -1.093792,-1.02756 -1.357203,-2.91866 -1.581443,-11.35362 -0.499571,-18.7917 -0.331558,-18.10928 -5.522795,-22.43182 -1.881318,-1.5665 -4.290968,-3.5777 -5.354778,-4.469326 C 31.487318,82.774321 40.954892,51.525918 66.591746,51.864624 l 3.391748,0.04481 1.540162,-1.175632 c 7.098192,-5.418173 18.593223,-6.362075 26.144859,-2.146858 1.389673,0.775696 1.591357,0.807985 2.560005,0.409844 9.3825,-3.856482 20.54038,-2.301554 27.20635,3.791392 1.40824,1.287183 2.52904,2.002119 3.76513,2.40169 9.82976,3.177531 16.08454,11.680613 16.13157,21.930127 0.038,8.27247 -1.62442,11.233834 -12.39476,22.079999 -9.34353,9.409314 -10.9011,15.340214 -9.05184,34.467534 0.25427,2.63002 0.22091,3.04367 -0.30971,3.84 l -0.59469,0.89247 -0.17323,-0.95887 c -0.18666,-1.03318 -1.63962,-1.94428 -3.62758,-2.27474 l -1.01976,-0.16952 1.20296,0.77119 c 1.67589,1.07438 1.67319,1.06884 1.00427,2.06195 -0.32971,0.48949 -0.74522,1.16482 -0.92335,1.50072 -0.17814,0.3359 -1.18788,1.10335 -2.24388,1.70544 -1.46499,0.83527 -1.69249,1.05142 -0.96,0.91207 3.2216,-0.61288 4.17794,-0.89009 4.69971,-1.36228 0.32132,-0.29079 0.66197,-0.45095 0.75701,-0.35591 0.88032,0.88033 -6.92972,4.64535 -12.14093,5.85283 -6.2579,1.45001 -20.118637,2.19296 -26.435792,1.41699 z m 39.033342,-21.3225 c -0.224,-4.2406 -0.85956,-6.0909 -1.33961,-3.89997 -0.42453,1.93757 0.0931,10.18343 0.67608,10.76902 0.7083,0.71153 0.93822,-1.6687 0.66353,-6.86905 z m -56.34604,2.69741 c 0.207222,-1.62513 0.606802,-4.39478 0.887956,-6.15478 0.837273,-5.24126 0.622094,-10.453 -0.44854,-10.86384 -2.159499,-0.82868 -3.018309,1.80349 -2.604916,7.98384 0.129496,1.936 0.105266,5.32 -0.05384,7.52 -0.15911,2.2 -0.293491,4.39114 -0.298625,4.8692 l -0.0093,0.86921 1.075267,-0.63442 c 1.040105,-0.61368 1.087588,-0.73105 1.452035,-3.58921 z m 54.3427,1.79678 c -0.34296,-1.17328 -0.41631,-2.85283 -0.30083,-6.8889 l 0.1527,-5.33734 -0.88766,-0.82266 c -1.51502,-1.40407 -1.65166,-1.18067 -1.89452,3.09734 -0.12239,2.156 -0.36845,4.48229 -0.54679,5.16953 -0.17833,0.68724 -0.22831,2.07615 -0.11105,3.08646 l 0.2132,1.83694 1.80341,0.81593 c 2.16259,0.97843 2.14118,0.99146 1.57154,-0.9573 z m -51.868298,0.0155 c 1.334016,-0.50946 1.344548,-0.52624 1.556966,-2.48 0.117625,-1.08188 0.41943,-3.37935 0.670678,-5.10547 0.676096,-4.64491 1.191458,-12.72879 0.834256,-13.08599 -1.521403,-1.5214 -2.9095,0.39424 -2.597297,3.5844 0.279056,2.85144 -0.03419,5.71912 -1.316061,12.04815 -1.272114,6.28087 -1.340522,5.87604 0.851458,5.03891 z M 117.14413,127.2 c 0.045,-1.584 0.21809,-3.15267 0.38467,-3.48593 1.55515,-3.11119 -1.51519,-12.95436 -3.4403,-11.02924 -3.16572,3.16572 -0.48197,19.16296 2.92266,17.42134 0.0281,-0.0144 0.088,-1.32217 0.13297,-2.90617 z m -41.263724,1.75873 1.800409,-0.40286 0.19681,-1.63793 c 0.462118,-3.84595 0.23087,-16.75853 -0.303799,-16.96371 -0.727687,-0.27924 -1.988297,-0.23915 -2.178925,0.0693 -0.209986,0.33977 -0.849044,5.47185 -0.874776,7.02507 -0.01086,0.65527 -0.214534,2.41541 -0.452619,3.91141 -0.748415,4.70265 -0.953892,8.77231 -0.432821,8.57242 0.244922,-0.094 1.255497,-0.35211 2.245721,-0.57369 z M 111.81048,125.68 c 0.76661,-10.98388 0.56387,-14.64 -0.81183,-14.64 -1.47574,0 -2.1138,0.92727 -2.34742,3.41147 -0.1132,1.20369 -0.42352,3.70053 -0.6896,5.54853 -0.26608,1.848 -0.4383,4.36538 -0.38271,5.59418 l 0.10108,2.23419 1.76,0.3699 c 0.968,0.20345 1.85087,0.38607 1.96194,0.40582 0.11107,0.0197 0.29491,-1.29609 0.40854,-2.92409 z m -47.546619,-2.48 0.01332,-1.44 -0.446143,1.43217 c -0.305182,0.97967 -0.376075,2.04128 -0.224375,3.36 l 0.22177,1.92783 0.21105,-1.92 c 0.116077,-1.056 0.217046,-2.568 0.224374,-3.36 z m 19.137635,4.27708 c 0.838936,-0.20575 0.937482,-0.96943 1.413315,-10.95248 0.390884,-8.20081 0.589604,-7.41049 -1.920537,-7.6381 -3.485275,-0.31603 -3.415533,-0.52008 -3.48664,10.2009 l -0.05967,8.99664 1.686017,-0.21991 c 0.92731,-0.12095 1.992692,-0.29513 2.367516,-0.38705 z M 106.05252,125.04 c 0.52311,-6.48556 0.37262,-14.98831 -0.27368,-15.4634 -3.12021,-2.2936 -4.91824,2.11714 -5.5119,13.52122 l -0.20291,3.89782 1.24798,0.12839 c 0.68639,0.0706 1.9917,0.15259 2.90068,0.18217 l 1.6527,0.0538 z m -13.981044,1.55544 c 0.546779,-0.54622 0.50951,-17.31327 -0.0395,-17.7689 -0.553341,-0.45923 -4.119469,-0.24564 -5.00222,0.29961 -0.475134,0.29348 -0.834521,6.0393 -0.917761,14.67299 l -0.032,3.31914 2.871478,-0.13729 c 1.579313,-0.0755 2.983313,-0.249 3.12,-0.38555 z M 99.109009,124.64 c 0.06491,-1.8059 0.528277,-8.10613 0.923031,-12.55014 0.23562,-2.6525 -0.603945,-3.68267 -2.69037,-3.30114 -3.066344,0.56072 -2.961239,0.23406 -3.555779,11.05128 -0.406764,7.40077 -0.590398,6.92684 2.639647,6.81253 L 99.039997,126.56 Z M 65.941036,109.10874 c 1.003274,-0.53694 0.78421,-2.07324 -0.562648,-3.94587 -3.911138,-5.437918 -9.24834,-10.999588 -9.915456,-10.332473 -0.713256,0.713256 0.982333,3.410154 6.469257,10.289603 0.982621,1.232 2.080084,2.708 2.438805,3.28 0.733369,1.16939 0.720314,1.1635 1.570042,0.70874 z m 65.684804,-9.988569 c 6.61733,-6.295671 8.80676,-9.784349 9.7904,-15.600173 0.19349,-1.144 0.43299,-2.571894 0.53224,-3.173098 l 0.18044,-1.093097 1.29401,1.413097 c 0.71171,0.777204 1.4011,1.700843 1.53199,2.052532 0.35003,0.940541 0.96649,-2.20444 0.95952,-4.895185 -0.0217,-8.356207 -5.57991,-16.463903 -13.59176,-19.825977 -2.00353,-0.840756 -1.96046,-0.996888 -0.60257,2.184111 1.96461,4.602325 2.01117,4.791718 2.02584,8.240474 0.0128,3.002598 -0.0317,3.257143 -0.48881,2.8 -0.67266,-0.672664 -1.29485,-0.633517 -2.39628,0.150769 l -0.91793,0.653626 0.79569,-1.738022 c 1.17544,-2.567502 0.59395,-7.61353 -1.31702,-11.428681 -3.95878,-7.903519 -15.62034,-11.772838 -25.90644,-8.595785 l -2.21164,0.683106 1.27593,1.190176 c 1.16544,1.087114 1.94727,2.935564 1.00118,2.367067 C 103.37128,54.379316 102.48,53.819514 101.6,53.261108 88.419618,44.897469 75.309918,47.16676 65.854506,59.448657 63.47359,62.541296 63.85989,59.87486 66.27596,56.539571 c 1.213084,-1.674613 1.249653,-1.661404 -3.311098,-1.195981 -10.072458,1.027892 -16.086531,5.575697 -18.64126,14.096408 -0.131924,0.44 -0.497645,1.376 -0.812714,2.08 -1.2911,2.884873 -0.906373,6.913818 1.078736,11.296741 0.613611,1.354792 1.562069,3.455917 2.107686,4.669167 1.274559,2.834149 3.635225,6.14003 4.823128,6.754319 1.729032,0.894117 3.931161,0.525311 2.744389,-0.459622 -0.461687,-0.383166 -1.248608,-2.260605 -0.947523,-2.260605 0.09021,0 0.518812,0.421654 0.952454,0.937009 0.433643,0.515354 1.429285,1.181749 2.212539,1.480876 0.829789,0.3169 1.774329,1.003046 2.263334,1.644165 0.461581,0.605163 1.894405,2.22859 3.184055,3.607616 1.28965,1.379026 3.313016,3.961496 4.496369,5.738826 1.183353,1.77733 2.288996,3.23151 2.456984,3.23151 0.494969,0 0.103506,-0.69818 -2.947102,-5.25619 -2.879311,-4.302067 -3.219073,-4.901291 -2.541656,-4.482625 0.244257,0.15096 0.278604,-0.01709 0.110596,-0.541114 -0.364103,-1.135658 -0.761389,-2.97023 -0.664254,-3.067365 0.04689,-0.04689 0.499747,0.781949 1.006343,1.841871 0.525944,1.1004 1.388658,2.283765 2.011012,2.758458 0.59946,0.457231 1.294727,1.321485 1.545037,1.920555 0.34911,0.83554 2.785644,4.45514 3.485773,5.1783 1.648882,1.70313 3.082014,-1.8333 2.230637,-5.50437 -0.264315,-1.139705 -0.402613,-2.275352 -0.307329,-2.52366 0.09529,-0.248307 -0.275135,-1.664757 -0.823156,-3.147665 -1.255824,-3.39818 -4.632675,-13.480583 -5.078815,-15.164029 -0.36071,-1.361086 -0.132021,-3.792913 0.329842,-3.507466 0.154017,0.09519 0.280031,0.403359 0.280031,0.684826 0,0.281466 0.568471,1.748967 1.263269,3.261114 0.694798,1.512147 1.633729,4.333358 2.086514,6.269358 0.862299,3.68699 2.043519,7.567373 2.386557,7.84 0.110729,0.088 0.459104,0.808 0.774168,1.6 2.73579,6.877162 4.304958,8.199102 9.364996,7.889502 6.446126,-0.39441 6.735983,-1.18139 5.027309,-13.649502 -0.470333,-3.432 -0.824221,-7.070491 -0.786417,-8.085536 0.05986,-1.607188 -0.08664,-2.123781 -1.134314,-4 -1.181577,-2.116013 -1.187713,-2.144469 -0.343824,-1.594464 1.276683,0.832079 2.031089,0.688592 2.99008,-0.56871 1.142396,-1.497758 1.200752,-1.318955 0.427438,1.309673 -0.78379,2.664241 -0.858022,6.93088 -0.168032,9.658017 0.256186,1.012561 0.631577,2.99302 0.834202,4.40102 1.185596,8.238499 2.314347,11.699412 4.115337,12.618212 2.529987,1.2907 2.96561,0.25794 3.562754,-8.446475 0.304778,-4.442657 0.603494,-5.754872 1.179038,-5.179329 0.126358,0.126358 -0.01909,2.492758 -0.323206,5.258667 -0.304122,2.765908 -0.549106,5.915027 -0.544409,6.998037 l 0.0085,1.96912 1.677423,0.11313 c 2.498199,0.16848 5.910389,-3.70143 9.356289,-10.611362 2.65157,-5.317083 6.24842,-10.54284 8.24377,-11.977124 0.8681,-0.624 1.20534,-1.103337 1.21265,-1.723629 l 0.0101,-0.859247 0.65655,0.88 c 1.3117,1.758117 4.96227,0.398684 8.13662,-3.029988 1.92989,-2.084516 2.01646,-1.995631 1.00316,1.029988 -0.79614,2.377211 -2.79343,3.98954 -8.88594,7.173266 -6.30657,3.295587 -8.17547,5.494441 -11.97804,14.092712 -0.86995,1.967114 -0.90378,2.095164 -0.55262,2.091554 0.132,-10e-4 0.58714,-0.61335 1.01142,-1.36 1.62072,-2.852123 6.92759,-9.445189 7.30157,-9.071211 0.0832,0.08319 -0.26783,0.700804 -0.78004,1.372469 -7.54709,9.896522 -9.04614,12.880872 -6.4779,12.896312 0.88635,0.005 2.39256,-1.38995 4.1055,-3.80311 1.1243,-1.58391 1.20877,-1.57112 0.51945,0.0786 -0.93853,2.24622 0.72282,4.04936 3.73095,4.04936 h 1.55493 l 2.073,-2.8 c 1.14014,-1.54 2.88169,-4.240003 3.8701,-6.000003 0.98842,-1.759999 1.71857,-2.983999 1.62256,-2.719999 -0.096,0.264 -0.74865,1.934501 -1.45031,3.712226 -0.70166,1.777726 -1.43884,4.131666 -1.63819,5.230976 -0.19934,1.09932 -0.49401,2.34482 -0.65482,2.76778 -0.60515,1.59165 0.0241,0.66513 1.61718,-2.38119 0.90608,-1.73262 2.20932,-3.89262 2.89609,-4.800003 0.68677,-0.907384 1.15657,-1.64979 1.044,-1.64979 -0.31228,0 0.87577,-1.240486 2.17447,-2.270439 1.10303,-0.874769 1.03992,-0.719881 -1.28561,3.155256 -1.72728,2.878246 -2.74939,5.021846 -3.47997,7.298256 -1.3597,4.23673 -1.29471,4.39356 0.38827,0.93693 1.325,-2.72141 1.67541,-3.13991 6.36319,-7.599829 z m -17.68015,0.07983 c 0.4665,-0.97953 0.61431,-1.161068 0.61431,-0.754494 0,0.171694 -0.22395,0.591694 -0.49766,0.933333 -0.46924,0.585698 -0.4759,0.575487 -0.11665,-0.178839 z"
     id="path1"
     transform="translate(-40.846288,-45.955236)" />
</svg>
