<?xml version="1.0" encoding="UTF-8" standalone="no"?>
<!-- Created with Inkscape (http://www.inkscape.org/) -->

<svg
   version="1.1"
   id="svg1"
   width="97.369034"
   height="97.642601"
   viewBox="0 0 97.369036 97.642604"
   sodipodi:docname="Icon_monk.svg"
   inkscape:version="1.4.2 (ebf0e940d0, 2025-05-08)"
   xmlns:inkscape="http://www.inkscape.org/namespaces/inkscape"
   xmlns:sodipodi="http://sodipodi.sourceforge.net/DTD/sodipodi-0.dtd"
   xmlns="http://www.w3.org/2000/svg"
   xmlns:svg="http://www.w3.org/2000/svg">
  <defs
     id="defs1" />
  <sodipodi:namedview
     id="namedview1"
     pagecolor="#505050"
     bordercolor="#eeeeee"
     borderopacity="1"
     inkscape:showpageshadow="0"
     inkscape:pageopacity="0"
     inkscape:pagecheckerboard="0"
     inkscape:deskcolor="#505050"
     inkscape:zoom="1.3007615"
     inkscape:cx="49.58634"
     inkscape:cy="55.352194"
     inkscape:window-width="1838"
     inkscape:window-height="1011"
     inkscape:window-x="40"
     inkscape:window-y="47"
     inkscape:window-maximized="1"
     inkscape:current-layer="svg1" />
  <path
     style="fill:#0060a9"
     d="m 51.693923,135.59792 c -0.573142,-0.57314 -1.458742,-1.18669 -1.968,-1.36343 -0.563051,-0.19541 -1.141463,-0.75894 -1.475902,-1.43792 -0.302488,-0.61412 -0.914488,-1.51506 -1.36,-2.0021 -0.445512,-0.48705 -0.810022,-1.26771 -0.810022,-1.73481 0,-0.4671 -0.22522,-1.09813 -0.500488,-1.4023 -0.657715,-0.72677 -0.678784,-2.20958 -0.04785,-3.36793 0.278432,-0.51119 0.593792,-1.33872 0.700801,-1.83897 0.144398,-0.67503 0.520247,-1.04629 1.457796,-1.44 0.801657,-0.33663 1.264426,-0.7404 1.266491,-1.10501 0.0055,-0.97384 1.454251,-2.14545 2.652929,-2.14545 0.736933,0 1.316914,-0.2535 1.830326,-0.8 0.784249,-0.8348 2.949824,-1.14368 3.360428,-0.47931 0.115925,0.18757 0.741866,0.23376 1.507891,0.11127 1.501405,-0.24009 1.530607,-0.35821 -0.644755,2.60804 -1.594331,2.17397 -1.928468,2.45223 -2.668511,2.22225 -0.313737,-0.0975 -0.915396,0.22732 -1.495384,0.80731 -0.533741,0.53374 -1.161516,0.97415 -1.395054,0.97869 -1.072288,0.0208 -1.860004,3.22785 -1.054438,4.29291 0.258402,0.34164 0.469823,0.86623 0.469823,1.16576 0,0.29953 0.217245,0.62797 0.482768,0.72986 0.265523,0.10189 0.648637,0.5493 0.851365,0.99424 0.202728,0.44494 0.571966,0.80898 0.820529,0.80898 0.294217,0 0.108781,-0.41631 -0.531365,-1.19291 -1.557089,-1.88902 -1.424761,-2.23783 3.31083,-8.72719 4.174298,-5.72021 4.337266,-5.89682 5.84,-6.32919 1.998646,-0.57504 2.218987,-0.81921 1.22115,-1.35324 -1.16413,-0.62302 -2.618634,1.56115 14.260853,-21.414985 l 5.29613,-7.209023 -1.366648,-2.216636 c -1.877573,-3.045333 -3.436601,-7.876828 -2.541696,-7.876828 0.783604,0 0.891495,-6.405701 0.118759,-7.050904 -0.569769,-0.475733 -0.567897,-0.554851 0.06056,-2.56 0.356677,-1.138003 0.649606,-2.213096 0.650955,-2.389096 0.0013,-0.176 -1.868794,-1.601584 -4.155872,-3.167964 l -4.158323,-2.847965 v -1.520837 c 0,-1.378001 0.202866,-1.793036 2.16,-4.419043 l 2.16,-2.898205 1.625849,-0.01299 c 1.515292,-0.01211 1.880774,0.161088 5.37472,2.547008 4.285496,2.926446 4.051103,2.857978 5.595785,1.634568 5.156659,-4.08415 14.952637,-5.921248 20.459477,-3.836887 0.63291,0.239562 0.97697,0.03151 2.4601,-1.487601 0.94836,-0.971363 2.23723,-1.980439 2.86418,-2.242392 1.21828,-0.50903 1.35957,-0.760007 0.76345,-1.356127 -0.28859,-0.288585 -0.23967,-0.527567 0.20959,-1.024 0.32232,-0.356159 0.48439,-0.647561 0.36016,-0.647561 -0.52372,0 1.50956,-2.204968 2.35695,-2.555965 1.48676,-0.615839 7.68974,3.746462 7.68974,5.407883 0,0.324822 -1.45422,2.516021 -3.2316,4.869333 -1.77737,2.353312 -3.29379,4.430109 -3.36981,4.615104 -0.076,0.184995 0.6582,1.526211 1.63159,2.98048 2.03162,3.035263 2.03971,3.073002 0.96982,4.523164 -0.99557,1.349412 -1.00302,1.31748 0.20893,0.894993 2.44062,-0.850806 3.20544,5.535573 1.56301,13.051444 -0.3405,1.558189 -0.59049,2.85277 -0.55552,2.876846 0.035,0.02408 1.57558,1.054846 3.42358,2.2906 4.75533,3.179886 5.23812,3.676128 4.9695,5.108 -0.34393,1.833325 -1.08615,2.73712 -2.12283,2.584968 -0.84218,-0.123607 -0.89291,-0.05505 -1.10377,1.491794 -0.26287,1.928285 -1.3306,3.949094 -2.2229,4.20709 -0.352,0.101776 -0.87099,0.248654 -1.1533,0.326396 -0.30095,0.08288 -2.40839,-1.251927 -5.0943,-3.226613 -4.44997,-3.271619 -4.60274,-3.353721 -5.34082,-2.870114 -6.93811,4.54602 -15.199116,5.917741 -21.223009,3.524029 -0.362959,-0.144229 -1.492289,1.246125 -4.32,5.318491 -2.105715,3.032575 -4.564252,6.240135 -5.463416,7.127915 -1.597634,1.57742 -3.469125,4.2753 -7.224185,10.41416 -3.133283,5.12236 -13.815853,20.09531 -14.596028,20.45814 -1.1092,0.51586 -2.127481,0.41356 -3.041722,-0.30559 -0.653362,-0.51393 -0.876717,-0.56013 -1.083155,-0.22405 -1.169744,1.90437 -4.283646,2.51192 -5.686141,1.10942 z m 8.932794,-2.89691 c -0.103389,-0.41194 0.108237,-1.50951 0.478176,-2.48 l 0.663652,-1.74101 -0.724273,0.95953 c -0.398351,0.52774 -1.11216,1.39174 -1.586244,1.92 l -0.86197,0.96047 -0.695132,-0.68599 -0.695132,-0.686 1.275424,-2.434 c 0.701483,-1.33871 1.234355,-2.43401 1.184162,-2.43401 -0.05019,0 -0.917498,0.94109 -1.927342,2.09132 l -1.83608,2.09132 0.901931,0.94142 c 0.814685,0.85034 3.144864,2.23505 3.762206,2.23568 0.135353,1.4e-4 0.162633,-0.33229 0.06062,-0.73873 z M 60.840816,124.88 c 0.398039,-0.50754 0.38672,-0.51886 -0.120818,-0.12082 -0.308,0.24155 -0.56,0.49355 -0.56,0.56 0,0.26337 0.26278,0.0939 0.680818,-0.43918 z m -13.240861,-3.14671 c -0.304946,-0.30495 -0.916317,0.18899 -0.689058,0.5567 0.135078,0.21856 0.314068,0.21304 0.543886,-0.0168 0.188402,-0.1884 0.25373,-0.43137 0.145172,-0.53992 z M 50.879999,119.04 c 0,-0.176 -0.216,-0.32 -0.48,-0.32 -0.264,0 -0.48,0.144 -0.48,0.32 0,0.176 0.216,0.32 0.48,0.32 0.264,0 0.48,-0.144 0.48,-0.32 z m 3.84,-1.92 c 0,-0.176 -0.216,-0.32 -0.48,-0.32 -0.264,0 -0.48,0.144 -0.48,0.32 0,0.176 0.216,0.32 0.48,0.32 0.264,0 0.48,-0.144 0.48,-0.32 z m 19.240817,-16.56 c 0.398038,-0.50754 0.38672,-0.51886 -0.120818,-0.12082 -0.533039,0.41804 -0.702553,0.68082 -0.439182,0.68082 0.06645,0 0.31845,-0.252 0.56,-0.56 z m 0.96,-1.280003 c 0.398038,-0.507537 0.38672,-0.518856 -0.120818,-0.120817 -0.308,0.24155 -0.56,0.49355 -0.56,0.56 0,0.263371 0.262779,0.09386 0.680818,-0.439183 z M 85.933089,84.93073 c 5.751005,-7.496097 10.332744,-13.734963 10.181641,-13.864148 -0.151103,-0.129185 -1.858732,-1.364455 -3.794732,-2.745045 -1.936,-1.380591 -3.736,-2.665724 -4,-2.855852 -0.407448,-0.293436 -0.41854,-0.266973 -0.07338,0.175079 0.223641,0.286421 1.839226,1.510421 3.590189,2.72 4.230433,2.922417 4.58317,1.825792 -4.457419,13.857666 -7.419242,9.874068 -12.183149,16.341567 -12.037065,16.341567 0.07392,0 4.839761,-6.13317 10.590766,-13.629267 z m 12.528641,5.405165 c -0.9887,-0.256227 -0.499043,-1.223816 0.587056,-1.160054 1.984944,0.116532 9.637274,-1.15591 11.947254,-1.98661 1.00825,-0.362583 -0.25117,-1.07229 -1.33272,-0.751011 -2.16474,0.643044 -5.31999,1.212929 -8.70332,1.571949 -2.283541,0.242317 -3.716712,0.548367 -4.080003,0.871272 -1.090567,0.969337 -0.552287,1.604316 1.36,1.604316 0.537689,0 0.610393,-0.04914 0.221733,-0.149862 z m 29.71957,-6.461422 c -0.4368,-0.706757 -1.08266,-0.327352 -1.58656,0.932 -0.73011,1.824719 -0.65994,1.888057 0.64545,0.582666 0.6381,-0.638105 1.06161,-1.319705 0.94111,-1.514666 z M 118.72,85.61719 c 0,-0.1646 -14.68869,-10.097192 -14.93211,-10.097192 -0.73323,0 1.07842,1.326184 7.41674,5.429309 7.9363,5.137577 7.51537,4.876131 7.51537,4.667883 z m -12.4,-1.606918 c 1.188,-0.483083 2.16,-0.980892 2.16,-1.106242 0,-0.125351 -0.972,-0.924711 -2.16,-1.776356 -1.188,-0.851646 -2.61131,-1.890134 -3.16291,-2.307753 l -1.00292,-0.759306 -2.277084,3.189384 c -1.252399,1.754161 -2.277089,3.361398 -2.277089,3.571637 0,0.766236 6.276563,0.182225 8.720003,-0.811364 z m -16.118238,-8.78695 c 2.65994,-3.662989 2.633668,-3.882624 -0.739639,-6.183324 -3.349848,-2.2847 -3.282947,-2.29044 -3.560951,0.305525 -0.330917,3.090053 1.260376,9.758848 2.107393,8.831671 0.129229,-0.141458 1.116167,-1.4707 2.193197,-2.953872 z m -5.272649,1.712117 c -0.263025,-0.629508 -0.611872,-2.665703 -0.775216,-4.524878 -0.355105,-4.041802 -0.505033,-4.338222 -0.800194,-1.582053 -0.224866,2.099766 0.199097,4.118861 1.337865,6.37149 0.639455,1.264923 0.801293,1.08468 0.237545,-0.264559 z M 120.19335,75.06886 c -1.38229,-1.183213 -1.46169,-2.487498 -0.34424,-5.654682 0.25899,-0.734054 0.47089,-1.66454 0.47089,-2.067746 0,-0.512401 0.26492,-0.82501 0.88,-1.038397 l 0.88,-0.305297 -1.12,-0.303538 -1.12,-0.303537 -0.21734,1.942168 c -0.11954,1.068192 -0.52353,2.806167 -0.89777,3.862167 -0.37424,1.056 -0.75839,2.16112 -0.85366,2.455823 -0.1271,0.39312 0.28245,0.797132 1.53777,1.516997 2.1746,1.247031 2.33743,1.22545 0.78435,-0.103958 z m -3.42407,-5.825185 c 0.17338,-7.429571 -2.1024,-9.416843 -5.54687,-4.843677 -3.28532,4.361864 -3.2985,4.291901 1.19784,6.356461 0.49514,0.227351 1.1256,0.794849 1.40103,1.261107 1.44685,2.44932 2.85707,1.122383 2.948,-2.773891 z m -4.5763,-8.375153 c 2.75884,-3.821387 5.38318,-7.4521 5.83187,-8.06825 2.11628,-2.906122 -0.62996,0.436321 -4.60089,5.599726 -2.43636,3.168 -4.95492,6.434527 -5.59681,7.258948 l -1.16706,1.498948 -1.09005,-0.652455 -1.09004,-0.652456 1.0907,1.141056 c 1.36954,1.432758 0.75566,2.000585 6.62228,-6.125517 z m -9.77886,-2.48676 c 2.9786,-3.846378 2.97025,-3.705354 0.22017,-3.721219 -3.323253,-0.01917 -10.224895,2.01552 -9.453425,2.786989 0.403563,0.403563 6.202959,4.312443 6.398157,4.312454 0.120464,7e-6 1.396258,-1.520194 2.835098,-3.378224 z m -14.734122,2.295386 c 0,-0.06757 -2.236815,-1.967169 -4.9707,-4.221336 -3.644115,-3.004679 -4.915453,-4.23157 -4.763694,-4.59715 0.984553,-2.37174 0.387798,-2.014135 -2.106228,1.262153 l -1.920639,2.523057 1.812724,1.298063 c 2.843636,2.036284 3.277954,1.824014 0.503439,-0.246052 l -1.605549,-1.1979 1.111722,-1.213099 c 1.32854,-1.449688 0.730673,-1.694907 6.818925,2.79683 5.271848,3.889418 5.12,3.782785 5.12,3.595434 z m 4.317978,-5.959259 c -1.130923,-1.18043 -0.975894,-1.371462 1.951164,-2.404284 1.215972,-0.429059 1.954315,-0.783145 1.640763,-0.786857 -0.735229,-0.0087 -4.427975,1.230841 -4.949905,1.661536 -0.952777,0.786229 0.111085,2.009554 2.139869,2.460617 0.07693,0.0171 -0.274923,-0.401852 -0.781891,-0.931012 z M 105.28,51.156073 c 0,-0.670145 -0.0758,-0.680239 -3.76,-0.500953 -5.614995,0.273243 -6.158169,0.671366 -1.2,0.879547 2.288,0.09607 4.34,0.204067 4.56,0.24 0.22,0.03593 0.4,-0.242435 0.4,-0.618594 z m 14.12081,-0.196074 c 0.39804,-0.507538 0.38672,-0.518857 -0.12081,-0.120818 -0.53304,0.418038 -0.70256,0.680818 -0.43919,0.680818 0.0664,0 0.31845,-0.252 0.56,-0.56 z m 3.71111,-7.033535 c -0.94351,-0.943505 -1.0527,-0.750346 -0.66674,1.179461 l 0.20519,1.025926 0.66673,-0.666734 0.66674,-0.666734 z m -2.30036,-2.314624 c -1.2217,-1.25113 -2.05439,-1.191716 -2.07649,0.148159 -0.003,0.176 0.11941,0.123183 0.27181,-0.117371 0.22305,-0.352086 0.51737,-0.274089 1.50938,0.4 1.68411,1.144383 1.74569,1.054549 0.2953,-0.430788 z m -35.849619,94.63884 c -0.350931,-0.20342 -1.217541,-0.33422 -1.9258,-0.29066 -1.028449,0.0632 -1.442784,-0.0858 -2.057724,-0.74042 -0.423489,-0.45078 -0.935778,-0.8196 -1.138419,-0.8196 -0.587537,0 -1.76,-1.41964 -1.76,-2.13103 0,-0.35738 -0.275049,-0.8987 -0.61122,-1.20293 -0.336171,-0.30423 -0.703546,-0.921 -0.816388,-1.3706 -0.112842,-0.4496 -0.629793,-1.24208 -1.14878,-1.76106 -0.518986,-0.51899 -0.943616,-1.11254 -0.943621,-1.319 -1.4e-5,-0.52467 -1.996273,-2.06202 -3.006924,-2.31568 -1.29675,-0.32546 -1.268871,-0.58338 0.30668,-2.83723 1.475908,-2.1113 1.840241,-2.39734 2.236621,-1.75599 0.117776,0.19057 0.847213,0.61785 1.620971,0.94952 0.899735,0.38567 1.549713,0.92402 1.803221,1.49352 0.218012,0.48976 0.865074,1.33948 1.437913,1.88826 0.57284,0.54878 1.041527,1.24208 1.041527,1.54066 0,0.29858 0.432,0.90638 0.96,1.35066 0.528,0.44428 0.964791,1.11899 0.970646,1.49934 0.02346,1.52413 2.302583,3.12354 4.069957,2.85617 0.660278,-0.0999 1.335673,0.0359 1.847943,0.37156 0.730285,0.4785 0.874461,0.48198 1.510599,0.0364 0.951909,-0.66674 2.252518,-0.62007 3.158244,0.11335 0.734266,0.59457 0.762729,0.59457 1.518606,0 0.979317,-0.77034 2.325034,-0.77442 3.269148,-0.01 0.717938,0.58135 0.751783,0.58135 1.375791,0 0.78182,-0.72838 1.834448,-0.75963 3.124058,-0.0927 0.88506,0.45769 1.02356,0.45769 1.5293,0 0.75214,-0.68067 2.35209,-0.63503 3.25085,0.0927 0.71794,0.58135 0.75178,0.58135 1.37579,0 0.69527,-0.64774 2.13624,-0.7806 3.0665,-0.28274 0.42524,0.22758 0.69281,0.18382 0.97815,-0.16 0.4512,-0.54366 2.89111,-0.64858 3.39376,-0.14593 0.22313,0.22313 0.69327,0.17445 1.47668,-0.15288 0.88036,-0.36783 1.37481,-0.40162 2.11282,-0.14435 0.77052,0.26861 1.12802,0.22807 1.785,-0.2024 0.59359,-0.38894 1.15509,-0.47957 2.02383,-0.32669 0.66128,0.11637 1.89169,0.25878 2.73425,0.31647 0.89213,0.0611 1.79423,0.34228 2.16,0.67329 0.58478,0.52922 0.66834,0.53197 1.21212,0.0399 0.32122,-0.2907 0.98232,-0.56151 1.46912,-0.6018 0.58499,-0.0484 1.0308,-0.35504 1.31486,-0.90435 0.62088,-1.20066 1.24619,-1.6225 2.44979,-1.65264 0.67721,-0.017 1.3176,-0.29938 1.76691,-0.77923 1.47589,-1.57622 4.57528,-0.4487 4.57528,1.66444 0,0.52756 0.36146,1.18382 0.96,1.74294 1.34361,1.25512 1.33389,2.8285 -0.0246,3.97155 -1.77368,1.49246 -3.95454,0.63248 -4.32862,-1.70692 l -0.19333,-1.20903 -0.7522,0.7522 c -0.46028,0.46028 -1.13041,0.7522 -1.72675,0.7522 -0.61014,0 -0.97454,0.16334 -0.97454,0.43684 0,1.74386 -2.78986,2.75896 -4.42839,1.61129 -0.67312,-0.47147 -0.7785,-0.4687 -1.33522,0.0351 -0.4668,0.42245 -0.91776,0.49882 -1.98041,0.33539 -0.75679,-0.11638 -1.92971,-0.20647 -2.60649,-0.2002 -0.67677,0.006 -1.50728,-0.13671 -1.84557,-0.31776 -0.45655,-0.24434 -0.79692,-0.2018 -1.3207,0.16506 -0.82619,0.57869 -2.83428,0.65519 -3.36142,0.12805 -0.27493,-0.27493 -0.6114,-0.26463 -1.35004,0.0413 -0.55722,0.23081 -1.5458,0.33215 -2.27979,0.2337 -0.88752,-0.11904 -1.59204,-0.006 -2.23547,0.35868 -0.89423,0.50682 -1.0006,0.49938 -2.20625,-0.15447 -1.03991,-0.56397 -1.33008,-0.61062 -1.6206,-0.26057 -0.5968,0.7191 -2.13447,0.88189 -3.21911,0.3408 -0.88186,-0.43992 -1.09869,-0.44275 -1.90688,-0.0248 -1.21948,0.63062 -1.981569,0.5941 -2.914411,-0.13968 -0.762047,-0.59942 -0.792242,-0.59956 -1.563154,-0.007 -1.008732,0.77521 -2.254279,0.78 -3.230102,0.0124 -0.755877,-0.59458 -0.78434,-0.59458 -1.518606,0 -0.908278,0.73548 -2.206911,0.77968 -3.166187,0.10778 -0.643694,-0.45086 -0.778711,-0.45086 -1.422404,0 -0.834309,0.58437 -2.068372,0.62964 -2.966855,0.10883 z M 133.12,129.6 c 0,-0.176 -0.144,-0.32 -0.32,-0.32 -0.176,0 -0.32,0.144 -0.32,0.32 0,0.176 0.144,0.32 0.32,0.32 0.176,0 0.32,-0.144 0.32,-0.32 z m 3.9831,-2.26733 c -0.10303,-0.16671 -0.32373,-0.21881 -0.49043,-0.11578 -0.16671,0.10303 -0.21881,0.32373 -0.11578,0.49044 0.10303,0.16671 0.32373,0.21881 0.49044,0.11578 0.16671,-0.10304 0.21881,-0.32373 0.11577,-0.49044 z"
     id="path1"
     transform="translate(-45.071997,-38.984937)" />
</svg>
