<?xml version="1.0" encoding="UTF-8" standalone="no"?>
<!-- Created with Inkscape (http://www.inkscape.org/) -->

<svg
   version="1.1"
   id="svg1"
   width="121.12668"
   height="85.958405"
   viewBox="0 0 121.12668 85.958407"
   sodipodi:docname="Icon_spy.svg"
   inkscape:version="1.4.2 (ebf0e940d0, 2025-05-08)"
   xmlns:inkscape="http://www.inkscape.org/namespaces/inkscape"
   xmlns:sodipodi="http://sodipodi.sourceforge.net/DTD/sodipodi-0.dtd"
   xmlns="http://www.w3.org/2000/svg"
   xmlns:svg="http://www.w3.org/2000/svg">
  <defs
     id="defs1" />
  <sodipodi:namedview
     id="namedview1"
     pagecolor="#505050"
     bordercolor="#eeeeee"
     borderopacity="1"
     inkscape:showpageshadow="0"
     inkscape:pageopacity="0"
     inkscape:pagecheckerboard="0"
     inkscape:deskcolor="#505050"
     inkscape:zoom="1.3007615"
     inkscape:cx="63.424389"
     inkscape:cy="42.282926"
     inkscape:window-width="1838"
     inkscape:window-height="1011"
     inkscape:window-x="40"
     inkscape:window-y="47"
     inkscape:window-maximized="1"
     inkscape:current-layer="svg1" />
  <path
     style="fill:#66090c"
     d="M 98.213929,137.42325 C 88.471075,135.659 82.109178,131.35146 75.316832,121.92 71.146594,116.12944 67.686565,109.70608 65.66399,104 c -0.530272,-1.496 -1.119186,-3.11903 -1.308697,-3.60673 l -0.344567,-0.886721 -2.165364,1.086751 c -7.774806,3.90202 -10.143193,4.10695 -19.682518,1.70304 C 33.124592,100.0187 31.376603,97.66685 31.361572,87.763668 31.35539,83.690773 59.835229,70.026702 65.923354,71.1816 c 3.009604,0.570912 6.521291,0.629375 9.756644,0.162431 4.144658,-0.59818 4.467021,-0.764858 8.210257,-4.245135 9.896958,-9.201706 16.389245,-14.432219 18.376495,-14.805029 4.43478,-0.831969 11.73197,2.788356 21.45423,10.643986 5.67262,4.583508 5.06895,4.601863 10.26201,-0.312014 7.4153,-7.016651 9.25626,-5.827901 16.90494,10.915936 3.21584,7.039841 1.60489,11.94913 -5.01287,15.276444 -4.46966,2.247282 -8.7481,4.78695 -9.85435,5.849507 l -0.88732,0.852272 0.59144,1.919999 0.59144,1.92 -0.10718,-1.87275 -0.10718,-1.87275 1.14904,0.174925 c 4.53637,0.690597 9.01578,0.93356 10.75862,0.583548 2.80584,-0.563494 2.67942,-0.686112 2.13153,2.067365 -0.46961,2.360085 -0.46124,2.520575 0.25465,4.880005 2.35701,7.76828 0.86594,12.90971 -6.41494,22.11966 -6.74991,8.5383 -9.28961,10.88 -11.79995,10.88 -2.6956,0 -2.91935,-0.60616 -2.56706,-6.95448 l 0.1462,-2.63448 -4.15539,-4.16552 c -5.14198,-5.15453 -4.33922,-5.47514 -7.99846,3.19448 -4.98688,11.81513 -8.12629,13.7033 -19.392221,11.66325 z m 10.436051,-2.24944 c 2.45279,-1.16392 5.0135,-4.65264 6.04459,-8.23516 1.32164,-4.59205 5.36456,-12.04291 8.17214,-15.0608 1.33978,-1.44013 5.85253,-5.31785 6.18872,-5.31785 1.94796,0 2.5342,11.65302 0.98201,19.52 -0.11609,0.58842 -0.0781,0.67305 0.14372,0.32 0.74875,-1.19183 1.78898,-7.92774 1.80373,-11.68 0.0177,-4.51005 -0.33459,-5.58101 -3.91443,-11.89836 l -2.14293,-3.781643 -0.16377,-4.007706 c -0.15842,-3.876923 -0.19885,-4.062377 -1.23905,-5.683008 l -1.07529,-1.675302 2.99529,-5.356992 2.99529,-5.356991 v -2.4 c 0,-7.507883 -16.5629,-20.124215 -26.45903,-20.154443 -3.411343,-0.01042 -7.584854,3.451656 -26.818734,22.247092 -3.609231,3.526958 -7.786238,7.394363 -9.282238,8.594234 -3.508838,2.814275 -3.382586,2.455869 -2.410188,6.842039 2.986913,13.473 10.876729,28.79647 18.337892,35.61556 5.544147,5.06703 21.304908,9.62245 25.842278,7.46933 z m -8.695305,-2.06627 C 87.902604,130.72197 81.626637,125.30019 72.002741,108.96 c -1.021579,-1.73452 -0.790715,-1.47656 2.004765,2.24 6.972613,9.27002 16.626159,16.98688 26.279004,21.00696 2.93372,1.22179 2.82205,1.52486 -0.331835,0.90058 z m 4.334525,-0.62824 c -0.80893,-0.13869 -2.10493,-0.55711 -2.88,-0.92982 -0.77506,-0.3727 -1.1212,-0.58565 -0.7692,-0.47322 3.18405,1.01698 7.69885,0.29431 10.48,-1.67752 1.72404,-1.22235 1.86795,-1.09936 0.7091,0.60603 -1.40008,2.0604 -4.33582,3.02389 -7.5399,2.47453 z m 4.99817,-17.7593 c 0.56078,-6.87427 2.61375,-13.45189 5.13298,-16.445833 1.17012,-1.390613 0.88764,-1.503486 -2.17797,-0.870249 -8.21531,1.696973 -8.46148,1.704375 -16.242382,0.488435 -5.53829,-0.865482 -6.777741,-1.265549 -12.8,-4.131552 -5.503776,-2.619255 -8.244644,-3.646327 -10.722122,-4.017848 -0.807094,-0.121031 -1.395277,-0.292223 -1.307073,-0.380427 0.275275,-0.275275 5.225225,0.563053 7.067902,1.197027 l 1.75595,0.604135 2.162671,-0.744808 c 1.18947,-0.409645 4.898672,-1.786715 8.242672,-3.060156 l 6.08,-2.315347 4.000002,-0.154432 c 8.69191,-0.335579 15.80046,3.641186 17.78985,9.952247 l 0.53412,1.69442 -1.77454,2.591113 c -3.50949,5.124425 -5.82568,9.956365 -7.14407,14.903635 l -0.78072,2.92964 z m 5.27648,-8.38495 c -0.007,-0.65288 0.71623,-2.08099 2.19397,-4.33505 2.44159,-3.724259 1.93605,-2.534869 -1.46212,3.44 -0.4004,0.704 -0.72973,1.10677 -0.73185,0.89505 z m -16.323853,-6.03923 c -3.61457,-0.617164 -11.052854,-2.629634 -10.768904,-2.913584 0.06325,-0.06325 1.44571,0.241112 3.072125,0.676369 4.538879,1.214684 9.34881,1.872489 12.566822,1.718634 1.90874,-0.09126 2.65401,-0.03541 2.2848,0.17121 -0.58039,0.324801 -5.80222,0.578331 -7.154843,0.347371 z M 77.279998,92.280953 c -1.232,-0.607223 -1.88,-1.008198 -1.44,-0.891056 0.960536,0.255725 3.84,1.677079 3.84,1.895491 0,0.194596 0.216918,0.285379 -2.4,-1.004435 z m 1.676082,-2.26321 c -0.685232,-0.17763 -0.415992,-0.737745 0.354624,-0.737745 0.304115,0 2.275616,-0.491088 4.381115,-1.091307 4.881939,-1.391703 4.940851,-1.276169 0.231549,0.454094 -4.357491,1.601002 -4.230691,1.565903 -4.967288,1.374958 z m 43.94714,-0.9409 c -0.74071,-0.941668 -0.81241,-1.266873 -0.34322,-1.556845 0.176,-0.108774 0.32,0.06669 0.32,0.389912 0,0.323226 0.22416,0.907725 0.49814,1.298886 0.69559,0.993097 0.33019,0.891571 -0.47492,-0.131953 z M 86.079998,68.729461 c 0,-0.315082 7.501801,-7.012609 9.76,-8.713622 5.154442,-3.882641 7.694962,-4.455234 12.320002,-2.776732 l 1.76,0.638733 -1.48837,-0.17808 c -4.45778,-0.533367 -13.350818,3.492533 -19.631632,8.887293 -2.524415,2.168287 -2.72,2.32234 -2.72,2.142408 z M 121.12,66.514008 c -3.04254,-2.3489 -8.0477,-5.119603 -11.76714,-6.513924 -2.20912,-0.828143 -1.68172,-0.897534 1.23424,-0.162393 4.5613,1.149946 10.38996,4.682494 11.66882,7.07206 0.42258,0.789601 0.38044,0.774919 -1.13592,-0.395743 z M 54.239999,90.742084 c 3.727139,-0.999724 6.43459,-2.426415 10.031588,-5.286141 2.01491,-1.601916 1.893745,-1.879047 -0.934277,-2.136912 -3.030602,-0.276336 -19.817311,6.143723 -19.817311,7.57911 0,0.767109 7.695968,0.655074 10.72,-0.156057 z m -4,-4.790674 c 3.08,-1.463019 6.035991,-2.828806 6.56887,-3.035083 1.576121,-0.610115 1.922143,-1.487848 0.774022,-1.963415 -1.049781,-0.434834 -1.194515,-0.787884 -0.441462,-1.076858 1.010652,-0.387824 0.43962,-1.95624 -0.711686,-1.954741 -1.675441,0.0022 -0.926465,-0.366339 2.366244,-1.164268 2.238268,-0.542403 4.049461,-0.757047 6.388068,-0.757047 3.975061,0 5.136287,0.592577 1.792457,0.914695 -2.496656,0.240508 -5.663019,1.107738 -4.176514,1.143898 1.071967,0.02608 1.165537,0.745896 0.16,1.230849 l -0.72,0.347243 0.72,0.02166 c 0.904602,0.02721 0.925118,0.697031 0.0457,1.492062 l -0.6743,0.609596 1.2343,0.221558 c 2.179949,0.391304 3.297763,0.274967 4.434826,-0.461558 1.291979,-0.836871 1.407896,-1.191348 0.399473,-1.221598 -0.396,-0.01188 -0.03591,-0.205641 0.800196,-0.430581 1.466259,-0.394473 2.981211,-1.393081 2.636437,-1.737855 -0.09201,-0.09201 0.279665,-0.355221 0.825943,-0.584914 0.546279,-0.229692 0.93439,-0.594155 0.862469,-0.809916 -0.07192,-0.215762 0.302947,-0.613433 0.833039,-0.883715 1.131849,-0.577103 1.464192,-1.277387 0.628583,-1.324494 -0.322667,-0.01819 -0.05859,-0.173674 0.586834,-0.345521 3.4533,-0.919454 2.3845,-1.381406 -3.196107,-1.381406 -2.935566,0 -6.106669,-0.123338 -7.046895,-0.274085 -2.060408,-0.330347 -1.955908,0.559284 0.199382,1.697367 0.654565,0.345638 0.9926,0.634797 0.751187,0.642575 -0.893859,0.0288 -7.275448,1.015844 -8.249994,1.27603 l -1.008927,0.269365 0.64211,-1.088296 c 0.353161,-0.598562 0.879178,-1.226715 1.168927,-1.395895 1.22863,-0.717377 -0.421227,-0.234476 -3.318213,0.971217 -7.981637,3.321868 -19.35497,9.639538 -19.35497,10.751318 0,0.804953 0.894207,0.433117 4.802064,-1.996828 4.088539,-2.542296 8.912808,-5.084562 9.166735,-4.830635 0.149849,0.149848 -1.549744,1.216046 -5.968799,3.744381 -2.884878,1.650564 -5.028786,3.277224 -4.535872,3.441528 0.197184,0.06573 1.694422,-0.662698 3.327194,-1.618725 4.859502,-2.845354 6.035783,-3.314582 2.568678,-1.024665 -2.687738,1.775169 -5.583412,4.038602 -5.400588,4.221426 0.0872,0.0872 0.63665,-0.206108 1.22099,-0.651806 2.2046,-1.681531 3.173684,-1.73142 1.559556,-0.08029 -1.334899,1.365501 -1.66906,2.508836 -0.396723,1.357386 0.809983,-0.733024 1.110873,-0.665139 0.673571,0.151966 -0.563242,1.052428 0.621905,0.647727 7.063194,-2.411925 z M 45.83238,85.256426 c 0.303809,-0.318083 0.640142,-0.490571 0.747407,-0.383307 0.107264,0.107264 -0.141308,0.367514 -0.552381,0.578333 -0.714514,0.366438 -0.723097,0.357855 -0.195026,-0.195026 z"
     id="path1"
     transform="translate(-31.361571,-52.177091)" />
</svg>
