<?xml version="1.0" encoding="UTF-8" standalone="no"?>
<!-- Created with Inkscape (http://www.inkscape.org/) -->

<svg
   version="1.1"
   id="svg1"
   width="106.65005"
   height="116.05418"
   viewBox="0 0 106.65005 116.05419"
   sodipodi:docname="Icon_imp.svg"
   inkscape:version="1.4.2 (ebf0e940d0, 2025-05-08)"
   xmlns:inkscape="http://www.inkscape.org/namespaces/inkscape"
   xmlns:sodipodi="http://sodipodi.sourceforge.net/DTD/sodipodi-0.dtd"
   xmlns="http://www.w3.org/2000/svg"
   xmlns:svg="http://www.w3.org/2000/svg">
  <defs
     id="defs1" />
  <sodipodi:namedview
     id="namedview1"
     pagecolor="#505050"
     bordercolor="#eeeeee"
     borderopacity="1"
     inkscape:showpageshadow="0"
     inkscape:pageopacity="0"
     inkscape:pagecheckerboard="0"
     inkscape:deskcolor="#505050"
     inkscape:zoom="4.2301186"
     inkscape:cx="51.653399"
     inkscape:cy="55.790399"
     inkscape:window-width="1838"
     inkscape:window-height="1011"
     inkscape:window-x="40"
     inkscape:window-y="47"
     inkscape:window-maximized="1"
     inkscape:current-layer="svg1" />
  <path
     style="fill:#66090b"
     d="m 46.978637,115.45468 c -0.08353,-0.40591 -0.242492,-2.89326 -0.353254,-5.52744 -0.346609,-8.24317 -0.07852,-7.74025 -4.532306,-8.50223 C 26.279636,98.719564 16.712412,84.860604 15.592534,63.036674 15.156383,54.537052 14.787059,53.138062 11.471193,47.425118 8.6653806,42.590952 8.3637726,42.505877 6.9492686,46.149614 5.3279426,50.32612 4.0708456,48.891186 3.1007596,41.756672 2.6466956,38.417253 0.38703962,25.388501 0.07827262,24.329577 -0.68903838,21.69807 4.2964476,23.377362 10.149269,27.721852 c 1.056,0.783859 3.072,2.140718 4.48,3.015244 4.516136,2.805027 9.8011,7.740532 7.732712,7.2214 -7.643933,-1.918505 -9.510233,0.308745 -5.536155,6.606872 2.627776,4.164505 3.724769,7.299299 3.888302,11.111304 0.448787,10.461362 6.589705,24.387162 12.51062,28.370412 5.16026,3.47152 10.554237,4.94864 12.317937,3.37322 l 1.086583,-0.97058 0.16,-9.61123 c 0.168551,-10.12491 0.255346,-10.68146 1.55715,-9.98476 l 0.66586,0.35636 -0.595909,-1.3902 C 46.89521,62.271174 46.893825,62.121554 48.08403,29.916672 48.508965,18.418647 47.537645,17.564448 39.729375,22.569424 l -2.150676,1.378548 2.22716,-4.66482 c 2.927427,-6.13154 3.860339,-7.425912 6.263409,-8.690196 0.598092,-0.314664 0.72,-0.6459366 0.72,-1.9565306 0,-1.363014 0.232835,-1.938509 1.710877,-4.228741 0.940982,-1.458056 1.98003,-3.119011 2.308994,-3.69101103 1.352496,-2.35170597 3.930298,1.17930003 6.713411,9.19584803 0.39795,1.1462826 1.3669,3.4521516 2.15322,5.1241516 1.17111,2.490228 4.0735,9.91799 4.0735,10.424876 0,0.46898 -0.86786,-0.06414 -2.17164,-1.334022 -2.08282,-2.028663 -3.78008,-3.069096 -4.812053,-2.949824 l -0.85631,0.09897 -0.08148,33.14796 -0.08148,33.147961 0.816537,0.37204 c 2.853586,1.30018 7.879186,-0.51111 11.915546,-4.29452 6.69267,-6.27325 8.54891,-9.73642 11.76784,-21.95518 2.36764,-8.987319 3.8442,-12.381847 6.78705,-15.602993 4.02452,-4.40511 5.19675,-6.463409 4.15599,-7.297455 C 90.34462,38.1176 86.82379,37.3127 83.94551,37.138484 l -3.00377,-0.181811 3.83264,-2.474906 c 4.20903,-2.717961 6.06519,-3.622274 14.73307,-7.177873 7.76701,-3.186059 8.17344,-2.806027 6.01645,5.625713 -0.85602,3.346194 -2.15803,11.943181 -2.56683,16.948382 -0.31759,3.888521 -0.5651,4.375598 -1.27666,2.512405 l -0.56899,-1.489898 -0.89849,0.464623 -0.89848,0.464622 -0.20708,-1.836534 c -0.62473,-5.54058 -1.41069,-5.740513 -5.09583,-1.296274 -4.23125,5.102842 -5.78522,9.618104 -7.86276,22.846181 -1.57199,10.00916 -4.44587,16.49962 -9.87655,22.30555 -3.68508,3.93971 -12.14954,7.708666 -17.70018,7.881336 -0.51024,0.0159 -1.32687,0.46961 -2.017509,1.12097 l -1.160296,1.0943 0.225477,5.6257 0.225477,5.6257 -1.727965,0.002 c -0.950381,9.8e-4 -2.231965,0.13228 -2.847965,0.29178 -2.944138,0.76232 -4.128467,0.7525 -4.290631,-0.0356 z M 45.657148,94.061514 c -0.179169,-1.80099 -0.29547,-1.90484 -2.133124,-1.90484 -2.665731,0 -10.37937,-4.36169 -13.387936,-7.57023 -2.738591,-2.92062 -5.323071,-6.03062 -6.539972,-7.86977 -1.479699,-2.23634 -1.617763,-2.29336 -0.77481,-0.32 3.822107,8.94757 14.598621,17.91734 22.746326,18.93278 0.1201,0.015 0.160382,-0.55561 0.08952,-1.26794 z M 59.4046,92.499164 c 2.46716,-0.44685 5.97315,-2.0757 7.11873,-3.30728 0.49827,-0.53567 0.68994,-0.89826 0.42594,-0.80574 -0.57274,0.20069 -3.1543,0.95142 -6.24,1.8146 -3.606379,1.00884 -3.74993,1.00041 -4.07476,-0.23916 -0.413329,-1.5773 -0.529741,-1.12731 -0.334147,1.29161 0.148798,1.8402 0.244614,2.09858 0.690832,1.8629 0.284935,-0.1505 1.370975,-0.42812 2.413405,-0.61693 z m 18.76336,-11.88704 c 2.69525,-3.54064 3.77013,-6.5502 5.07712,-14.21545 1.26758,-7.434212 4.44328,-15.867949 7.35019,-19.520002 0.32762,-0.411607 0.18639,-0.354508 -0.39576,0.16 -2.80637,2.480279 -5.78055,8.529025 -7.86722,16.000002 -0.90942,3.256 -2.12895,7.39869 -2.71007,9.20598 -0.88458,2.75108 -0.96004,3.19863 -0.46358,2.74933 0.34949,-0.31628 -0.17501,1.09389 -1.27723,3.43402 -2.88902,6.13361 -2.86396,6.32479 0.28655,2.18612 z"
     id="path1" />
</svg>
