<?xml version="1.0" encoding="UTF-8" standalone="no"?>
<!-- Created with Inkscape (http://www.inkscape.org/) -->

<svg
   version="1.1"
   id="svg1"
   width="107.3968"
   height="117.95159"
   viewBox="0 0 107.39681 117.95159"
   sodipodi:docname="Icon_butler.svg"
   inkscape:version="1.4.2 (ebf0e940d0, 2025-05-08)"
   xmlns:inkscape="http://www.inkscape.org/namespaces/inkscape"
   xmlns:sodipodi="http://sodipodi.sourceforge.net/DTD/sodipodi-0.dtd"
   xmlns="http://www.w3.org/2000/svg"
   xmlns:svg="http://www.w3.org/2000/svg">
  <defs
     id="defs1" />
  <sodipodi:namedview
     id="namedview1"
     pagecolor="#505050"
     bordercolor="#eeeeee"
     borderopacity="1"
     inkscape:showpageshadow="0"
     inkscape:pageopacity="0"
     inkscape:pagecheckerboard="0"
     inkscape:deskcolor="#505050"
     inkscape:zoom="1.3007615"
     inkscape:cx="49.58634"
     inkscape:cy="59.964877"
     inkscape:window-width="1838"
     inkscape:window-height="1011"
     inkscape:window-x="40"
     inkscape:window-y="47"
     inkscape:window-maximized="1"
     inkscape:current-layer="svg1" />
  <path
     style="fill:#0062aa"
     d="m 75.272686,151.92 c -0.179122,-0.22 -0.572952,-1.624 -0.875177,-3.12 -0.771184,-3.81733 -1.229856,-4.54043 -5.458887,-8.60598 -2.494095,-2.39768 -4.546856,-4.74612 -6.135007,-7.01869 -1.312715,-1.87843 -3.236548,-4.30287 -4.275185,-5.38764 -2.745427,-2.86736 -2.647619,-3.72708 0.70694,-6.21392 2.861205,-2.12109 6.35807,-5.92838 7.620549,-8.29704 0.843948,-1.58341 1.213411,-1.95138 2.423126,-2.41338 0.874797,-0.33408 1.761985,-0.99382 2.291781,-1.70423 0.475437,-0.63752 1.35304,-1.71121 1.950227,-2.38597 3.394193,-3.83514 5.804661,-10.66397 8.320938,-23.573152 0.188684,-0.968 0.442831,-2.012 0.564771,-2.32 0.208314,-0.526166 -0.40387,-0.560979 -10.132527,-0.576205 -20.043947,-0.03137 -29.007515,-0.787448 -27.15164,-2.290244 0.770411,-0.623841 102.357835,-0.893633 105.530085,-0.280263 1.64431,0.317935 1.78472,0.432688 1.52618,1.247271 -0.30882,0.973006 -1.07767,1.037217 -14.81154,1.236995 -7.07998,0.102987 -12.79776,0.308474 -12.70619,0.456637 0.0916,0.148163 -0.59573,1.193698 -1.52732,2.323411 -0.9316,1.129713 -2.60609,3.800954 -3.7211,5.936091 -2.36654,4.531684 -3.1123,5.498355 -5.12644,6.644964 -0.81745,0.465358 -2.20627,1.376677 -3.08627,2.025153 -0.88,0.648476 -2.8287,1.839384 -4.33045,2.646462 -3.22569,1.73357 -3.83831,2.26586 -5.84113,5.07517 -0.83341,1.169 -1.90974,2.37604 -2.391853,2.68232 -2.226667,1.41456 -4.367482,3.2672 -5.238776,4.53358 -0.60415,0.8781 -1.543006,1.68469 -2.561966,2.20104 -1.352121,0.68517 -1.73509,1.09184 -2.403843,2.55259 -0.437518,0.95566 -1.007628,1.85629 -1.266912,2.00139 -0.404016,0.2261 -0.38492,0.37534 0.133546,1.04373 1.216232,1.56792 6.830455,12.19436 7.002402,13.25394 0.41277,2.54361 -0.889022,4.24612 -4.527525,5.92121 -3.32766,1.53198 -5.714274,4.29971 -10.006781,11.60476 -0.756687,1.28774 -3.674073,1.80707 -4.494026,0.8 z m 6.266115,-8.91957 c 1.947339,-3.2349 1.876318,-2.84909 0.818673,-4.44729 -1.130116,-1.70773 -2.934195,-1.15286 -6.317922,1.94315 -0.243231,0.22255 1.134332,2.66049 2.854456,5.05167 0.630219,0.87608 0.519868,0.98238 2.644793,-2.54753 z m -3.417637,-0.53628 c -1.25964,-1.96298 -1.314163,-1.74219 0.772188,-3.12703 2.200507,-1.46061 2.570608,-1.26017 0.691462,0.37449 l -1.408348,1.22511 0.618504,1.39823 c 0.855755,1.93458 0.525356,1.99793 -0.673806,0.1292 z m 14.093637,-6.67375 c 1.349173,-1.22098 0.394726,-4.62419 -2.49897,-8.9104 -1.069386,-1.584 -2.322186,-3.62581 -2.784,-4.53736 -0.879961,-1.73689 -1.330301,-2.22289 -1.622176,-1.75063 -0.09601,0.15535 0.125362,0.5537 0.49194,0.88522 1.915521,1.73234 6.684755,13.88277 5.449204,13.88277 -0.750788,0 -4.62698,-1.62571 -6.516211,-2.73296 l -1.975979,-1.15809 0.800858,1.06552 c 1.70373,2.26678 7.386274,4.40441 8.655334,3.25593 z M 81.482068,125.52 c 0.545498,-0.836 1.381188,-2.312 1.857089,-3.28 0.475901,-0.968 1.392415,-2.21981 2.036698,-2.78179 1.257175,-1.09658 1.29722,-1.03957 -1.129991,-1.60867 l -1.354134,-0.3175 -0.206899,1.15398 c -0.243529,1.35828 -0.73808,2.42636 -0.756575,1.63398 -0.0062,-0.264 -0.452464,-1.61442 -0.991781,-3.00094 -1.365289,-3.50998 -1.67746,-7.0236 -0.610169,-6.86772 0.606019,0.0885 0.871821,0.50393 1.433764,2.24081 0.933812,2.88627 1.490977,3.64078 3.404582,4.61047 1.850011,0.93748 1.89526,0.91761 3.131381,-1.37466 0.602109,-1.11655 1.19259,-1.705 2.193025,-2.18547 0.909899,-0.43699 1.714823,-1.18556 2.4,-2.23197 0.603709,-0.92199 1.817688,-2.11099 2.92942,-2.86914 1.044164,-0.71207 2.779091,-2.36534 3.855395,-3.67394 2.374997,-2.88758 5.442887,-5.285107 9.286127,-7.257041 5.70642,-2.927916 6.30036,-3.394916 7.99052,-6.282751 2.37557,-4.058914 3.35296,-5.569377 4.85817,-7.507791 1.63584,-2.106642 1.65488,-2.038821 -0.5006,-1.783536 -2.64931,0.313771 -4.49506,2.134616 -3.85919,3.807105 0.41752,1.098158 0.19651,1.314652 -0.79848,0.782152 -1.21229,-0.648802 -2.92813,1.249284 -2.52452,2.792675 0.26015,0.994827 -0.3923,1.90802 -1.66283,2.327331 -0.74118,0.244611 -2.10548,1.376462 -3.88808,3.225628 -3.01252,3.125009 -3.29499,3.289506 -3.29499,1.918803 0,-0.746772 0.30871,-1.15177 1.56703,-2.055786 1.65924,-1.192043 2.00242,-1.585351 5.3524,-6.134231 2.79176,-3.790881 4.53375,-8.48 3.15029,-8.48 -2.02477,0 -7.2744,5.936011 -6.35799,7.189284 0.62993,0.861483 0.55724,1.211552 -0.1707,0.821975 -1.06325,-0.569037 -1.45434,-0.382953 -3.02938,1.441406 -1.55433,1.800379 -1.58421,1.962232 -0.61062,3.307282 l 0.55008,0.759947 -1.3901,-0.709173 c -2.05949,-1.050677 -3.84487,0.438613 -3.8563,3.216763 -0.003,0.827731 -0.32874,1.563384 -1.16752,2.64 -1.425785,1.830058 -1.431243,1.830268 -1.186613,0.0455 0.171173,-1.248845 0.127255,-1.419741 -0.320683,-1.247851 -0.452307,0.173566 -0.474505,0.07148 -0.172702,-0.794278 0.304026,-0.872129 0.219064,-1.23752 -0.695745,-2.99215 -0.939211,-1.801436 -1.065972,-2.377704 -1.284329,-5.838704 -0.244797,-3.880103 -1.040587,-7.2 -1.725862,-7.2 -1.519716,0 -3.23457,4.644615 -1.848665,5.007038 0.552142,0.144388 0.595908,0.287566 0.315214,1.03121 -0.19719,0.522415 -0.234759,1.836692 -0.0951,3.327018 l 0.230846,2.463477 0.954761,-0.493726 0.95476,-0.493725 -1.141535,1.695082 c -0.627845,0.932295 -1.141535,2.02563 -1.141535,2.429632 0,1.428922 -0.901644,2.814657 -2.963103,4.553995 -2.909767,2.45508 -3.85374,3.93367 -3.626281,5.68 0.09743,0.748 0.119673,1.36 0.04943,1.36 -2.202027,0 -1.421857,-4.34596 1.170297,-6.51918 0.99639,-0.83536 1.209772,-1.150002 0.782986,-1.154558 -0.952659,-0.01017 -0.453817,-0.730547 1.323416,-1.911138 2.390507,-1.587981 2.494569,-3.166017 0.130503,-1.978993 -0.652989,0.327872 -1.935916,0.841009 -2.85095,1.140302 -0.915034,0.299294 -2.397576,1.128493 -3.294537,1.842664 -1.94777,1.550833 -2.369078,1.435603 -0.901494,-0.246574 0.5977,-0.685096 0.830097,-1.128247 0.533037,-1.016429 -0.289681,0.10904 -1.129282,0.378795 -1.86578,0.599456 -1.226829,0.367567 -1.441458,0.604209 -2.560242,2.82282 -0.671635,1.3319 -2.297731,3.89096 -3.613546,5.68681 -5.350372,7.30229 -4.989244,10.82027 1.6183,15.76489 1.051061,0.78654 2.396332,2.11179 2.98949,2.94501 1.326192,1.86292 1.202069,1.86163 2.40054,0.0249 z m -4.457987,-4.59527 C 72.74794,116.62749 72.13471,114.09224 74.207437,109.28 c 0.744018,-1.72739 1.096141,-2.21473 1.538686,-2.12958 0.822069,0.15818 0.824032,0.1786 0.131649,1.36925 -2.241816,3.8551 -1.570348,7.29885 2.445052,12.5399 2.048739,2.67409 1.432758,2.61014 -1.298743,-0.13484 z m 13.535917,-9.70018 c 0,-1.57305 0.689503,-2.60965 2.900743,-4.36098 1.261277,-0.99895 1.264726,-0.99962 0.955331,-0.18585 -0.297542,0.78259 -0.275767,0.80351 0.521085,0.50055 1.343257,-0.51071 1.194564,-0.14815 -0.53215,1.29753 -0.891337,0.74627 -1.990784,1.98851 -2.443218,2.76053 -1.041108,1.77651 -1.401791,1.77348 -1.401791,-0.0118 z m -6.223876,11.94363 c 0.454797,-0.8975 0.747113,-1.71161 0.649591,-1.80913 -0.09752,-0.0975 -0.410855,0.38479 -0.696293,1.07181 -0.285438,0.68703 -0.652395,1.50114 -0.815459,1.80914 -0.163065,0.308 -0.22184,0.56 -0.130613,0.56 0.09123,0 0.537976,-0.73432 0.992774,-1.63182 z m 3.823876,-27.665265 c 0.90982,-0.57845 1.048637,-0.749727 0.48,-0.592239 -0.794305,0.219989 -2.24,1.050053 -2.24,1.286125 0,0.289476 0.561494,0.06811 1.76,-0.693886 z m 0.323897,-1.308693 c 0.746949,-0.286631 0.578822,-2.600136 -0.330988,-4.554557 l -0.800839,-1.720332 -1.614871,0.155169 c -2.508697,0.241054 -2.787263,0.885496 -0.382763,0.885496 1.705146,0 1.990071,0.08707 2.173218,0.664115 0.247765,0.780638 0.329224,0.685018 -1.287654,1.5115 -2.445799,1.250193 -2.554644,1.397118 -1.929952,2.605139 0.549772,1.063142 2.135975,1.235476 4.173849,0.45347 z m 2.59595,-6.994224 c -0.73956,-3.621308 -0.685978,-4.692367 0.280153,-5.6 1.159234,-1.089044 1.010171,-1.28 -0.999183,-1.28 -1.637927,0 -1.75982,0.04748 -1.36,0.52978 0.308236,0.371821 0.416915,1.302081 0.364499,3.12 -0.06451,2.23729 0.374974,5.962871 1.098264,9.31022 0.181787,0.841299 0.265033,0.683031 0.673259,-1.28 0.416891,-2.004698 0.410904,-2.508917 -0.05699,-4.8 z m 9.752145,5.561055 c 2.13193,-1.512548 3.87315,-3.261879 7.44637,-7.481055 4.4034,-5.199447 4.22936,-4.96 3.60511,-4.96 -0.28318,0 -0.71505,0.468 -0.95971,1.04 -0.88028,2.058098 -5.94483,7.570234 -7.28779,7.931856 -1.16617,0.314016 -5.075973,3.535702 -5.075973,4.182612 0,0.551448 0.877568,0.275888 2.271993,-0.713413 z m 0.0341,-2.761055 c 2.72729,-2.625307 6.33387,-8.041049 6.33387,-9.511126 0,-0.09288 -2.78239,-0.168874 -6.18308,-0.168874 h -6.183072 l 1.075735,3.28 c 0.591654,1.804 1.240249,4.468 1.441322,5.92 0.452817,3.269905 0.596556,3.289532 3.515225,0.48 z m 17.03893,-7.68 1.87236,-2 h -2.02987 c -1.71907,0 -1.9448,0.06221 -1.47424,0.406288 0.51288,0.375033 0.51759,0.497326 0.0612,1.589722 -0.41595,0.995504 -0.70869,2.567107 -0.39812,2.137323 0.053,-0.07333 0.93891,-1.033333 1.96871,-2.133333 z m -40.37853,-5.512236 -30.793467,-0.167764 1.713419,-3.52 C 55.39514,58.844877 70.521023,48.547741 88.639998,45.757755 c 5.419867,-0.834559 6.74548,-2.283322 5.298964,-5.791242 -0.252702,-0.612824 1.643806,-0.919265 5.716816,-0.923733 l 2.535782,-0.0028 -0.69578,0.740624 C 100.97115,40.339064 100.8,40.918507 100.8,42.136213 v 1.614965 l 1.80551,0.69093 c 0.99303,0.380011 3.23521,0.905667 4.98262,1.168124 18.50118,2.778835 33.54295,12.675935 40.73433,26.802141 0.96664,1.898806 1.75754,3.662806 1.75754,3.92 0,0.405192 -2.70227,0.468208 -20.24,0.471995 -11.132,0.0024 -20.528,0.0419 -20.88,0.08776 -0.352,0.04587 -14.497063,0.0079 -31.43347,-0.08437 z m 41.30848,-2.028858 c 0.76768,-0.503005 2.26835,-3.78881 2.04138,-4.469721 -0.0592,-0.177504 -0.60456,0.110805 -1.21198,0.640686 -0.60743,0.529882 -2.07956,1.68988 -3.27142,2.577774 -1.32268,0.98536 -2.00842,1.684845 -1.76,1.795276 0.73826,0.328169 3.39604,-0.01592 4.20202,-0.544015 z M 147.2,75.015783 c 0,-0.101318 -0.86589,-1.882598 -1.9242,-3.958399 l -1.92419,-3.774184 -4.04148,-3.321601 c -8.26208,-6.790415 -9.28306,-7.353947 -4.8584,-2.681601 1.53453,1.620443 3.2324,4.832899 3.63626,6.88 l 0.22096,1.12 -1.19729,-1.52 c -1.53887,-1.953663 -1.87714,-1.913861 -2.71962,0.32 -2.80855,7.446987 -3.56514,6.456919 5.1711,6.766857 3.93627,0.139648 7.26486,0.276234 7.39686,0.303524 0.132,0.02729 0.24,-0.03328 0.24,-0.134596 z M 129.10359,69.36632 c 0.27302,-0.389799 0.48167,-1.144685 0.46365,-1.677524 l -0.0327,-0.968798 -0.25211,1.065816 c -0.13866,0.586199 -0.66392,1.504863 -1.16725,2.041475 -0.76539,0.816007 -0.8,0.916104 -0.21154,0.611708 0.38697,-0.200173 0.92697,-0.682877 1.2,-1.072677 z m 0.23092,-10.110562 c -0.76968,-2.568974 -4.86563,-6.456516 -7.70202,-7.310146 l -1.46301,-0.440299 3.63013,3.565498 c 3.36817,3.308205 3.92473,4.070249 5.00228,6.849187 0.46857,1.208398 0.95855,-1.242597 0.53262,-2.66424 z M 112.40609,49.070099 c -0.21665,-0.08765 -0.64865,-0.09299 -0.96,-0.01186 -0.31135,0.08113 -0.13409,0.152852 0.39391,0.159373 0.528,0.0065 0.78274,-0.05986 0.56609,-0.147516 z m -5.24732,-1.726511 -1.48123,-0.968883 -2.35877,0.557745 -2.35877,0.557744 2.55996,0.246838 c 1.40798,0.135761 2.77598,0.305763 3.04,0.377782 1.80284,0.491775 2.04765,0.176471 0.59881,-0.771226 z M 91.359998,38.764883 c -0.86975,-0.202662 -0.956316,-0.338469 -0.920813,-1.444586 0.0767,-2.389478 0.591675,-2.584338 7.165509,-2.711312 l 5.747556,-0.111014 0.32388,0.851846 c 0.99502,2.617112 0.62807,2.88969 -4.316133,3.206068 -6.326456,0.404829 -7.075573,0.4244 -7.999999,0.208998 z M 102.7151,36.879999 c -0.018,-0.882702 -0.74238,-1.19298 -3.058069,-1.309917 -3.264608,-0.164855 -3.293156,0.651905 -0.0327,0.935433 1.173349,0.102034 2.229879,0.282034 2.347849,0.4 0.28832,0.288316 0.749,0.272493 0.74292,-0.02552 z"
     id="path1"
     transform="translate(-44.884004,-34.497971)" />
</svg>
