<?xml version="1.0" encoding="UTF-8" standalone="no"?>
<!-- Created with Inkscape (http://www.inkscape.org/) -->

<svg
   version="1.1"
   id="svg1"
   width="79.950546"
   height="123.29588"
   viewBox="0 0 79.950548 123.29589"
   sodipodi:docname="Icon_drunk.svg"
   inkscape:version="1.4.2 (ebf0e940d0, 2025-05-08)"
   xmlns:inkscape="http://www.inkscape.org/namespaces/inkscape"
   xmlns:sodipodi="http://sodipodi.sourceforge.net/DTD/sodipodi-0.dtd"
   xmlns="http://www.w3.org/2000/svg"
   xmlns:svg="http://www.w3.org/2000/svg">
  <defs
     id="defs1" />
  <sodipodi:namedview
     id="namedview1"
     pagecolor="#505050"
     bordercolor="#eeeeee"
     borderopacity="1"
     inkscape:showpageshadow="0"
     inkscape:pageopacity="0"
     inkscape:pagecheckerboard="0"
     inkscape:deskcolor="#505050"
     inkscape:zoom="1.3007615"
     inkscape:cx="33.44195"
     inkscape:cy="64.577559"
     inkscape:window-width="1838"
     inkscape:window-height="1011"
     inkscape:window-x="40"
     inkscape:window-y="47"
     inkscape:window-maximized="1"
     inkscape:current-layer="svg1" />
  <path
     style="fill:#0064ac"
     d="m 88.639998,153.11904 c -0.616,-0.2235 -2.488,-0.55679 -4.16,-0.74064 -1.672,-0.18386 -3.76,-0.62838 -4.64,-0.98784 -0.88,-0.35946 -3.382003,-0.93603 -5.560006,-1.28127 -7.973074,-1.26384 -12.422356,-5.80855 -10.288611,-10.50929 0.339529,-0.748 0.742069,-1.36 0.894533,-1.36 0.699381,0 1.581138,-4.24925 2.324104,-11.2 0.197533,-1.848 0.487954,-3.60343 0.645382,-3.90096 0.967099,-1.82773 1.455991,-13.22796 0.930551,-21.69904 -0.201961,-3.256003 -0.533421,-9.592002 -0.736578,-14.080002 -0.306741,-6.776332 -0.423636,-7.915823 -0.689375,-6.72 -0.273716,1.231723 -0.434342,1.44 -1.110549,1.44 -1.379163,0 -2.043237,-2.257663 -1.241035,-4.219168 0.509401,-1.245563 0.343343,-2.405932 -0.430828,-3.010519 -0.433767,-0.338749 -0.586499,-0.718121 -0.455402,-1.131172 0.146686,-0.462166 -0.04483,-0.764487 -0.747092,-1.179322 -2.67148,-1.578082 -3.302392,-5.817851 -1.121071,-7.533678 l 0.798594,-0.628174 -0.690547,-1.17039 c -2.602019,-4.410094 6.5321,-9.225479 10.958291,-5.777064 2.48682,1.937463 3.462279,2.122049 7.760764,1.468564 3.116433,-0.473782 3.776533,-0.495179 4.077793,-0.132183 0.782714,0.943113 2.090945,0.51727 2.958443,-0.963005 1.299758,-2.217869 2.852428,-3.404112 4.453773,-3.402692 1.347146,0.0012 3.428866,0.965297 3.428866,1.588003 0,0.51671 1.560636,0.761834 2.084155,0.327352 0.261714,-0.217204 0.478049,-0.773284 0.480745,-1.235734 0.0036,-0.609599 0.08245,-0.71835 0.286913,-0.395467 0.233305,0.36843 0.439718,0.33325 1.195099,-0.203685 1.87871,-1.335408 5.32225,-1.551825 6.04648,-0.380003 1.25175,2.025381 3.25297,2.09077 5.53688,0.180914 2.67533,-2.237158 5.15255,-1.226536 4.20973,1.717424 -0.16646,0.519766 -0.26738,0.60642 -0.28811,0.247377 -0.0808,-1.399374 -1.54,-1.706504 -3.49795,-0.736227 -1.94639,0.964543 -1.88147,1.326993 0.1557,0.869272 1.54636,-0.347444 2.17611,-0.119776 3.69682,1.336465 1.1067,1.059792 1.28954,1.123989 2.72,0.955012 1.29137,-0.152548 1.6298,-0.07462 2.14313,0.493473 0.33528,0.371045 0.88378,0.674627 1.21889,0.674627 0.33511,0 0.51884,0.146349 0.40829,0.32522 -0.11055,0.178871 -0.34568,0.235803 -0.52251,0.126514 -0.17683,-0.109288 -0.1389,0.09369 0.0843,0.451071 0.32091,0.513849 0.32469,0.827781 0.0181,1.500705 -0.34081,0.747999 -0.29507,0.961026 0.37814,1.761083 0.50625,0.601646 0.84215,1.520906 0.99096,2.711983 0.29005,2.321485 2.0404,4.544607 4.97428,6.317828 5.13358,3.102715 6.07758,4.177011 9.39784,10.69495 2.13579,4.192736 2.66552,6.308823 2.95159,11.790646 l 0.21709,4.159999 -1.35351,4.480003 c -1.86952,6.18798 -5.05515,11.65488 -10.73491,18.42236 -0.97045,1.1563 -2.17631,2.7403 -2.67968,3.52 -0.50337,0.7797 -1.43794,1.91388 -2.07682,2.52041 -1.43438,1.36174 -1.44976,1.61723 -0.0974,1.61723 0.72141,0 1.30631,-0.2577 1.81578,-0.8 0.91786,-0.97703 1.77702,-1.02508 2.25803,-0.12631 0.6597,1.23266 0.0852,2.72188 -1.61501,4.1864 l -1.57032,1.35264 1.58365,1.67448 c 2.17227,2.29686 0.44111,6.10522 -3.81535,8.39335 -0.99055,0.53249 -2.51672,1.56445 -3.39149,2.29326 -0.87478,0.7288 -2.16756,1.61949 -2.87285,1.9793 -0.7053,0.35982 -1.78957,0.9843 -2.40951,1.38774 -0.61993,0.40345 -1.84715,0.8345 -2.72715,0.95789 -0.88,0.12339 -1.98885,0.42165 -2.46411,0.6628 -0.47526,0.24114 -1.77126,0.44095 -2.88,0.444 -1.10874,0.003 -3.02384,0.21906 -4.25577,0.48 -2.806561,0.59448 -11.315466,0.5902 -12.960122,-0.007 z M 100.48,147.56983 c 5.82933,-0.27569 12.55224,-1.31291 13.28,-2.04886 0.21538,-0.21781 0.0119,-0.25067 -0.62247,-0.10051 -4.43479,1.04975 -22.438981,1.39767 -25.623179,0.49516 -1.581559,-0.44827 -4.077705,-0.82035 -6.554353,-0.977 -5.262031,-0.33282 -9.237408,-0.82657 -9.703987,-1.20525 -1.325365,-1.07566 -4.16943,-2.30838 -4.41872,-1.91523 -0.427316,0.67391 -0.319832,1.22186 0.239675,1.22186 0.284332,0 1.050838,0.58404 1.703347,1.29788 1.158723,1.26762 1.245066,1.30148 3.703927,1.45229 1.384651,0.0849 3.11357,0.28798 3.842042,0.45123 0.728472,0.16326 3.04107,0.5148 5.139105,0.7812 2.098036,0.26641 4.246611,0.62622 4.774611,0.79958 0.957379,0.31433 3.03713,0.27748 14.240002,-0.25235 z m -1.039009,-10.32036 c 1.426619,-0.28453 2.317849,-0.91031 2.319199,-1.62844 1e-4,-0.0556 -3.707899,-0.0509 -8.240003,0.0104 -9.115254,0.1233 -16.720189,-0.52706 -16.720189,-1.42987 0,-0.3231 0.482784,-0.44159 1.799182,-0.44159 2.260042,0 1.972413,-0.53067 -1.054747,-1.94598 -1.941468,-0.90771 -2.239684,-1.28075 -1.845354,-2.30836 0.153785,-0.40075 0.451621,-0.38185 2.10851,0.13383 1.061186,0.33028 2.3846,0.59025 2.940919,0.57771 0.80199,-0.0181 0.598092,-0.14104 -0.984442,-0.59366 -1.795883,-0.51365 -2.731451,-1.00788 -5.59111,-2.9536 -1.418817,-0.96537 -3.038207,-0.82138 -2.362384,0.21006 0.516352,0.78805 0.510719,0.8 -0.377188,0.8 -0.842359,0 -0.924873,0.12046 -1.260392,1.84 -0.6668,3.41736 -0.361192,4.07671 0.821258,1.77188 l 0.588266,-1.14665 0.185231,2.04276 c 0.195015,2.15066 1.176728,3.48656 2.564999,3.49042 0.315012,8.7e-4 1.107012,0.26695 1.76,0.59128 1.118995,0.5558 3.065823,1.13838 4.867252,1.45652 1.464778,0.25868 16.773656,-0.13623 18.480993,-0.47674 z M 69.689247,134.4327 c -0.04909,-0.25282 -0.305249,-0.53102 -0.569249,-0.61823 -0.401524,-0.13263 -0.412063,-0.0762 -0.06446,0.345 0.279237,0.33838 0.305478,0.57157 0.08,0.71092 -0.184546,0.11406 -0.330959,0.45088 -0.325362,0.74849 0.0088,0.46864 0.07435,0.45622 0.489249,-0.0927 0.26349,-0.3486 0.43891,-0.84067 0.389823,-1.09349 z m 27.57005,-0.46269 c 0.454655,-0.69286 1.121191,-1.25872 1.6,-1.35835 4.254763,-0.88528 3.350093,-1.42607 -1.999153,-1.19503 -4.380865,0.18921 -6.684437,0.74337 -3.090103,0.74337 1.77001,0 2.010326,0.25133 2.048599,2.14255 0.02637,1.30282 0.428427,1.21001 1.440657,-0.33254 z M 102.88,125.80899 c 2.464,-0.56167 4.78124,-1.0875 5.14942,-1.16851 0.36819,-0.081 1.66419,-0.88793 2.88,-1.79315 1.21582,-0.90522 1.94752,-1.55647 1.62601,-1.44721 -10.12896,3.44204 -33.552661,3.24406 -39.652475,-0.33515 -0.375402,-0.22027 -1.315591,2.01994 -1.092135,2.60226 0.391987,1.0215 3.054095,1.82982 8.018129,2.43461 2.657077,0.32372 5.263049,0.65214 5.791049,0.72983 3.585626,0.52753 12.89683,-0.0235 17.280002,-1.02268 z m 19.36274,-6.72452 c 0.52325,-0.65112 2.27371,-2.33149 3.88992,-3.73416 4.12418,-3.57929 4.33474,-3.82643 5.85342,-6.87031 3.93535,-7.88758 2.97042,-16.948121 -2.34255,-21.996287 -4.30182,-4.087418 -7.29616,-5.280302 -8.24268,-3.283715 -2.85238,6.016825 -3.19798,11.429411 -2.16006,33.829182 l 0.2108,4.54918 0.91989,-0.65502 c 0.50594,-0.36026 1.348,-1.18775 1.87126,-1.83887 z m -32.729409,-0.87781 c -0.106333,-0.10633 -0.382333,-0.1177 -0.613333,-0.0253 -0.255275,0.10215 -0.179449,0.17798 0.193333,0.19333 0.337333,0.0139 0.526333,-0.0617 0.42,-0.16807 z M 74.618168,117.2 c 0.262549,-0.308 0.932091,-2.41631 1.487872,-4.68514 1.363819,-5.56742 1.367752,-5.57 6.882108,-4.51481 1.379482,0.26397 3.827482,0.4582 5.44,0.43163 l 2.93185,-0.0483 -3.36,-0.23001 c -1.848,-0.1265 -3.936,-0.38593 -4.64,-0.57652 -0.704,-0.19058 -2.339907,-0.56491 -3.635349,-0.83183 -2.923116,-0.6023 -5.09727,-3.08065 -2.684651,-3.06027 1.27737,0.0108 4.668784,1.0063 6.237808,1.83104 2.767064,1.45448 10.276769,1.12155 20.722194,-0.91869 2.25438,-0.44033 4.87954,-1.35065 5.82259,-2.01908 0.87642,-0.62119 1.26738,-0.65574 -7.42259,0.65583 -9.233446,1.39359 -26.255149,0.01 -25.845428,-2.10084 0.12281,-0.6327 4.229006,-0.63098 11.765426,0.005 6.656851,0.56169 9.380913,0.55757 11.199999,-0.0169 l 1.440003,-0.45478 -2.080003,-0.24628 c -1.144,-0.13545 -5.319999,-0.38675 -9.279999,-0.558445 -7.385567,-0.320212 -8.991145,-0.528277 -12.32,-1.596537 -4.908096,-1.575053 -4.84718,-1.582483 -4.340544,0.529413 0.252298,1.051695 0.329172,4.215969 0.239477,9.857269 -0.15292,9.61779 -0.04067,10.28447 1.439237,8.54837 z M 97.426004,95.992926 c 5.233456,-0.433533 5.404846,-0.921838 0.250189,-0.712774 -3.021847,0.12256 -4.865403,0.03214 -6.827869,-0.334898 -3.316491,-0.620274 -11.041485,-1.009376 -11.313137,-0.569833 -0.106136,0.171732 0.279027,0.38971 0.855918,0.484397 0.576891,0.09469 2.488893,0.40492 4.248893,0.689408 1.76,0.284489 3.26,0.574294 3.333333,0.644012 0.245323,0.233228 5.585107,0.120072 9.452673,-0.200312 z M 75.039998,93.439998 c -0.704,-0.325895 -1.468498,-0.603215 -1.698885,-0.616268 -0.759046,-0.043 -0.05001,0.600232 0.994639,0.90234 1.700223,0.491696 2.064626,0.343672 0.704246,-0.286072 z m 61.925572,-3.52 c -0.62241,-3.990015 -1.42061,-6.064032 -3.63303,-9.44 -2.96136,-4.5188 -2.94025,-4.492766 -4.11298,-5.070419 -0.58276,-0.287052 -1.70098,-1.013471 -2.48494,-1.614264 l -1.42538,-1.092351 -0.5862,1.309318 c -0.5373,1.200117 -0.54275,1.333631 -0.0653,1.600831 4.38614,2.454609 10.58208,11.707841 12.35019,18.444213 0.27666,1.054056 0.24218,-2.313227 -0.0424,-4.137328 z M 111.38103,86.708739 C 111.73097,86.521457 112,86.041209 112,85.603796 c 0,-1.536149 0.65381,-2.403798 1.81136,-2.403798 0.58775,0 1.06864,-0.148339 1.06864,-0.329642 0,-0.551392 -1.63361,-4.276394 -2.11187,-4.815555 -0.60871,-0.686216 -0.56332,-0.934803 0.17068,-0.934803 1.33756,0 5.42365,-4.854162 4.55688,-5.41345 -0.15901,-0.102602 -0.38977,-1.005125 -0.51281,-2.005607 -0.20563,-1.672112 -0.29816,-1.835412 -1.1455,-2.021517 -1.29952,-0.285422 -3.19738,-2.469958 -3.19738,-3.680348 0,-1.209723 0.1994,-1.201512 1.50289,0.06188 1.64605,1.595409 3.73029,1.825516 5.07684,0.560498 1.22207,-1.14807 2.26873,-2.95197 1.8029,-3.107247 -0.21045,-0.07015 -0.38263,-0.299976 -0.38263,-0.510723 0,-0.654601 -1.82821,-1.179667 -2.26692,-0.651062 -0.92489,1.114425 -2.85308,-0.102301 -2.85308,-1.800348 0,-1.145245 -1.33751,-1.903074 -2.3027,-1.304707 -0.39353,0.243966 -0.91506,0.205069 -1.89738,-0.141513 -1.46793,-0.517917 -1.43205,-0.536224 -2.37985,1.21414 -0.64207,1.185756 -0.87665,1.107491 -0.71934,-0.239999 0.0719,-0.616 0.0202,-1.12 -0.11482,-1.12 -0.13506,0 -0.98866,-0.72 -1.89688,-1.6 -2.22893,-2.159676 -5.77302,-1.941006 -5.18183,0.319718 0.13352,0.510548 0.01,0.640282 -0.60954,0.640282 -2.782881,0 -2.833689,3.837438 -0.0661,4.993802 3.28674,1.373287 7.40597,-0.516226 6.16805,-2.829313 -0.20032,-0.374288 -0.18783,-0.564489 0.0371,-0.564489 1.50184,0 0.83902,2.879104 -0.85008,3.692557 -4.12867,1.988314 -8.746583,0.786773 -8.746583,-2.275783 0,-1.476339 -0.08875,-1.736774 -0.591846,-1.736774 -0.325515,0 -1.225515,-0.42938 -2,-0.954177 -2.152255,-1.458387 -4.768153,-0.649718 -4.768153,1.474008 0,0.2589 -0.381028,0.823852 -0.846728,1.255448 l -0.846727,0.78472 h 1.166727 c 0.846052,0 1.166728,0.137856 1.166728,0.501564 0,0.522403 1.098732,0.385357 1.744,-0.21753 0.964897,-0.901524 1.087141,0.244956 0.152774,1.432812 -0.782527,0.994822 -2.028165,1.105289 -3.424814,0.303723 -0.900745,-0.516957 -0.976082,-0.510974 -1.808237,0.1436 -0.923382,0.726332 -1.687499,0.627794 -3.166856,-0.408388 -0.964623,-0.675649 -1.37882,-0.58933 -0.711328,0.14824 0.401508,0.443661 0.528979,0.998917 0.441034,1.92111 -0.14434,1.513545 -0.293042,1.437687 3.733427,1.904559 5.267433,0.610764 6.056917,0.622706 9.534358,0.144222 3.933964,-0.541301 5.495124,-0.433933 2.625641,0.180578 -1.056,0.226147 -2.208,0.529233 -2.559999,0.673524 -0.352,0.144291 -2.253922,0.347703 -4.226493,0.452027 -1.97257,0.104323 -3.843744,0.288396 -4.158163,0.40905 -0.637244,0.244533 3.986159,1.015031 6.224656,1.03735 1.265797,0.01262 1.360339,0.07451 1.3649,0.893559 0.0068,1.223033 0.521456,2.028493 0.812122,1.271032 0.253369,-0.66027 2.979504,-0.786506 3.59934,-0.16667 0.21661,0.216608 1.01301,0.345702 1.82475,0.295784 1.06355,-0.0654 1.49014,0.04106 1.63053,0.406935 0.2581,0.672598 2.23621,1.020954 2.8596,0.50359 0.8677,-0.720131 0.93776,0.0058 0.083,0.860502 -0.97049,0.97049 -2.69688,0.866227 -3.79213,-0.229021 -0.58428,-0.584276 -0.62215,-0.586913 -0.62215,-0.04331 0,0.912636 0.71569,1.612568 1.76,1.721252 0.95641,0.09954 0.95959,0.106655 0.85135,1.907413 -0.0598,0.994127 0.0589,2.120539 0.26364,2.503137 0.28596,0.534332 0.27736,1.066024 -0.0371,2.292978 -0.25578,0.998023 -0.29467,1.679707 -0.10364,1.816863 0.16816,0.120735 0.30575,0.450217 0.30575,0.732183 0,0.657165 2.16355,3.062857 2.93333,3.261614 1.06961,0.276176 2.38041,0.230182 3.0077,-0.105538 z M 108.08,83.174366 c -1.48024,-0.862159 0.3225,-4.736523 2.21677,-4.764191 0.82296,-0.01202 2.0253,1.38968 2.01833,2.352978 -0.0117,1.609543 -2.84343,3.221787 -4.2351,2.411213 z m 3.03304,-9.321861 c -1.66137,-0.814775 -0.9237,-3.73539 0.83216,-3.294697 1.10994,0.278578 1.05806,0.18716 1.12063,1.97469 0.0597,1.70484 -0.45656,2.053791 -1.95279,1.320007 z m -7.28973,-5.772507 c 0.0678,-0.22 0.21,-0.796 0.31606,-1.28 0.22609,-1.03181 0.67541,-1.149878 0.91335,-0.24 0.11183,0.427643 0.43648,0.64 0.97843,0.64 0.86575,0 1.42518,-0.501224 0.79418,-0.711554 -0.20825,-0.06942 -0.27241,-0.298108 -0.14257,-0.508197 0.30968,-0.501076 1.47724,0.09249 1.47724,0.75101 0,1.004887 -1.22078,1.748741 -2.86996,1.748741 -1.12435,0 -1.55387,-0.117136 -1.46673,-0.4 z M 73.984945,80.468384 c 0.107022,-0.107022 0.753164,0.158029 1.435871,0.589003 0.682991,0.431153 2.027911,0.885325 2.990234,1.009783 0.961921,0.124407 2.459084,0.430187 3.327028,0.679511 1.712538,0.491941 6.90192,0.625692 6.90192,0.17789 0,-0.32113 -2.630677,-0.677795 -5.028741,-0.681792 -1.329884,-0.0022 -1.737112,-0.130533 -2.005442,-0.631912 -0.185186,-0.346023 -0.910252,-0.783573 -1.611259,-0.972334 -3.803291,-1.02412 -1.021345,-2.111992 3.617596,-1.41465 2.693346,0.404873 4.190282,0.473422 5.844298,0.267626 l 2.223548,-0.276658 -3.52,-0.199496 c -4.60518,-0.260999 -14.350068,-1.197045 -16.08,-1.544565 -1.641914,-0.329839 -1.632315,-0.431082 -0.168206,1.774025 1.022919,1.540628 1.214026,2.118057 1.348696,4.075077 l 0.156902,2.280106 0.186485,-2.468514 c 0.102566,-1.357683 0.274048,-2.556078 0.38107,-2.6631 z M 98.079997,78.21842 c 1.192962,-0.532897 -0.861957,-0.364216 -4.32564,0.355078 l -2.074359,0.430776 2.72,-0.178511 c 1.496,-0.09818 3.151999,-0.371485 3.679999,-0.607343 z M 68.415998,77.375998 c 0.54577,-0.545769 0.475718,-2.86265 -0.111919,-3.701619 -0.373925,-0.533853 -0.425039,-0.964728 -0.207785,-1.751557 0.181265,-0.656488 0.16816,-1.312403 -0.03533,-1.768449 -0.231816,-0.51952 -0.206694,-0.943108 0.08866,-1.494991 0.226672,-0.423541 0.326468,-1.111384 0.221768,-1.528542 -0.158343,-0.63089 -0.02406,-0.821241 0.798343,-1.131663 0.64445,-0.243252 0.928047,-0.531272 0.814491,-0.827193 -0.30003,-0.781868 0.377586,-1.130941 1.561049,-0.804171 0.7063,0.195019 1.299388,0.185169 1.698073,-0.0282 0.466762,-0.249803 0.656445,-0.21383 0.796462,0.151048 0.332641,0.866848 1.669114,1.100471 4.697056,0.821069 3.345983,-0.308748 3.83876,-0.591836 3.070701,-1.764042 -0.290163,-0.442845 -0.527569,-1.161415 -0.527569,-1.596824 0,-0.879851 -2.018338,-1.43651 -3.688565,-1.01731 -0.511358,0.128343 -1.077961,0.02204 -1.515301,-0.28428 -1.089653,-0.763224 -2.796134,-0.651707 -2.796134,0.182724 0,1.910801 -4.035667,3.856465 -5.913972,2.851226 -1.449497,-0.775747 -2.276737,-3.865294 -1.095843,-4.092713 0.392713,-0.07563 0.47115,0.119053 0.358153,0.888948 -0.286961,1.955193 1.880691,2.903877 4.060033,1.776895 3.138911,-1.623193 1.958971,-5.24986 -1.565027,-4.810275 -4.272953,0.533011 -5.920663,2.427369 -4.528752,5.206668 1.000328,1.997405 1.125809,2.947251 0.389349,2.947251 -2.623425,0 -2.825112,3.804554 -0.308882,5.826651 0.804853,0.646797 1.244941,1.264331 1.244941,1.746906 0,0.410544 0.1404,0.746443 0.312,0.746443 0.172645,0 0.230202,0.408992 0.128864,0.915681 -0.349849,1.749244 1.079463,3.515992 2.055136,2.540319 z m 2.677828,-3.938704 c 0.312722,-0.119392 0.398224,-0.749656 0.321185,-2.367571 -0.104371,-2.191917 0.483664,-4.189725 1.233205,-4.189725 0.653427,0 0.275619,-0.572303 -0.472178,-0.715254 -0.612174,-0.117024 -0.805006,-0.0025 -0.88,0.522695 -0.05282,0.369908 -0.42004,0.814706 -0.81604,0.98844 -0.462956,0.20311 -0.72,0.59396 -0.72,1.094803 0,0.428407 -0.242467,1.046845 -0.538815,1.374307 -0.506676,0.55987 -0.49738,0.680671 0.155841,2.025197 0.690788,1.42185 0.902399,1.578032 1.716802,1.267108 z m 50.144424,-4.317296 c 0.12856,0 0.40655,0.1728 0.61775,0.384 0.72093,0.720933 0.46189,-2.118668 -0.27923,-3.060845 -0.85078,-1.081598 -1.88203,-1.074968 -3.23222,0.02078 -0.5855,0.475164 -1.10394,0.886553 -1.15209,0.914199 -0.38966,0.223759 0.41121,0.999148 0.89997,0.871334 0.40772,-0.106621 0.95996,0.198019 1.65933,0.915363 0.86321,0.885386 1.06629,0.976321 1.15049,0.515169 0.0562,-0.308 0.20744,-0.56 0.336,-0.56 z M 80.303308,67.537085 c 0.548983,-0.347314 -0.0663,-0.513017 -2.989298,-0.805057 -1.633087,-0.163163 -1.833795,-0.125542 -1.496761,0.280559 0.616179,0.742451 3.591664,1.090337 4.486059,0.524498 z m 5.09404,-6.28519 c -0.538805,-0.538806 -1.095225,-0.790338 -1.592727,-0.72 -0.729747,0.103173 -0.713538,0.139735 0.355377,0.801593 1.595955,0.988195 2.263143,0.944199 1.23735,-0.08159 z m 1.701316,-0.84123 c -0.22962,-0.22962 -0.378666,-0.248513 -0.378666,-0.048 0,0.42713 0.378435,0.805565 0.592,0.592 0.09093,-0.09093 -0.0051,-0.335733 -0.213334,-0.544 z M 85.528013,48.943073 c -2.284204,-0.484657 -3.111622,-1.646415 -2.588403,-3.634315 0.568619,-2.160394 2.620006,-3.191563 4.477031,-2.250466 3.864756,1.958567 2.318233,6.777383 -1.888628,5.884781 z m 1.904539,-1.823074 c 1.369005,-1.559022 0.650614,-3.92 -1.192766,-3.92 -1.825105,0 -3.238937,2.872851 -2.015788,4.096 0.585679,0.585679 2.638594,0.47307 3.208554,-0.176 z M 104.32,40.952174 c -4.707137,-1.670862 -5.214894,-6.633962 -1.01656,-9.936373 3.81164,-2.998238 9.95268,3.749282 7.58295,8.331834 -1.17657,2.275232 -3.24975,2.781827 -6.56639,1.604539 z m 4.66325,-2.074217 c 3.30612,-4.334553 -1.33071,-10.14909 -5.03829,-6.317958 -3.22395,3.33138 -3.06251,4.865519 0.69608,6.615013 2.44233,1.13682 3.29292,1.07863 4.34221,-0.297055 z"
     id="path1"
     transform="translate(-60.936014,-30.273058)" />
</svg>
