<?xml version="1.0" encoding="UTF-8" standalone="no"?>
<!-- Created with Inkscape (http://www.inkscape.org/) -->

<svg
   version="1.1"
   id="svg1"
   width="92.540962"
   height="107.82552"
   viewBox="0 0 92.540965 107.82553"
   sodipodi:docname="Icon_recluse.svg"
   inkscape:version="1.4.2 (ebf0e940d0, 2025-05-08)"
   xmlns:inkscape="http://www.inkscape.org/namespaces/inkscape"
   xmlns:sodipodi="http://sodipodi.sourceforge.net/DTD/sodipodi-0.dtd"
   xmlns="http://www.w3.org/2000/svg"
   xmlns:svg="http://www.w3.org/2000/svg">
  <defs
     id="defs1" />
  <sodipodi:namedview
     id="namedview1"
     pagecolor="#505050"
     bordercolor="#eeeeee"
     borderopacity="1"
     inkscape:showpageshadow="0"
     inkscape:pageopacity="0"
     inkscape:pagecheckerboard="0"
     inkscape:deskcolor="#505050"
     inkscape:zoom="1.6550339"
     inkscape:cx="43.201532"
     inkscape:cy="60.421724"
     inkscape:window-width="1838"
     inkscape:window-height="1011"
     inkscape:window-x="40"
     inkscape:window-y="47"
     inkscape:window-maximized="1"
     inkscape:current-layer="svg1" />
  <path
     style="fill:#0263a9"
     d="m 72.799998,140.95459 c -1.232,-0.23322 -3.464,-0.44168 -4.96,-0.46325 -1.496,-0.0216 -3.296,-0.16399 -4,-0.31649 -0.704,-0.15251 -2.402753,-0.5051 -3.775007,-0.78355 -1.372254,-0.27845 -3.301822,-0.87532 -4.28793,-1.32638 -0.986108,-0.45105 -2.195994,-0.90071 -2.688636,-0.99924 -4.492963,-0.89859 0.226233,-10.70608 6.033496,-12.53888 1.274206,-0.40215 2.522754,-0.93719 2.774551,-1.18899 0.627323,-0.62732 0.887211,-0.59119 3.32989,0.46301 1.903872,0.82166 2.633303,0.94347 6.773636,1.13118 2.552,0.1157 5.216,0.3459 5.92,0.51155 4.972651,1.17005 30.240002,-0.91537 30.240002,-2.49583 0,-0.32433 -0.21496,-0.40375 -0.72,-0.26604 -1.08485,0.29582 -3.92046,0.74178 -10.640002,1.67335 -9.379039,1.30028 -17.067539,0.94536 -27.727924,-1.27998 -5.49414,-1.1469 -5.278537,-0.90968 -3.888548,-4.2784 1.749034,-4.23888 3.302434,-4.73921 9.696472,-3.12308 5.537137,1.39954 14.813101,1.94773 19.541229,1.15484 0.956324,-0.16037 3.10677,-0.46019 4.77877,-0.66626 1.672003,-0.20608 3.906193,-0.57711 4.964873,-0.82452 1.87172,-0.4374 3.42821,-0.39446 3.59534,0.0992 0.40731,1.20307 1.43026,2.309 2.07243,2.24051 0.5377,-0.0573 0.752,0.10888 0.82858,0.64266 0.1539,1.0728 0.10535,1.10677 6.17653,-4.32034 5.06457,-4.52728 6.49812,-5.60398 9.99565,-7.50749 2.73561,-1.48884 9.52303,-2.01635 11.69391,-0.90885 7.25015,3.69875 7.02302,25.83636 -0.30395,29.62528 -3.13038,1.61878 -12.19277,3.16343 -14.16359,2.41412 -0.77646,-0.29521 -4.53949,0.6352 -6.23153,1.54075 -0.85874,0.45959 -2.81984,0.83739 -8.5395,1.6451 -5.60759,0.7919 -32.50822,0.89955 -36.488742,0.14602 z m 6.4,-0.79459 c -0.108774,-0.176 -1.233272,-0.30105 -2.498885,-0.27788 -1.853528,0.0339 -2.083265,0.088 -1.181115,0.27788 1.739788,0.36621 3.90633,0.36621 3.68,0 z m 53.520152,-6.65218 c 3.15546,-1.25001 4.29435,-1.91412 6.07182,-3.54059 l 0.82265,-0.75276 -0.18406,-6.28724 c -0.28343,-9.68151 -1.02716,-11.49067 -5.22548,-12.71115 -5.0306,-1.46244 -9.96871,0.51493 -14.04527,5.62415 -1.7154,2.14994 -5.3056,5.43977 -5.93643,5.43977 -0.16686,0 -0.30338,0.12088 -0.30338,0.26863 0,0.35469 1.46419,1.01137 2.25505,1.01137 0.71148,0 0.80164,0.3353 0.24095,0.896 -0.29867,0.29866 -0.13867,0.38698 0.72,0.39741 1.93786,0.0235 4.72271,2.26447 5.83155,4.69256 l 0.3224,0.70598 0.58418,-0.74266 c 1.86076,-2.36558 7.98886,-1.49039 7.10686,1.01497 -0.69688,1.97954 -3.94099,3.85761 -3.94099,2.2815 0,-0.19483 0.2138,-0.27219 0.47512,-0.17192 0.40877,0.15686 1.12488,-0.61522 1.12488,-1.21281 0,-0.68604 -2.26717,-0.0811 -3.01156,0.80352 -0.81644,0.97029 -1.15368,3.05398 -0.58844,3.63584 0.58358,0.60075 4.48276,-0.0859 7.68015,-1.35257 z m -45.349848,-2.27207 c 0.722371,-0.28832 0.680571,-0.31734 -0.490304,-0.34047 -0.704,-0.0139 -2.144,-0.2339 -3.2,-0.48888 -1.056,-0.25498 -3.026626,-0.46874 -4.379168,-0.475 -1.352543,-0.006 -2.864543,-0.17205 -3.36,-0.36839 -0.495458,-0.19634 -2.268832,-0.55715 -3.940832,-0.80179 -4.124727,-0.60351 -5.500068,-0.87841 -8.394117,-1.67782 -2.993701,-0.82692 -4.17439,-0.85633 -5.396509,-0.13441 -0.752603,0.44457 -1.231147,1.03858 -0.849373,1.0543 0.126315,0.005 5.486523,1.1674 9.507203,2.06135 2.016961,0.44845 4.680961,0.82673 5.919999,0.84064 1.239039,0.0139 3.260797,0.22624 4.492797,0.47186 2.45261,0.48898 8.731361,0.401 10.090304,-0.14139 z m -5.770304,-10.32607 c -0.792,-0.15961 -2.232,-0.41493 -3.2,-0.56737 -5.714585,-0.89993 -7.689275,-1.85451 -5.36,-2.59106 l 1.36,-0.43006 -1.6,-0.22718 c -0.88,-0.12495 -1.824189,-0.31896 -2.098198,-0.43112 -0.346579,-0.14187 -0.806266,0.22504 -1.510464,1.20562 -1.532891,2.13451 -0.775897,2.62046 4.792546,3.07653 4.478297,0.36679 9.495963,0.34349 7.616116,-0.0354 z m 59.142212,-5.62372 c -0.16357,-0.83928 -0.4215,-2.24596 -0.5732,-3.12596 -0.88391,-5.12767 -3.81,-7.01519 -7.88065,-5.08354 -1.11962,0.53129 -1.528,1.26547 -0.52836,0.94986 4.43934,-1.40159 8.72,2.67706 8.72,8.30851 0,0.45262 0.12591,0.74512 0.2798,0.65001 0.15889,-0.0982 0.15129,-0.83231 -0.0176,-1.69888 z m -57.001835,1.16721 c -1.198793,-0.13425 -2.854793,-0.39774 -3.68,-0.58553 -2.526595,-0.57499 -6.646636,-1.30764 -7.353422,-1.30764 -1.621612,0 -1.21436,-1.07963 0.979811,-2.5975 3.776327,-2.61235 9.833234,-4.92062 9.833234,-3.74741 0,0.56591 1.675526,2.16307 3.262577,3.10998 l 1.182578,0.70559 0.522254,-0.79706 c 0.28724,-0.43838 0.76902,-1.48928 1.070624,-2.33533 0.633401,-1.7768 1.748031,-2.1563 3.568419,-1.21494 0.553963,0.28647 2.05428,0.86265 3.334039,1.28041 3.419007,1.11607 5.084771,2.01443 5.875811,3.16888 1.09627,1.5999 0.74369,2.08342 -1.5363,2.10686 -0.44,0.005 -1.426701,0.36649 -2.192666,0.80437 -0.765965,0.43788 -1.728591,0.79615 -2.139168,0.79615 -0.410578,0 -1.151879,0.16114 -1.647337,0.35808 -1.089514,0.43309 -8.058387,0.59353 -11.080454,0.25509 z M 87.519998,113.6 c -0.108774,-0.176 -0.763129,-0.32 -1.454122,-0.32 -1.186836,0 -1.323011,-0.10566 -2.461114,-1.90947 -1.358333,-2.15287 -1.403633,-2.17204 -3.048343,-1.29053 -0.656756,0.352 -1.329249,0.64 -1.494429,0.64 -0.165181,0 -0.705703,0.15628 -1.20116,0.34729 l -0.900832,0.3473 1.474606,0.56454 c 0.811034,0.31051 2.035034,0.66555 2.72,0.78898 0.684967,0.12344 2.109394,0.42104 3.165394,0.66134 2.357071,0.53637 3.462501,0.59528 3.2,0.17055 z m 4.48,-0.52316 c 3.026428,-0.7193 5.571956,-2.03684 3.935234,-2.03684 -0.211621,0 -0.823621,-0.42204 -1.36,-0.93787 -1.6706,-1.60658 -2.444284,-1.57493 -3.345555,0.13686 -0.423676,0.80469 -1.251676,1.88571 -1.84,2.40226 -1.676955,1.47239 -1.721019,1.46504 2.610321,0.43559 z m -22.747314,-0.0417 c -0.191023,-0.12931 -0.709757,-1.0271 -1.152743,-1.9951 -0.442985,-0.968 -2.056287,-3.29305 -3.585115,-5.16678 -4.267409,-5.23012 -4.474456,-12.558336 -0.604433,-21.393222 0.269832,-0.616 0.895928,-2.31001 1.391324,-3.764466 0.495395,-1.454457 1.613097,-3.830457 2.483782,-5.28 0.870685,-1.449544 2.045424,-3.643534 2.610533,-4.875534 0.565109,-1.232 1.421747,-2.888 1.90364,-3.68 0.481893,-0.792 1.508014,-2.52 2.280267,-3.84 0.772254,-1.32 1.665691,-2.592369 1.985416,-2.827487 3.354756,-2.467005 5.830217,-14.073085 4.897778,-22.962999 l -0.238145,-2.270487 1.217556,-0.577768 c 2.434865,-1.155419 9.612569,-0.951856 10.872782,0.308357 0.392031,0.39203 0.410346,0.910792 0.115735,3.278059 -0.698475,5.612411 -0.02158,12.017006 1.532194,14.497246 0.494462,0.789294 1.10231,2.062994 1.350773,2.830446 0.248463,0.767451 0.994096,2.135451 1.656963,3.04 0.662866,0.904548 1.707297,2.364633 2.320959,3.244633 0.61366,0.88 1.68687,2.392 2.38491,3.36 0.69804,0.968 2.02751,3.056 2.95438,4.64 0.92687,1.584 2.50217,4.104 3.50067,5.6 1.06152,1.590423 2.1783,3.783132 2.68919,5.28 0.48056,1.408 1.05701,2.848 1.281,3.2 4.10983,6.458648 3.72174,17.392052 -0.79565,22.415062 -1.57278,1.74882 -3.18515,3.82886 -3.58303,4.62231 -1.38535,2.76262 -2.42712,3.27945 -3.53681,1.75463 -0.57082,-0.78436 -0.56639,-0.79627 0.99393,-2.67119 4.83186,-5.80607 6.67913,-11.194263 5.84085,-17.036858 -0.21179,-1.476175 -0.45588,-3.187954 -0.54242,-3.803954 -0.67961,-4.837708 -5.84932,-15.855094 -9.08435,-19.36 -0.48734,-0.528 -1.3695,-1.69528 -1.96035,-2.593956 -0.59085,-0.898677 -1.807282,-2.698677 -2.703183,-4 -2.840722,-4.126237 -4.85756,-7.721636 -5.90458,-10.526043 l -1.015506,-2.72 0.162891,-6.26544 0.162891,-6.265439 -3.708556,0.09013 -3.708557,0.09013 0.08365,6.335313 0.08365,6.335313 -0.982471,2.659074 c -1.166603,3.157432 -3.215705,7.304609 -5.247752,10.620925 -0.808819,1.32 -1.89971,3.206542 -2.424201,4.192316 -0.524492,0.985773 -1.300548,2.209773 -1.72457,2.72 -4.428347,5.328639 -8.704502,18.609294 -8.489964,26.367684 l 0.11061,4.000005 2.186187,3.99202 c 1.202403,2.19561 2.73617,4.64891 3.408372,5.45178 1.617404,1.93181 0.458755,4.25722 -1.470499,2.9513 z m 22.40061,-77.720902 c 0.287985,-0.750477 0.361265,-0.735202 -3.854073,-0.803342 -4.103227,-0.06633 -5.120962,0.156224 -4.106539,0.897989 0.937548,0.685552 7.692038,0.605245 7.960612,-0.09465 z M 86.933331,108.2667 c -0.117333,-0.11733 -0.224013,-0.72933 -0.237066,-1.36 l -0.02373,-1.14666 -0.579397,1.28 -0.579398,1.28 -0.337131,-0.84892 c -0.185423,-0.4669 -0.492363,-0.94485 -0.68209,-1.06211 -0.189728,-0.11726 -0.258757,-0.35267 -0.153399,-0.52315 0.105357,-0.17047 -0.312409,-0.86778 -0.92837,-1.54957 -3.898171,-4.31481 -4.085922,-10.376286 -0.443879,-14.330465 3.604903,-3.913856 4.34923,-6.21705 3.638945,-11.260096 -0.32302,-2.29345 0.442215,-1.781787 1.269686,0.848958 0.310614,0.987526 1.121896,2.629828 1.802848,3.649561 1.420649,2.127439 1.476555,2.293317 2.968475,8.807587 1.472823,6.430888 1.005325,8.727825 -2.432713,11.952555 -0.84194,0.78971 -1.262314,1.50405 -1.412354,2.4 -0.117492,0.70161 -0.269884,1.45565 -0.338647,1.67565 -0.131965,0.4222 -1.169771,0.54867 -1.531778,0.18666 z m 2.833901,-7.48065 c 1.150235,-2.224311 1.154897,-8.951118 0.0089,-12.786012 -0.236684,-0.792 -0.607845,-2.124 -0.824803,-2.96 -0.500536,-1.928709 -0.688954,-1.907393 -1.414266,0.16 -0.830841,2.368189 -2.54013,5.371622 -3.676835,6.460655 -2.090536,2.00286 -2.405279,6.191353 -0.656771,8.740077 0.614118,0.89517 1.173111,1.45921 1.242206,1.25343 0.06909,-0.20579 0.428484,-0.80609 0.798643,-1.33401 0.370159,-0.52791 0.755606,-1.67991 0.856548,-2.559996 0.100943,-0.880086 0.259721,-1.384156 0.352841,-1.120156 0.09312,0.263999 0.354317,0.983999 0.580439,1.599999 0.226122,0.616 0.643954,1.790393 0.928516,2.609753 0.563,1.6211 0.940245,1.60777 1.80462,-0.0637 z"
     id="path1"
     transform="translate(-51.302605,-33.639487)" />
</svg>
