<?xml version="1.0" encoding="UTF-8" standalone="no"?>
<!-- Created with Inkscape (http://www.inkscape.org/) -->

<svg
   version="1.1"
   id="svg1"
   width="113.45433"
   height="78.964157"
   viewBox="0 0 113.45433 78.964159"
   sodipodi:docname="Icon_saint.svg"
   inkscape:version="1.4.2 (ebf0e940d0, 2025-05-08)"
   xmlns:inkscape="http://www.inkscape.org/namespaces/inkscape"
   xmlns:sodipodi="http://sodipodi.sourceforge.net/DTD/sodipodi-0.dtd"
   xmlns="http://www.w3.org/2000/svg"
   xmlns:svg="http://www.w3.org/2000/svg">
  <defs
     id="defs1" />
  <sodipodi:namedview
     id="namedview1"
     pagecolor="#505050"
     bordercolor="#eeeeee"
     borderopacity="1"
     inkscape:showpageshadow="0"
     inkscape:pageopacity="0"
     inkscape:pagecheckerboard="0"
     inkscape:deskcolor="#505050"
     inkscape:zoom="2.6015229"
     inkscape:cx="78.607803"
     inkscape:cy="36.517072"
     inkscape:window-width="1838"
     inkscape:window-height="1011"
     inkscape:window-x="40"
     inkscape:window-y="47"
     inkscape:window-maximized="1"
     inkscape:current-layer="svg1" />
  <path
     style="fill:#0263ab"
     d="m 73.332618,133.88884 c -0.581747,-0.40748 -0.688401,-0.69958 -0.525776,-1.44 0.256264,-1.16677 0.100283,-1.16045 -1.606228,0.0651 -2.815514,2.02195 -5.249627,0.95025 -5.521026,-2.43081 C 65.587621,128.9374 65.454354,128 65.383439,128 c -0.07091,0 -0.693464,0.288 -1.383441,0.64 -1.658849,0.84628 -2.311509,0.80777 -3.518195,-0.20759 -0.995327,-0.83751 -1.059465,-1.21166 -0.470715,-2.74592 0.122907,-0.32029 -0.228177,-0.55662 -1.198635,-0.80685 -5.501403,-1.41851 -6.841244,-2.80427 -5.414095,-5.59964 0.657076,-1.28702 0.366601,-1.56769 -0.913453,-0.88263 -0.696882,0.37296 -4.484906,-3.45647 -4.484906,-4.53393 0,-1.85582 1.276337,-3.19672 3.359884,-3.52985 0.469653,-0.0751 -0.356415,-0.81292 -3.105101,-2.7734 -7.985003,-5.69526 -9.999841,-10.061417 -4.409067,-9.554463 2.332811,0.211531 2.330764,0.29932 0.04929,-2.113427 -3.790692,-4.008809 -6.135003,-6.932868 -6.133813,-7.650705 0.0025,-1.529025 1.154108,-2.801597 2.535215,-2.801597 1.791964,0 1.851637,-0.404159 0.391963,-2.654731 -2.654968,-4.093514 -2.5887,-8.225269 0.131923,-8.225269 1.473222,0 1.568788,-0.348798 0.760805,-2.776789 -1.369217,-4.114496 -0.768892,-7.133031 1.468773,-7.385248 1.33798,-0.15081 1.45932,-0.232419 1.25263,-0.842474 -0.687668,-2.029687 -0.540333,-3.927818 0.359845,-4.635898 1.300121,-1.022676 1.595355,-0.695335 8.112647,8.994923 4.794992,7.129449 9.788533,11.652723 21.465002,19.443532 6.829989,4.557126 7.859348,5.531197 9.71505,9.193249 1.347329,2.658827 1.08813,6.607137 -0.483469,7.364547 -1.256474,0.60553 -2.004722,3.27184 -1.53406,5.46646 0.733597,3.42065 7.743622,10.83736 9.798348,10.3668 0.206729,-0.0473 0.467227,0.0617 0.578886,0.24241 0.29634,0.47949 1.154151,0.40152 1.776221,-0.16145 0.297753,-0.26946 0.849633,-0.5493 1.2264,-0.62185 2.536966,-0.48858 8.409659,-6.22501 9.814159,-9.58646 0.97571,-2.3352 0.30317,-6.0871 -1.22494,-6.83357 -4.506279,-2.20127 -0.23896,-11.103006 7.70985,-16.082954 11.35922,-7.116579 19.32937,-14.179748 24.14815,-21.400164 6.83591,-10.242857 7.34498,-10.774133 8.81963,-9.204439 0.83031,0.883834 0.91224,2.503151 0.21148,4.180296 l -0.48429,1.159079 h 1.22313 c 2.69962,0 3.49976,3.530273 1.86759,8.24 l -0.80401,2.32 h 1.19978 c 3.25375,0 3.57206,4.129856 0.66497,8.627682 -1.55914,2.412287 -1.47901,2.892318 0.48279,2.892318 1.3591,0 1.47477,0.06947 1.93004,1.159079 0.95158,2.277458 0.19444,3.526642 -6.04621,9.975432 l -1.94949,2.014512 2.15462,-0.218152 c 6.34771,-0.642692 3.69634,4.441381 -5.66411,10.861131 -2.43709,1.67144 -2.75052,1.98229 -2.08,2.06288 2.17372,0.26124 3.50949,1.61182 3.50949,3.5484 0,1.46809 -3.57086,4.90672 -4.88,4.69929 -1.30139,-0.2062 -1.43237,-0.0367 -0.70983,0.91859 1.79557,2.37395 -0.76278,4.9625 -6.01287,6.08385 -0.83118,0.17753 -0.87074,0.26333 -0.6778,1.46993 0.39845,2.49175 -1.76047,3.70209 -4.30424,2.41306 l -1.61734,-0.81957 -0.22233,2.2563 c -0.35463,3.59896 -2.91103,4.65958 -5.80205,2.40721 -1.8189,-1.41709 -2.04942,-1.43282 -1.67121,-0.11406 0.16372,0.57084 0.29767,1.07114 0.29767,1.11179 0,0.26558 -2.03756,1.05033 -2.72713,1.05033 -1.56007,0 -4.65233,-2.21077 -5.79285,-4.14151 -0.75841,-1.28388 -1.34267,-1.45448 -1.76991,-0.5168 -1.02023,2.23917 -4.32834,0.70659 -6.385871,-2.95844 -1.988789,-3.54259 -2.844244,-3.91339 -2.844244,-1.23285 0,2.14787 -0.642334,2.87523 -2.267877,2.5681 -1.355609,-0.25614 -2.210764,-0.96916 -2.216493,-1.8481 -0.01726,-2.64859 -0.67447,-2.45139 -2.55366,0.76622 -1.999052,3.42285 -5.308142,5.0787 -6.08197,3.04338 -0.425314,-1.11866 -0.815971,-1.00414 -1.83546,0.53806 -1.833546,2.77365 -5.674944,4.47339 -7.39192,3.27078 z m 4.02065,-1.96642 c 1.397247,-1.06574 2.930605,-4.18519 2.264787,-4.60748 -0.7922,-0.50244 -1.111026,-0.26989 -1.879545,1.37094 -0.497124,1.06138 -1.199289,1.92938 -1.977212,2.44418 -0.95161,0.62975 -1.129952,0.89033 -0.844629,1.23412 0.537259,0.64736 1.155684,0.53524 2.436599,-0.44176 z m 35.293152,0.38984 c 0.22263,-0.26825 0.34826,-0.53153 0.27918,-0.58505 -0.0691,-0.0535 -0.63976,-0.47943 -1.26818,-0.94645 -0.63705,-0.47343 -1.47534,-1.55961 -1.8947,-2.45494 -0.74652,-1.59387 -1.07256,-1.83104 -1.84388,-1.34132 -0.72381,0.45956 0.43811,3.06056 2.01762,4.5165 1.52207,1.403 2.08019,1.57008 2.70996,0.81126 z m -42.342069,-1.68112 0.971467,-1.20886 -1.741431,-1.51114 c -2.385079,-2.06967 -2.476425,-2.04653 -2.843464,0.72034 l -0.227465,1.71472 1.210635,-0.92339 1.210635,-0.9234 -0.694468,1.36127 c -1.17702,2.30715 0.413386,2.88676 2.114091,0.77046 z m 50.259659,0.75151 c 0.0469,-0.0469 -0.30537,-0.78437 -0.7829,-1.63875 l -0.86822,-1.55342 1.19226,0.90938 c 1.5002,1.14426 1.69521,0.94039 1.20326,-1.25789 -0.47842,-2.13779 -0.70289,-2.16133 -2.83391,-0.29716 -1.97352,1.72639 -1.94288,1.58378 -0.67151,3.12618 0.917,1.11247 2.06445,1.40823 2.76102,0.71166 z m -44.193483,-2.52037 c 0.268581,-0.51937 0.703361,-1.68186 0.966177,-2.5833 0.262815,-0.90144 0.684892,-1.96298 0.937947,-2.35898 0.525038,-0.82162 0.252761,-0.91704 -0.655814,-0.22983 -0.976171,0.73834 -1.199439,0.55523 -0.640626,-0.52539 0.700906,-1.35541 0.148123,-0.94243 -1.326104,0.9907 -1.826404,2.39494 -2.500146,2.05436 -0.826566,-0.41783 1.44766,-2.13846 1.480672,-2.40276 0.107168,-0.85799 -1.66301,1.87037 -1.984091,1.51389 -0.534506,-0.59343 L 75.530611,120.64 h -0.847536 c -1.949833,0 -5.243077,3.16908 -5.243077,5.0454 0,0.58715 0.645608,1.19247 3.956336,3.70945 1.718211,1.30626 2.054429,1.24606 2.974193,-0.53257 z m 39.326943,-0.72512 c 3.60565,-2.81549 3.65523,-3.10407 1.00394,-5.84283 -2.8697,-2.96437 -5.33856,-3.3208 -3.39057,-0.4895 1.32723,1.92906 0.9254,2.16126 -0.70685,0.40846 l -1.31608,-1.41329 1.31604,2.04961 c 0.72383,1.12728 1.31605,2.17128 1.31605,2.32 0,0.7131 -0.72474,0.0744 -2.24981,-1.98285 -1.73242,-2.33689 -2.49632,-2.79303 -1.30986,-0.78214 0.87747,1.4872 0.85639,1.62478 -0.1481,0.96661 -0.98185,-0.64333 -1.27931,-0.47871 -0.78932,0.43685 0.19513,0.36459 0.70128,1.68707 1.12478,2.93884 1.38683,4.09912 1.60518,4.15807 5.14978,1.39024 z m -52.168353,-0.7828 c 1.628998,-1.00678 2.318978,-2.22154 1.572048,-2.76771 -0.8304,-0.6072 -0.969009,-0.55722 -1.922862,0.69335 -0.886978,1.16288 -1.636295,1.50963 -1.285216,0.59473 0.168534,-0.43919 0.121708,-0.45898 -0.285763,-0.12081 -1.709205,1.41851 -0.03704,2.81107 1.921793,1.60044 z M 127.36,126.6378 c 0,-0.84454 -0.73879,-1.66843 -0.95174,-1.06136 -0.18609,0.53049 -0.35673,0.44491 -1.43357,-0.71894 -1.15617,-1.24961 -2.03149,-1.50828 -1.63852,-0.48421 0.13659,0.35595 0.0161,0.4166 -0.50137,0.25236 -1.20523,-0.38252 0.8437,1.94727 2.38523,2.7122 1.3445,0.66716 2.13997,0.40693 2.13997,-0.70005 z m -33.280002,0.0841 c 0,-0.15415 -0.161165,-0.68565 -0.358144,-1.18111 l -0.358143,-0.90083 -0.31211,0.89076 c -0.22157,0.63236 -0.199987,1.02585 0.0744,1.35647 0.385568,0.46458 0.953995,0.3661 0.953995,-0.16529 z m -6.56,-1.21881 c 1.250092,-1.02605 2.122177,-2.34896 1.914161,-2.90369 -0.229216,-0.61127 0.428701,-1.31645 1.245021,-1.33447 0.852399,-0.0188 -0.440586,-1.13211 -2.699786,-2.32459 -0.780668,-0.41206 -1.599149,-1.09822 -1.818846,-1.52479 -0.489021,-0.94951 -0.861179,-0.87787 -1.909081,0.36749 -1.034724,1.2297 -1.242877,1.00349 -0.737511,-0.8015 l 0.402271,-1.43677 -1.318115,-1.49746 c -0.758972,-0.86224 -1.318114,-1.82197 -1.318114,-2.26245 0,-0.86429 -0.817324,-1.33558 -1.36551,-0.78739 -0.199369,0.19937 -0.577938,0.36249 -0.841263,0.36249 -0.309929,0 -0.09792,-0.39294 0.601168,-1.11422 0.99204,-1.02353 1.045731,-1.17814 0.659638,-1.89956 -0.329788,-0.61622 -0.342604,-1.09392 -0.05951,-2.21819 0.198437,-0.78807 0.279084,-2.05727 0.179215,-2.82044 -0.169844,-1.2979 -0.117797,-1.42293 0.805232,-1.93437 1.161785,-0.64373 1.722168,-1.865539 1.329418,-2.898552 C 82.029959,97.005855 79.63089,94.367782 78.238363,93.69124 77.464623,93.315329 76.89881,92.898958 76.981,92.765973 c 0.08219,-0.132986 -0.01916,-0.345992 -0.225227,-0.473347 -0.233993,-0.144615 -0.288935,-0.09284 -0.146334,0.137889 0.310912,0.503066 -0.126983,0.44601 -1.089443,-0.141951 -0.759023,-0.463683 -0.763098,-0.481022 -0.07956,-0.338504 1.16995,0.243935 0.4898,-0.375335 -1.534628,-1.397263 -4.155725,-2.097804 -6.992359,-0.786136 -6.227399,2.879566 0.633772,3.03704 1.690393,4.192834 5.122928,5.603753 1.055261,0.433758 1.774657,0.801129 1.598657,0.816381 -6.527136,0.565623 -6.486669,0.544313 -6.768667,3.564153 l -0.196232,2.10141 2.160137,1.06343 c 1.791484,0.88194 2.535971,1.06642 4.362352,1.08095 2.644808,0.021 2.61974,-0.0387 0.420618,1.00169 -0.979986,0.46361 -2.383986,1.41813 -3.12,2.12117 l -1.338208,1.27824 1.253315,1.08821 c 1.49675,1.29957 2.969892,1.43084 4.666685,0.41585 1.071123,-0.64073 1.053667,-0.6018 -0.4,0.89218 -1.769795,1.81888 -1.861516,2.46243 -0.580669,4.07417 0.516632,0.6501 0.992208,1.34062 1.056835,1.53451 0.179455,0.53836 3.021565,-1.25712 3.980948,-2.51494 1.142026,-1.49727 1.198995,-1.21754 0.242562,1.19104 -1.943265,4.8937 0.276188,8.44823 3.166605,5.07142 l 1.156218,-1.35078 -0.301376,1.05084 c -0.165756,0.57796 -0.366216,1.11568 -0.445465,1.19493 -0.07925,0.0792 0.307201,0.54731 0.858779,1.04015 1.098205,0.98124 1.487837,0.94843 2.945563,-0.24803 z m 15.156682,-0.069 c 0.86993,-0.86993 0.93229,-1.06234 0.62761,-1.93634 -0.45949,-1.3181 -0.13462,-1.51869 0.55871,-0.34498 1.25594,2.12613 3.52737,1.89922 4.29579,-0.42913 0.39177,-1.18707 -0.39336,-4.42594 -1.50085,-6.19141 -0.79461,-1.26669 -0.23189,-1.11346 0.82872,0.22567 1.0998,1.38862 3.80043,3.14719 4.16824,2.71425 2.7037,-3.18243 2.74838,-3.60267 0.61293,-5.76498 l -1.65217,-1.67295 1.5464,0.78289 c 1.94813,0.98627 2.2872,0.97912 3.92483,-0.0827 2.33686,-1.51525 1.60704,-2.98194 -2.48456,-4.99312 l -2.07767,-1.02125 2.55767,-0.1922 c 2.39043,-0.17963 5.68045,-1.35589 6.24632,-2.23322 0.28947,-0.44879 -0.16241,-4.416337 -0.54676,-4.800693 -0.20085,-0.200846 -1.78194,-0.540702 -3.51354,-0.755237 -2.13491,-0.264503 -2.94234,-0.469208 -2.50835,-0.635935 4.39108,-1.68695 5.7461,-2.928066 6.44681,-5.904877 0.76808,-3.263032 0.35396,-3.887432 -2.9319,-4.420653 -1.01269,-0.164338 -5.26357,1.667806 -5.76972,2.486771 -0.15661,0.253404 -0.0135,0.24809 0.4836,-0.01796 0.38831,-0.207819 0.77405,-0.309822 0.8572,-0.226673 0.0832,0.08315 -0.9304,0.692958 -2.25233,1.355134 -5.43092,2.720437 -7.66766,7.464727 -4.14988,8.802183 0.72019,0.27382 0.76381,0.41226 0.57602,1.82792 -0.11428,0.86147 -0.0393,2.14016 0.17128,2.92231 0.28942,1.07483 0.28617,1.60378 -0.0143,2.32919 -0.36083,0.87112 -0.31073,1.02099 0.69723,2.08569 1.1467,1.21125 1.15881,1.20467 -0.994,0.54093 -0.54158,-0.16698 -0.64,-0.0498 -0.64,0.76221 0,0.69486 -0.39908,1.38921 -1.44682,2.51732 -1.07022,1.15229 -1.39472,1.72438 -1.24664,2.19779 0.1101,0.352 0.27602,1.13447 0.3687,1.73883 l 0.16851,1.09883 -1.03502,-1.17883 c -1.15323,-1.31345 -1.5361,-1.44326 -1.82517,-0.61883 -0.26022,0.74216 -1.287776,1.58614 -2.659195,2.1841 -1.187899,0.51795 -2.564367,1.66157 -2.564367,2.13056 0,0.15571 0.131005,0.20214 0.291122,0.10318 0.582422,-0.35995 1.308914,0.22545 1.310986,1.05639 0.0028,1.11135 0.86665,2.3809 2.419714,3.55599 1.55394,1.17575 1.48308,1.17565 2.65486,0.004 z M 68.851155,122.0452 c 0.763864,-0.81114 1.964291,-1.84333 2.667617,-2.29375 1.567085,-1.00357 0.999552,-1.31635 -1.001715,-0.55206 -1.96437,0.7502 -1.990668,0.50077 -0.09928,-0.94162 1.605797,-1.22459 1.978166,-2.00048 0.493087,-1.02742 -0.434009,0.28437 -1.338503,0.64722 -2.009986,0.80633 -0.671483,0.15911 -1.508879,0.38303 -1.860879,0.49761 -0.352,0.11457 0.483131,-0.3559 1.855846,-1.0455 3.145349,-1.5801 3.326648,-1.78735 1.344154,-1.53652 l -1.6,0.20244 1.09026,-0.70061 c 1.33862,-0.86019 0.751308,-1.15758 -0.816677,-0.41352 -0.662129,0.3142 -1.564855,0.47819 -2.147876,0.39019 -2.046357,-0.30888 -5.325707,2.02235 -5.325707,3.78594 0,1.05509 1.041476,2.70329 1.708176,2.70329 0.209948,0 1.027496,0.35361 1.816774,0.78581 1.973457,1.08063 2.298475,1.02538 3.886207,-0.66061 z m 54.079875,0.25212 c 0.94381,-0.49648 2.04036,-0.9875 2.43677,-1.09116 3.51861,-0.92014 -0.18299,-7.2249 -3.79877,-6.47028 -0.47452,0.099 -1.54342,-0.10739 -2.49185,-0.48123 -2.36183,-0.93094 -2.96468,-0.61363 -0.79757,0.41979 1.43978,0.68659 1.27983,0.93739 -0.31668,0.49658 -2.31053,-0.63797 -1.93913,-0.0562 0.91707,1.43665 1.584,0.82787 2.637,1.4338 2.34001,1.3465 -0.29699,-0.0873 -1.16099,-0.3258 -1.92,-0.52999 -0.75901,-0.2042 -1.7894,-0.58279 -2.28975,-0.84132 -1.47481,-0.76202 -1.27393,-0.31343 0.44751,0.99936 1.88736,1.43931 1.8467,1.73392 -0.13483,0.97717 -2.07014,-0.7906 -2.54487,-0.43377 -0.84802,0.6374 0.78786,0.49736 1.70899,1.25582 2.04696,1.68547 1.95145,2.48087 2.21948,2.56689 4.40915,1.41506 z m -62.79295,0.0591 1.018082,-0.20362 -0.874133,-0.91239 c -0.480773,-0.50182 -1.363666,-1.00424 -1.961985,-1.11649 -1.049023,-0.19679 -1.081207,-0.53917 -0.08005,-0.85152 0.616671,-0.19239 -0.86989,0.0122 -1.919999,0.26424 l -0.8,0.19202 0.75545,-0.66431 c 0.955916,-0.84059 0.521328,-0.85506 -0.83545,-0.0278 -3.110194,1.89632 0.182399,4.22303 4.698081,3.31989 z m 73.32295,-0.76764 c 1.46452,-0.78379 0.63345,-2.92882 -1.46103,-3.77101 l -0.96,-0.38601 0.96,0.8287 0.96,0.82871 -1.08004,-0.21878 c -0.68877,-0.13953 -1.00858,-0.10318 -0.8828,0.10034 0.11041,0.17865 -0.32004,0.41617 -0.97782,0.53957 -0.69428,0.13025 -1.01977,0.31642 -0.79552,0.45502 0.24349,0.15048 -0.0225,0.42632 -0.74214,0.76947 -0.61692,0.29419 -1.12168,0.68122 -1.12168,0.86007 0,0.43267 5.29108,0.42739 6.10103,-0.006 z m -2.9877,-3.06208 c -0.10633,-0.10633 -0.38233,-0.1177 -0.61333,-0.0253 -0.25528,0.10215 -0.17945,0.17798 0.19333,0.19333 0.33733,0.0139 0.52633,-0.0617 0.42,-0.16807 z m -74.403407,-1.80267 c 2.045619,-0.85912 2.381452,-1.31189 1.433677,-1.93289 -0.411174,-0.26942 -1.306801,-1.36763 -1.990281,-2.44047 -1.279785,-2.00886 -1.718266,-2.28402 -2.376249,-1.4912 -0.209712,0.25268 -0.839344,0.56962 -1.399183,0.70431 l -1.017888,0.24488 1.12,0.19396 1.12,0.19395 -1.36,0.43239 c -1.958869,0.62278 -1.677198,0.9692 0.8,0.98389 2.438549,0.0145 1.918925,0.67943 -0.978307,1.25194 -1.829723,0.36156 -0.05444,0.40125 2.098307,0.0469 0.836,-0.1376 1.52,-0.13409 1.52,0.008 0,0.40576 -1.079356,0.88088 -2.527014,1.11237 -1.731852,0.27693 -1.929345,0.67279 -0.615554,1.23383 1.171977,0.50048 1.923255,0.40294 4.172492,-0.54168 z m 81.241157,-0.52481 0.74198,-0.60083 -1.6685,-0.22947 c -0.91767,-0.12622 -1.99161,-0.50778 -2.38653,-0.84793 l -0.71803,-0.61844 1.6,0.18933 c 0.88,0.10413 2.032,0.25007 2.56,0.32432 0.528,0.0742 0.0273,-0.18131 -1.11268,-0.56789 -2.32016,-0.78681 -2.01541,-1.11371 1.09668,-1.17638 1.79465,-0.0361 1.64336,-0.36209 -0.464,-0.99968 l -1.44,-0.43567 1.12,-0.21615 c 0.616,-0.11888 0.88809,-0.2351 0.60465,-0.25827 -0.28344,-0.0232 -1.03232,-0.39295 -1.66418,-0.82175 l -1.14884,-0.77962 -1.27651,2.02121 c -0.70208,1.11167 -1.65727,2.32072 -2.12264,2.68678 -1.05419,0.82922 -0.83888,1.19974 1.24888,2.14919 2.03625,0.92602 4.02161,0.99756 5.02972,0.18125 z m -70.911082,-2.11821 c 1.056,-0.43112 2.064,-1.02706 2.24,-1.32433 0.176,-0.29727 0.572,-0.80512 0.88,-1.12856 0.6759,-0.70979 0.667812,-0.71063 -1.04,-0.10808 -2.908306,1.02611 -3.970716,0.60114 -1.6,-0.64 1.876489,-0.98241 1.986072,-1.09188 1.12,-1.11894 -0.948788,-0.0296 -0.943604,-0.0386 0.44392,-0.76443 1.456387,-0.7619 1.304887,-1.15663 -0.44392,-1.15663 -1.447254,0 -1.932098,-0.36538 -1.085836,-0.81829 0.707869,-0.37884 0.661326,-0.41324 -0.84245,-0.62268 -0.875443,-0.12193 -2.695706,-0.49559 -4.04503,-0.83036 -2.606185,-0.6466 -4.106683,-0.77442 -4.106683,-0.34983 0,1.03263 -0.916322,1.46713 -1.303232,0.61796 -0.219724,-0.48224 -0.524797,-0.8768 -0.67794,-0.8768 -0.153143,0 -2.686029,-1.15039 -5.628635,-2.55642 -4.945502,-2.36304 -6.032199,-2.496079 -2.070193,-0.25343 2.335868,1.32219 2.110928,1.32942 -1.065818,0.0343 -1.5102,-0.61571 -2.812209,-1.05307 -2.893354,-0.97193 -0.283574,0.28358 3.379278,2.48326 6.010121,3.6093 3.302708,1.41362 3.416019,1.53776 1.229051,1.3465 -2.319939,-0.2029 -1.033523,0.40565 2.56,1.21102 1.32,0.29583 2.561932,0.58105 2.759849,0.63383 0.197917,0.0528 0.453905,0.72315 0.568861,1.48974 0.662006,4.41457 4.546757,6.39256 8.991289,4.57808 z M 127.68,113.42549 c 1.65027,-0.8348 3.02647,-2.94761 3.3865,-5.19913 l 0.20481,-1.28082 2.76434,-0.54028 c 3.80253,-0.74319 5.50308,-1.52439 2.78074,-1.27742 -2.29057,0.2078 -2.26597,0.17438 0.80767,-1.09773 2.13086,-0.88192 7.65594,-4.01701 7.65594,-4.344212 0,-0.191244 -1.57928,0.319452 -3.81517,1.233722 -2.76069,1.12887 -2.8013,1.06276 -0.27742,-0.45157 2.92994,-1.757952 3.01783,-2.135307 0.19193,-0.823974 -6.91978,3.211054 -9.23259,4.422744 -9.54067,4.998404 -0.45345,0.84727 -0.78019,0.80377 -1.22045,-0.16248 -0.44111,-0.96813 -0.94639,-0.9918 -3.98411,-0.18662 -1.27276,0.33736 -3.14211,0.71395 -4.15411,0.83687 -1.87749,0.22804 -2.41454,0.64539 -1.12,0.87036 1.13119,0.19659 -0.72774,0.87939 -2.39417,0.87939 -1.56419,0 -1.40957,0.22192 0.80886,1.16098 l 1.66531,0.70492 -1.12,0.11633 -1.12,0.11633 1.92,0.94766 c 2.27291,1.12187 1.11749,1.60922 -1.61101,0.67953 l -1.40378,-0.47832 0.70739,1.09907 c 1.53626,2.38686 6.20652,3.54502 8.8674,2.19899 z M 64.245685,103.5522 c -2.643161,-0.56797 -2.685048,-0.94143 -0.08569,-0.76395 1.989738,0.13585 2.108857,0.11377 1.066191,-0.19766 -1.708916,-0.51042 -1.839365,-0.83059 -0.338409,-0.83059 1.527509,0 1.988166,-0.44839 1.002564,-0.97587 -0.476439,-0.25499 -0.620789,-0.25992 -0.470077,-0.0161 0.545438,0.88254 -5.564162,-0.0578 -7.448892,-1.146492 -2.57408,-1.486823 -10.111044,-7.394226 -12.79444,-10.028127 -2.973184,-2.918344 -3.65826,-3.152611 -1.691093,-0.578281 0.716524,0.937677 1.684557,2.208868 2.151185,2.824868 0.466627,0.616 -0.430811,-0.215333 -1.994306,-1.847406 -1.563496,-1.632073 -2.950719,-2.964073 -3.082719,-2.96 -0.667857,0.02061 -0.02436,1.140224 2.005332,3.48904 1.234932,1.429101 2.198909,2.598366 2.142169,2.598366 -0.05674,0 -0.588827,-0.358312 -1.182416,-0.796249 -1.743859,-1.286578 -1.497573,-0.700015 0.922821,2.197824 3.235259,3.873443 7.368473,6.914057 9.410385,6.922797 1.375047,0.006 2.492206,0.3274 2.287647,0.65838 -0.529154,0.85619 3.534444,1.78157 8.014061,1.825 l 1.92,0.0186 z m 66.826205,-1.77334 c 0.80038,-0.35405 1.37346,-0.77604 1.27351,-0.93776 -0.25071,-0.40566 0.58883,-0.6811 2.07596,-0.6811 1.92931,0 6.65698,-3.116979 8.8065,-5.806173 0.51267,-0.641393 1.55755,-1.901393 2.32193,-2.799999 1.47623,-1.735436 1.36788,-2.162736 -0.21144,-0.83383 -1.70272,1.432747 -1.43287,0.846758 0.6722,-1.459715 4.22912,-4.633729 3.70408,-5.56016 -0.61295,-1.081562 -2.9831,3.094741 -2.97736,2.984322 0.049,-0.942776 2.12783,-2.761122 1.50103,-2.580459 -1.68271,0.485002 -2.46883,2.377119 -5.11541,4.535798 -11.08151,9.038636 -2.76135,2.084091 -9.65712,3.996277 -10.0594,2.78946 -0.0949,-0.284603 -0.23329,-0.286094 -0.57061,-0.0061 -0.69167,0.574037 -0.22234,0.935037 1.24648,0.958757 1.40702,0.0227 1.38747,0.0441 -0.81888,0.89649 -0.46017,0.17777 0.14612,0.22059 1.68,0.11866 2.82952,-0.18805 2.82091,0.0568 -0.0252,0.71666 l -2.05479,0.4764 3.76833,-0.14365 c 2.84451,-0.10843 4.12508,-0.30145 5.22356,-0.78736 z m -63.871892,-3.0376 c 0,-0.07631 -0.467507,-0.890799 -1.038905,-1.809985 -1.075292,-1.729784 -1.339807,-3.544812 -0.798337,-5.477975 l 0.242758,-0.866698 -2.068953,0.778752 c -1.879899,0.707592 -2.233813,0.745643 -3.873137,0.41642 -2.008886,-0.403442 -1.854462,-0.604426 0.921402,-1.199211 2.417465,-0.51799 2.171048,-0.683351 -1.447391,-0.971287 -1.63759,-0.130311 -3.481436,-0.473587 -4.097436,-0.762836 l -1.12,-0.525907 1.92,0.171639 c 1.056,0.0944 2.351999,0.236136 2.879999,0.314966 l 0.96,0.143328 -0.96,-0.351242 c -0.528,-0.193182 -2.230392,-0.850906 -3.783095,-1.461608 -3.012823,-1.184989 -3.734011,-1.190706 -3.741804,-0.02966 -0.004,0.590169 -0.06485,0.638076 -0.317772,0.250043 -0.17208,-0.264 -0.285329,-0.93485 -0.251664,-1.490777 0.03366,-0.555927 -0.131859,-1.243407 -0.367829,-1.527733 -0.23597,-0.284326 -0.348927,-0.597065 -0.251017,-0.694975 0.09791,-0.09791 -0.358419,-0.662657 -1.014065,-1.254993 -0.655646,-0.592337 -2.263234,-2.307612 -3.572418,-3.811723 -2.428948,-2.790598 -3.279163,-3.140551 -1.758635,-0.723864 0.77044,1.224518 0.687949,1.173291 -0.927444,-0.575935 -1.375486,-1.489443 -1.77323,-1.773105 -1.773678,-1.264943 -3.18e-4,0.360281 0.589308,1.224281 1.31028,1.92 0.720972,0.695718 1.965909,2.109215 2.766527,3.141102 2.226294,2.869391 0.524998,1.651093 -2.179909,-1.561032 -2.526715,-3.000518 -2.864196,-3.199363 -2.843043,-1.675127 0.02416,1.740781 3.700747,6.980341 8.174704,11.649894 2.021872,2.110265 3.6487,1.800227 2.09796,-0.399826 -0.969763,-1.375813 -0.987002,-1.447269 -0.298183,-1.235986 1.200479,0.368224 1.392573,0.66872 1.860305,2.910097 0.759438,3.639235 2.576299,5.403513 7.043901,6.840039 2.492068,0.801307 8.306879,1.597237 8.306879,1.137043 z m 59.522112,-1.960699 c 6.50737,-1.234427 8.82723,-3.082537 10.08498,-8.034187 0.46349,-1.824733 0.74338,-2.366883 1.3691,-2.651981 1.1643,-0.530492 1.18312,-0.228784 0.0807,1.293124 -0.66736,0.921259 -0.88479,1.472544 -0.66677,1.69056 1.37799,1.377996 11.51978,-10.480088 11.5273,-13.478079 0.004,-1.511958 -0.37333,-1.312838 -2.54341,1.342893 -1.61708,1.978978 -3.85397,4.08069 -3.85397,3.621067 0,-0.308504 1.81042,-2.515798 3.53299,-4.307477 2.62817,-2.733611 2.55956,-3.743078 -0.082,-1.206466 -1.09395,1.050491 -1.75931,1.621983 -1.47859,1.269983 0.28073,-0.352 0.76065,-1.144 1.06649,-1.76 l 0.55608,-1.12 -1.1855,1.12 c -0.65202,0.616 -1.88579,1.995496 -2.7417,3.065546 -0.85592,1.07005 -2.15531,2.360719 -2.88754,2.868152 -0.73223,0.507433 -1.16532,0.977941 -0.96242,1.045573 0.27602,0.09201 0.27343,0.238004 -0.0103,0.579878 -0.20857,0.251301 -0.41208,1.039606 -0.45227,1.751789 -0.0856,1.517441 -0.79524,2.546359 -0.79524,1.153062 0,-1.034929 -0.65311,-1.127683 -2.26796,-0.322092 -0.59745,0.298049 -2.23957,0.947679 -3.64916,1.443622 -1.52158,0.535345 -2.10782,0.842109 -1.44288,0.755012 0.616,-0.08069 1.984,-0.229416 3.04,-0.330511 l 1.92,-0.183809 -1.44,0.629009 c -0.792,0.345956 -2.232,0.649671 -3.2,0.674923 -0.968,0.02525 -2.48,0.143248 -3.36,0.262213 l -1.6,0.216299 1.94099,0.555667 c 1.06755,0.305617 2.21235,0.555667 2.544,0.555667 1.14858,0 0.002,0.629385 -1.52916,0.839222 -1.14584,0.157056 -1.95448,0.03477 -3.43749,-0.519841 -2.30838,-0.863276 -2.27794,-0.880423 -1.83934,1.03627 0.41289,1.804333 -0.0282,3.476387 -1.42599,5.406033 l -0.89703,1.238315 h 1.72666 c 0.94966,0 2.91142,-0.224746 4.35947,-0.499436 z m -59.248496,-8.92668 c 1.44452,-0.432364 2.837896,-0.704958 3.096392,-0.605763 1.121657,0.43042 0.244312,-0.298324 -2.970008,-2.46696 -1.892,-1.276494 -4.52,-3.350773 -5.84,-4.609509 -1.32,-1.258736 -2.976,-2.711261 -3.679999,-3.227832 -0.704,-0.516572 -2.11601,-1.624699 -3.137799,-2.462506 -3.902864,-3.200119 -4.702201,-3.121903 -4.702201,0.460115 0,2.854596 1.442489,6.525931 3.307707,8.418572 0.6938,0.704 1.094358,1.045588 0.890129,0.759085 -0.469394,-0.658491 0.36448,-0.928755 2.682164,-0.869306 1.587119,0.04071 1.589897,0.04261 0.345013,0.235631 -2.835792,0.4397 -1.269059,1.28523 2.494986,1.346487 2.135359,0.03475 1.451217,0.514838 -0.821114,0.576205 -1.462546,0.0395 -1.77971,0.459441 -0.713794,0.945105 1.080905,0.492493 2.701863,0.4627 4.015829,-0.07381 1.40401,-0.573279 4.119079,-0.962417 4.119079,-0.590368 0,0.45045 -1.578667,1.058599 -3.267051,1.258563 -1.307291,0.154829 -1.478531,0.252401 -1.146052,0.653014 0.993634,1.197256 2.011249,1.245643 5.326719,0.253277 z M 125.66215,85.93011 126.56,85.140223 125.62812,85.13011 C 124.3845,85.11661 121.28,84.122312 121.28,83.737501 c 0,-0.432792 3.37071,0.0089 4.49167,0.588531 1.20995,0.625694 2.82353,0.599771 4.34925,-0.06987 l 1.23908,-0.543838 -2.4,-0.318171 -2.4,-0.318172 2.21349,-0.236726 c 4.30696,-0.460617 5.22956,-1.536645 1.33317,-1.554887 -0.51333,-0.0024 -0.85383,-0.08387 -0.75666,-0.181036 0.46635,-0.466356 5.08293,0.269447 4.90843,0.78232 -0.62834,1.846808 2.43372,-2.59471 3.28081,-4.758808 2.65368,-6.779488 0.7289,-9.333122 -3.89106,-5.162318 -0.7305,0.659483 -1.83218,1.547329 -2.44818,1.97299 -0.616,0.425662 -2.74405,2.24039 -4.72899,4.03273 -1.98494,1.79234 -4.36094,3.706782 -5.28,4.254315 -0.91906,0.547534 -2.31901,1.458165 -3.11101,2.023626 l -1.44,1.02811 1.6,0.217392 c 0.88,0.119565 2.248,0.430161 3.04,0.690213 2.18931,0.718857 3.35319,0.651452 4.38215,-0.253792 z M 48.918111,75.511321 c -0.179249,-0.787227 -0.245414,-1.946547 -0.147032,-2.576265 0.15379,-0.984379 0.03971,-1.276073 -0.813483,-2.08 -0.545797,-0.514282 -1.77367,-1.907058 -2.728607,-3.095058 -1.650007,-2.052708 -2.66899,-2.703482 -2.66899,-1.704552 0,0.250497 0.327414,0.862497 0.727588,1.36 1.57602,1.95934 1.625612,2.135784 0.312412,1.11153 l -1.36,-1.060757 v 1.440351 c 0,1.302329 0.130321,1.549616 1.36,2.580626 1.301155,1.090938 1.232342,1.535146 -0.125259,0.80858 -0.583844,-0.312463 -0.61044,-0.283036 -0.288264,0.318955 0.195207,0.364747 0.894386,0.938391 1.553731,1.274763 0.659344,0.336373 1.906765,1.196608 2.772045,1.911634 1.854375,1.532366 1.822269,1.538985 1.405859,-0.289807 z m 95.307069,-4.152018 c 1.74072,-0.958234 2.0593,-1.649483 0.64061,-1.390005 l -1.02579,0.187619 1.32275,-0.998752 c 1.33817,-1.010395 1.70495,-1.7209 1.71288,-3.318167 0.005,-0.985616 -0.35262,-1.126586 -0.97013,-0.382529 -0.87661,1.056244 -1.78628,1.298748 -0.99179,0.264393 1.53956,-2.004357 1.74394,-2.392212 1.42736,-2.708785 -0.4798,-0.479802 -1.13964,-0.08302 -2.02107,1.21535 -0.44,0.648124 -1.58743,2.031063 -2.54985,3.073197 -1.71134,1.853104 -1.75043,1.937951 -1.77664,3.856582 -0.0147,1.078986 -0.15074,2.388943 -0.30222,2.911016 -0.2742,0.945013 -0.26774,0.942751 1.45664,-0.5101 0.95264,-0.802628 2.3374,-1.792546 3.07725,-2.199819 z M 49.351369,67.782486 c -0.522676,-0.760368 -1.448333,-2.281645 -2.057017,-3.380615 l -1.106697,-1.998128 0.133847,1.838128 c 0.128586,1.76588 0.20508,1.902943 1.946172,3.487181 2.127092,1.935463 2.38618,1.948238 1.083695,0.05343 z M 141.3245,64.26783 c 0.82971,-0.882016 1.02943,-1.390995 1.14775,-2.92496 l 0.14324,-1.857128 -1.14775,2.17765 c -0.63126,1.197707 -1.44813,2.609415 -1.81527,3.137128 -0.36715,0.527713 -0.78915,1.167798 -0.93778,1.422412 -0.39025,0.668478 1.41159,-0.681339 2.60981,-1.955102 z"
     id="path1"
     transform="translate(-37.761192,-55.435846)" />
</svg>
