<?xml version="1.0" encoding="UTF-8" standalone="no"?>
<!-- Created with Inkscape (http://www.inkscape.org/) -->

<svg
   version="1.1"
   id="svg1"
   width="118.66948"
   height="85.429771"
   viewBox="0 0 118.66948 85.429774"
   sodipodi:docname="Icon_thief.svg"
   inkscape:version="1.4.2 (ebf0e940d0, 2025-05-08)"
   xmlns:inkscape="http://www.inkscape.org/namespaces/inkscape"
   xmlns:sodipodi="http://sodipodi.sourceforge.net/DTD/sodipodi-0.dtd"
   xmlns="http://www.w3.org/2000/svg"
   xmlns:svg="http://www.w3.org/2000/svg">
  <defs
     id="defs1" />
  <sodipodi:namedview
     id="namedview1"
     pagecolor="#505050"
     bordercolor="#eeeeee"
     borderopacity="1"
     inkscape:showpageshadow="0"
     inkscape:pageopacity="0"
     inkscape:pagecheckerboard="0"
     inkscape:deskcolor="#505050"
     inkscape:zoom="6.2605754"
     inkscape:cx="57.742296"
     inkscape:cy="20.125945"
     inkscape:window-width="1838"
     inkscape:window-height="1011"
     inkscape:window-x="40"
     inkscape:window-y="47"
     inkscape:window-maximized="1"
     inkscape:current-layer="svg1" />
  <g
     id="g2"
     transform="translate(-34.630076,-49.985394)">
    <path
       style="fill:#025ca7"
       d="m 91.287304,134.32 c -0.90441,-0.572 -3.85004,-2.70891 -6.545844,-4.74869 -2.695804,-2.03978 -7.133462,-5.19361 -9.861462,-7.00852 -5.41748,-3.6042 -8.190452,-5.6832 -18.559999,-13.91513 -3.784,-3.00395 -9.001229,-7.08454 -11.593842,-9.067974 -5.261618,-4.02531 -5.386662,-4.165246 -8.391992,-9.391433 -2.614217,-4.546054 -3.165316,-3.357578 5.319684,-11.472208 6.826272,-6.528305 9.870455,-8.813144 13.148377,-9.868629 1.098775,-0.353804 4.157772,-1.31721 6.797772,-2.140903 5.959674,-1.859447 5.337848,-1.093298 6.871643,-8.466515 2.204641,-10.598095 2.272811,-10.666025 2.07349,-2.066218 -0.196519,8.478937 -0.399445,7.780582 2.171413,7.472754 6.155231,-0.737011 18.328768,-1.883594 19.806192,-1.865476 l 1.717262,0.02106 -1.73817,0.467268 c -0.955993,0.256998 -2.827993,0.956601 -4.16,1.554673 -1.332007,0.598072 -4.29383,1.900931 -6.58183,2.895241 -4.596378,1.997476 -5.477537,2.577105 -4.926715,3.240804 0.676535,0.815175 2.424314,0.781247 9.406715,-0.182602 3.872,-0.53449 7.22,-0.973083 7.44,-0.974652 0.304267,-0.0022 0.4,1.286023 0.4,5.382459 v 5.38531 l -7.76,2.978051 c -4.268,1.637928 -7.862276,3.068013 -7.987279,3.177968 -0.25672,0.225814 14.122331,13.474796 15.109757,13.92226 0.412381,0.186876 0.637522,0.600052 0.637522,1.169972 0,0.96541 0.191878,0.91105 -5.12,1.45054 -3.084608,0.31327 -3.674142,0.60631 -2.08,1.03389 2.758194,0.7398 5.609727,1.3367 6.385765,1.3367 h 0.814235 v 13.504 c 0,8.16112 -0.115686,13.38372 -0.292393,13.2 -3.605252,-3.74837 -3.85819,-5.64508 -2.131563,-15.984 1.642278,-9.83385 2.096599,-8.45331 -3.369846,-10.23988 l -4.493841,-1.46869 -5.336179,0.3491 c -2.934898,0.192 -5.491515,0.40045 -5.681371,0.46321 -0.786317,0.25993 -3.362083,-0.50303 -6.240282,-1.84841 -5.345119,-2.49853 -6.273602,-2.695329 -8.214525,-1.74115 -1.174269,0.57729 -0.89771,1.04519 3.665729,6.20199 1.107849,1.2519 2.014271,2.37187 2.014271,2.48883 0,0.11695 -2.052,-1.52091 -4.56,-3.6397 -4.748467,-4.01157 -6.973543,-5.26081 -9.015191,-5.06146 -0.944718,0.0922 -0.867568,0.18051 1.895192,2.16829 7.153324,5.14676 22.784679,16.72183 26.559999,19.66777 5.390665,4.20642 10.071994,7.5401 10.588209,7.5401 0.224764,0 0.491904,0.26227 0.593644,0.58282 0.10174,0.32055 1.046412,1.29255 2.099271,2.16 2.92097,2.40658 2.30571,3.34809 -0.873818,1.33718 z m -10.807306,-31.56604 1.6,-0.22997 -1.739967,-0.54256 c -3.627883,-1.13124 -14.851998,-2.468737 -15.881685,-1.8925 -0.441774,0.24723 4.601677,2.20243 7.061652,2.73759 1.041038,0.22648 7.228043,0.17638 8.96,-0.0726 z m 7.52,-1.65695 c 1.32,-0.20444 2.521112,-0.44351 2.669139,-0.53126 0.148026,-0.0877 -1.731248,-2.194939 -4.176165,-4.682647 -2.444918,-2.487708 -5.474145,-5.657538 -6.731617,-7.044066 -2.403332,-2.64999 -3.038555,-2.887782 -3.383368,-1.266543 -0.106157,0.499127 -0.630632,2.921599 -1.165501,5.383271 -1.428458,6.574319 -2.21621,5.59178 6.547512,8.166515 1.354595,0.39798 2.455734,0.5495 3.2,0.44033 0.352,-0.0516 1.72,-0.26115 3.04,-0.4656 z m -33.01929,-2.493597 c 0.583535,-0.370037 -1.804304,-1.358383 -6.289687,-2.603351 -5.085978,-1.41167 -5.358821,-1.071868 -0.68681,0.855363 5.373636,2.216656 5.992788,2.371787 6.976497,1.747988 z m 15.09929,-0.03866 c 1.439165,-0.400497 1.584497,-0.656596 3.856631,-6.796014 2.294652,-6.200265 2.844621,-5.83215 -4.021085,-2.691462 -9.889231,4.523788 -15.268255,7.336593 -14.670129,7.671321 2.9733,1.663943 11.590531,2.718925 14.834583,1.816155 z M 50.842996,93.595626 c 0.543752,-1.565755 0.933996,-12.782055 0.438242,-12.595843 -0.670184,0.251729 -8.721239,10.480179 -8.721239,11.079883 0,1.628176 7.751358,3.046836 8.282997,1.51596 z M 65.599998,89.64785 c 6.562689,-2.459434 10.303783,-4.025975 10.290316,-4.308952 -0.02077,-0.436483 -5.411038,-5.951511 -5.616278,-5.746271 -0.106721,0.106721 -0.19903,1.646038 -0.205132,3.420704 l -0.01109,3.226667 -1.633526,-3.147165 c -2.245017,-4.325272 -1.955512,-4.331053 -8.403155,0.167802 -4.279784,2.986227 -4.207995,3.038117 -1.589131,-1.148637 1.173925,-1.876742 2.075568,-3.471099 2.003651,-3.543016 -0.19479,-0.19479 -6.771349,1.475224 -7.23565,1.83738 -0.623643,0.486442 -0.539073,8.605964 0.11265,10.815555 0.871412,2.954422 -0.143162,3.084393 12.287349,-1.574067 z M 45.265974,86.064006 c 6.061732,-6.166529 6.196175,-5.893723 -1.588343,-3.222991 -7.350555,2.521848 -7.04413,2.19014 -5.234812,5.666729 1.717947,3.30102 0.881563,3.600574 6.823155,-2.443738 z m 37.774024,-3.469325 c 9.642318,-4.126895 9.536277,-3.584419 0.88,-4.501853 -15.360545,-1.627986 -14.505855,-1.939024 -9.767682,3.554649 3.227222,3.741802 2.531469,3.667652 8.887682,0.947204 z M 69.590127,80.399998 c 0.391212,-5.276932 0.373476,-5.254936 4.992087,-6.191291 5.120957,-1.038199 5.152414,-1.266822 0.238382,-1.732498 -5.421415,-0.513758 -5.972191,-1.956793 -5.032372,-13.184836 0.419936,-5.01698 0.265437,-6.627786 -0.315688,-3.291374 -1.49799,8.600405 -2.764337,13.398469 -3.926022,14.875312 -0.78132,0.993287 0.109532,0.961541 -9.066515,0.323094 l -2.56,-0.178119 4.241713,2.06815 c 5.468998,2.666542 5.530472,2.836549 2.511987,6.946889 -2.196094,2.99047 -1.964514,3.04058 2.141081,0.46329 4.097965,-2.572499 3.763435,-2.592562 5.025218,0.301383 1.330222,3.05091 1.49712,3.012765 1.750129,-0.4 z m -24.348741,0.551038 c 6.49257,-1.622272 6.694252,-1.730809 8.918613,-4.799641 2.235225,-3.083821 2.231182,-2.86622 0.07291,-3.924735 -2.550021,-1.250648 -2.51525,-1.26616 -7.561164,3.373338 -2.536281,2.332 -5.146993,4.703601 -5.801583,5.270223 -1.978679,1.712776 -2.14762,1.709652 4.371224,0.08082 z m 12.534435,-3.030017 c 4.578202,-0.828304 4.783301,-1.44251 1.082466,-3.241641 -2.45322,-1.192613 -2.148992,-1.321654 -3.974999,1.686027 -1.352668,2.228028 -1.414835,2.417546 -0.740007,2.255951 0.405195,-0.09703 2.039838,-0.412179 3.63254,-0.700337 z m 7.909002,-9.521021 c 1.256024,-2.278921 1.059993,-2.554804 -1.127712,-1.587078 -2.925679,1.294167 -4.423411,3.143842 -2.717113,3.355592 2.7356,0.339485 2.665142,0.371893 3.844825,-1.768514 z M 78.045289,64.59966 c 2.02705,-0.888177 1.61818,-0.946282 -3.017989,-0.42889 -2.281016,0.254559 -4.255302,0.464274 -4.387302,0.466032 -0.132,0.0018 -0.24,0.79048 -0.24,1.752715 v 1.74952 l 3.12,-1.461816 c 1.716,-0.803999 3.752381,-1.738901 4.525291,-2.077561 z m 5.173065,53.44149 c -3.018029,-5.82937 -5.396986,-10.68937 -5.286571,-10.8 0.92885,-0.93069 6.005039,-0.3863 8.804897,0.94426 l 2.882082,1.36964 -0.181309,1.78247 c -1.480092,14.55105 -1.485555,14.69393 -0.6401,16.74248 0.127115,0.308 0.15849,0.56 0.06972,0.56 -0.08877,0 -2.630692,-4.76949 -5.648721,-10.59885 z m -1.970344,3.82991 c -3.830083,-2.74453 -16.817627,-15.23103 -17.851477,-17.1628 -0.312968,-0.58478 -0.04675,-0.53732 2.7686,0.4936 1.713176,0.62733 4.114719,1.40612 5.336762,1.73064 1.222043,0.32451 2.302408,0.69746 2.400812,0.82876 0.932936,1.24486 3.203346,4.96526 5.702855,9.34496 1.661649,2.91158 3.08666,5.40178 3.166693,5.53378 0.264038,0.43548 -0.09902,0.25233 -1.524245,-0.76894 z M 91.279998,95.281744 c -3.266696,-3.285399 -3.266707,-3.307339 -0.0018,-3.531123 3.182814,-0.218155 2.844082,-0.601827 2.733855,3.096559 l -0.09208,3.089679 z"
       id="path3" />
    <path
       style="fill:#6c0a0c"
       d="m 94.844263,134.66218 c -0.138462,-0.22404 0.07979,-0.58223 0.536199,-0.88 0.423337,-0.2762 1.635916,-1.18206 2.69462,-2.01303 1.058703,-0.83096 4.732918,-3.66622 8.164918,-6.30057 5.5215,-4.23822 12.87808,-10.37797 21.47961,-17.92673 1.51778,-1.33202 3.60578,-2.91385 4.64,-3.51517 6.89943,-4.01155 7.50495,-5.209014 1.60759,-3.17914 -2.56688,0.88352 -3.4952,1.03124 -7.5415,1.2 -5.76973,0.24065 -5.96443,0.48797 -2.14754,2.72807 l 1.23816,0.72666 -10.74739,9.16886 c -5.91106,5.04288 -10.82213,9.16887 -10.91349,9.16887 -0.34067,0 1.14663,-3.2679 5.09362,-11.19175 4.69008,-9.41564 4.78108,-8.40524 -0.78906,-8.76195 -4.02629,-0.25784 -6.19158,0.0886 -9.902187,1.58441 -3.300137,1.33033 -3.537815,1.34175 -3.537815,0.16995 0,-0.90293 0.04999,-0.9286 2.799999,-1.43754 3.763883,-0.69658 5.333433,-1.16069 4.998363,-1.47802 -0.23496,-0.22253 -5.874028,-0.9651 -7.328905,-0.9651 -0.419913,0 -0.516769,-1.0328 -0.131037,-1.39729 0.07787,-0.0736 1.65358,0.1335 3.501579,0.46018 5.157773,0.91178 7.496133,0.81405 12.077013,-0.50476 4.54011,-1.307073 5.13854,-1.355456 12.56299,-1.015714 l 5.6,0.256256 3.04,-1.496933 c 2.67828,-1.318818 3.45883,-1.546715 6.56,-1.915316 4.26493,-0.506926 4.66308,-0.653727 6.82613,-2.516857 1.2444,-1.071866 1.9805,-1.470894 2.72,-1.474468 1.57033,-0.0076 4.05387,-3.222702 4.05387,-5.248023 0,-2.01589 -4.45208,-5.506981 -11.11876,-8.718757 -5.78252,-2.785823 -7.91067,-4.869216 -6.32124,-6.18832 2.56498,-2.128751 -5.75574,-0.630942 -9.6,1.728091 -5.08993,3.12343 -5.88491,3.476427 -8.11844,3.604807 -7.42082,0.42654 -16.69081,1.128397 -17.641563,1.335693 l -1.12,0.244196 4.717503,3.503607 c 2.59462,1.926983 4.68262,3.685435 4.64,3.907671 -0.12884,0.671714 -9.935908,11.629054 -10.816425,12.085077 -2.253133,1.166908 -2.423688,-6.49102 -0.286264,-12.853236 1.681636,-5.005527 1.522619,-6.515906 -0.686015,-6.515906 -0.73127,0 -1.253281,-9.702184 -0.559348,-10.396117 1.455174,-1.455173 21.450352,-3.125754 23.317962,-1.948197 1.97111,1.242819 1.96183,1.250955 -1.84811,1.621612 -6.35317,0.618078 -16.3993,4.664221 -16.3993,6.604921 0,1.738847 3.41941,2.29004 11.65641,1.878958 7.84451,-0.391494 10.00055,-1.270758 13.2851,-5.417838 l 1.05381,-1.330541 -2.03766,-2.146399 C 121.5,65.149053 121.29661,65.007263 119.4593,64.658868 117.1631,64.223455 107.49534,63.126 100.97823,62.560951 c -5.513272,-0.478013 -6.246994,-0.598858 -5.877778,-0.968073 0.250513,-0.250513 12.962728,0.752476 20.331678,1.604161 l 6.47213,0.748034 4.40787,1.964074 c 2.42433,1.08024 6.09093,2.784598 8.148,3.787462 l 3.74014,1.823389 7.56579,7.189475 c 9.13549,8.681108 9.70442,11.769855 3.10331,16.848069 -0.88828,0.68335 -3.96728,3.218253 -6.84221,5.633118 -7.02222,5.89846 -13.62639,11.00493 -22.31546,17.25473 -3.97744,2.86086 -9.6077,6.95536 -12.5117,9.09889 -2.904,2.14353 -6.288,4.41135 -7.520003,5.03959 -1.232,0.62824 -2.672,1.43693 -3.199999,1.79709 -1.114006,0.75987 -1.318214,0.79498 -1.635735,0.28122 z m 23.344557,-32.78223 c 4.58346,-2.185693 -5.22066,-1.69163 -11.60687,0.58491 -0.10007,0.0357 1.61805,0.14368 3.81805,0.24 4.38822,0.19214 6.01804,0.0195 7.78882,-0.82491 z M 132.264,70.399998 c 1.46945,0 0.85909,-0.37824 -4.0407,-2.504003 -5.0796,-2.203774 -5.20155,-2.143416 -1.52055,0.752552 2.31675,1.822659 2.83662,2.099576 3.64,1.9389 0.51549,-0.103097 1.38005,-0.187449 1.92125,-0.187449 z M 94.89753,121.0527 c 0.03619,-5.24299 0.09698,-9.6047 0.135076,-9.6927 0.0381,-0.088 0.699095,3.00686 1.468874,6.87748 l 1.399597,7.03748 -1.145553,2.24252 c -1.985349,3.88649 -1.930756,4.07644 -1.857994,-6.46478 z m 4.746528,3.88556 c 0.105894,-0.27595 -0.01458,-1.53595 -0.267722,-2.8 -0.942701,-4.70733 -2.096339,-11.37242 -2.096339,-12.11149 0,-1.51717 4.771533,-3.46677 8.484703,-3.46677 1.66941,0 3.0353,0.076 3.0353,0.16885 0,0.70921 -8.80889,18.71115 -9.155925,18.71115 -0.105903,0 -0.10591,-0.22578 -1.7e-5,-0.50174 z M 103.44,98.95577 c -4.065742,-0.599162 -4.285611,0.0052 2.28323,-6.276076 6.81032,-6.512198 6.79861,-6.513258 8.04829,0.728215 0.60635,3.513666 0.75786,3.235739 -2.62901,4.822878 -3.02552,1.417808 -3.01068,1.41641 -7.70251,0.724983 z m 15.531,-0.948227 c -1.09095,-0.11457 -1.20509,-0.222292 -1.38403,-1.306207 -0.10726,-0.649736 -0.7569,-2.801338 -1.44365,-4.781338 -0.68674,-1.98 -1.14393,-3.5974 -1.01597,-3.594223 0.12795,0.0032 3.52948,1.790587 7.55895,3.972021 l 7.3263,3.966242 -1.95718,0.98798 c -1.99088,1.004995 -4.62385,1.223972 -9.08442,0.755525 z m 18.949,-4.147842 c -2.71561,-0.204582 -2.88,-0.300001 -2.88,-1.671621 0,-1.793689 0.93085,-10.345759 1.1498,-10.563675 0.58895,-0.586164 8.1302,8.756309 8.1302,10.072098 0,1.923985 -1.74523,2.51387 -6.4,2.163198 z m -14.56,-3.756612 c -9.19719,-4.295788 -8.79993,-3.666239 -5.38735,-8.537373 2.6396,-3.767773 11.21956,-4.586539 16.14748,-1.540917 0.38654,0.238895 -2.32007,12.858908 -2.88683,13.460317 -0.10632,0.112815 -3.6493,-1.409098 -7.8733,-3.382027 z m 21.86666,-1.863091 c -2.57087,-2.891281 -7.28371,-8.68962 -7.16188,-8.811454 0.35472,-0.354719 9.37725,4.6798 10.92986,6.098796 l 1.71188,1.564563 -0.63976,1.254048 c -0.97408,1.909346 -3.0893,1.863042 -4.8401,-0.105953 z M 108.8,83.333235 c -4.69911,-2.515523 -6.77225,-3.707656 -6.65376,-3.82615 0.20685,-0.206841 13.56841,-1.153923 14.80332,-1.049275 l 1.20588,0.102188 -2.30274,3.12 c -2.78582,3.774539 -2.99738,3.82413 -7.0527,1.653237 z m 19.77965,-5.733828 c -4.90793,-1.069894 -4.88312,-1.018147 -1.42184,-2.965665 3.88045,-2.183368 4.07228,-2.154384 5.88928,0.889822 1.93907,3.248723 1.61139,3.400985 -4.46744,2.075843 z"
       id="path2" />
  </g>
</svg>
