<?xml version="1.0" encoding="UTF-8" standalone="no"?>
<!-- Created with Inkscape (http://www.inkscape.org/) -->

<svg
   version="1.1"
   id="svg1"
   width="111.22338"
   height="109.94242"
   viewBox="0 0 111.22338 109.94242"
   sodipodi:docname="Icon_bureaucrat.svg"
   inkscape:version="1.4.2 (ebf0e940d0, 2025-05-08)"
   xmlns:inkscape="http://www.inkscape.org/namespaces/inkscape"
   xmlns:sodipodi="http://sodipodi.sourceforge.net/DTD/sodipodi-0.dtd"
   xmlns="http://www.w3.org/2000/svg"
   xmlns:svg="http://www.w3.org/2000/svg">
  <defs
     id="defs1" />
  <sodipodi:namedview
     id="namedview1"
     pagecolor="#505050"
     bordercolor="#eeeeee"
     borderopacity="1"
     inkscape:showpageshadow="0"
     inkscape:pageopacity="0"
     inkscape:pagecheckerboard="0"
     inkscape:deskcolor="#505050"
     inkscape:zoom="6.2605754"
     inkscape:cx="54.547701"
     inkscape:cy="51.592702"
     inkscape:window-width="1838"
     inkscape:window-height="1011"
     inkscape:window-x="40"
     inkscape:window-y="47"
     inkscape:window-maximized="1"
     inkscape:current-layer="svg1" />
  <path
     style="fill:#015aa7"
     d="m 83.905111,150.52166 c -0.178023,-0.33264 -0.47091,-1.40125 -0.65086,-2.37468 -0.448778,-2.42767 -4.756259,-10.78156 -10.140794,-19.66698 -2.548087,-4.20479 -8.830004,-16.63156 -10.595596,-20.96 -0.96918,-2.376 -2.456958,-5.616 -3.306172,-7.2 -0.849215,-1.584003 -2.475531,-4.680002 -3.614036,-6.880002 -8.025513,-15.508176 -12.347084,-20.155661 -17.060378,-18.347 -1.060358,0.406897 -0.207337,-3.028517 1.018559,-4.102099 0.332291,-0.291004 1.252165,-0.860612 2.044165,-1.265793 0.792,-0.405182 2.001605,-1.139088 2.688012,-1.630901 0.686407,-0.491814 1.550407,-0.899607 1.92,-0.906208 0.369593,-0.0066 1.679988,-0.56372 2.911988,-1.238043 2.616879,-1.432324 2.699591,-1.799783 1.102242,-4.896847 -0.518233,-1.004791 -0.942242,-2.029371 -0.942242,-2.276845 0,-0.705026 -1.289399,-2.165835 -1.705624,-1.932367 -0.248606,0.139447 -0.266873,0.103732 -0.05438,-0.106313 0.526341,-0.520267 3.980466,-1.132474 5.150783,-0.912921 1.301207,0.244108 1.290843,0.331724 0.289217,-2.445018 -0.44,-1.219783 -0.8,-2.337472 -0.8,-2.483754 0,-0.146283 2.844,-0.356643 6.319999,-0.467469 10.197196,-0.325117 12.735977,-0.755463 20.08,-3.403738 2.701923,-0.974321 3.176794,-1.043566 7.68,-1.119884 2.64,-0.04474 5.376,-0.236189 6.08,-0.425439 2.019073,-0.542771 2.129991,-0.496595 2.019316,0.84064 -0.11491,1.388408 0.478783,1.313739 -7.317652,0.920341 -3.980366,-0.200845 -4.463067,-0.163733 -5.849978,0.449763 -0.831403,0.36777 -2.407152,0.812298 -3.501664,0.987843 -1.094512,0.175544 -2.126822,0.454819 -2.294022,0.620612 -0.1672,0.165792 -0.712937,0.301441 -1.212748,0.301441 -1.41049,0 -3.298183,1.117225 -3.756266,2.223133 -0.457876,1.105411 -0.562835,1.141179 -1.428147,0.48669 -0.816064,-0.61724 -2.697647,-0.568838 -5.458839,0.140422 -2.182492,0.560611 -2.271603,0.559591 -3.471009,-0.03975 -1.600253,-0.799649 -1.577403,-0.862535 -1.025272,2.821688 1.056116,7.047178 1.468611,9.093123 2.574195,12.767821 0.635425,2.112 1.566935,5.712 2.070022,8 1.315988,5.985013 3.066668,12.180369 4.069142,14.4 0.476932,1.056 0.947198,2.487062 1.045036,3.180139 0.197955,1.402308 1.314952,1.959963 3.431025,1.712923 1.295677,-0.151263 0.851414,0.56173 -0.773139,1.240801 -1.25703,0.525445 -1.265287,0.643413 -0.19296,2.756774 0.465872,0.91814 1.239585,2.82136 1.719362,4.22936 2.665128,7.82135 4.155178,10.99142 7.776023,16.54345 1.67654,2.57073 3.939757,6.30812 5.029371,8.30529 2.066145,3.78711 4.383701,7.31126 4.808039,7.31126 0.198577,0 2.560202,-1.012 3.565661,-1.52795 0.124024,-0.0636 0.230081,2.11117 0.235683,4.83291 l 0.01019,4.94864 -1.195683,0.17507 c -2.519814,0.36897 -3.303592,0.62555 -3.599443,1.17835 -0.168305,0.31448 -1.023055,1.01299 -1.899445,1.55224 -0.969257,0.5964 -1.843863,1.45448 -2.232738,2.19059 -1.102198,2.08637 -1.19382,2.17405 -1.558943,1.49181 z m 2.201241,-10.53529 c 1.109945,-0.57398 1.198816,-0.36308 -1.71353,-4.06637 -2.355526,-2.99525 -3.124901,-3.53651 -2.274348,-1.6 1.58911,3.61802 2.027065,4.78939 2.033928,5.44 0.009,0.85306 0.607883,0.92245 1.95395,0.22637 z m -5.934878,-9.72373 c -0.778485,-1.53626 -1.451476,-2.30613 -1.451476,-1.66041 0,0.176 0.146058,0.41026 0.324573,0.52059 0.178515,0.11033 0.613441,0.76683 0.966503,1.45889 0.353062,0.69206 0.71343,1.25829 0.800818,1.25829 0.08739,0 -0.2008,-0.70981 -0.640418,-1.57736 z m -7.630768,-15.83385 c -0.785214,-1.47605 -1.67474,-3.45437 -1.976724,-4.39626 -0.99786,-3.11234 -2.446755,-7.05933 -5.444857,-14.832532 -4.512776,-11.700313 -7.125755,-20.354841 -8.936846,-29.6 -1.263326,-6.448956 -1.346628,-6.72 -2.065315,-6.72 -0.294009,0 -0.863914,-0.230687 -1.266457,-0.512639 -1.111177,-0.778299 -1.186162,-0.325685 -0.282633,1.70599 0.974548,2.19137 1.671291,4.597301 2.156505,7.446649 0.588313,3.454783 2.476119,11.215324 3.308295,13.6 0.429928,1.232 0.953677,3.104 1.163885,4.16 0.373651,1.877069 0.639944,2.589088 3.051811,8.16 0.647677,1.496 2.44385,5.844816 3.991495,9.664032 2.842377,7.01432 7.391632,15.71717 7.617359,14.57222 0.06113,-0.31005 -0.531305,-1.77141 -1.316518,-3.24746 z M 57.440709,86.082087 c -0.883678,-2.598121 -1.320309,-3.324295 -0.963298,-1.602089 0.261606,1.261974 1.46798,4.241273 1.645494,4.06376 0.06364,-0.06364 -0.243345,-1.171396 -0.682196,-2.461671 z m 1.480744,-20.869448 c -0.373962,-1.986952 -0.891815,-5.052641 -1.150785,-6.812641 -0.904872,-6.149638 -1.067612,-6.544704 -2.700265,-6.555099 -0.710201,-0.0045 -0.731,0.03832 -0.269493,0.5551 0.681432,0.763046 1.714619,4.332916 2.45815,8.493404 0.645583,3.612414 1.927842,8.346358 2.189784,8.084416 0.0839,-0.0839 -0.153429,-1.778228 -0.527391,-3.76518 z m 36.375796,77.232721 c -0.05349,-0.64095 -0.04896,-1.90343 0.01005,-2.80552 l 0.107306,-1.64016 2.292694,-0.89924 c 3.197021,-1.25394 10.715041,-4.92089 10.132701,-4.94228 -0.36964,-0.0136 -0.34678,-0.0951 0.0994,-0.35467 0.31869,-0.18538 0.77262,-0.26292 1.00872,-0.17232 0.64485,0.24745 0.84158,-0.12716 0.33356,-0.63517 -0.38374,-0.38374 -0.86427,-0.28112 -3.35886,0.71732 -2.71614,1.08712 -3.89755,1.83866 -1.66923,1.06187 3.13628,-1.09332 1.24324,0.19291 -3.21808,2.18651 -5.67452,2.53575 -5.553337,2.49427 -5.60421,1.9183 -0.01943,-0.22 -0.0974,-1.08963 -0.173269,-1.9325 -0.128834,-1.43135 -0.07596,-1.56456 0.801113,-2.01811 0.516478,-0.26708 1.492668,-0.98576 2.169312,-1.59707 1.147276,-1.03649 3.706594,-1.79766 6.731514,-2.00203 0.264,-0.0178 1.848,-0.12469 3.52,-0.23744 2.84041,-0.19156 6.08,-1.41724 6.08,-2.30034 0,-0.28569 -1.94026,-3.68458 -2.50747,-4.39251 -0.28203,-0.352 0.22209,0.0581 1.12026,0.91144 2.01288,1.91231 5.38408,2.79123 8.26721,2.15538 0.88,-0.19407 3.11602,-0.47031 4.96894,-0.61385 2.52313,-0.19547 3.813,-0.46429 5.13766,-1.07074 0.9728,-0.44536 3.20078,-1.18909 4.95106,-1.65272 1.75029,-0.46363 3.88217,-1.11034 4.73753,-1.43714 l 1.55519,-0.59417 -1.56077,-0.96035 c -1.71651,-1.05618 -4.01,-4.50776 -5.47366,-8.23756 -1.83843,-4.68484 -2.54838,-6.03242 -4.09415,-7.77135 -0.90397,-1.01692 -1.82934,-2.42494 -2.05638,-3.128943 -0.61922,-1.920096 -1.8111,-4.165745 -3.10636,-5.852772 -0.63647,-0.828975 -1.59218,-2.443227 -2.12382,-3.587227 -0.53163,-1.144 -1.57273,-2.944 -2.31356,-4 -1.38775,-1.978142 -3.31101,-5.605776 -4.10596,-7.744611 -0.24845,-0.668464 -0.89312,-2.262017 -1.43261,-3.54123 -0.53948,-1.279212 -1.43125,-3.871212 -1.98169,-5.76 l -1.00081,-3.434159 0.16228,-7.84 c 0.0893,-4.311999 0.30301,-8.415999 0.475,-9.119999 0.46799,-1.915525 0.70672,-6.24 0.34447,-6.24 -0.16955,0 -0.69845,0.28555 -1.17532,0.634555 -0.60068,0.439611 -1.60435,0.691771 -3.26704,0.820797 -1.32,0.102434 -3.264,0.38802 -4.32,0.634637 -1.056,0.246616 -3.03703,0.660183 -4.40228,0.919036 -1.365263,0.258854 -2.877263,0.747244 -3.360008,1.085311 -1.934785,1.354934 -2.680679,1.15501 -2.573004,-0.689649 l 0.09529,-1.632407 3.199999,-0.710804 C 100.48,43.550532 102.712,43.143463 103.68,43.036876 c 0.968,-0.106586 2.984,-0.461809 4.48,-0.789384 2.89709,-0.63437 6.95837,-1.287493 8.00594,-1.287493 0.9623,0 0.87666,4.293525 -0.16594,8.32 -1.92647,7.439859 0.0259,23.885421 3.56804,30.055428 0.46244,0.805514 1.65491,2.904571 2.64992,4.664571 0.99501,1.76 2.39045,4.064 3.10097,5.12 0.71051,1.056 2.42142,4.08 3.80201,6.72 1.38058,2.639999 2.97532,5.689842 3.54385,6.777422 0.56853,1.08758 1.08749,1.92362 1.15324,1.85787 0.0658,-0.0657 1.48081,2.06841 3.14458,4.74258 3.5147,5.64916 5.33864,7.64013 7.49708,8.18363 1.06258,0.26756 1.94457,0.8299 3.14821,2.00723 l 1.6721,1.63553 -1.12,0.47155 c -0.616,0.25935 -1.336,0.52308 -1.6,0.58607 -0.264,0.063 -1.45406,0.5083 -2.64456,0.98957 l -2.16456,0.87503 1.28807,1.31245 1.28807,1.31245 -2.40351,0.42706 c -1.32193,0.23488 -2.40351,0.48268 -2.40351,0.55067 0,0.068 0.37378,0.71572 0.83064,1.43942 0.89846,1.42327 0.79325,1.68471 -0.83064,2.06396 -0.44,0.10276 -1.736,0.51516 -2.88,0.91644 -2.51798,0.88325 -4.24879,1.36136 -5.81905,1.60744 -0.64848,0.10162 -2.16048,0.63993 -3.36,1.19623 -1.55805,0.72258 -2.86642,1.06801 -4.58095,1.20943 -1.90966,0.15751 -3.38069,0.59426 -7.2,2.13767 -5.92088,2.39268 -8.74342,3.16383 -12.57179,3.43476 -2.11127,0.14941 -3.658334,0.47468 -5.34275,1.12329 l -2.370959,0.91297 z M 120.72,128.10807 c -0.22,-0.0888 -0.58,-0.0888 -0.8,0 -0.22,0.0888 -0.04,0.1614 0.4,0.1614 0.44,0 0.62,-0.0726 0.4,-0.1614 z m 11.44,-0.736 c 2.44609,-0.35447 8.96399,-2.20732 8.9551,-2.54567 -0.0205,-0.78016 -0.61294,-1.0383 -1.63562,-0.71269 -1.72482,0.54917 -4.08547,1.35226 -6.83948,2.32678 -1.408,0.49823 -2.992,0.9233 -3.52,0.94459 -0.528,0.0213 -1.32,0.16507 -1.76,0.31951 -0.97329,0.34163 1.17488,0.19281 4.8,-0.33252 z m -42.206632,-5.10468 c -0.791462,-0.50115 -0.16618,-1.12508 2.166,-2.16131 l 2.28063,-1.01332 v 0.72502 c 0,0.53649 -0.333311,0.87532 -1.281841,1.30305 -0.705013,0.31791 -1.442645,0.77178 -1.639183,1.0086 -0.412106,0.49656 -0.890902,0.53985 -1.525606,0.13796 z m 5.089342,-2.79009 c 0.0057,-1.25125 14.52821,-7.47438 15.40242,-6.60017 0.64727,0.64727 -0.27188,1.53724 -2.18105,2.1118 -1.02525,0.30855 -2.87208,1.04774 -4.10408,1.64264 -2.23703,1.08021 -7.038574,2.951 -8.400002,3.27283 -0.550831,0.13022 -0.719363,0.0299 -0.717288,-0.4271 z m 28.03792,-1.98088 c 0.0388,-0.82303 0.22546,-1.9018 0.41491,-2.39725 0.61402,-1.60581 0.50787,-1.71183 -1.56388,-1.56197 -4.68287,0.33872 -6.52318,-2.87235 -4.15646,-7.25241 3.74306,-6.927239 13.33785,-3.3791 10.69557,3.95521 -0.25363,0.704 -0.46331,1.2992 -0.46596,1.32268 -0.003,0.0235 0.28319,0.11799 0.63519,0.21004 0.37436,0.0979 0.64,0.43648 0.64,0.81575 0,0.67417 0.31197,0.8342 2.32,1.19008 1.59804,0.28322 1.51609,0.54706 -0.48,1.54536 -1.31414,0.65724 -1.88747,0.78292 -2.63265,0.5771 -0.75407,-0.20828 -1.18028,-0.10865 -2.04466,0.47793 -0.6006,0.40758 -1.2782,0.74106 -1.50578,0.74106 -0.22758,0 -0.50524,0.28815 -0.61702,0.64034 -0.47804,1.50617 -1.31422,1.32809 -1.23926,-0.26392 z M 85.543325,113.4077 c -0.234906,-0.61216 0.138338,-0.87664 2.456673,-1.7408 0.968,-0.36082 2.717057,-1.15349 3.886794,-1.76147 2.620212,-1.36189 2.513206,-1.36812 2.513206,0.14622 v 1.25165 l -3.36,1.12514 c -1.848,0.61883 -3.36,0.98342 -3.36,0.81021 0,-0.17322 -0.320041,-0.0908 -0.711202,0.1832 -0.898563,0.62938 -1.179597,0.62659 -1.425471,-0.0142 z m 9.816673,-3.60795 v -1.23217 l 2.799999,-0.97635 c 1.54,-0.53699 3.592003,-1.2242 4.560003,-1.52714 0.968,-0.30294 2.14678,-0.74622 2.61951,-0.98507 0.79127,-0.39979 1.86049,0.002 1.86049,0.69844 0,0.26328 -3.41803,1.86943 -5.76,2.70665 -1.32,0.47189 -3.228003,1.23819 -4.240003,1.7029 l -1.839999,0.84492 z M 85.99252,97.360134 c -1.540701,-1.702455 -1.816812,-4.523509 -0.511134,-5.222287 0.409974,-0.219411 0.565392,-0.5384 0.445841,-0.915072 -0.10094,-0.318035 -0.03584,-0.966693 0.144667,-1.441463 0.224986,-0.591757 0.224008,-1.057894 -0.0031,-1.482266 -0.199684,-0.373113 -0.210297,-0.619048 -0.02671,-0.619048 0.167526,0 0.377224,0.18 0.465996,0.4 0.08877,0.22 0.172772,-0.06311 0.186667,-0.629144 0.04335,-1.765893 0.995226,-3.419036 1.529482,-2.656279 0.540544,0.771735 1.088484,0.57818 1.807101,-0.63834 0.482921,-0.81752 0.639285,-0.892586 1.169514,-0.561453 0.51221,0.319881 0.742129,0.260048 1.409332,-0.366757 0.461333,-0.4334 1.006382,-0.668752 1.293552,-0.558555 0.821424,0.315211 0.56054,1.085519 -0.491892,1.452399 -0.543495,0.189463 -1.06429,0.63555 -1.157322,0.991304 -0.09303,0.355754 -0.431855,0.646825 -0.752941,0.646825 -0.321086,0 -0.67303,0.144389 -0.782098,0.320865 -0.131668,0.213043 -0.409067,0.20807 -0.825499,-0.0148 -0.766557,-0.410249 -1.253966,-0.152632 -1.253966,0.662775 0,0.437828 -0.150567,0.553294 -0.531082,0.407276 -0.484696,-0.185995 -0.515125,0.199191 -0.348383,4.410043 0.235369,5.943961 -0.238915,7.503608 -1.768013,5.813975 z m 6.841031,-5.280136 c 0.03195,-2.513758 0.05148,-2.58226 0.408529,-1.43253 0.295624,0.951946 0.457819,1.124628 0.766447,0.816 0.308627,-0.308627 0.391471,-0.148157 0.391471,0.758293 0,0.726815 -0.176572,1.217521 -0.48,1.333957 -0.264,0.101306 -0.48,0.404713 -0.48,0.674236 0,0.269524 -0.144,0.490044 -0.32,0.490044 -0.190187,0 -0.306389,-1.070965 -0.286447,-2.64 z m 22.194809,0.587151 c -0.3089,-0.471447 -0.48385,-1.290544 -0.43124,-2.019115 0.14943,-2.06967 -0.65719,-2.573592 -2.1898,-1.368036 -0.4475,0.352 -1.03936,0.64 -1.31524,0.64 -0.27589,0 -0.96206,0.446278 -1.52482,0.991729 -1.25735,1.218677 -2.70299,1.119392 -1.91499,-0.131519 0.2426,-0.385116 0.55034,-1.70821 0.68388,-2.94021 0.25236,-2.328388 0.68112,-2.039489 0.75195,0.506666 0.0466,1.67416 1.6319,1.717444 1.6319,0.04456 0,-0.360875 0.10129,-0.385521 0.43754,-0.106458 0.33309,0.276439 0.53486,0.245871 0.84518,-0.128042 0.22998,-0.277107 0.65959,-0.411204 0.98574,-0.307686 0.46641,0.148033 0.64622,-0.08243 0.93062,-1.192775 0.73241,-2.859419 0.72829,-2.860884 1.59174,0.566138 1.05191,4.175064 0.77003,7.35629 -0.48246,5.444753 z m -19.668561,0.02332 c 4.65e-4,-0.630223 1.164507,-1.644746 1.785044,-1.555758 0.696601,0.0999 1.094935,-0.785108 1.58969,-3.531915 0.286038,-1.588042 0.785464,-1.215211 0.785464,0.586363 0,2.591704 1.279663,4.650708 1.743023,2.80455 0.1595,-0.635485 0.30364,-0.755048 0.57869,-0.48 0.20146,0.201458 0.85205,0.366287 1.44575,0.366287 1.61818,0 1.26004,0.979663 -0.54969,1.503629 -1.22092,0.35349 -1.52555,0.340728 -2.18529,-0.09155 -0.677767,-0.444089 -0.82836,-0.447412 -1.299542,-0.02867 -0.573316,0.509504 -3.893469,0.873715 -3.893139,0.427066 z M 77.333331,90.346664 c -0.571255,-0.571255 0.0364,-7.512346 0.692566,-7.910979 0.117756,-0.07154 0.218589,0.860454 0.224075,2.071095 0.01136,2.506624 0.516506,3.442185 1.291569,2.392056 0.252151,-0.341639 0.458457,-0.981161 0.458457,-1.421161 0,-0.769337 0.01741,-0.776191 0.454211,-0.178839 0.445939,0.60985 0.468503,0.607734 1.239102,-0.116197 0.729961,-0.685756 0.800551,-0.696953 1.008644,-0.16 0.20008,0.516277 0.263652,0.524479 0.600897,0.07753 0.20743,-0.274907 0.639572,-0.598389 0.960316,-0.718848 0.504347,-0.189414 0.554082,-0.45183 0.367962,-1.941483 -0.215899,-1.727999 0.16296,-2.573746 0.846661,-1.890045 1.407651,1.407652 0.701828,6.879088 -0.826888,6.409912 -0.985746,-0.302534 -1.24851,-0.245245 -2.337935,0.509726 -0.675054,0.467813 -1.54363,0.850569 -1.93017,0.850569 -0.38654,0 -0.7028,0.190898 -0.7028,0.424219 0,0.900753 -1.811416,2.137698 -2.346667,1.602447 z m 18.586667,-6.952121 c -0.847936,-0.643674 -0.802944,-4.202008 0.05896,-4.663286 1.269059,-0.67918 1.387173,-0.462015 1.168679,2.148741 l -0.20755,2.48 0.75177,-0.892284 c 0.445746,-0.529061 0.943985,-0.818525 1.223961,-0.711088 0.399168,0.153175 2.349242,-0.196751 5.647932,-1.013477 0.64833,-0.16052 0.69453,-0.100197 0.44334,0.578827 -0.19875,0.537273 -0.5493,0.77198 -1.20375,0.805953 -0.82348,0.04275 -1.93154,0.232265 -5.487261,0.938512 -0.574154,0.11404 -1.122653,0.334744 -1.218886,0.490451 -0.235594,0.381199 -0.51124,0.343185 -1.177197,-0.162349 z M 109.44,77.778883 c 0,-5.182846 0.35908,-5.469317 1.23607,-0.986114 0.8127,4.154541 0.83688,4.614396 0.23041,4.381671 -0.24943,-0.09572 -0.53292,0.03288 -0.62996,0.285763 -0.54568,1.422026 -0.83652,0.142103 -0.83652,-3.68132 z m -36.800002,1.790711 c 0,-1.02632 0.944834,-1.796393 2.435014,-1.984623 0.684742,-0.08649 1.484867,-0.232352 1.778056,-0.324133 0.293188,-0.09178 0.614087,-0.03578 0.713109,0.124436 0.1077,0.174262 0.729248,0.167999 1.54693,-0.01559 0.75179,-0.168794 2.011516,-0.38312 2.799391,-0.47628 1.856801,-0.219553 2.267094,-0.787123 2.037931,-2.819131 -0.129896,-1.151796 -0.02309,-1.965955 0.377812,-2.88 l 0.558901,-1.274275 0.437607,3.2 c 0.508166,3.71595 0.374272,5.036166 -0.429266,4.232628 -0.458881,-0.458881 -0.579319,-0.460034 -1.262971,-0.01209 -0.586827,0.384504 -0.857028,0.411085 -1.209041,0.118941 -0.491621,-0.408009 -1.58499,0.02679 -2.28923,0.910355 -0.223694,0.280654 -0.642886,0.375477 -1.11459,0.252123 -0.48969,-0.128056 -0.967683,-0.0062 -1.356754,0.345917 -0.56572,0.511968 -0.624769,0.510715 -1.013956,-0.02153 -0.36865,-0.504159 -0.434362,-0.510146 -0.608837,-0.05547 -0.107572,0.280328 -0.341993,0.419203 -0.520936,0.30861 -0.178942,-0.110592 -0.703379,0.09628 -1.165415,0.459718 -1.106539,0.870404 -1.713755,0.838654 -1.713755,-0.08961 z m 16.635729,-3.574742 c -0.820218,-0.988302 0.388366,-6.160155 1.363572,-5.835087 0.935314,0.311771 1.673145,1.82493 1.146602,2.351473 -0.459019,0.459019 -0.52393,0.399438 -0.723439,-0.664036 -0.315325,-1.680825 -0.963729,-1.237446 -1.079187,0.737949 -0.106559,1.823118 0.127186,2.014503 1.141759,0.934847 0.466789,-0.496732 1.046253,-0.72 1.868675,-0.72 1.390102,0 1.760492,0.587919 0.720904,1.144289 -0.398351,0.213191 -1.180104,0.87094 -1.737229,1.461665 -1.089239,1.15493 -2.056849,1.365847 -2.701657,0.5889 z M 78.921689,75.119998 c -0.106123,-0.396 -0.194918,-1.539501 -0.197322,-2.541114 -0.0043,-1.808369 -0.504438,-2.851806 -0.701491,-1.463632 -0.08486,0.597785 -0.327109,0.739326 -1.382878,0.807973 -1.929373,0.125449 -4,0.748772 -4,1.204124 0,0.352595 -0.661511,0.792649 -1.191548,0.792649 -0.260073,0 0.119333,-11.570335 0.402245,-12.26683 0.452721,-1.114542 0.779341,0.17357 0.784403,3.093497 0.0052,2.992007 0.599533,3.809986 0.996015,1.370781 0.39279,-2.4165 1.553904,-2.266123 1.563985,0.202552 0.0035,0.851156 0.144438,1.2 0.4849,1.2 0.264,0 0.48,-0.146743 0.48,-0.326096 0,-0.364553 1.532411,-0.08435 2.137684,0.390882 0.564961,0.443577 1.06039,-0.720985 1.073655,-2.523748 0.02501,-3.39938 0.829428,-3.333404 1.069911,0.08775 0.246003,3.499673 0.293482,3.625843 1.160653,3.084286 0.337038,-0.210483 0.836322,-0.296922 1.109522,-0.192086 0.273199,0.104836 0.704583,0.01811 0.958632,-0.192737 0.254049,-0.210842 0.612485,-0.290287 0.796524,-0.176545 0.420116,0.259646 0.971845,-1.146038 0.978319,-2.492539 0.0027,-0.560542 0.14449,-1.235168 0.3151,-1.499168 0.215227,-0.333041 0.3117,0.270677 0.3151,1.971873 l 0.0049,2.451873 1.25098,0.211351 c 0.855381,0.144516 1.550909,0.05625 2.199429,-0.27911 0.521647,-0.269754 1.035316,-0.403595 1.141487,-0.297423 0.106172,0.106171 0.292442,-0.066 0.413934,-0.382605 0.151096,-0.393749 -0.0094,-0.762125 -0.507918,-1.165801 -0.679983,-0.550616 -0.686881,-0.590158 -0.102959,-0.590158 1.524133,0 2.231236,2.199189 0.965047,3.001428 -0.926687,0.587135 -5.145539,1.281464 -6.337667,1.043039 -0.504635,-0.100927 -0.995129,-0.05793 -1.089987,0.09556 -0.09486,0.153484 -0.745402,0.202214 -1.445654,0.108291 -2.294405,-0.307745 -2.886692,0.397877 -2.886692,3.439063 0,2.4615 -0.357948,3.326563 -0.758309,1.832623 z m 16.448039,-1.44686 c -0.01058,-0.790049 0.444727,-1.041772 2.954862,-1.633649 2.17439,-0.512711 2.79541,-0.462707 2.79541,0.225087 0,0.469195 -0.19198,0.556403 -0.97263,0.441828 -0.632607,-0.09285 -1.184425,0.04893 -1.578504,0.405568 -0.430474,0.389574 -0.882269,0.487614 -1.560545,0.33864 -0.73051,-0.160447 -1.03381,-0.07361 -1.291761,0.369854 -0.307695,0.528979 -0.33795,0.516127 -0.346832,-0.147328 z m 1.463689,-6.077786 c -0.131724,-0.398556 -0.36318,-0.648207 -0.514347,-0.554781 -0.561387,0.346957 -0.671329,-0.562512 -0.435335,-3.601183 l 0.242263,-3.11939 0.463293,1.68 c 0.550918,1.997745 1.010706,2.179712 1.010706,0.4 0,-1.170288 0.366292,-1.661755 0.76169,-1.021988 0.589963,0.954582 2.413673,-0.0416 2.583693,-1.411315 0.096,-0.773683 0.25544,-2.054696 0.35422,-2.846696 0.33184,-2.660468 0.7804,-1.492357 0.7804,2.032248 0,4.66309 0.62819,6.503592 1.6,4.687751 0.23548,-0.44 0.68365,-0.8 0.99593,-0.8 0.31228,0 0.77254,-0.292338 1.0228,-0.64964 0.45113,-0.64407 0.45951,-0.642795 0.97815,0.148742 1.03322,1.576897 0.33007,2.711927 -1.69169,2.730721 -0.60214,0.0056 -1.37527,0.262177 -1.71806,0.570177 -0.59694,0.536341 -0.64359,0.529581 -1.10423,-0.16 -0.53092,-0.794776 -1.34326,-0.93164 -1.94689,-0.328013 -0.308546,0.308547 -0.524972,0.308937 -1.016728,0.0018 -0.644259,-0.402347 -1.424137,0.531939 -1.941741,2.326183 -0.176364,0.611355 -0.195346,0.607566 -0.424124,-0.08465 z"
     id="path1"
     transform="translate(-38.05662,-40.959999)" />
</svg>
