<?xml version="1.0" encoding="UTF-8" standalone="no"?>
<!-- Created with Inkscape (http://www.inkscape.org/) -->

<svg
   version="1.1"
   id="svg1"
   width="107.21563"
   height="86.100876"
   viewBox="0 0 107.21563 86.100878"
   sodipodi:docname="Icon_beggar.svg"
   inkscape:version="1.4.2 (ebf0e940d0, 2025-05-08)"
   xmlns:inkscape="http://www.inkscape.org/namespaces/inkscape"
   xmlns:sodipodi="http://sodipodi.sourceforge.net/DTD/sodipodi-0.dtd"
   xmlns="http://www.w3.org/2000/svg"
   xmlns:svg="http://www.w3.org/2000/svg">
  <defs
     id="defs1" />
  <sodipodi:namedview
     id="namedview1"
     pagecolor="#505050"
     bordercolor="#eeeeee"
     borderopacity="1"
     inkscape:showpageshadow="0"
     inkscape:pageopacity="0"
     inkscape:pagecheckerboard="0"
     inkscape:deskcolor="#505050"
     inkscape:zoom="3.1302877"
     inkscape:cx="59.259728"
     inkscape:cy="57.822161"
     inkscape:window-width="1838"
     inkscape:window-height="1011"
     inkscape:window-x="40"
     inkscape:window-y="47"
     inkscape:window-maximized="1"
     inkscape:current-layer="svg1" />
  <g
     id="g2"
     transform="translate(-40.783887,-53.760036)">
    <path
       style="fill:#015ca7"
       d="M 89.728483,139.49193 C 62.12623,137.02652 42.612517,116.02581 41.287855,87.359998 c -0.174861,-3.784 -0.387079,-7.384 -0.471595,-8 -0.152618,-1.112351 0.229056,-3.198954 1.258464,-6.88 0.532473,-1.904062 1.805498,-3.68 2.637892,-3.68 1.126883,0 4.704315,-2.293513 7.888802,-5.057559 2.599647,-2.25642 13.55125,-6.356755 18.59858,-6.963401 1.056,-0.126922 2.669885,-0.488269 3.586411,-0.802993 3.454883,-1.186364 11.215987,-2.207152 16.827915,-2.213309 l 2.494326,-0.0027 -0.04812,3.971514 c -0.04549,3.754909 -0.08554,3.984011 -0.734326,4.200624 l -0.686208,0.229109 0.72,0.141632 c 0.55851,0.109866 0.72,0.360749 0.72,1.118559 0,0.832096 -0.07116,0.917868 -0.48,0.578561 -0.264,-0.2191 -0.48,-0.581097 -0.48,-0.804436 0,-2.37633 -16.583236,-0.955718 -26.24,2.247863 l -2.4,0.796187 3.2,-0.147691 c 3.817686,-0.1762 3.788142,-0.159174 -1.907276,1.099141 -4.812564,1.063261 -9.956723,3.318943 -5.7965,2.54173 1.649653,-0.308189 20.758064,-1.594144 22.705258,-1.528016 0.725185,0.02463 -0.04948,0.159187 -1.721482,0.299021 -9.189113,0.768507 -15.426437,2.168974 -20.829926,4.676944 -3.771462,1.750482 -3.680133,1.942797 0.593933,1.250665 8.302693,-1.344519 19.463697,-1.994118 21.409821,-1.246107 0.341711,0.13134 -2.349837,0.657392 -6.453828,1.261376 -5.545133,0.816077 -7.855382,1.311907 -10.88,2.335086 l -3.84,1.299011 2.24,-0.177854 c 1.232,-0.09782 2.744,-0.24238 3.36,-0.321245 0.616,-0.07886 -0.248,0.290279 -1.92,0.820319 l -3.04,0.963711 1.92,-0.168759 c 1.056,-0.09282 2.64,-0.257608 3.52,-0.366202 2.018303,-0.249063 1.856643,-0.08387 -1.12,1.144455 l -2.4,0.990373 2.769578,-0.08279 c 2.924983,-0.08743 3.26873,0.105378 1.305965,0.732525 -3.103873,0.991756 0.03694,1.170227 4.848134,0.275487 0.860022,-0.159939 2.444022,-0.276142 3.52,-0.258228 l 1.956323,0.03257 -2.697913,0.452009 c -3.349366,0.561154 -3.598613,0.761443 -0.95542,0.767751 1.884498,0.0045 4.040218,0.591561 2.373333,0.646327 -0.352,0.01156 -1.648,0.370051 -2.88,0.796635 l -2.24,0.775609 2.08,-0.147365 c 8.801413,-0.623599 14.31715,-0.854777 16.704031,-0.700137 4.405727,0.285434 4.428602,0.735374 0.04931,0.969917 -5.09397,0.272818 -7.283235,0.848559 -2.99334,0.787199 6.286329,-0.08992 6.72,-0.03397 6.72,0.866882 0,0.610593 -0.170467,0.804557 -0.72,0.819249 -12.127177,0.324213 -16.584614,1.21032 -6.24,1.240467 l 6.96,0.02028 v 0.778074 c 0,0.753321 -0.07381,0.777809 -2.32,0.769719 -4.448084,-0.01602 -6.470547,1.526349 -2.124663,1.620309 6.073137,0.131305 6.394316,1.49597 0.364663,1.549428 -2.244,0.0199 -4.944,0.235595 -6,0.479332 l -1.92,0.44316 4.76296,0.223077 c 2.619628,0.122692 5.319628,0.312091 6,0.420887 l 1.23704,0.197811 v 1.67529 1.67529 l -2.16,0.215243 c -6.57616,0.655311 -6.435754,0.662753 -10.782595,-0.571552 -2.249231,-0.638679 -5.693286,-1.449911 -7.653457,-1.802737 -4.520876,-0.813747 -4.51699,-0.812365 -4.948525,-1.759482 -0.540252,-1.185724 -3.255423,0.195759 -3.255423,1.656363 0,0.322063 3.716528,1.709787 4.579058,1.709787 0.223091,0 0.939728,0.272305 1.592528,0.605121 1.779697,0.907341 2.467939,1.017893 8.218116,1.320086 2.909664,0.1529 6.370298,0.50835 7.690298,0.78988 1.32,0.28152 3.372,0.5417 4.56,0.57818 l 2.16,0.0663 4.52e-4,6.56021 4.52e-4,6.56022 -4.240452,-0.0935 c -2.474688,-0.0546 -6.239217,-0.41439 -9.040452,-0.86404 -2.64,-0.42377 -5.78257,-0.87065 -6.98349,-0.99305 -2.076543,-0.21167 -2.441593,-0.73875 -0.53651,-0.77465 0.679462,-0.0128 0.727677,-0.074 0.32,-0.40606 -1.146636,-0.93398 -0.693193,-1.18824 2.16,-1.21115 3.449312,-0.0277 4.778393,-0.41287 2.501581,-0.72494 -0.852999,-0.11691 -2.358808,-0.21478 -3.346244,-0.21747 -2.261721,-0.006 -3.442249,-0.6052 -1.315337,-0.66744 1.159421,-0.0339 0.737766,-0.18115 -2.164042,-0.7556 -5.76643,-1.14156 -4.473797,-1.44226 2.004042,-0.4662 2.081773,0.31368 10.94106,0.40853 10.646521,0.11399 -0.09908,-0.0991 -1.887081,-0.22873 -3.973334,-0.2881 -3.80799,-0.10838 -10.875101,-1.03932 -14.800232,-1.94962 -4.864381,-1.12813 -12.358265,-4.37141 -8.832954,-3.82283 l 1.28,0.19919 -0.96,-0.84693 c -1.272022,-1.122216 -4.234395,-3.056098 -4.549895,-2.970249 -0.137558,0.03743 -0.856369,-0.249054 -1.597357,-0.636631 -1.740574,-0.910415 -1.977435,-0.888971 -1.052748,0.09531 0.884687,0.941707 0.607715,1.041348 -0.590602,0.21247 -1.665018,-1.151697 -1.791923,-1.087752 -0.529398,0.266752 l 1.28,1.373252 -1.76,-1.367677 c -1.338652,-1.040253 -1.783779,-1.247987 -1.859327,-0.86772 -0.234014,1.177906 0.878861,2.325381 3.917749,4.039553 5.26325,2.96889 6.820345,4.64262 3.435546,3.6929 -2.89245,-0.81158 -3.026977,-0.42927 -0.451551,1.28328 3.27878,2.18024 2.723198,2.39551 -1.634757,0.6334 -2.236108,-0.90415 0.923521,2.36125 4.16935,4.30892 2.646003,1.58774 3.423542,2.50478 1.824752,2.15213 -3.471056,-0.76563 -5.516269,-0.45431 -2.652363,0.40374 1.241267,0.37189 4.614557,2.53171 4.356762,2.7895 -0.06654,0.0665 -1.687757,-0.37624 -3.602713,-0.98395 -4.062921,-1.28937 -4.209652,-1.27201 -2.133123,0.2523 2.208707,1.62134 2.744325,1.76621 8.007382,2.1657 2.586261,0.19632 5.278292,0.46697 5.982292,0.60145 l 1.28,0.24452 -1.046659,0.24107 c -1.637542,0.37716 -1.548011,0.79841 0.169693,0.79841 1.939212,0 4.896236,0.84597 4.793206,1.37128 -0.04566,0.2328 0.37301,0.42481 1.04376,0.47871 1.5394,0.12368 5.410413,0.91163 6.48,1.319 1.549279,0.59007 1.061975,1.07812 -0.8,0.80123 -1.817372,-0.27027 -1.885053,-0.2704 -6.16,-0.0122 -1.584,0.0957 -3.528,0.19202 -4.32,0.21406 l -1.44,0.0401 0.96,0.41178 c 0.528,0.22648 2.870202,0.57322 5.204893,0.77052 5.606367,0.47381 9.323266,1.50693 6.056222,1.68336 -0.53571,0.0289 -0.480862,0.0856 0.232486,0.24 2.162909,0.4683 -1.980531,2.28214 -5.213212,2.28214 -1.584893,0 -0.379824,0.57481 4.360583,2.08 4.860497,1.54331 5.180746,1.60154 9.039028,1.64365 2.435687,0.0266 3.374275,-0.037 2.4,-0.16247 l -1.6,-0.20612 1.76,-0.23475 c 0.968,-0.12911 2.156,-0.236 2.64,-0.23753 l 0.88,-0.003 V 136 c 0,3.78192 -0.01089,3.83933 -0.72,3.79599 -0.396,-0.0242 -2.030182,-0.16103 -3.631514,-0.30406 z m -9.248485,-32.78859 c -0.31344,-0.12355 -19.549591,-4.14621 -21.44,-4.48353 -3.194476,-0.57002 5.074715,2.26905 9.92,3.40584 2.208102,0.51806 12.556204,1.48612 11.52,1.07769 z m -2.303869,-2.70735 c -0.838661,-0.33771 -4.792185,-1.14848 -6.816131,-1.39782 -1.180717,-0.14545 -0.950244,-0.0121 1.28,0.74084 2.499524,0.8438 7.462725,1.43279 5.536131,0.65698 z m 8.837202,-6.835929 c -0.07333,-0.06597 -0.997333,-0.207564 -2.053333,-0.314664 -1.266988,-0.128499 -1.702329,-0.09536 -1.28,0.09744 0.60517,0.276272 3.617188,0.472553 3.333333,0.217219 z M 61.081017,94.248 c 0.594561,-0.300774 1.818561,-0.778746 2.72,-1.062161 l 1.638981,-0.515301 -2.08,-0.22053 c -2.846151,-0.301761 -4.905339,-0.997351 -7.96869,-2.691807 -1.430043,-0.791012 -2.675936,-1.438203 -2.768651,-1.438203 -1.186828,0 -2.309431,-1.820886 -1.502658,-2.437342 0.482259,-0.368495 0.337884,-0.400436 -1.04,-0.230087 l -1.6,0.19781 0.8,-0.880036 0.8,-0.880036 -0.72,-0.484186 c -0.396,-0.266302 -0.72,-0.795574 -0.72,-1.17616 0,-0.432991 -0.367624,-0.909135 -0.982251,-1.272204 -0.696954,-0.411701 -0.920576,-0.73381 -0.769913,-1.108994 0.116785,-0.290821 0.321753,-1.307299 0.455485,-2.25884 0.200747,-1.42838 0.431282,-1.883623 1.322007,-2.610597 0.6584,-0.537359 1.081941,-1.172584 1.086766,-1.629925 0.007,-0.665667 0.177746,-0.760301 1.527906,-0.846936 2.417527,-0.155124 1.815667,-1.153853 -0.913515,-1.515892 -2.127,-0.282157 -5.035371,0.337799 -6.13773,1.308335 l -0.868755,0.764865 0.908446,0.01011 0.908446,0.01011 -0.844333,1.003432 c -0.681849,0.810332 -0.801635,1.195211 -0.622459,2 0.122029,0.548112 0.174821,1.500568 0.117314,2.116568 -0.417172,4.468636 -0.128475,5.264968 3.437897,9.482962 1.686403,1.99453 7.641631,4.902154 10.580596,5.165947 2.014356,0.180802 2.248791,0.446347 1.374888,1.557335 -0.881681,1.120876 -0.843152,1.672059 0.0592,0.846967 0.396,-0.362092 1.206459,-0.904436 1.801019,-1.205209 z m -5.081018,-5.608002 c -0.264,-0.17061 -0.624,-0.3102 -0.8,-0.3102 -0.176,0 -0.104,0.13959 0.16,0.3102 0.264,0.17061 0.624,0.3102 0.8,0.3102 0.176,0 0.104,-0.13959 -0.16,-0.3102 z m -5.44,-5.692339 c 0,-0.138786 -0.288,-0.817234 -0.64,-1.507661 -0.688421,-1.350298 -0.863037,-0.895306 -0.288696,0.752248 0.314592,0.902439 0.928696,1.401959 0.928696,0.755413 z m -1.38807,-3.987661 c -0.08877,-0.22 -0.161404,-0.04 -0.161404,0.4 0,0.44 0.07263,0.62 0.161404,0.4 0.08877,-0.22 0.08877,-0.58 0,-0.8 z m 5.754992,-9.615901 c 0.238193,-0.140745 0.433078,-0.457417 0.433078,-0.703714 0,-1.09028 8.025859,-5.412205 11.927242,-6.42282 1.096016,-0.283913 2.496757,-0.727667 3.112757,-0.98612 0.616,-0.258454 2.250575,-0.668132 3.63239,-0.910396 1.381814,-0.242265 2.749814,-0.647993 3.04,-0.90162 0.741757,-0.648307 2.90293,-0.917876 9.16761,-1.143503 l 5.44,-0.195925 0.100274,-1.04 0.100275,-1.04 h -3.47473 c -2.711634,0 -4.174317,0.182692 -6.660275,0.831881 -1.752049,0.457535 -4.409544,1.032583 -5.905544,1.277885 -9.475513,1.553718 -12.24865,2.322978 -18.817615,5.219949 -5.466601,2.41082 -10.135528,6.295503 -6.215088,5.171136 1.418451,-0.406807 2.257276,-0.09565 2.857102,1.059822 0.364962,0.703042 0.564824,0.857014 0.674108,0.519326 0.08544,-0.264 0.350224,-0.595155 0.588416,-0.735901 z m 33.735056,61.187623 c -7.444085,-1.46023 -7.378373,-2.61701 0.201578,-3.54853 1.770845,-0.21763 2.828049,-0.46687 2.487291,-0.5864 -0.414487,-0.1454 -0.09333,-0.30663 1.068242,-0.5363 l 1.66091,-0.32841 v 2.67396 2.67396 l -2,-0.0351 c -1.1,-0.0193 -2.63811,-0.16024 -3.418021,-0.31322 z m -4.661979,-6.07419 c -0.80337,-0.18562 -0.837857,-0.22799 -0.211375,-0.25967 0.683279,-0.0346 8.412227,-1.74058 9.731375,-2.14802 0.477559,-0.14751 0.56,0.045 0.56,1.30743 v 1.4804 l -4.56,-0.0792 c -2.508,-0.0435 -4.992,-0.17898 -5.52,-0.30098 z m 0,-4.44424 c -6.625296,-0.1196 -9.798314,-0.29247 -10.24,-0.55791 -0.518563,-0.31164 -0.123894,-0.35112 2.08,-0.20809 2.442346,0.1585 10.054059,-0.9555 17.68,-2.58753 0.483652,-0.10351 0.56,0.13783 0.56,1.7702 0,1.03952 -0.108,1.86002 -0.24,1.82333 -0.132,-0.0367 -4.56,-0.14469 -9.84,-0.24 z m -5.68,-38.625222 c 0.22,-0.08877 0.58,-0.08877 0.8,0 0.22,0.08877 0.04,0.161404 -0.4,0.161404 -0.44,0 -0.62,-0.07263 -0.4,-0.161404 z m 10.08609,-0.329827 c 0.31135,-0.08113 0.74335,-0.0758 0.96,0.01186 0.21665,0.08766 -0.03809,0.154038 -0.56609,0.147516 -0.528,-0.0065 -0.70526,-0.07824 -0.39391,-0.159373 z M 71.919998,65.694164 c 0.396,-0.07627 1.044,-0.07627 1.44,0 0.396,0.07627 0.072,0.138678 -0.72,0.138678 -0.792,0 -1.116,-0.0624 -0.72,-0.138678 z m 6.976582,-0.538549 c 1.843791,-0.477458 8.099798,-1.00533 7.748254,-0.653786 -0.231742,0.231742 -3.819795,0.683728 -7.444836,0.937825 l -1.92,0.134582 z"
       id="path3" />
    <path
       style="fill:#6e0a0d"
       d="m 94.948633,136.96754 c -0.220562,-3.40441 -0.01024,-5.12754 0.625846,-5.12754 1.08547,0 6.619961,-0.70296 7.187531,-0.91292 0.3442,-0.12733 -1.25245,-0.17298 -3.548101,-0.10145 l -4.173911,0.13004 -0.02909,-1.63784 c -0.016,-0.90081 -0.04307,-2.10583 -0.06016,-2.67783 -0.02714,-0.90859 0.107954,-1.08827 1.069091,-1.42194 l 1.100154,-0.38194 -1.017743,-0.0181 c -0.804305,-0.0143 -1.039701,-0.16906 -1.122444,-0.73806 -0.176503,-1.21378 0.109805,-2.48 0.560757,-2.48 0.860702,0 3.698422,-0.70768 3.526622,-0.87948 -0.09733,-0.0973 -1.079271,-0.26327 -2.182081,-0.36875 l -2.00511,-0.19177 -0.09532,-1.8181 -0.09532,-1.81809 1.535316,-0.20028 c 0.844423,-0.11015 2.255315,-0.30992 3.135315,-0.44394 l 1.600005,-0.24367 -2.945331,-0.4214 -2.945327,-0.4214 -0.09467,-1.79656 c -0.05207,-0.98811 -0.05183,-3.9723 5.27e-4,-6.63152 l 0.0952,-4.83497 2.4648,-0.20748 c 1.35564,-0.11411 4.624801,-0.35293 7.264801,-0.53071 5.49362,-0.36994 9.38471,-0.970639 13.28,-2.050149 3.19216,-0.884651 8.50763,-1.587463 9.71478,-1.284487 0.77536,0.194602 0.84522,0.131402 0.84522,-0.764712 0,-1.508058 -1.31107,-2.869497 -2.28576,-2.373582 -3.86598,1.966979 -11.92639,3.469127 -21.07424,3.92742 -3.432,0.171939 -7.139777,0.404706 -8.239503,0.517261 l -1.999501,0.204645 0.04201,-1.822065 c 0.03048,-1.322033 0.152719,-1.779581 0.445436,-1.667255 0.380844,0.146144 1.751561,-1.027384 1.751561,-1.499583 0,-0.120656 -0.503999,-0.219375 -1.119999,-0.219375 -0.81153,0 -1.12,-0.140473 -1.12,-0.510029 0,-0.539617 2.109599,-0.446271 4.319999,0.191154 0.528,0.152262 1.785497,0.439986 2.794427,0.639386 1.00893,0.199401 1.91743,0.496858 2.01888,0.661017 0.24867,0.40235 -0.23636,0.37723 -3.04004,-0.157446 -2.398846,-0.457471 -3.041393,-0.36233 -3.810336,0.564189 -0.327988,0.395202 -0.007,0.496625 2.186318,0.690777 2.703988,0.239357 3.148048,0.524885 1.690758,1.087145 -1.721787,0.664307 7.28331,-0.247474 13.35867,-1.352588 l 2.07868,-0.378113 -0.1032,-1.197746 c -0.12384,-1.437482 0.2044,-1.50712 1.30128,-0.276066 0.62514,0.70162 1.02092,0.883505 1.65762,0.761791 1.24347,-0.237704 1.27646,-0.530962 0.33646,-2.990907 -1.30777,-3.422416 -0.40552,-3.406498 3.05488,0.0539 2.4108,2.410804 3.07103,2.733128 2.73152,1.33354 -0.67632,-2.788104 -2.21576,-4.864301 -5.16964,-6.972148 -2.55489,-1.82313 -2.49393,-1.936724 0.53404,-0.995157 3.47402,1.08027 5.80797,2.283227 7.65928,3.94771 1.93482,1.739566 2.66695,1.533468 1.3934,-0.392245 -2.09335,-3.165309 -5.66315,-6.04952 -10.07784,-8.142359 -3.30972,-1.569013 -2.94906,-1.600049 1.81451,-0.156145 5.12458,1.553329 7.24117,2.694974 9.86971,5.323506 2.50727,2.507274 2.83745,2.617863 1.49475,0.500648 -2.21391,-3.490976 -10.11005,-9.49495 -13.51893,-10.279376 -1.08158,-0.248883 -2.7467,-1.648459 -2.38804,-2.007211 0.74463,-0.74484 14.50032,7.076667 17.38159,9.883201 2.64524,2.57663 2.8486,1.57228 0.22391,-1.105866 -2.40959,-2.458663 -1.59348,-2.356006 1.03536,0.130236 1.36569,1.291611 1.70848,1.479106 2.01936,1.104515 0.40586,-0.489033 -0.0435,-0.917156 -5.88737,-5.609222 -4.19183,-3.365626 -7.57768,-5.552218 -11.16911,-7.213032 -3.64151,-1.683981 -3.83002,-1.990346 -0.68867,-1.119277 1.21716,0.337508 2.27247,0.554197 2.34513,0.481532 0.33321,-0.333209 -2.16001,-1.235086 -4.19333,-1.51686 -1.23796,-0.171554 -3.18268,-0.662662 -4.3216,-1.09135 -2.34277,-0.881816 -2.46599,-0.862149 -1.93262,0.308472 0.35788,0.785453 0.28313,0.941497 -1.10802,2.31299 -1.61756,1.594713 -1.73487,1.923727 -1.02196,2.866277 0.68134,0.900805 0.5954,1.196951 -0.28334,0.976402 -0.44947,-0.11281 -0.82338,-0.04454 -0.89255,0.16296 -0.0841,0.252453 -0.58423,0.215168 -1.70648,-0.127233 l -1.58745,-0.484334 1.68,-0.03332 c 2.08464,-0.04134 2.13619,-0.414641 0.16,-1.158547 -2.65707,-1.000208 -2.98136,-1.372621 -1.41358,-1.62332 1.72563,-0.275939 1.68189,-0.463534 -0.34642,-1.485796 l -1.68,-0.846712 3.01333,-0.01947 c 3.60559,-0.0233 3.55873,-0.114157 -0.8397,-1.627974 -3.66708,-1.262109 -4.46962,-1.897685 -2.4403,-1.932605 0.95668,-0.01646 0.55758,-0.189338 -1.81333,-0.785458 -5.877014,-1.47766 -7.453113,0.368208 -4.268013,4.998529 0.994191,1.4453 1.136577,1.91049 1.248707,4.079675 l 0.126561,2.448362 -0.507975,-1.6 c -0.279386,-0.88 -0.727301,-1.848092 -0.995367,-2.151316 -0.327676,-0.37065 -0.422675,-0.874908 -0.289899,-1.538787 0.159046,-0.79523 0.03263,-1.152333 -0.649326,-1.834293 -1.936809,-1.936809 -2.124566,-5.822327 -0.309588,-6.406713 l 1.004893,-0.323554 -1.119999,-0.06457 c -1.041176,-0.06002 -1.063697,-0.0826 -0.32,-0.320771 0.760255,-0.243476 0.764532,-0.257789 0.0861,-0.288102 -0.759398,-0.03393 -1.379114,-1.449561 -0.846667,-1.934063 0.544005,-0.49502 12.590183,0.244192 15.000573,0.920508 1.232,0.345679 3.49803,0.856241 5.03563,1.134582 1.53759,0.27834 3.48159,0.802119 4.32,1.163953 0.8384,0.361833 3.02303,1.222737 4.85473,1.91312 1.83171,0.690382 3.52719,1.418582 3.76774,1.618222 0.59392,0.492915 0.63687,0.402548 0.89733,-1.88822 0.19424,-1.708339 0.15338,-2 -0.28019,-2 -0.27917,0 -1.84131,-0.416971 -3.47142,-0.926602 -1.6301,-0.509631 -3.6597,-1.012504 -4.51021,-1.117495 -0.85051,-0.104991 -1.93051,-0.404863 -2.4,-0.666382 -0.46949,-0.261519 -1.57361,-0.6096 -2.45361,-0.773512 -0.88,-0.163913 -2.66375,-0.533108 -3.96388,-0.820434 -1.30014,-0.287326 -3.41777,-0.656031 -4.70585,-0.819343 -1.28808,-0.163313 -2.71329,-0.390131 -3.16714,-0.50404 -0.74389,-0.186705 -0.87927,-0.06943 -1.37416,1.19035 l -0.54897,1.397458 -0.16,-1.279999 -0.16,-1.28 h -3.280423 -3.28042 l 4.2e-4,-1.249692 4.21e-4,-1.249692 4.879999,0.211334 c 4.537333,0.196494 7.578203,0.587368 11.120003,1.429365 0.792,0.188283 2.16,0.480259 3.04,0.648835 2.11478,0.405115 5.35842,1.325936 5.76,1.635178 0.176,0.135533 0.752,0.347976 1.28,0.472096 3.07255,0.72228 13.63512,5.062229 15.34304,6.304151 0.69467,0.505133 1.38054,0.918424 1.52416,0.918424 0.31933,0 6.56247,4.510772 7.4528,5.384773 0.352,0.345545 1.07189,1.47133 1.59976,2.501745 l 0.95976,1.873482 -0.003,8.64 c -0.006,15.522342 -2.87973,24.761894 -10.95115,35.205034 -3.66431,4.74104 -11.60858,11.72422 -13.82294,12.15067 -0.34143,0.0657 -0.90867,0.27362 -1.26052,0.46192 -0.89445,0.4787 -1.6418,0.42646 -1.6418,-0.11477 0,-0.49281 -0.67685,-1.27259 -1.5087,-1.73812 -0.43204,-0.24178 -0.21238,-0.58689 1.33545,-2.09805 1.73713,-1.69598 1.82017,-1.84444 1.3329,-2.38287 -0.75476,-0.834 -0.7686,-0.81903 2.23548,-2.41711 6.34923,-3.3776 12.77427,-9.36402 15.48372,-14.4267 0.94192,-1.76 2.25065,-4.064 2.90829,-5.12 0.65763,-1.056 1.48161,-2.79824 1.83105,-3.871645 0.34945,-1.073402 0.87692,-2.418784 1.17218,-2.989738 0.29525,-0.570953 0.44765,-1.127264 0.33867,-1.236246 -0.18738,-0.187375 -0.49784,-0.03446 -2.40904,1.186534 -0.71544,0.457066 -0.69007,0.376537 0.24,-0.76182 0.82786,-1.013262 1.04,-1.564243 1.04,-2.701161 0,-1.207799 -0.0617,-1.347642 -0.4,-0.906005 -0.22,0.287235 -2.344,1.625087 -4.72,2.973004 -5.21919,2.960873 -5.27672,3.009585 -3.13926,2.658357 0.93459,-0.153572 2.27526,-0.184816 2.97926,-0.06943 l 1.28,0.209791 -2.22178,0.753991 c -5.28321,1.792928 -11.3299,2.333968 -6.65822,0.59576 2.05909,-0.766135 2.3486,-1.107253 0.75874,-0.894009 -1.97226,0.264536 -1.87298,-1.066026 0.29015,-3.888261 1.85094,-2.414932 1.83972,-2.429444 -0.86122,-1.113634 -1.76078,0.857791 -1.98175,1.062394 -1.70529,1.578962 1.41124,2.636933 0.32385,3.492223 -7.68238,6.04261 -11.31146,3.60327 -11.63057,3.66282 -18.6481,3.47996 -3.30446,-0.0861 -5.968456,-0.11784 -5.920001,-0.0705 0.07846,0.0766 3.569711,0.88242 5.688101,1.31286 1.62374,0.32993 1.79408,0.43218 1.27103,0.76296 -0.71957,0.45507 0.76661,0.38258 3.04897,-0.14871 1.056,-0.24582 2.928,-0.55058 4.16,-0.67725 1.232,-0.12667 3.7495,-0.71767 5.59444,-1.31333 4.25262,-1.37301 11.59406,-2.53534 8.71811,-1.38029 -0.70964,0.285 -0.71506,0.32174 -0.22161,1.49971 1.81232,4.32637 0.84269,6.76982 -3.76703,9.49284 -1.63015,0.96294 -3.14513,2.04869 -3.36662,2.41276 -0.58134,0.95557 -0.0515,0.81606 1.55669,-0.40986 1.71811,-1.30973 3.28511,-2.16935 4.76076,-2.61163 1.37804,-0.41302 2.63393,-2.37517 2.48304,-3.87939 l -0.10059,-1.00284 2.00738,-0.20566 c 1.10406,-0.11311 2.26119,-0.2769 2.5714,-0.36397 0.31022,-0.0871 -0.29997,0.27616 -1.35597,0.80717 -1.056,0.53101 -1.632,0.90664 -1.28,0.83474 0.352,-0.0719 1.432,-0.29518 2.4,-0.49619 0.968,-0.201 2.012,-0.4161 2.32,-0.47798 0.9058,-0.182 0.64298,0.42638 -0.48,1.11107 -0.82716,0.50433 -0.90903,0.63545 -0.4,0.64069 0.49684,0.005 0.38947,0.16236 -0.48,0.703 -0.616,0.38302 -1.768,1.22579 -2.56,1.87282 -4.92665,4.02482 -12.0265,7.21758 -13.12,5.89999 -0.43094,-0.51925 -1.28,-0.65359 -1.28,-0.20253 0,0.15262 0.57315,0.65678 1.27368,1.12036 1.67978,1.11163 2.56632,2.88702 2.56632,5.13932 v 1.76266 L 117.92,128 c -2.4,1.77298 -2.23445,2.29456 1.27296,4.01057 l 1.84512,0.90273 -2.35904,1.18332 c -5.12602,2.57128 -12.6744,4.7901 -17.87904,5.25549 -1.144003,0.10229 -2.886383,0.25862 -3.871958,0.34739 l -1.791956,0.16141 z M 107.84,130.24 c 0,-0.3844 -1.50547,-0.3844 -2.4,0 -0.48155,0.20692 -0.26367,0.28058 0.88,0.29751 0.836,0.0124 1.52,-0.12151 1.52,-0.29751 z m 22.41466,-38.692596 c -0.38804,-0.725059 -1.17605,-0.854643 -1.93466,-0.318144 -0.42667,0.301743 -0.42667,0.324286 0,0.202885 0.264,-0.07512 0.82598,0.131936 1.24885,0.460119 0.91369,0.709106 1.17859,0.575902 0.68581,-0.34486 z m 9.02446,-2.237395 c 6.00758,-4.484042 6.33412,-5.029764 6.84053,-11.432036 0.36344,-4.594692 -0.49986,-6.039358 -4.287,-7.174015 -1.04381,-0.312733 -1.35265,-0.561976 -1.35265,-1.091625 0,-0.566687 -0.38439,-0.81016 -2.20452,-1.396373 -1.57285,-0.50657 -2.25194,-0.89138 -2.37004,-1.342987 -0.1,-0.382259 -0.43719,-0.632975 -0.85138,-0.632975 -0.37721,0 -1.12819,-0.228744 -1.66883,-0.50832 -1.17377,-0.606982 -2.81082,-0.391595 -3.59303,0.472738 -0.51315,0.567021 -0.46991,0.59822 1.02871,0.742218 1.17804,0.113195 2.02357,0.479139 3.42382,1.48184 1.0227,0.732338 2.01858,1.331524 2.21308,1.331524 0.19449,0 0.91624,0.382312 1.60389,0.849583 0.86226,0.585919 1.69593,0.859022 2.68627,0.88 1.78056,0.03772 2.09589,0.673467 0.63993,1.290213 -0.71717,0.303795 -0.91026,0.504445 -0.5879,0.610933 0.264,0.08721 0.903,0.286974 1.42,0.443918 1.16534,0.353759 1.39739,0.920533 0.49424,1.207179 -0.63555,0.201718 -0.64601,0.254778 -0.15677,0.795386 0.36289,0.400983 0.41454,0.647036 0.16783,0.799508 -0.26018,0.160803 -0.26102,0.335164 -0.003,0.645938 0.32861,0.39595 0.29451,2.030878 -0.11167,5.354422 -0.22583,1.847813 -1.65062,4.02119 -4.30243,6.56292 -3.02322,2.89772 -2.79804,2.923232 0.97102,0.110011 z M 136.64,85.722017 c 0,-0.571557 -0.5043,-0.251555 -1.42806,0.906183 l -0.94805,1.188184 1.18805,-0.906174 c 0.65343,-0.498395 1.18806,-1.033082 1.18806,-1.188193 z m 1.93047,-5.338804 c -1.36186,-0.93699 -2.46632,-2.005604 -1.85047,-1.790417 1.47647,0.515908 -1.04147,-1.508707 -4,-3.216303 -1.99447,-1.151161 -1.95637,-0.843226 0.0554,0.447722 2.4195,1.552586 2.6883,2.115096 0.56121,1.174394 -2.46109,-1.08841 -2.28394,-0.836671 0.50339,0.715343 1.276,0.710492 2.968,1.730891 3.76,2.267554 0.792,0.536664 1.512,0.968815 1.6,0.960337 0.088,-0.0085 -0.19529,-0.259861 -0.62953,-0.55863 z M 135.68,72.51918 c 0,-0.06645 -0.252,-0.318449 -0.56,-0.56 -0.50754,-0.398038 -0.51886,-0.38672 -0.12082,0.120818 0.41804,0.533039 0.68082,0.702553 0.68082,0.439182 z m -2.08,-1.65389 c -4.17606,-3.443906 -13.84086,-6.584294 -25.1649,-8.176842 -5.2309,-0.735644 -8.26996,-0.572584 -3.84708,0.206414 1.29142,0.227455 3.09142,0.704201 4,1.059434 0.90859,0.355233 2.29998,0.743561 3.09198,0.862952 0.792,0.11939 1.68949,0.348077 1.99443,0.508192 0.30494,0.160116 1.74494,0.430066 3.2,0.599889 6.10812,0.71289 12.57071,2.587789 15.51401,4.500859 2.1611,1.40466 2.55588,1.54774 1.21156,0.439102 z m -13.12,51.43398 c -0.72163,-0.96576 -1.49538,-2.36024 -1.36573,-2.46134 0.0472,-0.0368 1.40921,-0.3046 3.02681,-0.59518 1.61759,-0.29057 3.20159,-0.60713 3.52,-0.70346 0.3184,-0.0963 -0.0952,0.19066 -0.91908,0.63774 -2.36343,1.28249 -1.99805,1.77398 0.698,0.93891 0.92287,-0.28585 -0.77012,1.0828 -2.56,2.06956 l -1.76,0.97029 z M 127.11284,106 c -0.52661,-2.25491 0.59671,-3.27016 4.63037,-4.18491 4.82179,-1.09348 6.41496,-1.64331 8.15549,-2.814595 1.27189,-0.855922 1.91695,-1.089054 2.7972,-1.010945 l 1.1441,0.10152 -2.42464,2.44306 c -2.73595,2.75673 -5.69154,4.44298 -10.59751,6.04617 -3.58228,1.17064 -3.28523,1.21717 -3.70501,-0.5803 z M 98.892809,92.11732 c -0.01426,-0.938112 -0.632815,-1.225598 -2.652811,-1.232953 -1.102785,-0.004 -1.2,-0.07769 -1.2,-0.909435 v -0.905065 l 1.961796,0.315938 c 1.42738,0.229873 2.124754,0.214169 2.56,-0.05765 0.480796,-0.300264 0.598206,-0.282694 0.598206,0.08952 0,0.307812 0.5097,0.537957 1.52,0.686326 3.75047,0.550783 4.16688,1.57761 0.54552,1.345206 -2.341852,-0.150291 -2.428087,-0.129902 -2.867185,0.677917 l -0.452713,0.83287 z M 104.96,88.306719 c -1.32229,-0.44148 -2.7747,-0.592484 -5.840003,-0.607172 -3.907607,-0.01872 -4.079999,-0.04756 -4.079999,-0.682575 0,-0.658378 2.056141,-0.697705 4.264073,-0.08156 0.481555,0.134383 0.565806,0.0034 0.48,-0.746213 -0.102128,-0.892205 -0.148945,-0.912196 -2.504074,-1.069204 l -2.399999,-0.16 2.173842,-0.25033 c 1.195614,-0.137682 2.327041,-0.155649 2.514283,-0.03993 0.221814,0.137088 0.265526,-0.02563 0.125447,-0.466981 -0.453013,-1.427315 -0.481337,-7.637834 -0.03084,-6.762762 0.64935,1.261345 1.23688,5.872925 0.99494,7.809348 l -0.21807,1.745379 1.5402,0.20778 c 2.1077,0.284338 4.82589,1.05838 5.0628,1.441697 0.25088,0.405934 0.0433,0.372288 -2.0826,-0.337483 z m 4.49126,-12.445684 c -0.41748,-0.780063 -0.42214,-1.074971 -0.013,-0.8221 0.51391,0.317617 1.03175,1.441063 0.66423,1.441063 -0.176,0 -0.46906,-0.278533 -0.65125,-0.618963 z M 121.52,72.428068 c 0.22,-0.08877 0.58,-0.08877 0.8,0 0.22,0.08877 0.04,0.161404 -0.4,0.161404 -0.44,0 -0.62,-0.07263 -0.4,-0.161404 z"
       id="path2" />
  </g>
</svg>
