<?xml version="1.0" encoding="UTF-8" standalone="no"?>
<!-- Created with Inkscape (http://www.inkscape.org/) -->

<svg
   version="1.1"
   id="svg1"
   width="95.153397"
   height="118.97458"
   viewBox="0 0 95.153399 118.97458"
   sodipodi:docname="Icon_scapegoat.svg"
   inkscape:version="1.4.2 (ebf0e940d0, 2025-05-08)"
   xmlns:inkscape="http://www.inkscape.org/namespaces/inkscape"
   xmlns:sodipodi="http://sodipodi.sourceforge.net/DTD/sodipodi-0.dtd"
   xmlns="http://www.w3.org/2000/svg"
   xmlns:svg="http://www.w3.org/2000/svg">
  <defs
     id="defs1" />
  <sodipodi:namedview
     id="namedview1"
     pagecolor="#505050"
     bordercolor="#eeeeee"
     borderopacity="1"
     inkscape:showpageshadow="0"
     inkscape:pageopacity="0"
     inkscape:pagecheckerboard="0"
     inkscape:deskcolor="#505050"
     inkscape:zoom="4.4268953"
     inkscape:cx="60.200203"
     inkscape:cy="58.05423"
     inkscape:window-width="1838"
     inkscape:window-height="1011"
     inkscape:window-x="40"
     inkscape:window-y="47"
     inkscape:window-maximized="1"
     inkscape:current-layer="svg1" />
  <path
     style="fill:#0798c7"
     d="m 116.69333,154.34666 c -0.11733,-0.11733 -0.20895,-0.44133 -0.2036,-0.72 0.008,-0.4161 0.0704,-0.40227 0.34933,0.0773 0.34457,0.59254 0.24467,1.03307 -0.14573,0.64266 z m -0.48975,-4.6877 c -0.0564,-1.16574 0.38819,-2.00384 1.89848,-3.57896 2.35472,-2.45581 3.17921,-7.84 1.20054,-7.84 -0.19859,0 -0.24722,-0.33771 -0.12104,-0.84048 0.16568,-0.66011 0.10972,-0.80163 -0.26079,-0.65945 -0.3205,0.12299 -0.58346,-0.13948 -0.82025,-0.81875 -0.66971,-1.92113 -1.73934,-2.65931 -2.11919,-1.4625 -0.218,0.68686 -0.22948,0.68418 -0.66968,-0.15597 -0.48281,-0.92147 -1.93736,-1.82285 -2.94153,-1.82285 -0.34191,0 -0.71874,-0.252 -0.83741,-0.56 -0.20548,-0.53334 -0.23072,-0.53334 -0.53013,0 -0.53726,0.95699 -0.92258,0.61919 -0.92258,-0.8088 0,-1.45772 -0.69663,-2.7912 -1.45815,-2.7912 -0.29984,0 -0.46185,0.33676 -0.46185,0.96 0,1.0965 -0.18982,1.17701 -1.01481,0.4304 -0.55982,-0.50663 -0.58519,-0.45724 -0.58519,1.13889 0,2.02176 -0.40067,1.89006 -1.13488,-0.37306 -1.63779,-5.04836 -2.3711,-5.63872 -2.38022,-1.91623 -0.007,2.94704 -2.60576,-0.36429 -3.399235,-4.33166 -0.33593,-1.67965 -1.068892,-0.91255 -1.081298,1.13166 -0.0024,0.396 -0.145626,0.72 -0.318273,0.72 -0.292716,0 -0.471123,-0.51208 -0.724673,-2.08 -0.181132,-1.1201 -1.241059,0.87937 -1.482453,2.79653 l -0.211969,1.68347 -0.451051,-2.35298 c -0.555463,-2.89765 -0.216012,-4.48017 1.421019,-6.62479 0.657697,-0.86163 1.117473,-1.82573 1.109618,-2.32674 -0.01323,-0.84364 -0.02236,-0.83998 -0.659634,0.26451 -0.355422,0.616 -0.57697,0.88641 -0.49233,0.60091 0.08464,-0.2855 0.238579,-1.2215 0.342085,-2.08 L 97.284899,114.4 96.79418,115.67227 c -0.812079,2.10544 -1.114182,2.0886 -1.114182,-0.0621 0,-3.17213 -0.458694,-3.45878 -0.656365,-0.41017 -0.097,1.496 -0.206246,-5.72949 -0.242766,-16.056631 l -0.0664,-18.776628 1.782793,-0.222745 c 3.65046,-0.456096 8.23338,0.426451 10.30071,1.983636 0.57088,0.430011 1.62317,1.043841 2.33842,1.364067 l 1.30045,0.582229 0.91696,-0.916965 c 1.38882,-1.388818 1.92389,-1.222299 1.93771,0.603035 l 0.0115,1.52 0.81662,-0.96 0.81663,-0.96 -0.21431,1.563817 -0.21431,1.563818 0.86933,-0.683818 c 0.47814,-0.376099 1.141,-0.683817 1.47304,-0.683817 0.33204,0 1.14062,-0.351235 1.79685,-0.780522 0.65622,-0.429288 1.62514,-0.881721 2.15314,-1.005408 0.528,-0.123687 1.51395,-0.502498 2.19101,-0.841802 1.85937,-0.931817 1.76673,-0.493502 -0.39409,1.864655 -2.24846,2.453796 -2.24456,2.436349 -0.43665,1.95379 1.0044,-0.268091 1.89693,-0.268686 3.45207,-0.0023 2.18126,0.373635 2.05581,0.291791 6.65595,4.342446 l 1.01171,0.890857 -1.52,-0.207191 c -1.9102,-0.260379 -1.90079,-0.12559 0.08,1.145478 2.47172,1.586098 1.99702,2.276699 -0.56,0.814698 -1.92785,-1.102261 -1.7544,-0.316006 0.36554,1.657065 1.13075,1.052414 1.80578,1.971314 1.95832,2.665811 0.12802,0.582898 0.74417,1.990196 1.36922,3.127325 1.92108,3.49497 1.54815,6.23044 -1.48742,10.91053 -1.7962,2.76928 -2.04666,3.7883 -1.91668,7.79819 0.11941,3.6836 -0.39385,3.96795 -1.3845,0.76703 -0.59073,-1.90872 -1.0022,-0.66654 -1.14507,3.45684 -0.14601,4.21428 -0.35416,4.83403 -2.04284,6.08251 -3.3752,2.49534 -4.18508,4.5968 -3.1305,8.12287 0.65441,2.18804 -0.52962,4.47201 -4.19887,8.09959 -1.72595,1.70636 -3.20153,3.43436 -3.27907,3.84 -0.1222,0.63931 -0.14678,0.61754 -0.18455,-0.1635 z m -44.357883,-3.87094 c -0.566429,-0.60059 -1.431401,-2.03675 -1.922161,-3.19146 -0.490759,-1.15472 -1.005953,-2.02923 -1.144875,-1.94338 -0.138922,0.0859 -0.34532,-0.13607 -0.458663,-0.49318 -0.113342,-0.35711 -0.340727,-0.56608 -0.505299,-0.46437 -0.164571,0.10171 -0.390243,-0.0523 -0.501493,-0.34218 -0.132723,-0.34587 -0.277583,-0.40526 -0.4213,-0.17272 -0.295627,0.47833 -1.097423,-0.47124 -1.558785,-1.84608 -0.278419,-0.82968 -0.24165,-1.74993 0.166216,-4.16 0.788711,-4.66049 0.213831,-9.47227 -1.459325,-12.21465 -0.16107,-0.264 -0.456911,-1.56 -0.657426,-2.88 -0.494958,-3.25834 -1.898721,-7.83224 -2.651879,-8.64066 -2.178259,-2.33808 -2.237307,-5.37227 -0.12621,-6.48532 1.218666,-0.64252 1.256612,-0.70092 0.515501,-0.79339 -1.625313,-0.20277 -2.24,-0.42245 -2.24,-0.80054 0,-0.21325 -0.302883,-1.11849 -0.673075,-2.011639 l -0.673075,-1.623915 1.773959,-1.816999 c 1.865344,-1.910601 4.783489,-7.163035 5.193306,-9.347546 0.253552,-1.351553 0.209878,-1.348557 2.287659,-0.156929 2.138986,1.22673 2.415238,1.757815 2.067574,3.97484 -0.293667,1.872693 -0.04275,2.022824 0.766224,0.458447 0.313603,-0.606441 0.421841,-1.309904 0.292298,-1.899708 -0.282765,-1.28742 0.307431,-1.211089 1.607132,0.207854 l 1.048319,1.144498 1.55484,-1.104987 c 0.855161,-0.607743 2.058839,-1.354425 2.674839,-1.659295 0.616,-0.304869 1.717849,-1.130742 2.448553,-1.835274 1.79006,-1.725943 3.829229,-2.042902 4.938126,-0.767559 1.053143,1.211221 1.382011,1.106614 5.413321,-1.72188 2.006751,-1.408 3.835695,-2.56 4.064319,-2.56 0.336546,0 0.415681,3.87037 0.415681,20.330282 0,21.24621 -0.01519,21.50571 -1.352817,23.11746 -0.208523,0.25125 -0.409738,0.66536 -0.447146,0.92023 -0.112074,0.76361 -1.753071,2.72179 -2.744624,3.27512 -0.938169,0.52354 -0.966939,0.70175 -0.405417,2.5112 0.176999,0.57037 0.06204,0.77499 -0.570522,1.01549 -1.262844,0.48013 -1.239869,1.11368 0.105307,2.90394 1.424316,1.89559 1.520804,2.46233 0.615219,3.6136 -0.850145,1.08078 -0.806961,1.90515 0.16,3.05432 0.535425,0.63631 0.8,1.33929 0.8,2.12559 0,0.64616 0.149066,1.45337 0.331258,1.7938 0.25292,0.47259 0.227109,0.61897 -0.109142,0.61897 -0.242221,0 -0.837659,-0.7299 -1.323195,-1.62199 -0.620476,-1.14001 -1.026519,-1.56682 -1.366486,-1.43637 -0.309139,0.11863 -0.426831,0.0374 -0.326128,-0.22499 0.08666,-0.22584 -0.411603,-0.98347 -1.107254,-1.68363 l -1.26482,-1.27302 0.217483,3.04 0.217482,3.04 -0.754599,-0.7289 c -0.67537,-0.65236 -0.754599,-1.01185 -0.754599,-3.42394 0,-3.54618 -0.298615,-3.75212 -2.08,-1.43448 -1.61283,2.09834 -1.943423,2.31395 -3.102098,2.02314 -1.385288,-0.34769 -0.460934,-4.19636 1.98237,-8.25387 1.271683,-2.11184 1.387179,-2.74195 0.502585,-2.74195 -0.984959,0 -1.477341,0.7396 -2.382235,3.57831 -0.466654,1.46393 -1.133749,3.09369 -1.482433,3.62169 -0.348685,0.528 -0.634921,1.43515 -0.63608,2.01589 -0.0034,1.7167 -1.745285,4.54411 -2.799453,4.54411 -0.30715,0 -0.379495,0.20885 -0.232629,0.67159 0.186729,0.58833 0.12029,0.64211 -0.535927,0.43384 -0.668057,-0.21203 -0.701848,-0.18084 -0.312408,0.28841 0.815038,0.98206 -0.04041,0.53221 -1.075993,-0.56582 z m 0.0247,-30.94207 c 0.335278,-0.37073 1.147658,-0.94867 1.80529,-1.28431 2.009653,-1.02568 3.169727,-4.483 2.146046,-6.39576 -0.329985,-0.61658 -0.361898,-0.61216 -1.304552,0.18104 -0.531461,0.44719 -1.257026,0.81308 -1.612367,0.81308 -2.228947,0 -3.14564,1.71718 -2.37772,4.45402 0.287948,1.02624 0.433741,2.09991 0.323984,2.38594 -0.281407,0.73333 0.295678,0.64614 1.019319,-0.15401 z m 8.402804,-16.47247 c 0.159911,-0.866564 2.772224,-5.196306 3.941921,-6.533482 0.987675,-1.129091 0.842348,-0.751106 -0.527681,1.372463 -1.139777,1.766676 0.664495,0.798678 2.057316,-1.103756 0.773469,-1.056471 1.910907,-2.305122 2.527638,-2.774782 0.616732,-0.469659 1.527741,-1.494118 2.024464,-2.276575 0.496724,-0.782457 0.903134,-1.276594 0.903134,-1.09808 0,0.645028 -1.025387,3.819105 -1.486269,4.60073 l -0.471716,0.8 0.651236,-0.745872 c 0.358179,-0.410229 0.978726,-1.634229 1.378992,-2.72 l 0.727757,-1.974128 0.09972,1.2067 c 0.05484,0.663685 0.234844,1.123186 0.4,1.021114 0.165156,-0.102072 0.300284,0.164913 0.300284,0.5933 0,1.286629 0.379917,2.779625 0.662828,2.604777 0.145699,-0.09005 0.202462,-0.843709 0.12614,-1.674806 -0.07632,-0.831097 -0.224512,-2.618172 -0.329313,-3.971277 -0.160289,-2.069511 -0.271068,-2.429294 -0.697596,-2.26562 -0.335829,0.12887 -0.428916,0.06815 -0.275668,-0.179808 0.732189,-1.184707 -0.632819,-0.09469 -1.71373,1.36848 -1.295413,1.753536 -2.907153,3.048565 -5.31449,4.270176 -2.486795,1.261933 -6.977541,8.026972 -5.817442,8.763629 0.282601,0.179449 0.232344,0.254966 -0.171988,0.258434 -0.477432,0.0041 -0.513293,0.113211 -0.218334,0.664345 0.414978,0.775395 1.061813,0.666446 1.222801,-0.205962 z M 67.488837,95.54217 c -0.08419,-0.08419 -0.343707,0.164385 -0.576713,0.552381 -0.404774,0.674018 -0.397955,0.680838 0.153065,0.153066 0.317193,-0.30381 0.507834,-0.621261 0.423648,-0.705447 z M 96.062381,129.44 c 0.0065,-0.528 0.07824,-0.70526 0.159374,-0.39391 0.08113,0.31135 0.0758,0.74335 -0.01186,0.96 -0.08765,0.21665 -0.154037,-0.0381 -0.147516,-0.56609 z M 132.032,123.968 c -0.11389,-0.29678 -0.13507,-0.61161 -0.0471,-0.69961 0.088,-0.088 0.25318,0.0828 0.36707,0.37961 0.11388,0.29678 0.13506,0.6116 0.0471,0.6996 -0.088,0.088 -0.25318,-0.0828 -0.36706,-0.3796 z M 56.701504,100.41006 c -4.352501,-4.778072 -6.526319,-8.031526 -6.302765,-9.433064 0.628126,-3.937943 1.266764,-4.892379 1.617276,-2.416998 0.28961,2.045271 2.005094,5.978312 3.410722,7.819662 1.836803,2.406182 2.922712,5.83947 1.274767,4.0304 z m -0.104483,-5.666134 c -0.09794,-1.185181 -0.27355,-1.501936 -1.077022,-1.942694 -1.018824,-0.558891 -1.591722,-1.474146 -1.903639,-3.041234 -0.165331,-0.830627 -0.148355,-0.86297 0.125967,-0.24 0.416386,0.945591 0.414842,0.946012 2.521978,-0.688066 3.550294,-2.753243 4.946668,-4.831686 5.382534,-8.011673 0.357879,-2.611013 0.77049,-2.093241 2.215291,2.779892 l 0.545575,1.840154 -1.028597,2.089375 c -0.665734,1.3523 -1.962359,3.07378 -3.675518,4.879847 -1.455807,1.534759 -2.724012,3.006471 -2.818234,3.270471 -0.09422,0.264 -0.223972,-0.157233 -0.288335,-0.936072 z m -8.68683,-5.108372 c -1.464085,-1.620567 -1.412532,-1.892741 1.639083,-8.653451 l 0.640002,-1.417894 0.180148,1.097894 c 0.09908,0.603842 0.31802,1.906506 0.486532,2.894808 0.265131,1.554972 0.218325,1.974896 -0.347638,3.118808 -0.359712,0.727042 -0.823652,1.986846 -1.030979,2.799565 l -0.376957,1.47767 z m 4.658423,-3.475556 c -0.385169,-1.012 -0.790827,-2.586097 -0.901463,-3.497993 l -0.201155,-1.657993 1.227001,0.08913 c 0.674851,0.04902 1.528476,0.185675 1.896944,0.30367 1.048413,0.335732 5.463056,-3.580648 6.24773,-5.542575 0.197374,-0.493495 0.918498,1.504162 0.91898,2.545757 0.0013,2.746941 -5.990205,9.6 -8.393066,9.6 -0.05206,0 -0.409802,-0.828 -0.794971,-1.84 z m -8.195013,-2.528744 -0.906398,-2.121646 0.708195,-1.954805 c 1.388709,-3.833203 4.540776,-7.424984 5.696979,-6.491708 1.078391,0.870466 0.333687,4.299104 -1.639626,7.548882 -1.005905,1.656588 -2.002709,3.492588 -2.215119,4.08 -0.519538,1.436755 -0.598965,1.385509 -1.644031,-1.060723 z m -2.379568,-5.475576 c -1.861531,-4.401269 -1.143253,-6.710247 2.459697,-7.906955 4.013525,-1.333079 5.104346,-0.162793 2.433383,2.610653 -1.642181,1.705189 -3.687114,5.062197 -3.687114,6.052848 0,1.015957 -0.621072,0.626337 -1.205966,-0.756546 z m 10.12515,1.004936 c -0.364202,-0.106607 -0.570172,-0.652859 -0.684946,-1.816534 -0.198094,-2.008442 -0.302816,-1.879785 1.193729,-1.466569 2.280185,0.62959 4.648707,-0.03708 6.612921,-1.861335 l 0.840888,-0.780973 0.335761,0.963166 c 0.738151,2.11746 -5.425478,5.803183 -8.298353,4.962245 z m 0.261543,-5.129397 c -1.446145,-1.156729 -1.526188,-1.29898 -1.323002,-2.351219 0.238698,-1.236144 0.235564,-1.657022 -0.02978,-4 -0.16505,-1.457358 -0.143964,-1.528679 0.236515,-0.8 0.769282,1.4733 2.945737,2.284882 5.855543,2.183484 l 2.559999,-0.08921 0.21649,1.912862 c 0.239938,2.120051 0.173392,2.229604 -2.055466,3.383895 -2.345088,1.214484 -3.717487,1.15421 -5.460296,-0.239813 z m -3.367074,-5.721253 c -0.468612,-1.028492 -2.72391,-1.083025 -5.541098,-0.133983 -2.252245,0.758727 -2.321884,0.733714 -1.951398,-0.700892 0.266396,-1.031545 0.354623,-1.084009 2.178242,-1.295271 1.04533,-0.121099 2.703235,-0.345554 3.684232,-0.498789 2.396071,-0.374275 2.536369,-0.289824 2.536369,1.52675 0,1.783499 -0.383455,2.249808 -0.906347,1.102185 z m 5.880557,-0.338539 c -1.920891,-0.703348 -2.73421,-1.621338 -2.73421,-3.086093 0,-0.74725 -0.127643,-1.164217 -0.32,-1.045334 -0.176,0.108774 -0.32,-0.09541 -0.32,-0.453737 0,-0.361649 0.391516,-0.900649 0.88,-1.211494 0.484,-0.307992 0.962902,-0.675202 1.064228,-0.816022 0.101325,-0.14082 0.821325,0.09058 1.6,0.514212 0.778674,0.423637 1.958998,0.850997 2.622942,0.94969 1.376051,0.204545 1.338135,-0.269599 -0.04587,-0.573577 -1.716184,-0.376937 -3.561303,-2.915069 -3.561303,-4.898901 0,-1.20638 0.186936,-1.583338 1.432582,-2.888797 1.208273,-1.266292 1.433744,-1.394949 1.44,-0.821678 0.01238,1.134636 1.475165,3.381918 3.410979,5.240304 1.931387,1.854138 1.806055,1.496132 -0.443562,-1.267016 -2.091638,-2.569107 -1.716516,-5.555209 0.881273,-7.015249 l 1.196112,-0.672252 0.154515,1.357259 c 0.285937,2.511669 2.594197,7.318618 3.724446,7.756152 0.621352,0.240533 0.209955,-1.760452 -0.667812,-3.248157 -0.485113,-0.822205 -0.721098,-1.877897 -0.826402,-3.696959 -0.132686,-2.29207 -0.206999,-2.530538 -0.744762,-2.389909 -0.328553,0.08592 -0.597091,0.0617 -0.596751,-0.05383 0.0012,-0.422024 3.073211,-2.290041 3.76599,-2.290041 0.719666,0 0.961292,0.449018 0.421235,0.782791 -1.013601,0.62644 -0.310391,7.842918 0.972012,9.974979 0.867559,1.442362 0.782626,1.838726 -0.345653,1.61307 -0.691406,-0.138281 -0.903562,-0.0791 -0.788772,0.220041 0.09675,0.252136 -0.469525,0.702661 -1.475321,1.173751 -1.971362,0.923336 -3.487521,2.534953 -4.764326,5.064291 -1.21229,2.401531 -2.875742,2.901417 -5.931573,1.782503 z m -5.61421,-4.186998 c -0.953281,-0.494507 -3.25536,-0.547426 -4.780919,-0.109901 -1.41696,0.406379 -1.45178,0.334528 -0.473682,-0.977443 0.449843,-0.603396 0.924527,-1.281817 1.054854,-1.507601 0.148631,-0.257494 1.2141,-0.471703 2.858353,-0.574664 l 2.621394,-0.164147 -0.0049,1.534664 c -0.0064,1.988869 -0.249072,2.331335 -1.2751,1.799092 z m 0.03164,-5.864428 c 2.469647,-2.294411 3.850427,-2.120739 2.462414,0.309718 -0.713913,1.250084 -0.781393,1.28542 -2.459335,1.287817 l -1.72528,0.0025 z m 19.870039,0.07968 c -1.69522,-5.658143 -0.08464,-12.312765 2.800995,-11.573198 l 1.55823,0.399362 -0.690453,0.934855 c -0.994119,1.346012 -0.970128,6.982111 0.03984,9.359299 l 0.679773,1.599999 0.01675,-4.479999 c 0.01516,-4.053704 0.373004,-6.88 0.871098,-6.88 1.652738,0 3.04027,1.093815 2.311719,1.822366 -0.868695,0.868695 -0.109202,7.161061 1.040404,8.619695 0.279542,0.354687 -1.596909,0.723551 -6.468358,1.27152 l -1.778319,0.200036 z m 8.97832,-0.694786 c -0.812743,-1.045413 -0.951802,-3.075797 -0.389644,-5.689146 0.489441,-2.275306 0.69652,-2.500945 1.962033,-2.137893 l 1.067611,0.306277 0.0089,2.547933 c 0.0071,2.02655 0.158969,2.832574 0.742324,3.938942 0.866416,1.64321 0.936329,1.527799 -1.071209,1.768315 -1.48969,0.178475 -1.649639,0.127841 -2.32,-0.734428 z m 4.428461,-0.611717 c -0.755903,-1.412416 -0.318902,-8.019779 0.448313,-6.778399 0.110548,0.178871 0.685057,0.32522 1.276686,0.32522 0.954578,0 1.100764,0.117092 1.298409,1.04 0.286521,1.337913 2.120255,4.43535 2.543763,4.296777 0.790896,-0.258783 0.468014,-1.754492 -0.77369,-3.584022 L 86.093962,50.095043 86.80698,49.69886 c 1.232494,-0.684825 5.353018,0.622821 5.353018,1.698778 0,1.737932 -2.756336,4.438782 -5.12,5.016934 -4.074311,0.996576 -4.067521,0.996151 -4.451539,0.278606 z m 7.971539,-7.376323 c -1.645816,-0.614185 -1.649218,-0.627694 -0.678065,-2.693043 0.666187,-1.416779 0.695265,-1.710651 0.37409,-3.780672 -0.381636,-2.459704 -0.292735,-2.843141 0.659189,-2.843141 1.077051,0 1.652575,1.951271 1.81688,6.16 0.164208,4.206215 0.261386,4.06498 -2.172094,3.156856 z m -13.44,-2.756856 c -0.44,-0.251527 -1.475502,-0.462424 -2.301114,-0.468661 -2.77841,-0.02099 -2.320885,-1.106797 1.172086,-2.781622 1.227035,-0.588345 2.410024,-1.069717 2.628865,-1.069717 0.218842,0 0.895536,-0.436936 1.503765,-0.970969 1.034985,-0.908728 1.19467,-0.950937 2.491135,-0.658469 0.761895,0.171875 1.781263,0.395554 2.265263,0.497065 0.91918,0.192784 1.182189,1.119562 0.585288,2.062413 -0.288358,0.455483 -0.44321,0.435066 -4.022779,-0.530414 -1.039167,-0.280283 0.02455,0.799546 1.558508,1.582112 l 1.283831,0.654962 -0.860013,0.450607 c -0.742357,0.38896 -0.958844,0.387277 -1.582424,-0.0123 -0.630262,-0.403861 -1.491622,-0.677823 -4.242411,-1.34933 l -0.64,-0.156234 0.64,0.389083 c 0.352,0.213995 1.20434,0.742042 1.89409,1.173439 l 1.254089,0.784357 -1.050828,0.44184 c -1.292145,0.543306 -1.56731,0.539232 -2.577351,-0.03816 z m 6.32,-7.115213 c -1.444567,-0.113905 -1.901813,-0.451043 -1.2,-0.884787 0.176,-0.108774 0.32,-0.612774 0.32,-1.12 0,-0.507226 -0.144,-1.011226 -0.32,-1.12 -0.573528,-0.35446 -0.33727,-0.8 0.424219,-0.8 0.862134,0 1.78046,0.947003 2.528438,2.607393 0.474848,1.054089 0.45651,1.650199 -0.04599,1.494928 -0.102666,-0.03172 -0.870666,-0.111614 -1.706667,-0.177534 z"
     id="path1"
     transform="translate(-41.000483,-35.519997)" />
</svg>
