<?xml version="1.0" encoding="UTF-8" standalone="no"?>
<!-- Created with Inkscape (http://www.inkscape.org/) -->

<svg
   version="1.1"
   id="svg1"
   width="75.16555"
   height="108.12133"
   viewBox="0 0 75.165552 108.12133"
   sodipodi:docname="Icon_poisoner.svg"
   inkscape:version="1.4.2 (ebf0e940d0, 2025-05-08)"
   xmlns:inkscape="http://www.inkscape.org/namespaces/inkscape"
   xmlns:sodipodi="http://sodipodi.sourceforge.net/DTD/sodipodi-0.dtd"
   xmlns="http://www.w3.org/2000/svg"
   xmlns:svg="http://www.w3.org/2000/svg">
  <defs
     id="defs1" />
  <sodipodi:namedview
     id="namedview1"
     pagecolor="#505050"
     bordercolor="#eeeeee"
     borderopacity="1"
     inkscape:showpageshadow="0"
     inkscape:pageopacity="0"
     inkscape:pagecheckerboard="0"
     inkscape:deskcolor="#505050"
     inkscape:zoom="1.3007615"
     inkscape:cx="41.129755"
     inkscape:cy="53.814633"
     inkscape:window-width="1838"
     inkscape:window-height="1011"
     inkscape:window-x="40"
     inkscape:window-y="47"
     inkscape:window-maximized="1"
     inkscape:current-layer="svg1" />
  <path
     style="fill:#6b090c"
     d="m 115.1961,148.46719 c -3.67066,-0.59072 -7.35525,-3.51727 -8.59283,-6.82499 -0.38233,-1.02188 -1.46716,-3.17742 -2.41073,-4.79008 C 103.24896,135.23945 98.839562,127.584 94.393862,119.84 76.447218,88.578595 65.942737,70.336962 65.792292,70.171733 c -0.03419,-0.03755 -0.762324,0.142454 -1.618083,0.4 -1.979214,0.595656 -2.734211,0.592415 -2.734211,-0.01174 0,-0.361246 -0.38725,-0.48 -1.565254,-0.48 -4.407341,0 -1.888613,-6.981065 3.529631,-9.782948 0.503593,-0.260418 0.915623,-0.544716 0.915623,-0.631773 0,-0.08706 -0.591297,0.143371 -1.313993,0.512063 l -1.313993,0.67035 -0.846007,-0.743846 -0.846007,-0.743846 0.775781,0.88 c 0.426679,0.484 0.628997,0.88 0.449596,0.88 -0.370546,0 -1.385377,-1.040973 -1.385377,-1.421063 0,-0.137869 -0.92056,-1.20653 -2.04569,-2.374803 -2.929726,-3.042068 -3.714309,-4.050934 -3.714309,-4.776091 0,-0.351763 -0.216,-0.722456 -0.48,-0.823763 -1.222951,-0.46929 0.202686,-2.501611 2.812097,-4.008791 1.564879,-0.903866 1.714862,-0.93263 2.428157,-0.465677 0.891066,0.583329 1.306622,0.200596 1.314845,-1.210989 0.0037,-0.628563 0.244866,-0.940574 0.954291,-1.234427 0.522164,-0.216288 1.12277,-0.602161 1.334679,-0.857495 0.996384,-1.20057 6.72339,-3.366765 7.136006,-2.699138 0.400801,0.648509 1.464897,0.380823 1.779924,-0.447762 0.519598,-1.366647 3.84,2.270552 3.84,4.206371 0,0.155709 0.300315,0.84343 0.667367,1.528269 0.556498,1.038304 0.603389,1.364707 0.282257,1.964748 -0.48708,0.910117 -0.179098,1.420612 0.857058,1.420612 0.604932,0 0.900285,0.242078 1.171271,0.96 0.43716,1.15817 0.380688,1.1545 2.510272,0.163126 4.071324,-1.895303 6.780356,1.990463 3.659033,5.248422 -1.46908,1.533389 -1.458884,1.55413 11.990424,24.392129 5.32365,9.039977 14.00058,23.776089 19.28207,32.746899 5.28149,8.97082 10.06995,16.96282 10.64101,17.76 5.71371,7.97613 -1.25388,18.85549 -11.06466,17.27662 z m 6.2439,-5.71515 c 5.67658,-2.63383 3.98215,-12.7638 -3.27045,-19.55204 -0.48351,-0.45255 0.9435,1.92992 1.79928,3.004 1.27835,1.60444 1.28361,2.11688 0.008,0.76105 -0.62407,-0.66323 -0.28745,0.007 0.92133,1.83495 3.92563,5.93579 2.89557,11.26633 -2.55089,13.20074 l -1.55655,0.55284 1.04473,0.37886 c 1.46892,0.53269 2.14026,0.4991 3.60474,-0.1804 z M 102.63536,100.3669 c 0.95435,-0.496403 1.62594,-1.726539 1.28228,-2.348715 -0.0784,-0.142003 -1.58504,-2.634187 -3.34801,-5.538187 C 93.769245,81.278237 82.771849,63.151833 82.173101,62.158005 c -0.868819,-1.442105 -1.35367,-0.968043 -0.573663,0.560897 0.695096,1.3625 0.588198,2.113023 -0.34306,2.408593 -0.332472,0.105523 -1.357141,0.757386 -2.277041,1.448586 -0.9199,0.6912 -2.326574,1.474526 -3.125942,1.740724 -0.799368,0.266199 -2.07299,1.023816 -2.830271,1.683595 l -1.376874,1.199598 0.845388,2.063814 c 1.145811,2.797228 3.274771,6.995692 4.144154,8.172573 0.39151,0.529987 1.477891,2.403613 2.41418,4.163613 0.936288,1.76 2.047466,3.753605 2.469284,4.430233 0.421818,0.676629 0.70473,1.292446 0.628693,1.368483 -0.257147,0.257146 -2.715017,-3.269906 -4.225699,-6.063894 -0.8259,-1.527491 -1.789015,-3.100709 -2.140256,-3.496039 -0.6385,-0.718649 -0.638501,-0.718574 -0.0052,0.401217 0.348393,0.616 1.803763,3.335985 3.234156,6.044412 1.430393,2.708426 3.007977,5.388258 3.505742,5.955181 0.497766,0.566924 1.363587,1.832248 1.924048,2.811831 1.037824,1.813927 1.791454,2.352874 4.999235,3.575128 1.864737,0.71051 11.702345,0.51694 13.195365,-0.25965 z m 2.56837,0.21323 c -0.30595,-0.0801 -0.88195,-0.083 -1.28,-0.006 -0.39805,0.0765 -0.14773,0.14208 0.55627,0.14563 0.704,0.004 1.02968,-0.0591 0.72373,-0.13917 z M 72.627473,67.142855 c -0.01067,-0.632944 -0.08169,-0.583543 -0.48,0.333882 -0.587547,1.353303 -0.585661,1.487162 0.01252,0.888976 0.264,-0.264 0.474364,-0.814286 0.467475,-1.222858 z m -6.227475,0.131603 c 0.528,-0.266453 1.561945,-0.896211 2.297656,-1.39946 0.735711,-0.50325 1.469413,-0.915 1.630449,-0.915 0.67953,0 13.511895,-8.696306 13.511895,-9.156813 0,-0.853632 -2.560105,0.154746 -5.633154,2.218793 -4.228634,2.84021 -7.292922,4.69802 -7.748955,4.69802 -0.186115,0 -0.815279,0.442184 -1.398141,0.98263 -0.582862,0.540446 -1.70775,1.356373 -2.49975,1.813172 -3.553754,2.049684 -3.689314,3.539717 -0.16,1.758658 z m 10.24,-2.95446 c 0.108774,-0.176 -0.01823,-0.32 -0.282229,-0.32 -0.264,0 -0.568997,0.144 -0.677771,0.32 -0.108774,0.176 0.01823,0.32 0.282229,0.32 0.264,0 0.568997,-0.144 0.677771,-0.32 z m -1.653359,-6.719999 c 9.684198,-7.085909 9.531863,-7.690712 -0.679304,-2.696977 -8.486283,4.150187 -11.624814,7.047364 -8.686043,8.018085 1.482004,0.489529 1.222653,0.636884 9.365347,-5.321108 z m 0.734407,-4.183485 c 1.761466,-1.007809 1.880327,-1.151393 1.474052,-1.780647 -0.154629,-0.239495 -0.837523,0.17004 -1.9951,1.19647 -2.03696,1.806183 -1.894317,1.966108 0.521048,0.584177 z m -2.924095,-2.216515 c 0.132777,0 0.04491,0.236771 -0.195261,0.526158 -0.388176,0.467723 -0.356988,0.500868 0.280818,0.298436 0.453449,-0.143919 0.71749,-0.09508 0.71749,0.132727 0,0.198247 0.150992,0.267131 0.335539,0.153075 0.212214,-0.131156 0.225168,-0.34392 0.03524,-0.578885 -0.377311,-0.466792 -0.384845,-2.08505 -0.01078,-2.316233 0.547906,-0.338624 0.269192,-0.814976 -0.36,-0.615278 -0.844716,0.268102 -0.807236,-0.08532 0.16,-1.50874 2.25874,-3.324035 -0.0087,-5.3915 -4.076482,-3.716997 -2.968309,1.221898 -3.050463,1.601493 -0.119073,0.550181 1.144282,-0.410384 2.196397,-0.622554 2.338034,-0.471489 0.141637,0.151065 0.106016,0.329451 -0.07916,0.396414 -0.82185,0.297198 -4.245516,2.471358 -5.263322,3.342412 -1.239146,1.060481 3.24466,-0.951587 5.2,-2.333453 1.732098,-1.224098 0.834481,-0.01921 -1.696576,2.277335 -3.011187,2.732195 -3.170082,3.37937 -0.249505,1.01622 1.109251,-0.897536 2.208468,-1.631883 2.442705,-1.631883 0.713429,0 0.317878,1.718517 -0.475735,2.066886 -0.384511,0.168788 -0.851481,0.641303 -1.037711,1.050034 -0.31353,0.688125 -0.289355,0.716792 0.326518,0.387187 0.982206,-0.525661 1.020294,-0.23042 0.126553,0.980977 -1.032418,1.399364 -1.007566,1.457715 0.281522,0.661015 0.592774,-0.366355 1.186406,-0.666099 1.319182,-0.666099 z M 62.079998,46.738884 c 0,-0.165613 -0.144,-0.390111 -0.32,-0.498885 -0.176,-0.108774 -0.32,0.02673 -0.32,0.301114 0,0.274387 0.144,0.498886 0.32,0.498886 0.176,0 0.32,-0.135502 0.32,-0.301115 z"
     id="path1"
     transform="translate(-53.156477,-40.500082)" />
</svg>
