<?xml version="1.0" encoding="UTF-8" standalone="no"?>
<!-- Created with Inkscape (http://www.inkscape.org/) -->

<svg
   version="1.1"
   id="svg1"
   width="98.619926"
   height="102.24645"
   viewBox="0 0 98.619929 102.24645"
   sodipodi:docname="Icon_baron.svg"
   inkscape:version="1.4.2 (ebf0e940d0, 2025-05-08)"
   xmlns:inkscape="http://www.inkscape.org/namespaces/inkscape"
   xmlns:sodipodi="http://sodipodi.sourceforge.net/DTD/sodipodi-0.dtd"
   xmlns="http://www.w3.org/2000/svg"
   xmlns:svg="http://www.w3.org/2000/svg">
  <defs
     id="defs1" />
  <sodipodi:namedview
     id="namedview1"
     pagecolor="#505050"
     bordercolor="#eeeeee"
     borderopacity="1"
     inkscape:showpageshadow="0"
     inkscape:pageopacity="0"
     inkscape:pagecheckerboard="0"
     inkscape:deskcolor="#505050"
     inkscape:zoom="4.2301186"
     inkscape:cx="49.998599"
     inkscape:cy="46.807199"
     inkscape:window-width="1838"
     inkscape:window-height="1011"
     inkscape:window-x="40"
     inkscape:window-y="47"
     inkscape:window-maximized="1"
     inkscape:current-layer="svg1" />
  <path
     style="fill:#65080b"
     d="M 95.839998,149.74526 C 75.373417,148.37054 57.937129,137.95367 46.318704,120.16 c -1.510409,-2.3132 -2.409317,-9.62764 -1.502777,-12.22814 0.725649,-2.0816 5.625932,-2.66124 10.330101,-1.22192 1.554316,0.47556 2.869496,0.81638 2.922622,0.75736 0.465609,-0.51724 0.942095,-3.9248 0.932303,-6.6673 -0.01812,-5.074417 -3.513811,-29.490041 -5.4979,-38.400002 -0.872562,-3.918421 -1.153986,-5.866434 -1.091322,-7.554107 0.06405,-1.724975 -0.03342,-2.371921 -0.403647,-2.679182 -2.021145,-1.677402 0.834699,-3.382953 6.071915,-3.626234 2.287999,-0.106284 5.843881,-0.369064 7.901957,-0.583958 6.891946,-0.71962 14.214325,0.220244 16.743141,2.149066 0.80475,0.613813 1.114901,0.720078 1.114901,0.381992 0,-1.856292 4.201546,-1.810206 23.331582,0.255919 3.97563,0.429385 10.90042,1.140303 15.38842,1.579818 9.58114,0.938293 15.65005,2.151519 18.58341,3.714983 l 1.92932,1.028317 -0.20747,1.786693 c -0.11647,1.002978 -0.68227,2.769248 -1.2899,4.026693 -2.78714,5.767797 -14.21536,42.971362 -14.21536,46.276872 0,3.0914 0.20358,3.46093 1.87717,3.40728 1.17422,-0.0376 2.2487,0.30425 5.16283,1.6428 4.97956,2.28728 4.84022,2.11233 5.03254,6.31879 0.53935,11.79651 -8.22689,21.6212 -23.91254,26.79981 -7.68828,2.53827 -11.30126,2.9825 -19.680002,2.41971 z m 18.280922,-4.6453 c 2.41423,-0.97428 12.771,-6.2351 13.55908,-6.88747 l 0.8,-0.66223 -1.44,0.21191 c -0.792,0.11654 -1.944,0.28622 -2.56,0.37705 -1.07903,0.15911 -1.09659,0.14581 -0.48,-0.3636 l 0.64,-0.52876 -0.64,0.15834 c -3.7354,0.92417 -5.94327,0.38384 -3.49695,-0.85581 1.48856,-0.75431 2.78821,-1.82939 2.21152,-1.82939 -0.13408,0 -0.93166,0.42325 -1.77239,0.94056 -0.84074,0.5173 -2.89338,1.56811 -4.56144,2.33513 l -3.03283,1.39457 1.65541,0.38487 c 0.91048,0.21168 2.3712,0.39058 3.24605,0.39757 l 1.59063,0.0127 -1.55574,1.43161 c -0.85565,0.78739 -2.47565,1.94607 -3.6,2.57484 -1.79368,1.00308 -2.34693,1.40814 -1.92334,1.40814 0.0665,0 0.6785,-0.22502 1.36,-0.50004 z m -7.35694,-5.90841 c 5.23036,-0.4726 9.69916,-2.2946 13.14296,-5.3586 2.86471,-2.54877 3.15089,-2.90683 1.74027,-2.17737 -0.98646,0.51012 -6.94507,1.91975 -9.39413,2.22238 -2.51893,0.31126 -1.53082,-0.56291 1.1139,-0.98545 6.54272,-1.04532 13.07214,-4.5701 12.50231,-6.74914 -0.22543,-0.86203 0.24331,-0.9828 -3.49015,0.89925 -20.39396,10.28066 -47.157464,5.74774 -61.124133,-10.35258 l -1.622146,-1.86996 -0.574844,0.87733 c -0.568107,0.86704 -0.566739,0.8752 0.116715,0.69647 0.571288,-0.14939 0.6574,-0.0732 0.495142,0.43802 -0.245071,0.77215 2.234852,3.97662 5.046766,6.52126 1.073832,0.97176 1.840301,1.76684 1.703264,1.76684 -0.418074,0 -4.269667,-3.17686 -4.898969,-4.04075 -0.413982,-0.56831 -0.921003,-0.82693 -1.695746,-0.86498 -1.02937,-0.0506 -1.130024,-0.15306 -1.467176,-1.49427 l -0.361986,-1.44 -0.03801,1.40639 c -0.07512,2.7791 8.458146,10.51557 16.210435,14.69678 9.933557,5.35768 19.236648,7.01545 32.595528,5.80838 z m -27.323982,-7.04153 c -1.071567,-0.43071 -0.87125,-0.64946 0.24,-0.26207 0.528,0.18406 0.96,0.39257 0.96,0.46335 0,0.18984 -0.389486,0.12451 -1.2,-0.20128 z m -4.828207,-2.25817 c -1.467513,-0.71616 -2.598414,-1.3719 -2.513113,-1.4572 0.170032,-0.17003 5.34132,2.35584 5.34132,2.60892 0,0.23221 0.04633,0.25108 -2.828207,-1.15172 z m -4.932319,-2.65988 c -2.357071,-1.34002 -2.800005,-1.79313 -0.719474,-0.736 1.47501,0.74947 3.096069,1.81806 2.72,1.79302 -0.088,-0.006 -0.988237,-0.48152 -2.000526,-1.05702 z m 37.010548,2.20525 c 9.18757,-1.20438 18.64577,-4.50381 18.24742,-6.36548 -0.27358,-1.27857 -0.15711,-1.22932 -1.65628,-0.70038 -1.28341,0.45281 -6.26515,1.47322 -7.1461,1.46374 -0.80001,-0.009 0.34099,-0.5926 2.26494,-1.15923 2.1773,-0.64126 5.16416,-2.11794 5.77663,-2.85592 0.54783,-0.66009 0.005,-0.53544 -2.89663,0.66561 -5.43165,2.248 -6.1091,2.01306 -1.53907,-0.53376 4.78362,-2.66585 6.39375,-4.24938 6.57101,-6.46246 0.12243,-1.52853 0.10071,-1.59074 -0.29649,-0.84934 -0.56994,1.06385 -6.53614,4.04374 -11.1943,5.59112 -18.641767,6.1926 -41.139717,2.18806 -53.050786,-9.44281 -1.571773,-1.5348 -2.416519,-2.15724 -2.576463,-1.89845 -0.350211,0.56666 5.588414,5.75564 9.690922,8.46762 1.014653,0.67075 1.773489,1.29087 1.686302,1.37806 -0.403489,0.40349 -4.525377,-2.12949 -7.931127,-4.87383 -2.068,-1.66639 -3.758615,-2.92897 -3.756923,-2.80575 0.02738,1.9944 7.578965,9.18284 11.933895,11.36001 2.008694,1.00421 2.454685,1.33908 1.904251,1.42978 -1.733347,0.28562 -7.816728,-3.22354 -10.760043,-6.20686 -2.956642,-2.99683 -3.743438,-3.13071 -1.250592,-0.21281 8.967598,10.49669 28.164474,16.34648 45.979434,14.01114 z m 3.24882,-13.43283 c 0.56444,-0.43218 0.5189,-0.44245 -0.49884,-0.11249 -1.38885,0.45027 -1.56567,0.5881 -0.7545,0.5881 0.3477,0 0.9117,-0.21402 1.25334,-0.47561 z m 6.81951,-1.81644 c 1.52703,-0.29259 1.99019,-0.59511 4.16,-2.71718 1.853,-1.81223 2.19475,-2.26772 1.41754,-1.88935 -2.26742,1.10387 -2.50538,0.69946 -1.87199,-3.18142 0.71779,-4.398 0.82241,-4.7233 1.87829,-5.84 0.54084,-0.572003 0.84711,-1.042208 0.68058,-1.044903 -1.19897,-0.0194 -1.12473,-0.619033 0.30158,-2.435894 1.68898,-2.151468 1.81545,-2.679205 0.64204,-2.679205 -1.33285,0 2.81993,-15.053564 5.75612,-20.865591 0.60995,-1.207354 0.93868,-2.194011 0.75176,-2.256318 -0.1827,-0.0609 0.28256,-0.56281 1.03391,-1.115358 l 1.36609,-1.004633 -1.55714,-0.09905 -1.55713,-0.09905 3.33216,-2.32 c 1.83269,-1.276 3.23892,-2.32 3.12494,-2.32 -0.37447,0 -9.93402,1.957429 -11.8971,2.436072 -1.056,0.257476 -4.08,0.597396 -6.72,0.755377 -5.02804,0.300886 -6.88,0.563208 -6.88,0.974522 0,0.26953 3.92295,1.914029 4.56591,1.914029 0.21955,0 1.04603,0.34175 1.83663,0.759444 0.93848,0.495822 2.27594,0.836442 3.85297,0.98126 3.00307,0.27577 3.35058,0.467428 3.01938,1.665258 -0.139,0.502721 -0.29576,2.373081 -0.34834,4.156356 -0.0671,2.275748 -0.34231,4.119717 -0.92313,6.185519 -0.89745,3.191922 -1.90072,8.090303 -2.2309,10.892163 -0.11407,0.968 -0.56163,3.306624 -0.99458,5.196942 -0.64438,2.81344 -0.71579,3.55127 -0.39362,4.06714 0.32506,0.5205 0.27506,0.91069 -0.28722,2.24157 -0.63166,1.49508 -0.53753,2.24432 0.2229,1.77435 0.176,-0.10878 0.32,-0.0521 0.32,0.12587 0,0.56312 -3.1684,3.51878 -5.38582,5.02419 l -2.13418,1.4489 1.6,-0.20088 c 0.88,-0.11048 2.37325,-0.34904 3.31835,-0.53013 z m 7.09768,-52.438554 c 7.71146,-0.592344 14.56106,-1.973404 17.69498,-3.567773 1.79729,-0.914368 1.33895,-0.947304 -1.55242,-0.111555 -18.60604,5.378068 -66.821677,2.318721 -83.6519,-5.307826 -3.571414,-1.618371 -1.355857,0.163448 2.693308,2.166042 1.936,0.957486 3.88,1.948198 4.32,2.201582 0.44,0.253384 1.376,0.46506 2.08,0.470391 1.214286,0.0092 1.320197,0.09158 2.062968,1.604717 0.892793,1.818753 1.297032,2.018568 1.297032,0.641121 0,-1.258683 1.080205,-1.543976 3.309251,-0.874006 3.445636,1.035631 5.989861,1.507909 8.123309,1.507909 1.214133,0 4.502498,0.218386 7.307477,0.485301 11.586199,1.102517 27.654195,1.44944 36.315995,0.784097 z M 73.539998,58.981402 c 0.231,-0.09244 0.507,-0.08107 0.613333,0.02526 0.106334,0.106333 -0.08267,0.181965 -0.42,0.16807 -0.372781,-0.01535 -0.448607,-0.09118 -0.193333,-0.193333 z"
     id="path1"
     transform="translate(-44.452805,-47.715147)" />
</svg>
