<?xml version="1.0" encoding="UTF-8" standalone="no"?>
<!-- Created with Inkscape (http://www.inkscape.org/) -->

<svg
   version="1.1"
   id="svg1"
   width="115.74207"
   height="87.62912"
   viewBox="0 0 115.74207 87.629122"
   sodipodi:docname="Icon_scarletwoman.svg"
   inkscape:version="1.4.2 (ebf0e940d0, 2025-05-08)"
   xmlns:inkscape="http://www.inkscape.org/namespaces/inkscape"
   xmlns:sodipodi="http://sodipodi.sourceforge.net/DTD/sodipodi-0.dtd"
   xmlns="http://www.w3.org/2000/svg"
   xmlns:svg="http://www.w3.org/2000/svg">
  <defs
     id="defs1" />
  <sodipodi:namedview
     id="namedview1"
     pagecolor="#505050"
     bordercolor="#eeeeee"
     borderopacity="1"
     inkscape:showpageshadow="0"
     inkscape:pageopacity="0"
     inkscape:pagecheckerboard="0"
     inkscape:deskcolor="#505050"
     inkscape:zoom="3.679109"
     inkscape:cx="66.728113"
     inkscape:cy="53.273768"
     inkscape:window-width="1838"
     inkscape:window-height="1011"
     inkscape:window-x="40"
     inkscape:window-y="47"
     inkscape:window-maximized="1"
     inkscape:current-layer="svg1" />
  <path
     style="fill:#65080b"
     d="m 62.015823,87.411587 c -1.060922,-0.45989 -1.181993,-1.13378 -0.424026,-2.3602 0.81767,-1.32302 0.862618,-1.762 0.111119,-1.08524 -4.207392,3.78898 -13.03782,0.32481 -11.971805,-4.69653 1.943537,-9.1548 1.300892,-10.19445 -1.519474,-2.45814 -1.74339,4.78215 -4.415336,5.8211 -7.767626,3.02034 -0.707733,-0.59129 -1.668006,-1.16652 -2.13394,-1.27828 -1.53896,-0.36914 -5.637174,-2.07607 -6.200895,-2.5827 -1.203397,-1.08153 -1.075713,-2.6909 0.527588,-6.6498 l 0.518381,-1.28 -1.206114,1.40513 c -3.887814,4.52932 -4.107978,4.59912 -8.197369,2.59882 -5.542675,-2.71117 -7.698802,-5.18909 -9.499045,-10.91673 -0.708947,-2.25558 -1.62237,-4.50294 -2.02983,-4.99414 -0.407459,-0.49119 -0.835956,-1.38328 -0.952216,-1.9824 -0.116259,-0.59912 -0.693576,-1.67912 -1.2829278,-2.4 -1.401224,-1.71393 -2.90615,-4.676005 -3.58468,-7.055554 -0.298747,-1.047679 -1.244471,-3.074239 -2.10161,-4.503466 -0.857139,-1.429227 -1.558435,-2.936199 -1.558435,-3.348826 0,-0.412628 -0.648,-1.9487 -1.44,-3.413494 -3.070607,-5.679049 -0.48323903,-6.781468 5.343456,-2.276725 0.650901,0.503225 1.874901,1.14631 2.72,1.429078 0.8450988,0.282767 1.8991328,0.766578 2.3422978,1.075136 1.038104,0.722789 1.441526,0.783642 3.232097,0.487535 3.822377,-0.632108 6.783017,3.479281 4.257891,5.91286 -1.174984,1.132386 -3.831567,4.674714 -4.172896,5.564204 -0.355654,0.926819 0.501842,0.5063 2.313987,-1.134786 1.734949,-1.571178 4.535815,-3.156999 5.587386,-3.163518 0.616304,-0.0038 1.641456,-1.088036 2.345008,-2.480113 0.28825,-0.570342 0.869003,-1.262981 1.290562,-1.539197 1.210548,-0.793181 1.171874,-1.193676 -0.32264,-3.341205 -0.772328,-1.109789 -1.489609,-2.286797 -1.593959,-2.615572 -0.104349,-0.328774 -0.743821,-0.880451 -1.42105,-1.225947 -1.33456,-0.680842 -1.9762,-1.967492 -3.052482,-6.121 -0.871193,-3.362046 -1.303993,-3.002621 -1.396698,1.159908 -0.06097,2.737765 -1.357519,3.896824 -1.968771,1.76 -0.125865,-0.44 -0.390215,-1.376 -0.587445,-2.08 -0.197231,-0.704 -0.64587,-1.64 -0.996976,-2.08 l -0.638375,-0.8 0.0793,2.148446 c 0.126558,3.428633 -0.445924,3.66278 -3.5361,1.446278 -1.2220328,-0.876532 -1.2482008,-0.880251 -2.6494098,-0.376458 -3.450266,1.240513 -6.296151,-0.366338 -4.920656,-2.778314 0.238361,-0.417974 0.675316,-1.307644 0.971012,-1.977047 0.67447,-1.526877 2.728491,-3.112354 6.1500588,-4.747165 1.460581,-0.697859 3.620581,-1.886666 4.8,-2.641792 4.21618,-2.699423 9.618635,-4.7480374 21.583391,-8.1844364 1.891446,-0.543242 4.699446,-1.395357 6.24,-1.893589 1.540554,-0.498231 3.881007,-1.15713 5.201007,-1.464219 1.32,-0.307089 2.619598,-0.80728804 2.887996,-1.11155404 0.917165,-1.039731 7.356335,0.203493 9.592004,1.85194804 0.44,0.324431 1.763373,2.231931 2.94083,4.238889 2.291815,3.9063574 4.098845,5.8409484 5.767555,6.1746904 1.70006,0.340011 5.72558,-0.156149 7.61416,-0.938474 5.95794,-2.4680164 7.52778,-1.8782514 14.23746,5.348812 2.464,2.653998 6.25432,6.715121 8.42293,9.024718 6.658941,7.091848 10.838991,13.985621 11.589971,19.114243 0.8171,5.580216 2.03166,11.224536 3.05152,14.181036 2.08999,6.05878 1.26337,7.52273 -2.23562,3.95929 -3.8236,-3.89403 -4.60015,-4.41508 -6.58294,-4.41709 -5.16315,-0.005 -6.577081,-3.22577 -1.96184,-4.46853 0.68278,-0.18385 1.40919,-0.53642 1.61424,-0.78349 0.58646,-0.70665 -0.14754,-0.92057 -1.23288,-0.35932 -0.52437,0.27116 -1.7166,0.65276 -2.64939,0.84799 -0.9328,0.19523 -2.179351,0.64849 -2.770121,1.00724 l -1.07412,0.65227 -1.41626,-0.68807 c -2.45484,-1.19266 -2.03036,-2.65803 1.23667,-4.26917 1.67294,-0.82501 3.447841,-2.470455 3.447841,-3.196375 0,-0.596304 -1.714211,0.07573 -3.109451,1.219021 -2.40347,1.969464 -5.70717,2.975504 -6.07588,1.850224 -0.0631,-0.1925 0.86183,-1.1642 2.05533,-2.159334 2.58608,-2.156255 3.97305,-4.122872 4.86874,-6.903518 1.07357,-3.332866 0.72845,-3.890337 -0.92271,-1.490455 -0.93359,1.356926 -3.95137,4.579472 -5.29603,5.655394 -0.352,0.281649 -1.17256,1.16417 -1.82346,1.961157 -0.6619,0.810456 -1.57857,1.547686 -2.08,1.672846 -3.01061,0.75143 -2.55131,3.08213 1.23001,6.24173 2.12416,1.7749 2.25623,1.82768 2.83345,1.13218 0.94772,-1.14194 2.30445,0.5292 2.76429,3.4049 0.60907,3.80891 8.442931,9.62883 14.191771,10.54332 6.49581,1.03332 0.3968,6.33226 -6.4631,5.61526 -1.82902,-0.19117 -1.8631,-0.18035 -1.50998,0.47945 0.66901,1.25007 -3.604821,3.28689 -9.363121,4.46228 -2.36991,0.48375 -4.55667,1.31564 -7.98683,3.03837 -2.82389,1.41825 -3.08152,1.48503 -6.16999,1.5993 -1.82358,0.0675 -4.33461,0.40613 -5.78304,0.77995 -2.88106,0.74355 -9.192776,1.13943 -10.327099,0.64772 z m 14.737276,-6.88019 c 0.78831,-2.12315 0.52905,-2.10864 -0.51939,0.0291 -0.52438,1.0692 -0.70927,1.72673 -0.4624,1.64444 0.22624,-0.0754 0.66804,-0.8285 0.98179,-1.67351 z m -19.601384,-1.67568 c 1.009721,-0.69592 1.567589,-1.40592 1.582996,-2.01468 0.0067,-0.264 0.221775,-0.88189 0.477986,-1.37308 0.486409,-0.93252 0.757134,-3.26668 0.418194,-3.60562 -0.107867,-0.10786 -0.374549,0.14022 -0.592628,0.55129 -0.218079,0.41107 -1.093745,1.53215 -1.945926,2.49128 -2.286592,2.57357 -2.242053,5.53701 0.05938,3.95081 z m 21.651464,-4.00337 c 0.22678,-1.12437 -0.17727,-3.30314 -0.54393,-2.93299 -0.25805,0.26051 -0.98512,5.083 -0.93373,6.19328 0.0279,0.60212 1.23649,-2.06456 1.47766,-3.26029 z m -11.77402,1.06244 c 1.20615,-1.20614 1.97529,-7.29696 1.34576,-10.65703 -0.20782,-1.1092 -0.53938,-2.80872 -0.73682,-3.77672 l -0.35898,-1.76 -0.37683,1.44 c -0.22893,0.87477 -0.31685,2.71315 -0.22401,4.68357 0.1335,2.83338 -0.29906,8.47228 -0.77603,10.11643 -0.21396,0.73752 0.36699,0.71368 1.12691,-0.0463 z m 18.76402,-2.43255 c -1.22013,-6.37705 -2.29745,-8.7095 -6.53398,-14.14647 -3.51745,-4.51414 -2.5818,-2.15594 1.12397,2.83285 2.1444,2.88682 3.0429,4.98401 4.29817,10.03242 1.15253,4.63518 1.92355,5.52365 1.11184,1.2812 z m -42.544762,0.74949 c 0.265006,-0.51247 0.779674,-1.89902 1.143708,-3.08123 0.364033,-1.1822 1.457965,-3.48538 2.430959,-5.11817 0.972994,-1.63279 1.662615,-3.07279 1.532491,-3.2 -0.39768,-0.38878 -2.466938,2.24658 -2.291316,2.91816 0.102655,0.39255 -0.03847,0.65247 -0.406525,0.74872 -0.925643,0.24206 -4.475598,8.02863 -4.006417,8.78778 0.27441,0.444 1.105904,-0.1054 1.5971,-1.05526 z m 29.583392,-0.6073 c 0.52644,-0.98368 0.26228,-4.78339 -0.33256,-4.78339 -0.13402,0 -0.33741,0.684 -0.452,1.52 -0.61661,4.49888 -0.61354,4.26182 -0.0524,4.04649 0.28922,-0.11099 0.66585,-0.46338 0.83696,-0.7831 z m 22.59154,-3.42339 c -0.58747,-1.13369 -2.10094,-2.76616 -2.3415,-2.5256 -0.26481,0.2648 0.7743,1.83766 1.77318,2.68401 1.0808,0.91575 1.11937,0.905 0.56832,-0.15841 z m -57.404584,-0.48 c 0.435495,-0.572 1.089575,-1.62468 1.453512,-2.33929 1.027641,-2.01783 4.408528,-6.4641 6.833309,-8.98661 2.160236,-2.2473 2.776811,-3.3104 1.637331,-2.82308 -0.308,0.13172 -0.961591,0.30829 -1.452423,0.39238 -1.507228,0.25821 -6.117023,6.51963 -9.059923,12.30596 -1.257196,2.4719 -0.886119,3.38707 0.588194,1.45064 z m -7.945916,-4.44139 c 2.57872,-2.73936 3.362263,-3.85302 2.287855,-3.25175 -1.281051,0.71691 -5.617787,5.00507 -5.617787,5.55485 0,1.05323 0.488438,0.71541 3.329932,-2.3031 z m 48.3698,0.52852 c -0.30397,-0.79592 -0.69446,-1.44713 -0.86776,-1.44713 -0.35431,0 -0.10959,0.97105 0.59216,2.34973 0.70416,1.38342 0.90164,0.73666 0.2756,-0.9026 z m -16.332437,0.11965 c 0.119981,-0.54627 0.09921,-1.80627 -0.04615,-2.8 -0.145363,-0.99373 -0.268087,-2.16678 -0.272721,-2.60678 -0.01483,-1.40824 -0.956895,-0.97811 -1.051293,0.48 -0.04558,0.704 -0.233706,2.20247 -0.418065,3.32995 -0.265645,1.62459 -0.24845,2.10496 0.08287,2.3151 0.861332,0.54628 1.485345,0.28346 1.705361,-0.71827 z m -7.53909,-1.61029 c 0.767228,-1.78347 1.313186,-5.71137 0.648006,-4.66209 -0.505091,0.79676 -1.916211,5.01024 -1.916211,5.72165 0,1.06628 0.552139,0.60498 1.268205,-1.05956 z m -34.55866,-4.29148 1.683517,-2.43529 -1.311851,0.66925 c -1.536492,0.78386 -2.235514,1.73148 -2.50578,3.39693 -0.259503,1.59913 0.08118,1.33878 2.134114,-1.63089 z m 67.530457,2.15016 c 0,-0.81668 -2.89223,-5.50634 -3.72951,-6.04728 -1.08042,-0.69802 -1.16323,0.0274 -0.14884,1.30386 0.50177,0.63139 1.09868,1.62054 1.32647,2.19812 0.8745,2.21734 2.55188,3.8904 2.55188,2.5453 z m -62.306013,-1.34042 c 0.451165,-0.35489 1.144081,-1.18289 1.539814,-1.84 0.395734,-0.65711 1.311998,-1.84275 2.036142,-2.63475 1.770073,-1.93594 3.28338,-4.18324 3.560527,-5.28749 l 0.227325,-0.90573 -1.009631,0.71892 c -0.555298,0.39541 -1.400122,1.24888 -1.877388,1.89661 -0.477266,0.64773 -1.91778,2.35171 -3.201143,3.78663 -1.575513,1.76156 -2.269691,2.77492 -2.137275,3.12 0.107862,0.28108 0.03671,0.51106 -0.158123,0.51106 -0.19483,0 -0.354237,0.288 -0.354237,0.64 0,0.8093 0.340106,0.808 1.373989,-0.005 z m 46.623783,-1.98683 c -0.49673,-2.41472 -0.82713,-3.12792 -1.44903,-3.12792 -2.02212,0 2.71388,-2.39642 5.39191,-2.72831 4.54171,-0.56286 5.79797,-5.239387 2.10361,-7.830836 -2.53125,-1.775567 -2.40827,-2.921784 0.66959,-6.240856 0.88849,-0.958119 1.8339,-3.238914 1.48655,-3.586268 -0.76576,-0.765754 -3.70355,2.318827 -4.41996,4.640797 l -0.74688,2.420744 -1.15903,-1.017637 c -0.736,-0.646218 -1.49983,-1.017636 -2.09278,-1.017636 -2.5843,0 -2.32813,-3.355642 0.60196,-7.885096 1.94904,-3.012913 2.93971,-5.234904 2.33395,-5.234904 -0.57518,0 -2.29852,3.127606 -3.99458,7.249596 -0.73541,1.787278 -1.66564,3.558233 -2.06717,3.935457 l -0.73007,0.685861 -1.03187,-0.868261 -1.03187,-0.868262 -1.491051,0.534387 c -2.398037,0.859447 -3.035736,0.744897 -2.83235,-0.508778 0.0928,-0.572 0.310994,-1.976 0.484881,-3.12 0.173888,-1.144 0.626497,-2.768614 1.005798,-3.610254 0.382134,-0.847923 0.645269,-1.989411 0.590129,-2.56 -0.08386,-0.867798 -0.274628,-0.529356 -1.213004,2.15199 -1.479925,4.228787 -2.065468,5.062332 -3.759273,5.351486 -0.735596,0.125576 -1.622682,0.380973 -1.971303,0.567549 -0.774883,0.414705 -2.811209,0.447555 -3.057332,0.04932 -0.09855,-0.15945 1.165084,-2.371568 2.808065,-4.915818 2.342163,-3.626973 3.067794,-5.027029 3.360281,-6.483431 0.501539,-2.497346 0.395515,-2.460992 -1.210104,0.414924 -7.707403,13.805171 -16.078853,12.422153 -11.567541,-1.911034 1.209458,-3.84265 1.426016,-4.945694 1.020214,-5.196493 -0.705828,-0.436226 -2.294593,3.591951 -2.623306,6.651166 -0.800093,7.446187 -4.038767,10.462703 -6.790289,6.324506 -2.73478,-4.113017 -3.493669,-6.086594 -3.267699,-8.498028 0.350476,-3.740102 -0.490961,-5.196942 -1.72834,-2.992397 -0.527014,0.938943 -0.422465,1.529053 0.912769,5.15196 1.110722,3.013735 1.208654,4.527668 0.338573,5.234025 -2.025569,1.644419 -2.467775,2.770263 -1.427274,3.633803 0.376168,0.312191 0.400439,0.502259 0.108982,0.853443 -0.299951,0.361419 -0.140698,0.691713 0.796054,1.651035 1.351447,1.384007 1.412599,1.72418 0.51507,2.865203 l -0.655948,0.833903 2.113461,0.684797 c 2.564438,0.830922 5.598435,3.528364 5.598435,4.977412 0,0.704328 0.179178,0.886513 1.04,1.057457 3.118091,0.619198 4.767713,1.577393 4.567931,2.653318 l -0.189368,1.01984 2.655368,-0.007 c 3.385721,-0.009 4.970394,0.58283 5.846069,2.18494 0.972103,1.77853 2.22273,2.60196 2.952198,1.94377 0.653248,-0.58942 6.017304,-1.10052 7.880894,-0.75091 1.20954,0.22692 3.42675,3.07678 4.81831,6.19318 0.81856,1.83316 1.00689,1.47785 0.50637,-0.95534 z m -34.870345,-4.92261 c 1.999179,-2.46582 1.775447,-2.65434 -0.775849,-0.65377 -1.153906,0.90482 -3.071578,3.48511 -3.071578,4.1329 0,0.60898 1.997228,-1.19706 3.847427,-3.47913 z m -20.279375,-1.16531 c 0.715718,-0.748 1.784735,-2.08 2.375594,-2.96 0.590859,-0.880003 1.637594,-2.212003 2.326077,-2.960003 1.523733,-1.655453 1.49683,-1.658842 -1.261187,-0.158857 -1.992028,1.083392 -2.305048,1.393072 -3.193034,3.15897 -0.541475,1.0768 -1.297475,2.35571 -1.68,2.84201 -1.507294,1.91621 -0.384833,1.97723 1.43255,0.0779 z m 7.311012,-0.42882 c 0.427101,-0.27984 1.845309,-1.89984 3.151575,-3.599995 1.306266,-1.700153 3.040918,-3.586823 3.854783,-4.1926 1.507139,-1.121796 1.615296,-2.052244 0.148933,-1.281245 -1.427512,0.750573 -6.729553,6.21351 -7.504286,7.73202 -1.059978,2.07759 -1.018328,2.23773 0.348995,1.34182 z m 14.099271,-4.745019 c 0.341363,-0.24961 0.533285,-0.541211 0.426494,-0.648001 -0.106791,-0.106791 -0.538564,0.09265 -0.959497,0.44319 -0.869366,0.723993 -0.415519,0.898387 0.533003,0.204811 z m 49.316167,-1.066164 c 2.27792,-2.842612 2.30791,-4.150763 0.0584,-2.547045 -1.35577,0.966544 -2.97235,1.777708 -4.55869,2.287448 -0.816,0.262206 -0.53568,0.473136 1.29871,0.977229 2.18184,0.599571 2.13822,0.609348 3.20159,-0.717632 z m -75.938291,-2.94629 c 0.816085,-0.87246 1.48379,-1.659588 1.48379,-1.749173 0,-0.341425 -2.89807,1.811302 -3.2013688,2.378021 -0.822718,1.537264 -0.04078,1.250975 1.7175788,-0.628848 z m 73.301961,-0.671691 c 0.60907,-0.674161 1.27082,-1.832662 1.47056,-2.574448 0.34638,-1.286353 1.42733,-2.633327 2.67247,-3.330157 0.53645,-0.300219 0.8738,-1.378436 1.36143,-4.351283 0.45879,-2.797065 -0.55196,-2.877615 -1.47729,-0.117731 -1.06298,3.170419 -1.96651,4.939936 -4.45282,8.720578 -2.40709,3.660185 -2.18098,4.538277 0.42565,1.653041 z m -5.63542,-11.047257 c 1.8264,-1.563326 5.81725,-9.420991 5.81725,-11.453691 0,-4.182947 -2.71611,-1.59233 -4.02033,3.834582 -0.29137,1.212391 -1.19708,3.572348 -2.0127,5.244348 -0.81561,1.672 -1.53184,3.148 -1.59162,3.28 -0.2578,0.569267 0.56794,0.155697 1.8074,-0.905239 z m -9.21435,-3.174761 c 1.78368,-3.667911 2.03002,-4.990396 0.55395,-2.973933 -1.18898,1.624281 -2.6305,4.625614 -2.9653,6.173933 l -0.20759,0.96 0.68702,-0.8 c 0.37786,-0.44 1.24722,-1.952 1.93192,-3.36 z m -19.488331,0.08145 c 0.370706,-0.726645 0.735769,-2.184632 0.815837,-3.258289 l 0.144911,-1.943165 -1.135649,1.28 c -1.062773,1.197861 -1.135955,1.419822 -1.14041,3.458885 -0.0053,2.430848 0.263027,2.525216 1.315311,0.462569 z m -20.200126,-1.92145 c -3e-5,-0.22 -0.21603,-1.528667 -0.48,-2.90815 -0.287802,-1.504032 -0.479945,-4.346906 -0.479945,-7.101114 0,-4.929374 -0.223228,-5.65942 -1.121437,-3.667548 -0.47948,1.063296 -0.530424,1.688889 -0.318509,3.91128 0.138745,1.455043 0.230076,3.488369 0.202957,4.518503 -0.03719,1.412801 0.158756,2.336596 0.797542,3.76 0.791465,1.76362 1.399519,2.409753 1.399392,1.487029 z M 41.374573,25.937 c 0.517312,-1.447587 0.236665,-3.580009 -0.919232,-6.984533 -0.717606,-2.113603 -0.920365,-3.253244 -0.874652,-4.916124 0.03273,-1.190581 -0.03035,-2.254552 -0.140178,-2.36438 -0.916228,-0.916228 -1.580161,11.122015 -0.725655,13.157361 1.081903,2.576982 1.998263,2.958613 2.659717,1.107676 z M 24.852096,24.090653 c -0.188813,-0.46729 -0.30862,-2.024282 -0.266237,-3.459983 0.04238,-1.435701 -0.02136,-2.71012 -0.141652,-2.832043 -1.164416,-1.180219 -1.329569,5.638187 -0.18129,7.484637 0.833381,1.340088 1.261987,0.472507 0.589179,-1.192611 z m 43.961543,-1.729618 c 0.94808,-1.656241 0.89414,-1.800027 -0.36564,-0.974591 -0.84295,0.55232 -1.70508,2.168014 -1.70508,3.195424 0,0.786824 0.9041,-0.182819 2.07072,-2.220833 z m 9.11213,-1.871071 c 0.38592,-0.897089 0.62313,-1.70961 0.52714,-1.8056 -0.5098,-0.509801 -2.29386,2.17597 -1.98319,2.985553 0.31484,0.820455 0.74571,0.471288 1.45605,-1.179953 z M 58.904899,17.46756 c 2.835214,-4.366853 2.946364,-4.804404 0.753338,-2.965573 -1.634946,1.370887 -3.47532,4.574102 -3.47532,6.048878 0,1.015147 0.230687,0.753838 2.721982,-3.083305 z M 44.000426,11.78215 c -0.01593,-1.40311 -0.10273,-1.7943904 -0.297509,-1.341115 -0.394227,0.917416 -0.394227,3.763646 0,3.52 0.176,-0.108774 0.309879,-1.089272 0.297509,-2.178885 z m -9.897509,-0.05774 c 0,-0.501885 -0.291084,-0.846298 -0.943739,-1.116636 -1.438895,-0.59601 -1.594856,-0.319535 -0.877439,1.555458 l 0.658952,1.722193 0.581113,-0.717644 c 0.319612,-0.394704 0.581113,-1.044221 0.581113,-1.443371 z m 10.5502,-3.2033724 c 0,-0.176 -0.13959,-0.104 -0.3102,0.16 -0.17061,0.264 -0.3102,0.624 -0.3102,0.8 0,0.176 0.13959,0.104 0.3102,-0.16 0.17061,-0.264 0.3102,-0.624 0.3102,-0.8 z M 105.54463,63.454647 c -2.31885,-0.99055 -2.49837,-1.47912 -0.73735,-2.00673 1.8133,-0.54328 4.03063,0.10448 4.68425,1.36845 0.92633,1.79132 -0.65067,2.04635 -3.9469,0.63828 z m -15.121711,-9.65635 c -0.67795,-0.53604 -0.72677,-0.68099 -0.32,-0.95001 1.21633,-0.80444 2.53211,-0.10913 1.69385,0.8951 -0.57355,0.68709 -0.57428,0.68712 -1.37385,0.0549 z M 17.022873,32.269822 c -0.531525,-0.388661 -0.526434,-0.443732 0.09282,-1.004148 0.641591,-0.580632 0.661171,-0.57708 0.943634,0.171213 0.460301,1.219418 -9.59e-4,1.590106 -1.036453,0.832935 z m -6.999955,-2.369371 c -0.7451648,-0.194732 -0.7203498,-1.059416 0.0304,-1.059416 0.324722,0 0.85104,0.288 1.169596,0.64 0.625255,0.690899 0.288824,0.808486 -1.2,0.419416 z"
     id="path3" />
</svg>
