<?xml version="1.0" encoding="UTF-8" standalone="no"?>
<!-- Created with Inkscape (http://www.inkscape.org/) -->

<svg
   version="1.1"
   id="svg1"
   width="123.89219"
   height="58.747513"
   viewBox="0 0 123.89219 58.747514"
   sodipodi:docname="Icon_huntsman.svg"
   inkscape:version="1.4.2 (ebf0e940d0, 2025-05-08)"
   xmlns:inkscape="http://www.inkscape.org/namespaces/inkscape"
   xmlns:sodipodi="http://sodipodi.sourceforge.net/DTD/sodipodi-0.dtd"
   xmlns="http://www.w3.org/2000/svg"
   xmlns:svg="http://www.w3.org/2000/svg">
  <defs
     id="defs1" />
  <sodipodi:namedview
     id="namedview1"
     pagecolor="#505050"
     bordercolor="#eeeeee"
     borderopacity="1"
     inkscape:showpageshadow="0"
     inkscape:pageopacity="0"
     inkscape:pagecheckerboard="0"
     inkscape:deskcolor="#505050"
     inkscape:zoom="5.982291"
     inkscape:cx="56.917993"
     inkscape:cy="39.616929"
     inkscape:window-width="1838"
     inkscape:window-height="1011"
     inkscape:window-x="40"
     inkscape:window-y="47"
     inkscape:window-maximized="1"
     inkscape:current-layer="svg1" />
  <path
     style="fill:#0165ac"
     d="m 0,58.555541 c 0,-0.0979 1.215515,-1.93892 2.701145,-4.0912 l 2.701145,-3.91323 11.367949,-11.34741 11.367949,-11.347407 2.776368,2.707407 c 1.527002,1.489074 3.24551,3.175408 3.818906,3.747408 1.430087,1.426606 1.151091,1.658403 5.399103,-4.485702 C 50.618363,14.65929 61.457631,0.02265904 62.219981,1.8037343e-5 62.891039,-0.01991196 75.083821,16.479909 84.796151,30.551109 c 1.63998,2.376 3.084,4.437054 3.20894,4.58012 0.12493,0.143067 1.85417,-1.404933 3.84275,-3.439999 4.48315,-4.587938 2.47575,-5.565914 15.558459,7.579878 l 11.22586,11.280003 1.90301,2.88 c 1.04665,1.584 2.23016,3.42 2.63001,4.08 l 0.72701,1.2 h -3.20198 -3.20198 l -1.0266,-2.72 c -1.25915,-3.33617 -1.27411,-3.33666 -2.43607,-0.08 l -0.94194,2.64 -0.83005,0.0982 -0.83006,0.0982 -0.54142,-1.63009 c -0.29779,-0.89655 -0.44917,-1.87053 -0.3364,-2.16441 l 0.20504,-0.53431 -1.02551,-2.84402 -1.02551,-2.84401 -1.07965,2.83023 -1.07965,2.83023 0.28499,0.48 0.285,0.48 -0.31887,0.96 c -0.17539,0.528 -0.42207,1.07564 -0.54819,1.21698 -0.12612,0.14134 -1.28173,-2.76878 -2.56803,-6.46693 -2.42403,-6.96921 -2.57424,-7.21355 -3.21241,-5.2256 -0.991199,3.08766 -2.648819,7.08786 -2.878319,6.94602 -0.14044,-0.0868 -0.35116,-0.59406 -0.46827,-1.12725 l -0.21292,-0.96944 0.35019,-0.42195 0.35019,-0.42195 -1.41224,-3.96494 -1.41224,-3.96494 -0.3058,0.8 c -0.1682,0.44 -0.84797,2.28264 -1.51062,4.09476 l -1.20481,3.29477 0.5161,0.38523 0.51611,0.38524 -1.17237,3.13795 -1.17236,3.13796 -0.29192,-0.52162 c -1.19095,-2.12811 -2.62679,-7.51429 -2.00315,-7.51429 h 0.47047 l -1.27228,-3.55165 c -0.69975,-1.9534 -1.38931,-3.76076 -1.53234,-4.01635 l -0.26006,-0.4647 -1.37212,3.75875 c -0.75467,2.06731 -1.44423,3.94667 -1.53237,4.17635 l -0.16025,0.4176 h 0.51424 c 0.6393,0 0.63871,0.15034 -0.008,2.10299 -0.88902,2.68308 -0.67724,2.97875 -3.66444,-5.11581 l -0.69853,-1.89281 -1.50264,4.13281 -1.50264,4.13282 0.46861,0.34731 0.46861,0.34731 -0.56657,1.73269 c -1.04254,3.18831 -1.79156,4.19837 -2.17477,2.93269 -0.0932,-0.308 -0.69619,-2.072 -1.33987,-3.92 l -1.17031,-3.36 0.35973,-0.58319 0.35974,-0.58319 -1.36304,-3.81936 -1.36304,-3.81937 -0.25234,0.45091 c -0.13879,0.248 -0.83147,2.06758 -1.5393,4.04351 l -1.286953,3.59261 0.49075,0.35904 0.490751,0.35904 -1.391656,3.84 -1.391656,3.84 H 62.080299 59.7324 l -1.386051,-3.82483 c -1.57116,-4.33482 -1.571235,-4.33519 -0.872114,-4.33519 h 0.514236 l -0.151191,-0.4 c -0.08315,-0.22 -0.769764,-2.102 -1.525799,-4.18222 l -1.374608,-3.78221 -0.373556,0.90221 c -0.205456,0.49622 -0.866253,2.31041 -1.468437,4.03154 l -1.094881,3.12932 0.449338,0.28006 0.449338,0.28005 -1.406079,4.03063 c -1.666531,4.77722 -1.838624,4.85063 -3.044568,1.29879 l -0.927527,-2.73183 0.452926,-0.27992 0.452926,-0.27992 -0.74631,-2.02825 c -0.410471,-1.11554 -1.068762,-2.96425 -1.46287,-4.10825 l -0.716559,-2.08 -0.182417,0.48 c -0.460995,1.21303 -2.758198,7.74529 -2.758198,7.84313 0,0.0605 0.191088,0.1565 0.424639,0.2134 l 0.424639,0.10347 -0.285077,1.08356 -0.285076,1.08356 -0.268896,-0.28356 c -0.147893,-0.15596 -0.670821,-1.42619 -1.162062,-2.82273 l -0.893165,-2.53917 0.382499,-0.1275 c 0.584177,-0.19472 0.492593,-0.61391 -1.033957,-4.73256 l -1.416456,-3.8216 -0.180575,0.48 c -0.09932,0.264 -0.755584,2.1 -1.458373,4.08 l -1.277799,3.6 h 0.47483 c 0.660588,0 0.638517,0.11108 -0.856974,4.31316 l -1.331803,3.74215 -0.234798,-0.42766 c -0.12914,-0.23521 -0.676338,-1.68357 -1.215996,-3.21858 l -0.981197,-2.79093 0.471821,-0.26404 0.47182,-0.26405 -1.294055,-3.66502 c -0.71173,-2.01577 -1.373621,-3.88103 -1.470868,-4.14503 l -0.176814,-0.48 -1.406995,3.84 c -1.492569,4.07355 -1.623668,4.64 -1.073886,4.64 h 0.345426 l -0.222151,1.04 c -0.122184,0.572 -0.325763,1.23146 -0.452399,1.46546 l -0.230248,0.42547 -1.537606,-4.26546 c -0.845683,-2.34601 -1.632433,-4.37316 -1.748334,-4.50478 -0.115901,-0.13162 -0.833271,1.50511 -1.594155,3.63718 l -1.383426,3.87648 0.438483,0.271 0.438482,0.27099 -0.92454,2.72303 c -1.135932,3.34564 -1.019577,3.42847 -2.922102,-2.08006 -0.861833,-2.49533 -1.615338,-4.4115 -1.674456,-4.25814 -4.120101,10.68793 -3.996522,10.52398 -5.347565,7.09437 -0.533959,-1.35545 -1.050389,-2.539 -1.147624,-2.63012 -0.09723,-0.0911 -0.677616,1.01789 -1.289738,2.46445 l -1.112949,2.63013 -3.270261,0.0912 C 1.471618,58.692511 0,58.653411 0,58.555511 Z m 18.782983,-16.13599 c 2.605359,-1.21636 6.170558,-2.797704 7.922665,-3.514106 l 3.185649,-1.30255 0.734351,0.689887 0.734351,0.689887 6.75e-4,1.944222 6.75e-4,1.94422 1.91865,-2.880003 c 1.055258,-1.584 1.918954,-3.026572 1.919326,-3.205717 10e-4,-0.492386 -6.600309,-6.969252 -6.964188,-6.832883 -1.182895,0.443306 -15.264951,14.678603 -14.52059,14.678603 0.182281,0 2.463077,-0.9952 5.068436,-2.21156 z m 90.383877,0.67738 c -0.35019,-0.4918 -3.44443,-3.767803 -6.87609,-7.280004 l -6.239389,-6.385818 -3.38569,3.354282 -3.38569,3.354283 v 0.59342 c 0,0.472112 3.06009,5.338017 3.357,5.338017 0.0424,0 -0.0413,-0.612 -0.18603,-1.36 -0.39872,-2.061062 -0.38804,-2.095527 1.06903,-3.448853 1.63643,-1.519924 3.39021,-0.953547 9.519999,3.07445 1.03821,0.682233 6.43252,3.637013 6.66179,3.649053 0.056,0.003 -0.18473,-0.39703 -0.53493,-0.88883 z M 75.658171,33.444425 c -0.6003,-2.191055 -1.27296,-4.153594 -1.49481,-4.361197 -1.83468,-1.716871 -4.53466,-3.972119 -4.75542,-3.972119 -0.14923,0 1.41621,2.796729 3.47875,6.214954 2.06254,3.418224 3.77546,6.189561 3.80649,6.158526 0.031,-0.03104 -0.43472,-1.84911 -1.03501,-4.040164 z M 44.707852,32.046364 c 1.546681,-1.289609 3.028147,-2.609538 3.292147,-2.933175 l 0.48,-0.588431 -2.717872,1.413175 -2.717873,1.413176 -0.716863,1.28 c -1.34014,2.392895 -1.128347,2.340869 2.380461,-0.584745 z m 11.14749,-5.335255 c 9.200562,-13.72613 8.341169,-13.105165 12.397869,-8.958229 l 3.13322,3.202907 4.18031,3.057466 c 2.29917,1.681607 4.23468,3.003097 4.30113,2.936646 C 80.116371,26.701404 65.176569,5.616273 63.282516,3.542326 L 62.085033,2.231109 61.76971,2.749841 c -0.173428,0.285303 -1.247888,1.797302 -2.387689,3.36 -1.139802,1.562698 -3.308915,4.569268 -4.820252,6.681268 -5.486712,7.667342 -8.981,12.439555 -9.884356,13.499246 -1.322399,1.551254 -1.192212,1.523544 4.241512,-0.902788 2.705409,-1.208052 5.027786,-2.196458 5.160838,-2.196458 0.133052,0 -0.604465,2.316356 -1.638926,5.147459 -1.034461,2.831102 -1.880838,5.299809 -1.880838,5.486016 0,0.491579 1.985805,-2.176044 5.295343,-7.113475 z"
     id="path1" />
</svg>
