<?xml version="1.0" encoding="UTF-8" standalone="no"?>
<!-- Created with Inkscape (http://www.inkscape.org/) -->

<svg
   version="1.1"
   id="svg1"
   width="77.622627"
   height="119.51711"
   viewBox="0 0 77.622629 119.51711"
   sodipodi:docname="Icon_zombuul.svg"
   inkscape:version="1.4.2 (ebf0e940d0, 2025-05-08)"
   xmlns:inkscape="http://www.inkscape.org/namespaces/inkscape"
   xmlns:sodipodi="http://sodipodi.sourceforge.net/DTD/sodipodi-0.dtd"
   xmlns="http://www.w3.org/2000/svg"
   xmlns:svg="http://www.w3.org/2000/svg">
  <defs
     id="defs1" />
  <sodipodi:namedview
     id="namedview1"
     pagecolor="#505050"
     bordercolor="#eeeeee"
     borderopacity="1"
     inkscape:showpageshadow="0"
     inkscape:pageopacity="0"
     inkscape:pagecheckerboard="0"
     inkscape:deskcolor="#505050"
     showgrid="false"
     inkscape:zoom="4.2301186"
     inkscape:cx="42.670199"
     inkscape:cy="62.173198"
     inkscape:window-width="1838"
     inkscape:window-height="1011"
     inkscape:window-x="40"
     inkscape:window-y="47"
     inkscape:window-maximized="1"
     inkscape:current-layer="svg1" />
  <path
     style="fill:#64090c"
     d="m 62.366267,115.36803 c -1.51957,-2.332 -3.80358,-5.83997 -5.07559,-7.79549 -3.23964,-4.98045 -4.32328,-5.53008 -7.24717,-3.6758 -2.056306,1.30407 -2.052619,1.24394 -0.30028,4.89678 3.03278,6.32197 3.03181,6.3096 0.35514,4.52187 -4.821791,-3.22045 -8.370932,-8.15188 -13.780314,-19.147356 -2.078056,-4.224 -4.93831,-9.47703 -6.35612,-11.6734 -1.432538,-2.21919 -2.660324,-4.49393 -2.7635,-5.12 -0.296739,-1.80062 -0.38349,-1.92942 -1.651299,-2.45172 -1.763902,-0.72669 -2.590061,-1.6137 -3.794527,-4.07404 -1.391359,-2.8421 -1.428222,-2.88198 -4.490959,-4.858009 C 15.181195,64.648588 14.258975,63.77793 12.653531,61.64039 9.8822627,57.950635 8.8986147,56.9515 7.1649107,56.065356 5.4995687,55.214152 4.6626357,54.234651 4.6626357,53.13683 c 0,-0.571526 -0.179543,-0.728798 -0.832,-0.728798 -2.725693,0 -3.43955304,-2.607536 -2.34412,-8.562422 0.497858,-2.706405 0.130661,-5.232349 -0.98926404,-6.805139 -0.962993,-1.352399 -0.577179,-1.711054 1.59625404,-1.483885 l 1.822463,0.190485 v -0.952124 c 0,-1.327128 1.216103,-2.546915 2.539221,-2.546915 1.539993,0 2.47386,1.303024 2.293418,3.2 l -0.136975,1.44 1.33448,-0.108164 c 2.3085643,-0.187117 2.9603253,1.108516 1.7505413,3.479889 -0.843857,1.654096 -1.097473,3.774539 -0.567166,4.741985 0.411269,0.750284 8.803682,3.526854 10.746735,3.555482 1.982914,0.02921 3.811126,-6.834514 3.402031,-12.772382 -0.416529,-6.045789 -0.337318,-8.969677 0.274604,-10.136239 0.581425,-1.108422 0.461203,-1.40057 -0.576348,-1.40057 -0.646259,0 -0.714983,-0.200789 -0.903591,-2.64 -0.236585,-3.059674 -1.168635,-6.666533 -2.299267,-8.897727 -1.00363,-1.98057 -1.005367,-1.971486 0.328983,-1.72116 0.616,0.115562 1.60803,0.118558 2.204512,0.0067 l 1.084512,-0.203455 0.04203,-4.5383144 c 0.05339,-5.76412897 1.090882,-7.504063 3.210604,-5.38434097 0.591954,0.59195397 0.763589,1.07043197 1.636553,4.56232097 0.607687,2.430768 1.743081,3.071047 3.807134,2.146943 2.481732,-1.111104 2.667188,-0.908408 1.417319,1.549076 C 33.193305,13.673901 32.76855,21.324222 34.72271,23.22337 c 0.389626,0.378656 0.670946,1.471849 0.92284,3.586089 0.310255,2.604093 1.110539,5.872994 1.565322,6.393835 0.07454,0.08537 0.402662,-0.198922 0.729153,-0.631762 0.572707,-0.759254 0.615804,-0.766906 1.223245,-0.217179 0.708843,0.641494 0.699276,0.661434 3.556573,-7.412773 2.394492,-6.766406 3.960951,-7.98869 7.245444,-5.653504 0.86641,0.616 1.81496,1.12 2.10788,1.12 3.09719,0 3.20557,5.527924 0.22705,11.579961 -4.7614,9.674652 -0.5491,11.430962 4.84482,2.020038 2.98084,-5.200748 5.00652,-6.329183 8.32375,-4.63686 3.54889,1.810506 3.32739,4.302118 -1.2242,13.770825 -1.95805,4.073367 -3.37685,7.335801 -3.15287,7.249854 10.91753,-4.18945 16.98138,3.300221 7.48091,9.239931 -3.86498,2.416395 -10.45435,10.147519 -11.93289,14.000539 -0.79464,2.07079 3.49434,7.35003 8.96108,11.03004 5.46142,3.67643 5.4619,3.65459 -0.078,3.55 -5.04151,-0.0952 -5.50019,0.0587 -5.50019,1.84513 0,2.81693 1.28144,4.1211 5.94127,6.04662 4.09793,1.69334 4.40169,1.92146 2.97035,2.23069 -7.46026,1.61177 -7.45648,1.712146 0.30985,8.241356 7.8018,6.55905 8.37853,7.17065 8.37853,8.88516 0,3.34745 -2.81417,2.60252 -8.32,-2.20239 -1.32,-1.15195 -2.661,-2.31312 -2.98,-2.58037 -0.35218,-0.29506 0.0638,0.83815 1.05897,2.88509 1.85376,3.81278 1.82942,4.59937 -0.17167,5.54895 -1.77159,0.84068 -1.94139,0.70941 -4.84367,-3.74457 z m 4.69637,1.67805 c 0.67939,-0.44182 -2.03483,-5.61804 -6.48657,-12.37036 -3.94658,-5.986096 -3.75343,-5.813056 -3.75343,-3.36274 0,1.72542 8.54268,16.07441 9.55546,16.05015 0.1125,-0.003 0.42054,-0.14537 0.68454,-0.31705 z m 8.75831,-2.31805 c 0.10612,-0.396 0.19491,-0.80762 0.19732,-0.9147 0.002,-0.10708 -0.75163,-0.70406 -1.67563,-1.32663 -0.924,-0.62256 -3.07594,-2.37095 -4.78209,-3.8853 -3.659,-3.24768 -3.51729,-3.2027 -3.39464,-1.07751 l 0.0967,1.67586 3.2,2.50518 c 4.72016,3.69528 6.01339,4.31015 6.35831,3.0231 z m -30.026506,-9.55375 c -0.265291,-1.12544 -0.484475,-2.51271 -0.487077,-3.08282 -0.0026,-0.57011 -0.287398,-1.78049 -0.632881,-2.689726 -0.725539,-1.90946 -0.599354,-2.3272 0.628765,-2.08158 0.858281,0.17166 0.911883,0.0958 1.915183,-2.70895 0.848086,-2.37088 1.126006,-2.84434 1.558196,-2.65449 0.2893,0.12708 1.82201,0.39686 3.40601,0.59951 2.61905,0.33506 3.07345,0.50171 5.0151,1.83923 1.93046,1.32982 3.91675,2.14739 4.29592,1.76822 0.0799,-0.0799 -0.64732,-0.75672 -1.61602,-1.50407 -4.05797,-3.1307 -4.5935,-4.44768 -3.58311,-8.81157 0.47071,-2.03298 1.08083,-2.16066 3.93723,-0.82399 1.1565,0.54119 2.2111,0.98399 2.34355,0.98399 0.30868,0 -4.87649,-5.12239 -5.58854,-5.52087 -1.05103,-0.58819 -5.18799,-1.40882 -5.85613,-1.16166 -0.45238,0.16734 -0.90548,0.0628 -1.40757,-0.32472 -0.75725,-0.58449 -7.806055,-4.19275 -8.190614,-4.19275 -0.116959,0 0.787622,1.008 2.010182,2.24 2.486146,2.50534 2.492046,2.65861 0.04928,1.28 -2.591164,-1.46237 -2.722727,-1.3634 -1.914335,1.44 0.166136,0.57613 0.0998,0.56169 -0.664754,-0.14476 -0.596528,-0.5512 -1.161556,-0.76373 -1.89843,-0.71411 -0.766097,0.0516 -1.253368,-0.14675 -1.806222,-0.73524 -0.880392,-0.93713 -1.285537,-1.02257 -1.285537,-0.27109 0,0.29414 -0.220446,0.77839 -0.489879,1.07611 -0.269434,0.29772 -0.579441,1.31706 -0.688906,2.2652 -0.109464,0.94814 -0.32935,1.80953 -0.488636,1.91422 -0.159285,0.10468 0.0096,0.69743 0.375277,1.31722 0.365687,0.61979 0.581234,1.34489 0.478994,1.61133 -0.106512,0.27756 1.282298,3.26793 3.252283,7.00277 1.890996,3.58509 4.14799,8.030346 5.015542,9.878346 2.30801,4.91636 3.143475,5.71185 2.317131,2.20625 z m 5.908196,-21.652056 c -1.672,-1.53879 -3.5097,-3.132 -4.083765,-3.54047 -1.000169,-0.71164 -1.128413,-1.33372 -0.274952,-1.33372 0.221934,0 0.972607,0.48712 1.668157,1.08248 0.69555,0.59537 1.49384,1.13537 1.77396,1.2 0.58033,0.1339 4.7566,4.5931 4.7566,5.07884 0,0.77349 -1.00299,0.12386 -3.84,-2.48713 z m 1.22882,-7.52911 c 1.69571,-0.69968 1.70955,-0.71667 1.80361,-2.21567 0.0654,-1.04299 0.40322,-1.97623 1.09118,-3.01486 1.50454,-2.27144 1.3212,-2.93854 -1.61433,-5.87407 -1.23371,-1.233711 -1.86652,-2.081402 -1.61611,-2.164873 0.26708,-0.08903 -0.0421,-0.629406 -0.8808,-1.539251 -1.4862,-1.612332 -1.66446,-2.754083 -0.57237,-3.666009 0.396,-0.330673 1.152,-0.955527 1.68,-1.388564 1.35018,-1.107346 0.84409,-1.331412 -1.54595,-0.684457 -3.553661,0.961931 -6.250035,-2.218354 -4.921029,-5.804194 0.302952,-0.817406 0.387885,-1.453687 0.208815,-1.564359 -0.521818,-0.322501 -0.328573,-0.788775 0.326903,-0.788775 0.519652,0 1.291261,-0.824718 1.291261,-1.38014 0,-0.07822 -0.438884,-0.324006 -0.975295,-0.546195 -0.536411,-0.222188 -1.868411,-1.374168 -2.96,-2.559956 -1.091589,-1.185787 -2.448439,-2.390956 -3.015221,-2.678155 -1.177026,-0.596418 -1.689486,-1.38387 -1.689486,-2.596081 0,-0.706961 -0.106823,-0.808697 -0.66359,-0.631986 -2.465448,0.782503 -3.898014,-2.212016 -4.940632,-10.327487 -0.270832,-2.108088 -0.55719,-2.099171 -2.569157,0.08 -2.35376,2.549369 -2.99223,2.373161 -1.566912,-0.432442 1.369202,-2.695145 2.045041,-5.751843 2.06233,-9.327557 0.01019,-2.107286 0.183858,-3.135109 0.770961,-4.562775 l 0.75781,-1.842774 -1.120954,0.98421 c -1.306134,1.146801 -2.509333,1.669067 -3.280976,1.424157 -0.399571,-0.126819 -0.822603,0.270535 -1.572775,1.47731 l -1.026187,1.650789 -0.983758,-0.925458 -0.983757,-0.925459 0.478033,0.96 c 0.262918,0.528 0.583218,1.82385 0.711778,2.879667 0.384194,3.155247 1.286729,4.320333 3.346749,4.320333 1.226689,0 1.227944,0.32582 0.0081,2.098829 -3.502679,5.090969 -2.569407,12.962511 1.724949,14.548832 1.482584,0.547662 2.048651,2.176558 0.688006,1.979781 -3.788332,-0.547868 -4.829764,1.005152 -4.568401,6.812557 0.16182,3.595591 0.834316,5.397318 2.389967,6.403112 2.177294,1.407712 3.861003,4.316888 2.498434,4.316888 -0.264,0 -0.48,-0.12625 -0.48,-0.280555 0,-1.802024 -8.108833,-6.468657 -10.031803,-5.773302 -1.307574,0.472825 -2.285665,-0.02942 -2.021858,-1.038222 0.57791,-2.209934 -6.37349,-3.885724 -8.423341,-2.030634 -0.9675233,0.875596 -1.0833553,0.503011 -1.2217363,-3.929836 -0.161893,-5.186018 -1.158174,-5.952859 -2.477943,-1.907279 -1.004954,3.080554 -1.590899,3.251655 -1.903772,0.555916 -0.51766,-4.460187 -1.583175,-4.115582 -2.043363,0.660857 -0.552936,5.739108 -0.542904,5.834917 0.585048,5.587177 1.009316,-0.221683 1.974736,0.15138 3.141034,1.213774 l 0.722265,0.657921 0.6502,-0.697909 c 1.227087,-1.317123 2.5452693,-0.957527 2.5452693,0.69434 0,1.521586 0.50364,3.329832 1.109612,3.983903 0.333279,0.359734 4.364281,1.509276 4.456645,1.270925 1.112445,-2.870733 2.119971,-1.756709 2.767491,3.060024 0.423266,3.148574 0.578643,3.180116 1.423982,0.289072 1.262931,-4.319205 2.194834,-3.076698 2.222925,2.963828 0.02597,5.584142 1.216831,7.822082 5.13264,9.645552 3.742742,1.74288 5.049508,0.52973 1.392422,-1.29267 -0.950263,-0.47354 -1.422209,-0.87144 -1.197969,-1.01003 0.404671,-0.2501 4.333348,-0.34414 5.070891,-0.12138 0.735245,0.22207 1.297755,-1.35523 1.582041,-4.436107 0.430542,-4.665893 0.982803,-4.830071 1.746624,-0.519244 0.699692,3.948901 1.128898,4.738751 3.124581,5.750031 0.889443,0.45072 2.650132,1.48841 3.912642,2.30597 4.119522,2.6677 6.451937,3.13766 9.444297,1.90296 z M 46.902634,62.652582 c -1.940197,-1.991518 -3.886513,-3.627649 -5.379875,-4.522481 -4.151379,-2.487534 -4.36193,-2.573978 -5.352283,-2.197446 -1.215627,0.46218 -1.592215,-0.02935 -0.797019,-1.040274 0.357048,-0.453913 0.649178,-1.118085 0.649178,-1.475937 0,-1.177443 0.667002,-1.094985 2.023476,0.250154 1.536947,1.524104 3.341146,2.932287 6.296524,4.914458 2.738272,1.836559 5.739552,4.690044 5.176602,4.921688 -0.31594,0.130003 -0.23986,0.369592 0.29976,0.943992 2.36132,2.513517 -0.33685,0.853592 -2.916363,-1.794154 z M 33.597528,49.608032 c 0.576858,-1.033721 1.15833,-4.153197 0.899759,-4.827022 -0.228371,-0.595125 1.475058,-0.384295 5.339074,0.660806 2.91088,0.787306 4.179936,1.8589 1.588842,1.341623 -4.215689,-0.841606 -5.689149,-0.436575 -6.083102,1.672151 -0.292656,1.566512 -0.662663,2.019109 -1.657558,2.027542 -0.53644,0.0045 -0.542709,-0.0585 -0.08702,-0.8751 z m 30.265359,9.999915 c 1.29379,-0.440047 2.65101,-0.994322 3.01605,-1.231723 0.36503,-0.237401 1.21652,-0.534294 1.8922,-0.659762 2.25849,-0.419387 2.70891,-0.78386 3.07432,-2.487718 0.86584,-4.037307 -0.0533,-5.355409 -2.74624,-3.938434 -0.51892,0.273037 -1.28447,0.403897 -1.76451,0.301618 -0.63945,-0.136241 -1.11152,0.04847 -1.92,0.751265 -0.76962,0.669008 -1.56016,0.995154 -2.80211,1.156042 -0.95153,0.123264 -2.14511,0.438755 -2.65241,0.701091 l -0.92237,0.476975 1.14424,1.336783 c 1.32271,1.545293 1.63645,2.470035 1.14779,3.383105 -0.6756,1.262373 -0.58179,1.270179 2.53304,0.210758 z m -4.20888,-0.0046 c 0.46028,-0.460283 -0.76861,-2.87773 -1.51664,-2.98348 -1.43519,-0.202898 -4.19473,1.55177 -4.19473,2.667241 0,0.68195 5.0652,0.96241 5.71137,0.316239 z m -5.78501,-8.593786 c 3.28646,-2.088365 3.19864,-7.399584 -0.0932,-5.637834 -1.42088,0.760432 -3.27466,4.476328 -2.23314,4.476328 0.28952,0 0.48,0.296296 0.48,0.746667 0,0.670487 0.23129,1.173333 0.53969,1.173333 0.0622,0 0.65016,-0.341322 1.30667,-0.758494 z m 6.43848,-3.683272 1.40484,-1.302718 -0.22212,-2.451214 -0.22213,-2.451215 0.97828,0.195656 c 0.96486,0.192971 0.99958,0.15295 2.53057,-2.916543 2.18349,-4.377711 2.21359,-4.595993 0.84279,-6.113303 -2.61928,-2.899224 -5.73418,-1.30829 -8.34466,4.262018 l -0.74088,1.580914 0.67044,0.469593 c 0.75922,0.531782 0.11866,1.328578 -1.06808,1.328578 -1.21566,0 -2.11032,0.739586 -2.84006,2.347774 -0.41235,0.908724 -0.80683,1.757785 -0.87664,1.886802 -0.0698,0.129016 0.48987,0.01696 1.2437,-0.249005 2.21575,-0.781762 5.03767,2.248715 3.98661,4.281243 -1.0899,2.107641 -0.25949,1.83621 2.65734,-0.86858 z M 6.7175327,39.31577 c 0.718973,-0.794456 0.915553,-5.685265 0.23893,-5.944474 -1.031126,-0.395017 -1.249181,-0.08998 -1.795031,2.511092 -0.730088,3.478994 0.01902,5.131834 1.556101,3.433382 z M 48.275997,34.558942 c 2.33079,-2.963155 1.83782,-4.675956 -1.457268,-5.063229 -2.15774,-0.2536 -2.371547,0.01376 -2.611623,3.265707 -0.0896,1.213637 -0.0852,1.954612 0.0098,1.646612 0.387061,-1.255242 1.405751,-0.405334 1.405751,1.172839 0,1.731476 0.699469,1.46208 2.65336,-1.021929 z m 3.74189,-8.168153 c -0.33669,-1.350532 -0.31568,-1.611886 0.17293,-2.1518 0.90145,-0.996088 -2.97166,-4.470956 -4.983357,-4.470956 -0.707517,0 -1.750876,2.860623 -1.304219,3.575834 0.372234,0.596042 0.326553,0.748495 -0.403942,1.348103 -0.659254,0.541132 -2.436664,3.848991 -2.436664,4.534767 0,0.08825 0.405784,-0.139554 0.901744,-0.506233 2.444702,-1.807447 5.637158,-1.040426 6.495588,1.560634 l 0.3759,1.138993 0.78263,-1.746049 c 0.71509,-1.595379 0.74956,-1.878701 0.39939,-3.283293 z M 30.223632,10.83891 c 0.707452,-0.448093 0.122128,-1.0578824 -0.62938,-0.655687 -0.346248,0.185306 -0.545011,0.473696 -0.441694,0.640865 0.230991,0.373753 0.498546,0.377455 1.071074,0.01482 z M 28.575015,5.7489566 c 0.27968,-0.177679 0.311578,-0.566895 0.111057,-1.3551 -0.154729,-0.608203 -0.370043,-1.501824 -0.478477,-1.985824 -0.393699,-1.75728697 -1.78496,-0.567123 -1.78496,1.526956 0,1.702113 1.000798,2.545559 2.15238,1.813968 z"
     id="path1" />
</svg>
