<?xml version="1.0" encoding="UTF-8" standalone="no"?>
<!-- Created with Inkscape (http://www.inkscape.org/) -->

<svg
   version="1.1"
   id="svg1"
   width="105.56873"
   height="90.285828"
   viewBox="0 0 105.56873 90.28583"
   sodipodi:docname="Icon_exorcist.svg"
   inkscape:version="1.4.2 (ebf0e940d0, 2025-05-08)"
   xmlns:inkscape="http://www.inkscape.org/namespaces/inkscape"
   xmlns:sodipodi="http://sodipodi.sourceforge.net/DTD/sodipodi-0.dtd"
   xmlns="http://www.w3.org/2000/svg"
   xmlns:svg="http://www.w3.org/2000/svg">
  <defs
     id="defs1" />
  <sodipodi:namedview
     id="namedview1"
     pagecolor="#505050"
     bordercolor="#eeeeee"
     borderopacity="1"
     inkscape:showpageshadow="0"
     inkscape:pageopacity="0"
     inkscape:pagecheckerboard="0"
     inkscape:deskcolor="#505050"
     showgrid="false"
     inkscape:zoom="4.2301186"
     inkscape:cx="52.598999"
     inkscape:cy="52.244399"
     inkscape:window-width="1838"
     inkscape:window-height="1011"
     inkscape:window-x="40"
     inkscape:window-y="47"
     inkscape:window-maximized="1"
     inkscape:current-layer="svg1" />
  <path
     style="fill:#0063ab"
     d="m 72.171453,90.190519 c -0.11396,-0.11396 -6.87444,-0.24542 -15.023286,-0.29214 -12.569414,-0.0721 -15.180016,-0.16737 -17.216086,-0.62851 -3.685068,-0.83462 -8.446795,-0.99956 -11.250116,-0.3897 -3.44006,0.74838 -8.309897,0.92991 -11.32127,0.42202 -1.401737,-0.23641 -3.5945,-0.36276 -4.872805,-0.28076 -7.3993573,0.47462 -10.6110033,-1.90732 -10.6526423,-7.90062 -0.02155,-3.1021 -0.678243,-6.77101 -1.41250997,-7.89164 -0.680051,-1.03789 -0.52203,-4.08873 0.347474,-6.70851 0.44190897,-1.33146 0.56566997,-4.04769 0.77926797,-17.102842 0.264681,-16.177345 0.217755,-18.220222 -0.503505,-21.92 -1.00977097,-5.179723 -0.96473097,-6.052587 0.369052,-7.152003 2.019963,-1.665024 5.762155,-2.085429 10.0961343,-1.134217 8.268738,1.814804 16.214161,1.865929 17.387636,0.111883 0.57668,-0.861989 0.776028,-0.939405 2.23029,-0.86613 l 1.597007,0.08047 0.412599,-2.070828 c 0.226929,-1.138955 0.618862,-2.385626 0.870963,-2.77038 0.399025,-0.608989 0.397781,-0.722799 -0.0096,-0.879128 -1.042029,-0.399865 -0.21085,-2.8655077 1.967308,-5.8358967 4.243389,-5.786777 16.863844,-8.743966 25.045089,-5.868492 0.9776,0.343599 2.11218,0.624726 2.52129,0.624726 2.88087,0 6.13738,3.270525 7.46206,7.494171 0.55646,1.7742057 1.14166,3.4418287 1.30045,3.7058287 0.76413,1.270429 1.23629,2.636492 1.24074,3.589722 0.007,1.489526 0.27028,1.735268 2.07174,1.933364 1.41397,0.155488 1.74777,0.34979 2.91771,1.698379 l 1.32107,1.522806 7.22739,-0.203165 c 4.54762,-0.127835 8.32473,-0.403927 10.18697,-0.744627 6.724427,-1.230251 9.602067,0.933579 7.761897,5.836544 -1.73166,4.61386 -2.03009,5.980195 -2.19443,10.046976 -1.00168,24.787099 -0.9092,32.191599 0.49419,39.567499 1.29322,6.79689 1.27404,6.90083 -1.62012,8.77618 -0.93982,0.60898 -1.950827,1.61942 -2.418057,2.41669 -1.34852,2.30106 -1.46851,2.33616 -7.31127,2.13852 -4.88,-0.16506 -18.14145,0.32307 -19.135,0.70433 -0.25323,0.0972 -0.55366,0.0834 -0.66762,-0.0305 z m -4.50575,-4.94809 c 0.63447,-0.44631 0.23868,-0.49291 -4.64,-0.54637 -2.93349,-0.0322 -8.069623,-0.12452 -11.413622,-0.20528 -6.549935,-0.15819 -5.874018,0.13281 1.737523,0.74805 2.363637,0.19105 4.379637,0.43154 4.479999,0.53441 0.4211,0.43163 9.13653,-0.0387 9.8361,-0.53081 z m 22.98638,0.33539 c -0.91219,-0.39198 -5.92,-0.39198 -5.92,0 0,0.19398 1.29167,0.31114 3.28,0.29751 2.13047,-0.0146 3.0557,-0.11888 2.64,-0.29751 z m 6.69441,-0.62419 c 2.23399,-1.38068 3.657567,-9.90103 2.08455,-12.47636 -0.19734,-0.32309 -0.23512,0.92524 -0.10697,3.53519 0.22983,4.68121 -0.16312,6.07085 -2.22975,7.88536 -1.50275,1.31941 -2.61496,1.46025 -1.45802,0.18463 l 0.77578,-0.85536 -1.12957,0.83962 c -0.62126,0.46179 -1.48526,0.98157 -1.92,1.15508 -0.65916,0.26307 -0.47784,0.31883 1.0918,0.33574 1.33523,0.0144 2.17573,-0.16111 2.89218,-0.6039 z m -74.184675,-0.53016 c 3.480338,-2.03961 4.966112,-6.17014 4.867732,-13.53255 -0.05517,-4.12904 -0.335291,-4.5131 -3.291621,-4.5131 -1.641795,0 -1.662507,0.0282 -1.882106,2.56 -0.330361,3.80883 -0.881257,6.47884 -1.958661,9.493 -1.256285,3.51459 -1.326858,4.12463 -0.661409,5.71727 0.556179,1.33113 1.045921,1.37722 2.926065,0.27538 z m -0.706557,-3.46622 c -0.25131,-0.6549 0.576891,-2.23142 1.239257,-2.35898 0.441115,-0.0849 0.557563,0.11807 0.557563,0.97208 0,1.55725 -1.335798,2.58831 -1.79682,1.3869 z m 1.690154,-5.83277 c -0.304176,-0.30417 -0.254955,-2.10551 0.07162,-2.62091 0.385345,-0.60815 1.63505,-0.1534 1.63505,0.59498 0,1.54804 -0.998851,2.73375 -1.706666,2.02593 z m 16.266666,9.82565 c 1.535224,-0.19048 1.695547,-0.25775 0.8,-0.33568 -0.616,-0.0536 -1.336,-0.069 -1.6,-0.0342 -0.264,0.0348 -1.56,0.0796 -2.88,0.0995 -1.726978,0.0261 -2.130791,0.10158 -1.44,0.26929 1.231143,0.29888 2.717358,0.2992 5.12,0.001 z M 17.11825,84.417319 c -0.110273,-0.11027 -0.818273,-0.25646 -1.573333,-0.32486 -7.2654493,-0.65816 -12.0235313,-2.15828 -9.8797343,-3.11487 0.814417,-0.3634 0.997281,-2.31503 0.187809,-2.0044 -0.406188,0.15587 -0.450222,-0.12775 -0.28938,-1.86388 0.188661,-2.03641 -0.35294,-8.58461 -0.772028,-9.33417 -0.120726,-0.21592 -0.197767,2.87335 -0.171201,6.86505 l 0.0483,7.25763 0.911699,0.32335 c 0.501434,0.17784 1.271699,0.55267 1.711699,0.83295 1.534022,0.97718 10.7136543,2.25068 9.8261693,1.3632 z m 18.785227,-0.60769 c 2.800268,-0.2595 6.544268,-0.47402 8.32,-0.47671 2.202745,-0.003 3.076088,-0.10347 2.748604,-0.3151 -0.982106,-0.63469 -14.874738,-0.0267 -18.493087,0.80938 -1.264408,0.29214 -0.415098,0.83303 1.001461,0.63778 0.732394,-0.10095 3.622754,-0.39586 6.423022,-0.65535 z m 42.034926,0.31178 c 1.50522,-1.05431 2.19349,-4.47697 2.82805,-14.06359 0.0815,-1.232 0.21788,-2.43884 0.30297,-2.68186 0.12457,-0.35582 -0.11131,-0.39166 -1.21132,-0.18403 -0.75131,0.14181 -2.04621,0.22837 -2.87754,0.19235 -1.33732,-0.0579 -1.53064,0.0186 -1.67741,0.66403 -0.66611,2.92915 -0.79662,3.85078 -0.80568,5.68951 -0.006,1.144 -0.14866,3.28385 -0.31783,4.75522 -0.4775,4.15325 1.54372,7.17984 3.75876,5.62837 z m -1.62445,-4.73775 c -0.23808,-0.62043 0.49434,-1.94094 1.14616,-2.06647 0.57622,-0.11097 0.76397,0.9358 0.35773,1.99445 -0.23766,0.61933 -1.27481,0.66899 -1.50389,0.072 z m 0.53581,-6.63427 c 0.25459,-1.27294 0.35412,-1.38459 1.00995,-1.13292 0.84087,0.32267 0.48739,1.9366 -0.45328,2.06959 -0.70711,0.1 -0.74967,0.0283 -0.55667,-0.93667 z m 21.3208,4.60048 c -0.34867,-0.54377 -0.3577,-0.54307 -0.18265,0.0141 0.10129,0.32239 0.19553,0.75439 0.20943,0.96 0.0182,0.26981 0.0691,0.26588 0.18265,-0.0141 0.0866,-0.21337 -0.008,-0.64537 -0.20943,-0.96 z m -12.01354,-0.78342 c 1.13313,-0.51628 1.02446,-0.99952 -0.52254,-2.3237 -1.36868,-1.17154 -1.8624,-1.39023 -1.8624,-0.82493 0,0.176 -0.288,0.32 -0.64,0.32 -0.69189,0 -0.93792,1.3781 -0.31478,1.76322 0.17887,0.11055 0.24237,0.33505 0.14111,0.49889 -0.55998,0.90607 1.60989,1.29039 3.19861,0.56652 z m -0.94494,-0.90863 c 0.10877,-0.176 0.33327,-0.32 0.49888,-0.32 0.16562,0 0.30112,0.144 0.30112,0.32 0,0.176 -0.2245,0.32 -0.49889,0.32 -0.27439,0 -0.40989,-0.144 -0.30111,-0.32 z m -13.00284,0.4 c 1.35117,-2.52493 0.72949,-4.04329 -1.4229,-3.4752 -4.34377,1.14647 -4.8133,2.60311 -1.15641,3.5876 2.02537,0.54526 2.23219,0.53625 2.57931,-0.1124 z m -1.07394,-0.72522 c 0.11055,-0.17887 0.33505,-0.24238 0.49889,-0.14112 0.44385,0.27432 0.36109,0.46634 -0.201,0.46634 -0.27439,0 -0.40844,-0.14635 -0.29789,-0.32522 z m -2.32989,-1.01478 c 0.19778,-0.59335 0.88667,-0.69177 0.88667,-0.12667 0,0.27867 -0.228,0.50667 -0.50667,0.50667 -0.27867,0 -0.44967,-0.171 -0.38,-0.38 z m 2.27777,-1.0482 c 0.32511,-0.24632 0.80518,-0.3657 1.06683,-0.26529 0.61831,0.23726 -0.0745,0.72619 -1.01793,0.71841 -0.61677,-0.005 -0.61855,-0.0215 -0.0489,-0.45312 z m 26.82017,-2.4118 -0.21127,-2.4 -0.16,2.88 c -0.088,1.584 -0.0944,3.456 -0.0141,4.16 l 0.14588,1.28 0.2254,-1.76 c 0.12396,-0.968 0.13032,-2.84 0.0141,-4.16 z m -64.023351,4.60635 c 0.369559,-0.44529 0.228212,-0.70078 -1.062191,-1.92 -1.317045,-1.24438 -2.511285,-1.90436 -2.026453,-1.11988 0.09738,0.15755 -0.03176,0.36659 -0.286964,0.46452 -0.402798,0.15457 -0.398587,0.37007 0.03192,1.63353 0.548209,1.60891 2.36529,2.12073 3.343688,0.94183 z m -1.627921,-0.44635 c 0,-0.176 0.224499,-0.32 0.498886,-0.32 0.274386,0 0.409888,0.144 0.301114,0.32 -0.108774,0.176 -0.333272,0.32 -0.498885,0.32 -0.165613,0 -0.301115,-0.144 -0.301115,-0.32 z m -11.625177,-1.12 c 0.565897,-2.19323 0.53677,-2.4 -0.338076,-2.4 -1.088306,0 -3.762632,0.91048 -4.657928,1.5858 l -0.760345,0.57353 0.700055,0.60033 c 2.265306,1.94262 4.503335,1.78342 5.056294,-0.35966 z m -2.454823,0.8 c 0,-0.176 0.224499,-0.32 0.498886,-0.32 0.274387,0 0.409888,0.144 0.301114,0.32 -0.108774,0.176 -0.333272,0.32 -0.498885,0.32 -0.165613,0 -0.301115,-0.144 -0.301115,-0.32 z m -2.173356,-0.8743 c -0.317498,-0.11363 -0.326964,-0.25204 -0.04082,-0.59682 0.481563,-0.58025 0.934173,-0.57432 0.934173,0.0122 0,0.56083 -0.339316,0.78287 -0.893356,0.58459 z m 2.013356,-1.3657 c 0.108774,-0.176 0.557771,-0.32 0.997771,-0.32 0.451848,0 0.713932,0.13926 0.602229,0.32 -0.108774,0.176 -0.55777,0.32 -0.99777,0.32 -0.451848,0 -0.713932,-0.13926 -0.60223,-0.32 z m 65.200002,0.42807 c -0.22,-0.0888 -0.58,-0.0888 -0.8,0 -0.22,0.0888 -0.04,0.1614 0.4,0.1614 0.44,0 0.62,-0.0726 0.4,-0.1614 z m 15.07145,-7.38807 c 0.25963,-2.74903 0.22757,-6.86216 -0.0679,-8.720003 l -0.22907,-1.44 -0.22494,2.24 c -0.3155,3.141773 -0.28506,10.080003 0.0442,10.080003 0.15055,0 0.36553,-0.972 0.47773,-2.16 z m -14.59145,-1.76227 c 0.22,-0.17385 0.39779,-0.91047 0.3951,-1.63692 -0.003,-0.88345 -0.098,-1.17386 -0.28595,-0.87702 -0.22673,0.35801 -1.32365,0.41986 -5.6751,0.32 l -5.39405,-0.12379 -0.30201,1.22279 c -0.41889,1.69605 9.30503,2.64145 11.26201,1.09494 z m -51.824002,0.0183 c 0.2112,-0.2112 0.384,-0.7872 0.384,-1.28 v -0.89603 l -5.28,-0.048 c -2.904,-0.0264 -5.449639,-0.0624 -5.656977,-0.08 -0.421954,-0.0358 -0.981588,1.66797 -0.751527,2.288 0.206901,0.55761 10.747969,0.57253 11.304504,0.016 z M 5.7100077,53.004048 c -0.380053,-0.651867 -0.467737,8.583371 -0.09356,9.853771 0.13175,0.44731 0.274513,-1.42802 0.323826,-4.25377 0.05142,-2.946284 -0.04461,-5.281555 -0.230269,-5.600001 z m 22.1898893,5.933771 c -0.320387,-3.321914 -0.444832,-3.760003 -1.06808,-3.760003 -0.888577,0 -1.054414,0.867361 -0.625123,3.269523 0.531401,2.97354 1.972961,3.39112 1.693203,0.49048 z m 51.512996,0.78341 c 0.28907,-0.46772 -0.27412,-4.649357 -0.64262,-4.77143 -0.54551,-0.180707 -0.81936,1.387052 -0.57872,3.31305 0.19725,1.57871 0.7437,2.23121 1.22134,1.45838 z M 32.18893,57.351703 c 0.40909,-6.33755 -6.602262,-9.139346 -9.388342,-3.751661 -0.658862,1.274098 -0.629428,4.416107 0.04379,4.674447 0.700692,0.26888 1.076966,-0.43961 1.082804,-2.038828 0.01673,-4.581834 6.252642,-4.355011 6.630106,0.24116 0.257428,3.134548 1.444687,3.771158 1.631642,0.874882 z M 76.866673,53.3585 c 1.97621,-1.699863 5.05474,-0.557222 5.4546,2.024555 0.55706,3.596674 1.77081,4.286234 1.77081,1.00603 0,-4.080164 -1.83306,-5.913021 -5.61664,-5.616024 -3.28929,0.258198 -5.73022,4.857414 -3.74336,7.053268 0.54134,0.59829 0.57188,0.54652 0.91675,-1.55412 0.27999,-1.705479 0.54202,-2.332391 1.21784,-2.913709 z m -22.222548,2.584461 c 0.338283,-0.323983 0.506767,-1.390068 0.594576,-3.76219 l 0.122531,-3.310099 -1.234576,-0.191576 c -6.556081,-1.017343 -6.822578,-0.905918 -6.829675,2.855566 -0.008,4.238993 4.622803,7.017487 7.347144,4.408299 z m -3.672044,-0.974724 c -0.352,-0.07444 -0.939313,-0.198279 -1.30514,-0.275207 -0.947591,-0.199264 -1.298103,-1.292851 -1.158034,-3.61303 0.164352,-2.722416 1.082098,-2.762184 1.371015,-0.05941 l 0.187841,1.757226 0.05216,-1.706667 c 0.07234,-2.367136 0.81876,-2.074319 0.948128,0.371948 0.107651,2.035613 0.704031,2.510739 0.704031,0.560891 0,-0.689606 0.08709,-1.480779 0.193531,-1.758162 0.37122,-0.967385 0.766469,-0.137273 0.766469,1.60976 0,2.218945 0.520897,1.986907 0.814475,-0.362814 0.120597,-0.965226 0.346675,-1.754956 0.502396,-1.754956 0.400103,0 0.35208,2.586702 -0.07053,3.799003 -0.496995,1.425681 -1.277071,1.7971 -3.006341,1.431417 z m 21.082192,-3.95351 c 0.58165,-0.559316 0.37958,-0.573033 -5.92,-0.401857 -4.22551,0.114818 -6.60352,0.301831 -6.75314,0.531086 -0.61582,0.943595 11.68797,0.818132 12.67314,-0.129229 z m -31.162192,0.0031 c 0,-0.176 -0.501328,-0.32 -1.114061,-0.32 -0.612734,0 -2.1202,-0.172534 -3.349925,-0.383409 -1.965426,-0.337033 -2.996327,-0.250238 -2.53284,0.213249 0.08241,0.08241 1.510412,0.278836 3.173333,0.436497 1.662921,0.157661 3.203493,0.306233 3.423493,0.330159 0.22,0.02393 0.4,-0.100496 0.4,-0.276496 z m -21.875248,-1.09247 c 1.177682,-0.422702 1.071205,-0.441371 -2.284752,-0.4006 -5.472422,0.06648 -9.1199993,-2.366631 -9.1199993,-6.08349 0,-0.698193 -0.218785,-1.911538 -0.486188,-2.696323 -0.390753,-1.146799 -0.469269,-2.869636 -0.4,-8.777004 l 0.08619,-7.350123 1.005894,-0.502752 1.005894,-0.502753 -1.410487,-0.377247 c -1.910185,-0.510897 -2.471209,-0.485226 -2.245581,0.102752 0.326138,0.849903 -0.258186,0.506768 -0.820837,-0.482023 -0.586149,-1.030086 -1.440653,-1.351121 -1.0593,-0.397977 0.123231,0.308 0.415953,1.28 0.650495,2.16 0.234541,0.88 0.567433,1.96937 0.73976,2.420822 0.488962,1.280953 0.683157,3.76529 0.85627,10.954244 0.173548,7.207006 0.30329,7.787432 2.260713,10.113697 2.034783,2.418202 7.2134533,3.257527 11.2219303,1.818777 z m 77.37253,0.177457 c 1.94756,-0.255932 2.05293,-0.532204 2.27521,-5.964997 0.13857,-3.38666 0.69736,-6.986856 2.706237,-17.435932 0.30727,-1.59821 0.25298,-1.769132 -0.47339,-1.490397 -1.272747,0.488399 -2.367917,5.184843 -3.032957,13.006329 -0.74978,8.818048 -1.41148,10.044567 -5.77238,10.699602 -8.2961,1.246126 -4.38167,2.325912 4.29728,1.185395 z M 29.583596,48.697817 c 0.137108,-0.22 0.306243,-1.801239 0.375858,-3.513864 l 0.126571,-3.113863 -0.916972,-0.349435 c -3.750153,-1.42909 -4.808487,-0.597894 -4.879111,3.831965 -0.05,3.136401 3.85368,5.455754 5.293654,3.145197 z m 49.868487,-0.167591 c 2.75731,-0.183777 2.70912,-0.106634 2.7151,-4.346292 l 0.005,-3.473884 -2.54573,0.115608 c -3.30257,0.149978 -3.30231,0.149636 -3.4531,4.62753 -0.11821,3.51043 -0.0913,3.715314 0.45661,3.478244 0.32022,-0.13855 1.59022,-0.319093 2.82222,-0.401206 z m -21.04,-1.448507 c 1.30718,0.143334 1.68078,0.08567 1.68352,-0.259844 0.002,-0.244232 0.0898,-0.965489 0.19517,-1.602792 l 0.19165,-1.158734 -1.87517,-0.252717 c -2.044553,-0.275545 -12.951895,-0.44557 -14.115172,-0.22003 -0.629514,0.122052 -0.72,0.336317 -0.72,1.704905 0,1.397477 0.0772,1.569824 0.72,1.607409 5.963725,0.348705 8.424451,0.401443 10.16,0.217745 1.143999,-0.121086 2.835999,-0.13726 3.760002,-0.03594 z m -4.534142,-4.571436 c 0.569916,-0.153032 0.638298,-0.348367 0.474572,-1.35563 -0.105209,-0.64726 -0.332846,-1.104836 -0.505861,-1.016836 -0.173014,0.088 -0.295158,0.232 -0.27143,0.32 0.02373,0.088 0.146839,0.501037 0.27358,0.91786 0.171204,0.563048 0.118985,0.72122 -0.203141,0.615322 -0.238469,-0.0784 -0.479145,-0.527433 -0.534836,-0.99786 -0.09586,-0.80973 -0.193937,-0.855322 -1.84,-0.855322 -1.610547,0 -2.187121,0.325117 -1.418744,0.8 0.412233,0.254774 0.416943,1.12 0.0061,1.12 -0.172647,0 -0.404257,-0.36 -0.51469,-0.8 -0.259012,-1.031986 -1.011406,-1.04011 -1.011406,-0.01092 0,1.068718 3.392595,1.841576 5.54586,1.263388 z m -2.535482,-0.797649 c -0.497406,-0.710146 -0.446512,-1.254817 0.117248,-1.254817 0.159421,0 0.452263,0.30346 0.65076,0.674355 0.534654,0.999009 -0.125416,1.497891 -0.768008,0.580462 z M 23.97305,40.148937 c 0.492633,-0.70566 6.21618,-1.067264 6.632472,-0.419028 0.670633,1.044288 5.307359,-0.112177 7.56273,-1.886251 1.046737,-0.823364 0.99444,-0.873273 -2.556171,-2.439459 -3.528616,-1.556484 -4.64,-1.850925 -4.64,-1.229282 0,1.628648 -7.151219,2.167127 -7.84,0.590344 -0.648789,-1.485233 -7.839999,0.379166 -7.839999,2.032605 0,2.370287 7.377504,5.218188 8.680968,3.351071 z m -4.724773,-0.634865 c -2.089282,-0.983799 -4.340122,-3.391882 -2.516196,-2.691975 0.279584,0.107286 0.48425,0.0029 0.490178,-0.250044 0.0067,-0.285251 0.171371,-0.221118 0.48,0.186925 0.258402,0.341639 0.469822,0.449639 0.469822,0.24 0,-0.73865 0.581402,-0.36966 0.91205,0.578839 0.418172,1.199567 0.927931,1.23717 1.084529,0.08 l 0.119089,-0.88 0.271438,0.96 c 0.488388,1.7273 1.760552,2.01073 1.795386,0.4 0.03009,-1.391558 0.561986,-0.247353 0.595017,1.28 0.02947,1.362809 -0.957064,1.388465 -3.701313,0.09625 z m 12.584987,0.07676 c -0.367052,-0.608277 -0.784826,-2.653017 -0.542055,-2.653017 0.147146,0 0.342493,0.18 0.434103,0.4 0.122627,0.294486 0.281922,0.258796 0.603883,-0.1353 0.408808,-0.500401 0.459349,-0.500401 0.77521,0 0.29401,0.465782 0.481732,0.483353 1.445503,0.1353 0.609186,-0.22 1.287403,-0.4 1.507149,-0.4 0.473293,0 0.350793,1.430536 -0.124976,1.459443 -0.176,0.01069 -0.836543,0.245544 -1.467874,0.521891 -1.754761,0.768097 -2.463568,0.949056 -2.630943,0.671683 z m 44.127409,0.06698 c 0.19278,-0.768101 0.30786,-0.802127 2.8861,-0.853333 1.47692,-0.02933 2.93731,-0.06533 3.24531,-0.08 0.308,-0.01467 0.70214,0.297333 0.87588,0.693333 0.41059,0.935867 0.79817,0.911036 3.99596,-0.256013 2.87835,-1.05047 4.69889,-2.143073 4.27281,-2.564343 -0.98534,-0.974213 -8.42289,-3.633453 -7.92951,-2.835135 0.71175,1.151624 -2.94913,2.147799 -6.09514,1.658572 -1.3216,-0.205518 -1.6178,-0.373594 -1.70226,-0.965946 -0.12425,-0.871393 -0.91895,-0.919573 -3.83361,-0.232418 -3.90426,0.920461 -4.53189,1.600136 -3.07569,3.330731 0.93382,1.109777 1.55234,1.292246 1.26019,0.371765 -0.22809,-0.718666 0.10282,-2.267213 0.48449,-2.267213 0.14506,0 0.35767,0.295927 0.47247,0.657615 0.2608,0.821729 0.92011,0.645352 1.05666,-0.28268 0.16063,-1.09163 0.64055,-0.815743 1.01775,0.585065 0.36149,1.342466 0.82999,1.669129 1.03263,0.72 0.11498,-0.538538 1.20737,1.041565 1.20737,1.746415 0,0.387468 -2.99924,0.07591 -3.30436,-0.343253 -0.17668,-0.242703 -0.22238,-0.208382 -0.13779,0.103473 0.1156,0.426195 2.73982,1.568425 3.67605,1.600056 0.21665,0.0073 0.48426,-0.346691 0.59469,-0.786691 z m 8.00564,-1.306172 c -0.10683,-0.278395 -0.19423,-1.315195 -0.19423,-2.304 0,-2.048668 0.56175,-1.959626 0.97093,0.153901 l 0.23547,1.216271 0.0368,-1.089596 c 0.0339,-1.003853 0.0809,-1.052279 0.5968,-0.615377 0.34433,0.291585 1.02215,0.431817 1.76,0.36412 1.85775,-0.170448 1.64493,0.88113 -0.39411,1.947316 -1.82492,0.954222 -2.73322,1.052954 -3.01166,0.327365 z m -2.29222,-9.131288 c 0.15538,-3.468065 0.12124,-5.267285 -0.10421,-5.492739 -0.55326,-0.553262 -3.86926,-0.713406 -3.92234,-0.189426 -0.0686,0.676857 -0.2037,2.65636 -0.45287,6.634449 -0.26375,4.210852 -0.27427,4.192833 2.45288,4.200276 l 1.79547,0.0049 z m -52.285579,0.91746 c 0.009,-2.156 0.1254,-4.900582 0.258582,-6.099072 0.282669,-2.543687 0.385196,-2.424163 -1.908633,-2.225057 -2.662841,0.231137 -3.212743,1.46772 -3.417092,7.684129 l -0.149898,4.56 h 2.600304 2.600304 z m 67.478149,-6.466856 c 1.54237,-0.797591 4.900067,-0.988657 5.896827,-0.335553 0.7702,0.504655 0.84859,0.507842 0.84859,0.03451 0,-1.770466 -3.20693,-2.120732 -8.669467,-0.946892 -2.72418,0.585398 -3.85063,1.674076 -1.28337,1.240341 0.76592,-0.129403 1.32885,-0.07852 1.45888,0.131872 0.28395,0.459439 0.67326,0.431769 1.74854,-0.124278 z M 56.25208,23.017817 c 0,-0.418018 -1.528888,-0.48 -11.839999,-0.48 -10.809055,0 -12.278937,0.0944 -11.626667,0.746667 0.499025,0.499025 23.466666,0.238029 23.466666,-0.266667 z m 16.919673,-0.368595 c -0.39404,-0.474784 -1.21755,-0.508758 -8.08946,-0.333729 -10.90261,0.277692 -10.831446,0.862324 0.10497,0.862324 7.79515,0 8.39047,-0.03941 7.98449,-0.528595 z m -52.704251,0.0072 c 2.170357,-0.358875 1.062341,-0.918598 -1.818436,-0.918598 -2.828718,0 -3.328237,0.203418 -1.836985,0.74807 1.053099,0.384625 2.072912,0.4322 3.655421,0.170528 z m -6.77542,-1.362136 c 0,-0.58244 -2.1536,-1.264858 -4.3200003,-1.368893 -3.234564,-0.155329 -3.012065,0.490212 0.248092,0.719797 1.4633463,0.103051 2.9421663,0.350672 3.2862683,0.550269 0.770142,0.446723 0.78564,0.448672 0.78564,0.09883 z m 48.797651,-1.456479 c 1.1621,-1.247904 1.50932,-1.432135 2.86472,-1.52 l 1.54233,-0.09998 0.0795,-1.44 c 0.0438,-0.792 0.18728,-1.845422 0.31896,-2.340938 0.19243,-0.724139 0.10309,-0.99642 -0.45523,-1.387488 -0.38206,-0.267601 -1.06084,-1.066633 -1.50841,-1.775626 -0.77539,-1.228303 -0.87238,-1.2797037 -2.05726,-1.090234 -1.14068,0.182401 -1.28381,0.120906 -1.73089,-0.7436427 -0.43245,-0.83626 -0.61152,-0.922343 -1.58878,-0.763754 -0.77358,0.125534 -1.54326,-0.03516 -2.585909,-0.539902 -1.099902,-0.532454 -1.577799,-0.625339 -1.844613,-0.358525 -0.469133,0.469133 -1.747237,0.43564 -2.950438,-0.07732 -0.829828,-0.353778 -1.093829,-0.328612 -1.968887,0.187684 -0.555808,0.327935 -1.669754,0.634544 -2.475435,0.681354 -0.970202,0.05637 -1.711593,0.316887 -2.19548,0.771475 -0.850291,0.7988067 -2.814791,1.6769137 -3.751592,1.6769137 -0.476284,0 -0.650278,0.209213 -0.650278,0.781908 0,0.530572 -0.310616,0.965393 -0.966327,1.352732 -0.564502,0.333459 -0.897163,0.751059 -0.8,1.004263 0.09148,0.238392 0.166327,1.285663 0.166327,2.327268 v 1.893828 h 0.981037 c 1.203166,0 2.021875,0.413069 3.579885,1.806182 l 1.200921,1.073818 h 7.736715 7.736714 z m 13.54206,0.860017 c -0.18327,-0.957315 -11.77971,-1.179151 -11.77971,-0.225348 0,0.450878 1.19435,0.547319 8.90346,0.718928 2.68871,0.05985 2.97287,0.01109 2.87625,-0.493587 z M 39.707671,20.418609 c 1.186694,-0.119751 1.81163,-0.319462 1.733639,-0.554021 -0.139756,-0.420316 -11.112579,-0.711157 -11.104329,-0.294327 0.02546,1.286333 2.663603,1.52517 9.37069,0.848348 z m -1.69559,-3.648712 c 0,-2.689671 -2.787097,-2.936594 -3.315666,-0.293752 -0.372346,1.861731 -0.339671,1.901672 1.555666,1.901672 h 1.76 z m 33.660852,1.4404 c 0.0921,-0.09214 0.10092,-0.5159 0.0195,-0.941697 -0.24003,-1.255607 -2.64038,-1.058138 -2.64038,0.217215 0,0.847435 1.95694,1.388392 2.62085,0.724482 z M 36.344157,9.8978183 c 0.413463,-0.851031 0.917795,-1.44 1.233068,-1.44 0.293404,0 1.030748,-0.580967 1.638542,-1.291037 0.607794,-0.710071 1.629607,-1.558748 2.270697,-1.885949 0.641089,-0.327202 1.453617,-0.913558 1.805617,-1.303014 0.96423,-1.066834 2.669802,-1.811852 4.72,-2.061763 1.012,-0.123359 1.84,-0.357556 1.84,-0.520438 0,-0.322815 4.91921,-0.157558 5.841164,0.196229 0.732019,0.280901 0.731016,-0.380379 -0.0012,-0.76790701 -1.00864,-0.533851 -5.513337,-0.651878 -6.439323,-0.168714 -0.462372,0.241257 -1.272676,0.44270001 -1.800676,0.44764901 -1.25893,0.0118 -3.487317,1.039467 -4.851814,2.237511 -0.599751,0.526588 -1.238065,0.957433 -1.418476,0.957433 -0.180412,0 -1.075401,0.684 -1.988865,1.52 -0.913465,0.836 -1.948845,1.677282 -2.300845,1.869517 -0.688151,0.375813 -1.261239,1.361388 -1.610969,2.7704827 -0.339316,1.367134 0.287089,1.037151 1.063045,-0.5599997 z"
     id="path1" />
</svg>
