<?xml version="1.0" encoding="UTF-8" standalone="no"?>
<!-- Created with Inkscape (http://www.inkscape.org/) -->

<svg
   version="1.1"
   id="svg1"
   width="68.194901"
   height="123.85569"
   viewBox="0 0 68.194902 123.85569"
   sodipodi:docname="Icon_courtier.svg"
   inkscape:version="1.4.2 (ebf0e940d0, 2025-05-08)"
   xmlns:inkscape="http://www.inkscape.org/namespaces/inkscape"
   xmlns:sodipodi="http://sodipodi.sourceforge.net/DTD/sodipodi-0.dtd"
   xmlns="http://www.w3.org/2000/svg"
   xmlns:svg="http://www.w3.org/2000/svg">
  <defs
     id="defs1" />
  <sodipodi:namedview
     id="namedview1"
     pagecolor="#505050"
     bordercolor="#eeeeee"
     borderopacity="1"
     inkscape:showpageshadow="0"
     inkscape:pageopacity="0"
     inkscape:pagecheckerboard="0"
     inkscape:deskcolor="#505050"
     showgrid="false"
     inkscape:zoom="4.2301186"
     inkscape:cx="34.632599"
     inkscape:cy="60.754798"
     inkscape:window-width="1838"
     inkscape:window-height="1011"
     inkscape:window-x="40"
     inkscape:window-y="47"
     inkscape:window-maximized="1"
     inkscape:current-layer="svg1" />
  <path
     style="fill:#099ac7"
     d="M 28.181383,123.62504 C 11.78584,122.08609 3.4544353,115.33359 13.945836,112.08731 c 7.043153,-2.17932 11.68735,-5.49905 11.602423,-8.29357 -0.04698,-1.54571 0.0054,-1.64103 2.015948,-3.67029 2.261169,-2.282192 2.562022,-3.313592 1.609974,-5.519372 -0.406364,-0.9415 -0.34763,-1.33546 0.739468,-4.96 2.258459,-7.53004 2.243863,-11.27164 -0.06509,-16.68631 -0.687414,-1.61203 -1.74547,-4.08296 -2.351238,-5.49096 C 26.891553,66.058805 26.214699,64.114805 25.9932,63.146805 25.411243,60.603519 24.492699,59.451686 19.892766,55.496995 15.929061,52.089288 14.126071,50.033982 13.476708,48.183055 13.302815,47.687397 12.626842,46.996361 11.920389,46.592058 9.1231903,44.991218 4.8998563,37.751315 2.1429783,29.83101 -1.4843237,19.410039 -0.45212769,9.1864913 4.8241933,3.2744993 c 2.017328,-2.260368 12.3816867,-3.35108 31.0758377,-3.270324 31.269992,0.135082 33.617482,1.698421 31.867672,21.2226317 -0.99299,11.079594 -11.58683,29.581522 -19.27228,33.658646 -1.20291,0.638143 -1.39539,0.881711 -1.39539,1.765746 0,1.348179 -0.5609,2.530167 -1.48932,3.138496 -0.41288,0.270526 -0.75149,0.740545 -0.75247,1.044488 -0.004,1.298743 -0.79036,3.073548 -3.36323,7.592625 -4.58151,8.04713 -5.275857,12.20992 -3.377054,20.24637 0.862383,3.64993 0.954124,4.42903 0.653145,5.54678 -0.507533,1.88483 -0.16445,2.86587 1.738759,4.97194 1.99125,2.203492 2.75017,3.555392 2.75017,4.899022 0,1.63603 1.83701,3.03794 8.64,6.5936 7.13706,3.73026 7.70809,4.3308 6.48582,6.82104 -1.96427,4.00198 -18.04789,7.26055 -30.20447,6.11948 z m -1.721352,-2.25223 c -3.502,-0.58158 -5.85767,-0.77701 -5.540297,-0.45963 0.281478,0.28147 5.765952,1.05186 7.460297,1.04792 1.230594,-0.003 0.787307,-0.13869 -1.92,-0.58829 z m 21.867122,-0.79501 c 4.53605,-0.86047 8.99765,-3.19398 9.00729,-4.71099 0.005,-0.79914 -0.10881,-0.91185 -0.87441,-0.86546 -0.132,0.008 -0.19591,0.29034 -0.14202,0.62743 0.25473,1.59333 -1.66932,2.69155 -6.17737,3.52596 -1.23166,0.22797 -2.87311,0.75145 -3.64766,1.16328 -1.66188,0.88363 -1.54314,0.90045 1.83417,0.25978 z m -32.447301,-1.46364 c -0.218155,-0.35299 -2.138211,-1.26013 -2.609543,-1.23289 -0.207979,0.012 2.421853,1.52622 2.728607,1.57108 0.05439,0.008 8.08e-4,-0.14424 -0.119064,-0.33819 z m 31.396771,-2.04338 c 2.06388,-0.21385 6.54341,-1.73688 6.54341,-2.22475 0,-1.20348 -2.95112,-2.8601 -3.72191,-2.08931 -0.18145,0.18145 -1.54225,0.4651 -3.024,0.63033 -1.48175,0.16523 -3.24725,0.39406 -3.92333,0.50851 -0.75093,0.12712 -1.5136,0.0559 -1.96,-0.183 -0.5424,-0.29027 -0.90062,-0.30018 -1.389725,-0.0384 -0.36243,0.19397 -0.92043,0.35852 -1.24,0.36567 -1.025605,0.023 -2.7657,1.74177 -2.220997,2.19383 1.202058,0.99762 5.909832,1.35798 10.936552,0.83714 z m -8.501041,-5.0368 c -0.80544,-0.75038 -1.148523,-0.56567 -0.656597,0.3535 0.215571,0.4028 0.540409,0.58274 0.842636,0.46676 0.415006,-0.15925 0.385948,-0.28737 -0.186039,-0.82026 z m 4.732011,0.76437 c 0.64176,-0.4073 -0.65821,-1.40096 -1.66872,-1.27553 -0.80257,0.0996 -0.81644,0.13424 -0.33016,0.82399 0.52052,0.73832 1.27755,0.90933 1.99888,0.45154 z m 3.91244,-1.04887 c 0,-0.15547 -0.432,-0.28267 -0.96,-0.28267 -0.95734,0 -1.31905,0.46586 -0.56,0.72125 0.55068,0.18528 1.52,-0.0944 1.52,-0.43858 z m 2.28455,0.06 c 0.52631,-0.43005 0.65443,-0.72033 0.42241,-0.95703 -0.41412,-0.42247 -1.74696,0.42628 -1.74696,1.11246 0,0.6296 0.42482,0.57974 1.32455,-0.15543 z m -7.00455,-3.19413 c 0.82202,-0.0419 0.68372,-0.75027 -0.33751,-1.72867 -0.96314,-0.92275 -3.408356,-1.22601 -4.123014,-0.51135 -0.323908,0.32391 -1.655586,0.50923 -4.179478,0.58164 -1.573859,0.0452 -1.342058,0.8838 0.32,1.15774 0.748,0.12329 1.530096,0.31595 1.737991,0.42813 0.307194,0.16576 3.962261,0.20603 6.582011,0.0725 z m -10.524557,-4.66926 c -0.279184,-0.72754 0.156626,-2.07928 0.670377,-2.07928 0.277596,0 0.49254,0.40255 0.553903,1.03738 0.147994,1.53105 1.220275,1.6587 1.220275,0.14526 0,-1.43158 -0.59075,-1.88492 -2.296351,-1.7622 -1.702113,0.12247 -2.281513,1.99052 -0.837521,2.70027 0.403629,0.19839 0.765352,0.37839 0.803828,0.4 0.03848,0.0216 -0.01305,-0.17704 -0.114511,-0.44143 z m 5.004554,-0.94272 c 0,-0.23411 -0.283209,-0.76561 -0.629353,-1.18111 -0.727129,-0.87282 -0.889076,-0.30424 -0.331246,1.16297 0.315643,0.8302 0.960599,0.84238 0.960599,0.0181 z m 1.92,0.0474 c 0,-0.70904 -0.525422,-1.504 -0.994047,-1.504 -0.124327,0 -0.07137,0.504 0.11769,1.12 0.390293,1.27169 0.876357,1.48467 0.876357,0.384 z m 1.898443,0.13627 c 0.24737,-0.46221 0.17658,-0.73038 -0.30874,-1.16959 -0.61536,-0.55689 -0.6297,-0.54323 -0.6297,0.59972 0,1.2674 0.42652,1.52641 0.93844,0.56987 z M 30.06677,101.60655 c 0.07795,-0.23384 -0.06835,-0.30536 -0.38,-0.18576 -0.278707,0.10695 -0.506739,0.33504 -0.506739,0.50688 0,0.42061 0.72729,0.15723 0.886739,-0.32112 z m 7.635571,-2.699742 c -0.09406,-0.22 -0.41548,-1.22012 -0.71426,-2.22248 -0.532096,-1.78511 -0.563591,-1.81862 -1.535644,-1.63404 -2.58516,0.49089 -0.879102,4.11682 1.99426,4.23846 0.234667,0.01 0.349707,-0.16194 0.255644,-0.38194 z m -1.988357,-5.62471 c 2.535921,-0.4354 1.77171,-1.09798 -0.977033,-0.8471 -2.839374,0.25916 -2.99692,0.3124 -2.99692,1.01283 0,0.52418 -0.05854,0.52662 3.973953,-0.16573 z m 0.351974,-4.13529 c -0.266024,-1.78334 -0.780678,-2.91435 -0.796197,-1.74973 -0.0054,0.40166 -0.213475,1.21791 -0.462497,1.81391 -0.513853,1.22982 -0.40481,1.45582 0.702434,1.45582 0.752596,0 0.774196,-0.059 0.55626,-1.52 z m 0.0082,-14.24 c 0.210728,-0.84116 0.168203,-0.88 -0.963513,-0.88 -0.825056,0 -1.132127,0.12126 -1.012949,0.4 0.09406,0.22 0.430063,1.264 0.746667,2.32 l 0.575644,1.92 0.216846,-1.44 c 0.119266,-0.792 0.316053,-1.836 0.437305,-2.32 z m 1.500267,-3.2 c 0.284208,-0.22 1.535655,-2.69688 2.780998,-5.50417 2.34352,-5.282855 2.46578,-6.101836 0.79745,-5.341694 -0.61199,0.278841 -0.96011,0.288826 -1.264425,0.03627 -0.244507,-0.202923 -0.883854,-0.261476 -1.53049,-0.140166 -0.651537,0.122229 -1.403217,0.05172 -1.818611,-0.170595 -1.178106,-0.630502 -1.4383,0.01872 -1.449495,3.616682 -0.0056,1.795019 -0.132191,4.307673 -0.281347,5.583673 l -0.271193,2.32 h 1.260186 c 0.693102,0 1.492719,-0.18 1.776927,-0.4 z M 28.752564,59.125296 c 0.234601,-0.611359 -0.291422,-1.198642 -0.93913,-1.0485 -0.350839,0.08133 -0.404107,0.297738 -0.204302,0.83001 0.313565,0.835322 0.866209,0.940923 1.143432,0.21849 z m 2.987467,-0.119605 c 0,-0.770761 -0.580193,-1.166693 -1.038321,-0.708565 -0.243407,0.243407 -0.223996,0.48541 0.06706,0.836117 0.559272,0.673882 0.971256,0.619777 0.971256,-0.127552 z m 3.20254,-0.02363 c 0.388225,-0.725404 -0.232471,-1.181084 -1.13634,-0.834236 -0.534042,0.204931 -0.108664,1.478984 0.4938,1.478984 0.163615,0 0.452758,-0.290137 0.64254,-0.644748 z m 3.517459,-0.696414 c 0,-0.142361 -0.36,-0.258838 -0.8,-0.258838 -0.858317,0 -1.049973,0.582026 -0.404278,1.227721 0.390013,0.390014 1.204278,-0.265091 1.204278,-0.968883 z m 2.880003,-0.16 c 0,-0.230361 -0.288,-0.418838 -0.64,-0.418838 -0.64461,0 -0.929876,1.20346 -0.40879,1.724549 0.27119,0.271189 1.04879,-0.696899 1.04879,-1.305711 z m 2.50256,-0.07164 c 0.37764,-1.0833 0.25681,-1.299423 -0.60109,-1.075077 -0.43403,0.1135 -0.62147,0.440809 -0.62147,1.085196 0,1.219716 0.79614,1.213127 1.22256,-0.01012 z m 1.86937,-1.387203 c -0.0888,-0.22 -0.16141,-0.04 -0.16141,0.4 0,0.44 0.0726,0.62 0.16141,0.4 0.0888,-0.22 0.0888,-0.58 0,-0.8 z m -20.795397,-2.88 c 0.356453,-0.396 0.737035,-0.972 0.845738,-1.28 0.273614,-0.775266 0.664405,-0.717207 3.651151,0.542444 4.208406,1.774881 6.987749,1.604776 9.991783,-0.611531 1.376215,-1.015341 1.423405,-1.013589 4.014795,0.149087 2.951,1.324025 4.96265,0.62746 8.59428,-2.975908 2.11366,-2.097209 1.74471,-2.151666 -1.59679,-0.235683 -5.04563,2.893116 -7.83932,2.895814 -8.81385,0.0085 -0.12289,-0.364109 -0.47318,-0.19572 -1.48082,0.711864 -3.797068,3.420027 -8.843557,3.51966 -12.906228,0.254808 -1.336189,-1.07379 -1.578158,-0.952934 -2.272098,1.134845 -0.490903,1.476924 -0.840431,1.527522 -3.444496,0.498623 l -1.76,-0.695398 1.656209,1.609167 c 1.831375,1.779359 2.554604,1.962032 3.520326,0.889168 z M 23.25627,50.660719 c -0.110842,-0.179347 -0.947341,-0.702093 -1.858885,-1.161657 -0.911545,-0.459565 -2.549309,-1.542824 -3.639476,-2.407242 -1.770815,-1.40412 -1.93451,-1.476229 -1.535506,-0.676407 0.620043,1.242906 5.472582,4.40562 6.976513,4.547046 0.142387,0.01339 0.168196,-0.122393 0.05735,-0.30174 z m 26.883763,-2.623355 c 4.97087,-2.747582 4.95613,-2.734509 7.77263,-6.89433 9.00828,-13.30476 11.29758,-31.9490187 4.43726,-36.1373997 -4.71574,-2.879067 -30.967462,-4.079155 -44.206481,-2.020882 -6.487476,1.008609 -7.231114,1.653551 -1.123411,0.974312 17.449776,-1.940594 41.864002,-0.859183 44.240002,1.95958 1.21293,1.438957 1.14097,1.639899 -0.99493,2.778322 -5.00747,2.6689507 -28.331557,4.0065687 -38.925072,2.2323207 -2.816,-0.471635 -6.128,-0.9961437 -7.36,-1.1655727 -6.7965687,-0.934693 -8.9575877,-3.169927 -4.6399997,-4.79935 l 1.7599997,-0.664209 -1.2799997,0.0018 c -3.78636,0.0052 -5.502023,1.968843 -7.098932,8.1248847 -2.18119399,8.408444 1.786044,22.822647 8.4545957,30.718159 2.288733,2.709842 4.685928,3.068753 2.683921,0.40184 C 8.7634513,36.75814 3.4262693,22.888353 6.3404123,24.006615 c 0.316219,0.121344 0.46435,0.07913 0.353228,-0.100674 -1.911122,-3.09226 32.1430987,-5.454669 45.9493927,-3.1876 9.51689,1.562726 9.06051,1.13726 7.70463,7.182688 -2.19916,9.805359 -4.58918,13.612111 -11.82101,18.828193 -5.96531,4.302582 -5.08922,5.012945 1.61338,1.308175 z m 12.64166,-27.928553 c -0.22792,-0.274621 -0.39742,-0.891417 -0.37669,-1.370658 0.1862,-4.302963 0.0484,-4.676119 -1.9223,-5.206782 -1.36797,-0.368357 -1.62419,-1.309008 -0.419,-1.538253 0.34998,-0.06657 1.01856,-0.392225 1.48573,-0.723675 1.62098,-1.150062 2.05803,-0.856133 2.07781,1.397364 0.01,1.1 0.21003,2.74923 0.44528,3.664956 0.6686,2.602565 -0.18723,5.106801 -1.29083,3.777048 z M 6.3421063,16.202215 c -0.748632,-0.748633 0.468252,-5.535408 1.4072,-5.535408 0.173947,0 0.918373,0.436163 1.65428,0.969252 3.7176067,2.693021 14.7844897,4.194644 22.3364447,3.030748 3.706981,-0.571315 5.290595,-0.567878 2.935681,0.0064 -2.102314,0.512652 -2.419359,0.780607 -0.989015,0.835879 0.601334,0.02324 -0.922666,0.226452 -3.386666,0.451589 -4.948972,0.45219 -17.791728,0.553119 -20.7999997,0.163462 -1.056,-0.136782 -2.153066,-0.129697 -2.437925,0.01574 -0.284859,0.145441 -0.608859,0.173505 -0.72,0.06236 z M 46.327933,44.89084 c 2.46509,-1.410381 4.05026,-3.408858 6.18205,-7.793916 2.92798,-6.022801 3.26516,-7.688458 1.25106,-6.180211 -1.42786,1.069252 -3.01459,1.849852 -3.26044,1.603998 -0.11032,-0.110314 -0.20057,0.09698 -0.20057,0.460649 0,1.862576 -3.48211,9.418287 -5.34173,11.590835 -1.32357,1.546283 -0.93433,1.636839 1.36963,0.318645 z m -3.50875,-16.142464 c 11.32404,-1.484452 18.38814,-4.966085 12.60085,-6.210493 -11.18933,-2.405975 -45.102645,-1.190298 -45.118802,1.617356 -0.0012,0.21476 3.972008,0.46668 11.5188,0.730338 3.073011,0.10736 3.950522,0.06498 3.04,-0.14681 -3.54752,-0.825173 -4.366044,-1.260228 -3.207478,-1.704811 1.31971,-0.506421 6.419758,-0.911452 9.287478,-0.737586 1.76,0.106707 7.303999,0.426419 12.320002,0.710472 10.33039,0.585004 10.94409,0.746035 8.98196,2.356801 -0.78004,0.640355 -1.75311,1.017931 -3.36,1.303757 -1.24408,0.221292 -3.26996,0.727745 -4.50196,1.12545 -1.232,0.397706 -2.96689,0.820552 -3.85531,0.939659 -0.888413,0.119107 -1.824413,0.364633 -2.079996,0.545614 -0.373648,0.264584 -0.350719,0.292127 0.117029,0.140576 0.319949,-0.103664 2.235797,-0.405309 4.257427,-0.670323 z m 16.83595,-4.146152 c 0.1293,-0.18448 0.2373,-0.443417 0.24,-0.575417 0.0104,-0.510204 -0.51909,-0.134029 -1.5951,1.133216 l -1.12,1.319044 1.12,-0.770713 c 0.616,-0.423892 1.22579,-0.92165 1.3551,-1.10613 z M 48.220033,9.6762763 c 10.71939,-1.433059 13.19698,-2.390288 9.40069,-3.631994 -8.8536,-2.895863 -37.131139,-2.613524 -43.097546,0.430311 -0.724707,0.369717 -1.575386,0.676794 -1.890398,0.682391 -1.091561,0.0194 0.500389,0.896568 2.270161,1.250869 14.422321,2.8872937 19.703784,3.0883647 33.317093,1.268423 z"
     id="path1" />
</svg>
