<?xml version="1.0" encoding="UTF-8" standalone="no"?>
<!-- Created with Inkscape (http://www.inkscape.org/) -->

<svg
   version="1.1"
   id="svg1"
   width="103.29189"
   height="99.356873"
   viewBox="0 0 103.2919 99.356875"
   sodipodi:docname="Icon_chambermaid.svg"
   inkscape:version="1.4.2 (ebf0e940d0, 2025-05-08)"
   xmlns:inkscape="http://www.inkscape.org/namespaces/inkscape"
   xmlns:sodipodi="http://sodipodi.sourceforge.net/DTD/sodipodi-0.dtd"
   xmlns="http://www.w3.org/2000/svg"
   xmlns:svg="http://www.w3.org/2000/svg">
  <defs
     id="defs1" />
  <sodipodi:namedview
     id="namedview1"
     pagecolor="#505050"
     bordercolor="#eeeeee"
     borderopacity="1"
     inkscape:showpageshadow="0"
     inkscape:pageopacity="0"
     inkscape:pagecheckerboard="0"
     inkscape:deskcolor="#505050"
     showgrid="false"
     inkscape:zoom="4.2301186"
     inkscape:cx="56.144999"
     inkscape:cy="50.589599"
     inkscape:window-width="1838"
     inkscape:window-height="1011"
     inkscape:window-x="40"
     inkscape:window-y="47"
     inkscape:window-maximized="1"
     inkscape:current-layer="svg1" />
  <path
     style="fill:#015ea8"
     d="m 35.18596,99.18225 c 0.4488,-0.72618 -6.781496,-1.313 -13.264494,-1.07657 -6.37427,0.23247 -10.279651,-0.70858 -13.6688893,-3.29368 -1.244404,-0.94915 -1.4503,-1.92744 -0.333501,-1.58458 0.396,0.12157 1.44,0.28895 2.3200003,0.37195 l 1.6,0.1509 -1.9042123,-0.68014 c -4.62631,-1.6524 -8.324398,-5.40494 -9.64241201,-9.78436 -0.410678,-1.36458 -0.402706,-1.45229 0.112279,-1.23533 2.21239701,0.93207 6.02125401,1.32075 8.16036401,0.83273 l 0.886019,-0.20214 -1.408224,-1.12 c -2.988404,-2.37677 -5.003814,-6.38587 -5.003814,-9.95371 0,-1.8057 0.02356,-1.81945 1.381351,-0.8059 1.385896,1.03454 3.060063,1.52532 5.203188,1.52532 2.3669283,0 2.4721433,-0.19703 0.8501693,-1.59204 -1.4558013,-1.2521 -1.6560343,-1.77324 -0.8538053,-2.22219 0.4419653,-0.24734 0.4011483,-0.5295 -0.346896,-2.39808 -1.400791,-3.49912 -0.298922,-4.6118 1.8182093,-1.83605 4.619208,6.05619 12.858262,6.82848 18.794164,1.76169 3.351211,-2.86055 6.560774,-3.57309 10.033619,-2.22754 0.433526,0.16797 0.56,0.0514 0.56,-0.51623 0,-1.29299 1.259862,-3.39005 2.973428,-4.94932 4.979229,-4.530874 6.434784,-6.516367 5.865221,-8.000626 -0.385094,-1.003537 0.594591,-0.267216 1.329916,0.999551 0.571578,0.984674 0.709482,1.651723 0.64,3.095706 -0.04871,1.01232 -0.06,1.840319 -0.02508,1.839999 1.205486,-0.0111 10.409327,-12.702599 10.183067,-14.041821 -0.516877,-3.059331 6.09061,-9.721204 15.28964,-15.415506 4.69646,-2.907161 6.6033,-5.380653 6.63083,-8.601335 0.0176,-2.054171 1.08642,-3.402439 4.52764,-5.711248 3.42131,-2.295449 3.91609,-2.8647567 4.37205,-5.0306707 0.1482,-0.704 0.41946,-1.249785 0.60281,-1.212855 0.18334,0.03693 0.56755,-0.5461 0.85379,-1.29562 0.94195,-2.466459 4.92883,-5.781542 5.76521,-4.79376 0.27114,0.320229 1.238043,1.410233 2.148653,2.42223 l 1.65565,1.839995 -1.32641,2.854835 c -0.72953,1.57016 -1.32641,2.9973607 -1.32641,3.1715587 0,0.47442 -1.522663,1.661377 -3.947023,3.076825 -1.18999,0.694766 -3.00709,2.026507 -4.038,2.959425 -1.63316,1.47793 -2.62698,2.802541 -6.31531,8.417365 -0.40465,0.616 -2.99499,3.28 -5.75632,5.92 -7.02134,6.712832 -11.70704,12.482547 -19.03041,23.433003 -3.869525,5.785999 -3.844228,5.735429 -2.528836,5.055209 1.169839,-0.60494 4.063736,-0.61677 5.135896,-0.021 l 0.8,0.44455 -0.96,0.35617 c -4.349634,1.61378 -5.528032,2.50585 -7.844134,5.93817 -1.732125,2.5669 -2.882582,3.62722 -4.227377,3.89618 -0.698734,0.13975 -0.88954,0.3571 -0.893393,1.0177 -0.0027,0.462 -0.128554,1.03514 -0.279685,1.27365 -0.183145,0.28903 0.155013,1.14112 1.013975,2.555 8.180101,13.46472 4.261864,21.23916 -12.04597,23.90124 -1.607881,0.26247 -3.326578,0.54545 -3.819327,0.62884 -0.492749,0.0834 -0.815493,0.0215 -0.717208,-0.13751 z M 20.282138,95.65792 c 2.696459,-0.19536 4.112287,-0.45625 5.156937,-0.95025 0.792,-0.37453 1.08,-0.59569 0.64,-0.49148 -0.911877,0.21596 -8.033279,0.74717 -10.319999,0.7698 -1.090962,0.0108 -1.52,0.143 -1.52,0.46837 0,0.58636 0.603759,0.83016 1.563062,0.63115 0.419684,-0.0871 2.435684,-0.27948 4.48,-0.42759 z M 48.292545,94.6924 c 1.216577,-0.52149 1.981777,-1.29137 1.283512,-1.29137 -0.26185,0 -3.016982,1.63501 -3.016982,1.7904 0,0.21512 0.205292,0.15602 1.73347,-0.49903 z m -7.950244,-2.36302 c 4.718679,-2.29866 5.233227,-2.95452 5.752735,-7.33258 0.120361,-1.01433 0.338784,-1.91836 0.485383,-2.00896 0.449705,-0.27794 0.868902,0.91116 0.737919,2.09319 -0.09778,0.88241 -0.06048,0.98423 0.175822,0.48 0.164963,-0.352 0.310053,-1.2232 0.322423,-1.936 0.01237,-0.7128 0.174214,-1.44773 0.359651,-1.63316 0.236213,-0.23622 0.171137,-0.68532 -0.217351,-1.49998 -0.727708,-1.52602 -0.351216,-1.8323 0.844343,-0.68689 2.090216,2.00256 3.009669,5.71386 2.12406,8.57361 -0.388415,1.25424 -0.395519,1.47066 -0.03855,1.1744 0.749083,-0.62168 1.199297,-2.55764 1.013479,-4.35804 -0.132819,-1.2869 -0.07282,-1.71394 0.240802,-1.71394 0.760927,0 1.19244,0.91245 1.372951,2.90316 0.135507,1.4944 0.252725,1.8342 0.487816,1.41411 0.677152,-1.21 0.06047,-3.45081 -2.002891,-7.27778 -2.112679,-3.91845 -2.673766,-4.53064 -1.798737,-1.96257 0.847456,2.48715 -1.089304,0.96206 -2.540665,-2.00063 l -0.762398,-1.55629 -0.01001,1.32081 c -0.0211,2.78434 -1.325236,2.29498 -1.814371,-0.68081 -0.369373,-2.24719 -0.4463,-2.37481 -1.798267,-2.98329 -0.746553,-0.336 -1.91717,-1.06221 -2.601371,-1.61381 -1.460124,-1.17714 -2.438575,-1.24291 -8.035998,-0.54015 -1.936,0.24307 -3.563808,0.39857 -3.617351,0.34557 -0.134063,-0.1327 4.096079,-1.03873 6.808133,-1.45819 4.094326,-0.63326 2.697366,-2.09821 -1.655092,-1.73565 -3.646145,0.30372 -3.437782,-0.29225 0.250163,-0.71553 3.333588,-0.38261 4.482337,-1.03668 3.334147,-1.89838 -1.019596,-0.76519 -11.034057,3.62749 -11.038753,4.84197 -0.0041,1.06576 -7.319726,4.59397 -9.657668,4.65774 -0.694905,0.019 -0.701685,0.037 -0.103578,0.27566 2.500892,0.99791 6.966752,0.43858 9.952614,-1.24654 1.842524,-1.03986 3.647799,-1.26006 4.262094,-0.51988 0.307269,0.37024 0.130968,0.49043 -0.999542,0.68143 -0.754938,0.12755 -2.525189,0.74299 -3.933891,1.36766 -3.392425,1.50432 -6.897232,1.75753 -10.20129,0.73701 -1.20307,-0.37159 -2.676232,-0.67562 -3.273693,-0.67562 -0.847959,0 -1.086292,-0.13135 -1.086292,-0.59867 0,-0.49403 -0.334558,-0.63652 -1.9141733,-0.81523 -1.052795,-0.11911 -2.732422,-0.49808 -3.732505,-0.84216 -2.130114,-0.73287 -2.141812,-0.72766 -1.850575,0.82477 0.886939,4.72779 13.9092773,9.07434 19.1849163,6.40347 1.04403,-0.52855 1.678834,-0.68597 1.928995,-0.47836 0.440911,0.36593 1.198675,-0.17439 4.606306,-3.28445 3.989441,-3.64107 7.298557,-4.69281 9.857035,-3.13288 0.852983,0.52007 1.595204,1.94263 0.8,1.5333 -3.802343,-1.95727 -5.675904,-1.42992 -10.51285,2.95904 -1.213933,1.1015 -3.201733,2.70213 -4.417335,3.55695 -1.625646,1.14316 -2.024277,1.55422 -1.507252,1.55422 1.155693,0 2.978541,-1.10731 5.728798,-3.48002 3.15027,-2.7178 5.477266,-3.55545 6.928717,-2.49412 0.51713,0.37813 0.34876,0.46458 -1.502357,0.77132 -1.275059,0.21128 -2.598592,0.68549 -3.407744,1.22096 -1.32607,0.87755 -1.612005,1.45727 -0.398421,0.80778 2.815976,-1.50706 2.789279,0.61215 -0.03156,2.50491 -1.8864,1.26577 -1.898409,1.44802 -0.07898,1.19864 1.857412,-0.25458 3.682938,-1.19578 5.050502,-2.60392 1.09463,-1.1271 1.508474,-1.16698 1.508474,-0.14537 0,0.94377 -2.099278,2.45759 -4.464392,3.21932 -2.502649,0.80603 -2.873673,1.24142 -1.055608,1.23871 3.950531,-0.006 8.617073,-4.43993 7.148157,-6.79204 -0.336157,-0.53827 -0.317667,-0.73381 0.109817,-1.16129 0.644811,-0.64481 1.423659,-0.22919 2.073929,1.10673 0.248547,0.51061 0.596316,1.21639 0.772821,1.56839 2.6165,5.21802 -6.94406,9.50975 -15.690657,7.04352 -1.848769,-0.52129 -3.614067,-0.47562 -3.614067,0.0935 0,0.92497 6.913044,2.7008 9.953099,2.55677 2.52952,-0.11984 2.909274,0.50255 0.607789,0.99613 -2.238576,0.48009 -3.572424,0.4304 -6.560888,-0.2444 -4.737062,-1.06963 -6.802821,-0.22889 -2.649585,1.07836 5.031759,1.58377 7.572227,1.33296 13.334651,-1.31647 4.698982,-2.16048 4.047447,-0.50283 -1.067716,2.71652 l -1.582643,0.99607 h 1.125876 c 0.677312,0 2.264051,-0.55445 3.98265,-1.39165 z m 3.88799,-6.4838 c -0.409123,-0.40913 -0.246191,-1.40455 0.229898,-1.40455 0.253613,0 0.537001,0.12278 0.62975,0.27285 0.229147,0.37077 -0.569364,1.42198 -0.859648,1.1317 z m -27.202134,0.38615 c 1.093995,-0.23475 3.037995,-0.37706 4.32,-0.31625 2.043783,0.0969 2.203094,0.0664 1.293263,-0.24757 -1.27945,-0.44157 -8.543114,0.0659 -9.113956,0.63673 -0.513197,0.5132 0.907116,0.48362 3.500693,-0.0729 z M 21.759075,71.9345 c 3.329003,-1.71411 3.615947,-2.01536 1.6,-1.6798 -4.737302,0.78854 -8.0383,-0.13177 -11.200845,-3.12277 -0.967535,-0.91506 -1.759154,-1.52704 -1.759154,-1.35997 0,0.39844 1.764038,3.17491 2.180868,3.43252 0.177894,0.10995 0.419616,0.76914 0.537159,1.46487 0.146412,0.86661 0.414404,1.32867 0.850987,1.46723 0.362105,0.11493 0.565851,0.38838 0.471865,0.63331 -0.51951,1.35382 4.088961,0.82782 7.31912,-0.83539 z m 27.36,0.20188 c 0,-0.23478 0.252,-0.52457 0.56,-0.64397 0.525758,-0.20382 0.523371,-0.24406 -0.03904,-0.65806 -0.832314,-0.61269 -1.584072,0.12444 -1.296288,1.27107 0.203795,0.81198 0.775324,0.8348 0.775324,0.031 z m -1.92,-0.94869 c 0,-0.60133 0.18,-1.16081 0.4,-1.24328 0.276617,-0.10369 0.203676,-0.30057 -0.236471,-0.63829 -1.013047,-0.77728 -1.588389,0.75116 -0.929293,2.46874 0.337042,0.87831 0.765764,0.54958 0.765764,-0.58717 z m -2.321797,-1.50704 c 0.405969,-1.70903 0.324401,-2.19962 -0.365724,-2.19962 -0.841912,0 -1.326456,1.74074 -0.840399,3.01917 0.463101,1.21804 0.771959,1.00818 1.206123,-0.81955 z m -1.849446,-3.39962 c 0.07558,-0.53779 -0.957892,0.14636 -1.208479,0.8 -0.678725,1.77041 -0.749659,2.35492 -0.344959,2.84255 0.346163,0.4171 1.295887,-1.80984 1.553438,-3.64255 z m -2.290543,-0.676 c -0.446439,-0.16482 -0.781696,0.28751 -1.034685,1.396 l -0.2191,0.96 0.783999,-1.12 c 0.431199,-0.616 0.642603,-1.1722 0.469786,-1.236 z m 10.434717,1.19251 c 0.8262,0.0158 2.187914,-0.99172 2.743467,-2.02978 0.249398,-0.46601 1.516299,-1.55816 2.815335,-2.42701 1.299036,-0.86885 2.31382,-1.57965 2.255075,-1.57956 -0.05875,9e-5 -0.826808,0.26903 -1.706808,0.59764 -4.028973,1.50451 -6.033385,1.08398 -4.798378,-1.00672 0.562752,-0.95266 0.561935,-0.97101 -0.03208,-0.71985 -2.928055,1.23808 -4.870977,0.44119 -3.489546,-1.43123 0.44,-0.59639 0.795621,-1.45237 0.790269,-1.90217 -0.0084,-0.709884 -0.05278,-0.743916 -0.335901,-0.257833 -0.179393,0.308003 -0.571015,0.561353 -0.870269,0.563003 -1.172703,0.006 -3.871124,1.90658 -4.651169,3.27515 -1.568981,2.75273 -2.019555,4.41935 -1.330917,4.92289 0.999169,0.73061 1.355149,0.50677 1.580142,-0.99358 0.188938,-1.25994 0.638121,-2.05385 0.97272,-1.71925 0.06176,0.0618 -0.02068,0.82405 -0.183196,1.69398 -0.304223,1.62842 -0.154342,2.73781 0.369885,2.73781 0.16414,0 0.298436,-0.432 0.298436,-0.96 0,-1.31097 0.909165,-1.29418 1.172331,0.0217 l 0.196331,0.98166 1.169161,-1.14166 c 1.922547,-1.87731 3.298117,-1.34071 1.753707,0.68412 l -0.883335,1.15811 0.775902,-0.23953 c 0.426747,-0.13175 1.051722,-0.23428 1.388834,-0.22784 z m 16.619811,14.75413 c -1.01822,-0.3938 -1.20413,-0.91507 -0.57449,-1.61081 0.76393,-0.84413 1.24671,-0.77853 1.70713,0.23199 0.49515,1.08673 -0.0794,1.78617 -1.13264,1.37882 z M 20.399075,63.7491 c -0.948134,-0.38258 0.327638,-2.66807 1.489331,-2.66807 0.60629,0 1.60783,1.33536 1.620023,2.16 0.01057,0.7152 -1.844724,1.01836 -3.109354,0.50807 z m 0.388444,-10.476952 c -0.855381,-0.62547 -0.316151,-2.14046 0.916099,-2.573819 1.027688,-0.361418 1.482383,0.07746 1.490557,1.438699 0.0088,1.469453 -1.18158,2.030918 -2.406656,1.13512 z M 9.5998017,50.202202 c -0.109174,-0.176646 -0.494786,-0.321174 -0.856916,-0.321174 -0.738797,0 -0.710922,-0.372226 0.215594,-2.878964 0.653014,-1.766762 0.554577,-1.678732 1.4826263,-1.325888 0.794393,0.302027 1.86336,3.740676 1.3151,4.230406 -0.456477,0.407747 -1.9597413,0.613828 -2.1564043,0.29562 z M 14.874094,34.035026 c -0.328824,-0.396209 -0.306502,-0.593015 0.120818,-1.065197 0.28829,-0.318557 0.524164,-0.728896 0.524164,-0.911864 0,-0.318299 2.570569,-0.833034 2.835765,-0.567838 0.187229,0.187229 -0.949293,2.510185 -1.36307,2.786001 -0.594454,0.396252 -1.69247,0.27124 -2.117677,-0.241102 z"
     id="path1" />
</svg>
