<?xml version="1.0" encoding="UTF-8" standalone="no"?>
<!-- Created with Inkscape (http://www.inkscape.org/) -->

<svg
   version="1.1"
   id="svg1"
   width="117.64671"
   height="86.058708"
   viewBox="0 0 117.64672 86.05871"
   sodipodi:docname="Icon_gossip.svg"
   inkscape:version="1.4.2 (ebf0e940d0, 2025-05-08)"
   xmlns:inkscape="http://www.inkscape.org/namespaces/inkscape"
   xmlns:sodipodi="http://sodipodi.sourceforge.net/DTD/sodipodi-0.dtd"
   xmlns="http://www.w3.org/2000/svg"
   xmlns:svg="http://www.w3.org/2000/svg">
  <defs
     id="defs1" />
  <sodipodi:namedview
     id="namedview1"
     pagecolor="#505050"
     bordercolor="#eeeeee"
     borderopacity="1"
     inkscape:showpageshadow="0"
     inkscape:pageopacity="0"
     inkscape:pagecheckerboard="0"
     inkscape:deskcolor="#505050"
     showgrid="false"
     inkscape:zoom="4.2301186"
     inkscape:cx="65.128198"
     inkscape:cy="44.206799"
     inkscape:window-width="1838"
     inkscape:window-height="1011"
     inkscape:window-x="40"
     inkscape:window-y="47"
     inkscape:window-maximized="1"
     inkscape:current-layer="svg1" />
  <path
     style="fill:#0064ab"
     d="m 115.1785,83.986576 c -1.01069,-5.80384 -3.00578,-7.3287 -7.15947,-5.47203 -2.70605,1.20959 -4.0744,0.66889 -4.51326,-1.78339 -0.53472,-2.98796 -2.00373,-3.59522 -10.305943,-4.26033 -17.68725,-1.41696 -26.494633,-4.21167 -35.83564,-11.37116 l -2.202828,-1.68837 -3.203857,0.20896 C 23.969282,61.445756 6.1526733,54.331886 1.0833763,39.307078 -8.0706617,12.175572 43.005839,-11.93578 70.727937,6.4304229 c 15.94817,10.5658431 17.05432,25.6480001 2.86292,39.0354291 -3.752063,3.539505 -3.983254,4.253918 -2.39583,7.403484 5.52361,10.95923 13.60361,16.03289 25.57148,16.05706 7.301083,0.0147 9.101503,0.82386 9.105943,4.0923 0.001,1.07383 -0.2353,1.07831 3.8412,-0.0727 5.41671,-1.52943 4.96485,-1.86839 6.69777,5.02432 1.67596,6.66611 1.65553,8.08839 -0.11618,8.08839 -0.67955,0 -0.79234,-0.20928 -1.11674,-2.07212 z M 74.931737,63.955256 c -0.31795,-0.5409 -1.97109,-2.32507 -3.67364,-3.96483 -3.360921,-3.23696 -4.189982,-4.51883 -4.697203,-7.26264 -0.182057,-0.98483 -0.785506,-2.65765 -1.341,-3.71738 -1.199665,-2.288625 -1.110967,-2.814629 0.755735,-4.481699 C 77.384767,34.339705 81.051957,25.451293 77.131907,17.488536 72.303537,7.6807239 46.542896,1.9056879 31.069726,7.1622879 -0.41376271,17.857971 -5.9871467,34.074273 16.376347,49.914106 c 5.949471,4.21395 18.432054,5.48432 34.119915,3.47243 3.734704,-0.47895 3.508297,-0.56953 14.737383,5.89598 10.710712,6.16704 10.523442,6.07681 9.698092,4.67274 z M 41.073398,50.028186 c -1.681293,-1.814145 -1.202802,-5.227384 1.004497,-7.165419 3.315667,-2.911193 6.46154,1.593169 3.916005,5.607061 -1.677331,2.644878 -3.406125,3.192398 -4.920502,1.558358 z M 39.705776,37.658694 c -0.984251,-1.206807 -3.436174,-10.605201 -5.029909,-19.28 -0.688944,-3.749968 -0.951731,-4.599437 -1.612644,-5.21295 -1.765622,-1.638993 -0.715497,-2.411978 5.337986,-3.9292331 4.63619,-1.162022 5.989167,-1.244027 6.047693,-0.366558 0.0084,0.125808 0.05949,2.7487411 0.113544,5.8287411 0.05406,3.08 0.209722,8.84 0.34592,12.8 0.286317,8.324749 0.302003,8.271033 -2.850844,9.762569 -1.956679,0.925657 -1.925263,0.920348 -2.351746,0.397431 z m 36.928951,-0.08 c 0.35943,-0.729271 0.0832,-0.536997 -1.14945,0.8 -3.00307,3.257356 -3.82238,4.495889 -1.4818,2.24 1.18695,-1.144 2.37101,-2.512 2.63125,-3.04 z"
     id="path1" />
</svg>
