<?xml version="1.0" encoding="UTF-8" standalone="no"?>
<!-- Created with Inkscape (http://www.inkscape.org/) -->

<svg
   version="1.1"
   id="svg1"
   width="116.9987"
   height="99.357285"
   viewBox="0 0 116.99871 99.357287"
   sodipodi:docname="Icon_devilsadvocate.svg"
   inkscape:version="1.4.2 (ebf0e940d0, 2025-05-08)"
   xmlns:inkscape="http://www.inkscape.org/namespaces/inkscape"
   xmlns:sodipodi="http://sodipodi.sourceforge.net/DTD/sodipodi-0.dtd"
   xmlns="http://www.w3.org/2000/svg"
   xmlns:svg="http://www.w3.org/2000/svg">
  <defs
     id="defs1" />
  <sodipodi:namedview
     id="namedview1"
     pagecolor="#505050"
     bordercolor="#eeeeee"
     borderopacity="1"
     inkscape:showpageshadow="0"
     inkscape:pageopacity="0"
     inkscape:pagecheckerboard="0"
     inkscape:deskcolor="#505050"
     showgrid="false"
     inkscape:zoom="4.2301186"
     inkscape:cx="57.090599"
     inkscape:cy="50.353199"
     inkscape:window-width="1838"
     inkscape:window-height="1011"
     inkscape:window-x="40"
     inkscape:window-y="47"
     inkscape:window-maximized="1"
     inkscape:current-layer="svg1" />
  <path
     style="fill:#96171a"
     d="m 26.870021,98.630234 -0.683029,-0.72705 6.467248,-2.53387 c 5.731471,-2.2456 6.757075,-2.54935 9.014737,-2.6699 2.246779,-0.11997 2.737327,-0.26387 4.155728,-1.21908 1.25698,-0.8465 1.934601,-1.08305 3.102483,-1.08305 h 1.494243 l 0.224324,-1.63103 c 0.194588,-1.41482 0.370466,-1.71725 1.326811,-2.28151 l 1.102488,-0.65048 -0.700795,-0.74597 c -0.768478,-0.818 -0.624521,-1.58262 0.72802,-3.8668 0.576831,-0.97416 0.659048,-25.692772 0.186078,-55.944212 -0.03852,-2.464 0.04449,-5.44251 0.184483,-6.618912 l 0.254526,-2.138911 -5.222939,0.174993 c -5.211621,0.174614 -5.246584,0.171102 -16.134708,-1.621088 -12.059374,-1.984978 -11.96823,-1.974578 -11.96823,-1.365678 0,0.236723 -0.267517,0.672504 -0.594482,0.968403 -0.627105,0.567522 0.09486,2.882549 4.235452,13.581142 3.026329,7.819534 9.048643,18.081357 10.70543,18.241694 1.740525,0.16844 1.684051,2.618357 -0.06036,2.618357 -1.0383,0 -1.303871,0.405679 -2.083301,3.182398 -0.901394,3.211222 -4.75874,5.777604 -8.683908,5.777604 -1.957557,0 -2.313813,0.22808 -1.735318,1.11097 0.658621,1.00519 0.238448,1.1295 -3.809685,1.12711 -6.948256,-0.004 -9.6358242,-0.4697 -7.728216,-1.33887 l 0.805613,-0.36706 -0.885613,-0.58397 c -0.487087,-0.32118 -1.2153492,-0.58491 -1.6183602,-0.58607 -3.279985,-0.009 -7.198334,-4.270527 -6.644036,-7.225189 0.181966,-0.969961 0.118394,-1.06656 -0.929488,-1.412393 -0.61864796,-0.204172 -1.21121696,-0.511024 -1.31681996,-0.681894 -0.27199,-0.44009 0.466664,-1.236529 0.96828896,-1.044037 0.805944,0.30927 5.50288,-8.277961 7.634899,-13.958599 1.4494312,-3.86192 5.3662202,-12.938066 6.8013572,-15.760385 1.509984,-2.969511 1.523818,-4.508396 0.03803,-4.22966 -1.759309,0.330049 -1.963902,-0.224831 -1.470767,-3.9888872 0.405679,-3.096511 0.442905,-3.192762 1.270705,-3.285515 l 0.852782,-0.09555 -0.439355,-1.44 C 15.392021,3.2608808 14.892254,2.5793278 13.838238,1.7587708 12.269996,0.53788482 12.152063,0.32147282 12.898828,0.03491182 14.166,-0.45134718 17.78579,4.2649948 17.874566,6.5179628 c 0.02773,0.703816 0.08453,0.645585 0.351789,-0.360678 0.383757,-1.444889 1.40353,-1.675789 1.726038,-0.390816 l 0.203092,0.809184 1.502829,-1.40572 c 1.765737,-1.651641 2.779357,-2.248636 3.408184,-2.007332 0.872807,0.334927 0.443748,1.008932 -1.112657,1.747864 -0.862209,0.40935 -1.953161,1.146656 -2.424337,1.638458 l -0.856684,0.894186 2.024337,0.350507 c 4.987583,0.863582 30.037915,4.8436692 30.485644,4.8436692 0.627204,0 0.640168,-1.315463 0.04052,-4.1116142 l -0.435689,-2.031614 4.68693,0.228951 c 2.577812,0.125923 4.722141,0.25936 4.765177,0.296527 0.04303,0.03717 -0.405003,1.568365 -0.995642,3.4026632 -0.590638,1.834297 -1.057849,3.358174 -1.038246,3.386393 0.0196,0.02822 6.011639,1.013147 13.315639,2.188731 7.304,1.175585 15.728,2.540402 18.72,3.032928 4.55697,0.750144 5.48153,0.823394 5.6959,0.451268 0.3185,-0.552901 1.07428,-0.57864 1.29886,-0.04423 0.21728,0.517064 0.76972,-0.320894 1.7241,-2.615165 0.91266,-2.194012 1.50424,-2.842649 2.81725,-3.08897 3.78028,-0.709186 4.34317,3.066586 0.96133,6.448431 -1.29862,1.298621 -1.73612,1.988798 -1.89651,2.991863 l -0.2085,1.303841 1.68378,0.01332 c 2.05206,0.01623 3.69501,1.26665 4.67829,3.560543 0.34163,0.796985 1.0045,1.750615 1.47305,2.119177 l 0.85191,0.670114 -1.00947,0.522018 c -0.55521,0.28711 -1.0416,0.4754 -1.08087,0.418423 -0.27153,-0.393984 -2.10912,-4.505258 -2.10912,-4.718782 0,-0.485485 -0.95522,-1.069421 -2.16585,-1.324018 -0.65679,-0.138121 -1.49832,-0.345913 -1.87009,-0.46176 -1.05023,-0.327271 -1.14954,0.849473 -0.25706,3.045896 0.42515,1.046293 0.773,2.154373 0.773,2.462399 0,0.308026 0.48534,1.354887 1.07855,2.326358 0.5932,0.971471 1.61234,3.422311 2.26475,5.446311 0.65241,2.024 1.4015,4.256 1.66465,4.96 0.26315,0.704 1.06246,2.936 1.77625,4.96 0.71379,2.024 1.62444,4.420199 2.02366,5.324887 0.39922,0.904688 0.83071,2.12868 0.95885,2.71999 0.65319,3.01409 1.79654,5.35645 2.66357,5.45678 1.78017,0.20601 0.89148,2.81834 -0.95878,2.81834 -0.51616,0 -0.9509,1.06769 -1.72502,4.23655 -0.47445,1.94219 -4.05696,3.89427 -8.09194,4.40922 -2.34667,0.29949 -2.45991,0.3673 -2.01172,1.20475 0.57914,1.08212 -3.24272,1.39326 -10.04803,0.818 l -2.50175,-0.21148 0.87826,-0.7003 0.87827,-0.7003 -1.11314,-0.52822 c -0.61223,-0.29052 -1.45919,-0.52822 -1.88213,-0.52822 -0.86867,0 -3.11187,-1.3435 -4.62644,-2.77087 -1.13108,-1.06595 -1.8062,-3.05739 -1.52061,-4.48537 0.17513,-0.87561 0.0952,-0.9737 -1.11933,-1.37455 -1.51016,-0.4984 -1.48696,-0.44862 -0.72701,-1.55981 0.83399,-1.21948 5.29866,-11.347095 6.08774,-13.809397 0.36662,-1.144 1.11447,-3.517936 1.6619,-5.275414 0.99289,-3.187615 3.43247,-9.091341 6.16676,-14.923332 l 1.44344,-3.078746 -13.17037,-2.1407 C 62.429109,19.929568 63.55967,20.144197 62.99346,19.457217 62.71188,19.11558 62.10061,18.599921 61.635088,18.311309 l -0.846405,-0.52475 -0.01563,6.145364 c -0.0086,3.37995 -0.100206,17.377364 -0.203572,31.105363 l -0.187945,24.959998 0.98894,2.14666 c 0.543916,1.18067 1.293474,3.59267 1.665684,5.36 0.64429,3.05924 0.71627,3.21376 1.50103,3.22224 0.80957,0.009 3.3651,1.66362 3.05221,1.97651 -0.0878,0.0878 0.89952,0.24922 2.19408,0.35865 2.1153,0.1788 15.1292,4.2562 15.9885,5.00937 1.45813,1.27803 1.26456,1.28657 -29.188948,1.28657 H 27.553049 Z m 36.891469,-5.31325 c 1.66862,-0.41783 1.30598,-1.49323 -0.48,-1.4234 -1.27988,0.05 -2.426201,0.2131 -7.175066,1.02065 -0.690284,0.11738 -1.302507,0.35509 -1.360495,0.52824 -0.121454,0.36264 7.489233,0.25671 9.015561,-0.12549 z m -4.578217,-3.2397 h 1.929441 l -0.230895,-1.2 c -0.126992,-0.66 -0.346777,-2.11387 -0.488413,-3.23082 -0.191118,-1.50718 -0.42967,-2.1514 -0.925167,-2.49846 -0.616444,-0.43178 -0.652054,-0.67052 -0.464313,-3.11295 0.113145,-1.47198 0.03552,-4.05414 -0.175001,-5.82154 -0.436532,-3.6648 -0.479865,-5.65206 -0.28208,-12.93623 0.07885,-2.904 0.03678,-5.640003 -0.09349,-6.080003 -0.28273,-0.954939 -0.306799,-0.595665 -0.428753,6.400003 -0.04449,2.552 -0.251502,6.008 -0.46003,7.68 -0.208529,1.672 -0.439907,6.28 -0.514173,10.24 -0.09239,4.92629 -0.281208,7.72444 -0.59792,8.86071 -0.480081,1.7224 -0.396374,2.1589 0.358467,1.86924 0.243586,-0.09348 1.311134,-0.16995 2.372327,-0.16995 z m 51.858217,-25.14451 c 1.27061,-0.13696 1.84,-0.33714 1.84,-0.64691 0,-0.89414 -12.41359,-0.34723 -14.77247,0.65084 -1.12797,0.47726 8.49559,0.47433 12.93247,-0.004 z m -13.86541,-2.33403 c 0.14895,-0.2412 0.37514,-2.9772 0.50266,-6.08 0.12751,-3.102805 0.42264,-6.649462 0.65585,-7.881462 0.31789,-1.679375 0.38169,-4.522548 0.25492,-11.36 -0.20622,-11.122938 -0.43662,-11.800125 -2.36954,-6.964454 -0.58137,1.45445 -1.81021,4.156454 -2.73076,6.004454 -0.92054,1.848 -2.12957,4.8 -2.68672,6.56 -2.05466,6.490488 -4.63241,13.517942 -5.97784,16.296772 -1.65786,3.42413 -1.67571,3.62219 -0.34316,3.8066 2.56176,0.35452 12.42301,0.0579 12.69459,-0.38191 z m 14.26541,-0.16411 c 1.82324,-0.0875 1.78727,0.0338 1.00762,-3.39735 -1.20024,-5.282003 -4.1679,-14.188689 -6.61058,-19.840002 -0.64662,-1.496 -1.80078,-4.376 -2.5648,-6.4 -1.48317,-3.929156 -2.13375,-5.026489 -2.66507,-4.495175 -0.21326,0.213263 -0.4709,0.194665 -0.77266,-0.05578 -0.3854,-0.319849 -0.4127,-0.140261 -0.18362,1.207613 0.31826,1.872532 0.30176,17.075445 -0.0287,26.460264 l -0.23305,6.61839 2.98543,0.12159 c 1.64199,0.0669 3.99344,0.0621 5.22544,-0.0106 1.232,-0.0727 2.96,-0.16674 3.84,-0.20898 z M 29.854952,50.96527 c 0.608595,-1.183606 1.106536,-2.299606 1.106536,-2.48 0,-0.435072 -4.634399,-0.415392 -7.52,0.03193 -1.232,0.190984 -3.535999,0.40513 -5.119999,0.475878 -10.0135372,0.447251 -10.0612372,1.476844 -0.05843,1.261243 9.514416,-0.205074 9.815406,-0.134259 9.823332,2.311174 0.0056,1.741101 0.08952,1.665212 1.768564,-1.600229 z m -16.186725,-3.338454 2.965059,-0.210466 -0.09853,-5.949534 c -0.05419,-3.272244 0.06956,-9.405534 0.275009,-13.629534 0.205446,-4.224 0.26963,-8.684767 0.14263,-9.912816 l -0.230908,-2.232815 -1.894098,5.592815 c -1.041754,3.076049 -2.356867,6.672816 -2.922473,7.992816 -0.565606,1.32 -1.209152,2.976 -1.430102,3.68 -0.5952882,1.896735 -2.3809282,5.349242 -4.6341202,8.96 -2.752461,4.41084 -3.164334,5.255517 -2.650398,5.435492 1.154755,0.404384 6.625791,0.547474 10.4779292,0.274042 z m 16.527776,-0.697209 2.726071,-0.212325 -1.495329,-1.92 C 28.725796,41.32927 25.352144,35.260741 23.914225,31.283755 21.21245,23.811207 20.304478,21.410328 19.585363,19.837282 l -0.731437,-1.6 -0.02622,3.825258 c -0.01442,2.103891 0.14436,5.359306 0.352844,7.234254 0.358916,3.227812 -0.242531,14.449227 -0.923212,17.22469 -0.175267,0.714651 -0.117017,0.752846 0.898365,0.589065 0.597181,-0.09633 2.597784,-0.0762 4.445784,0.04471 1.848,0.120918 3.4744,0.167385 3.614222,0.10326 0.139821,-0.06412 1.480953,-0.212137 2.980293,-0.328916 z M 103.0147,19.200584 c 0.60046,0.230417 1.73355,-1.775049 1.43802,-2.545171 -0.38331,-0.998893 -1.26232,-0.360299 -2.39765,1.741869 -1.03034,1.907774 -1.05668,2.019634 -0.31821,1.350954 0.44282,-0.400975 1.01785,-0.647419 1.27784,-0.547652 z m -43.099584,-9.7633012 0.206383,-1.12 -1.380006,-0.08894 c -0.759003,-0.04892 -1.633075,-0.166962 -1.942381,-0.262319 -0.503169,-0.155122 -0.491419,-0.05311 0.111608,0.968943 0.370691,0.628275 0.80376,1.1423192 0.962376,1.1423192 0.158615,0 0.290358,0.324 0.292761,0.72 0.01691,2.786088 1.147188,1.907327 1.749259,-1.3600002 z"
     id="path1" />
</svg>
