<?xml version="1.0" encoding="UTF-8" standalone="no"?>
<!-- Created with Inkscape (http://www.inkscape.org/) -->

<svg
   version="1.1"
   id="svg1"
   width="116.84868"
   height="84.772629"
   viewBox="0 0 116.84868 84.772631"
   sodipodi:docname="Icon_gambler.svg"
   inkscape:version="1.4.2 (ebf0e940d0, 2025-05-08)"
   xmlns:inkscape="http://www.inkscape.org/namespaces/inkscape"
   xmlns:sodipodi="http://sodipodi.sourceforge.net/DTD/sodipodi-0.dtd"
   xmlns="http://www.w3.org/2000/svg"
   xmlns:svg="http://www.w3.org/2000/svg">
  <defs
     id="defs1" />
  <sodipodi:namedview
     id="namedview1"
     pagecolor="#505050"
     bordercolor="#eeeeee"
     borderopacity="1"
     inkscape:showpageshadow="0"
     inkscape:pageopacity="0"
     inkscape:pagecheckerboard="0"
     inkscape:deskcolor="#505050"
     showgrid="false"
     inkscape:zoom="4.2301186"
     inkscape:cx="56.854199"
     inkscape:cy="38.769599"
     inkscape:window-width="1838"
     inkscape:window-height="1011"
     inkscape:window-x="40"
     inkscape:window-y="47"
     inkscape:window-maximized="1"
     inkscape:current-layer="svg1" />
  <path
     style="fill:#0066ad"
     d="m 77.841182,83.37329 c -1.56817,-0.82362 -3.69693,-2.34394 -5.28,-3.77087 -1.45886,-1.31498 -6.10847,-5.38509 -10.332473,-9.0447 C 51.896781,61.6063 51.508826,60.6803 54.504002,52.11984 c 1.634095,-4.67038 2.021408,-6.53949 1.29754,-6.26172 -0.26186,0.10049 -4.322871,2.35732 -9.02447,5.01518 l -8.548362,4.83247 -2.56,-0.15539 C 34.029682,55.45088 29.827749,54.5867 23.98871,53.14823 18.972711,51.91251 13.284711,50.52206 11.348711,50.05833 5.3488437,48.6212 2.0026277,47.36343 0.93050565,46.14235 c -1.128978,-1.28583 -1.108496,-0.69521 -0.584135,-16.844142 l 0.362167,-11.15377 1.66069705,-4.621599 c 1.849341,-5.1465783 2.072076,-5.4083453 5.364275,-6.3043113 0.932361,-0.25374 6.1592013,-1.937588 11.6152013,-3.741884 13.128036,-4.34143502 12.631519,-4.30665502 22.901518,-1.604208 18.302754,4.816186 19.17848,5.356054 19.17848,11.8231403 0,6.678622 0.412439,16.337043 0.690299,16.165315 0.148334,-0.09168 0.269704,-0.500554 0.269704,-0.908616 0,-1.531011 16.31427,-9.994357 21.4975,-11.152248 l 3.4175,-0.763441 2.3425,0.690622 c 3.40372,1.003495 12.224138,7.238052 19.543428,13.813929 7.25251,6.515881 6.81333,5.964757 7.27219,9.125826 l 0.38685,2.665014 -3.55441,10.240003 c -1.95492,5.632 -3.64336,10.816 -3.75209,11.52 -0.30303,1.96198 -3.51102,7.36829 -6.10197,10.28341 l -2.31391,2.60342 -7.928798,2.94424 c -6.15161,2.28431 -11.8052,3.99666 -12.67694,3.83958 -0.0285,-0.005 -1.23424,-0.63034 -2.67938,-1.38934 z m 4.51689,-2.48558 c 0.64111,-0.29211 0.89647,-0.78335 1.28915,-2.48 4.13226,-17.85408 4.73239,-21.15471 4.21858,-23.20189 -0.30955,-1.23334 -1.85388,-1.16395 -2.80769,0.12616 -1.33359,1.80378 -1.99773,1.16832 -1.90102,-1.81893 0.11413,-3.52546 -0.98457,-5.02386 -6.52838,-8.90338 -1.232,-0.862147 -4.64202,-3.928237 -7.57783,-6.813536 l -5.33782,-5.245997 -1.43791,2.99092 c -2.771047,5.763897 -3.213763,8.468808 -1.767017,10.796133 1.053989,1.69551 1.072191,2.86178 0.03788,2.42684 -1.820881,-0.7657 -3.42592,0.0234 -3.221446,1.58371 0.05299,0.40439 -0.07435,0.94095 -0.282996,1.19235 -1.082002,1.30373 -1.337092,5.76544 -0.533353,9.32872 0.898896,3.98514 1.074905,4.18823 7.707912,8.89369 3.73203,2.6475 7.24501,5.45426 9.26184,7.39992 4.11948,3.97411 6.31371,4.89461 8.8801,3.72529 z m -6.04936,-3.18602 c -3.17113,-1.25932 -3.64603,-4.00042 -1.14516,-6.60971 2.55241,-2.66306 6.41512,3.42132 3.99671,6.29544 -0.96462,1.14639 -0.80144,1.1284 -2.85155,0.31427 z m -7.92,-16.96654 c -0.78584,-0.5863 -0.88,-0.85794 -0.88,-2.53873 0,-3.35594 2.55768,-5.24625 4.57225,-3.3792 3.04002,2.81739 -0.41838,8.3605 -3.69225,5.91793 z m -3.79834,-15.14251 c -3.295683,-2.239478 -1.56677,-7.389526 2.14606,-6.392641 1.37678,0.369662 2.47287,3.831617 1.69482,5.353011 -0.94234,1.84267 -2.17006,2.17498 -3.84088,1.03963 z m 28.02936,28.43963 c 0.87985,-0.81542 0.99884,-2.95684 0.20829,-3.7486 -0.43554,-0.43621 -1.90947,1.2572 -2.13345,2.45114 -0.40983,2.18457 0.38786,2.72218 1.92516,1.29746 z M 103.8531,68.27449 c 0.11052,-0.58913 0.0248,-1.35159 -0.19891,-1.76963 l -0.3931,-0.73452 -0.57865,0.71461 c -0.6331,0.78184 -1.13434,3.30355 -0.7729,3.88837 0.35509,0.57455 1.71817,-0.89742 1.94356,-2.09883 z M 96.852942,57.49198 c 1.86401,-2.04652 1.88347,-4.24142 0.0298,-3.36665 -0.84896,0.40065 -1.69069,2.66616 -1.33499,3.59311 0.25696,0.66963 0.53251,0.62182 1.30515,-0.22646 z M 35.963401,48.48953 c -0.62694,-4.437691 -1.561366,-5.149545 -3.809104,-2.90181 -1.096975,1.09698 -1.765587,1.2152 -1.765587,0.31218 0,-0.7323 3.172407,-5.224694 4.212576,-5.96536 1.836832,-1.307939 2.50592,-17.647612 0.827424,-20.206363 -0.308,-0.469525 -0.560756,-1.038748 -0.561679,-1.26494 -0.0016,-0.385388 -19.148062,-5.39589 -20.551651,-5.378223 -0.304332,0.0038 -2.048392,-0.425036 -3.875689,-0.953036 -4.6941483,-1.356381 -4.9521543,-1.143433 -3.7049173,3.057896 1.0549,3.553444 0.251593,4.564581 -1.306063,1.643963 -1.528796,-2.866505 -1.581959,-2.513148 -1.980856,13.165949 -0.366962,14.423864 -0.376895,14.315584 1.41433,15.417394 1.81995,1.11948 11.2323883,3.48016 11.5871693,2.90612 0.06669,-0.10791 0.225281,-0.7711 0.352426,-1.47376 0.559037,-3.089509 1.426931,-3.189051 1.426931,-0.16366 0,2.05117 0.05889,2.2483 0.72,2.40986 14.978649,3.66052 17.60426,3.56698 17.01469,-0.60621 z M 5.5505167,41.280909 c -2.499409,-1.524084 -1.825569,-4.870831 1.265641,-6.286034 2.071418,-0.948326 2.495992,-0.831042 3.5592093,0.983201 2.060306,3.515647 -1.4424123,7.365368 -4.8248503,5.302833 z M 26.70871,28.170144 c -3.363761,-1.544645 -2.931356,-5.087139 0.745608,-6.108411 1.808385,-0.502276 2.069868,-0.408293 3.014392,1.083443 2.118673,3.346132 -0.319655,6.60478 -3.76,5.024968 z M 92.792122,51.06876 c 4.60312,-3.06616 12.074308,-7.047123 18.320368,-9.761856 2.33756,-1.015979 2.43157,-2.334426 0.31327,-4.393331 -1.1643,-1.131654 -2.98168,-2.353796 -2.07705,-1.396766 2.0015,2.117441 -2.14852,6.046465 -5.27848,4.997395 -3.65368,-1.2246 -2.46565,-5.086424 1.86151,-6.051065 l 1.84437,-0.411159 -6.1337,-4.469604 c -3.373538,-2.458282 -7.213698,-5.508182 -8.533698,-6.777555 -3.49409,-3.360071 -3.83706,-3.440939 -9.2301,-2.176326 l -3.48209,0.816514 0.15598,2.179951 c 0.19746,2.759737 -0.27703,3.162076 -1.27217,1.078719 -0.96289,-2.01587 -1.34433,-2.026883 -4.6502,-0.134268 -1.54078,0.882096 -3.80942,1.98958 -5.04142,2.461076 -7.03409,2.691998 -4.43092,6.694013 13.44,20.662125 7.19441,5.62324 6.66484,5.44012 9.76341,3.37615 z m -6.82354,-3.35429 c -1.97501,-2.06147 0.39759,-5.470248 3.86175,-5.548294 3.15684,-0.07112 4.23838,0.552993 4.23838,2.445804 0,3.18236 -5.8697,5.43056 -8.10013,3.10249 z m 0.90013,-10.919681 c -3.65358,-0.881718 -3.72904,-3.618915 -0.1648,-5.977622 3.05019,-2.018515 7.90558,2.212713 5.32311,4.638817 -0.64453,0.605502 -3.40234,1.70833 -4.00917,1.603238 -0.10403,-0.01802 -0.62114,-0.13701 -1.14914,-0.264433 z m -18.05678,-4.385966 c -1.34299,-1.707341 -0.52337,-3.511037 2.17795,-4.7929 2.30224,-1.092483 5.15883,0.191817 5.15883,2.31937 0,2.700891 -5.65757,4.608292 -7.33678,2.47353 z m 18.35914,-5.56875 c -3.32537,-1.000271 -2.98357,-4.407324 0.59202,-5.901302 2.1087,-0.88107 5.18122,1.766403 4.48254,3.862432 -0.56935,1.708046 -2.96905,2.672206 -5.07456,2.03887 z M 110.07361,50.20282 c 0.53219,-0.99441 0.7985,-3.83084 0.35967,-3.83084 -0.90979,0 -1.64457,1.28676 -1.64457,2.88 0,1.73494 0.61979,2.1936 1.2849,0.95084 z M 44.474318,45.07115 c 0.259287,-0.962918 0.252956,-1.595715 -0.02437,-2.436023 l -0.374647,-1.135194 -0.79377,0.79377 c -0.897961,0.897961 -1.123323,2.742167 -0.436257,3.570037 0.703378,0.84752 1.260384,0.57651 1.629045,-0.79259 z m 13.888853,-4.668012 c 0.383651,-0.999778 -0.421767,-2.67116 -1.287198,-2.67116 -0.9967,0 -1.614339,1.370986 -1.113171,2.470929 0.405362,0.889672 2.082133,1.029543 2.400369,0.200231 z M 44.737345,34.036921 c 0.747929,-1.641525 0.204468,-4.139834 -0.818391,-3.762172 -0.82366,0.304113 -1.039822,0.742139 -1.045344,2.118266 -0.009,2.252732 1.128979,3.25652 1.863735,1.643906 z m 12.017128,-3.211115 c 0.302012,-0.78703 0.229159,-2.350649 -0.141819,-3.043828 -0.734518,-1.372459 -1.813059,0.766165 -1.248732,2.476093 0.374388,1.134407 1.064913,1.416335 1.390551,0.567735 z m -12.14862,-6.396685 c 0.700523,-0.700523 0.627237,-2.13271 -0.160369,-3.133988 -0.810414,-1.030276 -1.110284,-1.05205 -1.696077,-0.123155 -1.352748,2.145058 0.216056,4.897532 1.856446,3.257143 z m 12.196106,-6.655225 c 0.282211,-1.504315 0.07414,-2.601918 -0.493249,-2.601918 -0.496748,0 -0.862332,2.319051 -0.510232,3.236609 0.301477,0.785635 0.795664,0.473067 1.003481,-0.634691 z M 40.524531,16.572549 c 1.377299,-0.549686 3.803526,-1.839339 5.391617,-2.865896 1.588091,-1.026557 3.56809,-2.167552 4.4,-2.535545 1.656041,-0.732546 1.844936,-1.078731 0.872562,-1.5991303 -1.60234,-0.857546 -0.538787,-1.771783 1.336312,-1.148702 3.793762,1.260637 4.606863,0.350607 0.960206,-1.074672 -14.313904,-5.594524 -20.476981,-6.41613902 -27.930726,-3.723513 -4.862226,1.756453 -13.863961,5.320527 -14.14615,5.600911 -0.780846,0.7758523 2.745797,2.1961253 9.59888,3.8657233 7.66559,1.867547 15.775542,4.047651 16.03964,4.311749 0.321945,0.321945 0.987416,0.162942 3.477659,-0.830925 z M 32.46871,10.64445 c -6.682484,-1.3917013 -6.333892,-5.1728833 0.48,-5.2065563 3.853318,-0.01904 6.690586,1.73946 5.835288,3.616636 -0.51684,1.1343413 -4.132284,2.0445553 -6.315288,1.5899203 z"
     id="path1" />
</svg>
