<?xml version="1.0" encoding="UTF-8" standalone="no"?>
<!-- Created with Inkscape (http://www.inkscape.org/) -->

<svg
   version="1.1"
   id="svg1"
   width="89.194679"
   height="87.953438"
   viewBox="0 0 89.194682 87.95344"
   sodipodi:docname="Icon_assassin.svg"
   inkscape:version="1.4.2 (ebf0e940d0, 2025-05-08)"
   xmlns:inkscape="http://www.inkscape.org/namespaces/inkscape"
   xmlns:sodipodi="http://sodipodi.sourceforge.net/DTD/sodipodi-0.dtd"
   xmlns="http://www.w3.org/2000/svg"
   xmlns:svg="http://www.w3.org/2000/svg">
  <defs
     id="defs1" />
  <sodipodi:namedview
     id="namedview1"
     pagecolor="#505050"
     bordercolor="#eeeeee"
     borderopacity="1"
     inkscape:showpageshadow="0"
     inkscape:pageopacity="0"
     inkscape:pagecheckerboard="0"
     inkscape:deskcolor="#505050"
     showgrid="false"
     inkscape:zoom="4.2301186"
     inkscape:cx="43.852199"
     inkscape:cy="44.206799"
     inkscape:window-width="1838"
     inkscape:window-height="1011"
     inkscape:window-x="40"
     inkscape:window-y="47"
     inkscape:window-maximized="1"
     inkscape:current-layer="svg1" />
  <path
     style="fill:#94171b"
     d="m 0.12000659,87.157225 c -0.240676,-0.89851 -0.155207,-1.21427 0.587751,-2.1714 0.47816001,-0.616 6.82744601,-8.69423 14.10952541,-17.95161 7.282079,-9.25738 17.776144,-22.607692 23.320144,-29.667352 l 10.079999,-12.835746 1.920003,-0.05969 1.92,-0.05969 -1.92,-0.220975 c -1.056003,-0.121537 -2.127677,-0.115154 -2.381502,0.01418 -2.424545,1.235442 -8.330783,-7.610389 -5.979548,-8.95563 2.28049,-1.304764 2.996671,-1.275483 13.66176,0.558547 l 3.3807,0.581366 1.0993,-0.704139 c 0.60461,-0.387276 1.96329,-1.513324 3.01929,-2.502328 1.056,-0.989005 2.50809,-2.087181 3.22688,-2.440391 1.39887,-0.687407 2.69294,-1.8786175 2.59374,-2.3875785 -0.0333,-0.171072 0.98194,-0.99976 2.25617,-1.84153 l 2.3168,-1.530491 -0.51128,-1.27782 C 71.697719,0.90075746 73.500629,0.03535046 80.537429,3.9446159e-4 87.871609,-0.03603554 90.578639,2.4511465 88.533129,7.3467485 l -0.48429,1.159079 -2.47571,0.02249 c -3.25228,0.02955 -3.35063,0.08303 -5.16205,2.8069055 -0.85466,1.285163 -3.26386,4.215989 -5.35379,6.512947 -2.08992,2.296957 -3.91792,4.379776 -4.06221,4.628488 -0.18652,0.321506 0.69211,1.516733 3.04,4.135398 6.35261,7.085239 6.24939,6.801627 3.22235,8.853399 -3.01185,2.041475 -2.92758,2.03719 -7.99232,0.40634 -5.73821,-1.84771 -4.7442,-2.122063 -10.70275,2.95403 -2.8407,2.42 -6.7765,5.768 -8.74622,7.44 -1.969718,1.671999 -6.375221,5.42434 -9.790008,8.33854 C -4.1682114,92.320075 0.48597459,88.523495 0.12000659,87.157225 Z M 24.182396,61.785825 C 58.735189,24.266149 57.958439,25.145823 56.535559,25.145823 c -0.24426,0 -10.709382,11.412 -23.255838,25.360002 -12.546456,13.948 -23.4621134,26.07308 -24.2570164,26.94462 l -1.445278,1.58462 1.377132,-1.10462 c 0.757422,-0.60754 7.6099494,-7.87262 15.2278374,-16.14462 z m 1.681681,1.28341 c 2.30129,-1.7229 6.149618,-5.24465 10.847223,-9.92671 8.750623,-8.721661 12.067116,-11.457133 11.222677,-9.25656 -0.234027,0.609864 0.801568,-0.101402 4.453612,-3.058825 4.89744,-3.965934 8.78978,-7.419817 8.7786,-7.789698 -0.0593,-1.961376 -1.32225,-5.651619 -1.93416,-5.651619 -0.44741,0 -4.84812,4.449534 -11.765732,11.896273 -3.216891,3.462951 -7.246278,7.638951 -8.954193,9.28 -4.198361,4.033989 -18.739845,19.193739 -17.334677,18.071699 0.616,-0.49188 2.724992,-2.09593 4.68665,-3.56456 z M 77.303129,34.003953 c 0.29284,-0.480931 0.20089,-0.702975 -0.53003,-1.28 -2.62948,-2.075835 -2.65992,-2.1104 -2.15567,-2.44747 0.4233,-0.28296 0.42141,-0.321439 -0.016,-0.32576 -0.2728,-0.0027 -0.66589,0.16499 -0.87354,0.372634 -0.29004,0.290045 -0.55711,0.281428 -1.15244,-0.03718 -0.4262,-0.228096 -0.96911,-0.343741 -1.20647,-0.256988 -0.25285,0.09242 -0.0672,0.254687 0.44845,0.391876 1.05614,0.281012 1.10064,0.513018 0.2056,1.07198 -0.63872,0.398886 -0.54984,0.4944 1.68,1.805467 2.54695,1.497514 3.05696,1.597451 3.6001,0.705446 z m -7.51444,-5.985571 c 0.89581,-0.708093 1.62874,-1.417641 1.62874,-1.576774 0,-0.379351 -1.57878,-1.615785 -2.06316,-1.615785 -0.20726,0 -1.07829,-0.848863 -1.93561,-1.886363 -1.41449,-1.711762 -1.6275,-1.855046 -2.30135,-1.548019 -0.90024,0.410175 -1.30105,0.110552 -0.7463,-0.557885 1.01575,-1.223907 -1.86024,0.166488 -3.60927,1.744899 -0.24561,0.221646 6.68163,6.727368 7.16324,6.727368 0.12924,0 0.96791,-0.579349 1.86371,-1.287441 z m -4.87642,-3.137134 -1.84511,-1.864575 1.29839,-0.585496 c 0.71412,-0.322022 1.33932,-0.526964 1.38934,-0.455425 0.05,0.07154 1.02054,1.122354 2.15673,2.335144 1.29255,1.37969 1.76636,2.052812 1.26581,1.798294 -0.44,-0.223728 -1.4001,-1.072011 -2.13355,-1.885073 -1.27356,-1.411798 -1.35937,-1.453148 -1.90759,-0.919275 -0.55039,0.535987 -0.51578,0.618385 0.84017,1.999999 0.77782,0.79254 1.27173,1.440982 1.09758,1.440982 -0.17416,0 -1.14695,-0.839059 -2.16177,-1.864575 z m -5.81174,-4.857774 c 1.19186,-0.902118 1.93343,-1.659496 1.69695,-1.733119 -1.38524,-0.431254 -6.71264,-1.518613 -6.83598,-1.395272 -0.0814,0.08141 0.6204,0.319979 1.55958,0.530158 0.93918,0.210178 2.25548,0.533422 2.92512,0.718318 l 1.21753,0.336176 -1.88315,1.252026 c -1.91797,1.275173 -2.7042,1.466909 -4.02232,0.980918 -1.14209,-0.421086 -2.68217,-0.761525 -2.46569,-0.545048 0.41837,0.418374 3.70111,1.435738 4.66791,1.446648 0.74347,0.0084 1.6016,-0.426355 3.14005,-1.590805 z m 14.47261,-2.918459 c -0.74421,-0.416483 -4.75369,-0.669702 -6.89962,-0.435747 l -2.13609,0.232884 1.6,0.746613 1.6,0.746614 -1.76,-0.160665 c -2.18169,-0.199159 -1.28341,0.482975 1.49393,1.134468 0.90967,0.213384 1.91048,0.575554 2.22402,0.804823 0.50025,0.365788 0.79711,0.217015 2.42335,-1.214463 1.24187,-1.093135 1.72168,-1.704954 1.45441,-1.854527 z m -16.87571,2.120808 c 0.67334,-0.716745 0.6904,-0.8 0.1639,-0.8 -0.32321,0 -1.35678,-0.242446 -2.29682,-0.538769 -1.60905,-0.507208 -1.77704,-0.506405 -2.86775,0.01372 -1.38781,0.661802 -1.38013,0.672683 1.02262,1.448383 2.56393,0.827738 3.10018,0.811113 3.97805,-0.12333 z m -5.5062,-2.571122 c 0.0516,-0.0384 -0.10311,-0.145375 -0.34378,-0.237728 -0.53681,-0.205993 -3.835877,2.251049 -3.579491,2.665891 0.147726,0.239025 1.287193,-0.466206 3.923271,-2.428163 z m -3.853803,0.434875 c 1.131948,-0.576165 0.875254,-0.816096 -1.437518,-1.343642 -1.929727,-0.440173 -2.235745,-0.440877 -2.898427,-0.0067 l -0.740909,0.485462 0.738428,0.553099 c 2.021771,1.514354 2.299972,1.620424 2.978427,1.135589 0.351999,-0.251545 0.963999,-0.622272 1.359999,-0.823837 z m 28.271613,-2.217594 c 1.24741,-1.335353 1.19522,-1.474919 -0.75161,-2.010163 -2.52318,-0.693697 -5.77102,-0.894743 -5.55974,-0.344155 0.0937,0.244111 -0.0939,0.518239 -0.42703,0.623959 -1.45472,0.461712 -0.96545,1.099574 1.36045,1.773602 1.26847,0.367595 2.45032,0.720491 2.62632,0.784213 0.98148,0.355354 1.90657,0.07716 2.75161,-0.827456 z m 2.74428,-3.638053 c 1.36761,-1.3676065 1.22819,-1.6338805 -1.00134,-1.9124415 -0.96465,-0.120525 -2.85037,-0.480366 -4.19048,-0.799646 -2.38583,-0.568421 -2.99505,-0.374116 -0.78407,0.250072 l 1.12,0.31619 -0.96,0.03376 c -0.74259,0.02612 -0.85129,0.104013 -0.48,0.34396 0.36228,0.234125 0.21533,0.311402 -0.59919,0.3151 -0.92275,0.0042 -1.02144,0.07447 -0.68081,0.4848995 0.2191,0.264 0.84873,0.485783 1.39918,0.492852 0.55045,0.0071 1.79282,0.361285 2.76082,0.787148 2.23924,0.985135 2.10677,0.997231 3.41589,-0.311894 z m 1.9413,-2.9901545 c 0.25921,-0.164621 -0.50017,-0.718735 -2.18598,-1.595099 -2.77258,-1.441315 -3.49121,-1.618925 -3.49121,-0.862851 0,1.107299 1.78923,2.04373 5.12,2.679652 0.088,0.0168 0.33873,-0.08297 0.55719,-0.221702 z m 4.39858,-3.080156 c -3.52608,-1.649125 -3.79398,-2.761102 -0.89564,-3.717641 1.8297,-0.60385504 0.99254,-0.65948604 -1.48946,-0.09898 -1.99881,0.451389 -2.63375,0.469202 -4.45765,0.125056 -3.29473,-0.62167004 -3.71237,-0.296008 -0.98048,0.764547 1.3131,0.509765 3.25146,1.328586 4.30746,1.819603 2.33828,1.087251 5.00595,2.141857 5.44,2.150585 0.176,0.0035 -0.6899,-0.465888 -1.92423,-1.04317 z"
     id="path1" />
</svg>
