<?xml version="1.0" encoding="UTF-8" standalone="no"?>
<!-- Created with Inkscape (http://www.inkscape.org/) -->

<svg
   version="1.1"
   id="svg1"
   width="91.949951"
   height="106.10304"
   viewBox="0 0 91.949954 106.10305"
   sodipodi:docname="Icon_innkeeper.svg"
   inkscape:version="1.4.2 (ebf0e940d0, 2025-05-08)"
   xmlns:inkscape="http://www.inkscape.org/namespaces/inkscape"
   xmlns:sodipodi="http://sodipodi.sourceforge.net/DTD/sodipodi-0.dtd"
   xmlns="http://www.w3.org/2000/svg"
   xmlns:svg="http://www.w3.org/2000/svg">
  <defs
     id="defs1" />
  <sodipodi:namedview
     id="namedview1"
     pagecolor="#505050"
     bordercolor="#eeeeee"
     borderopacity="1"
     inkscape:showpageshadow="0"
     inkscape:pageopacity="0"
     inkscape:pagecheckerboard="0"
     inkscape:deskcolor="#505050"
     showgrid="false"
     inkscape:zoom="4.2301186"
     inkscape:cx="43.852199"
     inkscape:cy="46.570799"
     inkscape:window-width="1838"
     inkscape:window-height="1011"
     inkscape:window-x="40"
     inkscape:window-y="47"
     inkscape:window-maximized="1"
     inkscape:current-layer="svg1" />
  <path
     style="fill:#0062aa"
     d="m 49.189361,104.2833 c -1.76,-1.08054 -4.97689,-2.85262 -7.148646,-3.93795 l -3.948646,-1.973338 4.397369,-0.23304 c 6.758626,-0.35817 6.59306,-0.77294 -0.317767,-0.79608 l -6.05769,-0.0203 -1.993987,-1.29914 c -2.44268,-1.59147 -4.652297,-3.88872 -6.694727,-6.96025 -2.265011,-3.40626 -2.334462,-3.36939 6.814802,-3.6187 3.998111,-0.10894 7.341293,-0.22706 7.429293,-0.26249 0.926413,-0.37293 -2.493387,-0.61843 -8.872623,-0.63693 -9.083898,-0.0264 -8.036801,0.50718 -9.712772,-4.94903 l -1.070951,-3.48653 1.539132,-1.39347 1.539132,-1.39346 h -1.587463 -1.587464 l -0.203495,-1.48467 c -0.486137,-3.54675 0.471097,-11.77659 1.488048,-12.79354 0.440649,-0.44065 2.90688,-0.74714 6.068456,-0.75416 2.07491,-0.005 3.44,-0.13462 3.44,-0.32763 0,-0.19751 -1.651301,-0.32 -4.313903,-0.32 h -4.313904 l -0.20183,-0.80416 c -0.111006,-0.44228 -0.05312,-0.98334 0.128641,-1.20235 0.540916,-0.65176 2.043693,-6.990956 2.049482,-8.64537 0.0048,-1.36097 0.125848,-1.623778 1.085319,-2.355602 1.263711,-0.963879 1.153763,-1.39252 -0.357187,-1.39252 -0.997089,0 -1.207303,-0.189176 -2.578014,-2.32 -0.820823,-1.276 -1.979799,-2.920235 -2.575504,-3.653855 -1.330769,-1.638864 -1.330905,-1.670298 -0.01607,-3.721517 1.692012,-2.639641 1.415444,-2.587763 6.464638,-1.212633 2.457583,0.669314 4.870214,1.313644 5.3614,1.431846 l 0.893066,0.214911 -0.528215,-1.021455 c -0.969893,-1.875566 0.0063,-4.673672 1.832696,-5.253361 1.298482,-0.412122 0.806274,-3.382427 -0.770613,-4.650379 l -1.36,-1.093557 -10.56,0.07205 c -5.808,0.03963 -12.216,-0.03237 -14.2400005,-0.16 l -3.679999,-0.232052 -0.191938,-1.44 -0.191938,-1.44 -0.04806,1.673904 c -0.05716,1.99088 -0.106759,1.967532 4.431937,2.086447 l 3.0400005,0.07965 -0.02733,1.44 c -0.01503,0.792 -0.05103,3.185582 -0.08,5.319072 l -0.05267,3.879071 -5.5199995,0.154816 c -3.416031,0.09581 -5.67471698,0.03362 -5.92591698,-0.163164 -0.758927,-0.594516 -0.521054,-32.4593243 0.245373,-32.8695033 1.11780198,-0.59823 10.54677448,-0.408519 10.78681948,0.217031 0.315646,0.822559 0.291497,8.184905 -0.02901,8.844827 -0.272695,0.561477 1.06536,0.5785223 37.680059,0.48 l 37.962803,-0.102149 -6e-5,6.1006333 -6e-5,6.100634 -7.57313,0.0836 c -7.56045,0.08346 -7.57492,0.08497 -8.64,0.897347 -1.45147,1.107091 -1.59645,3.896037 -0.24844,4.779287 1.62817,1.066819 2.43342,3.578782 1.7356,5.414189 -0.26358,0.693264 -0.24013,0.82442 0.12251,0.685262 4.3843,-1.682413 10.58491,-3.139388 11.0011,-2.584959 2.01794,2.688182 2.35093,4.497736 1.09542,5.952868 -4.85753,5.629891 -5.43998,8.401778 -3.24428,15.439721 1.68329,5.39548 1.99146,5.09399 -5.13346,5.02213 -3.62076,-0.0365 -5.40818,0.0543 -5.27603,0.26815 0.11671,0.18883 1.82272,0.32513 4.10029,0.32758 6.37035,0.007 7.63171,0.24951 8.28384,1.59356 2.39931,4.94495 1.60137,17.87714 -1.43148,23.2 l -0.72932,1.28 -6.07131,0.24683 c -10.85213,0.4412 -11.78614,0.69402 -3.22579,0.87317 9.33617,0.19538 9.08307,0.0494 6.61208,3.81318 -3.25677,4.96066 -9.04367,9.30682 -12.39203,9.30682 -0.91729,0 -1.7568,0.144 -1.86557,0.32 -0.11261,0.1822 0.16297,0.32 0.64,0.32 1.31221,0 0.76722,0.39639 -2.61673,1.903248 -1.7288,0.76983 -4.42765,2.24053 -5.99745,3.26822 -3.468,2.27037 -3.14506,2.27635 -7.06583,-0.13078 z m 0.665543,-4.679358 c -0.23571,-0.3814 -1.988521,-0.70615 -2.582042,-0.4784 -0.993657,0.3813 -0.430119,0.75707 1.135385,0.75707 0.890387,0 1.541387,-0.1254 1.446657,-0.27867 z m 27.57446,-17.86192 c -0.308,-0.0805 -0.812,-0.0805 -1.12,0 -0.308,0.0805 -0.056,0.14635 0.56,0.14635 0.616,0 0.868,-0.0659 0.56,-0.14635 z m -13.44,-2.60131 3.92,-0.0581 v -5.28792 -5.28792 l -0.82083,-0.31208 c -0.45146,-0.17165 -1.20026,-0.31208 -1.664,-0.31208 -1.23435,0 -0.4817,-0.54609 1.04483,-0.75808 0.704,-0.0978 2.612,-0.18319 4.24,-0.18984 3.666,-0.015 3.71793,0.27847 -0.88,-4.97208 -2.112,-2.41177 -3.85787,-4.62241 -3.87971,-4.91252 -0.11209,-1.48914 0.14646,-4.07187 0.42504,-4.24583 1.41793,-0.885415 0.0338,-1.402818 -3.98926,-1.491213 -4.27552,-0.09394 -5.11965,0.265103 -3.59607,1.529563 0.55347,0.45934 0.63233,1.99744 0.14874,2.90103 -0.31413,0.58696 -0.75065,0.61897 -8.44113,0.61897 h -8.109869 l -1.420253,1.68 c -1.73262,2.04949 -6.33749,8.14178 -6.33749,8.38456 0,0.0965 0.864,0.17544 1.92,0.17544 1.774628,0 1.920804,0.0545 1.930629,0.72 0.0058,0.396 0.04185,3.168 0.08,6.16 l 0.06937,5.44 2.16,0.0946 2.16,0.0946 v -3.64687 c 0,-5.03018 0.727019,-6.70848 2.652087,-6.12225 1.702951,0.51859 1.827912,0.89068 1.827912,5.44281 0,3.07787 0.108327,4.27984 0.394309,4.37517 0.368514,0.12284 7.089435,0.11452 16.165695,-0.02 z M 34.949362,57.768372 c 0,-0.0692 -0.216,-0.12576 -0.48,-0.12576 -0.264,0 -0.48,0.13948 -0.48,0.30995 0,0.17048 0.216,0.22707 0.48,0.12577 0.264,-0.10131 0.48,-0.24079 0.48,-0.30996 z m 18.324402,-12.83102 c -0.39358,-0.07596 -1.11358,-0.07792 -1.6,-0.0044 -0.48642,0.07355 -0.1644,0.135699 0.7156,0.138101 0.88,0.0024 1.27798,-0.05778 0.8844,-0.133733 z m 15.4356,-1.345278 2.24,-0.2586 -2.08,-0.105465 c -1.144,-0.058 -2.584,-0.144492 -3.2,-0.192192 -2.57428,-0.199343 -8.56494,-0.142421 -10.83716,0.102972 l -2.44284,0.263821 3.2,0.16 c 5.66315,0.283157 10.82214,0.294743 13.12,0.02946 z M 46.403271,33.119307 c 6.700643,-1.550884 7.033103,-1.578917 9.408523,-0.793325 4.85026,1.604064 9.88153,2.04924 9.06432,0.802028 -0.92112,-1.405818 -0.50616,-3.5635 0.9229,-4.798831 1.58617,-1.371131 1.6483,-3.377165 0.1572,-5.075434 L 64.963064,22.12261 H 52.979114 40.995167 l -1.102893,0.88 c -1.613157,1.28714 -1.61253,3.480229 0.0014,4.976315 1.762213,1.633518 2.222782,3.55084 1.287448,5.359576 -0.608539,1.176785 -0.853711,1.187076 5.222127,-0.219194 z m -7.284709,-0.287783 c 0.902612,-1.087581 0.363628,-3.095699 -0.659411,-2.4568 -0.915425,0.571692 -1.520603,0.475088 -1.940654,-0.309785 -0.360826,-0.67421 -0.388106,-0.677533 -0.811258,-0.09884 -1.398439,1.912478 1.90165,4.684468 3.411323,2.865423 z m 30.777322,0.09109 c 0.73861,-0.58061 0.9254,-1.571238 0.45661,-2.421653 -0.36432,-0.660907 -0.45416,-0.687037 -0.82516,-0.24 -0.54153,0.652499 -1.25887,0.636236 -2.01231,-0.04562 -0.52169,-0.472119 -0.64532,-0.483105 -0.9003,-0.08 -1.13905,1.800802 1.58854,4.117829 3.28116,2.787276 z m -62.8505215,-3.184 c 1.165945,-1.165946 0.323985,-1.811656 -0.956902,-0.73386 -1.335012,1.123339 -1.913053,0.61653 -0.617297,-0.541228 1.031941,-0.922039 1.081948,-1.540912 0.12451,-1.540912 -0.674249,0 -1.686311,0.926892 -1.686311,1.544399 0,1.304236 2.208038,2.199562 3.136,1.271601 z M 30.949362,16.341926 c -3.17979,-0.392853 -17.463437,-0.719716 -20.477918,-0.468612 -5.8550415,0.487723 -1.6400385,0.797382 10.237918,0.752139 7.032119,-0.02679 11.350334,-0.146349 10.24,-0.283527 z m 48.578882,-2.535794 c 1.15697,-0.0022 1.78421,-0.124354 1.66112,-0.323522 -0.26279,-0.425191 -12.96,-0.435459 -12.96,-0.01048 0,0.308804 6.16558,0.634104 8.32,0.438968 0.616,-0.05579 1.9565,-0.103029 2.97888,-0.104966 z m -12.82927,-0.381908 c -0.40053,-0.400532 -40.749093,-0.793033 -42.869612,-0.417025 -3.58805,0.636229 0.635406,0.795411 21.104,0.795411 17.040602,0 22.056792,-0.0872 21.765612,-0.378386 z M 7.3513845,5.2426107 c 0.07769,-0.23665 -0.149531,-0.4 -0.556393,-0.4 -0.378237,0 -0.97857,-0.155667 -1.334074,-0.345927 -0.835965,-0.447395 -1.056995,-0.203755 -0.596221,0.657209 0.408235,0.762794 2.243906,0.828286 2.486688,0.08872 z m 0.397977,-0.939376 c 0,-0.370918 -1.369704,-1.700624 -1.75178,-1.700624 -1.142641,0 -1.107718,0.820118 0.05686,1.335192 1.378294,0.609599 1.694924,0.677866 1.694924,0.365432 z M 88.016024,16.52261 c -0.0293,-3.08 -0.0653,-5.852 -0.08,-6.16 -0.0342,-0.7192903 3.26511,-1.0212403 3.69815,-0.338447 0.5686,0.896533 0.31825,4.386133 -0.34436,4.799936 -0.61272,0.382653 -0.61272,0.391687 0,0.820857 0.53316,0.373437 0.61955,0.82779 0.61955,3.258478 0,3.156635 -0.04,3.205339 -2.64,3.214807 l -1.2,0.0044 z"
     id="path1" />
</svg>
