<?xml version="1.0" encoding="UTF-8" standalone="no"?>
<!-- Created with Inkscape (http://www.inkscape.org/) -->

<svg
   version="1.1"
   id="svg1"
   width="130.70636"
   height="80.156914"
   viewBox="0 0 130.70636 80.156916"
   sodipodi:docname="Icon_grandmother.svg"
   inkscape:version="1.4.2 (ebf0e940d0, 2025-05-08)"
   xmlns:inkscape="http://www.inkscape.org/namespaces/inkscape"
   xmlns:sodipodi="http://sodipodi.sourceforge.net/DTD/sodipodi-0.dtd"
   xmlns="http://www.w3.org/2000/svg"
   xmlns:svg="http://www.w3.org/2000/svg">
  <defs
     id="defs1" />
  <sodipodi:namedview
     id="namedview1"
     pagecolor="#505050"
     bordercolor="#eeeeee"
     borderopacity="1"
     inkscape:showpageshadow="0"
     inkscape:pageopacity="0"
     inkscape:pagecheckerboard="0"
     inkscape:deskcolor="#505050"
     showgrid="false"
     inkscape:zoom="4.2301186"
     inkscape:cx="66.782998"
     inkscape:cy="43.024799"
     inkscape:window-width="1838"
     inkscape:window-height="1011"
     inkscape:window-x="40"
     inkscape:window-y="47"
     inkscape:window-maximized="1"
     inkscape:current-layer="svg1" />
  <path
     style="fill:#0161aa"
     d="m 93.057481,80.039749 c -0.264,-0.0434 -1.776,-0.2531 -3.36,-0.46608 -11.22008,-1.50861 -17.19967,-8.5824 -18.384482,-21.74865 -0.675022,-7.50118 -1.296189,-9.17518 -4.250323,-11.454273 -5.241852,-4.044059 -13.556615,-2.453189 -14.975466,2.865263 -2.166234,8.11997 -3.992442,11.28495 -7.989731,13.84691 -4.135779,2.65072 -4.948517,2.85739 -10.405038,2.64594 -12.247468,-0.47461 -17.674822,-4.33661 -21.118384,-15.02744 L 11.22637,46.517412 7.9019247,45.761237 c -1.828445,-0.415896 -4.030828,-0.912418 -4.894185,-1.103381 -2.60539403,-0.576281 -3.53068703,-2.056555 -2.72686203,-4.362407 0.247513,-0.710016 0.243989,-1.170816 -0.01262,-1.650297 -0.401703,-0.750587 -0.02322,-1.322712 9.53320303,-14.410767 C 23.328576,5.7082514 25.355147,4.0240534 37.37748,1.3171164 c 8.313509,-1.871862 9.92,-1.789309 9.92,0.509762 0,2.284285 -6.760428,4.579179 -14.494509,4.920305 -4.746737,0.209364 -7.306113,2.218623 -11.257549,8.8378336 -5.056432,8.470232 -9.347113,14.991605 -10.861335,16.508059 -0.542633,0.543433 -1.2746063,1.435665 -1.6266063,1.982738 -0.352,0.547073 -1.244347,1.847275 -1.982994,2.889339 l -1.342993,1.894662 3.262993,0.505199 3.2629943,0.5052 1.851549,-2.047174 c 9.265591,-10.244549 25.57394,-8.456467 33.380765,3.659938 1.426756,2.214364 1.463327,2.233921 2.067246,1.105489 2.50167,-4.674413 10.293349,-6.475878 17.664132,-4.084011 2.617516,0.849402 6.626258,5.030894 8.168538,8.52056 0.81575,1.845743 0.55647,1.851073 3.08579,-0.06336 11.51233,-8.713653 29.044189,-1.888047 33.443589,13.020443 0.54376,1.8427 0.82857,2.34907 1.39107,2.47327 0.38902,0.0859 2.59787,0.5912 4.90854,1.12291 2.31067,0.53171 4.27389,0.96674 4.36272,0.96674 0.18816,0 0.44978,-2.35384 0.90697,-8.16 0.37458,-4.75712 0.36737,-4.68805 1.06378,-10.196583 0.28623,-2.264121 0.50782,-4.568121 0.49241,-5.12 -0.032,-1.144385 0.12671,-2.273123 0.46934,-3.338773 0.14227,-0.442493 0.0829,-0.920406 -0.14919,-1.2 -0.21209,-0.255555 -0.24508,-0.464644 -0.0733,-0.464644 0.36533,0 1.04606,-6.20681 1.04606,-9.537829 0,-2.627182 -0.94886,-4.07853 -3.73324,-5.710286 -0.76272,-0.446984 -1.38676,-0.946251 -1.38676,-1.109482 0,-0.163231 -1.188,-1.070108 -2.64,-2.015281 -6.19744,-4.034196 -8.41657,-8.3392626 -4.93682,-9.5773336 0.85528,-0.304304 1.5861,0.186452 5.65682,3.7986546 10.01153,8.883857 10.72043,10.084325 10.71895,18.151557 -10e-4,6.188912 -0.005,6.15173 0.46823,4.64 0.24336,-0.777635 0.27929,-0.152142 0.14242,2.479409 -0.10067,1.935676 -0.32103,3.685672 -0.48968,3.888881 -0.16865,0.20321 -0.18037,0.419476 -0.026,0.480591 0.42464,0.16816 -0.18253,17.237839 -0.74076,20.825369 -0.6373,4.09566 -0.85188,4.57946 -2.37592,5.35697 -0.84091,0.429 -1.51379,1.09881 -1.93679,1.92796 -0.88172,1.72831 -1.31978,1.76895 -7.04041,0.65318 -6.5754,-1.28248 -6.04281,-1.36832 -7.78723,1.25505 -3.46118,5.20512 -11.850389,9.34156 -17.172769,8.46732 z m -0.8,-3.38446 c -5.1504,-0.57543 -8.08201,-1.68835 -11.51731,-4.3723 -1.782,-1.39225 -1.8658,-1.42549 -1.18741,-0.47089 2.40219,3.38023 6.62796,5.18388 12.06472,5.14946 l 3.2,-0.0203 z m 5.25378,-1.27181 c 11.071299,-1.90044 13.909679,-14.13192 5.053619,-21.77768 -15.255619,-13.170743 -35.351506,0.56614 -23.217739,15.87087 3.71488,4.6857 11.16465,7.1083 18.16412,5.90681 z m -8.145,-1.52194 c -2.14444,-0.77246 -3.03679,-1.26095 -3.95242,-2.16366 -0.83667,-0.82487 -1.6362,-1.04383 -0.99636,-0.27286 1.08774,1.31065 -0.57757,0.28586 -2.43703,-1.49968 -3.93743,-3.78092 -5.10209,-8.13067 -3.43417,-12.82586 0.87087,-2.45152 0.91747,-2.46628 1.56284,-0.49519 0.58331,1.78154 1.97335,4.74073 2.22689,4.74073 0.18224,0 -0.5032,-1.64638 -0.85931,-2.064 -0.14257,-0.1672 -0.25922,-0.64467 -0.25922,-1.06104 0,-0.41637 -0.14907,-1.03557 -0.33126,-1.376 -0.22954,-0.4289 -0.2283,-0.61896 0.004,-0.61896 0.18442,0 0.69664,0.81706 1.13828,1.81569 1.94615,4.40059 7.81849,9.45305 11.87055,10.21322 0.7676,0.14401 1.06389,0.34733 0.94763,0.6503 -0.22163,0.57756 3.29164,0.5675 7.330769,-0.021 3.67139,-0.5349 3.81529,-0.34869 1.43412,1.85585 -3.842979,3.55793 -9.558509,4.81071 -14.245339,3.12244 z m 33.322489,-7.08841 c 1.34623,-0.51184 0.68591,-0.79218 -4.47339,-1.89922 -4.29588,-0.92177 -4.81055,-0.97337 -5.25681,-0.52711 -0.6205,0.6205 -0.76052,0.56674 4.57893,1.75794 2.288,0.51044 4.18662,0.94432 4.21916,0.96417 0.0325,0.0199 0.452,-0.11324 0.93211,-0.29578 z m 5.06879,-5.10811 c 0.56013,-3.498 1.29506,-36.26775 0.83144,-37.072661 -0.21212,-0.368266 -0.24666,-0.163071 -0.11453,0.68023 0.17718,1.130743 -0.20802,8.53751 -1.35178,25.992431 -0.73673,11.24322 -0.39543,16.83424 0.63487,10.4 z m -89.201055,0.59044 c 0.959835,-0.35912 1.670569,-0.72753 1.579409,-0.81869 -0.09116,-0.0912 -0.641096,0.003 -1.22208,0.20893 -5.380593,1.90846 -12.899406,0.54165 -17.879788,-3.2503 -2.316729,-1.76391 -2.475273,-1.7225 -0.643681,0.16811 4.379702,4.52081 11.877888,6.04468 18.16614,3.69195 z m 72.568735,-0.23184 c 1.07695,-3.39314 -6.49349,-13.47735 -11.765339,-15.672021 -5.67885,-2.364111 -15.47893,-2.849126 -14.15091,-0.700342 0.0856,0.13846 -0.49825,0.501449 -1.29739,0.806644 -1.95004,0.744727 -1.55815,1.012684 0.4874,0.333262 9.8922,-3.285662 21.753779,3.482137 25.648019,14.633857 0.46351,1.32733 0.78949,1.50831 1.07822,0.5986 z m -71.999211,-1.34623 c 15.595465,-5.87798 2.880705,-28.037555 -14.031561,-24.454526 -1.211668,0.256704 -2.327668,0.389705 -2.48,0.295559 -0.152333,-0.09415 -0.276968,-0.03615 -0.276968,0.128887 0,0.165034 -0.436559,0.480891 -0.970131,0.701904 -10.63587,4.405521 -5.016252,21.735746 7.76383,23.942706 2.329895,0.40235 8.265062,0.0374 9.99483,-0.61453 z m -6.901318,-0.42469 c -0.106033,-0.10996 -0.826033,-0.25452 -1.6,-0.32125 -0.773966,-0.0667 -1.623211,-0.18763 -1.887211,-0.26869 -2.413502,-0.741 -3.279719,-1.13296 -4.844824,-2.19226 -5.133291,-3.47435 -7.650388,-9.796037 -5.702953,-14.322971 1.475356,-3.42956 3.36753,-3.919191 3.565035,-0.922511 0.161343,2.447998 1.428888,5.359985 3.064409,7.040002 0.64252,0.66 1.023795,1.2 0.847276,1.2 -0.176519,0 -0.491343,-0.1704 -0.69961,-0.37867 -0.208267,-0.20827 -0.489067,-0.26494 -0.624,-0.12595 -0.309112,0.31842 2.852097,3.1871 4.235511,3.84357 2.187996,1.03827 7.78002,1.86311 11.119155,1.64011 3.684525,-0.24607 3.7867,-0.1138 1.6,2.07116 -1.902207,1.90069 -8.081728,3.76519 -9.072788,2.73746 z m 17.498179,-6.43121 c 1.027803,-2.87566 1.317513,-4.00604 0.926515,-3.61505 -0.141972,0.14198 -2.475037,6.07065 -3.186969,8.09858 -0.123575,0.352 0.08819,0.17629 0.470582,-0.39047 0.382395,-0.56676 1.187837,-2.40864 1.789872,-4.09306 z m 24.826171,-4.46185 c 1.77178,-3.88864 -6.843453,-10.772443 -13.491562,-10.780123 -3.234906,-0.0037 -4.658207,0.490325 -2.390406,0.829768 2.104196,0.314954 2.341874,0.506697 1.234322,0.99577 -0.86039,0.37993 -0.764633,0.40977 1.392651,0.433973 4.501262,0.0505 7.516801,1.890552 10.480984,6.395391 2.085671,3.169711 2.243141,3.290351 2.774011,2.125221 z M 47.802711,44.558412 C 48.30355,42.56291 41.981263,36.146777 37.509019,34.111925 c -4.22261,-1.92127 -10.86707,-2.415222 -14.611539,-1.086228 -2.550563,0.90525 -1.799365,1.133673 3.04,0.924395 8.535608,-0.369122 15.849779,3.150379 20.079999,9.662283 1.260215,1.939946 1.503429,2.068831 1.785232,0.946037 z M 11.027055,41.331216 c 0.350547,-0.913509 -7.6460803,-2.126837 -8.4854233,-1.287494 -0.393615,0.393615 -0.308324,0.482525 0.630318,0.657066 6.8338953,1.270767 7.5862153,1.331146 7.8551053,0.630428 z M 130.07923,36.471107 c -0.0811,-0.31135 -0.15285,-0.13409 -0.15937,0.39391 -0.007,0.528 0.0599,0.78274 0.14752,0.56609 0.0876,-0.21665 0.093,-0.64865 0.0119,-0.96 z M 119.45748,13.505279 c -3.20901,-2.985024 -4.89035,-4.1979176 -5.27962,-3.8086456 -0.24353,0.243526 7.08681,6.1422916 7.67962,6.1798306 0.088,0.0056 -0.992,-1.061461 -2.4,-2.371185 z M 46.257479,2.3761604 c 2.22318,-1.720225 -4.642733,-1.933321 -8.56,-0.265674 -0.603828,0.25706 -0.04873,0.293313 2.263715,0.147842 2.400876,-0.151035 3.263515,-0.08805 3.987219,0.291141 0.911612,0.477642 1.527537,0.431413 2.309066,-0.173309 z"
     id="path1" />
</svg>
