<?xml version="1.0" encoding="UTF-8" standalone="no"?>
<!-- Created with Inkscape (http://www.inkscape.org/) -->

<svg
   version="1.1"
   id="svg1"
   width="104.0976"
   height="110.44808"
   viewBox="0 0 104.0976 110.44808"
   sodipodi:docname="Icon_fool.svg"
   inkscape:version="1.4.2 (ebf0e940d0, 2025-05-08)"
   xmlns:inkscape="http://www.inkscape.org/namespaces/inkscape"
   xmlns:sodipodi="http://sodipodi.sourceforge.net/DTD/sodipodi-0.dtd"
   xmlns="http://www.w3.org/2000/svg"
   xmlns:svg="http://www.w3.org/2000/svg">
  <defs
     id="defs1" />
  <sodipodi:namedview
     id="namedview1"
     pagecolor="#505050"
     bordercolor="#eeeeee"
     borderopacity="1"
     inkscape:showpageshadow="0"
     inkscape:pageopacity="0"
     inkscape:pagecheckerboard="0"
     inkscape:deskcolor="#505050"
     showgrid="false"
     inkscape:zoom="4.2301186"
     inkscape:cx="49.762199"
     inkscape:cy="53.426399"
     inkscape:window-width="1838"
     inkscape:window-height="1011"
     inkscape:window-x="40"
     inkscape:window-y="47"
     inkscape:window-maximized="1"
     inkscape:current-layer="svg1" />
  <path
     style="fill:#0065ac"
     d="m 49.022517,110.29346 c -7.147719,-0.80613 -15.672104,-5.57647 -21.093569,-11.804192 -3.685064,-4.23309 -6.303036,-6.03899 -9.592743,-6.61717 -2.501318,-0.43962 -2.758291,-0.81249 -2.632376,-3.81962 l 0.111279,-2.65757 -2.89142,-2.99455 C -1.2958493,67.673648 -3.4999783,53.028065 4.9263987,29.261451 7.0267667,23.33736 7.0021197,23.67967 5.5031447,21.251138 2.0771987,15.700666 5.9824257,8.5919845 12.642337,8.2556735 24.084589,7.6778665 25.170072,23.959759 13.7665,25.117773 c -2.399887,0.243705 -2.501023,0.409351 -3.424003,5.608027 -1.8095113,10.192059 1.250095,22.095166 6.260111,24.354369 1.678731,0.757002 1.674494,0.767363 0.914088,-2.235752 C 12.781059,34.141696 28.434829,17.334119 44.533118,23.83667 l 2.478011,1.000938 1.343448,-0.700245 C 54.744402,20.8068 62.19106,28.068122 59.5402,35.0446 56.33849,43.470823 44.718918,41.55347 43.894615,32.462912 l -0.169495,-1.869224 -1.155006,0.198234 c -7.943392,1.363332 -7.944486,12.352909 -0.0018,18.399137 1.348125,1.02624 2.98443,2.592383 3.636234,3.480319 1.412246,1.923862 1.355948,1.914215 2.747818,0.470873 0.606526,-0.628954 3.649416,-2.866525 6.761974,-4.97238 7.32735,-4.957433 8.56225,-6.271281 9.83868,-10.467693 3.25215,-10.691753 2.36156,-20.399839 -2.37563,-25.896371 -1.41225,-1.638612 -1.52702,-1.654987 -2.02118,-0.288388 -2.55548,7.067035 -11.8987,7.565403 -15.56107,0.830029 -3.271543,-6.0166145 2.271912,-13.6359915 8.848529,-12.16214048 2.347461,0.526077 2.997601,0.86540798 4.819821,2.51561598 1.28157,1.160596 2.08284,1.623252 3.09028,1.784349 2.86156,0.457582 6.34183,2.880825 9.70139,6.7548835 14.80679,17.074365 16.3232,43.00989 3.41369,58.385032 -2.4579,2.92733 -2.07857,3.59293 2.55285,4.47942 10.82473,2.07193 18.45624,-3.02281 18.20535,-12.15377 l -0.0919,-3.345033 -1.76,-0.56622 C 88.55808,56.168141 85.95669,52.77377 86.52048,47.79057 c 0.74068,-6.546742 6.88791,-9.720432 12.97463,-6.698539 4.48527,2.226811 5.70397,7.212305 3.10227,12.690757 l -1.19651,2.519514 1.11249,3.231756 c 6.25136,18.16002 -6.71572,38.81208 -26.28493,41.862762 -2.21902,0.34593 -2.36102,0.4225 -3.73507,2.01406 -3.85145,4.46111 -15.26506,7.80804 -23.470801,6.88258 z m 11.273203,-2.07015 c 3.91511,-0.9235 7.1599,-2.83461 8.63493,-5.08579 0.78081,-1.19167 0.97447,-1.14633 -5.45658,-1.27766 -6.23362,-0.1273 -7.63094,-0.38354 -14.201837,-2.604282 -1.838581,-0.62137 -3.485522,-1.12977 -3.659869,-1.12977 -0.501155,0 1.388419,1.876492 3.395313,3.371802 1.348081,1.00444 1.700714,1.41602 1.333828,1.55681 -1.47532,0.56613 -5.832555,-0.24408 -8.452527,-1.57172 -2.168308,-1.09876 -2.00184,-0.57604 0.550018,1.7271 5.125428,4.62589 11.688345,6.46851 17.856724,5.01351 z M 40.44842,92.765808 c -3.129404,-7.45222 -2.79112,-12.60927 1.285688,-19.6 3.021602,-5.18131 4.440727,-8.12009 3.993194,-8.26927 -0.221552,-0.0739 -0.922431,-0.6034 -1.557508,-1.17678 -1.713596,-1.54711 -9.982648,-3.78999 -16.514686,-4.4794 -7.821361,-0.825493 -10.586252,-1.718225 -13.424653,-4.334572 -2.672017,-2.462978 -3.68787,0.770491 -1.606516,5.113552 1.576832,3.29029 1.585599,3.29064 -3.1507133,-0.12394 -1.64799,-1.188091 -3.259296,-1.764927 -4.938117,-1.767808 -1.272842,-0.0022 -1.292382,-0.319075 -0.136048,-2.206393 1.305725,-2.131147 1.653703,-3.362046 1.674489,-5.923143 0.021,-2.586999 0.426887,-5.083468 0.707614,-4.352248 0.101354,0.264 0.431195,1.272 0.73298,2.24 1.17363,3.764512 2.151982,4.93688 3.9548813,4.739172 l 0.904345,-0.09917 -0.938178,-2.343287 C 8.4104577,42.627648 8.1085207,31.846945 10.726839,24.890714 c 1.202353,-3.194358 0.0081,-4.875623 -1.8743123,-2.638554 -1.736664,2.063908 -5.799751,15.420355 -7.153164,23.514351 -2.910469,17.405867 5.873225,34.212047 21.1557453,40.478117 2.112,0.86595 5.568,2.32762 7.68,3.24815 3.720633,1.62168 9.315612,3.7845 9.874236,3.81705 0.15083,0.009 0.168414,-0.23602 0.03908,-0.54402 z m -6.371843,-18.65907 c -2.12656,-1.34863 -3.153577,-1.70712 -8.618983,-3.0086 -5.066699,-1.20653 -6.830782,-2.10284 -8.442486,-4.28955 -0.965383,-1.3098 -0.919628,-1.39248 0.48,-0.86746 3.673327,1.37791 5.798522,0.42734 6.489861,-2.90282 l 0.357458,-1.72187 1.302899,1.11523 c 1.802633,1.54299 3.06167,1.89153 5.973581,1.6537 10.167451,-0.83045 10.771035,-0.70777 6.766897,1.37541 -4.111204,2.13889 -4.908959,5.75019 -2.002512,9.06503 0.836249,0.95375 -0.534752,0.70467 -2.306715,-0.41907 z m 49.381163,11.59729 c 1.13015,-1.76118 4.411,-5.09586 6.22225,-6.32434 1.43746,-0.97495 1.3982,-1.20997 -0.12608,-0.75487 -1.78576,0.53317 -4.52466,0.38805 -6.66664,-0.35322 l -1.98824,-0.68807 -1.55928,1.6263 c -1.13128,1.1799 -1.96077,1.73368 -3.02196,2.01751 -1.72274,0.46076 -1.90872,0.89847 -0.38176,0.89847 2.44796,0 5.41701,1.90454 5.9994,3.84841 0.46617,1.55591 0.33564,1.57908 1.52231,-0.27019 z m -15.24682,-6.37909 c -3.751,-3.29717 -3.95458,-5.69619 -0.68441,-8.06509 1.5315,-1.10942 1.16659,-1.28097 -2.7514,-1.29347 -3.69115,-0.0118 -6.41089,-0.83923 -8.96,-2.72599 -0.528,-0.3908 -1.349945,-0.80268 -1.82654,-0.91528 l -0.866538,-0.20474 0.783412,1.68272 c 1.432226,3.07632 0.908833,5.08847 -1.92378,7.3959 l -1.825224,1.48682 h 2.442824 c 3.209266,0 6.181056,0.63981 11.058386,2.38083 2.1986,0.78481 4.42946,1.4338 4.95746,1.44218 l 0.96,0.0153 z m 4.98696,-11.33793 C 88.04181,59.494168 85.3222,24.490823 68.63334,9.2381515 c -5.16758,-4.72288 -9.99384,-4.153379 -5.31587,0.627276 5.40807,5.5267775 7.47113,16.7094335 4.63911,25.1458805 -2.01546,6.003958 -3.54646,8.166198 -8.78147,12.402167 -8.61031,6.96712 -11.426634,10.67721 -9.040002,11.908863 0.786906,0.40609 1.313997,0.96234 1.531151,1.61585 0.465292,1.40028 0.354087,1.35301 4.342011,1.84554 5.63138,0.69551 8.65348,1.86275 12.74463,4.92242 2.09075,1.56363 2.19177,1.57001 4.44498,0.28086 z m -20.742773,-7.77509 c 0,-0.10835 0.99684,-1.1801 2.215199,-2.381653 C 57.2653,55.271058 57.9105,53.787108 57.30576,51.768679 57.1019,51.08826 56.93511,50.444864 56.93511,50.33891 c 0,-0.105954 0.756,-0.17348 1.68,-0.150058 3.58869,0.09097 6.77359,-1.119128 9.86713,-3.749005 2.83536,-2.41039 3.05746,-2.313797 1.85312,0.805959 -0.97711,2.531136 -1.18311,7.059833 -0.44516,9.786056 0.6888,2.544626 0.72676,2.505166 -1.78737,1.858251 -2.98218,-0.767352 -10.46341,-0.101006 -15.087723,1.343845 -0.308,0.0962 -0.56,0.0863 -0.56,-0.022 z M 72.93511,38.168861 c 0,-3.014438 -0.51484,-4.347927 -2.31858,-6.005432 -1.4427,-1.325744 -1.34689,-1.861531 0.33491,-1.872723 1.07034,-0.0071 1.76852,-1.858788 1.59667,-4.234605 -0.18063,-2.497102 0.19307,-2.371495 2.307,0.775431 1.51214,2.251066 1.95152,2.682541 3.12,3.063826 1.64465,0.536668 1.67668,0.756335 0.26698,1.831559 -1.50345,1.14674 -3.19474,3.728802 -4.17992,6.381418 -1.08874,2.93142 -1.12706,2.933478 -1.12706,0.06053 z M 50.59172,63.034568 c 1.621348,-1.4673 0.315585,-3.30876 -2.346208,-3.30876 -2.627916,0 -3.748576,1.16438 -2.809485,2.91908 0.700483,1.30887 3.874887,1.5488 5.155693,0.38968 z M 40.408915,55.645806 C 39.53717,53.689692 39.480836,52.118729 40.245354,51.084662 l 0.66354,-0.897486 -2.517448,-1.014785 c -2.960026,-1.193188 -4.786687,-2.646748 -5.6041,-4.459446 -0.777665,-1.724554 -1.132238,-1.65103 -1.132238,0.23478 0,2.602732 -0.824865,4.739366 -2.419562,6.267355 -1.833908,1.757193 -1.900821,1.675705 1.539562,1.874912 3.530591,0.20443 5.852763,0.920661 8.237051,2.540566 0.969622,0.65877 1.800881,1.201697 1.847243,1.206505 0.04636,0.0048 -0.156357,-0.531258 -0.450487,-1.191257 z m 58.103835,0.09156 c 4.18614,-2.164737 5.44614,-10.284172 2.01479,-12.983274 -4.22445,-3.322948 -9.51088,0.579383 -6.4406,4.754312 1.81711,2.470887 0.94374,5.177399 -1.67072,5.177399 -2.69612,0 -4.21077,-4.193205 -1.95142,-5.402374 0.38457,-0.205813 0.74853,-0.989133 1.01268,-2.179456 0.2268,-1.021994 0.62216,-2.267552 0.87859,-2.767908 0.56732,-1.106989 0.43813,-1.283346 -0.63985,-0.873496 -4.41238,1.677581 -6.00948,8.781599 -2.72867,12.137288 2.45349,2.509491 6.88346,3.503602 9.5252,2.137509 z M 55.54929,38.625983 c 3.06329,-1.390846 2.57238,-4.565436 -0.546794,-3.536015 -2.336275,0.77104 -3.85448,-1.926162 -2.081934,-3.698707 1.252298,-1.252299 3.112728,-0.912186 3.502368,0.640284 0.72132,2.873961 2.86087,1.901427 2.70281,-1.228565 -0.22877,-4.53036 -4.705884,-7.341931 -8.590632,-5.394811 -1.186421,0.59466 -1.216282,0.739272 -0.59129,2.863546 0.495339,1.683597 -0.09373,2.499365 -2.08836,2.892046 l -1.32035,0.259937 -0.08223,1.911054 c -0.204943,4.763246 4.382337,7.431592 9.096402,5.291231 z M 30.382136,36.925806 c 0.01089,-1.115534 1.102104,-3.259144 2.031059,-3.98986 l 0.83849,-0.659556 -1.175527,-0.22053 C 31.37716,31.924727 30.467589,31.402287 29.832379,30.767077 l -1.068252,-1.068252 -0.522031,1.009494 c -0.287116,0.555222 -0.936635,1.396795 -1.443376,1.870161 l -0.921346,0.860667 0.96384,0.569354 c 0.530112,0.313145 1.434102,1.259365 2.008867,2.102711 1.156899,1.697505 1.521544,1.891387 1.532055,0.814594 z M 16.912883,22.7773 c 3.333004,-1.723564 4.640176,-7.606518 2.398758,-10.795666 -3.313821,-4.7149925 -12.0386783,-3.5280115 -9.3804403,1.27617 0.9085073,1.641925 0.8444713,2.351817 -0.305429,3.385929 -1.582393,1.423058 -3.436884,-0.343302 -2.296936,-2.187778 0.75162,-1.216146 0.625516,-2.824892 -0.196702,-2.509378 -3.037489,1.165594 -2.105711,8.946916 0.939493,7.845756 2.8331433,-1.024478 4.1164193,-0.302563 5.1434433,2.893473 0.228878,0.712253 2.393812,0.765819 3.697813,0.09149 z M 56.61703,15.08481 c 4.0253,-2.081561 4.57156,-9.6317575 0.92283,-12.7549335 -3.622827,-3.10100798 -9.182587,-1.65682798 -11.226881,2.916246 -1.462397,3.271376 -0.920941,7.4368025 0.582226,4.479062 0.783514,-1.541701 2.040994,-2.669659 3.973963,-3.56464 0.623732,-0.288794 1.393658,-0.964544 1.710944,-1.501668 1.029683,-1.743114 3.010638,-1.769457 4.356918,-0.05794 1.66716,2.119444 -0.78994,4.575725 -3.256655,3.255578 -2.444682,-1.308355 -6.934582,3.0590315 -5.770774,5.6133115 1.069342,2.346949 5.649305,3.196404 8.707429,1.614984 z"
     id="path1" />
</svg>
