<?xml version="1.0" encoding="UTF-8" standalone="no"?>
<!-- Created with Inkscape (http://www.inkscape.org/) -->

<svg
   version="1.1"
   id="svg1"
   width="117.67199"
   height="71.290047"
   viewBox="0 0 117.67199 71.290049"
   sodipodi:docname="Icon_godfather.svg"
   inkscape:version="1.4.2 (ebf0e940d0, 2025-05-08)"
   xmlns:inkscape="http://www.inkscape.org/namespaces/inkscape"
   xmlns:sodipodi="http://sodipodi.sourceforge.net/DTD/sodipodi-0.dtd"
   xmlns="http://www.w3.org/2000/svg"
   xmlns:svg="http://www.w3.org/2000/svg">
  <defs
     id="defs1" />
  <sodipodi:namedview
     id="namedview1"
     pagecolor="#505050"
     bordercolor="#eeeeee"
     borderopacity="1"
     inkscape:showpageshadow="0"
     inkscape:pageopacity="0"
     inkscape:pagecheckerboard="0"
     inkscape:deskcolor="#505050"
     showgrid="false"
     inkscape:zoom="4.2301186"
     inkscape:cx="59.454598"
     inkscape:cy="39.715199"
     inkscape:window-width="1838"
     inkscape:window-height="1011"
     inkscape:window-x="40"
     inkscape:window-y="47"
     inkscape:window-maximized="1"
     inkscape:current-layer="svg1" />
  <path
     style="fill:#680a0c"
     d="m 36.223257,125.84 c -0.356205,-0.308 -0.732833,-0.85556 -0.836952,-1.21679 -0.36615,-1.27033 -0.09278,-1.43017 7.786188,-4.55265 0.292336,-0.11585 0.369356,-0.0448 0.217604,0.20074 -0.129189,0.20903 0.691609,0.0313 1.823996,-0.39491 2.614599,-0.98413 4.17826,-1.79071 3.937766,-2.0312 -0.103188,-0.10319 1.25143,-0.83164 3.010262,-1.61879 l 3.197878,-1.43117 v -1.28466 c 0,-1.01071 -0.255776,-1.5968 -1.199439,-2.74842 -1.322142,-1.61349 -1.423961,-2.41462 -0.798433,-6.28215 0.545419,-3.37223 0.733038,-3.9741 1.184799,-3.80074 0.274217,0.10523 0.616447,-0.34092 0.968362,-1.262393 0.558275,-1.461822 2.857976,-4.03027 3.25399,-3.634257 0.121565,0.121565 1.331672,-0.859791 2.689126,-2.180792 1.357454,-1.321001 2.719638,-2.40182 3.027076,-2.40182 0.307437,0 1.039356,-0.296891 1.626487,-0.659758 1.037212,-0.641032 4.802312,-2.220242 5.293428,-2.220242 0.134224,0 -0.112555,0.384777 -0.548399,0.85506 -0.435844,0.470283 -0.873164,1.176677 -0.971822,1.569765 -0.09866,0.393088 -0.478865,0.793022 -0.844902,0.888743 -0.527681,0.137992 -0.588835,0.266441 -0.295264,0.620173 0.401976,0.484351 -0.24482,2.898432 -1.15376,4.306259 -0.300158,0.464905 -0.338441,0.719999 -0.108053,0.719999 0.541917,0 0.42855,2.316867 -0.182068,3.720923 -0.296379,0.68149 -0.511653,1.39475 -0.478386,1.58502 0.03327,0.19027 -0.978241,1.34227 -2.247795,2.56 -1.269555,1.21773 -2.314281,2.42748 -2.321614,2.68834 -0.0073,0.26086 -0.715655,0.93437 -1.574049,1.49669 -2.516576,1.64858 -5.283269,4.90903 -4.165614,4.90903 1.414724,0 25.095372,-13.14284 32.526329,-18.052223 0.484,-0.319762 0.88,-0.508326 0.88,-0.419031 0,0.0893 -1.764,1.425191 -3.92,2.968658 -5.652038,4.046256 -5.659937,4.127186 -0.08,0.819513 3.138321,-1.860331 3.025725,-1.788297 7.98878,-5.110815 C 98.698546,91.239591 105.6,86.198418 105.6,85.906237 c 0,-0.09766 -0.972,0.346001 -2.16,0.985912 -1.36814,0.736938 -1.86672,0.910634 -1.36,0.473797 5.33103,-4.595857 9.07047,-8.887841 11.72687,-13.459641 0.81006,-1.39415 1.58895,-2.463054 1.73087,-2.375343 0.14192,0.08771 0.34848,0.01313 0.45903,-0.165744 0.11055,-0.178871 0.0516,-0.32522 -0.13103,-0.32522 -0.2207,0 -0.20981,-0.268219 0.0325,-0.8 0.20048,-0.44 0.49389,-0.8 0.65203,-0.8 0.15813,0 0.20113,-0.139771 0.0956,-0.310602 -0.10558,-0.170831 0.0343,-0.748132 0.31082,-1.28289 0.37065,-0.716751 0.41614,-1.134204 0.17308,-1.58836 -0.39905,-0.745633 -0.41436,-0.978148 -0.0644,-0.978148 0.14591,0 0.58828,0.689588 0.98304,1.532418 l 0.71775,1.532417 2.35491,-2.317019 c 3.14944,-3.098762 7.42935,-5.206315 15.17206,-7.471166 3.06519,-0.89661 6.80919,-2.107307 8.32,-2.69044 l 2.74694,-1.060241 0.16,1.637016 0.16,1.637016 1.17177,-0.09033 c 1.0776,-0.08307 1.20046,-0.0034 1.52863,0.990963 0.19628,0.59471 0.78595,1.757899 1.3104,2.584864 l 0.95354,1.503572 -1.01412,0.426404 c -0.98895,0.415822 -0.99703,0.435551 -0.32548,0.794951 0.63171,0.338081 1.65526,1.881506 1.65526,2.495989 0,0.142008 -0.65898,0.205787 -1.46439,0.14173 -3.45035,-0.274418 -6.29406,1.925249 -9.80582,7.585009 -4.11003,6.623957 -6.06397,7.886145 -12.2089,7.886578 -3.73008,2.63e-4 -3.77078,0.008 -2.24,0.426066 7.05542,1.926861 7.79402,2.778248 1.71182,1.973238 -5.0139,-0.663616 -7.51468,0.999869 -5.60401,3.727726 0.25779,0.368042 0.37779,0.760082 0.26667,0.871202 -0.53202,0.532013 -1.43166,0.0763 -2.28601,-1.157964 -3.61171,-5.217811 -8.4757,-4.83935 -16.04936,1.248783 -7.328154,5.890774 -14.331776,10.83399 -21.6821,15.30341 -4.096958,2.49118 -4.121193,2.52171 -1.515263,1.90878 2.815763,-0.66228 9.574339,-0.19927 7.623786,0.52228 -1.683056,0.62261 -1.171028,1.02251 1.010127,0.78893 2.388903,-0.25583 4.836779,0.46244 4.506778,1.32241 -0.09331,0.24316 0.05317,0.42541 0.34192,0.42541 1.110149,0 4.29596,1.98886 3.917079,2.44539 -0.269284,0.32446 -0.264813,0.43461 0.01764,0.43461 0.625203,0 3.916923,3.28707 3.530733,3.52574 -0.21344,0.13191 0.0804,0.59131 0.75949,1.1876 l 1.10757,0.97246 -1.56888,0.20812 c -1.0836,0.14374 -1.56888,0.35563 -1.56888,0.68502 0,1.08961 -3.11225,1.44234 -5.449691,0.61764 -1.65369,-0.58346 -1.907938,-0.41085 -1.203294,0.81692 0.664794,1.15834 0.701176,1.14004 -2.787021,1.40212 -2.238807,0.16821 -3.197425,0.10395 -4.305754,-0.28863 -1.791768,-0.63465 -2.339663,-0.45874 -2.058638,0.66095 0.204276,0.8139 0.175171,0.83435 -0.87214,0.61272 C 80.647,122.10181 77.208729,117.15039 77.139074,111.6 l -0.01908,-1.52 H 75.85009 c -0.978747,0 -2.941358,0.83549 -8.56,3.64403 -18.384194,9.18954 -29.45704,13.50791 -31.066833,12.11597 z m 56.404433,-8.5477 c -0.764029,-2.25039 1.509068,-2.23084 6.077896,0.0523 l 2.254414,1.12656 -0.93987,-0.99557 C 99.263181,116.67376 99.189007,116.48 99.639014,116.48 c 0.307315,0 0.469756,-0.144 0.360983,-0.32 -0.108774,-0.176 -0.549272,-0.32 -0.978885,-0.32 -0.865008,0 -0.986365,-0.29667 -0.381115,-0.93166 0.329195,-0.34537 -0.208784,-0.39432 -3.039212,-0.27655 -4.120161,0.17145 -4.062373,0.20903 -2.466407,-1.60408 1.631298,-1.85325 1.520822,-1.90376 -1.159713,-0.53022 l -2.214667,1.13482 -2.032546,-0.47537 c -2.028144,-0.47434 -2.732936,-0.81961 -2.127454,-1.04221 1.157091,-0.4254 3.147262,-2.08303 2.262188,-1.8842 -0.515797,0.11587 -2.027796,0.33581 -3.36,0.48875 -4.182836,0.4802 -4.153674,0.43549 -2.016955,3.09255 1.009122,1.25487 2.221688,2.76456 2.694592,3.35487 l 0.859825,1.0733 -0.335656,-1.28 c -0.184611,-0.704 -0.620944,-1.84056 -0.96963,-2.52568 -0.434373,-0.85348 -0.498653,-1.18555 -0.204169,-1.05472 0.236393,0.10502 1.653805,0.68984 3.149805,1.2996 2.31553,0.9438 2.908883,1.34795 3.990213,2.71785 1.508063,1.91051 1.636892,1.89642 0.957479,-0.10475 z m -26.90913,-6.41971 c 0.152593,-0.39765 0.07051,-0.42504 -0.445763,-0.14874 -0.741781,0.39699 -0.812096,0.63615 -0.187035,0.63615 0.24517,0 0.529929,-0.21933 0.632798,-0.48741 z m 4.430538,-1.78432 c 0.753995,-0.38272 1.972845,-1.10815 2.708556,-1.61206 0.735711,-0.50392 1.527711,-0.91756 1.76,-0.91922 1.167538,-0.008 6.429188,-3.85682 5.940765,-4.34524 -0.09896,-0.099 -2.677086,1.27917 -5.729172,3.0625 -7.198447,4.20604 -10.081977,6.55593 -4.680149,3.81402 z M 57.397831,108.08 c 0.867005,-1.94271 1.504947,-2.57238 3.13657,-3.09591 1.35734,-0.43553 2.292277,-1.30409 1.403742,-1.30409 -0.29712,0 -0.818752,0.14906 -1.159182,0.33126 -1.720329,0.92069 1.044065,-2.72704 3.467801,-4.57591 l 1.159712,-0.884648 -1.023238,0.204648 c -0.562781,0.112556 -1.023238,0.111786 -1.023238,-0.0017 0,-0.418317 1.549875,-2.618028 2.391096,-3.39364 0.477219,-0.44 1.019624,-1.088 1.205345,-1.44 0.3475,-0.658621 -3.103465,2.41785 -3.858336,3.439634 -0.232042,0.31409 -0.556042,0.488165 -0.72,0.386834 -0.163957,-0.101332 -0.300338,0.07626 -0.303067,0.394646 -0.01669,1.947006 -2.871836,5.688016 -3.440453,4.507906 -0.332967,-0.69104 -0.352398,-0.67417 -0.372927,0.32373 -0.01191,0.57901 -0.320917,1.63934 -0.686679,2.35629 -0.583495,1.14375 -1.357383,4.43096 -1.043153,4.43096 0.06394,0 0.453638,-0.756 0.866007,-1.68 z M 122.72,82.920237 c 0.41805,-0.249889 -2.12121,-0.633838 -4.16,-0.629015 -1.49294,0.0035 -1.53576,0.02508 -0.64,0.321973 2.53132,0.838996 3.77677,0.918663 4.8,0.307042 z m 11.52,-2.280239 c 0.2518,-0.40742 -0.48957,-0.40742 -1.12,0 -0.39024,0.252187 -0.34888,0.311116 0.22111,0.3151 0.38561,0.0027 0.79011,-0.1391 0.89889,-0.3151 z m -11.33481,-3.403292 c 0.27786,-0.240189 0.62427,-0.436708 0.7698,-0.436708 0.9736,0 4.30712,-4.010714 4.322,-5.2 0.008,-0.606482 -0.96623,-0.154605 -1.13751,0.527834 -0.24745,0.985912 -1.93659,2.326521 -4.85948,3.856805 -2.22774,1.16633 -2.54549,1.443211 -2.13143,1.857272 0.30481,0.304803 2.48703,-0.130117 3.03662,-0.605203 z m 10.62508,0.09053 c 3.25118,-1.366372 4.62978,-4.269348 5.21866,-10.989109 0.61579,-7.026747 0.6136,-7.029929 -4.147,-6.021321 -5.03734,1.067238 -15.13856,6.563191 -12.06275,6.563191 0.40634,0 0.019,1.081643 -1.30509,3.643984 -0.53544,1.036191 -1.17611,2.458183 -1.42372,3.159982 l -0.4502,1.275999 1.03992,-0.202266 c 1.77309,-0.344874 4.83305,-2.023818 6.75709,-3.707505 2.62605,-2.297993 2.98602,-2.044057 1.44176,1.017058 -0.81006,1.605743 -0.7655,1.76635 0.44098,1.589277 l 1.03992,-0.152629 -1.57363,1.841954 -1.57363,1.841953 1.33371,-0.680407 c 0.73354,-0.374224 1.33924,-0.569481 1.346,-0.433904 0.007,0.135577 0.66429,-0.473496 1.46118,-1.353496 1.51613,-1.674273 1.3787,-0.808649 -0.23648,1.489399 -0.80497,1.145302 -0.7512,1.405246 0.16633,0.80406 0.8255,-0.540888 1.21491,-0.417559 0.94039,0.297826 -0.21659,0.56443 0.26987,0.569321 1.58656,0.01595 z m 5.93223,-1.76113 c 0.60326,-0.908553 0.10968,-0.868966 -1.19842,0.09612 l -1.06025,0.78223 0.90155,-0.09612 c 0.49586,-0.05287 1.10656,-0.40487 1.35712,-0.78223 z m -22.17984,-2.185008 c 0.054,-0.671605 0.20235,-1.761101 0.32964,-2.421101 0.15378,-0.797332 0.11379,-1.2 -0.11917,-1.2 -0.45247,0 -1.01313,1.050878 -1.01313,1.898963 0,0.36357 -0.162,0.625037 -0.36,0.581037 -0.198,-0.044 -0.43268,0.120044 -0.52152,0.364543 -0.10786,0.296885 -0.0259,0.360749 0.24667,0.192271 0.30774,-0.190189 0.35687,-0.04782 0.19967,0.578523 -0.15255,0.607816 -0.0584,0.914784 0.35066,1.143728 0.71512,0.400199 0.76905,0.331031 0.88718,-1.137964 z m 10.55734,1.1789 c 0.10877,-0.176 0.0453,-0.32 -0.14112,-0.32 -0.18638,0 -0.33888,0.144 -0.33888,0.32 0,0.176 0.0635,0.32 0.14111,0.32 0.0776,0 0.23011,-0.144 0.33889,-0.32 z m 12.78637,-2.369531 c 1.3587,-1.358698 2.94384,-3.926925 2.62224,-4.248524 -0.14662,-0.14662 -3.90944,4.246831 -4.46451,5.212749 -0.53389,0.92905 0.47928,0.398767 1.84227,-0.964225 z m 3.19985,-6.303836 c 1.3409,-2.460453 2.19141,-7.326633 1.28054,-7.326633 -1.0008,0 -3.6298,1.445356 -3.78337,2.08 -0.66698,2.756251 -0.48655,6.224205 0.23724,4.56 0.0957,-0.22 0.096,-0.01957 6.6e-4,0.445401 -0.0953,0.464971 -0.5216,1.533376 -0.9473,2.374233 -1.93821,3.828453 1.04174,1.849692 3.21223,-2.133001 z m 2.77172,-0.696692 c -0.47827,-0.478269 -1.31794,-0.01484 -1.31794,0.727393 0,0.631224 0.0325,0.636105 0.81643,0.122474 0.53551,-0.350879 0.70807,-0.643305 0.50151,-0.849867 z m 3.95017,-2.770703 c 0.10223,-0.165419 -0.10473,-0.777419 -0.45992,-1.36 -0.35519,-0.582581 -0.65092,-1.347238 -0.65717,-1.699238 -0.0112,-0.632444 -0.0169,-0.632642 -0.4827,-0.01679 -0.49763,0.657998 -0.38604,1.454167 0.37237,2.656786 0.48154,0.763573 0.92169,0.913912 1.22742,0.419238 z M 148.16,59.229525 c 0,-0.19224 -0.288,-0.06153 -0.64,0.290473 -0.352,0.352 -0.64,0.87542 -0.64,1.163155 0,0.387382 0.16609,0.311996 0.64,-0.290473 0.352,-0.447496 0.64,-0.970915 0.64,-1.163155 z"
     id="path1"
     transform="translate(-35.288079,-54.805967)" />
</svg>
