<?xml version="1.0" encoding="UTF-8" standalone="no"?>
<!-- Created with Inkscape (http://www.inkscape.org/) -->

<svg
   version="1.1"
   id="svg1"
   width="161.31503"
   height="43.570602"
   viewBox="0 0 161.31504 43.570604"
   sodipodi:docname="Icon_goon.svg"
   inkscape:version="1.4.2 (ebf0e940d0, 2025-05-08)"
   xmlns:inkscape="http://www.inkscape.org/namespaces/inkscape"
   xmlns:sodipodi="http://sodipodi.sourceforge.net/DTD/sodipodi-0.dtd"
   xmlns="http://www.w3.org/2000/svg"
   xmlns:svg="http://www.w3.org/2000/svg">
  <defs
     id="defs1" />
  <sodipodi:namedview
     id="namedview1"
     pagecolor="#505050"
     bordercolor="#eeeeee"
     borderopacity="1"
     inkscape:showpageshadow="0"
     inkscape:pageopacity="0"
     inkscape:pagecheckerboard="0"
     inkscape:deskcolor="#505050"
     showgrid="false"
     inkscape:zoom="4.2301186"
     inkscape:cx="80.730598"
     inkscape:cy="19.1484"
     inkscape:window-width="1838"
     inkscape:window-height="1011"
     inkscape:window-x="40"
     inkscape:window-y="47"
     inkscape:window-maximized="1"
     inkscape:current-layer="svg1" />
  <path
     style="fill:#0162ab"
     d="m 58.879998,118.87916 c 0,-0.0884 0.579324,-0.68421 1.287387,-1.32391 0.708063,-0.63969 2.035118,-2.11531 2.949012,-3.27916 0.913894,-1.16385 2.006595,-2.44807 2.428224,-2.85382 1.198778,-1.15362 0.753705,-1.07027 -2.344623,0.43911 -1.936527,0.9434 -4.400038,1.77429 -7.519999,2.53635 -4.309098,1.05252 -10.042117,3.1032 -10.429977,3.73077 -0.263967,0.42711 -1.090023,0.31687 -1.090023,-0.14546 0,-0.22933 0.444457,-1.02133 0.987683,-1.76 0.543226,-0.73867 0.867226,-1.34032 0.72,-1.33698 -12.14659,0.2749 -18.161032,-0.40124 -15.511605,-1.74381 2.323054,-1.17718 2.253245,-1.33749 -0.838461,-1.92551 -4.213698,-0.80141 -8.185974,-0.9566 -10.730743,-0.41923 -2.582337,0.54531 -3.056714,0.21119 -1.520733,-1.07111 1.277929,-1.06686 4.553776,-2.8464 5.239767,-2.8464 1.174507,0 0.74482,-0.68603 -0.973683,-1.55456 -11.5525685,-5.838657 -9.562108,-23.165379 3.039357,-26.457244 4.739941,-1.238209 10.839525,3.549304 9.799824,7.691802 -0.264562,1.054098 -1.411406,1.111954 -1.411406,0.0712 0,-2.83282 -4.629208,-4.532861 -5.857721,-2.151202 -1.827201,3.542305 0.513211,7.022121 5.625578,8.36433 6.283425,1.649659 12.378152,-0.350185 24.392143,-8.00372 15.070335,-9.600586 30.910491,-12.274847 36.449984,-6.153776 0.832169,0.919537 1.3455,0.850068 2.877057,-0.389348 6.82525,-5.523351 20.34746,-3.10687 35.80572,6.398646 14.71158,9.046369 20.61046,10.574798 27.46698,7.11683 3.14959,-1.588441 4.24529,-5.668845 2.18792,-8.14783 -1.19845,-1.44404 -5.90124,1.128405 -5.23533,2.863744 0.24962,0.650505 -0.68522,1.031583 -1.29307,0.527107 -2.00468,-1.663731 2.58212,-7.657973 6.40661,-8.372465 13.74985,-2.568751 18.91525,20.499149 5.99134,26.756486 -2.32549,1.12592 -2.4136,1.29441 -0.8321,1.5911 1.55365,0.29147 3.30381,1.20085 4.61377,2.39731 1.35252,1.23534 0.97587,1.70428 -0.99888,1.24363 -1.87132,-0.43652 -7.37638,-0.11707 -10.88,0.63136 l -2.72,0.58103 1.42925,0.73961 c 0.78608,0.40679 2.071,0.9008 2.85536,1.09779 2.7021,0.67863 2.07881,1.2787 -1.12156,1.07978 -1.56368,-0.0972 -5.9801,-0.0833 -9.81427,0.0308 l -6.97122,0.20755 0.95821,1.12 c 2.00642,2.34519 1.49908,2.58435 -2.02673,0.95542 -1.67439,-0.77357 -4.81955,-1.78993 -7.90634,-2.55493 -3.73117,-0.9247 -5.90364,-1.66321 -7.98429,-2.7142 -1.57213,-0.79411 -2.85841,-1.3714 -2.85841,-1.28286 0,0.0885 1.368,1.83361 3.04,3.87792 2.90509,3.55198 3.37523,4.27865 2.76822,4.27865 -0.94729,0 -14.08883,-6.74974 -16.61484,-8.53369 -0.92629,-0.65418 -0.88994,-0.55538 1.39014,3.77841 2.52089,4.79146 2.3122,5.00957 -2.31956,2.42425 -8.24271,-4.60082 -16.423962,-15.16045 -16.423962,-21.198564 0,-3.337512 0.234749,-3.159449 2.939662,2.229803 1.407446,2.804191 6.5574,8.389391 7.17039,7.776401 0.69717,-0.69717 -3.29372,-7.303671 -6.55171,-10.845676 -2.259084,-2.456021 -2.229142,-2.384562 -1.090384,-2.60225 1.555917,-0.297432 4.940694,2.687301 9.944474,8.769146 2.42531,2.94784 3.38391,3.79377 7.0314,6.20498 5.49874,3.63498 -1.28543,-8.878071 -7.60827,-14.033082 -3.73025,-3.041267 -3.90465,-3.683372 -0.58539,-2.155222 3.4475,1.587192 8.07084,5.754209 10.74795,9.687154 3.57044,5.24532 7.93409,8.53944 12.06141,9.10515 l 1.52571,0.20912 -2.41991,-3.00797 c -1.33095,-1.65438 -2.87866,-3.87196 -3.43935,-4.92796 -1.53683,-2.894461 -3.8933,-5.94837 -5.54302,-7.18358 -2.16119,-1.618165 -1.68142,-2.209864 0.9129,-1.125887 1.65531,0.691635 3.14231,2.114359 6.6781,6.389462 4.96631,6.004735 10.55469,9.811095 15.94828,10.862695 l 1.07776,0.21014 -0.83546,-0.73642 c -0.45949,-0.40503 -1.68349,-1.43203 -2.72,-2.28222 -2.44068,-2.00198 -9.08454,-9.077033 -9.08454,-9.674134 0,-0.82331 0.66451,-0.491741 2.66967,1.332082 5.65922,5.147432 13.71497,9.437122 17.62841,9.387142 l 1.62192,-0.0207 -2.4,-1.18216 c -3.19226,-1.57241 -5.62142,-3.41892 -8.41344,-6.39542 -1.26861,-1.352438 -3.13456,-3.292578 -4.14656,-4.311427 -3.51976,-3.543575 -0.96401,-2.564226 6.45524,2.47362 5.62705,3.820897 5.81296,3.910797 9.36098,4.526177 11.09885,1.92503 20.12555,-5.527622 17.19734,-14.198519 -1.02966,-3.048984 -2.91803,-5.746086 -4.53797,-6.481437 -1.86542,-0.846782 -2.32848,-0.82442 -1.69374,0.08179 5.72164,8.168779 -7.80386,15.748191 -21.34981,11.963994 C 139.22501,93.925824 135.71327,92.22969 120.8,84.072313 110.51548,78.446808 100.7623,77.74493 95.819373,82.274605 94.917805,83.100797 94.62785,83.049695 92.94989,81.768878 87.022635,77.244503 77.758873,78.653154 65.108452,86.002458 49.841172,94.872035 40.054597,98.045592 33.569203,96.2299 c -0.951062,-0.266266 -2.242466,-0.572429 -2.869786,-0.680364 -4.80488,-0.826713 -8.981754,-8.808522 -6.356192,-12.146383 0.602473,-0.76592 0.611727,-0.843155 0.101032,-0.843155 -3.652161,0 -7.91792,7.52595 -6.815342,12.0241 2.355552,9.609862 15.231354,12.830912 24.799868,6.204002 5.918197,-4.098794 11.011216,-7.00196 11.011216,-6.27671 0,0.06127 -2.124,2.262762 -4.72,4.892212 -5.017192,5.081838 -6.200133,6.027508 -10,7.994218 l -2.4,1.24218 1.372685,0.099 c 3.552567,0.25626 9.923562,-3.06197 17.018355,-8.863746 2.328404,-1.904055 3.36282,-2.403379 3.152423,-1.521711 -0.189364,0.793531 -6.697871,7.489377 -9.571899,9.847417 -3.229658,2.64982 -3.274752,2.77853 -0.715293,2.04165 5.206999,-1.49911 10.06321,-4.80179 13.763958,-9.36077 4.768084,-5.873849 7.341371,-8.081862 9.41885,-8.081862 0.877507,0 0.83112,0.06881 -1.880677,2.7899 -1.757517,1.763539 -2.977267,3.37711 -4.180381,5.530102 -0.934331,1.672 -2.709396,4.24021 -3.944588,5.70715 -2.592782,3.07922 -2.593059,3.08526 -0.112059,2.43904 4.439954,-1.15646 7.84027,-3.84932 11.592265,-9.18045 3.284442,-4.666782 10.452152,-10.485742 12.916189,-10.485742 0.69641,0 0.172488,0.873628 -1.037607,1.730185 -4.801968,3.399039 -7.513623,6.761503 -10.319768,12.796557 -2.108463,4.53458 -2.071342,4.56881 1.979821,1.82552 2.966614,-2.00888 3.986921,-2.99337 7.827021,-7.552263 3.827323,-4.543727 6.719418,-7.024919 7.802486,-6.693923 0.24102,0.07366 0.646537,0.198457 0.901151,0.277331 0.320793,0.09938 -0.109607,0.728527 -1.40177,2.049083 -3.108202,3.176497 -7.639871,10.455472 -6.943069,11.152272 0.789447,0.78945 5.966364,-5.12729 7.813526,-8.930141 1.961794,-4.038846 2.54124,-4.012843 2.409135,0.108111 -0.167267,5.21781 -9.041433,15.85483 -16.858761,20.20776 -4.375273,2.43628 -4.453045,2.31432 -1.775227,-2.78402 1.070722,-2.03856 1.854834,-3.70647 1.742472,-3.70647 -0.112362,0 -1.168407,0.58839 -2.346767,1.30754 -5.07506,3.0973 -16.062472,8.22189 -16.062472,7.49162 z"
     id="path1"
     transform="translate(-13.896356,-75.378897)" />
</svg>
