<?xml version="1.0" encoding="UTF-8" standalone="no"?>
<!-- Created with Inkscape (http://www.inkscape.org/) -->

<svg
   version="1.1"
   id="svg1"
   width="108.9958"
   height="102.37508"
   viewBox="0 0 108.99581 102.37509"
   sodipodi:docname="Icon_lunatic.svg"
   inkscape:version="1.4.2 (ebf0e940d0, 2025-05-08)"
   xmlns:inkscape="http://www.inkscape.org/namespaces/inkscape"
   xmlns:sodipodi="http://sodipodi.sourceforge.net/DTD/sodipodi-0.dtd"
   xmlns="http://www.w3.org/2000/svg"
   xmlns:svg="http://www.w3.org/2000/svg">
  <defs
     id="defs1" />
  <sodipodi:namedview
     id="namedview1"
     pagecolor="#505050"
     bordercolor="#eeeeee"
     borderopacity="1"
     inkscape:showpageshadow="0"
     inkscape:pageopacity="0"
     inkscape:pagecheckerboard="0"
     inkscape:deskcolor="#505050"
     showgrid="false"
     inkscape:zoom="4.2301186"
     inkscape:cx="54.962999"
     inkscape:cy="51.771599"
     inkscape:window-width="1838"
     inkscape:window-height="1011"
     inkscape:window-x="40"
     inkscape:window-y="47"
     inkscape:window-maximized="1"
     inkscape:current-layer="svg1" />
  <path
     style="fill:#0062aa"
     d="m 46.911065,102.14254 c -0.616,-0.14763 -2.632,-0.2372 -4.48,-0.19905 l -3.36,0.0694 -2.24,-1.31267 c -1.232,-0.721967 -3.248,-1.698337 -4.48,-2.169707 -3.701139,-1.41607 -4.732376,-1.96896 -6.865605,-3.68099 -1.121605,-0.90017 -2.192899,-1.63665 -2.380654,-1.63665 -0.187754,0 -1.064155,-0.27743 -1.947556,-0.6165 -6.74164,-2.58762 -9.65587,-3.63781 -12.0861841,-4.35544 -1.54,-0.45474 -2.8,-0.89955 -2.8,-0.98847 0,-0.71448 0.788719,-1.39959 1.611259,-1.39959 1.169298,0 1.306475,0.56969 -1.108484,-4.60348 -1.571696,-3.36678 -2.109526,-4.89523 -2.278832,-6.47619 -0.272839,-2.54774 -0.06583,-2.83285 0.745606,-1.02693 1.555624,3.46217 7.8999741,9.5571 12.9609031,12.45137 1.270251,0.72644 3.152923,1.82836 4.183716,2.44871 1.030793,0.62035 2.861186,1.3818 4.067542,1.6921 1.206355,0.3103 2.920529,1.01161 3.809276,1.55847 0.888748,0.54685 2.154354,1.12594 2.812459,1.28687 0.658105,0.16093 1.628554,0.44028 2.156554,0.62077 0.528,0.1805 3.336,0.8772 6.24,1.54824 l 5.28,1.22007 h 7.36 c 8.797772,0 9.574882,-0.17078 14.584662,-3.20502 1.86157,-1.12748 4.91558,-2.61274 6.78669,-3.30057 5.1832,-1.90538 9.56267,-5.15407 16.10295,-11.94515 3.55436,-3.69067 4.50509,-6.41837 5.89363,-16.90926 0.12812,-0.968 0.65917,-2.768 1.1801,-4.000003 1.615803,-3.821372 1.604503,-5.509979 -0.0204,-3.054526 -0.47117,0.71199 -0.89102,1.294526 -0.933,1.294526 -0.042,0 0.0348,-1.979999 0.17051,-4.399999 0.2283,-4.06964 0.18776,-4.640262 -0.53999,-7.6 -0.43275,-1.76 -1.0315,-4.208 -1.33055,-5.44 -2.06733,-8.516732 -1.79268,-7.923306 -6.17091,-13.333082 -1.91785,-2.369703 -3.14218,-3.569227 -4.32,-4.232465 -0.90401,-0.509051 -2.81284,-1.612573 -4.24186,-2.452272 -1.42901,-0.839699 -4.88501,-2.35212 -7.68,-3.360935 -2.79498,-1.008815 -6.23379,-2.333843 -7.64179,-2.944506 -2.48442,-1.077515 -2.69893,-1.113111 -7.265449,-1.205638 -2.587996,-0.05244 -4.842617,-0.180118 -5.01027,-0.283733 -0.829056,-0.5123854 -8.437391,0.767429 -10.075824,1.694875 -0.906652,0.513216 -3.06497,1.38312 -4.796262,1.933119 -3.858984,1.225927 -4.802074,1.699409 -8.052197,4.042635 -1.408,1.015119 -3.804831,2.689004 -5.326292,3.719743 -4.398665,2.979951 -9.164475,10.19607 -10.317558,15.622259 -0.831459,3.912688 -1.664963,6.717647 -2.234595,7.52 -0.850205,1.197551 -0.871014,3.842616 -0.05413,6.88 0.307672,1.144 0.749198,3.015999 0.981169,4.159999 0.231971,1.144 0.730498,2.770383 1.107837,3.614193 0.552675,1.23589 0.644468,1.86718 0.472098,3.24678 -0.488514,3.90993 2.6504,7.1565 11.371468,11.76147 2.322474,1.22633 4.297196,2.54055 5.353104,3.56261 l 1.673105,1.61946 0.765856,-0.71948 0.765856,-0.71948 1.881039,0.65034 c 1.034572,0.35769 2.486531,0.86649 3.226575,1.13067 0.740044,0.26417 2.964058,0.57862 4.942254,0.69877 3.033985,0.18427 3.771068,0.33676 4.711072,0.97467 3.463493,2.35039 14.234754,0.92778 19.056394,-2.51687 6.99254,-4.99558 11.78491,-10.01821 11.22929,-11.76883 -0.10773,-0.33943 0.22074,-1.4633 0.76691,-2.62401 1.35378,-2.87702 3.4806,-10.830007 3.70925,-13.870292 0.10589,-1.408 0.33555,-3.473112 0.51035,-4.589138 0.8173,-5.218004 -10.81266,-18.734868 -17.37867,-20.198278 -0.93081,-0.207456 -2.56558,-0.583156 -3.63283,-0.834888 -3.75856,-0.886538 -9.572151,-0.308521 -15.104654,1.501784 -2.080112,0.680638 -5.484944,2.933131 -8.874901,5.871257 -1.056,0.91525 -2.605162,2.127473 -3.442581,2.693826 -2.700733,1.826529 -5.46636,6.302281 -6.942527,11.235437 -0.394988,1.32 -1.063925,3.223661 -1.486526,4.230357 -1.217558,2.900398 -0.782739,5.994181 1.266924,9.014295 0.464591,0.68456 0.84471,1.4172 0.84471,1.62809 0,1.13859 8.39242,7.69606 10.31181,8.0572 0.576505,0.10847 1.963153,0.63187 3.081441,1.16311 2.936162,1.39483 10.995721,1.93104 13.352834,0.88838 0.822398,-0.36379 2.088965,-0.66166 2.814592,-0.66193 4.213588,-0.002 9.872528,-5.99844 11.776328,-12.4795 0.38153,-1.298841 0.52831,-1.450083 1.49733,-1.542838 l 1.07432,-0.102835 -0.67554,-0.719081 c -0.65206,-0.694087 -0.66282,-0.839688 -0.30958,-4.188766 0.27395,-2.597276 0.27425,-3.616538 0.001,-4.053741 -0.20062,-0.321232 -0.36475,-1.001602 -0.36475,-1.511934 0,-2.159566 -3.60802,-6.269944 -6.70285,-7.636112 -0.97743,-0.431475 -2.4163,-1.075009 -3.19747,-1.430075 -3.570741,-1.622996 -5.902404,-1.927276 -8.809789,-1.149669 -1.384155,0.370205 -1.475519,0.350239 -2.385126,-0.521219 l -0.945837,-0.90617 -1.059467,2.198627 c -0.898689,1.864979 -1.411094,2.466104 -3.376575,3.961218 -1.27441,0.969426 -2.701526,2.338593 -3.17137,3.042593 -0.469843,0.704 -1.390981,1.871247 -2.046972,2.593883 -1.312011,1.445302 -1.880079,3.455988 -1.288629,4.561123 0.189244,0.353605 0.350351,1.480386 0.358016,2.503956 0.03108,4.14962 1.172082,6.66114 3.186064,7.01297 0.616,0.10761 1.624,0.51282 2.24,0.90048 3.401599,2.14065 5.229807,2.32531 6.991876,0.70624 1.623996,-1.49221 6.35128,-5.28048 7.247881,-5.808188 0.526348,-0.309786 0.530458,-0.515622 0.06864,-3.43467 -0.270194,-1.707824 -0.41512,-3.3963 -0.322058,-3.752169 0.242495,-0.927303 -0.45983,-1.603625 -1.665282,-1.603625 -0.572322,0 -1.652795,-0.216 -2.40105,-0.48 -3.867575,-1.36456 -6.270681,1.09268 -4.49967,4.601033 l 0.98973,1.960644 1.35497,-0.853004 c 0.745233,-0.469153 1.749199,-1.143301 2.231034,-1.498108 1.212493,-0.892838 1.252157,-0.682484 0.336186,1.782913 -2.348324,6.320664 -8.61657,7.975594 -11.603738,3.063592 -3.398889,-5.589025 -1.415909,-10.974996 5.278552,-14.33707 6.096821,-3.06193 18.135816,1.852687 18.195076,7.427684 0.0886,8.338108 -6.89536,17.412238 -15.362866,19.960588 -5.109027,1.53759 -16.824865,-3.97569 -19.696257,-9.26874 l -1.062841,-1.95953 v -4.800002 c 0,-4.231135 0.08481,-5.008584 0.715645,-6.56 0.393605,-0.968 0.946241,-2.59632 1.228081,-3.618488 0.377019,-1.367361 0.817708,-2.128434 1.667623,-2.88 0.635353,-0.561832 2.242716,-2.127819 3.571919,-3.479971 2.508719,-2.552034 3.189772,-2.966902 8.976732,-5.468234 3.187912,-1.377931 12.822422,-3.753307 15.223382,-3.753307 1.12933,0 2.60943,0.816558 4.29662,2.370411 0.792,0.729408 3.27164,2.598585 5.5103,4.153727 7.15501,4.970381 8.60697,7.587406 8.68352,15.651159 l 0.0462,4.864702 -1.36342,3.520003 c -6.66501,17.20737 -6.32918,16.70771 -12.55658,18.68223 -12.524824,3.97126 -18.651794,3.32888 -36.001973,-3.77457 -0.788142,-0.32268 -7.577274,-5.83593 -9.118029,-7.40447 -4.357129,-4.43573 -4.855167,-17.139178 -0.931041,-23.748083 3.671318,-6.183131 6.068048,-9.201214 10.146789,-12.777341 5.739691,-5.032402 7.921822,-6.482134 12.704252,-8.440258 l 2.24,-0.917149 8.8,-0.115262 c 11.692992,-0.153154 14.340732,0.412609 19.486052,4.163742 13.87281,10.113808 17.96401,28.959452 10.57442,48.709901 -0.49562,1.32467 -1.17122,2.29392 -2.43113,3.48785 -0.95962,0.90938 -3.0688,2.94941 -4.68705,4.53341 -9.0595,8.8677 -26.729346,12.55582 -37.745574,7.87838 -0.746195,-0.31683 -1.84579,-0.67169 -2.443546,-0.78858 -0.597755,-0.1169 -1.76038,-0.62698 -2.583611,-1.13351 -0.823231,-0.50654 -2.116633,-1.02571 -2.874227,-1.1537 -2.319691,-0.39191 -10.069479,-4.15418 -12.70909,-6.16986 -1.320027,-1.008 -3.431943,-2.57889 -4.693146,-3.49085 -8.5939781,-6.21424 -10.9496411,-9.02098 -14.5480561,-17.33378 -1.97628796,-4.565479 -1.50693096,-10.737641 1.138948,-14.97748 0.861717,-1.380842 2.507336,-4.238622 3.656931,-6.350622 1.149595,-2.112 2.415337,-4.416 2.81276,-5.12 0.556553,-0.985885 -0.131755,-0.422738 -2.995546,2.45084 -2.044974,2.051962 -3.718134,3.656748 -3.718134,3.56619 0,-0.905907 1.341138,-4.770404 2.997525,-8.637386 C 9.8983729,17.810395 13.452006,13.476159 20.891304,9.7429436 l 3.209385,-1.610545 1.171143,0.795812 1.171142,0.795812 0.554055,-1.042151 c 0.899465,-1.691847 2.113427,-2.746472 3.620571,-3.14536 0.777417,-0.205754 2.277485,-0.781309 3.333485,-1.279011 1.212432,-0.571429 2.928358,-1.035106 4.6562,-1.258198 1.50491,-0.194307 3.80891,-0.765328 5.12,-1.268935 4.572282,-1.75627301 8.503193,-2.15010301 12.950466,-1.29748001 1.763667,0.338127 4.859666,0.75004201 6.879996,0.91536701 2.02034,0.165324 3.88934,0.374884 4.15334,0.465688 10.15835,3.493997 12.54858,4.769882 22.70741,12.1210234 4.1164,2.978711 9.785243,9.770445 11.282963,13.517905 0.28136,0.704 1.22499,2.936 2.09695,4.96 1.49984,3.481455 3.01629,8.404204 4.58379,14.88 1.56892,6.481631 0.0474,16.407142 -3.63009,23.680002 -2.9233,5.78139 -13.394733,18.17151 -17.672303,20.91042 -0.7088,0.45383 -1.81903,1.23107 -2.46717,1.72719 -0.64815,0.49612 -2.00048,1.18485 -3.00517,1.53051 -1.0047,0.34567 -1.9864,0.76002 -2.18155,0.92078 -0.19516,0.16076 -1.14683,0.57663 -2.11483,0.92416 -0.968,0.34752 -2.912,1.09528 -4.32,1.66168 -1.408,0.56641 -3.46771,1.29632 -4.57713,1.622027 -1.10942,0.32571 -2.47742,0.869 -3.04,1.20732 -1.13848,0.68465 -16.128538,1.22503 -18.462872,0.66558 z"
     id="path1" />
</svg>
