<?xml version="1.0" encoding="UTF-8" standalone="no"?>
<!-- Created with Inkscape (http://www.inkscape.org/) -->

<svg
   version="1.1"
   id="svg1"
   width="116.1358"
   height="72.472008"
   viewBox="0 0 116.1358 72.47201"
   sodipodi:docname="Icon_investigator.svg"
   inkscape:version="1.4.2 (ebf0e940d0, 2025-05-08)"
   xmlns:inkscape="http://www.inkscape.org/namespaces/inkscape"
   xmlns:sodipodi="http://sodipodi.sourceforge.net/DTD/sodipodi-0.dtd"
   xmlns="http://www.w3.org/2000/svg"
   xmlns:svg="http://www.w3.org/2000/svg">
  <defs
     id="defs1" />
  <sodipodi:namedview
     id="namedview1"
     pagecolor="#505050"
     bordercolor="#eeeeee"
     borderopacity="1"
     inkscape:showpageshadow="0"
     inkscape:pageopacity="0"
     inkscape:pagecheckerboard="0"
     inkscape:deskcolor="#505050"
     inkscape:zoom="4.2301186"
     inkscape:cx="60.045598"
     inkscape:cy="38.533199"
     inkscape:window-width="1838"
     inkscape:window-height="1011"
     inkscape:window-x="40"
     inkscape:window-y="47"
     inkscape:window-maximized="1"
     inkscape:current-layer="svg1" />
  <path
     style="fill:#0065ac"
     d="m 138.08,128.24262 c -1.056,-0.16745 -2.784,-0.67331 -3.84,-1.12414 -3.63737,-1.55287 -16.64407,-7.83675 -18.72296,-9.04555 -1.14562,-0.66614 -5.89762,-2.95994 -10.56,-5.09733 -4.66237,-2.13738 -10.637042,-4.89013 -13.277042,-6.11721 -2.64,-1.22709 -5.088,-2.23317 -5.44,-2.23574 -0.352,-0.003 -1.675652,-0.41333 -2.941448,-0.91279 -2.352719,-0.92835 -2.941787,-0.8203 -2.454273,0.45014 0.101307,0.264 0.04421,0.48 -0.126888,0.48 -0.572668,0 -1.997233,-1.32008 -2.010712,-1.86323 -0.01664,-0.67049 -2.226679,1.74212 -2.226679,2.43078 0,0.26259 -0.191883,0.38729 -0.445935,0.2898 -0.480142,-0.18425 -1.794065,1.01924 -1.794065,1.64327 0,0.20866 -0.142997,0.37938 -0.317771,0.37938 -0.174773,0 -1.58937,1.12098 -3.143548,2.49106 -1.975879,1.74184 -3.684901,2.90632 -5.682229,3.87169 -1.571048,0.75935 -3.246211,1.57209 -3.722584,1.8061 -1.453046,0.71377 -6.138567,0.0804 -10.638879,-1.43817 C 48.63123,113.5408 46.429494,112.96 45.842239,112.96 c -5.10429,0 -10.484319,-8.27526 -11.130305,-17.120002 -0.80293,-10.993589 1.652062,-19.306229 7.77958,-26.341774 10.619422,-12.193099 21.778533,-16.366332 30.11447,-11.262071 2.226537,1.363353 2.545485,1.546966 3.94689,2.272155 2.07733,1.074963 6.799209,3.963775 7.303921,4.468488 0.303043,0.303043 0.8154,0.69896 1.138572,0.879816 0.957026,0.535579 1.962795,7.072191 1.683825,10.943386 -0.120489,1.672 -0.232599,4.2712 -0.249133,5.776 -0.01827,1.662821 -0.180683,2.886621 -0.414061,3.12 -0.298667,0.298666 -0.298667,0.469333 0,0.768 0.2112,0.2112 0.384,0.7152 0.384,1.12 0,0.445498 0.192165,0.736 0.48686,0.736 0.267773,0 0.650888,0.36 0.851365,0.8 0.200477,0.44 0.60539,0.8 0.899806,0.8 0.763053,0 1.013779,0.351995 0.603153,0.84677 -0.440918,0.531274 -0.554971,0.48934 4.678816,1.720231 6.473582,1.522467 28.353632,6.884154 36.160002,8.860981 3.872,0.98051 7.544,1.76769 8.16,1.74928 0.616,-0.0184 2.76699,0.48562 4.77998,1.12007 3.48973,1.09989 4.1138,1.46364 5.50368,3.20792 0.28802,0.36145 0.69002,0.71264 0.89333,0.78041 0.94822,0.31608 1.69735,5.03609 1.02572,6.46275 -0.34477,0.73237 -0.71981,1.83559 -0.83342,2.45159 -0.23706,1.28534 -0.35784,1.59854 -1.78003,4.61592 -1.27666,2.70864 -3.95674,5.62408 -5.17005,5.62408 -0.55545,0 -0.87919,0.20888 -0.99193,0.64 -0.1851,0.70779 -0.51363,0.73001 -3.58728,0.24262 z m 3.6,-3.00934 c 1.71235,-0.98241 1.72022,-0.96662 -0.48139,-0.96662 -1.95164,0 -3.04689,-0.41546 -3.99025,-1.51365 -0.57553,-0.66998 -0.57719,-0.66869 -0.36834,0.28699 0.72619,3.32295 1.92447,3.86597 4.83998,2.19328 z M 134.77747,122.64 c -0.73785,-1.30795 -0.85684,-1.88522 -0.8529,-4.13791 0.003,-1.43984 -0.0301,-2.5832 -0.0725,-2.5408 -1.03783,1.03784 -0.58547,5.64318 0.70493,7.17675 1.17654,1.39823 1.22654,1.2853 0.22051,-0.49804 z m 7.04718,-1.97535 c 1.0779,-1.25928 2.67414,-4.11253 2.4347,-4.35197 -0.0694,-0.0694 -0.80061,0.8039 -1.62497,1.9406 -2.29227,3.16074 -3.04659,2.66009 -2.31754,-1.53818 0.90815,-5.22965 3.99466,-8.64972 6.56477,-7.27424 0.98183,0.52546 1.13696,-0.28775 0.22824,-1.19646 -3.07404,-3.07405 -8.43935,5.45873 -7.74249,12.31335 0.23551,2.31661 0.55401,2.33046 2.45729,0.1069 z M 135.51567,114.88 c 0.12914,-0.59679 0.0956,-0.67377 -0.13189,-0.30306 -0.16776,0.27332 -0.38155,1.28132 -0.47509,2.24 l -0.17008,1.74306 0.30197,-1.44 c 0.16608,-0.792 0.37987,-1.8 0.47509,-2.24 z m -2.55082,-1.54181 c -0.17964,-0.17964 -0.80595,2.25303 -0.76768,2.98181 0.0185,0.352 0.22536,-0.14831 0.45974,-1.11181 0.23438,-0.96349 0.37296,-1.80499 0.30794,-1.87 z m -71.540543,1.40071 c 0.318982,-0.38435 0.179037,-0.49276 -0.840818,-0.65135 -0.67292,-0.10464 -2.003507,-0.32915 -2.956861,-0.49891 -2.700181,-0.4808 -2.641253,-0.35347 0.293371,0.6339 3.310391,1.1138 3.041381,1.07416 3.504308,0.51636 z M 131.5151,113.84 c 0.003,-0.132 -0.14146,-0.24 -0.32034,-0.24 -0.30965,0 -7.77703,-2.84681 -24.28459,-9.25809 -8.42043,-3.27036 -9.715028,-3.5609 -3.64166,-0.81728 7.65983,3.46031 11.44566,5.02243 17.05149,7.03584 3.08,1.10623 6.74981,2.52045 8.15515,3.14272 2.43206,1.07689 3.02021,1.10336 3.03995,0.13681 z m -68.315102,-0.56 c -0.108774,-0.176 -0.513272,-0.30988 -0.898885,-0.29751 -0.675957,0.0217 -0.67815,0.0324 -0.06112,0.29751 0.880795,0.37849 1.19392,0.37849 0.96,0 z m 68.918462,-1.18234 c 0.63333,-1.21816 -1.07913,-2.11943 -8.47225,-4.45895 -3.67742,-1.1637 -8.12621,-2.69551 -9.88621,-3.40404 -1.76,-0.70852 -6.584,-2.47666 -10.72,-3.92919 -4.136003,-1.452541 -9.163329,-3.236966 -11.17184,-3.965394 -2.48543,-0.901392 -3.756227,-1.220024 -3.978666,-0.997584 -0.463234,0.463233 -0.5653,0.41225 5.072255,2.533663 5.377579,2.023585 29.176041,11.236555 35.198251,13.626105 1.936,0.76818 3.53649,1.37443 3.55665,1.34721 0.0202,-0.0272 0.20097,-0.36553 0.40181,-0.75182 z M 64.799998,112.32 c -0.108774,-0.176 -0.513272,-0.30565 -0.898885,-0.28811 -0.65267,0.0297 -0.645837,0.0496 0.09888,0.28811 0.44,0.14091 0.844499,0.27056 0.898886,0.2881 0.05439,0.0175 0.0099,-0.1121 -0.09889,-0.2881 z M 46.06857,111.55725 c -0.460055,-0.4347 -2.868571,-1.02409 -2.868571,-0.70197 0,0.32869 1.780392,1.11942 2.548571,1.13191 0.683758,0.0111 0.726291,-0.046 0.32,-0.42994 z M 65.599998,110.72 c 0,-0.176 -0.135501,-0.32 -0.301114,-0.32 -0.165613,0 -0.390112,0.144 -0.498886,0.32 -0.108774,0.176 0.02673,0.32 0.301115,0.32 0.274387,0 0.498885,-0.144 0.498885,-0.32 z m 2.596431,-1.33893 c 1.46508,-0.82342 1.539423,-1.07744 0.399094,-1.36364 -0.657031,-0.16491 -1.045164,-0.0197 -1.748622,0.65428 -1.504084,1.441 -0.702205,1.8625 1.349528,0.70936 z m 70.080531,-0.98093 c 1.3053,-1.42798 1.49684,-1.84014 0.85515,-1.84014 -0.42856,0 -3.13211,2.54345 -3.13211,2.94662 0,0.67701 1.16353,0.11159 2.27696,-1.10648 z m -89.988363,0.58179 c -0.209249,-0.20925 -4.768598,-1.39992 -4.768598,-1.24531 0,0.3452 2.839564,1.37009 3.813333,1.37635 0.601333,0.004 1.031202,-0.0551 0.955265,-0.13104 z m -7.398457,-1.92566 c -0.577577,-0.78304 -1.250509,-1.50634 -1.495403,-1.60732 -0.536862,-0.22137 -0.145384,0.34701 1.371343,1.99105 1.32369,1.43479 1.366876,1.30121 0.12406,-0.38373 z m 11.183192,1.23039 c -0.106333,-0.10633 -0.382333,-0.1177 -0.613333,-0.0253 -0.255275,0.10215 -0.179449,0.17798 0.193333,0.19333 0.337333,0.0139 0.526333,-0.0617 0.42,-0.16807 z m 19.040914,-0.88791 c 0.49756,-0.37785 0.41933,-0.46132 -0.764868,-0.81611 -1.658047,-0.49677 -2.460522,0.19116 -0.983281,0.84292 1.091101,0.4814 1.078668,0.48159 1.748149,-0.0268 z M 143.6,107.29941 c -0.308,-0.0805 -0.812,-0.0805 -1.12,0 -0.308,0.0805 -0.056,0.14635 0.56,0.14635 0.616,0 0.868,-0.0659 0.56,-0.14635 z M 53.279999,106.13696 C 64.599002,99.967763 77.0268,73.978617 73.305552,64.259302 69.024617,53.078171 47.635445,63.482593 42.46801,79.259733 c -4.030371,12.305471 -4.299571,23.542637 -0.610525,25.484957 0.474383,0.24977 1.654514,0.91075 2.622514,1.46885 2.368926,1.36579 6.214993,1.33233 8.8,-0.0766 z m -0.107303,-7.187059 c 6.896187,-7.101663 10.408944,-13.180245 12.550535,-21.71783 1.716441,-6.842699 1.21816,-9.778435 -2.431093,-14.323326 l -1.004675,-1.251254 0.936267,0.190495 c 6.842071,1.392102 9.496982,8.427606 6.681352,17.705551 C 67.049404,88.963447 55.045012,102.72 49.689311,102.72 c -0.0977,0 1.469827,-1.69655 3.483385,-3.770099 z m -9.790885,-0.987723 c -4.023654,-7.780889 0.988252,-21.254014 10.182843,-27.373761 1.706407,-1.135753 2.059762,-1.041028 0.669642,0.179514 -1.399361,1.228656 -5.487598,6.041003 -6.740846,7.934788 -2.78522,4.208751 -4.640637,12.666693 -3.815519,17.393084 0.50705,2.90445 0.444513,3.298602 -0.29612,1.866375 z m 29.719494,7.658472 c 0.667016,-0.73704 -1.717505,-1.67366 -2.694668,-1.05844 -0.795521,0.50086 -0.765661,1.29278 0.05466,1.4495 1.534731,0.29321 2.095998,0.21007 2.640012,-0.39106 z M 142.24,105.6 c -0.10878,-0.176 -0.65728,-0.3178 -1.21889,-0.3151 -0.77698,0.004 -0.90635,0.0791 -0.54111,0.3151 0.63464,0.41014 2.01348,0.41014 1.76,0 z m -4.79963,-0.6406 c 0.29314,-0.47432 -9.87631,-3.51014 -10.30898,-3.07747 -0.31583,0.31584 1.09653,0.84085 4.38861,1.63138 2.024,0.48602 3.968,1.0748 4.32,1.3084 0.7792,0.5171 1.33626,0.56502 1.60037,0.13769 z m -62.964698,-1.18046 c 0.209655,-0.63897 -2.341166,-1.24894 -2.985756,-0.71398 -0.481702,0.39978 -0.445915,0.47692 0.389846,0.84037 1.090229,0.4741 2.420127,0.40935 2.59591,-0.12639 z M 65.119998,103.36 c 0.318556,-0.352 0.507192,-0.64 0.419192,-0.64 -0.088,0 -0.420636,0.288 -0.739192,0.64 -0.318555,0.352 -0.507192,0.64 -0.419192,0.64 0.088,0 0.420637,-0.288 0.739192,-0.64 z m 10.434203,-1.02391 c 0.360193,-0.67303 -1.116693,-2.496093 -2.022115,-2.496093 -0.578892,0 -0.19141,0.678913 0.547912,0.960003 1.161919,0.44176 0.979919,0.70275 -0.32,0.45888 -0.734156,-0.13772 -1.12,-0.0876 -1.12,0.1455 0,0.19559 0.0022,0.46362 0.0048,0.59562 0.0042,0.21033 1.680518,0.9493 2.303946,1.01565 0.125808,0.0134 0.398266,-0.29241 0.605462,-0.67956 z m -8.483799,-0.62563 0.609596,-0.68954 -0.88,0.56634 c -0.907379,0.58396 -1.078972,0.81274 -0.609596,0.81274 0.148722,0 0.544722,-0.31029 0.88,-0.68954 z m 12.968558,-0.4489 c -0.946571,-0.42986 -1.810571,-0.77506 -1.92,-0.7671 -0.408159,0.0297 2.700252,1.55646 3.161038,1.55264 0.264,-0.002 -0.294467,-0.35568 -1.241038,-0.78554 z M 65.789332,99.800238 c 0.46787,-0.634163 0.648372,-1.121005 0.441225,-1.190054 -0.192807,-0.06427 -0.385782,-0.06585 -0.428833,-0.0035 -0.04305,0.06233 -0.538051,0.710056 -1.1,1.439386 -0.561949,0.72932 -1.021726,1.42149 -1.021726,1.53814 0,0.40244 1.319738,-0.71372 2.109334,-1.783952 z M 37.91242,100.56 c -0.130329,-0.484 -0.340243,-2.176003 -0.466476,-3.760002 l -0.229515,-2.88 -0.04821,2.522873 c -0.02652,1.387581 0.118578,3.079581 0.322437,3.759999 0.419442,1.39997 0.786202,1.71052 0.421769,0.35713 z m 60.647577,0.56 c -0.264,-0.17061 -0.624,-0.3102 -0.8,-0.3102 -0.176,0 -0.104,0.13959 0.16,0.3102 0.264,0.17061 0.624,0.3102 0.8,0.3102 0.176,0 0.104,-0.13959 -0.16,-0.3102 z M 76.626332,98.217886 c -0.101257,-0.163839 -0.409238,-0.297889 -0.684402,-0.297889 -0.406781,0 -0.426381,0.08906 -0.104856,0.476477 0.413166,0.497835 1.109879,0.340187 0.789258,-0.178588 z m -8.524013,-2.137888 c 1.6642,-2.874469 2.033178,-3.6 1.830824,-3.6 -0.17474,0 -3.693145,5.345655 -3.693145,5.611145 0,0.673199 0.82235,-0.214868 1.862321,-2.011145 z m 13.325996,-0.32 c 0.208192,-1.725092 0.34368,-1.956694 2.169515,-3.708579 1.516399,-1.454982 1.847265,-1.931999 1.494811,-2.1551 -2.328035,-1.473634 -7.237007,5.65369 -4.98191,7.233222 1.003509,0.702885 1.076648,0.626861 1.317584,-1.369543 z m -4.182553,0.693828 c 0.457127,-1.191255 -0.548316,-1.669035 -1.53387,-0.728886 -0.595963,0.568506 -0.592768,0.586224 0.16,0.88729 1.064453,0.425723 1.153666,0.415437 1.37387,-0.158404 z m 0.85354,-3.46161 c 0.322201,-0.848808 0.809668,-1.790636 1.083258,-2.09295 0.633269,-0.699754 0.643393,-1.33519 0.01745,-1.094992 -0.476885,0.182998 -2.400008,3.859468 -2.400008,4.58814 0,0.854043 0.750697,0.04505 1.299304,-1.400198 z m 6.329228,0.609628 c 0.10792,-0.947305 0.10476,-0.949267 -0.56,-0.347668 -0.817049,0.73942 -0.879813,1.552817 -0.108532,1.406549 0.351306,-0.06662 0.600446,-0.461233 0.668532,-1.058881 z m -7.787468,-2.723567 c 0.369794,-0.59834 -0.380743,-0.319551 -0.991468,0.368284 -0.605363,0.681795 -0.60472,0.684005 0.09258,0.318279 0.386198,-0.202556 0.790696,-0.51151 0.898886,-0.686563 z m 8.478936,-3.55605 c 0,-0.176 -0.144,-0.231003 -0.32,-0.122229 -0.176,0.108774 -0.32,0.341771 -0.32,0.517771 0,0.176 0.144,0.231003 0.32,0.122229 0.176,-0.108774 0.32,-0.341771 0.32,-0.517771 z m -8.14474,-0.02741 c 0.755833,-0.344381 0.782848,-0.409786 0.255057,-0.617509 -0.457628,-0.180108 -0.378129,-0.237386 0.353683,-0.254822 1.306818,-0.03114 0.652406,-0.533038 -1.024,-0.785358 -0.838793,-0.126248 -1.36,-0.08061 -1.36,0.119085 0,0.17808 0.18,0.33515 0.4,0.349045 0.305627,0.0193 0.308349,0.06244 0.01154,0.18282 -0.303441,0.123074 -0.304103,0.292634 -0.003,0.774737 0.456212,0.730512 0.322463,0.707808 1.366745,0.232002 z m 5.538904,-2.779722 c 0.569783,-0.361032 0.432933,-0.42828 -3.283565,-1.613528 -2.021426,-0.644663 -3.280496,-0.899675 -3.476118,-0.704053 -0.404527,0.404527 -0.01723,0.998293 0.664404,1.018608 0.297613,0.0089 1.549115,0.354501 2.781115,0.768068 2.604833,0.874412 2.738297,0.895792 3.314164,0.530905 z m 1.565929,-1.874932 c 0.07322,-0.219907 -0.05885,-0.456294 -0.293483,-0.525305 -0.234635,-0.06901 -1.829068,-0.645086 -3.543184,-1.280168 -3.487847,-1.292252 -3.763426,-1.343706 -3.763426,-0.702671 0,0.267503 0.947049,0.808486 2.32,1.325254 1.276,0.480277 2.752,1.058808 3.28,1.285625 1.131831,0.48621 1.815694,0.451083 2.000093,-0.102735 z m 0.01393,-3.677257 -0.09402,-2.31709 -2.419653,-1.03599 c -3.863866,-1.654341 -4.465944,-1.29792 -4.766384,2.821628 -0.02073,0.284263 6.16165,2.799714 6.960056,2.831868 0.31037,0.0125 0.390481,-0.563407 0.32,-2.300416 z m -40.43451,-8.212354 c 0.192883,-0.310296 0.162935,-0.377477 -0.09673,-0.216994 -0.425046,0.262692 -2.275163,3.385166 -2.279774,3.847612 -0.0017,0.165646 0.469526,-0.482354 1.047062,-1.44 0.577536,-0.957646 1.175785,-1.943424 1.329442,-2.190618 z m 40.180491,-0.133853 c 0,-0.649519 -4.856827,-3.736704 -5.878663,-3.736704 -0.766773,0 0.213987,0.907623 2.758663,2.552945 3.463804,2.239607 3.12,2.109165 3.12,1.183759 z m -4.48,-1.496704 c -0.774239,-0.605618 -1.28,-0.799317 -1.28,-0.49022 0,0.154515 1.635272,1.100155 1.92,1.110293 0.088,0.0031 -0.2,-0.2759 -0.64,-0.620073 z m -2.972672,-3.04 c -0.155913,-1.056 -0.393084,-2.035039 -0.527046,-2.175642 -0.133962,-0.140604 -0.129912,0.435396 0.009,1.28 0.138912,0.844603 0.275505,2.183642 0.30354,2.975642 0.04054,1.145296 0.09672,1.276276 0.274478,0.64 0.122928,-0.44 0.09594,-1.664 -0.05997,-2.72 z m 4.611442,-0.4 c -1.455469,-1.012 -2.923611,-2.037564 -3.262538,-2.279031 -0.525664,-0.374506 -0.616232,-0.371805 -0.616232,0.01838 0,0.413198 5.49675,4.012695 6.222538,4.074773 0.166396,0.01423 -0.888299,-0.802123 -2.343768,-1.814122 z m -9.914221,-6.810646 c -0.415498,-0.346144 -0.991498,-0.623318 -1.28,-0.615941 -0.293203,0.0075 -0.03059,0.283846 0.595451,0.626587 1.431155,0.783525 1.634052,0.780369 0.684549,-0.01065 z m -3.478459,-1.159253 c -0.21665,-0.08766 -0.64865,-0.09299 -0.96,-0.01186 -0.311349,0.08113 -0.13409,0.152852 0.39391,0.159374 0.528,0.0065 0.782741,-0.05986 0.56609,-0.147516 z"
     id="path1"
     transform="translate(-34.564286,-56.103028)" />
</svg>
