<?xml version="1.0" encoding="UTF-8" standalone="no"?>
<!-- Created with Inkscape (http://www.inkscape.org/) -->

<svg
   version="1.1"
   id="svg1"
   width="118.43778"
   height="79.703056"
   viewBox="0 0 118.43779 79.703058"
   sodipodi:docname="Icon_washerwoman.svg"
   inkscape:version="1.4.2 (ebf0e940d0, 2025-05-08)"
   xmlns:inkscape="http://www.inkscape.org/namespaces/inkscape"
   xmlns:sodipodi="http://sodipodi.sourceforge.net/DTD/sodipodi-0.dtd"
   xmlns="http://www.w3.org/2000/svg"
   xmlns:svg="http://www.w3.org/2000/svg">
  <defs
     id="defs1" />
  <sodipodi:namedview
     id="namedview1"
     pagecolor="#505050"
     bordercolor="#eeeeee"
     borderopacity="1"
     inkscape:showpageshadow="0"
     inkscape:pageopacity="0"
     inkscape:pagecheckerboard="0"
     inkscape:deskcolor="#505050"
     inkscape:zoom="3.679109"
     inkscape:cx="72.164212"
     inkscape:cy="45.935035"
     inkscape:window-width="1838"
     inkscape:window-height="1011"
     inkscape:window-x="40"
     inkscape:window-y="47"
     inkscape:window-maximized="1"
     inkscape:current-layer="svg1" />
  <path
     style="fill:#0163ab"
     d="m 13.619839,79.182315 c -0.267437,-0.49971 -0.460915,-0.5881 -0.720055,-0.32896 -1.92708,1.92708 -3.9907481,-0.8158 -3.4651591,-4.60564 0.195267,-1.408 0.266395,-3.49625 0.158062,-4.64056 -0.140119,-1.48007 -0.03921,-2.68072 0.349641,-4.16 0.3257201,-1.23912 0.6487911,-4.21313 0.7994691,-7.35944 0.173169,-3.61595 0.413857,-5.66406 0.763694,-6.49861 0.280957,-0.67024 0.608622,-1.96624 0.728143,-2.88 0.119521,-0.91377 0.69937,-2.57335 1.288553,-3.68797 1.052269,-1.99068 1.071217,-2.09837 1.069841,-6.079999 -0.0022,-6.323906 0.66196,-13.874007 1.202191,-13.666701 1.873365,0.718878 0.07741,-1.937306 -2.032327,-3.005776 C 10.883232,20.810772 6.9060509,17.46778 3.2256429,13.412489 1.6459249,11.671862 0.21693891,10.149607 0.05011791,10.029699 -0.11670309,9.909792 0.14672791,9.62947 0.63551591,9.406762 1.5012439,9.01231 1.5783799,9.061766 3.6183929,11.319225 c 4.606188,5.097166 11.2835841,10.06075 12.5068141,9.29683 0.861929,-0.538284 1.668222,-0.147819 1.668222,0.807873 0,0.769378 3.286548,2.094063 7.04,2.837562 0.44,0.08716 1.939034,0.461713 3.331187,0.832345 1.392154,0.370633 3.08141,0.673878 3.753904,0.673878 1.267603,0 1.322769,-0.07053 1.626832,-2.08 0.269446,-1.780701 1.693332,-0.730789 1.583428,1.167552 l -0.104647,1.807551 2.864259,0.672449 c 3.593172,0.843576 4.10542,0.844421 4.324376,0.0071 0.238123,-0.910584 1.621699,-0.727993 1.758561,0.232078 0.117819,0.826491 4.906746,1.330045 8.445586,0.888051 1.109082,-0.138522 2.719644,-0.217094 3.579026,-0.174604 l 1.562513,0.07725 -0.155522,-1.618549 c -0.164504,-1.712025 0.219455,-2.42726 1.117936,-2.08248 0.310455,0.119132 0.48856,0.599436 0.48856,1.317521 0,1.638681 0.308238,1.78348 2.646318,1.243148 1.131725,-0.261543 3.195448,-0.694153 4.586052,-0.961356 2.929682,-0.562897 2.911632,-0.551226 2.911632,-1.882378 0,-0.874902 0.12385,-1.027516 0.90661,-1.117157 0.81729,-0.09359 0.90066,-0.01477 0.8461,0.8 -0.0931,1.390886 -0.0801,1.398346 1.36729,0.780992 0.748,-0.319049 2.152,-0.758505 3.12,-0.976569 2.99601,-0.674922 2.87589,-0.601159 2.66842,-1.638488 -0.17028,-0.851402 -0.10754,-0.942111 0.65158,-0.942111 0.62461,0 0.84,0.16291 0.84,0.635331 0,0.628158 0.019,0.627659 1.68,-0.04422 0.924,-0.373753 2.76,-1.005479 4.08,-1.403837 3.22044,-0.971884 3.52,-1.107484 3.52,-1.593382 0,-0.237867 0.55097,-0.510722 1.28,-0.633891 1.27959,-0.216186 1.52157,-0.562917 0.9847,-1.410981 -0.15702,-0.24804 -0.21141,-0.64404 -0.12086,-0.88 0.22349,-0.582395 1.36003,-0.54492 1.5462,0.05098 0.0825,0.264 0.21507,0.689839 0.29466,0.946309 0.41084,1.323931 10.12507,-4.253064 9.86121,-5.661381 -0.19597,-1.046006 0.73646,-1.623703 1.32394,-0.820266 0.40729,0.556997 7.87249,-5.086674 11.62608,-8.789286 1.91803,-1.89197803 2.01443,-1.94436203 2.46982,-1.34210003 1.0483,1.38638603 0.0727,2.40234103 -8.86575,9.23243703 -4.13303,3.158153 -4.59125,3.738157 -3.44,4.354287 0.352,0.188385 0.64,0.55651 0.64,0.818056 0,0.261546 0.80148,1.300479 1.78106,2.308741 1.48595,1.529441 1.75308,1.975595 1.61214,2.692537 -0.13886,0.706322 -0.0429,0.877258 0.53893,0.96 1.42664,0.202883 8.98108,18.820666 7.63677,18.820666 -0.14911,0 -0.42736,-0.324 -0.61835,-0.72 -0.32472,-0.673301 -0.34864,-0.678294 -0.3689,-0.07698 -0.0237,0.703135 -1.14356,1.572453 -1.63467,1.26893 -0.16884,-0.10435 -0.30698,-0.03723 -0.30698,0.149159 0,0.186387 -0.27984,0.338885 -0.62186,0.338885 -0.34202,0 -0.83659,0.306585 -1.09905,0.681299 -0.51652,0.737425 -0.77187,0.129163 -1.8309,-4.361298 -0.82677,-3.505654 -3.47344,-7.52 -4.95795,-7.52 -1.29589,0 -2.12327,1.364939 -1.92225,3.171183 0.11043,0.992264 -0.0206,3.641248 -0.29417,5.948817 -0.27574,2.32561 -0.40215,4.900807 -0.28666,5.839997 0.20209,1.64346 -0.35008,2.39081 -0.99521,1.34698 -0.1132,-0.18316 -0.47208,-0.24851 -0.79751,-0.14522 -0.47968,0.15225 -0.61633,-0.0119 -0.72185,-0.86698 l -0.13017,-1.05478 -0.0512,1.2 c -0.062,1.45349 -0.99566,1.74174 -1.03648,0.32 l -0.0253,-0.88 -0.26675,0.8 c -0.14671,0.44 -0.36261,1.22996 -0.47977,1.75547 -0.19826,0.8892 -0.23753,0.91171 -0.56615,0.3245 -0.33393,-0.5967 -0.37381,-0.58037 -0.73381,0.30037 -0.69316,1.69579 -1.23966,-0.0134 -0.6843,-2.14013 0.47502,-1.81905 0.22321,-8.898112 -0.39556,-11.120207 -0.17153,-0.616 -0.44928,-1.985088 -0.61723,-3.042418 -0.45363,-2.855899 -2.23421,-6.480194 -4.31544,-8.783868 -1.39151,-1.540228 -1.86387,-1.541603 -5.33046,-0.01552 -1.32,0.581099 -3.336,1.376113 -4.48,1.766696 l -2.08,0.710153 0.0834,1.540117 c 0.11135,2.056948 1.10083,3.663537 4.49331,7.295648 6.98395,7.477281 8.09214,16.541709 2.02016,16.523919 l -1.79684,-0.005 1.27728,-0.72339 c 2.40759,-1.36355 1.84783,-1.9539 -1.83728,-1.93772 -0.308,10e-4 -0.56,-0.10275 -0.56,-0.23134 0,-0.12859 -0.42856,0.16653 -0.95234,0.65582 -1.11432,1.04093 -2.32444,1.35423 -3.1215,0.80817 -1.37996,-0.94542 -5.84458,-0.36115 -8.17117,1.06934 -0.56925,0.34999 -1.68299,0.88668 -2.47499,1.19264 -0.792,0.30596 -1.71091,0.78595 -2.042016,1.06665 -0.804529,0.68204 -0.553992,-1.97485 0.826956,-8.76964 1.21236,-5.965279 1.0839,-13.02653 -0.22782,-12.523176 -0.445711,0.171036 -0.444823,-1.31243 0.001,-2.034141 0.20237,-0.327441 0.0518,-0.378025 -0.668585,-0.224669 -0.511367,0.108855 -1.937758,0.416832 -3.169757,0.684395 -1.232,0.267563 -2.564,0.488978 -2.96,0.492034 -0.86512,0.0067 -0.932028,0.667875 -0.194011,1.917239 0.568243,0.961959 -0.610817,3.208318 -1.68397,3.208318 -1.057096,0 0.157087,9.95216 1.698266,13.92 1.063664,2.73845 2.301,6.55456 2.801435,8.64 l 0.230368,0.96 -0.826044,-0.77578 c -1.082641,-1.01677 -1.043194,-0.76803 0.260845,1.64476 1.699139,3.14383 3.664089,11.10627 2.644195,10.7149 -0.280824,-0.10776 -0.595699,-0.0582 -0.699722,0.11009 -0.104023,0.16832 -0.467389,0.30603 -0.807479,0.30603 -0.521092,0 -2.38269,1.18498 -4.097686,2.60835 -0.243245,0.20188 -0.525102,0.23519 -0.641647,0.0758 -2.969381,-4.06011 -4.719519,-7.79362 -5.158373,-11.00419 -0.156374,-1.144 -0.441395,-2.584 -0.63338,-3.2 -0.191984,-0.616 -0.32907,-2.9138 -0.304635,-5.10622 l 0.04443,-3.98622 -1.017958,-0.4821 c -0.678059,-0.32112 -1.077506,-0.77983 -1.196295,-1.37378 -0.190276,-0.95137 -0.738337,-1.23425 -0.738337,-0.38108 0,0.28083 -0.297278,0.92809 -0.660617,1.43835 -0.631142,0.88636 -0.656127,1.27404 -0.56,8.6894 l 0.100617,7.76165 1.52,2.42686 c 1.730959,2.76367 1.794947,3.02657 0.8,3.28683 l -0.72,0.18833 0.710667,0.71077 0.710668,0.71076 -1.830668,1.02251 c -2.603756,1.45432 -3.715404,1.6409 -4.352992,0.73062 l -0.504645,-0.72049 -0.805253,0.7565 c -0.44289,0.41607 -0.871843,0.68991 -0.95323,0.60852 -0.490761,-0.49076 -1.129851,-4.3137 -1.088792,-6.51298 0.02638,-1.41287 -0.03738,-2.85671 -0.141674,-3.20854 -0.104081,-0.35204 -0.346191,-3.1599 -0.537804,-6.2399 -0.191614,-3.08 -0.498869,-7.04 -0.682789,-8.8 -1.128383,-10.797919 -1.25377,-17.62699 -0.351717,-19.155856 L 42.066493,29.97068 40.40996,29.613742 c -0.911092,-0.196317 -2.246513,-0.438539 -2.967602,-0.538273 l -1.311069,-0.181334 -0.195575,1.651321 c -0.352894,2.979637 -1.250778,7.420397 -1.458649,7.214199 -0.112,-0.111098 -0.438579,-1.018735 -0.725731,-2.01697 -0.288733,-1.003731 -0.596642,-1.600426 -0.688879,-1.334972 -0.456259,1.313091 -2.789027,12.278952 -2.789027,13.110642 0,0.52661 -0.169558,1.94627 -0.376796,3.15479 -0.319411,1.86266 -0.293825,2.58241 0.168,4.72594 0.299639,1.39074 0.683396,3.96863 0.852795,5.72863 0.500395,5.19894 1.904902,9.36352 3.545359,10.51254 l 0.732137,0.51281 -0.558658,1.77227 c -0.505517,1.60368 -0.511296,1.81963 -0.06075,2.27018 1.066351,1.06635 0.305596,1.95125 -2.345461,2.7282 -2.704065,0.79249 -5.248584,-4.45628 -5.17843,-10.68193 l 0.04244,-3.76592 -1.00768,-1.25393 c -0.80656,-1.00365 -0.981327,-1.47965 -0.875644,-2.3849 0.165449,-1.41719 -0.41963,-1.71063 -1.655759,-0.83043 -0.495192,0.35261 -1.130119,0.64111 -1.41095,0.64111 -0.331308,0 -0.510601,0.28091 -0.510601,0.8 0,0.44 -0.135502,0.8 -0.301115,0.8 -0.505396,0 -0.733881,-0.64406 -0.379826,-1.07067 0.183786,-0.22145 0.251846,-0.71739 0.151245,-1.10209 -0.100602,-0.3847 0.05639,-1.31321 0.348866,-2.06335 l 0.531777,-1.36389 -0.772613,0.94429 c -0.770935,0.94223 -0.773538,0.9428 -1.198436,0.26243 -0.340885,-0.54584 -0.548077,-0.61642 -1.03872,-0.35384 -0.337093,0.18041 -0.936956,0.26607 -1.333029,0.19035 -0.461533,-0.0882 -0.851821,0.0732 -1.086852,0.44955 -0.431786,0.6914 -1.001297,0.77467 -1.001297,0.1464 0,-0.24245 -0.216,-0.62008 -0.48,-0.83918 -0.264,-0.2191 -0.48,-0.69754 -0.48,-1.06319 0,-0.41509 -0.11207,-0.55062 -0.298354,-0.36081 -0.716628,0.73019 -1.447663,9.62085 -1.029107,12.51573 0.220211,1.52305 0.487041,4.19161 0.592957,5.93014 0.105916,1.73853 0.314508,3.23633 0.463539,3.32843 0.368838,0.22796 0.343944,1.64682 -0.03298,1.87977 -0.167169,0.10332 -0.46851,-0.11964 -0.669646,-0.49547 z m 32.973589,-6.40501 c 0,-0.10472 -0.288,-0.45104 -0.64,-0.76959 -0.352,-0.31856 -0.64,-0.42465 -0.64,-0.23577 0,0.18888 -0.07359,0.5352 -0.163538,0.76959 -0.109429,0.28517 0.102322,0.42618 0.64,0.42618 0.441946,0 0.803538,-0.0857 0.803538,-0.19041 z m -16.249091,-7.00519 c -0.465369,-1.45524 -0.556932,-1.55335 -1.040972,-1.1153 -0.451711,0.4088 0.658097,2.40066 1.500643,2.69333 0.02782,0.01 -0.179033,-0.70045 -0.459671,-1.57803 z m 17.873184,-6.70951 c -0.183041,-0.11313 -0.461127,-1.20676 -0.617968,-2.43029 -0.266755,-2.08097 -0.291397,-2.13163 -0.381656,-0.7846 -0.155979,2.32781 0.01618,3.90533 0.593665,5.44 l 0.541866,1.44 0.09845,-1.72972 c 0.05479,-0.96268 -0.04913,-1.82092 -0.234354,-1.93539 z m -23.941784,-4.16823 c -1.479268,-1.31783 -3.374776,-1.95557 -5.584011,-1.87872 -0.953333,0.0332 -1.106971,0.0891 -0.498297,0.18126 0.484,0.0733 0.88,0.26774 0.88,0.43205 0,0.16431 0.662237,0.29875 1.471638,0.29875 1.747235,0 3.503033,0.76072 4.195673,1.81782 0.27466,0.41918 0.587876,0.6713 0.696035,0.56026 0.10816,-0.11104 -0.414308,-0.74618 -1.161038,-1.41142 z m 32.024185,-3.27093 c 0.729835,-1.0755 0.605649,-1.78997 -0.426494,-2.45374 -0.74305,-0.47786 -0.77014,-0.47658 -0.380545,0.018 0.347927,0.44168 0.334285,0.81928 -0.08,2.21433 -0.604027,2.03398 -0.659269,3.53853 -0.07511,2.04569 0.20661,-0.528 0.639577,-1.34892 0.962149,-1.82427 z m -28.620433,-5.69987 c 0.182113,-3.077725 0.41483,-5.955863 0.517148,-6.395862 0.102318,-0.44 -0.0847,-0.142165 -0.415591,0.661857 -1.533223,3.725505 -1.940766,12.837955 -0.510181,11.407375 0.04263,-0.0426 0.22651,-2.59565 0.408624,-5.67337 z m -10.158457,-1.08278 c -0.349624,-0.79038 -0.507356,-1.48116 -0.350516,-1.53507 0.156841,-0.0539 0.07082,-0.71884 -0.191145,-1.477629 -0.26197,-0.758789 -0.468285,-2.054789 -0.458478,-2.88 0.0098,-0.825211 -0.11712,-2.004383 -0.28206,-2.620383 -0.239944,-0.896109 -0.306705,-0.416343 -0.333969,2.4 -0.03144,3.247561 1.643632,9.365692 2.150207,7.853552 0.0559,-0.16687 -0.184414,-0.95008 -0.534039,-1.74047 z m 62.904378,0.99882 c 1.14473,0.43927 -0.65697,-7.665707 -1.87082,-8.415906 -0.15867,-0.09807 0.027,0.587217 0.41256,1.522851 0.5287,1.28293 0.70661,2.389522 0.72367,4.501155 0.0124,1.54 0.0679,2.66409 0.12328,2.49797 0.0554,-0.16611 0.33046,-0.21384 0.61131,-0.10607 z m -7.23198,-0.7119 c 0.022,-0.44 0.058,-1.016 0.08,-1.28 0.0968,-1.161771 -0.61829,-0.50295 -0.78152,0.72 -0.13394,1.00355 -0.071,1.36 0.24,1.36 0.23184,0 0.43952,-0.36 0.46152,-0.8 z m 11.06175,-1.35391 c -0.0811,-0.31135 -0.15285,-0.13409 -0.15937,0.39391 -0.007,0.528 0.0599,0.78274 0.14752,0.56609 0.0877,-0.21665 0.093,-0.64865 0.0119,-0.96 z m -1.81762,-2.152029 c -0.20771,-0.711735 -0.78974,-2.033935 -1.2934,-2.938222 -0.50366,-0.904287 -0.8417,-1.718204 -0.7512,-1.808705 0.0905,-0.0905 -0.20958,-0.862629 -0.66684,-1.715841 -0.45726,-0.853212 -0.74096,-1.21308 -0.63045,-0.799705 0.1759,0.657933 0.1145,0.724157 -0.4927,0.53144 -0.66964,-0.212536 -0.66405,-0.173298 0.16137,1.134254 1.2697,2.011336 3.66266,7.038408 3.71267,7.799488 0.036,0.54804 0.0692,0.52673 0.19089,-0.12271 0.081,-0.43226 -0.0226,-1.368265 -0.23034,-2.079999 z M 51.412123,39.181458 c 0.375843,-0.527823 0.61,-1.358722 0.592691,-2.103144 l -0.02861,-1.230601 -0.419479,1.44 c -0.504798,1.732887 -1.763294,4.190622 -1.763294,3.443562 0,-0.292469 -0.221124,-0.655508 -0.491386,-0.806754 -0.270262,-0.151246 -0.617884,-0.698402 -0.772495,-1.215901 l -0.281109,-0.940907 -0.02751,1.09658 c -0.0194,0.773351 0.326209,1.61142 1.172495,2.843206 l 1.2,1.746626 0.0987,-1.700063 c 0.06013,-1.035834 0.341443,-2.04097 0.72,-2.572604 z m 35.677817,-0.90095 c -0.62951,-1.250038 -1.21357,-2.272795 -1.29792,-2.272795 -0.0843,0 0.37854,1.074931 1.02862,2.388735 0.65009,1.313805 1.23416,2.336563 1.29792,2.272795 0.0638,-0.06377 -0.39911,-1.138698 -1.02862,-2.388735 z m 16.4361,-0.992795 c -0.0144,-0.915148 -0.0679,-1.002942 -0.29261,-0.48 -0.40264,0.936977 -0.40264,2.70303 0,2.08 0.17061,-0.264 0.30228,-0.984 0.29261,-1.6 z m -48.751307,1.245528 c 0.133841,-0.216561 0.732562,-0.285417 1.538885,-0.176981 0.725895,0.09762 1.10381,0.09434 0.83981,-0.0073 -0.264,-0.101627 -0.726637,-0.39945 -1.028082,-0.66183 -0.346177,-0.301315 -0.758767,-0.3851 -1.12,-0.227441 -0.314555,0.137287 -0.679918,0.226752 -0.811918,0.19881 -0.132,-0.02794 -0.24,0.237198 -0.24,0.589198 0,0.69354 0.468481,0.856408 0.821305,0.285528 z M 73.45094,34.683163 c 0.0124,-0.464502 -0.2663,-1.184501 -0.61926,-1.599999 l -0.64174,-0.755451 0.32174,0.900832 c 0.17696,0.495457 0.33187,1.503457 0.34424,2.24 0.0251,1.496643 0.55279,0.800174 0.59502,-0.785382 z M 44.486752,33.499298 c 0.279656,-0.540796 0.898099,-1.045569 1.528218,-1.247332 1.025887,-0.328488 1.004298,-0.339772 -0.701542,-0.366685 -1.123377,-0.01772 -1.599656,0.07378 -1.316717,0.252968 0.34997,0.221639 0.370315,0.490055 0.09665,1.2751 -0.433112,1.242424 -0.227834,1.287273 0.393394,0.08595 z M 20.193429,31.527713 c -0.108774,-0.176 -0.369273,-0.317795 -0.578886,-0.3151 -0.228997,0.0029 -0.189528,0.128713 0.09889,0.3151 0.614759,0.397288 0.725537,0.397288 0.48,0 z m 34.987807,0.122438 c 0.543294,-0.108659 1.189304,-0.504659 1.435578,-0.88 l 0.447769,-0.682438 -5.475577,0.221261 c -3.011568,0.121694 -5.907578,0.142523 -6.435578,0.04629 -0.756484,-0.13788 -0.879788,-0.09101 -0.581633,0.221106 0.23035,0.241134 1.898303,0.493099 4.263707,0.644086 2.136937,0.136404 3.970672,0.333339 4.074966,0.437634 0.243552,0.243551 1.027021,0.240813 2.270768,-0.0079 z M 75.80394,31.127713 c 0.0791,-0.22 0.0723,-0.868 -0.0152,-1.44 -0.15405,-1.0073 -0.12346,-1.04 0.97286,-1.04 0.95407,0 1.10696,-0.09542 0.97309,-0.607335 -0.0874,-0.334034 0.0896,-0.986528 0.3933,-1.449987 0.82418,-1.257853 0.52895,-1.27682 -3.39825,-0.21832 -4.58041,1.234561 -4.97477,1.782088 -3.24286,4.502425 0.0843,0.132356 2.28947,0.502201 3.63988,0.610461 0.29333,0.02352 0.59807,-0.137244 0.67718,-0.357244 z m 37.49456,-3.164928 c -0.32534,-0.979521 -1.24439,-2.507829 -2.1926,-3.646116 -0.89786,-1.077851 -1.81541,-2.236305 -2.03901,-2.574342 -1.01174,-1.529588 0.29084,0.838416 2.29668,4.17522 1.16042,1.930409 2.10986,3.646409 2.10986,3.813333 0,0.166925 0.0867,0.216828 0.1926,0.110897 0.10593,-0.105932 -0.0595,-0.951478 -0.36753,-1.878992 z m -80.945072,0.860751 c 0,-0.523517 -0.541863,-0.765795 -3.36,-1.502328 -1.848,-0.482983 -4.799999,-1.382809 -6.559999,-1.999613 -3.699864,-1.296643 -4.306164,-1.383455 -4.147681,-0.593882 0.06182,0.308 0.195437,1.081724 0.296923,1.719388 0.182654,1.147661 1.983182,2.325883 4.490758,2.938641 2.033649,0.496949 9.279999,0.05795 9.279999,-0.562206 z m 3.04,-0.05006 c 0,-0.06917 -0.216,-0.125763 -0.48,-0.125763 -0.264,0 -0.48,0.13948 -0.48,0.309957 0,0.170476 0.216,0.22707 0.48,0.125763 0.264,-0.101306 0.48,-0.240787 0.48,-0.309957 z m 66.590752,-2.95361 c -0.50196,-0.851316 -1.3216,-2.165818 -1.82143,-2.921117 l -0.90879,-1.373271 1.26973,-1.097514 1.26974,-1.097513 -1.12,0.657435 c -0.616,0.361589 -1.624,0.662352 -2.24,0.668362 -0.88855,0.0087 -1.00861,0.07591 -0.58096,0.325367 0.29647,0.172942 1.49151,1.680563 2.65564,3.350269 2.3096,3.312654 2.90704,3.914913 1.47607,1.487982 z m -5.79825,-0.411418 c -0.30641,-1.109705 -1.9125,-2.894447 -1.9125,-2.125227 0,0.39128 1.98839,3.482765 2.14155,3.329608 0.0446,-0.04461 -0.0585,-0.586578 -0.22905,-1.204381 z m -1.9125,-3.160735 c 0,-0.176 -0.252,-0.317795 -0.56,-0.3151 -0.47858,0.0042 -0.49021,0.05 -0.08,0.3151 0.6039,0.390275 0.64,0.390275 0.64,0 z m 5.33401,-4.007119 c 2.47751,-1.234596 3.50825,-3.032881 1.73837,-3.032881 -0.78261,0 -5.83914,3.185466 -5.61982,3.540328 0.34295,0.554906 2.24988,0.305601 3.88145,-0.507447 z"
     id="path1" />
</svg>
