<?xml version="1.0" encoding="UTF-8" standalone="no"?>
<!-- Created with Inkscape (http://www.inkscape.org/) -->

<svg
   version="1.1"
   id="svg1"
   width="83.537872"
   height="98.340469"
   viewBox="0 0 83.537874 98.340472"
   sodipodi:docname="Icon_slayer.svg"
   inkscape:version="1.4.2 (ebf0e940d0, 2025-05-08)"
   xmlns:inkscape="http://www.inkscape.org/namespaces/inkscape"
   xmlns:sodipodi="http://sodipodi.sourceforge.net/DTD/sodipodi-0.dtd"
   xmlns="http://www.w3.org/2000/svg"
   xmlns:svg="http://www.w3.org/2000/svg">
  <defs
     id="defs1" />
  <sodipodi:namedview
     id="namedview1"
     pagecolor="#505050"
     bordercolor="#eeeeee"
     borderopacity="1"
     inkscape:showpageshadow="0"
     inkscape:pageopacity="0"
     inkscape:pagecheckerboard="0"
     inkscape:deskcolor="#505050"
     inkscape:zoom="3.679109"
     inkscape:cx="47.429962"
     inkscape:cy="73.387334"
     inkscape:window-width="1838"
     inkscape:window-height="1011"
     inkscape:window-x="40"
     inkscape:window-y="47"
     inkscape:window-maximized="1"
     inkscape:current-layer="svg1" />
  <path
     style="fill:#0161aa"
     d="m 52.159999,141.3512 c 0,-2.45542 -0.890829,-1.16895 9.909931,-14.3112 9.354385,-11.38232 11.390854,-13.93988 12.187865,-15.30646 0.273789,-0.46945 1.105859,-1.50154 1.849045,-2.29354 2.190357,-2.33423 2.580504,-3.1664 2.103676,-4.48706 -0.221006,-0.61212 -0.412783,-1.44501 -0.426173,-1.85087 -0.03751,-1.13705 -5.332051,-19.520695 -6.388639,-22.182565 -0.515114,-1.297729 -1.627988,-4.771507 -2.473055,-7.719507 -1.017177,-3.548404 -1.683388,-5.36 -1.971132,-5.36 -0.29756,0 -0.366569,-0.214493 -0.2188,-0.680073 0.154989,-0.488326 0.10629,-0.612364 -0.172719,-0.439927 -0.284605,0.175896 -0.325207,0.03679 -0.151754,-0.519926 l 0.236811,-0.760074 -0.740409,0.64 -0.74041,0.64 0.537881,-0.791202 c 0.295835,-0.435161 0.535455,-1.083161 0.53249,-1.44 -0.0044,-0.529059 -0.12831,-0.456862 -0.671424,0.391202 -0.994053,1.552196 -1.199505,1.046331 -0.410313,-1.010271 0.107581,-0.280351 0.0362,-0.509729 -0.158635,-0.509729 -0.19483,0 -0.354237,0.279502 -0.354237,0.621115 0,0.965652 -0.584082,1.091645 -0.698221,0.150613 -0.09014,-0.743161 -0.38539,-0.928291 -2.581779,-1.61884 -2.339568,-0.735566 -2.970302,-1.17612 -2.099433,-1.46641 0.219842,-0.07328 -0.107581,-0.591337 -0.775281,-1.226666 -1.810356,-1.722589 -1.882625,-2.917302 -0.201986,-3.339115 0.726648,-0.182377 0.88219,-0.0801 1.180788,0.776463 0.528068,1.514817 4.416116,2.166885 5.975912,1.002226 0.176,-0.131415 1.688,-0.126182 3.36,0.01163 1.672,0.137811 5.272,0.399774 8,0.582141 8.978083,0.600186 17.932727,2.897584 25.182612,6.460837 3.15682,1.551547 3.28861,1.586511 4.06433,1.07824 0.91109,-0.596964 1.56131,-0.466049 3.19641,0.643556 2.19783,1.491493 6.8055,-1.52752 7.81617,-5.121274 0.5734,-2.038916 7.08451,-8.475401 15.94489,-15.762155 2.96267,-2.436494 2.5054,-1.079737 -1.82084,5.40257 -6.26087,9.381115 -9.56302,13.457435 -11.39006,14.060415 -0.72612,0.23964 -1.49077,0.968115 -2.49845,2.380252 -2.22578,3.119155 -2.28581,3.42897 -0.99267,5.123081 1.33926,1.754522 1.59573,2.505305 1.14411,3.349168 -0.29938,0.559401 -0.0483,1.070746 1.76769,3.599778 4.73441,6.59342 8.13962,13.815768 10.04954,21.314767 0.83399,3.27453 2.3081,9.97636 2.3706,10.77761 0.0275,0.352 0.16547,0.82 0.30668,1.04 0.14122,0.22 0.16659,0.54589 0.0564,0.7242 -0.72038,1.16559 1.42422,5.4358 2.72997,5.4358 0.8937,0 0.95263,0.0771 0.95263,1.24576 0,1.93465 -1.99633,1.93947 -3.79468,0.009 -0.59248,-0.63595 -0.68532,-0.65879 -0.68532,-0.1686 0,1.54779 -2.76074,-2.31593 -3.57716,-5.00632 -0.40527,-1.33553 -0.7239,-1.44974 -1.84798,-0.66239 -0.71882,0.50348 -0.75445,0.50348 -0.56125,0 0.11347,-0.29569 0.0668,-0.53761 -0.10366,-0.53761 -0.40726,0 -1.58995,1.19017 -1.58995,1.6 0,0.176 -0.144,0.32 -0.32,0.32 -0.48868,0 -0.38167,-0.68146 0.20959,-1.33481 0.64052,-0.70776 0.22262,-0.75176 -1.0605,-0.11165 -1.06914,0.53336 -3.84581,0.23604 -3.71532,-0.39783 0.0416,-0.20192 -0.51722,-0.42527 -1.28,-0.51162 -3.46652,-0.39244 -7.98434,-0.90287 -10.31377,-1.16526 -1.408,-0.1586 -5.944,-0.51005 -10.080003,-0.78101 -4.135999,-0.27095 -8.527999,-0.56361 -9.759999,-0.65035 -2.507815,-0.17656 -2.418644,-0.2313 -5.128741,3.14879 -1.333844,1.6636 -1.634443,1.99166 -6.075663,6.6308 -1.586422,1.65711 -6.101888,6.94066 -10.034368,11.74121 -8.126673,9.92058 -8.9199,10.63173 -11.858883,10.63173 h -1.942344 z m 3.84,-0.33133 c 0,-0.0551 -0.468,-0.52308 -1.04,-1.04 l -1.04,-0.93987 0.939869,1.04 c 0.87609,0.96942 1.140131,1.18708 1.140131,0.93987 z m 1.253471,-1.43842 c -0.51978,-1.49105 0.100403,-2.95359 2.30611,-5.43839 1.69064,-1.90456 8.041074,-11.22845 7.361594,-10.80851 -0.149377,0.0923 -2.961545,3.40803 -6.249263,7.36825 l -5.977668,7.20041 0.52983,0.80862 c 1.173383,1.79081 2.557246,2.38381 2.029397,0.86962 z m 20.026528,-21.21914 c 0.714102,-0.27295 4.32,-5.4067 4.32,-6.15043 0,-0.11653 -0.555169,-0.21188 -1.233709,-0.21188 -1.10454,0 -1.27148,-0.10889 -1.59447,-1.04 -0.349801,-1.00841 -0.355852,-0.99625 -0.199161,0.4 0.08907,0.79371 0.409736,1.65543 0.714471,1.92 0.897098,0.77886 0.46963,1.80672 -1.632386,3.92515 -1.088666,1.09717 -2.467893,2.64285 -3.06495,3.43485 -1.015873,1.34756 -0.97464,1.3246 0.642323,-0.35769 0.950335,-0.98873 1.871882,-1.85273 2.047882,-1.92 z M 127.03307,110.8 c -0.0428,-7.42069 -7.68264,-24.036835 -13.56438,-29.501734 l -0.84136,-0.781731 -1.51367,1.465353 c -1.87009,1.810406 -3.9759,3.13811 -4.97721,3.13811 -0.51936,0 -1.198,0.525187 -2.16636,1.676512 -0.77555,0.922082 -2.56525,2.902082 -3.977114,4.4 -2.205089,2.339495 -10.041962,12.61733 -11.83669,15.52349 -0.326073,0.528 -0.933255,1.33479 -1.349295,1.79287 l -0.756435,0.83288 2.014721,0.21967 c 5.634557,0.61436 14.059643,1.20713 21.374723,1.50386 4.488,0.18206 9.672,0.44337 11.52,0.58069 1.848,0.13732 3.972,0.27225 4.72,0.29985 L 127.04,112 Z m 3.33898,-0.96 c -0.30023,-1.66061 -0.45205,-1.70539 -0.45205,-0.13334 0,0.73334 0.15052,1.33334 0.3345,1.33334 0.21177,0 0.2549,-0.44029 0.11755,-1.2 z m -39.4614,-8.96 c 2.850192,-4.004003 5.773283,-7.909293 6.495757,-8.678425 0.74966,-0.798074 1.030229,-1.253492 0.653543,-1.060827 -0.985293,0.50395 -2.927272,2.776985 -5.259952,6.156635 -4.081812,5.913837 -8.388705,9.653187 -9.976335,8.661697 -0.545008,-0.34036 -0.580634,-0.29353 -0.390387,0.51319 0.301864,1.28002 0.626502,1.47404 2.750964,1.64415 0.366277,0.0293 2.238792,-2.33696 5.72641,-7.23642 z m 38.90794,6.58 c -0.10215,-0.25528 -0.17798,-0.17945 -0.19333,0.19333 -0.0139,0.33733 0.0617,0.52633 0.16807,0.42 0.10633,-0.10633 0.1177,-0.38233 0.0253,-0.61333 z M 83.737429,100.4 c 6.816385,-7.621896 9.49908,-10.800479 11.384552,-13.488955 1.098909,-1.566924 2.695678,-3.775527 3.548375,-4.908007 1.340054,-1.779748 1.523694,-2.201175 1.353804,-3.106776 -0.204089,-1.087896 0.9046,-3.658564 2.3951,-5.553436 l 0.66869,-0.850102 -0.68839,-0.557424 C 97.163425,67.695332 85.557726,64.192181 74.079998,63.38711 68.7525,63.013428 68.916956,62.128572 72.122389,73.919998 c 0.645902,2.376 1.54246,5.904 1.992352,7.84 1.548748,6.664662 6.053932,21.920002 6.473383,21.920002 0.118771,0 1.535958,-1.476 3.149305,-3.28 z m 42.561161,1.94 c -0.10215,-0.25528 -0.17798,-0.17945 -0.19333,0.19333 -0.0139,0.33733 0.0617,0.52633 0.16807,0.42 0.10633,-0.10633 0.1177,-0.38233 0.0253,-0.61333 z m -0.36455,-2.0379 c -0.3746,-2.497982 -1.27275,-4.741857 -2.88481,-7.207129 -2.27884,-3.484972 -2.32796,-3.402018 -0.36323,0.613385 0.97645,1.995597 2.09589,4.623597 2.48766,5.84 0.82708,2.567994 1.0683,2.807114 0.76038,0.753744 z M 99.839997,84.83382 c 0.616003,-0.369286 1.449013,-0.671968 1.851133,-0.672626 0.67442,-0.0011 0.64256,-0.07897 -0.41075,-1.003782 -0.62803,-0.551422 -1.18204,-0.947422 -1.23112,-0.88 -2.918103,4.008507 -3.714269,5.469861 -2.209263,4.055081 0.484,-0.454983 1.384,-1.129386 2,-1.498673 z m 18.677793,-2.909014 c -1.53412,-2.840313 -2.45782,-3.785736 -3.14309,-3.217008 -0.41724,0.346279 -0.17559,0.736514 1.75062,2.826944 1.22907,1.333865 2.23468,2.56622 2.23468,2.738566 0,0.172346 0.087,0.226355 0.19333,0.12002 0.10634,-0.106335 -0.35966,-1.21717 -1.03554,-2.468522 z m -10.66484,-3.264987 c 0.9428,-0.697041 1.23652,-1.643148 0.62705,-2.019821 -0.176,-0.108774 -0.32,-0.362072 -0.32,-0.562885 0,-0.262995 0.1074,-0.257712 0.384,0.01888 0.65111,0.651108 1.29256,0.484984 0.90726,-0.234963 -0.44548,-0.83238 -0.41898,-1.196749 0.0527,-0.725037 0.64278,0.642786 1.1558,0.438638 1.9927,-0.792974 l 0.79977,-1.176974 -1.33603,-1.463026 c -0.73481,-0.804664 -1.42769,-1.503748 -1.53972,-1.55352 -0.11203,-0.04977 -1.40361,0.994228 -2.87018,2.32 -1.46657,1.325772 -2.78147,2.410494 -2.92201,2.410494 -0.36697,0 -1.54853,2.416983 -1.54853,3.167644 0,0.504036 0.27732,0.668894 1.36,0.808473 1.2527,0.161498 2.59352,0.353592 3.21295,0.460305 0.13913,0.02397 0.67913,-0.271502 1.2,-0.656601 z m -3.59781,-7.572968 c 0.59436,-0.37703 0.068,-0.7367 -2.81514,-1.923646 -1.32,-0.543423 -2.051278,-0.741473 -1.625058,-0.440112 0.426218,0.301362 1.362218,1.010542 2.079998,1.575956 1.39303,1.097319 1.70704,1.202133 2.3602,0.787802 z M 84.144175,63.21642 c -0.624703,-0.230165 -1.738653,-0.520329 -2.475445,-0.644809 -0.808026,-0.136515 -1.734349,-0.595059 -2.334335,-1.155529 -0.981503,-0.916861 -3.624286,-1.922107 -4.912477,-1.868579 -0.494061,0.02053 -0.424922,0.09836 0.272636,0.306916 0.514005,0.153676 1.539562,0.87318 2.279014,1.598897 1.261041,1.237618 1.52073,1.34512 4.185444,1.732626 3.696573,0.53756 4.380407,0.544542 2.985163,0.03048 z m 6.649156,-1.009755 c -0.106333,-0.106333 -0.382333,-0.117702 -0.613333,-0.02526 -0.255275,0.102152 -0.179449,0.177978 0.193333,0.193333 0.337333,0.01389 0.526333,-0.06174 0.42,-0.16807 z m 34.649329,-7.375857 c 5.50822,-5.5479 6.60006,-6.768273 4.65236,-5.2 -4.85723,3.911002 -13.04659,12.44919 -11.94057,12.44919 0.05,0 3.32968,-3.262135 7.28821,-7.24919 z m -60.419989,5.72919 c -0.09272,-0.484 -0.230333,-0.695249 -0.305811,-0.469443 -0.136111,0.4072 0.107381,1.349443 0.34872,1.349443 0.06912,0 0.04981,-0.396 -0.04291,-0.88 z m 3.015182,-0.611709 c -0.570296,-1.052341 -0.664409,-0.85542 -0.188902,0.395258 0.180925,0.475866 0.408194,0.785972 0.505043,0.689122 0.09685,-0.09685 -0.04541,-0.58482 -0.316141,-1.08438 z M 114.88,115.04 c 0,-0.34667 0.35555,-0.48 1.28,-0.48 1.38858,0 1.71917,0.44766 0.56,0.75831 -1.20373,0.32258 -1.84,0.22634 -1.84,-0.27831 z"
     id="path1"
     transform="translate(-52.142138,-45.019369)" />
</svg>
