<?xml version="1.0" encoding="UTF-8" standalone="no"?>
<!-- Created with Inkscape (http://www.inkscape.org/) -->

<svg
   version="1.1"
   id="svg1"
   width="87.802086"
   height="111.15573"
   viewBox="0 0 87.802088 111.15573"
   sodipodi:docname="Icon_fortuneteller.svg"
   inkscape:version="1.4.2 (ebf0e940d0, 2025-05-08)"
   xmlns:inkscape="http://www.inkscape.org/namespaces/inkscape"
   xmlns:sodipodi="http://sodipodi.sourceforge.net/DTD/sodipodi-0.dtd"
   xmlns="http://www.w3.org/2000/svg"
   xmlns:svg="http://www.w3.org/2000/svg">
  <defs
     id="defs1" />
  <sodipodi:namedview
     id="namedview1"
     pagecolor="#505050"
     bordercolor="#eeeeee"
     borderopacity="1"
     inkscape:showpageshadow="0"
     inkscape:pageopacity="0"
     inkscape:pagecheckerboard="0"
     inkscape:deskcolor="#505050"
     inkscape:zoom="1.3007615"
     inkscape:cx="43.820487"
     inkscape:cy="59.196096"
     inkscape:window-width="1838"
     inkscape:window-height="1011"
     inkscape:window-x="40"
     inkscape:window-y="47"
     inkscape:window-maximized="1"
     inkscape:current-layer="svg1" />
  <path
     style="fill:#0063ab"
     d="m 64.106384,145.64766 c -2.989781,-1.0332 -5.858157,-4.18836 -5.861598,-6.44766 -0.0078,-5.13597 5.520677,-7.25859 5.996898,-2.30246 0.153726,1.59986 0.113623,1.70244 -1.165579,2.98164 -1.612551,1.61255 -1.431872,1.96886 1.267699,2.49997 4.593874,0.90379 8.71961,-4.87917 5.327043,-7.46681 -3.045873,-2.3232 -4.214585,-7.63026 -2.472717,-11.22848 0.393322,-0.8125 0.662647,-1.52639 0.5985,-1.58643 -0.06415,-0.06 -1.518453,-0.77541 -3.23179,-1.58972 -6.750845,-3.20852 -10.023985,-8.55022 -5.876942,-9.59106 1.133683,-0.28454 2.423672,0.31398 6.340238,2.94171 10.419081,6.99044 23.597663,10.92091 32.411861,9.66674 1.056,-0.15026 3.144003,-0.44399 4.640003,-0.65274 10.0144,-1.39738 19.04207,-5.21281 24.70629,-10.44181 1.79474,-1.65684 1.71679,-1.64699 3.2208,-0.40726 2.61261,2.15354 0.16523,5.12795 -7.60709,9.24522 -3.09605,1.64009 -2.9274,1.48414 -2.34623,2.16952 3.01161,3.55163 2.25176,8.66289 -1.66947,11.22995 -3.57517,2.34051 -0.75009,8.33949 3.7563,7.97638 2.59545,-0.20913 2.89762,-0.68338 1.3646,-2.14171 -3.18183,-3.0268 -0.39772,-7.03997 3.3748,-4.86462 4.44997,2.566 0.0702,11.14196 -5.35631,10.48806 -4.88272,-0.58837 -7.0979,-2.58949 -7.73919,-6.99133 -0.22004,-1.51035 -1.27174,-2.49476 -2.66531,-2.49476 -2.17442,0 -3.68108,-2.01424 -3.49271,-4.66937 0.11976,-1.68805 0.0906,-1.77228 -0.55001,-1.5894 -2.5681,0.73311 -5.21534,1.22631 -7.556473,1.40785 L 96.799998,132 l -0.203231,2.56 c -0.487627,6.14242 -4.537364,7.64516 -7.150848,2.65347 -1.183469,-2.2604 -0.509105,-6.14072 0.836536,-4.81347 0.776716,0.7661 1.271117,0.17195 0.658846,-0.79177 -0.136893,-0.21547 -1.322688,-0.54247 -2.6351,-0.72666 -1.312412,-0.18419 -3.322203,-0.61132 -4.466203,-0.94918 -1.144,-0.33786 -2.635367,-0.68831 -3.314148,-0.77877 l -1.234148,-0.16447 0.211154,1.40807 c 0.464971,3.10066 -1.018806,5.36356 -3.822858,5.83023 l -1.6,0.26629 -0.204574,1.75313 c -0.655066,5.61369 -5.130116,9.00388 -9.76904,7.40079 z M 95.297203,137.6 c 0.623475,-0.91978 0.725003,-1.37512 0.567924,-2.54707 -0.337039,-2.51463 -0.785932,-2.40987 -1.315759,0.30707 -0.120125,0.616 -0.490876,1.56899 -0.82389,2.11777 -1.134022,1.86875 0.311628,1.98118 1.571725,0.12223 z M 127.04,137.44 c 0,-0.264 -0.15032,-0.48 -0.33403,-0.48 -0.18372,0 -0.29172,-0.252 -0.24,-0.56 0.12151,-0.72368 -0.97684,-0.90048 -1.8099,-0.29133 -0.58917,0.43082 -0.55795,0.48516 0.64232,1.11794 1.52805,0.80557 1.74161,0.83173 1.74161,0.21339 z m -63.656002,-0.568 c -0.0132,-0.1276 -0.024,-0.44431 -0.024,-0.70379 0,-0.56435 -1.804769,-1.57355 -2.063979,-1.15414 -0.225859,0.36545 1.39412,2.32921 1.807718,2.19135 0.167344,-0.0558 0.293461,-0.20582 0.280261,-0.33342 z m 51.605992,-3.73299 c 3.0074,-1.14341 4.19254,-6.5399 1.62252,-7.38809 -1.38734,-0.45786 -1.86666,-0.17698 -1.27263,0.74576 1.5361,2.38611 0.13701,4.38332 -3.0706,4.38332 -1.33086,0 -1.55505,0.87282 -0.46503,1.81042 0.9287,0.79884 1.9035,0.9361 3.18574,0.44859 z M 75.812042,132.56 c 1.024433,-0.58307 1.103758,-0.78932 0.700116,-1.82033 -0.189089,-0.48299 -0.57101,-0.6265 -1.725006,-0.64819 -2.796952,-0.0526 -4.469967,-2.23662 -3.116056,-4.06788 0.858958,-1.1618 0.641259,-1.50187 -0.487839,-0.76206 -2.914098,1.90939 -1.624522,7.21846 1.753368,7.21846 0.344081,0 0.714599,0.144 0.823373,0.32 0.289755,0.46883 0.940324,0.39274 2.052044,-0.24 z M 114.88,127.65896 c 0,-1.22032 -1.11133,-1.93964 -1.85214,-1.19883 -0.29352,0.29352 -0.18049,0.51179 0.496,0.9579 1.00495,0.66269 1.35614,0.72508 1.35614,0.24093 z m -38.760999,-1.29107 c -0.484346,-0.30682 -1.879003,-0.39028 -1.879003,-0.11245 0,0.3716 2.08005,1.05563 2.199003,0.72315 0.06545,-0.18294 -0.07855,-0.45775 -0.32,-0.6107 z M 90.559998,120.965 C 69.63573,118.00483 55.987929,106.68007 52.172873,89.111895 43.969196,51.334301 83.019755,22.234556 117.12,40.714515 c 28.71346,15.560698 29.07598,59.465125 0.6185,74.906005 -6.60113,3.58175 -17.55637,6.4285 -22.858502,5.93986 -0.176,-0.0162 -2.12,-0.28414 -4.32,-0.59538 z m 5.139786,-13.16197 c 0.552686,-1.03271 0.01255,-7.64303 -0.624516,-7.64303 -0.218774,0 -0.806566,2.80448 -1.216576,5.80455 -0.280279,2.05081 1.028182,3.35741 1.841092,1.83848 z M 132.30244,98.559997 C 149.82562,63.643862 117.16993,25.563463 81.214242,38.985102 66.369695,44.526316 58.681126,53.030372 54.877366,68.115398 c -0.535902,2.12529 -0.483996,2.948595 0.0892,1.414861 4.360128,-11.666634 7.724185,-16.762646 14.776513,-22.384066 3.376139,-2.691125 8.829061,-5.704046 11.696918,-6.462936 7.328728,-1.939323 9.416409,-2.283258 13.859351,-2.283258 5.050892,0 4.917942,-0.06272 5.426852,2.56 2.18899,11.281193 16.56045,22.724306 29.13246,23.196393 6.68367,0.250976 7.0012,21.047342 0.54771,35.870978 -2.36838,5.44015 -2.33826,5.33231 -0.97545,3.49263 0.65189,-0.88 1.94407,-3.112 2.87152,-4.960003 z m -45.913701,2.261033 c 0.37182,-0.69475 0.449325,-2.261033 0.111883,-2.261033 -0.537042,0 -1.700624,1.461323 -1.700624,2.135783 0,0.9376 1.107265,1.0249 1.588741,0.12525 z M 106.88,100.49814 c 0,-0.640279 -1.10662,-1.618143 -1.8312,-1.618143 -0.55372,0 -0.51478,0.666293 0.0893,1.528803 0.6273,0.89558 1.74186,0.95275 1.74186,0.0893 z M 75.039998,99.044135 c 0.951746,-0.715375 3.734859,-4.533709 4.201373,-5.764137 0.29948,-0.789876 -1.146034,0.241143 -4.427346,3.157825 -2.272623,2.020081 -2.587074,2.467354 -2.286088,3.251711 0.232229,0.605176 1.168197,0.364716 2.512061,-0.645399 z m 43.619012,-1.342683 c 0.1061,-0.741486 -1.79102,-2.349804 -4.83347,-4.097675 -2.44877,-1.406807 -2.18223,-0.649727 0.80379,2.283091 2.83468,2.784172 3.82701,3.231022 4.02968,1.814584 z M 99.001771,95.348536 c 1.160049,-0.358304 2.507219,-1.016482 2.993709,-1.462617 l 0.88452,-0.811155 -0.96,0.214695 c -3.585893,0.801951 -11.626171,0.436314 -15.680002,-0.71306 -1.131693,-0.320866 0.347491,1.06236 1.982417,1.853814 3.449662,1.669953 7.287343,1.996896 10.779356,0.918323 z M 72.117645,89.215739 c 1.593841,-1.620244 1.055591,-2.005879 -1.245158,-0.892105 -1.769992,0.856838 -1.963832,2.064698 -0.354842,2.211101 0.152706,0.01389 0.872706,-0.579654 1.6,-1.318996 z M 100.96,87.850463 c 6.75307,-1.77256 14.33306,-7.554974 12.73548,-9.715283 -7.0456,-9.527271 -26.329042,-8.760707 -37.295482,1.482585 -1.53152,1.430529 -0.932784,2.151899 3.999535,4.818727 7.148095,3.864863 14.311262,5.054274 20.560467,3.413971 z m -9.440002,-1.28147 c -4.317252,-0.635294 -14.094225,-4.477542 -14.075867,-5.531668 0.01045,-0.599763 8.687104,-5.517327 9.734894,-5.517327 0.09954,0 0.180973,0.725737 0.180973,1.612748 0,4.685401 5.66072,8.792942 10.115946,7.340349 3.798596,-1.238506 6.003946,-4.313662 5.931486,-8.270913 -0.0306,-1.670964 0.30143,-1.67477 4.20852,-0.04824 4.8315,2.011359 5.33995,3.181405 2.39927,5.521246 -5.59816,4.45434 -11.274658,5.956335 -18.495222,4.89381 z m 1.799924,-3.83911 c -5.636093,-2.008979 -5.977237,-7.649106 -0.519924,-8.595918 3.171826,-0.550294 3.164737,-0.552641 2.242449,0.742593 -2.062625,2.89669 -0.701422,5.823884 3.107151,6.681761 l 1.210399,0.272641 -1.44,0.677491 c -1.666062,0.783849 -2.860886,0.841364 -4.600075,0.221432 z m 26.004838,4.832572 c 0.54644,-0.658421 -0.2418,-1.149623 -2.22098,-1.384028 -1.89441,-0.224364 -1.95024,0.132283 -0.18887,1.206311 1.18821,0.724529 1.91175,0.777888 2.40985,0.177717 z M 68.669024,81.270069 c 5.584841,-1.14468 5.311759,-1.545907 -0.922566,-1.355487 -5.474716,0.167219 -7.38148,0.850194 -4.610706,1.651488 1.52938,0.44229 2.073092,0.413204 5.533272,-0.296001 z M 126,79.493172 c 0.96693,-0.195223 0.91413,-1.035205 -0.0891,-1.416615 -1.04886,-0.398776 -8.14027,0.435869 -7.68132,0.904075 0.62548,0.638092 5.54221,0.962403 7.77037,0.51254 z M 79.839786,73.519998 c 8.069479,-10.651593 19.741522,-11.126655 30.058094,-1.223389 3.03603,2.914402 2.98687,2.360757 -0.12435,-1.40025 -9.819681,-11.87057 -23.685635,-10.497507 -31.495719,3.118834 -2.114619,3.686693 -1.445434,3.474541 1.561975,-0.495195 z M 113.6,63.692464 c 0,-2.091194 -11.45311,-7.659756 -18.165044,-8.831938 -6.352213,-1.10936 -14.086529,1.355669 -17.24457,5.496073 -1.251645,1.640991 -0.69869,1.654274 1.391635,0.03343 6.017461,-4.665958 16.357432,-4.005699 26.777449,1.709875 2.96268,1.625083 7.24053,2.565999 7.24053,1.59256 z"
     id="path1"
     transform="translate(-51.067844,-35.005809)" />
</svg>
