<?xml version="1.0" encoding="UTF-8" standalone="no"?>
<!-- Created with Inkscape (http://www.inkscape.org/) -->

<svg
   version="1.1"
   id="svg1"
   width="96.103218"
   height="106.40709"
   viewBox="0 0 96.103221 106.40709"
   sodipodi:docname="Icon_soldier.svg"
   inkscape:version="1.4.2 (ebf0e940d0, 2025-05-08)"
   xmlns:inkscape="http://www.inkscape.org/namespaces/inkscape"
   xmlns:sodipodi="http://sodipodi.sourceforge.net/DTD/sodipodi-0.dtd"
   xmlns="http://www.w3.org/2000/svg"
   xmlns:svg="http://www.w3.org/2000/svg">
  <defs
     id="defs1" />
  <sodipodi:namedview
     id="namedview1"
     pagecolor="#505050"
     bordercolor="#eeeeee"
     borderopacity="1"
     inkscape:showpageshadow="0"
     inkscape:pageopacity="0"
     inkscape:pagecheckerboard="0"
     inkscape:deskcolor="#505050"
     inkscape:zoom="1.3007615"
     inkscape:cx="47.279999"
     inkscape:cy="47.664389"
     inkscape:window-width="1838"
     inkscape:window-height="1011"
     inkscape:window-x="40"
     inkscape:window-y="47"
     inkscape:window-maximized="1"
     inkscape:current-layer="svg1" />
  <path
     style="fill:#0061aa"
     d="m 94.223998,153.30967 c -0.1672,-0.15967 -1.168,-0.65335 -2.224,-1.09706 -2.864342,-1.20355 -9.463283,-4.92281 -10.56,-5.95178 -0.528,-0.49538 -1.542355,-1.31473 -2.254122,-1.82077 -8.381244,-5.95871 -16.168525,-16.02051 -21.020418,-27.16006 -0.843235,-1.936 -1.801477,-4.096 -2.129426,-4.8 -3.740068,-8.02869 -9.513299,-37.80714 -8.052516,-41.535045 0.381949,-0.97473 2.478212,-2.902624 4.016483,-3.693884 l 1.28,-0.65841 -2.593994,0.18755 c -3.139392,0.226984 -3.009404,0.38897 -3.097025,-3.859388 -0.07966,-3.862623 -0.09996,-3.82573 2.222089,-4.039031 l 1.761325,-0.161794 -0.842861,-1.238765 -0.842861,-1.238765 1.056664,0.194592 c 12.484743,2.299162 32.227133,-1.390375 41.466076,-7.749347 2.74394,-1.888596 3.881915,-1.977192 5.583456,-0.434696 8.028002,7.27762 29.638752,12.039742 43.009332,9.477492 3.23578,-0.620084 3.56134,11.480946 0.78134,29.042508 C 138.58515,106.97762 128.63876,130.88 123.4295,130.88 c -0.50849,0 -5.19233,-2.94645 -8.58262,-5.39903 -0.90707,-0.6562 -0.73703,-0.0625 0.49339,1.72269 0.60515,0.87798 1.69848,2.60434 2.42963,3.83634 0.73114,1.232 1.74802,2.85621 2.25972,3.60935 0.51171,0.75315 0.93038,1.49616 0.93038,1.65114 0,0.51774 -5.44195,5.38108 -7.93654,7.0927 -1.35491,0.92964 -2.53546,1.77492 -2.62346,1.87841 -0.088,0.10348 -1.24,0.81845 -2.56,1.58882 -1.32,0.77036 -3.264,1.94697 -4.32,2.61468 -1.056,0.66771 -2.928,1.65772 -4.160003,2.20003 -1.232,0.54231 -2.622218,1.19726 -3.089373,1.45544 -0.974702,0.53869 -1.611725,0.59444 -2.046626,0.1791 z m 1.406601,-7.66914 c 0.467169,-0.32971 1.713398,-1.04664 2.769398,-1.59317 1.056,-0.54654 2.496003,-1.49657 3.200003,-2.11118 l 1.28,-1.11747 -2.24,0.66184 c -1.269981,0.37523 -2.851685,1.13334 -3.652518,1.75064 -1.79187,1.38122 -2.187517,1.36617 -5.025112,-0.19119 -2.636611,-1.44706 -3.602719,-1.66405 -2.19127,-0.49216 4.97096,4.12724 4.640647,3.9529 5.859499,3.09269 z m -1.624325,-5.73936 c 0.06755,-0.20267 -0.104222,-1.1495 -0.381725,-2.10408 -0.602766,-2.07344 -0.638635,-3.13501 -0.123341,-3.6503 0.294948,-0.29495 0.292423,-0.72765 -0.01116,-1.91215 -0.328307,-1.28099 -0.312179,-1.75822 0.09879,-2.92302 0.397265,-1.12597 0.491157,-3.12666 0.491157,-10.46576 v -9.07367 l -0.88,-0.19277 c -0.484,-0.10603 -1.489443,-0.38716 -2.234316,-0.62474 -0.807911,-0.25768 -1.428781,-0.31147 -1.538886,-0.13332 -0.101513,0.16425 -0.537291,0.29864 -0.968395,0.29864 -0.707483,0 -0.744603,-0.0637 -0.381115,-0.65418 1.675946,-2.72244 -2.257223,-1.68608 -4.668314,1.23006 -2.033744,2.45976 -5.209263,5.7338 -4.562555,4.70412 0.331618,-0.528 1.062664,-1.536 1.624545,-2.24 5.203755,-6.51996 5.903321,-9.00827 2.430511,-8.64516 -1.682707,0.17593 -1.743363,0.1581 -1.094053,-0.32169 0.659632,-0.48742 0.667372,-0.559 0.19146,-1.77055 L 81.502916,100.16 h -8.674484 c -8.32036,0 -8.690758,0.0261 -9.073128,0.63833 -0.398297,0.63777 -0.3992,0.63777 -1.036975,0 -0.351082,-0.35108 -0.792034,-0.63833 -0.979895,-0.63833 -0.418335,0 -0.07296,1.30574 0.465524,1.76 0.208635,0.176 0.329624,0.56115 0.268865,0.8559 -0.250989,1.21757 0.629291,3.04699 2.342661,4.86856 l 1.772525,1.88447 -0.654005,0.69616 c -1.178957,1.25494 1.983868,8.0871 6.636088,14.33491 1.59677,2.14442 1.824998,2.21412 2.438883,0.74489 0.419711,-1.00451 1.94181,-2.38077 2.270041,-2.05254 0.07647,0.0765 -0.21602,0.84038 -0.649987,1.69758 -0.932926,1.84276 -0.979703,2.60609 -0.226922,3.70298 0.736705,1.07346 4.855846,5.10709 5.215363,5.10709 0.154641,0 0.971446,0.612 1.815123,1.36 3.948619,3.50082 6.726802,4.49299 6.534823,2.33377 -0.122008,-1.37225 0.637945,-1.22319 1.094294,0.21464 0.684959,2.15811 2.508529,3.54086 2.944564,2.23276 z m 5.914998,-0.55771 c 3.874638,-1.70358 11.802448,-6.53426 10.736108,-6.54187 -0.12243,-8.8e-4 -1.95352,0.79041 -4.06907,1.75841 -2.11555,0.968 -3.97518,1.76 -4.13251,1.76 -0.15733,0 -0.48472,-2.052 -0.72753,-4.56 l -0.44147,-4.56 -0.20365,2.24 c -0.11201,1.232 -0.22154,3.29115 -0.24341,4.57589 -0.0484,2.84237 -0.53313,3.87232 -2.440158,5.18439 -1.351748,0.93003 -1.693705,1.27972 -1.251425,1.27972 0.103488,0 1.351389,-0.51145 2.773115,-1.13654 z m 10.255238,-14.1131 0.89651,-0.16847 -0.25651,-2.29095 C 110.67543,121.51092 110.56,118.824 110.56,116.8 v -3.68 l 3.37304,-0.0902 3.37304,-0.0901 0.34375,-1.82985 c 0.4189,-2.22983 0.5076,-2.12812 -1.4835,-1.7011 -2.03902,0.43729 -5.12633,0.45826 -5.12633,0.0348 0,-0.73222 1.37687,-5.34071 1.7903,-5.99231 0.7061,-1.11286 0.61638,-1.14954 -2.39235,-0.97799 -3.64082,0.20759 -3.82839,0.33423 -2.58784,1.74713 0.56255,0.64072 0.91334,1.33328 0.81074,1.60065 -0.0995,0.25921 -0.18085,1.3671 -0.18085,2.46198 v 1.99069 l -1.75507,-0.19318 c -3.15433,-0.3472 -4.10343,-0.0931 -3.87718,1.03823 0.10574,0.52868 0.19225,1.23123 0.19225,1.56123 0,0.53932 0.27341,0.6 2.70335,0.6 h 2.70335 l -0.29097,0.88 c -0.39911,1.20703 -1.487,7.15539 -1.76026,9.62475 l -0.22406,2.02475 1.55429,-0.20534 c 0.85487,-0.11294 1.95773,-0.28115 2.45081,-0.3738 z m 12.84262,-9.40312 c 3.80524,-5.07981 7.86087,-13.1132 7.86087,-15.57081 0,-0.17051 -3.30863,-0.0476 -4.96,0.18429 -1.77047,0.24858 -1.55484,0.39043 1.52,0.99993 1.012,0.2006 1.84,0.42245 1.84,0.49302 0,1.11525 -5.60473,11.66803 -7.98069,15.02633 -2.35378,3.32693 -2.5456,3.68314 -1.46474,2.72 0.49377,-0.44 1.92683,-2.17374 3.18456,-3.85276 z M 97.759997,106.92798 C 100.39195,105.67848 103.404,102.4 101.92,102.4 c -0.264,0 -0.48,0.11065 -0.48,0.24588 0,0.94482 -4.192849,4.32171 -6.077931,4.89513 -0.652913,0.19861 -0.683053,0.24905 -0.162071,0.27123 0.352,0.015 1.504,-0.38293 2.559999,-0.88426 z m -0.573069,-4.00711 c 1.380724,-1.26534 1.90853,-4.513828 0.942511,-5.800873 -0.463838,-0.617979 -0.54376,-0.570003 -2.322849,1.394363 -1.760916,1.9443 -1.896582,2.02711 -3.064537,1.87045 -1.945621,-0.26096 -1.431609,1.63131 0.815293,3.00141 1.43249,0.87349 2.288399,0.76375 3.629582,-0.46535 z m -8.522856,-9.612025 c 1.268407,-1.067293 1.4842,-0.898887 0.634366,0.495063 -0.847558,1.390216 -0.852513,2.355831 -0.0053,1.033487 0.631261,-0.985288 2.84931,-2.677397 3.509582,-2.677397 0.185042,0 0.04015,0.40076 -0.321992,0.890578 -0.362139,0.489818 -0.733918,1.461818 -0.826178,2.16 l -0.167744,1.269422 0.453358,-0.973904 c 0.75683,-1.625821 1.35853,-2.000024 3.602318,-2.240313 3.192227,-0.341858 3.560753,-0.294867 4.962528,0.632783 1.76041,1.164987 1.26039,0.200748 -1.14137,-2.201014 -4.313055,-4.313054 -11.143338,-2.998837 -12.620553,2.428325 -0.304517,1.118768 -0.654247,2.394123 -0.77718,2.834122 -0.122932,0.44 0.2052,-0.0091 0.729183,-0.998 0.523983,-0.9889 1.410026,-2.182819 1.968985,-2.653152 z M 109.16,96.639998 c 0.55337,0 0.60286,-0.317085 0.6368,-4.08 0.0402,-4.458687 0.54506,-3.705256 0.58966,0.88 0.0128,1.32 0.15738,2.611951 0.32121,2.871003 0.44824,0.708783 19.21233,0.957253 19.21233,0.254405 0,-0.712647 -1.48108,-3.35088 -3.23664,-5.765408 -2.04915,-2.818331 -1.67545,-2.71899 1.59198,0.423192 1.47144,1.415035 2.71426,2.528694 2.76182,2.474799 0.57114,-0.647154 1.98026,-13.634226 2.29254,-21.128977 0.24189,-5.805413 0.25157,-5.786233 -2.46522,-4.883861 -1.38452,0.459863 -1.99564,0.491663 -3.9319,0.204596 -1.58055,-0.23433 -2.73982,-0.238125 -3.73258,-0.01222 -2.24709,0.511333 -7.59987,-0.20679 -9.74766,-1.307736 -2.65752,-1.362225 -3.03514,-0.517455 -3.05724,6.839365 -0.003,0.896962 -0.15567,1.84684 -0.33994,2.11084 -0.23612,0.33828 -0.27203,-0.822909 -0.12163,-3.932913 0.27045,-5.592212 0.12949,-5.997881 -2.35034,-6.764234 -1.74304,-0.538658 -4.1561,-1.504756 -6.96422,-2.788214 -2.430837,-1.111016 -2.540289,-0.852318 -0.901105,2.129812 1.399015,2.5452 1.257585,2.799206 -0.834475,1.498708 l -1.603393,-0.996724 v 11.194703 11.194702 l 0.854108,0.324731 c 0.787974,0.299588 0.967609,0.195145 2.319995,-1.348899 l 1.4659,-1.67363 0.37338,-3.859021 c 0.20536,-2.122462 0.38536,-5.479021 0.4,-7.459021 0.016,-2.16892 0.15382,-3.6 0.34662,-3.6 0.20324,0 0.32056,2.481028 0.32154,6.8 l 0.002,6.8 2.95846,-3.041827 c 7.3743,-7.582105 8.09638,-7.197186 1.30174,0.693912 -2.51882,2.92529 -3.94328,4.915593 -3.94328,5.509686 0,0.342733 2.06863,-0.469841 2.69561,-1.058856 0.58194,-0.546705 2.71332,-1.622915 3.21411,-1.622915 0.6822,0 -0.0762,0.952359 -1.18972,1.493956 -4.48652,2.182183 -5.77153,4.343218 -4.33761,7.294652 l 0.70239,1.445729 0.73761,-0.692949 0.73761,-0.692949 v 2.082447 c 0,2.394811 0.13608,2.625896 1.39777,2.373558 0.50723,-0.101444 1.19223,-0.184444 1.52223,-0.184444 z m 6.09594,-12 c 4.50502,-8.262695 5.45023,-9.685678 7.44371,-11.206179 1.42095,-1.083805 2.29194,-0.812531 1.61211,0.5021 l -0.4724,0.913523 1.96,0.09528 1.96,0.09528 -2.60896,1.387335 c -1.96186,1.043235 -3.5341,2.273463 -6.33894,4.96 -2.05149,1.964966 -3.65148,3.428665 -3.55552,3.252665 z m -50.615942,11.655484 2.08,-0.03326 -2.233328,-0.594349 c -2.051476,-0.545954 -2.279471,-0.552592 -2.8,-0.08152 -0.783933,0.709449 -0.70902,1.16643 0.153328,0.93533 0.396,-0.106124 1.656,-0.207917 2.8,-0.226207 z m -4.384892,-4.761684 c -1.202607,-2.672267 -1.273431,-2.942077 -2.355583,-8.9738 -0.552584,-3.08 -1.080506,-5.672 -1.173162,-5.76 -0.701761,-0.666498 1.257822,12.435321 2.225538,14.88 0.348344,0.88 0.773521,1.96 0.944837,2.4 l 0.311484,0.8 0.422577,-0.7862 c 0.371265,-0.690734 0.325646,-1.001588 -0.375691,-2.56 z m 3.680419,-0.196659 c 0.390533,-0.273539 2.082769,-2.216298 3.760526,-4.317243 1.677756,-2.100944 3.104267,-3.819898 3.170023,-3.819898 0.19721,0 1.795131,1.356707 3.187493,2.706325 0.718537,0.696479 2.170431,1.901739 3.226431,2.678356 1.056,0.776616 2.4675,1.93477 3.136666,2.573674 l 1.216667,1.161645 -0.698218,-1.6 c -0.38402,-0.88 -1.600718,-3.498803 -2.703772,-5.819561 -2.102077,-4.42264 -2.131211,-4.580439 -0.845664,-4.580439 0.439457,0 2.310946,-0.756 4.158866,-1.68 l 3.359853,-1.68 -3.812199,-0.263228 c -2.096709,-0.144775 -4.267382,-0.263905 -4.823716,-0.264733 -1.140672,-0.0017 -1.033902,0.241702 -2.040968,-4.652719 -0.345133,-1.677374 -0.627515,-3.489919 -0.627515,-4.027878 0,-1.545343 -0.353147,-0.830192 -1.90739,3.862615 l -1.45261,4.385943 -1.44,0.216281 c -0.792,0.118954 -3.492,0.226954 -6,0.24 -5.542002,0.02883 -5.714339,0.277286 -1.36,1.960718 0.616,0.238151 1.658783,0.81922 2.317295,1.291262 0.658512,0.472043 1.839514,0.954566 2.624449,1.072275 l 1.427155,0.214015 -1.083046,1.982724 c -0.595675,1.090499 -1.458366,2.986983 -1.917091,4.21441 -0.458725,1.227428 -1.27205,2.914257 -1.80739,3.748511 -0.535339,0.834254 -0.869128,1.68545 -0.741753,1.891546 0.157124,0.254233 0.349637,0.154148 0.59872,-0.311268 0.201922,-0.377294 0.686656,-0.909794 1.077188,-1.183333 z m 26.437963,-3.758186 c 0.543493,-0.397412 0.56249,-1.053583 0.338452,-11.690623 -0.130549,-6.198269 -0.279817,-11.227124 -0.331707,-11.175234 -0.05189,0.05189 -0.24726,3.908671 -0.434156,8.570624 -0.186895,4.661953 -0.424761,9.880278 -0.528591,11.596278 -0.191575,3.166188 -0.08695,3.461576 0.956002,2.698955 z M 56.211928,71.919998 c -0.08877,-0.22 -0.161403,-0.04 -0.161403,0.4 0,0.44 0.07263,0.62 0.161403,0.4 0.08877,-0.22 0.08877,-0.58 0,-0.8 z M 91.139315,59.92266 c -0.114702,-1.382814 -0.50494,-1.549768 -2.77689,-1.18803 l -1.482427,0.236031 1.12,0.285896 c 1.604382,0.40954 2.56,0.946148 2.56,1.437515 0,0.23426 0.152692,0.425926 0.339317,0.425926 0.196327,0 0.297464,-0.504562 0.24,-1.197338 z m 7.992885,-0.229747 1.8278,0.1597 -1.725071,-0.808086 c -1.934871,-0.906366 -2.602169,-0.711573 -2.585201,0.754654 0.0083,0.719154 0.05639,0.760743 0.332203,0.287425 0.265324,-0.45532 0.646395,-0.52509 2.150269,-0.393693 z m 3.0278,0.255156 c -0.22,-0.08877 -0.58,-0.08877 -0.8,0 -0.22,0.08877 -0.04,0.161403 0.4,0.161403 0.44,0 0.62,-0.07263 0.4,-0.161403 z"
     id="path1"
     transform="translate(-47.564645,-47.176214)" />
</svg>
