<?xml version="1.0" encoding="UTF-8" standalone="no"?>
<!-- Created with Inkscape (http://www.inkscape.org/) -->

<svg
   version="1.1"
   id="svg1"
   width="103.81074"
   height="82.08255"
   viewBox="0 0 103.81074 82.082552"
   sodipodi:docname="Icon_librarian.svg"
   inkscape:version="1.4.2 (ebf0e940d0, 2025-05-08)"
   xmlns:inkscape="http://www.inkscape.org/namespaces/inkscape"
   xmlns:sodipodi="http://sodipodi.sourceforge.net/DTD/sodipodi-0.dtd"
   xmlns="http://www.w3.org/2000/svg"
   xmlns:svg="http://www.w3.org/2000/svg">
  <defs
     id="defs1" />
  <sodipodi:namedview
     id="namedview1"
     pagecolor="#505050"
     bordercolor="#eeeeee"
     borderopacity="1"
     inkscape:showpageshadow="0"
     inkscape:pageopacity="0"
     inkscape:pagecheckerboard="0"
     inkscape:deskcolor="#505050"
     inkscape:zoom="1.3007615"
     inkscape:cx="57.274145"
     inkscape:cy="41.514145"
     inkscape:window-width="1838"
     inkscape:window-height="1011"
     inkscape:window-x="40"
     inkscape:window-y="47"
     inkscape:window-maximized="1"
     inkscape:current-layer="svg1" />
  <path
     style="fill:#0068ae"
     d="m 52.386327,133.6 c -1.182816,-1.72 -1.608547,-3.45209 -1.352397,-5.50225 l 0.212121,-1.69775 -1.223026,0.007 c -1.595164,0.009 -3.542749,0.91302 -5.206838,2.41642 -1.232391,1.11339 -1.322798,1.14692 -1.164423,0.43183 1.001539,-4.52209 1.536199,-6.53848 1.941597,-7.32244 0.550131,-1.06383 0.704513,-0.9611 -2.462306,-1.6385 -1.005918,-0.21518 -1.768162,-0.48957 -1.693875,-0.60977 0.07429,-0.1202 -0.498321,-0.84017 -1.272462,-1.59993 -4.065094,-3.98959 -3.896207,-9.88149 0.403088,-14.06242 1.007969,-0.98022 10.182396,-10.494212 20.387615,-21.142212 30.642088,-31.971576 28.26564,-29.615492 29.763321,-29.50828 2.088615,0.149514 10.188048,0.678819 10.881258,0.711099 0.352,0.01639 1.648,-0.11163 2.88,-0.284492 1.9757,-0.27721 25.0249,-1.007563 31.5858,-1.000849 l 2.46581,0.0025 -0.47799,1.354761 c -0.26289,0.745119 -0.69463,1.6854 -0.95942,2.089513 -0.46451,0.708932 -0.45283,0.727575 0.33219,0.530547 1.06414,-0.267083 1.05073,0.23699 -0.0445,1.672928 l -0.85811,1.125047 1.03845,0.812716 1.03846,0.812716 -0.98034,0.596182 c -1.13785,0.691966 -1.17176,0.823686 -0.42459,1.649294 0.52767,0.583068 0.52767,0.634634 0,1.020475 -0.73312,0.536068 -0.70144,0.961026 0.11189,1.501058 0.5883,0.390618 0.62133,0.544946 0.27793,1.298625 -0.652,1.430993 -0.24003,1.856137 1.79862,1.856137 1.5138,0 1.77301,0.08149 1.61004,0.506172 -0.10683,0.278395 -0.19423,0.618594 -0.19423,0.755999 0,0.137404 -0.41282,0.769293 -0.91738,1.404197 -0.78434,0.986965 -3.07091,6.807235 -4.54684,11.573632 -0.218,0.704 -0.81814,2.216 -1.33366,3.36 -0.88312,1.959753 -4.06215,10.904378 -8.24556,23.200005 -3.56018,10.46386 -6.66013,19.54071 -7.52445,22.03206 l -0.87151,2.51206 -1.0003,-0.20143 c -0.55017,-0.11079 -3.6643,-0.69925 -6.9203,-1.30769 -3.256,-0.60844 -8.512,-1.59873 -11.680003,-2.20064 -33.04451,-6.2784 -37.797434,-7.18858 -40.103772,-7.67987 -2.007653,-0.42766 -2.02605,-0.42511 -2.30944,0.32026 -0.681163,1.7916 -1.355271,5.00538 -1.704312,8.12525 l -0.375907,3.36 z m 60.572383,-3.6824 c -0.20522,-0.38347 -0.28345,-1.05454 -0.17384,-1.49127 0.10961,-0.43673 0.0193,-1.29189 -0.20074,-1.90035 -0.33976,-0.93957 -0.32166,-1.23547 0.12006,-1.96347 0.48637,-0.80158 0.47983,-0.93615 -0.10087,-2.0744 -0.46628,-0.914 -0.53953,-1.36938 -0.29404,-1.82809 0.17981,-0.33598 0.49114,-1.37654 0.69183,-2.31235 0.2007,-0.93581 0.57811,-2.02686 0.8387,-2.42457 0.26059,-0.39771 0.38495,-0.7231 0.27637,-0.7231 -0.40967,0 -58.154135,-7.686 -62.436181,-8.31048 -4.484544,-0.65402 -9.017607,-0.6205 -8.594843,0.0635 0.345526,0.55908 -1.860699,2.48694 -2.846022,2.48694 -0.903967,0 -0.909242,0.0109 -0.425386,0.88 0.269462,0.484 0.716279,1.69581 0.992925,2.69292 1.095977,3.95018 6.068257,6.48187 7.587501,3.86325 l 0.554175,-0.9552 -1.911224,-0.37601 c -1.237801,-0.24352 -2.020113,-0.57947 -2.220261,-0.95345 -0.268231,-0.50119 -0.198957,-0.5564 0.524608,-0.41808 0.573927,0.10971 0.763099,0.0452 0.607201,-0.20704 -0.279111,-0.45161 -0.133259,-0.45273 2.223315,-0.0171 1.870027,0.34569 1.897044,0.33991 2.617182,-0.56 0.834293,-1.04257 0.889145,-1.28794 0.330829,-1.47991 -0.22,-0.0756 -0.112,-0.0733 0.24,0.005 0.465021,0.10367 8.264327,1.27183 9.051536,1.35571 0.05035,0.005 -0.273326,0.5467 -0.719269,1.20296 -1.025543,1.50923 -2.964242,1.00086 17.507008,4.59072 9.459602,1.65884 17.064729,3.06103 16.900282,3.11598 -0.164447,0.0549 -4.952121,-0.63961 -10.639276,-1.54347 -18.079606,-2.8734 -20.485403,-3.23798 -20.601378,-3.122 -0.0624,0.0624 5.421466,1.10653 12.186371,2.32029 6.764905,1.21376 12.243408,2.26326 12.17445,2.33222 -0.150764,0.15076 -5.223674,-0.65413 -18.878114,-2.99529 -8.23962,-1.41274 -10.288597,-1.67259 -10.580943,-1.34183 C 57.211108,118.45157 56.616703,120 56.927585,120 c 0.262643,0 12.309591,2.30886 42.272412,8.10175 15.129793,2.92513 14.293303,2.81474 13.758713,1.81585 z m -19.258712,-6.6162 c 0.231,-0.0924 0.507,-0.0811 0.613333,0.0253 0.106333,0.10634 -0.08267,0.18197 -0.42,0.16807 -0.372782,-0.0153 -0.448608,-0.0912 -0.193333,-0.19333 z m -1.94,-0.31333 c 0.22,-0.0888 0.58,-0.0888 0.8,0 0.22,0.0888 0.04,0.1614 -0.4,0.1614 -0.44,0 -0.62,-0.0726 -0.4,-0.1614 z m 7.039999,0 c 0.22,-0.0888 0.58,-0.0888 0.8,0 0.22,0.0888 0.04,0.1614 -0.4,0.1614 -0.44,0 -0.62,-0.0726 -0.4,-0.1614 z M 88.479998,122.56 c -0.856323,-0.2179 -0.873602,-0.24428 -0.16,-0.24428 0.44,0 1.232,0.10992 1.76,0.24428 0.856322,0.21789 0.873602,0.24428 0.16,0.24428 -0.44,0 -1.232,-0.10993 -1.76,-0.24428 z m 8.399999,0.10807 c 0.22,-0.0888 0.58,-0.0888 0.8,0 0.22,0.0888 0.04,0.1614 -0.4,0.1614 -0.44,0 -0.619999,-0.0726 -0.4,-0.1614 z m -1.919999,-0.32 c 0.22,-0.0888 0.58,-0.0888 0.8,0 0.22,0.0888 0.04,0.1614 -0.4,0.1614 -0.44,0 -0.62,-0.0726 -0.4,-0.1614 z m 5.02865,-1.89986 c -4.217758,-0.74624 -14.36465,-2.52794 -22.54865,-3.95934 -8.184,-1.43141 -15.024,-2.66802 -15.2,-2.74804 -0.535586,-0.24349 1.069465,-0.0192 14.72,2.05661 3.344,0.50852 12.087239,1.83311 19.42942,2.94353 10.193082,1.54159 13.273952,2.10988 13.030232,2.40355 -0.61375,0.73952 -1.81829,0.65058 -9.431002,-0.69631 z m 3.137442,-5.46997 c 0.31135,-0.0811 0.74335,-0.0758 0.96,0.0119 0.21665,0.0876 -0.0381,0.15403 -0.56609,0.14751 -0.528,-0.007 -0.70526,-0.0782 -0.39391,-0.15937 z m -3.04236,-0.32457 c 0.39805,-0.0765 0.97405,-0.0736 1.28,0.006 0.30595,0.0801 -0.0197,0.14272 -0.72373,0.13917 -0.704003,-0.004 -0.954324,-0.0691 -0.55627,-0.14563 z m -16.243732,-1.54836 c -22.549399,-2.40963 -25.003456,-2.67122 -30.319999,-3.23188 -4.926855,-0.51956 -5.2,-0.58429 -5.2,-1.23226 v -0.68389 l 8.24,1.04399 c 4.531999,0.57419 15.727999,1.98871 24.879999,3.14337 18.500696,2.33413 18.433677,2.32471 16.639999,2.33689 -0.704,0.005 -7.111999,-0.61452 -14.239999,-1.37622 z m -35.279999,-1.63724 c 0.22,-0.0888 0.58,-0.0888 0.8,0 0.22,0.0888 0.04,0.1614 -0.4,0.1614 -0.44,0 -0.62,-0.0726 -0.4,-0.1614 z M 124.14902,105.76 c 11.75951,-33.608121 11.83771,-33.826837 12.49643,-34.952588 0.54582,-0.932788 0.55483,-1.060226 0.0932,-1.318558 -0.57264,-0.320464 -1.80298,-4.48808 -1.76209,-5.968856 0.0286,-1.035695 0.13874,-1.309776 -6.42995,16 -2.20401,5.808 -6.05917,15.96 -8.56702,22.560002 -6.50699,17.12468 -7.79666,24.12359 -5.18676,28.14802 l 0.51105,0.78802 0.39171,-1.10802 c 0.21544,-0.60941 4.01948,-11.47602 8.45342,-24.14802 z m -9.12266,20.85959 c -0.15161,-0.60407 0.84678,-3.54272 3.84516,-11.31776 2.22746,-5.77601 5.00211,-12.98433 6.16587,-16.018498 3.8623,-10.069757 2.41023,-5.504506 -3.58804,11.280658 -6.42812,17.98805 -6.12694,17.23517 -6.42299,16.0556 z M 114.56,121.29213 c 0,-1.50226 20.60484,-52.265827 20.92415,-51.550231 0.22531,0.504939 -0.35994,2.262553 -2.58897,7.77526 C 114.12327,123.94259 114.56,122.89992 114.56,121.29213 Z m 12.8098,-28.012132 c 0,-0.176 0.13959,-0.536 0.3102,-0.8 0.17061,-0.264 0.3102,-0.336 0.3102,-0.16 0,0.176 -0.13959,0.536 -0.3102,0.8 -0.17061,0.264 -0.3102,0.336 -0.3102,0.16 z M 61.839998,117.22807 c -0.22,-0.0888 -0.58,-0.0888 -0.8,0 -0.22,0.0888 -0.04,0.1614 0.4,0.1614 0.44,0 0.62,-0.0726 0.4,-0.1614 z m -1.6,-0.32 c -0.22,-0.0888 -0.58,-0.0888 -0.8,0 -0.22,0.0888 -0.04,0.1614 0.4,0.1614 0.44,0 0.62,-0.0726 0.4,-0.1614 z m 38.719999,-8.32 c -0.22,-0.0888 -0.58,-0.0888 -0.8,0 -0.22,0.0888 -0.04,0.1614 0.4,0.1614 0.44,0 0.62,-0.0726 0.4,-0.1614 z m -2.233909,-0.31797 c -0.216651,-0.0877 -0.648651,-0.093 -0.96,-0.0119 -0.31135,0.0811 -0.13409,0.15285 0.39391,0.15937 0.528,0.007 0.78274,-0.0599 0.56609,-0.14751 z m -2.40609,-0.33069 c -0.308,-0.0805 -0.812,-0.0805 -1.12,0 -0.308,0.0805 -0.056,0.14635 0.56,0.14635 0.616,0 0.868,-0.0659 0.56,-0.14635 z m -2.24,-0.32 c -0.308,-0.0805 -0.812,-0.0805 -1.12,0 -0.308,0.0805 -0.056,0.14635 0.56,0.14635 0.616,0 0.868,-0.0659 0.56,-0.14635 z m -8.72,-1.22019 c -3.872,-0.58197 -12.152,-1.79542 -18.4,-2.69656 -6.248,-0.90114 -11.840791,-1.72532 -12.428426,-1.8315 l -1.068427,-0.19305 1.548427,-1.43428 c 0.851635,-0.788848 1.85722,-1.64102 2.234634,-1.893714 0.414659,-0.277629 0.627435,-0.684191 0.537687,-1.027386 -0.09654,-0.369163 0.27929,-0.956415 1.073792,-1.677858 0.672273,-0.610453 1.867108,-1.89628 2.655191,-2.857394 0.788083,-0.961114 5.329062,-6.13948 10.091065,-11.50748 7.189656,-8.104587 20.680615,-23.34856 21.647191,-24.460024 0.144172,-0.165782 6.312033,-0.475124 13.784888,-0.691364 L 118.56,55.737269 105.28942,55.906468 C 92.724165,56.066673 92.043304,56.046182 92.47923,55.520924 92.890579,55.025278 92.874178,54.978785 92.325272,55.084495 91.669323,55.210819 90.003219,57.003752 65.356318,84.106411 46.990572,104.30208 48.406377,102.6745 49.3572,102.4986 c 0.769433,-0.14234 12.212728,1.3041 34.482798,4.35867 2.376,0.32589 4.824,0.59423 5.44,0.5963 0.616,0.002 -2.048,-0.47238 -5.92,-1.05435 z m -20,-9.455609 c 1.278398,-0.189863 0.91124,-0.213345 -1.34177,-0.08581 -1.705973,0.09657 -3.577973,0.290472 -4.16,0.430901 -1.265153,0.305252 2.868727,0.04596 5.50177,-0.345087 z M 113.35226,77.761194 c 0.65016,-0.396399 1.6137,-0.639258 2.5392,-0.64 l 1.49146,-0.0012 3.86854,-6.975545 c 4.09217,-7.378787 4.11328,-7.424455 3.43169,-7.424455 -0.24026,0 -0.80298,-0.288 -1.25047,-0.64 -1.28161,-1.008113 -26.356034,-0.994501 -27.773857,0.01508 -0.505984,0.360292 -1.485769,0.756292 -2.177301,0.88 -1.313638,0.234995 -1.118449,0.0334 -10.52168,10.867124 l -1.737829,2.002201 0.988992,0.197799 c 0.543946,0.108789 0.988993,0.395798 0.988993,0.637798 0,0.31409 0.480746,0.447595 1.68,0.46654 0.924,0.0146 6.504,0.283232 12.399999,0.596967 14.725013,0.78354 14.815993,0.78364 16.072263,0.01769 z"
     id="path1"
     transform="translate(-37.22595,-52.79741)" />
</svg>
