<?xml version="1.0" encoding="UTF-8" standalone="no"?>
<!-- Created with Inkscape (http://www.inkscape.org/) -->

<svg
   version="1.1"
   id="svg1"
   width="90.900154"
   height="108.63548"
   viewBox="0 0 90.900156 108.63548"
   sodipodi:docname="Icon_ravenkeeper.svg"
   inkscape:version="1.4.2 (ebf0e940d0, 2025-05-08)"
   xmlns:inkscape="http://www.inkscape.org/namespaces/inkscape"
   xmlns:sodipodi="http://sodipodi.sourceforge.net/DTD/sodipodi-0.dtd"
   xmlns="http://www.w3.org/2000/svg"
   xmlns:svg="http://www.w3.org/2000/svg">
  <defs
     id="defs1" />
  <sodipodi:namedview
     id="namedview1"
     pagecolor="#505050"
     bordercolor="#eeeeee"
     borderopacity="1"
     inkscape:showpageshadow="0"
     inkscape:pageopacity="0"
     inkscape:pagecheckerboard="0"
     inkscape:deskcolor="#505050"
     inkscape:zoom="1.3007615"
     inkscape:cx="45.742438"
     inkscape:cy="59.196096"
     inkscape:window-width="1838"
     inkscape:window-height="1011"
     inkscape:window-x="40"
     inkscape:window-y="47"
     inkscape:window-maximized="1"
     inkscape:current-layer="svg1" />
  <path
     style="fill:#0061aa"
     d="m 55.519999,144.16801 c -0.176,-0.0616 -0.716,-0.19937 -1.2,-0.30612 -1.384381,-0.30533 -1.165587,-1.56341 0.728805,-4.19069 l 1.608805,-2.2312 -1.719658,-0.16 c -3.746888,-0.34862 -3.772622,-1.91396 -0.120999,-7.36 0.885072,-1.32 2.428932,-4.22259 3.4308,-6.45019 1.310286,-2.91335 2.321231,-4.63914 3.601693,-6.14848 1.709151,-2.01465 2.405017,-3.25354 2.035194,-3.62336 -0.204844,-0.20484 -3.750245,2.92417 -6.36076,5.61371 -2.309364,2.37928 -3.707998,3.08418 -5.950038,2.99876 -4.138696,-0.15768 -3.526134,-1.57933 4.260791,-9.88854 2.662113,-2.84067 4.740103,-5.37953 5.467303,-6.67989 0.645175,-1.15368 1.811563,-2.84559 2.591972,-3.75981 0.780409,-0.91421 2.059169,-2.75423 2.841689,-4.088929 L 68.158359,95.466544 66.41805,92.293271 C 49.232916,60.957956 81.085673,25.530764 115.01777,38.239818 c 26.16351,9.799381 33.39842,43.46606 13.66757,63.600182 -1.96095,2.00103 -2.29714,2.48 -1.74069,2.48 0.3793,0 0.88808,-0.19845 1.13062,-0.44099 0.24254,-0.24254 0.93682,-0.5471 1.54285,-0.6768 0.60603,-0.1297 1.95753,-0.58041 3.00333,-1.00157 2.12456,-0.8556 2.52113,-0.71357 2.21945,0.79484 -0.15528,0.77641 -0.508,1.18899 -1.40975,1.64903 -0.66146,0.33745 -1.97407,1.32473 -2.9169,2.19395 l -1.71425,1.5804 0.78518,0.84058 c 0.43185,0.46232 1.54785,1.06229 2.48,1.33327 1.55946,0.45335 1.69482,0.56924 1.69482,1.45103 0,2.44521 -0.76423,2.62047 -6.08431,1.39527 -3.04818,-0.70199 -3.86544,-0.77121 -6.6121,-0.56 l -3.13403,0.24099 -0.19705,1.21627 c -0.36356,2.24398 -2.33681,2.68889 -2.41152,0.54373 -0.0215,-0.616 -0.0574,-1.3 -0.08,-1.52 -0.0234,-0.22813 -0.48099,-0.4 -1.06499,-0.4 -0.79645,0 -0.93867,0.0853 -0.64,0.384 1.32191,1.32191 -0.11221,4.17992 -2.30376,4.59106 -1.7971,0.33714 -2.47621,-0.39244 -1.266,-1.36009 1.2659,-1.01218 0.55779,-2.52628 -1.14298,-2.44393 -3.05706,0.14801 -3.99707,0.79253 -1.76625,1.21104 0.67514,0.12665 1.09268,0.37106 1.01866,0.59627 -0.17813,0.54207 -2.6446,0.65623 -4.72003,0.21846 -3.847976,-0.81166 -7.322561,2.36225 -3.987196,3.64215 0.910886,0.34954 0.176972,0.80053 -1.110893,0.68264 -2.221328,-0.20332 -3.537553,-1.52095 -3.537553,-3.54132 0,-0.79603 -0.0713,-0.83813 -1.094287,-0.64622 -0.633141,0.11878 -2.08177,-0.0193 -3.437561,-0.32768 -2.020109,-0.45946 -2.625613,-0.47684 -4.390514,-0.12604 -4.382388,0.87108 -5.872933,0.51049 -5.734719,-1.38733 l 0.09708,-1.33301 5.12,-0.02 c 4.649649,-0.0182 9.323907,-0.36273 9.021652,-0.66499 -0.06595,-0.066 -1.255621,-0.41738 -2.643716,-0.78095 -1.388094,-0.36358 -3.822987,-1.16329 -5.410872,-1.77715 -4.714718,-1.82264 -5.164716,-1.55623 -7.370019,4.36312 -3.089758,8.29335 -4.274102,12.13945 -4.793438,15.56647 -0.887646,5.85743 -1.333986,6.70462 -4.046109,7.67989 -1.495977,0.53794 -1.621887,0.67992 -2.846344,3.20965 -0.704621,1.45574 -1.530885,2.7754 -1.836142,2.93256 -0.547241,0.28175 -9.213371,0.75708 -9.835011,0.53944 z m 41.439998,-32.66338 c 0,-0.7759 -2.40074,-3.69802 -3.630097,-4.41847 -0.805776,-0.47222 -1.580471,-1.06483 -1.721545,-1.31691 -0.231062,-0.41289 -5.324954,1.12068 -6.01521,1.81093 -0.272201,0.2722 4.733051,2.43566 7.58708,3.27942 2.654068,0.78465 3.779772,0.97675 3.779772,0.64503 z m 7.584953,-1.70874 c 0.69264,-0.35597 0.68006,-0.3879 -0.72,-1.82846 -0.78373,-0.8064 -1.42495,-1.58579 -1.42495,-1.73198 0,-0.1462 -0.50698,-0.43314 -1.12662,-0.63764 -0.6313,-0.20834 -1.569326,-0.9227 -2.133559,-1.62481 -0.939235,-1.16876 -2.212218,-1.66316 -2.60824,-1.013 -0.355623,0.58383 2.587757,6.02798 3.811329,7.04952 0.6914,0.57724 1.40109,1.17482 1.57709,1.32794 0.19154,0.16665 0.64115,-0.0142 1.12,-0.45042 0.44,-0.40087 1.11722,-0.89188 1.50495,-1.09115 z m 19.62544,-1.01531 c 0.34502,-0.64468 0.33098,-0.64807 -0.62875,-0.15178 -1.13778,0.58837 -1.23472,0.8112 -0.3529,0.8112 0.34581,0 0.78755,-0.29674 0.98165,-0.65942 z m -13.59304,-0.50138 c 0.65488,-0.42909 1.28741,-0.48227 3.59211,-0.30197 l 2.79726,0.21882 3.35664,-2.22454 C 143.80785,90.407627 141.74779,54.276305 116.6804,42.077792 86.931616,27.601177 55.573382,58.847526 68.725692,89.861401 c 1.264198,2.981047 1.345889,2.985332 2.627777,0.137829 l 0.756648,-1.680767 -0.725848,-0.77263 c -0.906577,-0.965008 -0.809308,-1.141794 2.114233,-3.842582 2.366305,-2.186009 2.768561,-2.913338 3.163004,-5.719107 0.244156,-1.736738 0.802131,-2.464146 1.890181,-2.464146 0.642746,0 0.836873,-0.298902 1.40285,-2.16 1.698195,-5.584167 4.390616,-8.4 8.031847,-8.4 1.01235,0 1.299871,-0.172217 1.96,-1.173987 0.988901,-1.500694 1.138953,-1.569245 4.781608,-2.184458 3.801714,-0.642077 3.990733,-0.756824 3.947738,-2.396534 -0.06492,-2.475964 -1.614771,-3.200304 -4.746397,-2.218282 -1.831579,0.57435 -4.009335,0.813625 -4.009335,0.440513 0,-2.02658 4.281037,-5.40686 7.372855,-5.82156 0.980548,-0.131519 1.498738,-0.432029 2.096597,-1.215861 2.41477,-3.165929 12.37282,-3.622249 17.0321,-0.780483 2.05165,1.251338 3.83327,7.191861 3.40416,11.350652 -0.18919,1.833521 -0.15472,1.96135 0.76529,2.838032 3.31991,3.163546 2.26155,7.952906 -4.9239,22.281968 -1.45624,2.904 -2.80469,5.856 -2.99656,6.56 -1.14244,4.191727 -4.57542,8.111092 -5.34589,6.103284 -0.16605,-0.432724 -0.29654,-0.414531 -1.00095,0.139561 -0.87913,0.691523 -2.6437,0.867613 -2.6437,0.263821 0,-0.205333 -0.0821,-0.291288 -0.18233,-0.19101 -0.10027,0.100278 0.14356,0.808278 0.54186,1.573336 0.3983,0.76505 0.87635,2.12463 1.06233,3.02127 0.29918,1.44245 0.57776,1.83772 2.41814,3.43109 2.42468,2.09924 2.0664,1.94715 3.05735,1.29785 z"
     id="path1"
     transform="translate(-49.04276,-35.58792)" />
</svg>
