<?xml version="1.0" encoding="UTF-8" standalone="no"?>
<!-- Created with Inkscape (http://www.inkscape.org/) -->

<svg
   version="1.1"
   id="svg1"
   width="125.13488"
   height="70.77301"
   viewBox="0 0 125.13488 70.773012"
   sodipodi:docname="Icon_undertaker.svg"
   inkscape:version="1.4.2 (ebf0e940d0, 2025-05-08)"
   xmlns:inkscape="http://www.inkscape.org/namespaces/inkscape"
   xmlns:sodipodi="http://sodipodi.sourceforge.net/DTD/sodipodi-0.dtd"
   xmlns="http://www.w3.org/2000/svg"
   xmlns:svg="http://www.w3.org/2000/svg">
  <defs
     id="defs1" />
  <sodipodi:namedview
     id="namedview1"
     pagecolor="#505050"
     bordercolor="#eeeeee"
     borderopacity="1"
     inkscape:showpageshadow="0"
     inkscape:pageopacity="0"
     inkscape:pagecheckerboard="0"
     inkscape:deskcolor="#505050"
     inkscape:zoom="2.6015229"
     inkscape:cx="62.463413"
     inkscape:cy="39.592194"
     inkscape:window-width="1838"
     inkscape:window-height="1011"
     inkscape:window-x="40"
     inkscape:window-y="47"
     inkscape:window-maximized="1"
     inkscape:current-layer="svg1" />
  <path
     style="fill:#0064ac"
     d="m 45.439999,128.15486 c -5.740279,-1.17291 -12.085622,-4.97038 -12.7564,-7.63428 -1.311859,-5.20986 0.778586,-12.06551 5.0764,-16.64813 3.591778,-3.8298 5.414235,-4.767595 15.698977,-8.078355 9.558242,-3.076892 10.908173,-3.435576 11.193358,-2.974137 0.665687,1.077103 1.63824,4.927159 1.464314,5.796791 -0.113178,0.56589 6.03e-4,1.316475 0.282074,1.860781 0.362605,0.7012 0.380312,0.94419 0.07652,1.05012 -0.775276,0.27034 2.348837,0.60453 3.629148,0.38823 1.50918,-0.25498 19.208794,-8.950423 19.591506,-9.624895 0.140745,-0.248043 0.531241,-0.450987 0.867768,-0.450987 0.336528,0 3.173372,-1.243125 6.304099,-2.762501 8.622257,-4.184472 10.892787,-5.227073 22.278257,-10.229943 11.27883,-4.956011 18.25974,-8.120483 25.24581,-11.444027 l 4.39183,-2.089364 -0.43891,-1.217082 c -0.2414,-0.669396 -0.74219,-1.914091 -1.11285,-2.76599 -0.80433,-1.848579 -0.82675,-1.799285 1.26387,-2.77848 l 1.65777,-0.77646 0.76738,0.951924 c 5.12699,6.359924 7.97363,13.803953 5.73954,15.009022 -2.06735,1.115132 -2.17436,1.063577 -4.09074,-1.9708 -1.47703,-2.338704 -1.16892,-2.254539 -3.96571,-1.083312 -4.01713,1.682275 -6.19354,2.738703 -28.92401,14.03969 -12.408,6.168927 -25.944005,12.760994 -30.080005,14.649038 -4.136,1.888047 -8.744,4.045397 -10.24,4.794117 -5.163506,2.58425 -9.126105,8.15417 -5.801109,8.15417 0.830085,0 2.76626,1.97545 4.01267,4.09407 0.520072,0.88401 -0.946597,2.01789 -6.749991,5.21844 -10.405539,5.73861 -18.737995,7.87982 -25.381569,6.52235 z m 8.181229,-2.10568 c 1.044324,-0.19295 2.042771,-0.44083 2.218771,-0.55085 0.524876,-0.32811 -4.096639,-0.97935 -4.698963,-0.66216 -3.34841,1.76333 -15.328958,-3.09311 -16.138693,-6.54198 -0.153218,-0.6526 -0.288128,-0.78678 -0.482606,-0.48 -2.539822,4.00642 10.818359,9.76537 19.101491,8.23499 z m -3.603423,-7.0461 c 3.058974,-0.47462 6.974791,-1.88696 10.595447,-3.82152 3.624721,-1.93674 3.629534,-1.9368 5.032127,-0.0616 1.77103,2.36783 1.77473,2.25362 -0.101748,3.14099 -1.880256,0.88915 -1.833725,0.88175 1.925804,-0.30588 1.443087,-0.45587 3.232818,-1.14172 3.977179,-1.5241 l 1.353384,-0.69524 -0.97603,-0.4027 c -0.975438,-0.40246 -3.442928,-2.82995 -3.719271,-3.65898 -0.121615,-0.36484 -0.439912,-0.34873 -1.885506,0.0954 -1.445736,0.44421 -5.245069,1.17912 -6.141973,1.18805 -0.133529,0.001 -1.069529,0.76136 -2.08,1.68896 -2.025244,1.85916 -4.516575,2.85103 -10.157219,4.04391 -3.396638,0.71832 -1.859295,0.93901 2.177806,0.31263 z m -8.438793,-12.07436 c 3.660611,-3.14016 6.385829,-5.07033 7.547088,-5.34533 0.524644,-0.12424 2.598879,-0.94878 4.60941,-1.832317 l 3.655512,-1.606426 0.717009,0.833574 c 0.623345,0.724681 0.76899,0.77094 1.114926,0.354113 0.485906,-0.585481 0.745521,-0.32977 1.24166,1.222996 0.360862,1.12938 0.332102,1.24055 -0.521344,2.01504 l -0.903275,0.81972 1.668511,-0.81461 c 2.193054,-1.07072 2.789691,-6.575482 0.712687,-6.575482 -0.801874,0 -9.680153,2.743591 -11.396216,3.521691 -4.701674,2.131841 -9.655312,6.171831 -11.59166,9.453701 -0.82237,1.39381 -0.998959,1.5087 3.145692,-2.04667 z m 9.487305,1.67966 c 1.15786,-0.48379 4.933682,-3.18226 4.933682,-3.52597 0,-0.18847 0.02504,-0.20337 -3.670759,2.18353 -3.040284,1.96354 -3.228652,2.16377 -1.262923,1.34244 z m 29.818919,-8.644677 c -0.209573,-0.459962 -0.4361,-0.671121 -0.503393,-0.469241 -0.06729,0.201879 0.05289,0.578208 0.267084,0.836298 0.580409,0.69935 0.663435,0.57038 0.236309,-0.367057 z m 12.921428,-5.173067 c -0.238333,-0.08041 -0.742333,0.174016 -1.12,0.565384 l -0.686666,0.711579 1.12,-0.565384 c 0.675969,-0.341234 0.948202,-0.623344 0.686666,-0.711579 z M 107.28,88.172936 c 6.85531,-3.726407 7.4555,-4.117645 4.16,-2.711739 -1.188,0.506817 -2.39569,0.925382 -2.68375,0.930143 -0.28807,0.0048 -2.73607,1.4612 -5.44,3.236529 -5.168044,3.39319 -6.185362,4.141726 -3.796253,2.793257 C 100.312,91.974102 103.804,90.062417 107.28,88.172936 Z m 12.62649,-6.882587 c 1.5294,-0.394983 2.29363,-1.117479 0.84032,-0.794437 -1.77078,0.393607 -2.98067,0.835268 -3.18243,1.161714 -0.12491,0.202117 0.029,0.262725 0.39554,0.155701 0.33004,-0.09638 1.206,-0.33172 1.94657,-0.522978 z m 21.35129,-9.259235 c -0.17593,-0.17593 -6.83249,3.193195 -7.07305,3.579926 -0.0859,0.138073 1.50534,-0.576004 3.53605,-1.586838 2.03071,-1.010835 3.62236,-1.907724 3.537,-1.993088 z m 15.06331,-0.296685 c -0.0984,-0.09838 -0.49887,0.154485 -0.88998,0.561925 l -0.71111,0.740799 0.88998,-0.561924 c 0.4895,-0.309058 0.8095,-0.642418 0.71111,-0.7408 z M 151.1234,65.95069 c -1.18987,-2.271119 -2.20788,-4.086645 -2.26223,-4.034503 -0.29651,0.284426 3.83959,8.163811 4.2854,8.163811 0.0771,0 -0.8333,-1.858188 -2.02317,-4.129308 z m -1.68516,2.19047 c 0.0116,-1.180618 -0.93746,-1.403702 -2.57036,-0.60419 l -1.66499,0.815224 2.1168,-0.0161 c 1.16424,-0.0089 2.11759,-0.09658 2.11855,-0.194936 z M 152.32,65.279998 c -0.35916,-0.704 -0.72501,-1.28 -0.81301,-1.28 -0.088,0 0.13385,0.576 0.49301,1.28 0.35915,0.704 0.725,1.28 0.813,1.28 0.088,0 -0.13385,-0.576 -0.493,-1.28 z"
     id="path1"
     transform="translate(-32.2952,-57.776151)" />
</svg>
