<?xml version="1.0" encoding="UTF-8" standalone="no"?>
<!-- Created with Inkscape (http://www.inkscape.org/) -->

<svg
   version="1.1"
   id="svg1"
   width="101.3541"
   height="85.119949"
   viewBox="0 0 101.35411 85.119952"
   sodipodi:docname="Icon_mayor.svg"
   inkscape:version="1.4.2 (ebf0e940d0, 2025-05-08)"
   xmlns:inkscape="http://www.inkscape.org/namespaces/inkscape"
   xmlns:sodipodi="http://sodipodi.sourceforge.net/DTD/sodipodi-0.dtd"
   xmlns="http://www.w3.org/2000/svg"
   xmlns:svg="http://www.w3.org/2000/svg">
  <defs
     id="defs1" />
  <sodipodi:namedview
     id="namedview1"
     pagecolor="#505050"
     bordercolor="#eeeeee"
     borderopacity="1"
     inkscape:showpageshadow="0"
     inkscape:pageopacity="0"
     inkscape:pagecheckerboard="0"
     inkscape:deskcolor="#505050"
     inkscape:zoom="1.3007615"
     inkscape:cx="50.355121"
     inkscape:cy="49.97073"
     inkscape:window-width="1838"
     inkscape:window-height="1011"
     inkscape:window-x="40"
     inkscape:window-y="47"
     inkscape:window-maximized="1"
     inkscape:current-layer="svg1" />
  <path
     style="fill:#0161aa"
     d="m 63.839998,129.28 -19.519999,-0.16 -0.09241,-2.60702 c -0.166594,-4.69993 -0.215897,-4.68864 19.403682,-4.44561 12.520381,0.15509 15.519402,0.27749 16.761536,0.68409 0.832045,0.27236 1.670705,0.39761 1.863689,0.27834 0.192983,-0.11927 0.712973,0.12223 1.155532,0.53667 0.739528,0.69254 1.036863,0.74629 3.673736,0.66414 2.496401,-0.0778 2.992818,-0.001 3.821657,0.58891 0.523916,0.37307 2.091593,1.23491 3.483728,1.91521 2.181355,1.06597 3.779067,2.4532 2.980106,2.5875 -0.710511,0.11944 -16.185448,0.1 -33.531258,-0.0422 z M 100.8,127.69359 c -2.376003,-1.02168 -4.975904,-2.23131 -5.77756,-2.68806 -1.548948,-0.88252 -4.61569,-1.46842 -7.742442,-1.47919 -1.012,-0.003 -1.84,-0.13325 -1.84,-0.28835 0,-0.83638 3.422727,-0.99799 21.136392,-0.99799 h 18.29299 l -0.22056,0.88 c -0.58787,2.34557 -1.56321,3.93041 -3.19231,5.18725 l -1.67563,1.29275 -7.33044,-0.0244 -7.33044,-0.0244 z m 20.64,1.39022 c 0.352,-0.2727 0.856,-0.66413 1.12,-0.86982 0.264,-0.2057 1.02964,-1.05799 1.70142,-1.89399 0.70539,-0.87783 1.48554,-1.52 1.84658,-1.52 0.34384,0 1.85399,-0.5977 3.3559,-1.32822 l 2.73073,-1.32821 5.43841,0.22077 5.43841,0.22077 0.94331,1.02744 c 1.04161,1.13452 1.15378,1.47113 1.38205,4.14745 l 0.15694,1.84 -12.37687,-0.0102 c -11.24054,-0.009 -12.31812,-0.0557 -11.73688,-0.50601 z M 84.099998,122.3414 c 0.231,-0.0924 0.507,-0.0811 0.613333,0.0253 0.106333,0.10634 -0.08267,0.18197 -0.42,0.16807 -0.372782,-0.0153 -0.448608,-0.0912 -0.193333,-0.19333 z m -28.979999,-1.62655 -8.72,-0.0851 v -1.47709 c 0,-1.39465 0.854756,-3.37848 1.743108,-4.04563 0.351187,-0.26373 57.826503,0.009 58.526813,0.27807 0.24392,0.0936 0.35206,0.55896 0.27777,1.1953 -0.0669,0.57312 0.0215,1.54099 0.19647,2.15084 l 0.31812,1.1088 0.0338,-1.12 c 0.0907,-3.01002 1.58696,-3.2773 19.25564,-3.43972 15.7325,-0.14462 15.32832,-0.19256 15.32832,1.81791 0,0.49087 0.0916,1.56058 0.20349,2.37714 l 0.2035,1.48467 H 108.91937 75.35176 l -0.315881,-0.70754 c -0.173734,-0.38914 -0.809999,-0.99365 -1.413921,-1.34335 -1.171688,-0.67847 -1.145381,-0.35186 0.08143,1.01089 l 0.648175,0.72 -1.25578,0.0384 c -3.279966,0.10028 -10.03623,0.11399 -17.97578,0.0365 z M 71.359998,117.6 c -0.44,-0.25153 -1.030553,-0.46243 -1.312339,-0.46866 -0.281787,-0.006 -1.160397,-0.35592 -1.952467,-0.77707 -1.071704,-0.56983 -2.045804,-0.78799 -3.80766,-0.85276 -2.816348,-0.10354 -5.197511,0.0302 -4.287534,0.24087 0.352,0.0815 1.52856,0.49678 2.614578,0.92288 1.15247,0.45218 2.684624,0.78461 3.68,0.79846 0.937982,0.013 2.353422,0.13902 3.145422,0.27994 2.411061,0.42902 2.862684,0.39522 1.92,-0.14366 z M 107.92,115.29941 c 0.308,-0.0805 0.812,-0.0805 1.12,0 0.308,0.0805 0.056,0.14635 -0.56,0.14635 -0.616,0 -0.868,-0.0659 -0.56,-0.14635 z m -50.880001,-1.30604 -6.48,-0.0866 v -1.32105 c 0,-1.08564 0.19676,-1.51214 1.104139,-2.39338 L 52.768277,109.12 h 19.012705 c 18.48233,0 19.03524,0.0177 19.820492,0.6354 0.663153,0.52164 0.871295,0.55888 1.162487,0.20802 0.259858,-0.31311 0.985062,-0.38694 2.712187,-0.27609 1.551396,0.0996 2.433418,0.0284 2.579554,-0.20802 0.160433,-0.25959 5.123798,-0.34722 17.883178,-0.31573 9.71362,0.024 17.30112,0.10816 16.86112,0.18709 -1.8553,0.33284 -1.30011,0.72933 1.02125,0.72933 h 2.42926 l 0.51474,1.28647 c 0.28311,0.70756 0.51475,1.64955 0.51475,2.0933 v 0.80683 L 100.4,114.1733 C 80.115998,114.122 60.603998,114.04102 57.039999,113.99337 Z m 0.647619,-6.40875 c -0.424104,-0.27343 0.02904,-2.62462 0.505838,-2.62462 0.371026,0 1.396554,-2.50784 1.173268,-2.86912 -0.107812,-0.17444 0.08516,-0.71626 0.428825,-1.20403 0.576131,-0.81771 0.640717,-1.672756 0.828383,-10.966852 0.111944,-5.544 0.275843,-12.89581 0.36422,-16.337355 0.15417,-6.003664 0.134153,-6.281365 -0.493734,-6.849596 -0.359931,-0.325732 -0.65442,-0.785923 -0.65442,-1.022645 0,-0.236722 -0.18,-0.436499 -0.4,-0.443948 -0.44823,-0.01518 -1.839999,-2.044634 -1.839999,-2.683059 0,-0.581653 2.83861,-0.823397 9.668504,-0.823397 h 5.734623 l -0.227607,0.72 c -0.281,0.888898 -1.709891,2.8 -2.093501,2.8 -0.155111,0 -0.28202,0.193682 -0.28202,0.430404 0,0.236722 -0.30127,0.70305 -0.66949,1.036285 -0.500992,0.453391 -0.628405,0.859062 -0.506245,1.611841 0.08978,0.553278 0.03981,1.13095 -0.111053,1.283716 -0.360023,0.364559 -0.553763,30.710476 -0.204032,31.957756 0.392513,1.39985 1.183959,3.12133 1.715638,3.7317 0.254735,0.29243 0.41636,0.94043 0.359168,1.44 l -0.103986,0.9083 -6.4,0.0788 c -3.52,0.0433 -6.576571,-0.035 -6.79238,-0.17417 z M 62.45521,89.572522 c -0.131813,-16.267817 0.239832,-21.412524 1.546803,-21.412524 0.995948,0 1.189023,13.772504 0.297527,21.223374 -0.384687,3.215109 -0.297795,12.805038 0.119807,13.222638 0.682234,0.68224 0.839467,-1.56939 1.042296,-14.926012 0.23737,-15.631265 0.434228,-19.811745 0.938355,-19.926903 0.482073,-0.110119 0.904288,6.548529 0.796849,12.566903 -0.259881,14.557717 -0.164667,21.863802 0.286896,22.014452 0.373773,0.1247 0.424273,-1.4353 0.32026,-9.893204 -0.06792,-5.522687 0.0048,-12.566996 0.161526,-15.654022 0.269164,-5.300699 0.134631,-8.648504 -0.381076,-9.482936 -0.274305,-0.443835 -4.549021,-0.881123 -5.070548,-0.518699 -1.062024,0.738032 -1.379381,36.197761 -0.320784,35.842561 0.270078,-0.0906 0.339229,-3.535313 0.262089,-13.055628 z M 61.759998,64.959998 c 0.372704,-0.240859 0.279068,-0.311295 -0.418885,-0.3151 -0.518747,-0.0028 -0.815248,0.130428 -0.701115,0.3151 0.245559,0.397322 0.505188,0.397322 1.12,0 z m 1.28,-1.28 0.8,-0.256204 -0.8,-0.0094 c -0.44,-0.0052 -1.088,0.114352 -1.44,0.265611 l -0.64,0.275018 0.64,-0.0094 c 0.352,-0.0052 1,-0.124698 1.44,-0.265611 z m 14.684579,43.926362 c -0.119711,-0.83262 0.169211,-1.93423 0.652103,-2.48636 0.75155,-0.85931 1.415401,-2.59976 1.153345,-3.02378 -0.116389,-0.18832 0.08883,-0.72436 0.456051,-1.19121 1.011696,-1.286158 1.010148,-33.28344 -0.0017,-34.199108 -0.343433,-0.310803 -0.624424,-0.758778 -0.624424,-0.9955 0,-0.236722 -0.126909,-0.430404 -0.28202,-0.430404 -0.38361,0 -1.812501,-1.911102 -2.0935,-2.8 l -0.227608,-0.72 h 7.883128 7.883128 l -0.213876,0.72 c -0.117632,0.396 -0.415336,0.879875 -0.661564,1.075278 -0.246229,0.195403 -0.447688,0.514336 -0.447688,0.708741 0,0.194405 -0.288,0.507597 -0.64,0.695981 -0.352,0.188385 -0.64,0.518813 -0.64,0.734284 0,0.215472 -0.281173,0.567362 -0.624828,0.781978 -0.861903,0.538267 -1.035131,33.61004 -0.179766,34.31993 0.268697,0.22299 0.469079,0.78308 0.445296,1.24463 -0.04851,0.94134 0.813415,3.12193 1.30039,3.28986 0.174352,0.0601 0.357932,0.61332 0.407956,1.22932 l 0.09095,1.12 -6.8,0.0864 c -3.74,0.0475 -6.81594,-0.0245 -6.835421,-0.16 z m 7.335651,-18.555705 c 0.04767,-13.071214 0.29816,-20.162448 0.721461,-20.424063 0.676014,-0.417799 0.778309,1.809491 0.778309,16.946252 0,13.748545 0.07058,16.316446 0.451957,16.443986 0.385452,0.1289 0.423086,-1.25618 0.255756,-9.412847 -0.107909,-5.260192 -0.08765,-11.8814 0.04503,-14.713796 0.434818,-9.282603 0.255556,-10.002937 -2.547196,-10.235481 -2.956811,-0.245327 -2.794683,-0.680419 -2.994409,8.035873 -0.09665,4.21818 -0.252757,10.346051 -0.346893,13.61749 -0.205214,7.131648 0.08852,12.771931 0.665143,12.771931 0.308623,0 0.38671,-3.415212 0.356686,-15.600002 -0.04029,-16.352084 0.0502,-17.542648 1.314859,-17.298746 0.64153,0.123725 0.731058,9.062179 0.243525,24.313419 -0.259237,8.109589 -0.156668,9.551249 0.605882,8.515979 0.307851,-0.41795 0.415456,-3.517728 0.44989,-12.959995 z M 97.491922,106.8 c 0.107758,-0.572 0.374793,-1.256 0.593411,-1.52 0.760164,-0.91797 1.429013,-2.52239 1.248084,-2.99388 -0.100128,-0.26093 0.06192,-0.84676 0.360104,-1.30185 0.498759,-0.7612 0.523299,-2.024864 0.306549,-15.785854 -0.301603,-19.148006 -0.227896,-17.848739 -1.062984,-18.73765 -0.383399,-0.408109 -0.697089,-0.822636 -0.697089,-0.921171 0,-0.09853 -0.490793,-0.714975 -1.090652,-1.369868 -2.158641,-2.356687 -2.340477,-2.283509 6.275375,-2.525488 4.21235,-0.118306 7.78669,-0.136075 7.94297,-0.03949 0.50119,0.309756 -1.17394,3.349815 -1.84769,3.353223 -0.22,0.0011 -0.4,0.195705 -0.4,0.432427 0,0.236722 -0.30013,0.702014 -0.66695,1.033982 -1.10004,0.995524 -0.57462,33.457282 0.56236,34.744269 0.25687,0.29076 0.42372,0.72276 0.37076,0.96 -0.13718,0.61463 0.6995,2.56799 1.38942,3.24381 0.32142,0.31486 0.58441,0.99886 0.58441,1.52 V 107.84 h -7.032 -7.032003 z m 4.719208,-22.337046 c 0.0295,-15.497123 0.13613,-16.907494 1.25053,-16.535584 0.45845,0.152998 0.51504,14.847455 0.0841,21.832628 -0.31195,5.056333 -0.0222,10.18529 0.56437,9.990302 0.27033,-0.08986 0.41295,-4.393827 0.52989,-15.989967 0.088,-8.726855 0.2704,-15.977407 0.40533,-16.112339 0.63931,-0.639302 0.85659,0.899428 1.08896,7.712004 l 0.25105,7.36 0.2608,-4.64 c 0.57899,-10.301255 0.27979,-11.52 -2.82812,-11.52 -2.39758,0 -2.33584,-0.24366 -2.35339,9.288552 -0.009,4.659296 -0.10843,9.992681 -0.2219,11.851965 -0.26112,4.278935 0.13503,12.213563 0.60201,12.057902 0.22983,-0.07661 0.34673,-4.957015 0.36639,-15.295463 z m 4.52955,7.857044 c -0.33522,-9.866088 -0.72922,-10.419834 -0.77793,-1.093334 -0.0235,4.502667 0.0597,8.289106 0.18489,8.41431 0.59357,0.593576 0.78265,-1.740527 0.59304,-7.320976 z m 10.87963,15.232862 c -0.29501,-0.47733 0.18058,-2.22008 0.6556,-2.40236 0.24425,-0.0937 0.44409,-0.45444 0.44409,-0.80157 0,-0.34714 0.15335,-0.72594 0.34079,-0.84178 0.18743,-0.11584 0.30231,-0.59234 0.25528,-1.05889 -0.047,-0.46654 0.17235,-1.23841 0.4875,-1.71526 0.36349,-0.54999 0.51049,-1.193503 0.40205,-1.759998 -0.094,-0.491152 -0.33456,-7.301004 -0.53454,-15.133004 -0.19998,-7.832 -0.44373,-14.456 -0.54166,-14.72 -0.0979,-0.264 -0.14798,-0.937512 -0.11122,-1.496694 0.0482,-0.733749 -0.11153,-1.112142 -0.57402,-1.35966 -0.35246,-0.188632 -0.7323,-0.631119 -0.84408,-0.983306 -0.11177,-0.352187 -0.40953,-0.64034 -0.66167,-0.64034 -0.25214,0 -0.45843,-0.193681 -0.45843,-0.430404 0,-0.236722 -0.27365,-0.678048 -0.6081,-0.980724 -1.65223,-1.495246 -1.21439,-1.788872 2.66746,-1.788872 1.97969,0 5.56621,-0.09432 7.97004,-0.20961 5.26928,-0.25271 5.54111,0.06326 2.6906,3.127603 -0.308,0.331104 -0.56,0.723689 -0.56,0.872411 0,0.148722 -0.27681,0.520915 -0.61514,0.827094 -0.80706,0.730378 -0.81725,2.076405 -0.15036,19.862502 0.49116,13.099193 0.57142,14.127912 1.15228,14.767832 0.34339,0.37831 0.57684,0.96848 0.51878,1.31149 -0.11397,0.6733 0.50341,2.09317 1.35689,3.12068 0.29239,0.352 0.61935,1.108 0.72658,1.68 l 0.19497,1.04 h -7.01312 c -3.85721,0 -7.09297,-0.12921 -7.19057,-0.28714 z M 122.88,97.696714 c 0,-1.884625 -0.51329,-8.966165 -1.12033,-15.456716 -0.55997,-5.987176 -0.51513,-13.80162 0.0803,-14.000043 0.2677,-0.0892 0.4,0.226534 0.4,0.954606 0,0.598342 0.14262,1.870342 0.31693,2.826666 0.29925,1.641812 1.0849,12.568198 1.45956,20.298771 0.27993,5.776149 0.44302,6.879999 1.01649,6.879999 0.66919,0 0.37278,-7.434734 -0.54858,-13.759999 -1.01443,-6.964209 -1.25245,-16.64 -0.40934,-16.64 1.09794,0 1.76458,5.846156 2.35356,20.64 0.20321,5.104 0.4239,9.339999 0.49042,9.413333 0.96962,1.06884 0.68952,-7.403985 -0.87185,-26.373333 -0.42172,-5.123592 -0.51179,-5.282596 -2.98835,-5.2751 -2.94892,0.0089 -3.18148,1.168333 -2.14932,10.7151 0.36155,3.344 0.73318,9.363882 0.82586,13.377516 0.0927,4.013634 0.25262,7.433634 0.35544,7.6 0.44393,0.718298 0.78918,0.192981 0.78918,-1.2008 z M 55.839374,59.164698 c 0.127926,-1.124585 0.268593,-2.084893 0.312594,-2.134019 0.119747,-0.133692 75.087542,-1.097836 75.218012,-0.967361 0.0618,0.06182 0.15686,1.044857 0.21121,2.184536 l 0.0988,2.072144 -13.6,0.195701 c -7.48,0.107635 -24.596476,0.30775 -38.03661,0.444699 l -24.436607,0.249 z m 1.128593,-3.15002 c 0.268383,-0.157223 4.516383,-1.798525 9.44,-3.647339 4.923617,-1.848813 11.616031,-4.376636 14.872031,-5.617385 l 5.92,-2.255906 6.846678,-0.007 6.846674,-0.007 9.95333,3.539215 c 5.47432,1.946568 12.2241,4.343786 14.9995,5.32715 2.7754,0.983364 4.99194,1.842182 4.92563,1.908484 -0.12272,0.122722 -4.70412,0.199563 -44.851812,0.752264 -27.535566,0.379074 -29.587119,0.37961 -28.952031,0.0076 z"
     id="path1"
     transform="translate(-44.199645,-44.480048)" />
</svg>
