<?xml version="1.0" encoding="UTF-8" standalone="no"?>
<!-- Created with Inkscape (http://www.inkscape.org/) -->

<svg
   version="1.1"
   id="svg1"
   width="104.73221"
   height="100.7282"
   viewBox="0 0 104.73221 100.72821"
   sodipodi:docname="Icon_empath.svg"
   inkscape:version="1.4.2 (ebf0e940d0, 2025-05-08)"
   xmlns:inkscape="http://www.inkscape.org/namespaces/inkscape"
   xmlns:sodipodi="http://sodipodi.sourceforge.net/DTD/sodipodi-0.dtd"
   xmlns="http://www.w3.org/2000/svg"
   xmlns:svg="http://www.w3.org/2000/svg">
  <defs
     id="defs1" />
  <sodipodi:namedview
     id="namedview1"
     pagecolor="#505050"
     bordercolor="#eeeeee"
     borderopacity="1"
     inkscape:showpageshadow="0"
     inkscape:pageopacity="0"
     inkscape:pagecheckerboard="0"
     inkscape:deskcolor="#505050"
     inkscape:zoom="1.3007615"
     inkscape:cx="52.661462"
     inkscape:cy="43.051706"
     inkscape:window-width="1838"
     inkscape:window-height="1011"
     inkscape:window-x="40"
     inkscape:window-y="47"
     inkscape:window-maximized="1"
     inkscape:current-layer="svg1" />
  <path
     style="fill:#0066ad"
     d="m 93.641738,149.6 c -1.693749,-7.24769 -5.914503,-12.31442 -11.873857,-14.25378 -2.877632,-0.93647 -4.937049,-2.84082 -6.974924,-6.44974 -2.297083,-4.06796 -3.062769,-5.09886 -6.265698,-8.43602 -3.732835,-3.88927 -3.834608,-3.73606 -1.063318,1.60075 1.23917,2.38633 2.195152,4.33879 2.124403,4.33879 -0.07075,0 -1.453594,-1.75461 -3.072991,-3.89913 -1.619397,-2.14451 -4.184134,-5.27651 -5.699416,-6.96 -3.294212,-3.65987 -4.824705,-5.54117 -6.841353,-8.40946 -0.830852,-1.18173 -1.715364,-2.26317 -1.965583,-2.40319 -4.101238,-2.29517 -12.032508,-17.368222 -9.138962,-17.368222 0.645437,0 0.643121,-0.02477 -0.11222,-1.2 l -0.77126,-1.2 0.269667,-7.04 C 42.732275,65.4921 43.642791,64.017875 53.919999,59.035061 c 5.302049,-2.570652 7.456695,-3.995062 6.043164,-3.995062 -1.38686,0 -5.468865,1.387411 -8.381143,2.848622 -6.209778,3.115704 -7.094043,3.175182 -2.210838,0.148707 8.126485,-5.036569 16.587928,-6.595144 22.467582,-4.138468 0.659666,0.275626 1.721808,0.501942 2.360314,0.502923 2.257738,0.0035 3.399355,0.566328 5.356726,2.641054 1.036307,1.098439 3.314,3.149161 5.061541,4.557161 1.747541,1.408 3.808299,3.1 4.579462,3.76 1.534748,1.313514 1.745268,1.368173 3.249681,0.843732 0.812347,-0.283186 1.250483,-0.80999 2.135849,-2.568092 8.273393,-16.428769 38.284283,-16.223295 48.499273,0.332058 2.16378,3.506825 2.77484,1.800909 1.13466,-3.167698 l -0.79226,-2.4 0.94112,1.12 c 2.30036,2.737579 2.81845,7.617317 1.97053,18.56 -0.41911,5.408776 -0.69281,6.557863 -2.82662,11.867249 -2.2253,5.537067 -3.85013,8.397865 -6.21676,10.945763 -1.17858,1.26885 -2.90437,3.44152 -3.83511,4.82817 -0.93074,1.38664 -3.50496,4.61741 -5.72049,7.17947 -2.21553,2.56207 -3.74664,4.55182 -3.40246,4.42167 1.60452,-0.60675 7.34562,-4.26427 9.85965,-6.28136 3.26656,-2.62087 3.77864,-2.83392 1.73286,-0.72096 -0.80942,0.836 -2.35354,2.56253 -3.43137,3.83673 -2.61965,3.09692 -9.06863,7.92891 -13.45536,10.08164 -1.848,0.90687 -4.53022,2.53549 -5.96049,3.61915 -1.43027,1.08366 -3.44627,2.44883 -4.48,3.0337 -8.858978,5.01233 -13.580272,11.14256 -14.135167,18.35341 L 94.239998,152.16 Z m 0.495263,-22.72 c 0.03523,-1.056 -0.04765,-3.03789 -0.18417,-4.40419 l -0.248223,-2.48419 -2.372305,-2.90554 c -1.304768,-1.59805 -2.372305,-3.06017 -2.372305,-3.24915 0,-0.18898 -0.0627,-0.2809 -0.139331,-0.20427 -0.179277,0.17928 0.350543,4.42305 0.656,5.25445 0.232911,0.63394 -1.544261,-0.88569 -5.584318,-4.77508 -2.14307,-2.06315 -6.470212,-8.23309 -9.336081,-13.31203 -1.731055,-3.067809 -5.482141,-9.049678 -7.085037,-11.298534 -0.477687,-0.670193 -0.961211,-1.640542 -1.074497,-2.156331 -0.310517,-1.413776 -0.797152,-1.465298 -0.79361,-0.08402 0.0017,0.670387 0.358534,1.982309 0.792922,2.915382 l 0.789795,1.696497 -1.352921,-0.736497 c -4.248994,-2.313046 -6.952922,-6.637742 -6.952922,-11.120592 0,-6.025084 9.533344,-11.660889 15.737494,-9.303497 2.328606,0.8848 2.213791,0.377196 -0.262828,-1.161982 -0.671011,-0.417023 0.280513,-0.364053 4.799031,0.267153 2.024233,0.282771 2.564318,0.26924 2.773664,-0.06949 0.197827,-0.32009 0.540146,-0.174634 1.432114,0.608524 1.415936,1.243209 8.493447,4.784045 7.620779,3.81263 -0.31914,-0.355252 -1.300254,-1.117017 -2.180254,-1.692811 -0.88,-0.575794 -2.927118,-2.191643 -4.549152,-3.590774 -8.399236,-7.245003 -11.051662,-8.225063 -17.650911,-6.521938 -4.828485,1.246129 -4.880683,1.243715 -3.54271,-0.163857 0.865249,-0.910258 0.942205,-1.077206 0.357292,-0.775105 -0.410014,0.211769 -1.040263,0.884652 -1.400552,1.495297 -0.38468,0.651984 -1.265737,1.423802 -2.134519,1.869868 -6.702949,3.441551 -11.092152,11.909017 -9.340014,18.018364 0.324935,1.132982 0.298554,1.132329 -1.383923,-0.03423 -0.50847,-0.35255 -0.86847,-0.503133 -0.8,-0.334627 3.353146,8.252196 6.409713,11.830843 15.724271,18.41008 2.548808,1.80032 3.507167,2.76261 1.888662,1.89641 -1.332591,-0.71318 -1.271983,-0.5839 1.203719,2.56753 0.912767,1.1619 8.255298,6.68631 11.227837,8.44765 2.42022,1.43407 5.460535,3.95954 6.465061,5.37027 0.678858,0.95336 0.645776,0.94306 -1.041972,-0.32447 -1.86318,-1.39928 -7.202185,-4.00756 -7.895842,-3.85738 -1.689842,0.36587 6.2284,6.87001 9.192753,7.55104 3.449439,0.79247 5.234162,2.7008 7.075309,7.56531 l 1.084691,2.86586 0.396475,-2.06586 c 0.218062,-1.13623 0.4253,-2.92987 0.460528,-3.98587 z m 5.870969,-0.4712 c -3.842338,-4.24573 6.58165,-19.97556 14.52809,-21.92294 1.24516,-0.30514 2.26394,-0.69179 2.26394,-0.85922 0,-0.16743 0.11487,-0.23342 0.25528,-0.14664 0.1404,0.0868 0.4644,0.01 0.72,-0.1713 0.37887,-0.26829 0.36127,-0.2958 -0.0953,-0.14893 -1.2345,0.39712 6.79479,-8.51081 13.23182,-14.679772 12.63419,-12.10803 11.31021,-27.311649 -2.70425,-31.053677 -3.74459,-0.999849 -7.11921,-1.264288 -8.53922,-0.669142 -0.62241,0.26086 -2.27841,0.768267 -3.68,1.127573 -2.73479,0.701075 -11.60287,4.960175 -11.04531,5.304764 0.17992,0.111198 0.93398,0.305776 1.6757,0.432396 l 1.34857,0.230219 -3.98366,1.97331 c -3.83422,1.899288 -7.552794,4.709437 -5.423653,4.09869 0.44,-0.126215 1.22141,-0.432417 1.736463,-0.68045 1.92399,-0.926522 2.53574,-0.12747 1.31925,1.723178 -0.81422,1.238685 -1.43438,3.387106 -1.44789,5.015969 -0.007,0.849318 0.0758,0.774948 0.83566,-0.749826 0.8986,-1.803252 3.49069,-4.546263 5.07652,-5.372097 0.528,-0.274961 1.6204,-0.968954 2.42755,-1.542209 0.80716,-0.573254 1.81516,-1.150253 2.24,-1.282221 0.42485,-0.131967 1.56445,-0.636631 2.53245,-1.121476 2.63434,-1.319467 5.59304,-2.128262 8.72,-2.383713 3.25909,-0.266244 3.48824,-0.0022 1.04,1.198574 -1.27639,0.625999 -1.76,1.042624 -1.76,1.516216 0,0.647636 0.0102,0.647171 1.23244,-0.05627 2.31688,-1.333428 7.02927,0.08203 8.46662,2.543116 3.0613,5.241669 -0.0126,13.795443 -8.77683,24.423137 -1.22512,1.485603 -4.06966,3.362393 -3.72164,2.455489 1.04553,-2.724618 0.5035,-4.112967 -0.62918,-1.611549 -1.77804,3.926665 -3.55009,5.965003 -10.53347,12.116381 -8.850749,7.79628 -9.577938,8.8911 -9.293948,13.99261 0.25958,4.66303 0.990986,6.93101 2.235198,6.93101 0.176,0 0.063,-0.28404 -0.25122,-0.6312 z m -4.839549,-13.71633 c -0.01883,-1.38627 -0.235774,-2.20169 -0.876725,-3.29539 -1.067563,-1.82166 -1.071626,-2.739 -0.0191,-4.31243 1.491632,-2.22985 2.400807,-2.94382 6.078054,-4.77306 4.49425,-2.235649 6.71909,-4.419711 8.81886,-8.657218 3.10819,-6.272592 1.48243,-13.615542 -2.83202,-12.791159 -0.66962,0.127949 -1.8235,0.340329 -2.56417,0.471956 -2.61873,0.465384 -5.736575,3.450079 -7.797837,7.464829 -1.13322,2.207187 -0.993804,2.189626 -3.175484,0.4 -0.965504,-0.792 -1.847157,-1.44 -1.959229,-1.44 -0.112072,0 -1.049093,-0.660345 -2.082269,-1.467434 -4.627149,-3.6146 -7.718615,-3.614664 -9.6417,-1.98e-4 -1.647879,3.097213 0.350691,10.469615 3.334865,12.301779 0.675583,0.414781 1.914186,1.172198 2.75245,1.68315 2.273491,1.385773 8.517886,12.202965 9.087675,15.742615 0.295603,1.83635 0.907036,0.91048 0.876631,-1.32744 z"
     id="path8"
     transform="translate(-41.986559,-51.4318)" />
</svg>
