<?xml version="1.0" encoding="UTF-8" standalone="no"?>
<!-- Created with Inkscape (http://www.inkscape.org/) -->

<svg
   version="1.1"
   id="svg1"
   width="86.876427"
   height="109.41397"
   viewBox="0 0 86.876429 109.41397"
   sodipodi:docname="Icon_flowergirl.svg"
   inkscape:version="1.4.2 (ebf0e940d0, 2025-05-08)"
   xmlns:inkscape="http://www.inkscape.org/namespaces/inkscape"
   xmlns:sodipodi="http://sodipodi.sourceforge.net/DTD/sodipodi-0.dtd"
   xmlns="http://www.w3.org/2000/svg"
   xmlns:svg="http://www.w3.org/2000/svg">
  <defs
     id="defs1" />
  <sodipodi:namedview
     id="namedview1"
     pagecolor="#505050"
     bordercolor="#eeeeee"
     borderopacity="1"
     inkscape:showpageshadow="0"
     inkscape:pageopacity="0"
     inkscape:pagecheckerboard="0"
     inkscape:deskcolor="#505050"
     showgrid="false"
     inkscape:zoom="4.2301186"
     inkscape:cx="48.816599"
     inkscape:cy="52.953599"
     inkscape:window-width="1838"
     inkscape:window-height="1011"
     inkscape:window-x="40"
     inkscape:window-y="47"
     inkscape:window-maximized="1"
     inkscape:current-layer="svg1" />
  <path
     style="fill:#0f99c6"
     d="m 84.515593,109.11529 c -0.18478,-0.22425 -0.6861,-1.20118 -1.11403,-2.17094 -1.78293,-4.04039 -6.99774,-12.560799 -11.65124,-19.036789 -0.75881,-1.056 -3.81761,-5.592 -6.79731,-10.08 -9.80029,-14.76109 -13.008182,-19.17666 -17.208412,-23.686929 -2.005089,-2.153094 -6.178921,-7.485634 -6.191356,-7.910155 -0.0039,-0.133605 -0.268798,-0.583179 -0.588633,-0.999053 l -0.581517,-0.756134 -1.638118,1.45488 c -6.26902,5.567778 -19.171841,6.454144 -21.823653,1.499187 -0.167434,-0.312854 -0.831343,-0.879713 -1.475352,-1.259688 l -1.170925,-0.690863 0.167944,-2.092236 0.167945,-2.092236 -0.845287,0.793035 c -3.25359,3.052465 -8.8061779,4.664894 -11.2124529,3.256009 -5.620304,-3.290712 -1.34118,-12.937784 6.797101,-15.323726 L 10.680362,29.62971 8.5900231,27.568635 C 1.8746611,20.947284 0.80478407,16.109183 4.9399751,11.062727 l 1.143234,-1.3951669 h 2.50483 c 2.1772319,0 2.9220929,0.167406 5.6952459,1.2799999 1.754729,0.704 3.319315,1.28 3.476858,1.28 0.157543,0 1.509041,1.066718 3.00333,2.370485 3.179447,2.774068 3.203034,2.76067 1.931681,-1.097239 -2.663115,-8.0811929 0.07707,-11.5761689 9.132243,-11.6477399 5.187045,-0.041 6.702861,1.306629 6.469553,5.751718 -0.15734,2.9977209 -0.38181,3.0807229 2.412718,-0.892143 2.782025,-3.955091 6.870955,-6.096412 12.673469,-6.636936 8.494266,-0.79127 13.069706,4.75683 8.457256,10.2551269 -0.50602,0.6032 -1.28003,1.812959 -1.72003,2.688353 -0.44,0.875395 -1.64451,2.495395 -2.67669,3.6 -1.03218,1.104606 -1.75218,2.013813 -1.6,2.02046 5.36613,0.234393 9.07669,3.242007 9.07669,7.357167 0,5.860566 -14.52058,19.43258 -18.507744,17.298715 -0.380742,-0.203767 -0.692258,-0.311773 -0.692258,-0.240014 0,0.394757 3.518511,4.43898 5.133289,5.90027 1.81183,1.639612 4.674193,5.843598 7.347793,10.791778 1.44901,2.68177 4.87715,7.82942 5.11585,7.68189 0.1089,-0.0673 0.53491,-1.19665 0.94669,-2.50967 l 0.7487,-2.38731 -0.68616,-1.11023 c -0.58869,-0.95251 -0.68616,-1.5926 -0.68616,-4.505816 v -3.395592 l 1.65075,-3.220914 c 2.19336,-4.279629 3.82409,-5.780946 8.4867,-7.813191 2.06353,-0.899412 3.92125,-1.952316 4.59782,-2.605922 l 1.13528,-1.096733 -0.12938,2.031803 c -0.0906,1.423174 0.12048,3.145597 0.70473,5.750014 2.27265,10.130949 -0.95958,14.301781 -12.67701,16.358281 -1.14258,0.20053 -1.21754,0.29463 -1.84,2.30993 -1.09664,3.55052 -0.98798,4.00711 1.77868,7.47346 1.33451,1.672 3.23165,4.408 4.21589,6.08 1.99122,3.38264 5.39009,8.41761 7.68866,11.38971 6.51223,8.42045 9.15807,12.884759 6.74216,11.375999 -1.10027,-0.68713 -1.75604,2.28045 -1.27192,5.75584 0.31108,2.23318 0.29076,2.41042 -0.20713,1.80618 z m -3.66948,-14.290989 c -1.99434,-2.13674 -3.98082,-4.65971 -5.57193,-7.07674 -0.86895,-1.32 -1.97015,-2.976 -2.44713,-3.68 -2.79168,-4.12045 -6.30844,-9.487 -7.07736,-10.8 -0.84692,-1.44619 -1.46933,-1.93879 -1.46933,-1.16288 0,0.19642 0.48689,1.02442 1.08199,1.84 0.59509,0.81558 3.18112,4.65088 5.74673,8.52288 7.21356,10.88666 9.43865,13.87384 10.18832,13.6778 0.57507,-0.15039 0.5368,-0.26242 -0.45129,-1.32106 z m -18.81211,-25.78909 c 0.39491,-0.47583 -4.17912,-8.1743 -6.84913,-11.527653 -0.56054,-0.704 -1.927126,-2.548241 -3.036857,-4.098313 -1.109732,-1.550073 -2.088391,-2.747617 -2.174799,-2.66121 -0.08641,0.08641 0.277439,0.706649 0.808547,1.378314 0.531108,0.671665 1.354511,2.15721 1.829783,3.301209 0.782225,1.882847 1.736746,3.494963 3.410456,5.760003 1.45319,1.9666 3.63944,5.40947 4.31806,6.8 0.7915,1.62182 1.07296,1.79589 1.69394,1.04765 z m 11.74924,-10.577693 c 4.75209,-2.111524 6.40894,-5.402823 5.31087,-10.549959 -0.30038,-1.408 -0.55236,-3.308866 -0.55995,-4.224146 -0.008,-0.91528 -0.1061,-1.56328 -0.21892,-1.44 -2.77693,3.034604 -3.53969,5.664146 -1.64301,5.664146 0.73583,0 1.23668,0.08835 1.113,0.196326 -0.41703,0.364088 -2.39386,0.923674 -3.26303,0.923674 -1.32053,0 -4.79983,5.167929 -3.86731,5.744258 0.53612,0.331343 4.10298,-0.525712 5.46547,-1.313258 0.616,-0.356061 0.93673,-0.454697 0.71274,-0.219192 -0.22399,0.235505 -2.02399,1.220192 -4,2.188191 -3.5548,1.741413 -3.59379,1.772636 -3.69185,2.956498 l -0.0991,1.196495 1.53911,-0.19208 c 0.84651,-0.10564 2.2874,-0.52457 3.20199,-0.930953 z m -7.09129,-1.18996 c 0.89371,-1.919601 1.02026,-4.099148 0.33233,-5.72326 -0.49359,-1.165269 -0.53586,-1.112782 -1.11546,1.384963 -0.35759,1.541029 -0.48685,6.0183 -0.17374,6.0183 0.0961,0 0.52669,-0.756003 0.95687,-1.680003 z m 2.90961,-4.799999 c 0.29571,-0.572 0.96667,-1.573982 1.49103,-2.226625 0.94019,-1.170204 0.94615,-1.201872 0.43058,-2.288362 -0.28755,-0.605955 -0.52281,-1.395475 -0.52281,-1.754489 0,-1.173715 -0.61171,-1.068477 -1.93214,0.3324 -2.4505,2.599808 -2.6482,3.942763 -0.90642,6.157081 0.80861,1.027986 0.7934,1.030311 1.43976,-0.220005 z m 4.48591,-5.76 c 0.67292,-0.75861 3.04845,-4.083053 2.91235,-4.075715 -0.53117,0.02864 -4.79921,1.572284 -5.32323,1.925284 l -0.69836,0.470431 0.99436,1.2 c 1.16412,1.404861 1.27264,1.429491 2.11488,0.48 z M 32.760361,45.995851 c 5.879364,-1.54931 6.904802,-10.397547 1.206097,-10.407096 -0.75932,-0.0013 -0.827119,0.164579 -1.242244,3.038804 l -0.231088,1.6 -0.272274,-1.739225 c -0.14975,-0.956573 -0.305622,-1.764316 -0.346382,-1.794983 -1.021975,-0.768928 -1.86265,-0.387918 -2.669794,1.21 -0.467902,0.926314 -1.130474,2.04185 -1.472383,2.478967 l -0.621652,0.794759 0.232035,-0.954759 c 0.127618,-0.525117 0.425247,-1.602759 0.661396,-2.394759 0.5669,-1.90128 0.563354,-1.92 -0.363711,-1.92 -0.44,0 -0.8,-0.136308 -0.8,-0.302907 0,-0.166599 -0.812767,0.124634 -1.80615,0.647183 -2.296089,1.207813 -2.464272,1.007368 -0.805424,-0.959927 1.096165,-1.299988 1.819878,-3.224349 1.212612,-3.224349 -1.353961,0 -3.714003,1.804825 -6.417232,4.907531 -5.032302,5.775965 -5.134598,6.6991 -0.983806,8.877958 l 1.92,1.007857 5.44,-0.179551 c 3.375228,-0.111402 6.168743,-0.371588 7.36,-0.685503 z M 12.280362,40.14344 c 2.111999,-2.065735 4.487999,-4.3041 5.279999,-4.974146 l 1.44,-1.218264 -2.32,1.142287 c -2.719576,1.339026 -2.954432,1.288073 -0.707832,-0.153566 1.878079,-1.20516 1.862882,-1.579775 -0.03331,-0.821069 -1.454417,0.581942 -6.3788579,1.791951 -6.3788579,1.567381 0,-0.07701 1.2599999,-0.717343 2.7999989,-1.422962 7.332034,-3.35949 7.925395,-3.830352 4.543941,-3.605848 -9.4158499,0.625147 -17.82693893,7.263019 -15.2960349,12.071343 0.568487,1.080036 0.869372,1.169108 3.952095,1.169943 l 2.88,7.81e-4 z m 38.843893,-0.196038 c 4.116668,-2.723868 7.988458,-7.059968 10.578238,-11.846819 3.33305,-6.160676 -4.76546,-10.333222 -12.474104,-6.426957 -1.46482,0.74228 -2.627809,1.778612 -1.518116,1.352783 2.369096,-0.909108 5.31538,-1.598716 7.45009,-1.743769 2.92021,-0.198429 2.92021,0.08712 0,1.121363 -6.323135,2.239447 -7.900636,3.450416 -4.160002,3.193426 2.022811,-0.138972 6.643252,0.110556 6.384002,0.344769 -0.30183,0.272679 -1.24102,0.470771 -7.293711,1.538366 l -3.149709,0.555558 2.669709,0.833506 c 4.002355,1.249569 4.201044,1.42697 2.076162,1.853707 -1.458498,0.292908 -2.036558,0.266973 -3.247723,-0.145712 -1.80641,-0.615506 -2.129035,-0.378923 -1.054501,0.773274 0.729958,0.782717 1.703241,2.318789 1.467029,2.315323 -0.05019,-7.37e-4 -0.799663,-0.360737 -1.665491,-0.8 -2.053297,-1.041706 -2.787391,-1.064841 -1.841548,-0.05804 1.407628,1.498352 0.833302,1.903479 -0.948229,0.668878 -1.44347,-1.000326 -2.012195,-0.772808 -1.771764,0.708794 l 0.174762,1.076931 -0.923603,-0.477613 c -1.587682,-0.821023 -2.442123,-0.423039 -1.93807,0.90272 0.390009,1.025803 3.392362,4.898678 4.13252,5.330731 1.526462,0.891042 4.851566,0.386095 7.054059,-1.071222 z M 31.480361,32.387559 c 0.11172,-0.352 0.424831,-0.64 0.6958,-0.64 0.306462,0 0.423055,0.181421 0.30848,0.48 -0.209468,0.545864 0.287565,0.658606 0.609203,0.138185 0.116189,-0.187999 0.423119,-0.260515 0.682067,-0.161148 0.649822,0.24936 1.619249,-0.324477 1.867027,-1.105156 0.118204,-0.372428 0.434137,-0.611118 0.741672,-0.56034 0.346276,0.05718 0.571785,-0.165182 0.637638,-0.628726 0.05604,-0.394452 0.353521,-0.898452 0.661074,-1.12 0.767396,-0.552801 1.176785,-1.660263 0.520668,-1.408487 -0.617716,0.23704 -0.661214,-0.848581 -0.05419,-1.352369 0.51331,-0.42601 0.875113,-0.158296 0.634272,0.469326 -0.102822,0.26795 0.03093,0.448715 0.332005,0.448715 0.318589,0 0.435812,-0.178199 0.318436,-0.484075 -0.236861,-0.61725 0.438593,-1.44932 1.001251,-1.233407 0.591064,0.226812 0.75398,-0.831256 0.273586,-1.776823 -0.276415,-0.54407 -0.296766,-0.954837 -0.06845,-1.381458 0.479435,-0.895833 -0.419261,-2.095273 -1.718126,-2.293084 -6.110789,-0.930647 -8.676409,-0.352794 -11.878191,2.675319 -0.935934,0.885167 -1.778741,1.53235 -1.872906,1.438185 -0.246518,-0.246518 -1.211324,2.288417 -1.211324,3.182637 0,0.933137 0.696402,1.553772 1.428311,1.272912 0.448248,-0.172009 0.537869,-0.04043 0.486652,0.714479 -0.110699,1.631625 -0.04006,1.898413 0.389037,1.469315 0.623596,-0.623595 0.981594,-0.441461 0.81768,0.416 -0.168267,0.880229 0.518019,1.143539 0.834041,0.32 0.330804,-0.862063 1.258356,-0.58184 1.084499,0.327638 -0.190103,0.994458 0.274056,1.372599 0.563896,0.459394 0.269263,-0.848374 0.980255,-0.615399 0.879657,0.288242 -0.09777,0.878219 0.759937,0.91524 1.036227,0.04473 z m 2.410177,-1.36 c -0.0066,-0.573412 0.157053,-0.88 0.469823,-0.88 0.605723,0 0.608827,0.347352 0.01018,1.138839 -0.450016,0.594973 -0.470252,0.584061 -0.48,-0.258839 z M 32.768526,30.16077 c -0.13222,-0.213937 -0.08255,-0.546828 0.110384,-0.73976 0.491567,-0.491566 0.802986,-0.0738 0.435066,0.583641 -0.223888,0.400065 -0.369012,0.441602 -0.54545,0.156119 z m 2.391835,-0.653211 c 0,-0.352 0.181853,-0.64 0.404119,-0.64 0.222265,0 0.546265,-0.314684 0.72,-0.699298 0.173734,-0.384614 0.495881,-0.756614 0.715881,-0.826667 0.615525,-0.195996 0.47376,0.796596 -0.181073,1.26782 -0.319591,0.22998 -0.675071,0.670145 -0.789957,0.978145 -0.284448,0.762581 -0.86897,0.708768 -0.86897,-0.08 z m -5.615835,-0.08588 c -0.2379,-0.619957 0.413383,-1.922853 0.83189,-1.664201 0.427738,0.264357 0.361407,0.847262 -0.177426,1.559196 -0.401423,0.53038 -0.486024,0.543954 -0.654464,0.105005 z m 1.455835,-0.01296 c 0,-0.874699 0.88642,-1.733062 1.132946,-1.097087 0.217873,0.562059 -0.318312,1.515925 -0.852128,1.515925 -0.15445,0 -0.280818,-0.188477 -0.280818,-0.418838 z m -3.2,-0.462797 c 0,-0.352 0.216,-0.819264 0.48,-1.038365 0.399455,-0.331518 0.48,-0.290971 0.48,0.241636 0,0.352 -0.216,0.819264 -0.48,1.038364 -0.399455,0.331518 -0.48,0.290971 -0.48,-0.241635 z m 6.267451,-0.03395 c -0.284025,-0.459561 0.138332,-1.324416 0.646785,-1.324416 0.24517,0 0.445764,0.198368 0.445764,0.440818 0,0.594322 -0.847648,1.279856 -1.092549,0.883598 z m -7.174666,-1.477968 c 0.05897,-0.504401 0.287215,-0.976197 0.507215,-1.048436 0.581066,-0.1908 0.495317,1.044517 -0.107216,1.544575 -0.445428,0.369673 -0.494155,0.309236 -0.399999,-0.496139 z m 4.427215,-0.477605 c 0,-0.686343 0.482954,-1.103674 0.946024,-0.81748 0.398614,0.246357 0.09177,1.030313 -0.490766,1.253852 -0.29573,0.113482 -0.455258,-0.03943 -0.455258,-0.436372 z m 4.529267,-0.319089 c 0.0609,-0.417793 0.290733,-0.818903 0.510733,-0.891355 0.575736,-0.189607 0.493116,0.725957 -0.110733,1.227108 -0.44591,0.370072 -0.496679,0.327457 -0.4,-0.335753 z M 25.692173,26.509494 c -0.240178,-0.625896 0.08706,-1.161935 0.70933,-1.161935 0.314165,0 0.447576,0.243264 0.381114,0.694935 -0.124167,0.843846 -0.82986,1.14607 -1.090444,0.467 z m 4.028188,0.0077 c 0,-0.236722 0.273704,-0.678102 0.608231,-0.980845 0.820802,-0.742816 1.253716,-0.04859 0.493521,0.791413 -0.654046,0.722713 -1.101752,0.79969 -1.101752,0.189432 z m 3.569439,-0.06623 c 0.06081,-0.313685 0.304313,-0.634853 0.541122,-0.713707 0.2754,-0.0917 0.390718,0.06216 0.32,0.426965 -0.06081,0.313685 -0.304314,0.634854 -0.541122,0.713708 -0.275401,0.0917 -0.390719,-0.06216 -0.32,-0.426966 z m -4.676193,-0.761938 c -0.252932,-0.409253 0.38363,-1.941433 0.806591,-1.941433 0.536586,0 0.545645,0.981125 0.01511,1.636309 -0.425203,0.525103 -0.637113,0.603792 -0.821701,0.305124 z m 6.381252,-0.406109 c -0.257788,-0.664791 0.04318,-1.215324 0.664387,-1.215324 0.583643,0 0.584861,0.349533 0.004,1.138839 -0.418465,0.568604 -0.475016,0.575075 -0.668356,0.07648 z m -2.586636,-0.383718 c -0.201534,-0.525187 0.647934,-1.79164 1.201734,-1.79164 0.513259,0 0.26859,1.18245 -0.362924,1.753962 -0.585255,0.529648 -0.648926,0.532508 -0.83881,0.03768 z m 4.992138,-0.165468 c 0,-0.656476 0.414953,-1.306172 0.834236,-1.306172 0.54708,0 0.582399,0.695365 0.06176,1.216 -0.456397,0.456397 -0.896,0.500638 -0.896,0.09017 z m 1.92,-0.148401 c 0,-0.264 0.144,-0.568997 0.32,-0.677771 0.176,-0.108774 0.32,0.01823 0.32,0.282229 0,0.264 -0.144,0.568997 -0.32,0.677771 -0.176,0.108774 -0.32,-0.01823 -0.32,-0.282229 z m -11.84,-0.936609 c 0,-0.849145 0.913985,-1.712799 1.25773,-1.18847 0.216746,0.330612 0.155575,0.64321 -0.203515,1.04 -0.60665,0.670341 -1.054215,0.733374 -1.054215,0.14847 z m 4.16,-0.651566 c 0,-0.432136 0.983347,-1.489596 1.385197,-1.489596 0.362423,0 0.238091,1.128713 -0.169197,1.536 -0.514466,0.514467 -1.216,0.487695 -1.216,-0.0464 z m 2.56,-0.03071 c 0,-0.557692 0.524693,-0.92792 0.946024,-0.667523 0.425902,0.263222 0.04231,1.128637 -0.50026,1.128637 -0.24517,0 -0.445764,-0.207501 -0.445764,-0.461114 z m 1.92,0.280077 c 0,-0.589556 0.754762,-1.418963 1.291259,-1.418963 0.70315,0 0.830081,0.63066 0.244741,1.216 -0.387129,0.387129 -1.536,0.538938 -1.536,0.202963 z m -6.4,-0.967669 c 0,-0.488087 1.181869,-1.698551 1.68,-1.720647 0.541108,-0.024 0.189291,1.268581 -0.471202,1.731208 -0.902179,0.631911 -1.208798,0.629232 -1.208798,-0.01056 z m 9.068623,-0.30979 c -0.20443,-0.532735 0.347684,-1.087493 1.091377,-1.096604 0.636829,-0.0078 0.463163,0.898779 -0.244748,1.277641 -0.513942,0.275054 -0.685705,0.238325 -0.846629,-0.181037 z m -5.228623,-0.877504 c 0,-0.5208 0.644023,-1.184 1.149764,-1.184 0.56388,0 0.858183,1.026783 0.381074,1.329516 -0.634637,0.402688 -1.530838,0.317498 -1.530838,-0.145516 z m 2.714077,0.08642 c -0.348814,-0.564392 0.407163,-1.156823 0.999441,-0.783224 0.272747,0.172044 0.520783,0.456807 0.551192,0.632807 0.07901,0.457299 -1.279523,0.589082 -1.550633,0.150417 z m -17.791711,5.374427 1.60782,-1.082769 -2.465093,-0.412295 c -3.363406,-0.56254 -3.38231,-0.569323 -4.254479,-1.526521 -0.689348,-0.756553 -0.703122,-0.821054 -0.130614,-0.611644 1.535236,0.561554 4.2239,1.148385 5.261515,1.148385 h 1.127051 l -1.194283,-0.811536 c -1.509019,-1.025405 -1.521729,-1.253868 -0.0352,-0.632758 0.637494,0.266362 1.213494,0.484294 1.28,0.484294 0.402993,0 -0.01856,-1.575697 -0.879956,-3.289125 -1.320991,-2.627623 -0.173539,-1.706243 1.286465,1.033004 0.905522,1.698933 1.473691,2.256121 2.300583,2.256121 1.379428,0 -2.609722,-6.878995 -4.563195,-7.868895 -0.835643,-0.423453 -2.010361,-1.201026 -2.610485,-1.727942 -2.409091,-2.11521 -4.820497,-2.680622 -6.9025099,-1.618458 -3.659429,1.866901 -5.645817,5.608186 -3.843564,7.239203 0.366529,0.331704 0.856797,1.058743 1.089484,1.615641 2.398783,5.741096 8.7717839,8.603221 12.9264639,5.805295 z m 27.639774,-7.92077 c 0.444647,-0.34976 1.963895,-1.044806 3.376108,-1.544548 10.080114,-3.567068 15.295084,-13.2832829 8.364974,-15.5850979 -3.17945,-1.056043 -10.220659,0.391662 -13.263222,2.726979 -3.005998,2.307251 -7.036983,8.9275649 -7.423637,12.1922609 -0.265734,2.243701 0.149073,1.911993 2.000771,-1.599957 0.82074,-1.556622 1.834822,-3.245007 2.253518,-3.751967 l 0.761263,-0.921743 -0.475957,1.400232 c -0.261777,0.770128 -0.475958,1.446418 -0.475958,1.502867 0,0.05645 1.116,-1.019115 2.48,-2.390142 2.832999,-2.8475929 6.265332,-5.4729569 7.155202,-5.4729569 0.85687,0 0.749343,0.454495 -0.231752,0.97956 -1.109078,0.593561 -3.121909,2.861633 -5.174037,5.8301409 -2.075167,3.001835 -2.072038,3.039905 0.13386,1.628809 1.94723,-1.245628 5.199649,-2.822255 5.402846,-2.619058 0.06882,0.06882 -0.793563,1.090143 -1.916413,2.269599 -2.888302,3.033909 -4.329706,4.852899 -4.329706,5.463906 0,0.695345 0.378157,0.665117 1.36214,-0.108884 z M 27.17162,17.688597 c -0.440854,-0.823743 -0.417754,-0.994142 0.107448,-0.792604 0.780274,0.29942 0.870687,-0.872773 0.204627,-2.652977 -0.75074,-2.006532 -0.346535,-1.938855 0.987954,0.165416 1.1999,1.892047 1.229764,1.139144 0.130073,-3.27935 -0.435089,-1.7481629 -0.742381,-3.2271689 -0.68287,-3.2866799 0.234041,-0.23404 2.4922,5.6328409 2.741429,7.1224529 0.222309,1.328719 0.270844,0.994721 0.302442,-2.081295 0.05026,-4.8927049 0.574216,-4.2541779 0.867634,1.057355 0.244769,4.430858 0.373423,4.507105 1.395258,0.826901 2.028758,-7.3066989 0.995646,-11.1881829 -2.9737,-11.1724329 -6.25805,0.02483 -7.799692,2.154565 -5.934594,8.1984689 0.661848,2.144737 2.686341,6.513707 3.018322,6.513707 0.09198,0 0.01817,-0.278533 -0.164023,-0.618962 z"
     id="path1" />
</svg>
