<?xml version="1.0" encoding="UTF-8" standalone="no"?>
<!-- Created with Inkscape (http://www.inkscape.org/) -->

<svg
   version="1.1"
   id="svg1"
   width="107.79494"
   height="109.32079"
   viewBox="0 0 107.79495 109.32079"
   sodipodi:docname="Icon_clockmaker.svg"
   inkscape:version="1.4.2 (ebf0e940d0, 2025-05-08)"
   xmlns:inkscape="http://www.inkscape.org/namespaces/inkscape"
   xmlns:sodipodi="http://sodipodi.sourceforge.net/DTD/sodipodi-0.dtd"
   xmlns="http://www.w3.org/2000/svg"
   xmlns:svg="http://www.w3.org/2000/svg">
  <defs
     id="defs1" />
  <sodipodi:namedview
     id="namedview1"
     pagecolor="#505050"
     bordercolor="#eeeeee"
     borderopacity="1"
     inkscape:showpageshadow="0"
     inkscape:pageopacity="0"
     inkscape:pagecheckerboard="0"
     inkscape:deskcolor="#505050"
     showgrid="false"
     inkscape:zoom="4.2301186"
     inkscape:cx="54.017399"
     inkscape:cy="54.844799"
     inkscape:window-width="1838"
     inkscape:window-height="1011"
     inkscape:window-x="40"
     inkscape:window-y="47"
     inkscape:window-maximized="1"
     inkscape:current-layer="svg1" />
  <path
     style="fill:#0162ab"
     d="M 48.327211,109.00923 C 2.4464887,103.73389 -16.461908,47.068899 16.920264,14.888393 c 37.369094,-36.02391 99.509546,-1.674013 89.872956,49.679828 -1.38221,7.36585 -7.736507,22.53387 -9.883127,23.59152 -0.43706,0.21534 -1.65934,1.38633 -2.7162,2.6022 -11.38458,13.097559 -29.15807,20.168439 -45.866682,18.247289 z m 12.640002,-2.35458 c 15.03936,-2.17059 29.07981,-11.468109 36.6354,-24.259809 l 0.7954,-1.34662 -1.30619,1.02791 c -0.7184,0.56535 -1.48996,1.24935 -1.71458,1.52 -0.22462,0.27065 -0.73367,0.49209 -1.13124,0.49209 -0.45507,0 -1.05126,0.43059 -1.60943,1.16239 -1.73762,2.27814 -4.4068,5.11228 -6.97868,7.40997 -1.93111,1.72524 -2.58309,2.50476 -2.50469,2.99467 0.14116,0.88213 -0.20359,2.19297 -0.57676,2.19297 -0.16421,0 -1.20547,0.62844 -2.3139,1.39653 -3.20213,2.218939 -3.36118,2.274949 -4.58637,1.615149 -1.05221,-0.56666 -1.07063,-0.5641 -3.28434,0.45627 -9.02061,4.15787 -18.849472,5.48692 -30.144622,4.07613 l -1.44,-0.17986 1.750919,0.50151 c 4.718431,1.35149 12.727257,1.76073 18.409083,0.9407 z m 4.8,-6.713269 c 7.50004,-1.95573 9.16141,-3.15904 7.65199,-5.54227 -4.8355,-7.63479 -5.91228,-11.27089 -3.3377,-11.27089 0.75398,0 2.56234,1.70949 6.09315,5.76 3.19293,3.6629 3.59859,4.00273 4.30567,3.60703 0.70595,-0.39507 5.19614,-5.70333 5.78089,-6.83412 0.27919,-0.53989 1.40954,-2.32117 2.51189,-3.9584 3.55965,-5.28687 3.60732,-4.97195 -1.18694,-7.84126 -1.79243,-1.07275 -3.81846,-2.4467 -4.5023,-3.05323 l -1.24334,-1.10279 0.76334,-1.77531 c 0.89725,-2.08675 1.28,-2.11752 4.01011,-0.32234 2.30825,1.51778 7.18794,3.77839 7.47526,3.46306 1.61831,-1.77611 3.66717,-15.823996 2.36414,-16.209586 -1.01696,-0.300937 -8.14993,-1.209877 -9.78727,-1.247173 -1.43096,-0.0326 -1.53909,-0.09294 -1.54167,-0.860468 -0.002,-0.453979 -0.0961,-1.60256 -0.21014,-2.552404 l -0.20736,-1.72699 5.15958,0.164633 c 6.8357,0.218115 6.90262,0.203279 6.6514,-1.474439 -0.64006,-4.27434 -1.58837,-7.241691 -2.25404,-7.053099 -2.84925,0.807221 -13.17087,6.437352 -17.5716,9.584781 -1.89544,1.355629 -2.69626,1.392942 -3.85854,0.179785 l -0.89322,-0.932318 -1.39277,0.516195 c -0.94406,0.349894 -1.42301,0.727578 -1.48665,1.172318 -0.0696,0.486144 -0.32489,0.652619 -0.9856,0.642598 -2.31378,-0.03509 -3.60326,2.731138 -1.39601,2.99478 0.90352,0.107918 1.00636,0.465562 0.64848,2.25499 -0.17415,0.870743 -0.29941,0.971107 -0.99435,0.796689 -1.30671,-0.327963 -2.03446,2.368014 -0.86922,3.220058 0.43585,0.3187 0.37318,0.53473 -0.50805,1.75123 -0.73784,1.01855 -1.09991,1.293 -1.36118,1.03173 -1.09659,-1.09659 -2.33795,0.24737 -2.02665,2.19415 0.18639,1.16561 0.16335,1.19705 -1.42016,1.93873 l -1.609627,0.75391 -0.798708,-0.86137 c -0.439289,-0.47376 -1.001792,-0.86137 -1.250007,-0.86137 -1.034161,0 -3.860674,0.74827 -4.082353,1.08073 -0.131754,0.1976 -0.186342,-0.0727 -0.121307,-0.60073 0.06503,-0.528 0.05218,-0.76913 -0.02856,-0.53585 -0.11897,0.34372 -0.247668,0.33573 -0.678693,-0.0422 -1.040164,-0.91191 -1.971092,-0.98886 -1.978913,-0.16357 -0.01999,2.1091 -2.426381,5.02651 -5.29603,6.42069 -1.231959,0.59854 -5.029829,4.83845 -6.923617,7.72949 -0.15196,0.23198 -0.332743,0.23997 -0.548471,0.0242 -0.215728,-0.21573 0.376044,-1.42782 1.795359,-3.67732 3.186298,-5.05004 3.939624,-6.59991 3.940983,-8.10803 0.0016,-1.72789 0.948156,-3.24678 2.470067,-3.96339 1.97622,-0.93053 1.763286,-2.32135 -0.451955,-2.95203 -2.202601,-0.62708 -2.740264,-1.6184 -1.532709,-2.825954 1.151778,-1.151778 0.958843,-2.254717 -0.566599,-3.239035 -1.593093,-1.02797 -1.693511,-2.512103 -0.24,-3.547093 1.675414,-1.193 1.040165,-3.850446 -0.809459,-3.38622 -0.561866,0.141019 -0.790541,0.417265 -0.790541,0.954994 0,0.507596 -0.228895,0.816439 -0.695533,0.938468 -0.829588,0.216942 -1.224467,0.02147 -1.224467,-0.606128 0,-0.313654 -0.358165,-0.461114 -1.12,-0.461114 -0.906667,0 -1.12,0.121904 -1.12,0.64 0,0.497777 -0.213333,0.64 -0.96,0.64 -0.746667,0 -0.96,-0.142223 -0.96,-0.64 0,-0.88392 -1.279942,-0.869341 -1.511783,0.01722 -0.254575,0.973495 -1.878273,0.750331 -1.774355,-0.243871 0.08844,-0.846136 -2.018791,-1.469669 -2.474557,-0.732224 -0.487146,0.788219 -2.01199,0.09173 -1.784403,-0.81505 0.211879,-0.844196 -0.346894,-1.086082 -1.000062,-0.432914 -0.579456,0.579456 -1.53484,-0.175015 -1.53484,-1.212072 0,-0.812846 -0.09831,-0.893614 -1.003873,-0.82477 -1.248943,0.09495 -1.994575,-0.635232 -1.391145,-1.362321 0.585229,-0.705157 -0.510966,-1.943585 -1.208183,-1.364946 -0.820843,0.681239 -1.782687,-1.115163 -1.010526,-1.887324 0.516681,-0.516681 -0.288927,-1.656807 -1.033172,-1.462182 -0.790705,0.206774 -1.38249,-1.195435 -0.72372,-1.714823 0.698109,-0.550403 0.532771,-1.37191 -0.319146,-1.585727 -0.717153,-0.179994 -1.418734,-1.474317 -0.902069,-1.664197 1.236122,-0.454289 1.29579,-1.674798 0.08188,-1.674798 -0.480046,0 -0.650043,-0.209213 -0.650043,-0.8 0,-3.709653 -3.424726,2.856807 -5.28745,10.13799 -1.1230273,4.389788 -1.1176973,4.422185 0.72745,4.42119 0.836,-4.51e-4 3.284,0.235195 5.44,0.523658 l 3.919999,0.524478 v 2.630675 2.630674 l -5.469136,-0.02976 c -6.5178743,-0.03547 -6.4377023,-0.07809 -6.1710453,3.280733 0.5159413,6.498833 1.8543293,12.927403 2.6568163,12.761283 0.276851,-0.0573 0.647965,0.0845 0.824698,0.31513 0.260215,0.33959 0.756599,0.2713 2.609818,-0.35902 1.258668,-0.4281 3.317397,-0.93801 4.574954,-1.13312 1.257558,-0.19512 2.438104,-0.38832 2.623437,-0.42933 0.347664,-0.0769 2.499853,3.47545 2.506643,4.13745 0.0021,0.20461 -1.040185,0.75876 -2.316185,1.23144 -2.839099,1.0517 -7.920505,3.39366 -7.918629,3.6496 7.53e-4,0.10282 0.44028,0.83494 0.976726,1.62694 0.536446,0.792 1.275888,2.01358 1.643206,2.71462 0.962098,1.83622 6.774886,8.48538 7.418036,8.48538 0.190576,0 1.429688,-1.06732 2.753582,-2.37183 1.323893,-1.3045 3.268582,-3.08711 4.321529,-3.96136 l 1.91445,-1.58954 1.86428,1.266 c 1.634779,1.11016 1.813486,1.33192 1.451668,1.80137 -1.189106,1.54284 -5.474878,6.44012 -6.474348,7.39813 -1.556712,1.49213 -1.524974,1.56168 1.503942,3.29544 4.669526,2.67286 10.316749,4.60531 15.505232,5.305799 2.417108,0.32633 2.320326,0.41087 2.320326,-2.026749 0,-1.08684 0.09398,-3.93562 0.20884,-6.33063 l 0.208841,-4.35455 1.56691,-0.33604 c 2.873806,-0.61632 2.624358,-1.04385 3.236537,5.54706 0.903117,9.723219 0.355151,9.363009 10.29887,6.77006 z m -24.160002,-4.00007 c -1.32,-0.4809 -3.446191,-1.40348 -4.724869,-2.0502 l -2.324869,-1.17584 0.518415,-1.00251 0.518416,-1.00251 0.767918,0.98122 c 0.498648,0.63716 2.042537,1.59413 4.402945,2.72914 5.054089,2.43029 5.487557,3.21311 0.842044,1.5207 z M 13.322244,64.298521 c -1.277121,-4.0428 -1.833429,-7.415655 -1.259444,-7.635913 0.926713,-0.355613 0.994397,-0.07948 2.192652,8.945613 0.248457,1.87134 -0.06911,1.42566 -0.933208,-1.3097 z m 79.089939,-1.44143 c -0.25075,-3.143107 -1.37291,-5.624921 -2.99724,-6.628813 -1.55992,-0.964085 -1.22035,-1.070413 1.97151,-0.617328 l 2.77476,0.393877 -0.21973,1.801696 c -0.12084,0.990932 -0.4693,3.097698 -0.77434,4.681698 l -0.55463,2.88 z m -68.652561,33.47113 c -3.205403,-4.08606 -4.431282,-7.10024 -1.904494,-4.68275 3.355909,3.21074 2.852521,2.3964 -0.727917,-1.17756 -4.802159,-4.79348 -7.142239,-7.71457 -9.049898,-11.29684 -0.856072,-1.60757 -1.489857,-2.70685 -1.40841,-2.44285 0.409422,1.32709 1.371774,3.48599 2.015315,4.52107 1.047977,1.68558 1.750098,3.47893 1.36205,3.47893 -0.364546,0 -1.095245,-0.71744 -4.03957,-3.96628 -2.2597373,-2.49345 -2.4099263,-2.51799 -1.0239293,-0.16734 2.7722383,4.70173 8.2667003,10.94785 13.5210563,15.37078 2.228814,1.87614 2.505703,1.95614 1.255797,0.36284 z m 79.253758,-25.84 c 3.46726,-10.672913 3.45796,-23.223706 -0.0252,-34.027487 -1.55286,-4.816507 -1.79069,-4.923454 -0.56561,-0.254335 0.50193,1.913 1.1421,5.258469 1.42259,7.434377 0.2805,2.175909 0.7197,4.458102 0.97602,5.071542 0.90181,2.158354 0.47139,11.0559 -0.53484,11.0559 -0.38101,0 -0.65348,0.308766 -0.77657,0.880003 -1.04383,4.84432 -2.2509,8.92136 -3.524597,11.90474 -1.46803,3.43857 -1.50874,3.61521 -1.02291,4.43818 0.44427,0.75256 0.45162,1.01316 0.0603,2.13708 -0.73366,2.107 -0.48401,1.76572 1.170397,-1.6 0.86513,-1.76 2.13432,-4.928 2.82044,-7.04 z M 4.0186117,71.012211 C -0.08225225,55.186462 3.8988507,36.807776 14.393912,23.114842 c 1.115247,-1.455066 1.633631,-2.463707 1.785009,-3.473164 0.238961,-1.593509 0.697883,-2.181263 3.146835,-4.03024 1.110114,-0.838143 2.034282,-1.283218 2.664517,-1.283218 0.603384,0 1.495324,-0.405006 2.380605,-1.080968 0.778635,-0.594532 2.449577,-1.749779 3.713204,-2.567215 1.531629,-0.9908047 2.239511,-1.6373777 2.123533,-1.9396117 -0.178874,-0.466139 1.428953,-2.124728 2.599596,-2.681669 3.438991,-1.636124 4.941164,-1.943658 5.714844,-1.169978 0.380915,0.380915 0.667647,0.409091 1.382857,0.135886 6.480192,-2.475387 19.056944,-3.234278 26.647291,-1.607918 3.69656,0.792052 4.03082,0.686892 0.83359,-0.262259 C 28.527386,-8.3812977 -7.3681163,28.738766 3.2696657,69.457911 c 0.541653,2.07333 1.045257,3.70926 1.119119,3.6354 0.07386,-0.0739 -0.09272,-1.01036 -0.370173,-2.0811 z m 2.074551,-3.28787 1.386135,-1.64387 -1.896043,0.23475 c -2.310045,0.28602 -2.182673,0.15609 -1.70757,1.74184 0.496156,1.65603 0.546975,1.6484 2.217478,-0.33272 z m 47.0340483,-4.43612 c 0,-0.176 0.2592,-0.32 0.576,-0.32 0.3168,0 0.7488,-0.1728 0.96,-0.384 0.298666,-0.29867 0.384,-0.22191 0.384,0.34542 0,0.65532 0.105669,0.70679 1.04,0.50662 1.358333,-0.291 1.316886,-0.15356 0.608486,-2.01791 -0.585888,-1.541937 -0.58888,-1.638618 -0.05594,-1.807766 0.309677,-0.09829 0.820359,-0.463029 1.134849,-0.810536 0.801251,-0.885373 0.939835,-0.822871 1.932967,0.871776 l 0.88117,1.503606 1.01616,-1.175524 c 1.49914,-1.734247 2.5679,-6.951688 1.42401,-6.951688 -1.13889,0 -3.19021,0.75949 -2.88248,1.067221 0.43705,0.437055 0.44318,1.492779 0.009,1.492779 -0.18267,0 -0.29067,0.390881 -0.24,0.868626 0.063,0.594465 -0.0719,0.902425 -0.42763,0.975709 -0.455023,0.09375 -0.477009,-0.05298 -0.176585,-1.178517 0.732885,-2.745775 -1.576897,-5.785818 -4.395991,-5.785818 -4.74389,0 -6.741576,6.304108 -2.722255,8.590638 1.052332,0.598656 1.203445,1.00746 0.374571,1.013323 -0.464898,0.0033 -2,1.838221 -2,2.390631 0,0.16417 1.870312,1.05039 2.32,1.0993 0.132,0.0144 0.24,-0.11789 0.24,-0.29389 z m 1.92,-8.000002 c 0,-4.038707 0.234854,-4.309146 2.111999,-2.432 2.005453,2.005452 0.721692,5.951999 -1.936108,5.951999 -0.09674,0 -0.175891,-1.584 -0.175891,-3.519999 z m -2.764697,2.732744 c -1.635181,-1.145325 -1.757203,-4.069911 -0.22025,-5.278878 1.435177,-1.128911 1.803984,-0.890737 1.588947,1.026134 -0.103656,0.924 -0.191961,2.364 -0.196233,3.2 -0.0084,1.64126 -0.150308,1.76869 -1.172464,1.052744 z m -3.227057,2.466538 c 1.261386,-1.393811 1.52122,-2.366301 0.857639,-3.209908 -0.339441,-0.431529 -0.534155,-0.918912 -0.432698,-1.083073 0.457415,-0.740112 -0.816153,-2.399894 -2.147537,-2.798786 -1.926993,-0.577341 -2.215055,0.005 -1.545886,3.125249 0.644525,3.005316 2.309634,5.026038 3.268482,3.966518 z m 1.068624,-8.644182 c 0.196278,-0.129305 0.461287,-0.569515 0.588909,-0.978243 0.152055,-0.486981 0.397738,-0.679558 0.712743,-0.55868 0.310267,0.119061 0.542558,-0.05207 0.655159,-0.482655 0.120304,-0.460044 0.359433,-0.618745 0.770387,-0.511278 0.531568,0.139008 0.595932,-0.04829 0.595932,-1.734203 0,-2.269135 -0.451245,-2.418572 -3.027388,-1.002566 -3.257231,1.790373 -4.407384,4.246181 -2.332612,4.980595 1.651963,0.584751 1.596754,0.576971 2.03687,0.28703 z m 10.763132,-0.616732 c 2.65054,-0.950004 -0.10784,-4.654299 -4.01106,-5.386547 l -1.188942,-0.223047 v 1.990303 c 0,1.937814 0.02013,1.98525 0.76348,1.798682 0.596697,-0.149761 0.80224,-0.0434 0.94091,0.486872 0.111011,0.424503 0.349664,0.6124 0.637526,0.501937 0.585112,-0.224529 1.180593,0.354547 0.958841,0.932425 -0.219783,0.572744 0.0622,0.557804 1.899245,-0.100625 z m 5.79323,-2.738368 c 0.16388,-0.624959 1.17015,-0.748618 1.70878,-0.209991 0.72998,0.72998 3.19132,-0.755625 3.19132,-1.926201 0,-1.757075 0.79815,-2.192798 5.58185,-3.047229 5.99425,-1.07065 16.29902,-3.924115 17.11385,-4.73895 0.27874,-0.278732 -3.32206,-8.237629 -3.7269,-8.237629 -0.42705,0 -4.19098,2.910426 -6.29347,4.866368 l -2.0808,1.93576 -1.44843,-2.499036 -1.44843,-2.499035 0.95216,-0.822029 c 0.52369,-0.452115 2.27171,-1.943152 3.8845,-3.313416 1.61279,-1.370263 2.93234,-2.625662 2.93234,-2.789775 0,-0.880426 -5.26655,-6.189446 -8.65999,-8.729835 l -1.13999,-0.853413 -2.70001,4.180608 c -1.48501,2.299334 -2.78301,4.232872 -2.88445,4.296751 -0.15925,0.100281 -3.86462,-2.035335 -4.31798,-2.488703 -0.0897,-0.08974 0.5761,-1.729403 1.47965,-3.643702 1.48136,-3.138487 2.62215,-5.878745 2.44857,-5.88164 -0.0362,-6.03e-4 -1.13418,-0.43645 -2.43996,-0.968547 -2.52889,-1.030501 -7.77067,-2.4538507 -9.625843,-2.6137937 l -1.12,-0.09656 -0.196225,3.6799997 c -0.385305,7.225977 -0.228061,6.971021 -4.018512,6.515637 l -1.654738,-0.1988 -0.195449,-2.758419 C 51.51134,8.4355323 51.018768,7.8601183 46.085561,8.7114503 c -5.290127,0.912926 -13.64691,4.3367707 -10.585017,4.3367707 0.663704,0 0.986667,0.157117 0.986667,0.48 0,0.549799 1.755626,0.684847 2.08,0.16 0.321083,-0.519524 1.76,-0.383104 1.76,0.16686 0,0.669844 1.453354,1.310203 1.990523,0.877039 0.569265,-0.459044 1.970275,0.09974 1.741944,0.694765 -0.29515,0.769146 0.68896,1.343762 1.171406,0.683977 0.379925,-0.519578 0.449862,-0.515082 1.17962,0.07584 0.629974,0.510123 0.702746,0.716129 0.387258,1.096268 -0.580209,0.69911 0.656367,1.796889 1.363246,1.210232 0.659329,-0.547194 1.557412,0.174429 1.324679,1.0644 -0.243677,0.931822 0.317732,1.783022 1.049737,1.591598 0.75588,-0.197667 1.571199,1.047408 1.036209,1.582398 -0.475359,0.475359 0.146034,1.516622 0.905072,1.516622 0.798124,0 1.18576,1.203442 0.548709,1.703501 -0.661745,0.519442 -0.139576,1.816499 0.731285,1.816499 0.802146,0 0.948516,1.825655 0.170312,2.12428 -0.264,0.101306 -0.48,0.528787 -0.48,0.949957 0,0.467345 0.187056,0.765763 0.48,0.765763 0.298666,0 0.48,0.302222 0.48,0.8 0,0.497778 -0.181334,0.8 -0.48,0.8 -0.654617,0 -0.625442,1.486805 0.03644,1.857215 0.687971,0.385008 0.291107,1.662785 -0.516444,1.662785 -0.799021,0 -1.205814,1.276995 -0.527684,1.656495 0.735027,0.411342 0.02082,1.948889 -0.786287,1.692723 -0.36484,-0.115796 -0.688113,0.04623 -0.90654,0.454366 -0.473074,0.883947 -0.434266,0.996416 0.343816,0.996416 0.375818,0 1.016942,0.36 1.42472,0.8 0.948836,1.023811 1.841002,1.016339 2.597199,-0.02175 0.896322,-1.230452 3.571624,-0.599465 3.367085,0.794149 -0.16522,1.125719 1.332147,1.926033 2.467107,1.318622 1.2225,-0.654262 2.72,0.711166 2.09836,1.913292 -0.61041,1.180397 -0.60104,1.569083 0.0553,2.294318 0.70446,0.778421 2.88526,0.680903 3.10017,-0.138629 z M 49.045752,15.882929 c -1.189277,-0.752997 -1.095074,-1.234709 0.241459,-1.234709 1.087201,0 1.371123,0.337919 1.038777,1.236336 l -0.242464,0.655443 z M 48.807211,12.72822 c -0.352,-0.15126 -1.864,-0.299337 -3.36,-0.329061 l -2.72,-0.05404 2.342361,-0.768242 c 1.288299,-0.422533 2.908299,-0.85874 3.6,-0.969347 l 1.257639,-0.201105 v 1.320896 c 0,1.381163 -0.07633,1.449378 -1.12,1.000899 z m -8.251113,31.306742 c 0.948697,-0.354953 1.681301,-0.744775 1.628008,-0.86627 -0.967547,-2.205796 -3.382475,-4.828811 -4.256895,-4.623701 -0.528,0.123852 -1.930902,0.233744 -3.117559,0.244206 l -2.15756,0.01902 -1.44244,2.149952 c -1.76205,2.62633 -1.761664,2.610916 -0.08244,3.29287 2.895183,1.17577 5.89242,1.107083 9.428887,-0.216079 z m 9.371113,-0.605629 c 0,-0.362387 -0.144,-0.569888 -0.32,-0.461114 -0.176,0.108774 -0.32,0.405272 -0.32,0.658885 0,0.253613 0.144,0.461115 0.32,0.461115 0.176,0 0.32,-0.296499 0.32,-0.658886 z M 28.598836,39.106682 c 1.043354,-1.333484 1.781268,-2.56608 1.667449,-2.785269 -0.112297,-0.216257 -0.412405,-0.753194 -0.666907,-1.193194 -0.254503,-0.44 -0.464855,-1.186626 -0.467449,-1.659168 -0.0067,-1.227544 -0.553381,-2.500832 -1.073643,-2.500832 -0.244621,0 -0.788185,-0.267058 -1.20792,-0.593463 -4.844509,-3.767305 -6.185541,4.719966 -1.575408,9.970618 1.316474,1.49938 1.125998,1.570363 3.323878,-1.238692 z m 18.809645,-2.02557 c 0.440327,-1.140831 0.747468,-2.811232 0.844509,-4.592893 0.177044,-3.250535 0.397169,-3.108955 -3.445779,-2.216256 l -2.4,0.55751 -0.172148,1.589373 c -0.09468,0.874155 -0.346681,1.903906 -0.56,2.288336 -0.673629,1.213971 -0.41177,2.11856 1.274788,4.403743 l 1.640447,2.222707 1.06309,-1.229813 c 0.584699,-0.676398 1.374491,-2.036615 1.755093,-3.022707 z m 51.227932,2.482431 c 1.10594,-0.728572 1.794797,-1.253547 1.530797,-1.16661 -0.263997,0.08694 -1.271997,0.414455 -2.239997,0.727818 -2.11021,0.683121 -1.98139,0.591143 -1.7333,1.237667 0.26213,0.683107 0.12467,0.728068 2.4425,-0.798875 z M 38.911248,36.89105 c 6.624797,-3.88239 0.854811,-13.400562 -5.964072,-9.838336 -5.489828,2.867921 -3.394406,10.6264 2.871921,10.633534 1.270889,0.0014 2.093963,-0.210221 3.092151,-0.795198 z m -5.626689,-1.202831 c -2.681937,-1.826349 -2.186288,-2.3119 2.64198,-2.588154 4.084074,-0.233674 3.972362,-0.269427 3.288732,1.052568 -1.113773,2.1538 -3.946016,2.887127 -5.930712,1.535586 z M 31.367211,31.12352 c 0,-3.157259 5.911748,-3.940905 7.693,-1.019765 l 0.624698,1.024464 -1.198849,0.221559 c -2.445678,0.451984 -7.118849,0.303457 -7.118849,-0.226258 z M 18.544795,27.583391 c 0.519465,-2.321214 0.262169,-2.507024 -0.738123,-0.533044 -0.60311,1.190181 -0.712252,1.677081 -0.437514,1.951819 0.613226,0.613225 0.760734,0.435211 1.175637,-1.418775 z m 11.73282,0.145699 c 0.335278,-0.37352 1.361183,-1.104776 2.279788,-1.625011 1.945471,-1.101782 2.286982,-2.047352 1.814387,-5.023649 l -0.284579,-1.792211 -1.12,0.09742 c -3.767332,0.327699 -11.203465,6.406955 -8.889723,7.267608 4.997404,1.858906 5.429877,1.933948 6.200127,1.07584 z m 13.832907,-0.421589 c 3.130347,-1.0647 3.071363,-0.988227 1.982696,-2.570551 -1.743248,-2.533724 -4.796817,-4.673198 -7.558959,-5.296162 l -1.113088,-0.251042 0.02371,1.649236 c 0.01304,0.907081 -0.06542,2.305813 -0.174355,3.108293 -0.197808,1.457192 -0.196413,1.459799 1.09175,2.04068 0.709396,0.319893 1.610816,0.923317 2.003155,1.340944 0.880647,0.937405 0.926873,0.937141 3.745095,-0.0214 z m 48.819421,-5.059282 c -0.64092,-1.276 -1.75471,-3.026182 -2.47509,-3.889293 -1.02011,-1.22223 -1.14187,-1.479431 -0.55055,-1.162967 l 0.75923,0.406327 -0.67313,-0.945316 c -1.3598,-1.90967 -5.89514,-5.212081 -13.25736,-9.6533527 -1.31547,-0.793562 -1.87475,-0.695105 -1.61847,0.284921 0.10249,0.391912 0.01,0.639682 -0.23964,0.639682 -0.2718,0 -0.21459,0.212514 0.17228,0.64 0.31855,0.352 0.72301,0.64 0.89878,0.64 2.01235,0 13.64953,9.3944637 16.32367,13.1777737 1.96587,2.781258 2.11124,2.750925 0.66028,-0.137775 z"
     id="path1" />
</svg>
