<?xml version="1.0" encoding="UTF-8" standalone="no"?>
<!-- Created with Inkscape (http://www.inkscape.org/) -->

<svg
   version="1.1"
   id="svg1"
   width="94.587372"
   height="105.48621"
   viewBox="0 0 94.587374 105.48621"
   sodipodi:docname="Icon_cerenovus.svg"
   inkscape:version="1.4.2 (ebf0e940d0, 2025-05-08)"
   xmlns:inkscape="http://www.inkscape.org/namespaces/inkscape"
   xmlns:sodipodi="http://sodipodi.sourceforge.net/DTD/sodipodi-0.dtd"
   xmlns="http://www.w3.org/2000/svg"
   xmlns:svg="http://www.w3.org/2000/svg">
  <defs
     id="defs1" />
  <sodipodi:namedview
     id="namedview1"
     pagecolor="#505050"
     bordercolor="#eeeeee"
     borderopacity="1"
     inkscape:showpageshadow="0"
     inkscape:pageopacity="0"
     inkscape:pagecheckerboard="0"
     inkscape:deskcolor="#505050"
     showgrid="false"
     inkscape:zoom="4.2301186"
     inkscape:cx="48.107399"
     inkscape:cy="52.717199"
     inkscape:window-width="1838"
     inkscape:window-height="1011"
     inkscape:window-x="40"
     inkscape:window-y="47"
     inkscape:window-maximized="1"
     inkscape:current-layer="svg1" />
  <path
     style="fill:#65090b"
     d="m 30.985263,105.02685 c -7.440934,-1.99372 -14.918395,-8.851296 -16.131642,-14.794326 -0.131387,-0.64359 -0.52101,-0.93072 -1.898173,-1.39883 -5.900587,-2.00567 -10.74995,-8.62134 -10.800189,-14.73399 -0.01543,-1.87761 -0.187861,-2.86991 -0.659258,-3.79393 -2.02515602,-3.96963 -1.99334402,-9.50698 0.09021,-15.701941 l 0.6318,-1.878508 -0.672539,-1.961491 c -2.943975,-8.586244 1.619887,-15.799486 6.851927,-10.82956 2.661314,2.527988 3.630341,2.851995 9.134288,3.054162 l 3.346423,0.122918 1.040571,1.203763 c 0.572314,0.662069 1.274548,1.908203 1.560521,2.769187 0.733046,2.206995 3.209433,4.827586 5.432739,5.749095 1.900033,0.787519 2.022418,0.947249 1.229801,1.605063 -0.736302,0.611076 -2.061069,2.77385 -2.379794,3.885172 -0.244552,0.85271 -0.121659,0.78472 1.397594,-0.773188 1.144194,-1.173307 2.166672,-1.879342 3.265722,-2.255024 3.136019,-1.071968 5.28,-3.047101 5.28,-4.864177 0,-0.416429 -0.32483,-0.331052 -1.705874,0.448361 -3.664061,2.067868 -7.977418,0.149114 -10.66378,-4.743676 -2.313983,-4.21456 -2.893382,-4.533588 -8.233623,-4.533588 -11.712464,0 -14.413638,-14.624399 -4.521934,-24.482163 2.098792,-2.091592 2.85408,-3.13259 4.112376,-5.668008 5.259651,-10.59800111 26.576667,-15.7601801 29.003277,-7.0235031 0.459028,1.652666 0.443863,24.5852591 -0.01645,24.8697451 -0.637968,0.394286 -2.249156,-1.590202 -3.757999,-4.628698 -2.277398,-4.586205 -3.776203,-5.11104 -8.198897,-2.870997 -2.462559,1.247258 -2.157445,1.560203 0.597154,0.612482 3.758071,-1.292966 4.420135,-0.936346 6.584514,3.54674 0.731703,1.515578 1.887164,3.429396 2.567692,4.252929 2.903468,3.513597 2.701609,2.394839 2.808003,15.562687 l 0.09446,11.691214 -0.734463,1.087674 c -0.539521,0.79898 -1.966026,1.75548 -5.374464,3.6037 -2.552,1.38382 -4.928,2.81193 -5.28,3.17358 l -0.64,0.65754 1.283873,-0.64013 c 0.706129,-0.35207 2.362129,-0.96338 3.679999,-1.35848 1.31787,-0.39509 3.068473,-1.05416 3.890228,-1.4646 2.691455,-1.34428 2.961901,-0.80958 3.092718,6.11467 0.146587,7.75898 -1.669503,8.69039 -12.039076,6.17442 -0.754742,-0.18313 -1.460995,-0.24422 -1.569452,-0.13576 -0.472109,0.47211 3.077428,1.55683 6.548188,2.0011 5.507144,0.70492 6.395324,0.98937 7.065616,2.26282 0.480169,0.91225 0.483346,7.98025 0.0042,9.41329 -0.563167,1.68443 -0.708062,1.71417 -3.232189,0.66337 -1.300238,-0.54129 -3.363085,-1.13974 -4.584103,-1.32988 -3.233437,-0.50354 -5.506401,-1.20439 -7.500034,-2.31256 -1.550701,-0.86197 -1.683891,-0.8922 -1.12,-0.25424 1.444662,1.63443 5.397332,3.42765 8.827048,4.0046 6.115523,1.02875 8.228031,4.16719 6.58704,9.78603 -1.417815,4.854666 -8.188109,7.750966 -14.294088,6.114936 z m 4.467912,-8.080246 c -1.634902,-1.43985 -4.950767,-3.58401 -7.59589,-4.91178 -7.206414,-3.61738 -7.721717,-13.81282 -0.633208,-12.52822 l 0.878815,0.15926 -0.730149,-1.19176 c -2.228803,-3.63789 -1.704658,-7.65613 1.333147,-10.22025 1.390806,-1.17395 0.271098,-0.81995 -1.795241,0.56756 -2.840532,1.90737 -4.513172,1.1027 -5.665278,-2.72546 -0.429514,-1.42717 -2.16541,-3.69361 -2.82898,-3.69361 -0.155829,0 0.03468,0.51454 0.423349,1.14342 0.923581,1.49439 0.524727,1.89658 -1.880843,1.89658 -4.196297,0 -5.874967,-1.85437 -5.785591,-6.39112 l 0.05394,-2.737913 -1.40099,-1.562926 c -2.150674,-2.399263 -2.527777,-2.113161 -0.885635,0.67192 0.879569,1.491752 0.972899,1.879201 0.802305,3.330689 -0.571739,4.86461 2.707675,8.31432 7.863276,8.27161 1.90989,-0.0158 2.158984,0.0542 2.308172,0.64858 0.277218,1.10453 2.377948,3.30859 3.561327,3.7365 1.093362,0.39537 1.109564,0.42847 1.109564,2.26722 0,1.0263 0.215274,2.38121 0.478386,3.01093 0.467307,1.11842 0.458044,1.1606 -0.4,1.8211 -5.876036,4.52328 -5.105268,10.37731 1.836929,13.9516 1.375528,0.70822 4.063298,2.21272 5.972823,3.34334 3.884293,2.29988 4.609426,2.57796 2.979774,1.14273 z M 15.458532,83.261614 c 0.303565,-0.93541 0.501266,-1.73804 0.439334,-1.78363 -0.06193,-0.0456 -0.616603,-0.41943 -1.232603,-0.83075 -2.5935,-1.73176 -4.063589,-3.7306 -4.457721,-6.06105 -0.173877,-1.02812 -0.294538,-1.12077 -1.943831,-1.49259 -2.243588,-0.5058 -2.343956,-0.10438 -0.244097,0.97625 0.382956,0.19708 0.949863,1.17963 1.391955,2.4125 0.725398,2.02293 1.240452,2.65326 4.114401,5.03523 0.474626,0.39338 0.769368,0.86666 0.654982,1.05174 -0.285566,0.46206 0.17028,3.00078 0.478289,2.66371 0.136044,-0.14887 0.495725,-1.03601 0.799291,-1.97141 z M 36.265263,40.002342 c 0.108774,-0.176 -0.06273,-0.320538 -0.381115,-0.321196 -1.260871,-0.0026 -2.59971,-1.252815 -3.938125,-3.677428 -1.894383,-3.431777 -2.932445,-4.365023 -6.070252,-5.457327 -5.832017,-2.030186 -5.320135,-5.501622 1.514776,-10.272764 4.32191,-3.01693 4.961896,-4.376795 3.462743,-7.357757 -1.01971,-2.02762 -1.079967,-3.8669271 -0.164801,-5.0303731 0.739563,-0.940202 0.36965,-1.167671 -0.441426,-0.271443 -1.195451,1.320959 -1.5223,2.7630971 -1.014092,4.4744201 1.084553,3.652085 0.589405,5.036273 -2.506555,7.007078 -3.383211,2.153661 -4.956297,3.525159 -5.687704,4.958835 -0.63603,1.246723 -0.669436,1.264877 -1.421136,0.772345 -1.382042,-0.905549 -4.661075,-0.258097 -5.826274,1.150409 -0.343431,0.415144 -0.147147,0.411922 1.530371,-0.02513 2.512951,-0.654707 3.302492,-0.253666 4.62359,2.348519 1.229557,2.421873 1.987735,2.944865 5.12,3.531786 2.935758,0.550099 3.050603,0.650092 5.654026,4.922835 1.867349,3.064696 4.651342,4.694733 5.545974,3.247188 z m 27.200002,63.241238 c -2.78331,-0.70711 -5.95127,-2.78589 -6.87451,-4.510976 -0.40583,-0.7583 -0.59017,-0.81026 -2.87462,-0.81026 -2.401913,0 -2.459484,-0.0192 -3.59663,-1.2 l -1.155644,-1.2 -0.360569,-7.84 C 47.92014,72.828314 48.300839,34.93809 49.146992,33.568986 l 0.697521,-1.128613 -0.71839,-1.099015 C 46.860065,27.87467 47.001552,22.616863 49.438845,19.720305 l 0.780409,-0.927463 -0.85673,-0.894233 c -1.406759,-1.46834 -1.588501,-8.7561631 -0.282719,-11.3369951 2.841352,-5.61583201 11.98441,-7.636899 16.10443,-3.559873 2.13248,2.110229 1.95861,2.074213 3.92422,0.812884 1.94727,-1.249556 2.96706,-0.996678 5.22488,1.295611 l 1.55706,1.580827 0.87683,-0.62436 c 1.08091,-0.769672 1.13229,-0.769727 2.10799,-0.0022 1.01948,0.801923 1.64837,0.543041 1.7718,-0.729355 0.0919,-0.947561 0.18733,-1.019174 1.4819,-1.112319 1.63019,-0.117294 2.41331,0.389986 2.16001,1.399195 -0.28652,1.141593 0.52517,1.550037 1.52205,0.765894 0.98101,-0.771666 1.70383,-0.528847 2.73451,0.918608 l 0.64474,0.905444 -0.79539,0.79539 c -1.06062,1.0606181 -0.75455,1.8750241 0.70466,1.8750241 1.02362,0 1.08577,0.06291 1.08577,1.099168 0,1.949572 -0.44599,2.658463 -1.56886,2.493661 -1.33144,-0.195413 -1.65361,0.641381 -0.65585,1.703452 l 0.73627,0.783718 -0.7232,0.769809 c -0.80326,0.855026 -0.66043,1.446664 0.62616,2.593772 1.92698,1.71807 1.97921,3.565045 0.15076,5.330857 -1.75395,1.693865 -1.75366,1.495995 -0.005,3.642535 2.27816,2.796968 2.09427,4.450675 -0.87878,7.903027 l -1.58455,1.84 1.07166,0.0018 c 2.81754,0.0047 5.38812,1.666758 6.6685,4.311673 0.77156,1.593823 0.76347,3.477053 -0.0895,20.846418 l -0.45769,9.31986 -1.55184,2.20013 c -0.85351,1.21008 -3.28567,4.27015 -5.4048,6.80016 -3.32326,3.9676 -5.15827,6.23458 -6.39352,7.89861 -0.19242,0.25921 -0.14665,0.87115 0.12722,1.701 0.49448,1.49826 0.41232,1.64279 -3.20615,5.64037 -4.41129,4.873456 -8.87749,6.676066 -13.58052,5.481236 z m 6.72,-2.16457 c 1.1802,-0.28748 8.21335,-6.839166 8.13813,-7.581026 -0.031,-0.30566 -4.65364,-3.89564 -5.01623,-3.89564 -0.16495,0 -1.20943,1.06837 -2.32107,2.37417 -3.48038,4.08824 -5.27416,5.2737 -8.77415,5.79855 -1.89124,0.28361 -1.87882,0.79922 0.0533,2.21426 2.34134,1.714716 4.2666,1.979616 7.92,1.089686 z m -9.76,-6.653816 c 0,-0.8867 0.69137,-1.94285 1.27182,-1.94285 0.14635,0 0.67607,0.50969 1.17714,1.13264 l 0.91104,1.13265 1.5297,-0.97175 c 1.89028,-1.20081 2.1081,-1.72059 1.22284,-2.91796 -1.26217,-1.70718 -0.3017,-2.47376 2.14515,-1.71211 0.5846,0.18197 1.39815,-1.92089 1.27975,-3.30794 -0.088,-1.03124 -0.22112,-1.17594 -1.37744,-1.49753 -1.72117,-0.47868 -1.84275,-1.3656 -0.32126,-2.3434 l 1.12876,-0.7254 -0.6097,-1.1946 c -1.09986,-2.15499 -1.78045,-2.55565 -3.11778,-1.83545 -1.36196,0.73346 -2.27062,0.36735 -2.07874,-0.83756 0.23846,-1.49745 0.18937,-1.68894 -0.52695,-2.05521 -1.09683,-0.56084 -1.13037,-0.66233 -0.52444,-1.58709 0.55678,-0.84976 0.55325,-0.86233 -0.46652,-1.66042 -1.1734,-0.91832 -0.9758,-1.51351 0.61874,-1.86373 0.9974,-0.21907 1.12209,-0.58898 0.63255,-1.87657 -0.26571,-0.69887 -0.4473,-0.78006 -1.39932,-0.62557 -1.42091,0.23059 -1.76538,-0.33056 -0.91171,-1.4852 l 0.659,-0.89135 -0.72194,-0.67822 c -0.92536,-0.86933 -1.20467,-0.85329 -2.12069,0.12177 -0.99694,1.06119 -1.50323,1.00908 -1.76475,-0.18163 -0.42681,-1.94325 -2.71525,-1.69514 -2.71525,0.29439 0,1.57695 -0.2103,1.74822 -1.332574,1.08528 -1.794229,-1.05988 -2.865066,0.61964 -1.382029,2.16759 0.995708,1.0393 0.858584,1.47603 -0.581153,1.85096 -0.898863,0.23407 -1.010513,0.38159 -0.912061,1.20507 0.1633,1.36587 0.330904,1.50807 1.545219,1.31101 1.33304,-0.21632 1.696693,0.38029 0.93778,1.53854 -1.061615,1.62023 0.616831,2.65688 2.061218,1.27307 0.71431,-0.68435 1.03848,-0.8174 1.31583,-0.54005 0.27734,0.27734 0.10922,0.50939 -0.68244,0.94189 -2.790385,1.52444 -3.228091,2.22222 -2.235842,3.56431 1.041192,1.40828 0.565902,2.08649 -1.28969,1.84034 l -1.500477,-0.19905 -0.371892,1.24127 c -0.20454,0.68269 -0.371891,1.68285 -0.371891,2.22257 0,1.00034 0.06828,1.0509 1.999999,1.48079 1.185037,0.26372 1.148328,1.229 -0.08,2.10365 -1.212072,0.86307 -1.206819,1.45829 0.02768,3.13696 1.089404,1.48135 1.816194,1.67114 2.692323,0.70304 1.17597,-1.29944 2.19607,-0.4935 1.76947,1.398 -0.32369,1.4352 0.63697,2.08669 3.11053,2.10947 1.29326,0.0119 1.36,-0.0335 1.36,-0.92462 z m -2.64,-3.42694 c -1.02706,-0.29865 0.49158,-3.31591 1.66895,-3.31591 0.34152,0 0.96885,-0.15853 1.39409,-0.35227 0.76854,-0.35018 3.41696,0.9353 3.41696,1.65851 0,1.27056 -4.36561,2.62449 -6.48,2.00967 z m -3.13134,-2.43591 c -1.877071,-3.04107 -0.92359,-7.24366 1.98465,-8.74757 0.53912,-0.27879 1.09583,-0.38664 1.23713,-0.23966 0.43929,0.45694 0.74447,3.30723 0.35411,3.30723 -0.79506,0 -1.36633,1.86629 -0.97306,3.17891 0.74541,2.48795 -1.36137,4.51239 -2.60283,2.50109 z m 8.55734,-2.01717 c -0.66141,-0.44943 -1.11296,-0.96213 -1.00346,-1.13931 0.35211,-0.56972 -0.56456,-2.21916 -1.50298,-2.70443 -0.54582,-0.28226 -0.98393,-0.82074 -1.0942,-1.34491 -0.10115,-0.4808 -0.23606,-1.13499 -0.2998,-1.45376 -0.27702,-1.38543 2.35921,-1.01979 4.23719,0.5877 3.36544,2.88069 3.06052,8.36322 -0.33675,6.05471 z m -4.666,-0.43134 c -0.242,-0.15329 -0.44,-0.67146 -0.44,-1.15149 0,-1.3075 1.64866,-1.98334 2.576,-1.056 1.30507,1.30507 -0.54392,3.21595 -2.136,2.20749 z m -1.47034,-8.97586 c -0.2439,-0.39464 1.07035,-0.96765 1.68386,-0.73416 0.22744,0.0866 0.36034,0.31964 0.29532,0.51795 -0.15717,0.47947 -1.71153,0.64927 -1.97918,0.21621 z m 1.924,-2.55352 c -0.10125,-0.16384 -0.0627,-0.37289 0.0856,-0.46457 0.41125,-0.25416 1.67775,0.15608 1.47827,0.47884 -0.23138,0.37439 -1.32984,0.36437 -1.56385,-0.0143 z m -2.95274,-2.58435 c -2.12025,-0.85426 -1.49095,-3.83776 0.80948,-3.83776 2.16263,0 2.7394,2.76634 0.79063,3.79209 -0.79597,0.41897 -0.68171,0.41571 -1.60011,0.0457 z m 21.97908,17.81023 c 0,-0.87517 -3.84124,-3.86391 -4.33335,-3.37164 -0.55419,0.55436 -0.39592,0.77797 1.73515,2.45151 1.76608,1.38691 2.5982,1.6816 2.5982,0.92013 z m 1.31337,-2.56779 c -1.12696,-1.3579 -3.91277,-3.1686 -4.28753,-2.78678 -0.61586,0.62744 3.59747,4.3173 4.22667,3.70154 0.35997,-0.35228 0.37242,-0.53934 0.0609,-0.91476 z m 1.86724,-1.29684 c 0.53314,-0.6424 -3.70245,-4.19979 -4.35533,-3.65795 -0.66984,0.55591 -0.5458,0.7585 1.5227,2.48689 2.13172,1.78123 2.27654,1.8411 2.83263,1.17106 z m 1.24184,-3.46039 c -3.44637,-2.9103 -3.32697,-2.84307 -3.90824,-2.20078 -0.85005,0.9393 3.40148,4.51809 4.34887,3.66072 0.61096,-0.55292 0.60327,-0.57842 -0.44063,-1.45994 z m 2.29755,-0.72297 c 0.49831,-0.60044 0.2922,-0.86462 -2.20563,-2.82703 -1.59795,-1.25541 -1.94428,-1.41071 -2.27024,-1.01795 -0.53675,0.64674 -0.41323,0.83477 1.75587,2.67286 2.15832,1.82895 2.17051,1.83421 2.72,1.17212 z m -7.49936,-4.91054 c 2.27665,-2.5248 4.83123,-5.44621 5.67684,-6.49202 l 1.53749,-1.90149 -0.20297,-5.98797 c -0.11163,-3.29339 -0.26907,-6.194295 -0.34988,-6.446454 -0.18185,-0.567493 -2.77877,1.942765 -8.34428,8.065804 l -4.00603,4.40734 0.21185,5.67266 c 0.33785,9.04653 -0.0782,8.8428 5.47698,2.68213 z m -4.02064,-0.36946 c 0,-1.49334 0.13333,-2.56 0.32,-2.56 0.176,0 0.32,0.36 0.32,0.8 0,1.15285 0.521,0.999 2.53517,-0.74866 0.98166,-0.85177 2.10883,-1.72083 2.50483,-1.93126 0.66442,-0.35307 0.9918,-1.58161 0.54147,-2.03195 -0.38298,-0.38297 -1.43777,0.18538 -1.60881,0.86688 -0.0992,0.39519 -0.81762,1.34396 -1.5965,2.10839 l -1.41616,1.38985 v -0.9533 c 0,-1.22596 5.37759,-6.76346 6.4092,-6.59979 0.73772,0.11704 1.329,-1.08846 1.0525,-2.14582 -0.28229,-1.07947 -1.44886,-0.7698 -1.92576,0.5112 -0.60483,1.62461 -4.40645,5.08187 -4.52073,4.11123 -0.12089,-1.02674 1.20762,-2.64252 2.30243,-2.80029 0.84698,-0.12206 1.467,-1.67984 0.8959,-2.25094 -0.49814,-0.49814 -1.44557,0.0388 -1.6035,0.90876 -0.0605,0.33313 -0.59891,1.11416 -1.19652,1.73562 -0.82681,0.85981 -1.13571,1.51004 -1.29218,2.72 -0.19072,1.47486 -1.11036,3.03008 -1.79174,3.03008 -0.15337,0 -0.23627,-0.91842 -0.18422,-2.04093 l 0.0946,-2.04094 4.8,-5.12991 4.8,-5.12992 0.20835,1.65085 c 0.9841,7.79738 0.62738,8.81017 -5.30642,15.06574 -4.51627,4.76118 -4.34193,4.70235 -4.34193,1.46511 z m 13.376,3.136 c 0.73366,-0.73367 0.34596,-1.38469 -1.74542,-2.93084 l -2.10313,-1.55484 -0.64152,0.64153 -0.64153,0.64152 1.2378,1.11773 c 2.91152,2.62911 3.19682,2.78187 3.8938,2.0849 z m 1.99525,-2.66957 c 0.46411,-0.55921 0.55405,-0.45509 -2.17138,-2.51346 -3.22628,-2.43661 -3.81223,-1.17062 -0.6445,1.3925 2.22844,1.80312 2.24445,1.80949 2.81588,1.12096 z m -18.5645,-1.75905 c 1.32639,-2.47838 -0.73333,-5.31692 -3.37668,-4.65349 -1.76366,0.44266 -2.61399,3.61934 -1.3162,4.91712 1.12054,1.12054 4.03986,0.95654 4.69288,-0.26363 z m -1.4685,-1.08009 c -0.11446,-0.45605 -0.61641,-1.17274 -1.11544,-1.59265 -0.97087,-0.81693 -0.92427,-1.15464 0.15932,-1.15464 1.7067,0 2.82918,2.19469 1.63105,3.18905 -0.38464,0.31923 -0.50345,0.24147 -0.67493,-0.44176 z m 22.18389,0.21068 c 0.47034,-0.70955 0.43084,-0.74409 -2.28757,-2 -3.92713,-1.81433 -4.42254,-1.18812 -1.06755,1.34942 2.17715,1.6467 2.63586,1.73564 3.35512,0.65058 z m 1.16186,-3.33797 c 0.27823,-1.39116 0.0597,-1.52119 -2.94551,-1.75294 -3.49112,-0.26921 -3.5999,0.36799 -0.29849,1.74849 2.939,1.22896 2.99908,1.22904 3.244,0.004 z m -22.5825,-4.02506 c 1.59291,-1.06981 10.6185,-10.543557 10.6185,-11.145751 0,-1.933115 -1.23887,-1.133541 -6.48115,4.182981 -6.47328,6.56497 -5.55609,6.56235 -13.67885,0.039 l -3.36,-2.698419 -0.69683,0.647652 -0.69682,0.647647 3.09682,2.40858 c 1.70326,1.32471 3.8431,3.04023 4.75521,3.81226 3.5514,3.00599 4.59519,3.34718 6.44312,2.10609 z m 22.72243,-0.32775 c 0.13815,-0.97402 -5.45247,-0.98808 -5.6386,-0.0142 -0.13235,0.69248 0.54642,0.85651 3.29467,0.79616 2.07381,-0.0455 2.24771,-0.10355 2.34393,-0.78199 z m -0.5629,-2.31845 c 1.76035,-0.94211 0.74163,-1.69099 -1.99036,-1.46315 -3.02233,0.25205 -3.14653,0.30112 -2.92331,1.15473 0.19028,0.72763 3.71677,0.94898 4.91367,0.30842 z m -18.77449,-5.45923 c 4.69172,-4.84937 4.99809,-5.276879 4.28946,-5.985512 -0.78425,-0.784244 -1.4709,-0.293301 -5.55823,3.973985 -4.59727,4.799677 -4.45116,4.733917 -6.45777,2.906247 -0.74554,-0.67905 -0.9824,-2.99223 -0.53531,-5.227711 l 0.1847,-0.923478 3.0953,-0.01356 c 11.58717,-0.05074 15.5386,-16.932529 5.19808,-22.207867 -7.39245,-3.771349 -16.00992,1.029501 -16.58257,9.238263 -0.22231,3.186775 1.30006,8.27173 2.62913,8.781745 0.27313,0.10481 0.45927,0.362697 0.41364,0.573082 -0.0456,0.210386 0.60103,0.898125 1.43703,1.52831 l 1.52,1.14579 v 3.882286 3.88229 l 2.12219,1.63831 c 3.01036,2.32397 2.84591,2.38765 8.24435,-3.19218 z m -7.2714,-7.772496 c -6.89851,-1.923286 -8.93069,-11.561672 -3.43036,-16.26975 3.29945,-2.824209 8.57871,-2.725115 11.40302,0.214039 6.7085,6.981285 0.96514,18.547545 -7.97266,16.055711 z m 4.51117,-7.683083 c 0.19197,-0.421337 1.22309,-1.246576 2.29137,-1.833864 2.07788,-1.142322 2.08809,-1.154039 1.6327,-1.874226 -0.25702,-0.406472 -0.54182,-0.356428 -1.9951,0.350571 -2.70043,1.313717 -3.62603,1.040248 -6.19524,-1.830396 -1.16467,-1.30131 -2.23323,-2.366018 -2.37457,-2.366018 -0.84441,0 -0.3114,1.157739 1.62809,3.536307 1.21252,1.487031 2.205,2.945407 2.20551,3.240836 0.003,1.482452 2.2077,2.092638 2.80724,0.77679 z m 21.45048,17.839989 c 0.52324,-0.14015 0.70873,-0.39394 0.64,-0.87564 -0.0987,-0.69162 -4.76337,-0.87927 -5.46728,-0.21993 -1.08235,1.01381 2.28188,1.77733 4.82728,1.09557 z m 0.64446,-3.553923 c -0.0557,-0.484 -0.28125,-0.8656 -0.50125,-0.848 -0.22,0.0176 -1.408,0.0536 -2.64,0.08 -3.89296,0.08342 -3.41708,1.648003 0.50125,1.648003 h 2.74126 z m -36.83132,-1.749068 c 1.82392,-1.801258 2.05031,-2.486661 1.04769,-3.1719 -0.48073,-0.328559 -0.69382,-0.945353 -0.84686,-2.451216 l -0.20448,-2.012184 -2.593142,0.09218 -2.59314,0.09219 v 2.948578 2.948578 l 1.58797,1.611421 c 1.921335,1.94971 1.563564,1.955435 3.601962,-0.05765 z m 37.23866,-1.396805 c 3.67446,-3.325341 -0.53093,-14.033563 -5.30022,-13.495995 -4.58587,0.516895 -10.8986,9.214044 -8.46902,11.667913 2.31661,2.33977 2.96943,2.404413 4.66837,0.462268 1.93138,-2.207856 2.35228,-2.162535 2.35228,0.253288 v 1.901601 l 1.36,0.0984 c 2.10812,0.152528 4.71355,-0.276574 5.38859,-0.887475 z m -37.97885,-7.765174 c 0.0921,-0.149077 0.18446,-2.720381 0.20516,-5.714009 l 0.0376,-5.442961 2.38892,-2.765842 2.38893,-2.765842 -1.02876,-1.280149 c -1.37213,-1.707434 -1.44948,-1.682945 -4.29521,1.359851 -3.852177,4.118946 -3.663848,3.568125 -3.665236,10.72 l -0.0012,6.16 h 1.901115 c 1.045613,0 1.976501,-0.121972 2.068631,-0.271048 z m 31.27425,-9.94718 c 3.65364,-3.80141 3.60966,-4.402458 -0.66851,-9.135192 -3.54608,-3.922867 -3.17602,-3.85656 -6.04251,-1.082694 -1.33913,1.295863 -2.48942,2.382656 -2.5562,2.415097 -0.0668,0.03244 0.25314,0.550032 0.71091,1.150205 0.97761,1.281707 0.99936,1.435837 0.31014,2.197416 -0.75547,0.83479 1.9826,4.515996 4.52218,6.079844 1.35638,0.835247 1.36208,0.832759 3.72399,-1.624676 z M 52.777718,29.202342 c 0.796617,-0.836 1.910627,-2.068906 2.475567,-2.739792 l 1.02718,-1.219791 -2.60839,-2.552895 c -2.478279,-2.425559 -2.637868,-2.52621 -3.199523,-2.017919 -2.173687,1.96716 -2.393148,6.325552 -0.46657,9.265881 0.721721,1.101486 1.122685,0.99509 2.771736,-0.735484 z m 11.617577,-2.358955 c 2.90009,-3.13236 2.88841,-3.99921 -0.0874,-6.48543 -1.29072,-1.078363 -1.42296,-1.120006 -2.22741,-0.701424 -1.48097,0.770595 -2.39457,1.976377 -2.21384,2.921828 0.12064,0.631105 -0.0829,1.127909 -0.79392,1.937706 -1.17754,1.341148 -1.04388,2.201675 0.56082,3.610622 1.71427,1.505148 2.33495,1.337875 4.76175,-1.283302 z m 14.23043,-3.479726 c 0.86317,-1.074102 0.9214,-1.2678 0.48901,-1.626656 -0.73629,-0.611063 -4.92587,3.578521 -4.31481,4.314807 0.48263,0.58153 2.12635,-0.573411 3.8258,-2.688151 z m 9.31954,-0.231777 c 0,-1.105342 -16.27273,-18.3295411 -17.31701,-18.3295411 -0.62951,0 -2.52299,1.488223 -2.52299,1.982994 0,0.179357 2.27039,2.722556 5.04531,5.6515541 2.77493,2.928998 6.75664,7.168654 8.84826,9.421458 l 3.80293,4.096006 1.07175,-1.03878 c 0.61123,-0.592433 1.07175,-1.358856 1.07175,-1.783691 z m -4.736,-1.113542 c -0.8462,-0.846199 -0.063,-2.401139 1.00326,-1.991959 0.69565,0.266947 0.9892,1.345951 0.51999,1.911315 -0.46895,0.565048 -1.0102,0.593702 -1.52325,0.08064 z m -6.224,-6.681631 c -0.69752,-0.406265 -0.72398,-1.359918 -0.0532,-1.91663 0.99758,-0.82792 2.24768,0.77675 1.40042,1.797634 -0.45092,0.543326 -0.59662,0.556195 -1.34724,0.118996 z m -5.65443,-5.8635541 c -0.67918,-0.818365 -0.29119,-1.630814 0.77881,-1.630814 0.84846,0 0.95562,0.107645 0.95562,0.96 0,1.099414 -1.04371,1.5030821 -1.73443,0.670814 z m 4.40637,13.2185341 c 2.05422,-1.869044 2.30765,-2.330563 1.45865,-2.656354 -0.47553,-0.182479 -4.61059,3.066026 -4.61059,3.622084 0,1.381558 0.86256,1.117276 3.15194,-0.96573 z m -16.60963,-1.969349 c 2.26511,-2.342313 2.68645,-3.206994 1.73974,-3.570281 -0.73581,-0.282358 -5.74297,4.637247 -5.46283,5.367301 0.3995,1.041056 1.48543,0.51691 3.72309,-1.79702 z m 14.83971,-0.01613 2.18203,-1.990926 -0.77844,-0.731301 -0.77843,-0.731301 -2.12359,1.835501 c -2.29619,1.984684 -2.39174,2.167457 -1.594,3.048958 0.71051,0.785097 0.61553,0.829042 3.09243,-1.430931 z m -19.46202,0.160072 c 3.25852,-2.507624 5.60067,-6.143941 3.95731,-6.143941 -0.43582,0 -5.397313,4.833855 -5.397313,5.258458 0,0.786111 0.872193,1.322441 1.440003,0.885483 z m 16.85019,-2.383942 c 2.24512,-1.907659 2.36802,-2.113954 1.7571,-2.94944 -0.41766,-0.57118 -0.55953,-0.503707 -2.64431,1.257668 -2.47221,2.08869 -2.58084,2.243698 -2.03405,2.902532 0.57878,0.697388 0.76775,0.619065 2.92126,-1.21076 z m -1.22598,-3.135363 1.54422,-1.361659 -0.80314,-0.803134 -0.80313,-0.803134 -2.27462,2.016606 -2.27463,2.016606 0.69923,0.744297 c 0.80802,0.860089 0.96886,0.78569 3.91207,-1.809582 z m -15.38434,-0.02355 c 2.24114,-2.364385 2.35752,-2.63703 1.86247,-4.3632 -0.33739,-1.1763891 -0.36515,-1.1523801 0.81399,-0.704072 1.35785,0.516251 6.52367,-3.5460721 6.52367,-5.1301111 0,-2.709372 -9.34146,-2.320497 -11.810568,0.491661 -2.437628,2.776306 -2.847302,10.8647231 -0.596167,11.7704601 0.830479,0.334141 1.092974,0.165121 3.206605,-2.064738 z m 12.24013,-2.015063 c 2.23074,-2.02837 2.49584,-3.3860231 0.66116,-3.3860231 -1.1226,0 -4.46421,4.1336431 -3.87126,4.7888401 0.78243,0.864576 0.65546,0.92006 3.2101,-1.402817 z m -0.48311,-4.5364271 c 0.0148,-1.672815 -1.24573,-1.478091 -3.50062,0.540759 -2.57411,2.3046621 -2.46934,2.1015981 -1.57535,3.0532001 l 0.68091,0.724804 2.19598,-1.984179 c 1.20779,-1.091299 2.19738,-2.1418621 2.19908,-2.3345841 z"
     id="path1" />
</svg>
