<?xml version="1.0" encoding="UTF-8" standalone="no"?>
<!-- Created with Inkscape (http://www.inkscape.org/) -->

<svg
   version="1.1"
   id="svg1"
   width="117.31805"
   height="108.75174"
   viewBox="0 0 117.31805 108.75174"
   sodipodi:docname="Icon_seamstress.svg"
   inkscape:version="1.4.2 (ebf0e940d0, 2025-05-08)"
   xmlns:inkscape="http://www.inkscape.org/namespaces/inkscape"
   xmlns:sodipodi="http://sodipodi.sourceforge.net/DTD/sodipodi-0.dtd"
   xmlns="http://www.w3.org/2000/svg"
   xmlns:svg="http://www.w3.org/2000/svg">
  <defs
     id="defs1" />
  <sodipodi:namedview
     id="namedview1"
     pagecolor="#505050"
     bordercolor="#eeeeee"
     borderopacity="1"
     inkscape:showpageshadow="0"
     inkscape:pageopacity="0"
     inkscape:pagecheckerboard="0"
     inkscape:deskcolor="#505050"
     showgrid="false"
     inkscape:zoom="4.2301186"
     inkscape:cx="57.563399"
     inkscape:cy="53.662799"
     inkscape:window-width="1838"
     inkscape:window-height="1011"
     inkscape:window-x="40"
     inkscape:window-y="47"
     inkscape:window-maximized="1"
     inkscape:current-layer="svg1" />
  <path
     style="fill:#0160a9"
     d="m 35.078043,108.27585 c -3.996871,-1.82558 -5.506295,-6.01369 -4.916419,-13.641304 0.600475,-7.76468 1.486224,-9.7713 5.811465,-13.1656 5.896497,-4.62737 8.941575,-8.77166 10.748221,-14.62811 0.906992,-2.94012 0.965116,-2.8256 -1.323267,-2.60716 -9.545011,0.91112 -17.916032,4.53701 -24.559999,10.63811 -5.687929,5.22317 -12.6386462,4.75517 -18.9423412,-1.27541 -4.802707,-4.59463 -0.01,-13.1412 9.0931862,-16.215397 3.161534,-1.067667 3.223883,-0.545802 0.143138,1.198098 -0.909691,0.514943 -2.0139832,1.245399 -2.4539832,1.623239 l -0.8,0.68699 1.213663,-0.68705 c 2.1897972,-1.239637 1.6651442,0.29401 -0.573663,1.67691 -1.810501,1.11834 -0.418489,0.59536 2.1907442,-0.82305 3.018347,-1.64082 5.492314,-2.386514 6.054035,-1.82479 0.270961,0.27096 0.204722,0.37256 -0.260779,0.40002 -1.274463,0.0752 2.007208,0.56698 3.901763,0.58476 2.103832,0.0197 3.104196,-0.68395 1.532933,-1.07832 -0.428283,-0.107488 -0.778697,-0.336692 -0.778697,-0.509339 0,-0.662956 1.814617,-0.261698 4.582485,1.013309 2.827245,1.30235 2.911691,1.31982 4.509358,0.93267 2.918205,-0.70714 3.024165,-0.77867 1.468157,-0.99115 -2.95959,-0.40415 -14.892168,-2.97109 -15.199999,-3.269828 -0.488793,-0.474355 3.531553,0.0182 6.277112,0.769041 8.578872,2.346107 27.037684,-0.527765 29.615207,-4.610827 1.078013,-1.707682 4.300983,-8.958674 7.131967,-16.045393 7.158965,-17.920831 12.602565,-26.5253594 20.587695,-32.5423354 2.7182,-2.048225 7.15039,-4.47150904 6.86926,-3.75574704 -0.0921,0.234497 -1.5351,3.73835804 -3.20667,7.78635804 -1.67157,4.0480004 -4.45147,10.8159994 -6.17756,15.0399994 -3.49868,8.561797 -4.26477,10.002638 -5.58293,10.500188 -0.86108,0.325018 -0.89993,0.422424 -0.73249,1.836176 0.16121,1.361191 -1.832,6.313639 -3.40636,8.463636 -1.8936,2.585961 -4.76503,9.12 -4.00786,9.12 0.69666,0 0.80114,-0.109073 0.62775,-0.655356 -0.43265,-1.363173 0.3448,-1.596726 2.45752,-0.738253 l 1.94186,0.78905 6.60275,-1.600663 c 11.09617,-2.689976 23.34582,-4.970824 34.442745,-6.413138 2.816,-0.366007 5.624,-0.748121 6.24,-0.849143 l 1.12,-0.183676 -1.12,1.174682 c -7.49952,7.865658 -21.640395,13.709316 -34.362915,14.200327 l -5.08292,0.196169 1.20837,1.440003 c 6.77143,8.06944 8.018,13.4632 4.6524,20.13042 -3.73269,7.39441 -13.23574,9.82743 -18.36203,4.70114 -6.313388,-6.31338 0.93499,-16.38283 8.03309,-11.15956 0.5753,0.42334 0.96827,0.89548 0.87327,1.04919 -0.095,0.15371 0.0479,0.40296 0.31763,0.55389 1.0004,0.55985 1.18805,2.31607 0.28418,2.65972 -1.09325,0.41565 -1.15291,0.39565 -0.92853,-0.31131 1.38026,-4.3488 -6.14522,-5.54766 -8.36854,-1.33316 -4.706791,8.92214 9.37823,13.8527 15.23892,5.33448 4.88719,-7.10328 0.87594,-22.58481 -5.8517,-22.58481 -3.64972,0 -13.948506,2.88517 -15.139086,4.24117 -4.765566,5.42768 -7.82702,16.8156 -5.871008,21.83883 3.540103,9.09133 -9.94331,26.492104 -17.761128,22.921304 z m 8.431403,-7.25652 c 0.91716,-0.27236 1.600394,-0.60389 1.518297,-0.73673 -0.0821,-0.13283 0.501782,-1.169994 1.297507,-2.304784 1.43858,-2.05159 3.394678,-5.76806 3.159629,-6.0031 -0.309815,-0.30982 -1.783581,1.18627 -2.304926,2.33983 -0.798185,1.76611 -3.71433,4.76296 -5.326061,5.47345 -0.734717,0.323894 -1.428393,0.720354 -1.541502,0.881034 -0.113109,0.16067 -0.617109,0.19844 -1.12,0.0839 -0.865157,-0.19702 -0.88093,-0.18213 -0.293185,0.27669 0.795342,0.62088 2.497616,0.61708 4.610241,-0.0103 z m 3.795123,-2.013444 c 2.213653,-2.24134 2.891602,-3.08342 3.132885,-3.89134 0.131405,-0.44 0.377691,-0.9737 0.547302,-1.18599 0.169611,-0.21229 0.205842,-0.55189 0.08051,-0.75468 -0.279773,-0.45268 -1.344021,0.78014 -2.691841,3.11822 -0.525536,0.91165 -1.406906,2.17165 -1.958602,2.8 -1.344429,1.531224 -0.640323,1.463004 0.889743,-0.0862 z m -5.785749,-0.024 c 3.105403,-1.8936 5.122595,-5.37106 5.885376,-10.14588 0.747959,-4.68204 -3.263307,-7.89246 -5.990343,-4.79438 -4.560864,5.18141 -5.796059,13.53547 -2.230614,15.08641 1.290278,0.56126 1.162317,0.56927 2.335581,-0.14615 z m -2.164961,-15.86734 c 1.33451,-1.14213 4.549285,-2.93799 6.282096,-3.50937 0.774406,-0.25535 -0.357459,-1.29183 -1.688599,-1.54629 -2.400198,-0.45883 -10.309313,6.84481 -10.309313,9.52008 0,0.19017 3.172505,-2.28776 5.715816,-4.46442 z m 9.457532,-9.00594 c 0.244188,-0.63634 -0.735489,-6.19406 -1.091848,-6.19406 -1.130724,0 -1.514844,3.82922 -0.4815,4.8 0.44,0.41336 0.8,1.01446 0.8,1.33578 0,0.72727 0.502113,0.76511 0.773348,0.0583 z M 9.7254848,70.197296 c -0.664093,-0.85649 -1.378973,-1.82849 -1.588623,-2.16 -0.357885,-0.56592 -0.382332,-0.56756 -0.4,-0.0269 -0.02805,0.8585 0.8165,2.31958 1.777943,3.07585 1.4065922,1.10643 1.4888232,0.75944 0.21068,-0.88899 z m 5.6725592,0.74838 c 4.41754,-1.2129 9.069578,-7.70146 6.239999,-8.70341 -7.854139,-2.78116 -16.5066282,3.7611 -10.483764,7.9269 1.771118,1.22503 2.27464,1.31716 4.243765,0.77651 z m 39.43604,-10.35672 c -0.344333,-0.46573 -0.73593,-1.20401 -0.870215,-1.640602 -0.338329,-1.099993 -0.786296,-1.593811 -1.445826,-1.593811 -2.072479,0 -1.036716,3.404833 1.364399,4.485143 1.619786,0.72878 2.02318,0.1986 0.951642,-1.25073 z m 3.542158,0.35388 c 2.453128,-2.71068 1.064329,-7.748292 -2.136094,-7.748292 -1.023569,0 -1.040081,-0.453745 0.157511,4.328398 1.046882,4.180344 1.141843,4.344474 1.978583,3.419894 z M 39.966963,58.454007 c 2.966685,-0.446158 4.922839,-1.11886 3.88972,-1.337636 -0.767909,-0.162614 -8.043112,1.451236 -8.434074,1.870921 -0.258112,0.277074 -0.103696,0.312594 0.615434,0.141544 0.528,-0.125583 2.296014,-0.429257 3.92892,-0.674829 z m 30.791082,-2.257616 c 0,-0.200311 -0.396,-0.513707 -0.88,-0.696434 -1.50675,-0.56885 -4.02551,-1.347384 -4.09092,-1.26448 -0.0343,0.04349 -0.23556,0.439067 -0.44721,0.879067 l -0.38483,0.8 0.65437,-0.8 c 0.51537,-0.630077 0.65587,-0.685065 0.66147,-0.258886 0.004,0.297613 -0.1195,0.619369 -0.27426,0.715013 -0.15475,0.09564 -0.35965,0.500143 -0.45533,0.898886 -0.15796,0.658325 -0.13944,0.670946 0.20138,0.137267 0.85679,-1.341636 1.01983,-1.4775 1.44837,-1.207006 0.34223,0.216022 0.35531,0.432837 0.0623,1.03403 -0.33088,0.679004 -0.32205,0.700557 0.0822,0.200695 0.24911,-0.308 0.54054,-0.56 0.64761,-0.56 0.10708,0 0.10783,0.252 0.002,0.56 -0.15675,0.454821 -0.0967,0.439795 0.31987,-0.08 0.31599,-0.394313 0.51678,-0.479196 0.52305,-0.221114 0.006,0.230387 0.15418,0.329888 0.33018,0.221114 0.176,-0.108773 0.32,0.02795 0.32,0.303827 0,0.421492 0.1022,0.437767 0.64,0.10191 0.352,-0.219827 0.64,-0.563578 0.64,-0.763889 z m 0.77866,-2.626403 c -0.38145,-0.324259 -2.05866,-1.041212 -2.05866,-0.880008 0,0.231472 2.06372,1.427509 2.21026,1.280967 0.0809,-0.08089 0.0127,-0.26132 -0.1516,-0.400959 z m 13.06134,-2.3133 c 2.46103,-0.590106 3.12,-0.865429 3.12,-1.303565 0,-0.68582 0.26659,-0.766029 4.64,-1.395995 8.565575,-1.233828 10.719995,-1.709123 10.719995,-2.364985 0,-0.510839 -13.773075,1.974565 -18.479995,3.334787 -0.98369,0.284269 -1.68,0.669076 -1.68,0.928426 0,0.266233 -0.50283,0.527885 -1.26044,0.655882 -0.93379,0.157763 -1.21333,0.335673 -1.0787,0.686518 0.1,0.260463 0.34314,0.413601 0.54043,0.340307 0.19729,-0.07329 1.76271,-0.469912 3.47871,-0.881375 z M 56.985068,49.674544 c 0.274463,0 0.682373,-0.293588 0.906466,-0.652417 0.224092,-0.35883 0.547001,-0.566165 0.717574,-0.460745 0.170573,0.105421 0.442815,-0.157308 0.604983,-0.58384 0.356412,-0.937436 1.498035,-1.332694 1.773775,-0.614126 0.755785,1.969543 1.038196,-5.021699 0.330308,-8.17693 -0.19497,-0.869025 -0.31433,-0.982334 -0.698734,-0.663307 -0.588914,0.488756 -1.421481,2.084923 -1.355724,2.599145 0.102983,0.805339 -0.03542,1.223968 -0.342008,1.034485 -0.176647,-0.109174 -0.237671,0.0095 -0.138194,0.268721 0.09798,0.255325 -0.193929,1.198469 -0.648679,2.095876 -1.059537,2.090896 -2.475798,5.980143 -2.006912,5.511258 0.196966,-0.196966 0.582681,-0.35812 0.857145,-0.35812 z m 6.412977,-3.729226 c 0,-0.247973 0.20486,-0.529475 0.45526,-0.625559 0.82199,-0.315429 0.8544,-1.143355 0.21059,-5.379893 -0.34981,-2.301927 -0.76221,-5.049322 -0.91645,-6.105322 -0.741447,-5.076427 -1.350111,1.969734 -0.701837,8.124777 0.22418,2.128472 0.214852,3.127226 -0.03198,3.424644 -0.526748,0.634693 -0.0528,1.873025 0.531327,1.388244 0.2492,-0.206816 0.45309,-0.578917 0.45309,-0.826891 z M 108.33938,45.60778 c 0.19787,-0.515655 -3.50246,-0.361303 -4.04426,0.168699 -0.38827,0.379809 2.04934,0.401302 2.50625,0.0221 0.33777,-0.280321 0.43667,-0.247087 0.43667,0.146741 0,0.624977 0.82955,0.370738 1.10134,-0.337538 z m 1.6491,0.06676 c 0.74619,-0.506381 0.97858,-0.8 0.63317,-0.8 -0.76533,0 -1.67387,0.532451 -1.89592,1.11111 -0.25212,0.657002 -0.11353,0.622857 1.26275,-0.31111 z M 66.598045,38.325546 c 0,-1.270801 -0.64581,-6.755357 -1.14944,-9.761635 -0.15394,-0.918903 -0.23924,-1.015611 -0.4941,-0.5602 -0.20775,0.371228 -0.0688,2.373707 0.42686,6.150633 0.70903,5.403071 1.21668,7.14346 1.21668,4.171202 z m 2.77859,0.408998 c -0.10215,-0.255275 -0.17797,-0.179448 -0.19333,0.193333 -0.0139,0.337334 0.0617,0.526334 0.16807,0.42 0.10633,-0.106333 0.1177,-0.382333 0.0253,-0.613333 z m -5.12666,-2.9 c -0.0888,-0.22 -0.16141,-0.04 -0.16141,0.4 0,0.44 0.0726,0.62 0.16141,0.4 0.0888,-0.22 0.0888,-0.58 0,-0.8 z m 2.64781,-6.251179 c -0.37663,-3.122056 -0.68413,-4.078208 -1.02494,-3.186983 -0.11816,0.308988 0.49557,5.670735 1.08949,9.518162 0.30595,1.981974 0.24757,-3.743817 -0.0645,-6.331179 z m 1.6503,5.345424 c -0.29079,-0.727501 -0.3107,-0.707592 -0.32976,0.329755 -0.0139,0.757772 0.0831,1.000585 0.30947,0.774245 0.21836,-0.218354 0.22521,-0.591317 0.0203,-1.104 z m -0.68954,-4.812526 c -0.19949,-1.650945 -0.4405,-3.073719 -0.53558,-3.161719 -0.21015,-0.194515 0.16592,4.665307 0.44052,5.692692 0.40326,1.508744 0.44593,0.372674 0.0951,-2.530973 z m -3.67496,1.19378 c -0.11864,-0.632444 -0.33041,-1.079017 -0.47058,-0.992384 -0.14018,0.08663 -0.10026,0.66125 0.0887,1.276927 0.43289,1.410463 0.66714,1.235927 0.38189,-0.284543 z m 6.75188,-6.719632 c -0.12335,-2.483727 -0.32435,-5.003762 -0.44665,-5.600079 l -0.22237,-1.084213 -0.61491,1.141813 c -0.67104,1.246054 -0.33757,7.550531 0.44054,8.328643 0.19028,0.190283 0.34597,0.757668 0.34597,1.260855 0,0.597487 0.12519,0.837514 0.36085,0.691866 0.25767,-0.159252 0.29672,-1.514229 0.13657,-4.738885 z m -2.83567,2.130223 c -0.0811,-0.311349 -0.15285,-0.13409 -0.15937,0.39391 -0.007,0.528 0.0599,0.782741 0.14752,0.56609 0.0876,-0.21665 0.093,-0.64865 0.0118,-0.96 z m 0.95883,-2.24609 c -0.0805,-0.308 -0.14634,-0.056 -0.14634,0.56 0,0.616 0.0658,0.868 0.14634,0.56 0.0805,-0.308 0.0805,-0.812 0,-1.12 z m -1.27475,-0.8 c -0.0763,-0.396 -0.13868,-0.072 -0.13868,0.72 0,0.792 0.0624,1.116 0.13868,0.72 0.0763,-0.396 0.0763,-1.044 0,-1.44 z m 4.54678,-3.6 c 0.01,-1.76 -0.10417,-3.392073 -0.25298,-3.62683 -0.54324,-0.856974 -0.71779,0.717981 -0.48984,4.419656 0.27086,4.398439 0.7169,3.922373 0.74282,-0.792826 z m -3.59402,2.34 c -0.10215,-0.255274 -0.17797,-0.179448 -0.19333,0.193334 -0.0139,0.337333 0.0617,0.526333 0.16807,0.42 0.10633,-0.106334 0.1177,-0.382334 0.0253,-0.613334 z m 12.89161,-11.299999 c 0,-0.176 -0.13959,-0.104 -0.3102,0.16 -0.17061,0.264 -0.3102,0.624 -0.3102,0.8 0,0.176 0.13959,0.104 0.3102,-0.16 0.17061,-0.264 0.3102,-0.624 0.3102,-0.8 z m 0.6241,-1.4400004 c 0.35925,-0.754326 0.35259,-0.764537 -0.11665,-0.178839 -0.27371,0.341639 -0.49765,0.7616394 -0.49765,0.9333334 0,0.406574 0.1478,0.225036 0.6143,-0.7544944 z M 47.23054,48.078404 C 31.477824,45.762823 21.85019,29.446004 28.3772,16.125948 33.31727,6.0444516 43.246808,3.1394506 49.417997,9.9702186 55.104354,16.264336 45.596411,26.699541 37.806121,22.714544 c -3.000672,-1.534945 -2.54118,-2.81954 0.637522,-1.782312 8.010933,2.614012 14.246623,-2.451326 11.010994,-8.944386 -2.705546,-5.4293254 -10.580253,-5.9474594 -15.23232,-1.002244 -11.045881,11.741929 -5.721323,29.105443 10.396049,33.901771 1.727177,0.513986 3.291277,1.027815 3.475777,1.141842 0.1845,0.114028 0.454867,0.01411 0.600817,-0.222044 0.331764,-0.536805 4.685994,0.115317 5.377368,0.805355 1.405418,1.402702 -2.125329,2.159177 -6.841788,1.465878 z m 2.167503,-0.85579 c -0.22,-0.08877 -0.58,-0.08877 -0.8,0 -0.22,0.08877 -0.04,0.161403 0.4,0.161403 0.44,0 0.62,-0.07263 0.4,-0.161403 z m -5.68,-1.06807 c -0.879707,-0.378023 -1.384949,-0.378023 -0.8,0 0.264,0.17061 0.696,0.302284 0.96,0.292608 0.316498,-0.0116 0.261997,-0.11127 -0.16,-0.292608 z m -1.04,-23.585834 c -0.396,-0.07627 -1.044,-0.07627 -1.44,0 -0.396,0.07627 -0.072,0.138678 0.72,0.138678 0.792,0 1.116,-0.0624 0.72,-0.138678 z M 33.479141,10.688976 c -0.09838,-0.09838 -0.498876,0.154484 -0.889987,0.561924 l -0.711111,0.7408 0.889987,-0.561924 c 0.489492,-0.309059 0.809492,-0.642419 0.711111,-0.7408 z"
     id="path1" />
</svg>
