<?xml version="1.0" encoding="UTF-8" standalone="no"?>
<!-- Created with Inkscape (http://www.inkscape.org/) -->

<svg
   version="1.1"
   id="svg1"
   width="95.560577"
   height="95.663277"
   viewBox="0 0 95.56058 95.663279"
   sodipodi:docname="Icon_towncrier.svg"
   inkscape:version="1.4.2 (ebf0e940d0, 2025-05-08)"
   xmlns:inkscape="http://www.inkscape.org/namespaces/inkscape"
   xmlns:sodipodi="http://sodipodi.sourceforge.net/DTD/sodipodi-0.dtd"
   xmlns="http://www.w3.org/2000/svg"
   xmlns:svg="http://www.w3.org/2000/svg">
  <defs
     id="defs1" />
  <sodipodi:namedview
     id="namedview1"
     pagecolor="#505050"
     bordercolor="#eeeeee"
     borderopacity="1"
     inkscape:showpageshadow="0"
     inkscape:pageopacity="0"
     inkscape:pagecheckerboard="0"
     inkscape:deskcolor="#505050"
     showgrid="false"
     inkscape:zoom="4.2301186"
     inkscape:cx="55.908599"
     inkscape:cy="49.643999"
     inkscape:window-width="1838"
     inkscape:window-height="1011"
     inkscape:window-x="40"
     inkscape:window-y="47"
     inkscape:window-maximized="1"
     inkscape:current-layer="svg1" />
  <path
     style="fill:#0064ac"
     d="m 66.615756,95.596609 c -0.528,-0.11748 -1.30005,-0.39626 -1.71566,-0.61951 -0.41562,-0.22325 -2.35962,-0.73335 -4.320005,-1.13355 -6.858715,-1.40015 -13.954351,-4.34452 -20.850049,-8.65182 -4.445863,-2.77705 -4.931913,-3.12452 -4.944232,-3.53455 -0.0055,-0.18409 -1.757248,-1.62409 -3.892705,-3.2 -2.135457,-1.57592 -4.58169,-3.64806 -5.436072,-4.60477 l -1.553423,-1.73947 -0.723928,0.63887 c -0.39816,0.35138 -1.028747,0.84614 -1.401303,1.09947 -1.352971,0.91998 -7.038457,5.54937 -8.442624,6.87438 -4.6927586,4.42819 -7.4479556,4.02094 -11.1907116,-1.65413 -4.492794,-6.81233 -2.386797,-9.26221 10.7107116,-12.45962 2.464,-0.60152 4.78,-1.0951 5.146666,-1.09685 1.134618,-0.005 1.128355,-0.35905 -0.04347,-2.45447 l -1.13387,-2.02755 0.34785,-2.64058 c 0.754831,-5.73003 2.647141,-11.128775 4.305012,-12.282168 5.239031,-3.644829 7.655107,-4.83908 11.927343,-5.89561 3.783654,-0.935703 10.523317,-3.758316 11.469008,-4.803293 0.301682,-0.333354 1.284925,-0.883484 2.184985,-1.22251 0.90006,-0.339026 2.71241,-1.134043 4.027445,-1.766706 1.315035,-0.632662 2.827035,-1.15679 3.36,-1.164728 l 0.969028,-0.01443 -0.879555,-0.385567 -0.879554,-0.385567 1.999554,-1.22136 c 1.099755,-0.671748 3.137594,-1.886305 4.528531,-2.699016 l 2.528978,-1.477656 2.83836,0.06056 c 2.67717,0.05712 2.85405,0.01958 3.11477,-0.660984 0.15203,-0.396847 0.81999,-1.225541 1.48435,-1.841541 5.37218,-4.981111 5.68387,-5.406569 9.45248,-12.902846 5.18939,-10.32241903 5.70771,-10.72882703 11.30679,-8.86557003 6.76509,2.25127603 6.2699,5.64770503 -2.2823,15.65404403 -3.37025,3.943293 -4.24906,5.629233 -5.68916,10.914372 -1.23249,4.523169 -1.78447,5.76 -2.57062,5.76 -0.59161,0 -0.59511,-0.04006 0.14294,1.639322 0.83187,1.892888 1.02537,4.968275 0.50921,8.093306 -0.5709,3.456446 -1.20145,4.967217 -0.94273,2.258713 0.18177,-1.902845 0.16679,-1.948474 -1.1189,-3.409104 -1.43572,-1.631058 -1.62279,-2.055824 -0.68418,-1.553496 0.89336,0.478114 1.03803,0.417889 0.93381,-0.388741 -0.0512,-0.396 -0.0155,-0.864 0.0793,-1.04 0.59821,-1.11076 -0.12735,-3.773164 -1.35221,-4.961851 -1.349,-1.309158 -1.21301,-1.276777 -7.47987,-1.781015 l -2.56,-0.20598 0.64,0.716951 0.64,0.716951 -0.79749,-0.248686 c -0.69206,-0.215808 -0.74372,-0.183894 -0.39077,0.241384 0.48977,0.590139 -1.60303,1.002204 -2.57174,0.506366 -0.308,-0.157651 -0.56,-0.212498 -0.56,-0.121882 0,0.09061 0.612,0.47633 1.36,0.857143 4.99402,2.542503 12.4,9.346622 12.4,11.392293 0,0.170719 0.288,0.642466 0.64,1.048326 0.95208,1.09776 0.88436,7.599049 -0.16,15.360006 -0.95514,7.0979 -0.9718,8.52498 -0.14567,12.48 1.65681,7.93187 1.47122,10.08912 -1.19639,13.90644 -1.51829,2.17266 -7.24787,6.25356 -8.78,6.25356 -0.21315,0 -0.61489,0.19312 -0.89275,0.42917 -0.32518,0.27624 -0.84726,0.35306 -1.46519,0.21556 z m -0.19667,-6.39109 c 0.3843,-0.58491 0.40197,-0.71598 0.069,-0.51164 -0.24623,0.1511 -0.82223,0.30242 -1.28,0.33627 -2.67082,0.19751 -2.53958,0.1408 -1.4723,0.63622 1.30423,0.60542 2.06904,0.47407 2.68333,-0.46085 z m -10.843332,-1.51683 c -6.401019,-2.3025 -18.122808,-8.6482 -17.842595,-9.65926 0.118521,-0.42764 -5.178616,-4.19755 -5.898026,-4.19755 -2.857193,0 6.593524,7.39378 12.099907,9.46637 1.126899,0.42417 3.235064,1.34612 4.684811,2.04878 3.026836,1.46705 5.867811,2.51893 6.795903,2.5162 0.443335,-0.001 0.492501,-0.0549 0.16,-0.17454 z m 20.748632,-0.91187 c 0.54699,-1.20051 0.47365,-1.5022 -0.26863,-1.10494 -0.37426,0.20029 -0.64,0.67002 -0.64,1.13126 0,1.02117 0.43713,1.0085 0.90863,-0.0263 z m 0.84716,-9.03662 c 0.003,-1.61902 -0.13591,-2.74059 -0.35559,-2.87999 -0.72843,-0.46227 -0.88054,-2.30833 -0.1902,-2.30833 0.97345,0 1.21731,-2.85283 0.37776,-4.41925 -0.34527,-0.6442 -0.62857,-1.53341 -0.62955,-1.97601 -0.002,-1.12942 -0.6233,-3.27316 -1.11338,-3.84474 -1.53556,-1.79093 -0.49956,-3.42598 1.11517,-1.76 1.4903,1.5376 1.6663,1.41289 0.94887,-0.67235 -0.75717,-2.20075 -1.69253,-3.75102 -2.77865,-4.60537 -0.7722,-0.607411 -0.79086,-0.68489 -0.29644,-1.231211 0.29019,-0.320655 0.4193,-0.715323 0.28692,-0.87704 -0.30383,-0.371141 1.3475,0.990616 2.7193,2.242461 0.572,0.52198 1.04,0.79969 1.04,0.61714 0,-0.8039 -0.94224,-3.349884 -1.56171,-4.219856 -0.37306,-0.523915 -0.67829,-1.041088 -0.67829,-1.149272 0,-0.331779 1.72616,0.192064 2.31333,0.702033 0.49385,0.428926 0.57465,0.424996 0.75177,-0.03656 0.95038,-2.476656 -16.15499,-14.394757 -22.585102,-15.736082 -4.446019,-0.927442 -4.784172,-0.878603 -1.905669,0.275232 3.409495,1.36668 6.288056,2.856749 5.820097,3.012735 -0.392025,0.130675 -1.924321,-0.144695 -7.515606,-1.350637 -4.325209,-0.932872 -5.669955,-1.010411 -3.118822,-0.179835 1.761796,0.57359 5.456358,2.195473 5.080232,2.230181 -0.109872,0.01014 -0.790689,-0.190056 -1.512927,-0.444876 -3.216,-1.134671 -6.355285,-0.986203 -3.727305,0.176278 1.856741,0.821325 1.816699,0.876458 -0.4,0.550742 -5.362043,-0.787883 -6.292151,-0.374493 -3.017142,1.340977 1.756656,0.920147 1.671984,0.972003 -0.759367,0.465073 -0.526339,-0.109741 -1.091088,0.04574 -1.589148,0.437518 -0.837961,0.65914 -0.740149,1.012722 0.280152,1.012722 0.632896,0 0.633743,0.0103 0.03674,0.446837 -0.566852,0.414493 -0.494567,0.48144 0.998593,0.924861 0.885323,0.262913 3.47279,1.408715 5.749925,2.546226 2.277135,1.137511 4.500246,2.176334 4.940246,2.308494 0.790746,0.237513 6.720003,3.635307 6.720003,3.850937 0,0.06136 -0.828,-0.292803 -1.840004,-0.787029 -2.67524,-1.306495 -4.559999,-1.48766 -4.559999,-0.438312 0,0.64549 -0.117808,0.753723 -0.64,0.587985 -1.077123,-0.341865 -0.709941,0.326128 0.4,0.727697 0.572,0.206946 1.76,1.019279 2.639999,1.805184 l 1.6,1.428927 -1.200386,-0.18284 -1.200386,-0.18283 0.200386,1.00194 c 0.217745,1.08872 -0.08864,1.25509 -1.208058,0.656 -1.60365,-0.85825 -0.637733,0.0713 2.032548,1.95596 8.01351,5.65593 15.29149,14.72926 16.92395,21.09878 l 0.43508,1.69759 0.48423,-1.0832 c 0.30465,-0.6815 0.48579,-2.06658 0.48843,-3.73488 z m -66.772109,2.68185 c 0.06913,-0.58708 0.248849,-0.82476 0.539325,-0.7133 0.620524,0.23812 0.71869,-0.31836 0.406902,-2.3066 -0.368965,-2.35287 -0.165348,-2.6914 0.723735,-1.20329 0.502091,0.84039 0.803928,1.10124 0.925686,0.8 0.09937,-0.24584 0.627027,-0.46586 1.172576,-0.48894 1.151605,-0.0487 2.368094,-0.9678 2.368094,-1.78916 0,-0.31289 0.144,-0.56888 0.32,-0.56888 0.176,0 0.32,-0.3685 0.32,-0.81889 0,-0.46444 0.138509,-0.73328 0.32,-0.62111 0.188074,0.11623 0.324195,-0.23878 0.330177,-0.86112 0.0091,-0.9489 0.05433,-1.00072 0.435277,-0.49888 0.614476,0.80947 0.834546,0.69365 0.834546,-0.43919 0,-0.85187 0.07076,-0.94045 0.479999,-0.60081 0.401025,0.33282 0.48,0.28661 0.48,-0.28082 0,-0.76901 0.320163,-0.86584 0.923097,-0.27918 0.332316,0.32334 0.389117,0.24669 0.296403,-0.4 -0.0659,-0.45967 -0.295955,-0.76119 -0.54078,-0.70878 -0.234347,0.0502 -0.625488,-0.0743 -0.869202,-0.27652 -0.350398,-0.29081 -0.499718,-0.21475 -0.713619,0.36348 -0.191782,0.51844 -0.342678,0.61445 -0.518517,0.32994 -0.17421,-0.28188 -0.429426,-0.10299 -0.857627,0.60113 -0.335287,0.55133 -0.741444,0.92095 -0.902572,0.82137 -0.161128,-0.0996 -0.38486,-0.0324 -0.497182,0.14938 -0.112323,0.18174 -0.338273,0.24759 -0.502112,0.14633 -0.163839,-0.10126 -0.297888,0.0884 -0.297888,0.42145 0,1.1209 -0.395599,1.01603 -2.185611,-0.57938 -2.204768,-1.96508 -2.47366,-1.98976 -1.435191,-0.13174 1.03539,1.85251 0.848294,2.01019 -0.947299,0.79836 -1.7993206,-1.21434 -1.7135766,-1.23471 -1.5604796,0.37066 l 0.128332,1.34569 -1.627677,-1.74569 c -1.789934,-1.9197 -2.274399,-1.56218 -0.700977,0.51731 1.338118,1.76851 1.205963,2.49645 -0.17011,0.93701 l -1.129491,-1.28 0.213106,1.10114 0.213106,1.10114 -1.023406,-0.86114 c -0.947026,-0.79687 -2.574302,-1.18494 -2.574302,-0.61391 0,0.13597 0.500976,0.51702 1.113281,0.84677 0.612304,0.32975 1.193786,0.85319 1.292181,1.16321 0.0984,0.31001 0.35959,0.633 0.580432,0.71774 0.81463,0.31261 3.069099,3.64236 3.462821,5.11445 0.437983,1.63757 1.0076556,1.84158 1.1749666,0.42077 z m 57.236899,-0.75017 c -0.0805,-0.308 -0.14634,-0.056 -0.14634,0.56 0,0.616 0.0658,0.868 0.14634,0.56 0.0805,-0.308 0.0805,-0.812 0,-1.12 z m 5.53942,-1.81573 c 0,-0.40588 -0.25903,-1.08138 -0.57561,-1.50112 -0.31659,-0.41973 -1.11091,-1.67737 -1.76516,-2.79475 -1.33569,-2.28118 -2.62557,-3.91415 -5.65923,-7.16453 -2.89039,-3.09687 -4.877104,-4.46433 -2.91133,-2.00387 0.28123,0.352 -0.28067,-0.0848 -1.248673,-0.97062 -2.089768,-1.9124 -9.10557,-6.24899 -11.330192,-7.00339 -0.863606,-0.29287 -3.290143,-1.409364 -5.392304,-2.48111 -4.278204,-2.181159 -7.153294,-2.97135 -12.082765,-3.320832 l -3.086509,-0.218823 -0.974535,1.182279 -0.974534,1.182279 -1.084541,-1.116716 -1.084541,-1.116716 -2.612149,0.481394 c -2.909976,0.53628 -2.778481,0.395551 -3.478884,3.723173 -0.661212,3.141422 -0.581536,4.980132 0.302374,6.978042 l 0.761419,1.72104 -0.161873,-2.28445 c -0.702122,-9.908798 15.43167,-8.822374 32.639135,2.19786 2.547026,1.6312 4.183696,1.919 6.079899,1.06911 0.392185,-0.17578 0.56,-0.11104 0.56,0.21604 0,0.25686 0.9,1.16954 2,2.02817 2.912593,2.27349 8.185373,7.63819 9.960693,10.13433 1.53615,2.15987 2.11931,2.45243 2.11931,1.06321 z m -42.112141,-4.29227 c 0.0911,-0.1474 -0.432576,-0.8314 -1.163719,-1.52 l -1.329351,-1.252 1.022605,1.21113 c 0.562432,0.66613 1.022604,1.35013 1.022604,1.52 0,0.38005 0.225517,0.40063 0.447861,0.0409 z m -8.282235,-5.52691 c 0.172906,-0.0905 0.638374,-0.13938 1.034374,-0.10854 0.396,0.0308 0.72,-0.0683 0.72,-0.22024 0,-0.15197 0.216,-0.27631 0.48,-0.27631 0.637231,0 0.617008,-0.83896 -0.02617,-1.08577 -1.041146,-0.39952 -4.293828,0.099 -4.293828,0.65811 0,0.94519 1.157862,1.51853 2.085626,1.03275 z m -2.366562,-4.02109 c -0.278897,-0.47961 -0.341341,-0.49343 -0.349333,-0.0773 -0.01035,0.53891 0.326142,1.02413 0.552935,0.79734 0.0748,-0.0748 -0.01682,-0.3988 -0.203602,-0.72 z m 2.516036,-3.544 c -0.0036,-0.64045 -0.08262,-0.75724 -0.290393,-0.42902 -0.157022,0.24804 -0.21141,0.64404 -0.120864,0.88 0.259667,0.67668 0.416578,0.50461 0.411257,-0.45098 z m 12.6449,-2.81156 c -0.528,-0.24177 -1.248,-0.43512 -1.6,-0.42966 -0.415297,0.006 -0.24677,0.16134 0.48,0.44122 1.466356,0.56469 2.358378,0.55548 1.12,-0.0116 z M 78.098886,46.378191 c -1.76865,-3.591723 -7.47449,-8.521272 -13.20132,-11.405259 -3.39904,-1.711728 -3.816574,-1.273915 -0.6526,0.684294 4.79986,2.970672 13.28988,10.417648 14.09628,12.364492 0.21878,0.528179 0.4561,0.78538 0.52737,0.571557 0.0713,-0.213823 -0.2751,-1.210611 -0.76973,-2.215084 z m 2.88666,-16.786314 c 0.8282,-2.240489 2.45248,-6.760092 2.64507,-7.36 0.37518,-1.16865 -0.43855,-0.495738 -1.13567,0.939132 -0.46613,0.959434 -0.81437,1.359919 -0.96732,1.112437 -0.17247,-0.279059 -0.41058,-0.196788 -0.85543,0.295567 -0.33904,0.375244 -1.40844,1.105354 -2.37644,1.622465 -1.67675,0.895732 -1.18439,1.155019 0.76328,0.401961 0.52726,-0.20386 0.49702,-0.05191 -0.24,1.205705 -1.00588,1.716408 -1.0459,1.99369 -0.22432,1.553992 0.901,-0.482201 0.98104,-0.430907 0.98104,0.628741 0,1.430902 0.81888,1.198561 1.40979,-0.4 z m 10.2943,-18.719999 c 2.02394,-2.888355 3.06432,-5.151617 2.68978,-5.851444 -0.57733,-1.078761 -2.57181,-2.548605 -3.44501,-2.538825 -0.74473,0.0083 -0.78886,0.05633 -0.30886,0.3359 0.66671,0.388323 0.71987,1.193859 0.13617,2.063167 -0.2331,0.347161 -0.95853,1.639202 -1.61207,2.871202 -1.19162,2.246353 -1.07307,2.147063 1.05118,-0.880385 1.2411,-1.768806 1.54689,-1.97959 2.23795,-1.542629 0.36774,0.232529 0.18668,0.729477 -0.96,2.634754 -1.83794,3.053844 -1.87569,3.197882 -0.49412,1.885486 1.53013,-1.453534 1.4726,-0.876711 -0.13672,1.37068 -0.71369,0.996652 -1.15682,1.812094 -0.98475,1.812094 0.17208,0 0.99398,-0.972 1.82645,-2.16 z"
     id="path1" />
</svg>
