<?xml version="1.0" encoding="UTF-8" standalone="no"?>
<!-- Created with Inkscape (http://www.inkscape.org/) -->

<svg
   version="1.1"
   id="svg1"
   width="47.128902"
   height="128.96295"
   viewBox="0 0 47.128904 128.96295"
   sodipodi:docname="Icon_barber.svg"
   inkscape:version="1.4.2 (ebf0e940d0, 2025-05-08)"
   xmlns:inkscape="http://www.inkscape.org/namespaces/inkscape"
   xmlns:sodipodi="http://sodipodi.sourceforge.net/DTD/sodipodi-0.dtd"
   xmlns="http://www.w3.org/2000/svg"
   xmlns:svg="http://www.w3.org/2000/svg">
  <defs
     id="defs1" />
  <sodipodi:namedview
     id="namedview1"
     pagecolor="#505050"
     bordercolor="#eeeeee"
     borderopacity="1"
     inkscape:showpageshadow="0"
     inkscape:pageopacity="0"
     inkscape:pagecheckerboard="0"
     inkscape:deskcolor="#505050"
     showgrid="false"
     inkscape:zoom="4.2301186"
     inkscape:cx="24.703799"
     inkscape:cy="64.773598"
     inkscape:window-width="1838"
     inkscape:window-height="1011"
     inkscape:window-x="40"
     inkscape:window-y="47"
     inkscape:window-maximized="1"
     inkscape:current-layer="svg1" />
  <path
     style="fill:#015ea8"
     d="m 89.439998,158.23797 c -1.772462,-0.62858 -2.483507,-1.58722 -2.334692,-3.14769 0.175314,-1.83835 -4.276724,-5.35417 -10.24828,-8.09317 -6.892868,-3.16158 -6.947826,-3.21323 -6.852225,-6.43917 0.140668,-4.7467 2.031054,-8.14026 4.779339,-8.57973 l 1.309501,-0.2094 0.142064,-2.44441 C 76.612226,122.84585 76.4787,70.543519 76.083753,69.804549 75.859911,69.385727 75.117877,68.858391 74.418502,68.621116 69.552311,66.970177 69.034014,62.2731 73.63992,61.565194 c 2.385632,-0.366661 3.815315,-1.34926 8.150337,-5.601605 4.094282,-4.016196 6.050693,-5.380302 7.739784,-5.396562 0.839338,-0.0081 0.915261,-0.177871 1.147863,-2.567028 l 0.171349,-1.76 -1.344628,-0.819945 c -5.056746,-3.08357 -4.059164,-14.808529 1.094431,-12.863264 0.870019,0.328395 0.951743,0.30947 0.752199,-0.174184 -0.555421,-1.346222 -0.502538,-1.522727 0.572723,-1.911546 8.642402,-3.125133 14.197682,7.109064 7.651512,14.095976 -3.419704,3.649948 -2.902563,5.502107 2.18451,7.82389 2.89326,1.320511 4.13441,2.448887 5.78185,5.256493 1.36789,2.331191 2.76124,3.689938 4.08281,3.981413 2.04648,0.451355 2.96505,0.867989 3.54821,1.609359 1.68375,2.140548 0.92481,4.560028 -1.80974,5.769378 -2.8308,1.251911 -4.32815,13.238841 -2.31512,18.533502 0.17423,0.458267 0.30631,4.188342 0.2975,8.401555 -0.0141,6.735644 0.76797,32.577154 1.09419,36.154704 0.10437,1.14466 0.34954,1.56902 1.45133,2.51211 2.18464,1.86997 3.21848,4.63015 3.22517,8.61069 0.006,3.28335 -1.02361,4.11458 -5.9162,4.77852 -3.12599,0.42421 -8.34834,4.09767 -11.342144,7.9782 -2.047387,2.65379 -6.55306,3.63172 -10.417858,2.26112 z m 8.788741,-1.41694 c 0.611959,-1.14345 0.02158,-1.26761 -2.86232,-0.60192 -1.567023,0.36171 -1.608533,0.39791 -0.904413,0.78866 1.185034,0.65763 3.372887,0.54917 3.766733,-0.18674 z m 3.888731,-4.26267 c 1.31178,-0.81413 3.16253,-2.34604 3.16253,-2.6177 0,-0.40205 -0.64527,-0.13492 -1.58582,0.65651 -0.54721,0.46045 -2.25026,1.24694 -3.784555,1.74777 l -2.789628,0.91059 1.92,0.0106 c 1.445793,0.008 2.205873,-0.16683 3.077473,-0.70776 z m -15.484139,-4.2717 c -0.106333,-0.10633 -0.382333,-0.1177 -0.613333,-0.0253 -0.255275,0.10215 -0.179449,0.17798 0.193333,0.19333 0.337333,0.0139 0.526333,-0.0617 0.42,-0.16807 z m -3.745089,-0.61712 c -1.315466,-0.23798 -2.444428,-0.38003 -2.508805,-0.31565 -0.192957,0.19296 2.576247,0.73716 3.780561,0.74296 0.632751,0.003 0.07948,-0.18286 -1.271756,-0.42731 z M 112.48,146.62244 c 2.20285,-0.81914 2.72,-1.35978 2.72,-2.84361 V 142.72 l -1.68,0.008 c -0.924,0.004 -2.256,0.15592 -2.96,0.33716 -4.11222,1.05864 -25.287857,1.35552 -29.440002,0.41274 -4.051566,-0.91995 -6.24,-0.59672 -6.24,0.92162 0,0.64768 3.056399,1.53363 7.370909,2.13661 2.546,0.35581 4.989091,0.70447 5.429091,0.77481 3.341095,0.53405 22.978582,-0.0108 24.800002,-0.68813 z m -8.79161,-4.23231 c 10.33318,-1.25704 13.18496,-2.78181 11.20336,-5.99013 -0.85645,-1.38666 -2.06322,-1.42269 -2.82664,-0.0844 -1.95331,3.4242 -32.520681,4.46163 -34.364834,1.16631 -0.585118,-1.04554 -4.258185,-0.14397 -4.041628,0.99205 0.275953,1.44759 4.862422,3.12604 8.542115,3.12604 2.27749,0 3.504835,0.12825 3.719235,0.38865 0.55219,0.67066 13.205446,0.95656 17.768392,0.40148 z M 81.119998,137.2675 c -1.056,-0.33994 -2.136,-0.60543 -2.4,-0.58996 -0.664264,0.0389 2.88814,1.2028 3.68,1.2057 0.352,0.001 -0.224,-0.2758 -1.28,-0.61574 z m 14.380256,0.2525 c -0.08781,-0.22 -2.968748,-1.54263 -6.402079,-2.93917 -5.982086,-2.43326 -8.564453,-3.80545 -10.443436,-5.5493 l -0.865259,-0.80303 0.08223,2.99136 c 0.08074,2.93732 0.09926,3.00137 1.025258,3.54613 0.518667,0.30513 1.108779,0.69997 1.31136,0.87743 1.583172,1.38681 15.792432,3.13052 15.291926,1.87658 z m 14.725996,-6.53917 c 0.1186,-0.47255 0.11396,-2.99542 -0.0103,-5.60638 l -0.22597,-4.74721 -1.05652,-0.92764 c -2.16825,-1.90374 -4.95038,-3.23511 -17.413442,-8.33309 -8.099611,-3.31311 -10.273388,-4.38588 -12.16069,-6.00134 -1.713594,-1.46677 -1.657503,-1.6316 -1.622703,4.76827 l 0.03016,5.54656 0.876616,0.72621 c 1.928589,1.5977 6.20634,3.60211 16.556617,7.75788 5.823542,2.33822 11.608042,5.22039 13.120002,6.53714 1.55195,1.35158 1.63418,1.36364 1.90625,0.2796 z m 1.04847,-5.93237 c -0.0676,-0.75266 -0.12386,-0.21646 -0.12502,1.19154 -10e-4,1.408 0.0541,2.0238 0.1229,1.36846 0.0688,-0.65535 0.0697,-1.80735 0.002,-2.56 z m -7.37206,-17.09247 c -0.23805,-0.23805 -7.913971,-3.63879 -8.193833,-3.6302 -0.387209,0.0119 3.209646,1.86912 5.469333,2.82409 2.28686,0.96645 3.1361,1.21772 2.7245,0.80611 z m 5.53734,-5.32812 v -4.572134 l -2.08599,-1.371457 c -2.6201,-1.722619 -4.70204,-2.681779 -14.954016,-6.889407 -9.789608,-4.017861 -10.416998,-4.32039 -12.808711,-6.1764 l -1.848716,-1.434633 0.08872,4.735207 0.08872,4.735207 1.537916,1.161804 c 1.99441,1.506659 13.502545,6.521512 18.462083,8.045153 2.191734,0.67332 5.256604,2.29835 9.067994,4.80795 1.2606,0.83004 2.32801,1.51404 2.37201,1.52 0.044,0.006 0.08,-2.04662 0.08,-4.56129 z m -4.8,-17.667872 c -0.44,-0.251527 -1.016,-0.450729 -1.28,-0.442671 -0.264,0.0081 -0.048,0.21246 0.48,0.454228 1.26399,0.578772 1.81865,0.570759 0.8,-0.01156 z m 4.8,-2.701115 c 0,-1.573613 -0.144,-2.950111 -0.32,-3.058885 -0.176,-0.108774 -0.32,-0.540774 -0.32,-0.96 0,-0.419226 -0.144,-0.851226 -0.32,-0.96 -0.176,-0.108774 -0.32,-0.668171 -0.32,-1.243105 0,-1.66348 -1.49767,-2.725969 -7.9175,-5.616897 -2.892719,-1.302628 -3.936076,-1.619998 -5.325763,-1.619998 -1.24104,0 -1.780194,-0.13532 -1.91246,-0.48 -0.144543,-0.376673 -0.794308,-0.48 -3.018456,-0.48 -2.617946,0 -2.892274,-0.06175 -3.594354,-0.80908 -0.74477,-0.792771 -0.841039,-0.807285 -4.77578,-0.72 l -4.015689,0.08908 -0.09846,1.361181 c -0.173487,2.398481 3.811862,4.794947 16.098457,9.680306 6.496255,2.58302 12.965575,5.66352 14.400005,6.85685 1.39537,1.160845 1.44,1.097642 1.44,-2.039452 z m -8.8,1.09412 c -0.880003,-0.41455 -1.744003,-0.751207 -1.920003,-0.748127 -0.176,0.0031 0.4,0.35239 1.28,0.776244 0.880003,0.423853 1.744003,0.76051 1.920003,0.748126 0.176,-0.01238 -0.4,-0.361694 -1.28,-0.776243 z M 86.288703,76.92306 C 85.43549,76.479134 84.6585,76.194829 84.562058,76.291272 c -0.179329,0.179328 2.379191,1.417289 2.95794,1.431222 0.176,0.0042 -0.378083,-0.355508 -1.231295,-0.799434 z m -3.248705,-1.403062 c -0.108774,-0.176 -0.369273,-0.317795 -0.578886,-0.3151 -0.228997,0.0029 -0.189528,0.128713 0.09889,0.3151 0.614759,0.397288 0.725537,0.397288 0.48,0 z m 29.856002,-9.344 c 1.2534,-1.253406 -0.0265,-2.694189 -2.85324,-3.211944 -2.98365,-0.546491 -28.264826,-0.55005 -28.810787,-0.0041 -0.575703,0.575739 0.04279,1.075496 1.364181,1.102287 0.596114,0.01209 1.227844,0.127388 1.403844,0.256226 0.47672,0.348975 1.273915,0.405316 4.824656,0.340973 2.582632,-0.0468 3.307187,0.04101 3.639182,0.441041 0.506252,0.609997 4.176162,0.72413 4.176162,0.129877 0,-0.221133 0.235067,-0.156863 0.585197,0.16 0.467578,0.423153 1.319776,0.53598 4.239995,0.561356 2.01015,0.01747 4.87881,0.139173 6.37481,0.270455 4.20632,0.369127 4.64466,0.365121 5.056,-0.04621 z m 1.23593,-0.976 c -0.0888,-0.22 -0.16141,-0.04 -0.16141,0.4 0,0.44 0.0726,0.62 0.16141,0.4 0.0888,-0.22 0.0888,-0.58 0,-0.8 z m -22.698599,0.206667 c -0.106333,-0.106333 -0.382333,-0.117702 -0.613333,-0.02526 -0.255275,0.102152 -0.179449,0.177978 0.193333,0.193333 0.337333,0.01389 0.526333,-0.06174 0.42,-0.16807 z M 79.999998,63.359998 c 0,-0.176 -0.152499,-0.32 -0.338885,-0.32 -0.186387,0 -0.249889,0.144 -0.141115,0.32 0.108774,0.176 0.261272,0.32 0.338885,0.32 0.07761,0 0.141115,-0.144 0.141115,-0.32 z M 106.48,60.806999 c 1.28876,-0.482801 1.29002,-0.674219 0.0162,-2.448042 -1.56525,-2.179567 -2.81525,-2.80183 -6.01616,-2.994898 -2.848392,-0.171804 -3.694899,-0.733524 -1.360003,-0.90246 1.537903,-0.111271 1.788813,-0.684958 0.648798,-1.483455 -0.790528,-0.553708 -1.87951,-0.651136 -2.344798,-0.209783 -0.1672,0.158599 -1.671999,0.375747 -3.343999,0.482551 -8.469948,0.541042 -9.167544,2.130776 -1.199325,2.733113 2.772371,0.20957 5.462392,0.501983 5.977823,0.649807 0.515432,0.147824 1.436504,0.156148 2.046824,0.0185 1.50943,-0.340432 2.24311,0.126181 1.05184,0.66896 -0.73737,0.335968 -1.36375,0.312135 -3.663307,-0.139383 -5.326559,-1.045869 -7.837209,-1.080214 -8.469082,-0.115856 -0.315579,0.481635 -1.091344,0.992014 -1.856115,1.221144 C 86.421361,58.75079 86.953793,59.52 88.822017,59.52 c 0.560811,0 1.19892,0.216 1.418021,0.48 0.263368,0.31734 1.008617,0.486687 2.199182,0.499732 0.99045,0.01085 2.736818,0.221234 3.880818,0.467515 2.443557,0.526049 8.586672,0.429159 10.160002,-0.160246 z m -2.96,-4.167 c -0.10878,-0.176 -0.0538,-0.32 0.12223,-0.32 0.176,0 0.40899,0.144 0.51777,0.32 0.10877,0.176 0.0538,0.32 -0.12223,0.32 -0.176,0 -0.409,-0.144 -0.51777,-0.32 z m -7.245529,-7.84 c -0.0229,-0.88 -0.104035,-1.276 -0.180308,-0.88 -0.111022,0.576413 -0.353251,0.72 -1.214632,0.72 -0.833762,0 -1.232108,0.219299 -1.769684,0.974255 L 92.416116,50.58851 94.366108,50.49425 96.316101,50.4 Z m 2.858609,-5.781146 c 3.33894,-2.338688 2.27625,-10.283853 -1.544163,-11.544881 -1.223477,-0.403841 -1.587346,-0.3044 -1.007586,0.275361 0.462087,0.462086 0.500675,2.05749 0.05641,2.332063 -0.177243,0.109542 -0.411003,-0.03209 -0.519467,-0.314746 -0.108464,-0.282652 -0.755446,-0.798706 -1.43774,-1.146785 -0.682293,-0.34808 -1.240532,-0.773946 -1.240532,-0.946369 0,-0.378331 -0.856421,-0.419976 -1.083421,-0.05268 -0.08866,0.143447 0.05632,1.002802 0.322159,1.909677 0.265843,0.906876 0.436001,2.12151 0.378128,2.699187 l -0.105223,1.050323 -1.391565,-2.16 c -1.358058,-2.107991 -2.201336,-2.797133 -1.869367,-1.527681 0.09095,0.347775 0.0439,1.170848 -0.104553,1.829052 -0.173216,0.76802 -0.148235,1.343339 0.06973,1.605977 0.186803,0.225084 0.264128,0.69801 0.171833,1.050948 -0.118363,0.452619 -0.01074,0.641704 0.365257,0.641704 0.85333,0 1.413977,1.154092 0.975161,2.00737 -0.302324,0.587869 -0.2924,0.642602 0.05669,0.31263 0.74017,-0.699642 0.968136,-0.431965 0.463388,0.544109 -0.704422,1.362202 -0.59032,1.632134 0.180924,0.428012 0.697514,-1.089012 1.037856,-1.064055 2.603619,0.190923 0.360831,0.289211 0.953979,0.377936 1.708277,0.25553 0.892113,-0.14477 1.117624,-0.08877 0.989288,0.245671 -0.353941,0.922356 0.825229,1.111364 1.962757,0.314609 z M 88.685705,35.119999 c 0.51744,-0.737895 0.565173,-0.908212 0.164319,-0.586318 -0.570289,0.457955 -1.319645,1.626318 -1.043075,1.626318 0.08221,0 0.477648,-0.468 0.878756,-1.04 z"
     id="path1"
     transform="translate(-69.987323,-29.892786)" />
</svg>
