<?xml version="1.0" encoding="UTF-8" standalone="no"?>
<!-- Created with Inkscape (http://www.inkscape.org/) -->

<svg
   version="1.1"
   id="svg1"
   width="113.85764"
   height="119.91206"
   viewBox="0 0 113.85764 119.91207"
   sodipodi:docname="Icon_pithag.svg"
   inkscape:version="1.4.2 (ebf0e940d0, 2025-05-08)"
   xmlns:inkscape="http://www.inkscape.org/namespaces/inkscape"
   xmlns:sodipodi="http://sodipodi.sourceforge.net/DTD/sodipodi-0.dtd"
   xmlns="http://www.w3.org/2000/svg"
   xmlns:svg="http://www.w3.org/2000/svg">
  <defs
     id="defs1" />
  <sodipodi:namedview
     id="namedview1"
     pagecolor="#505050"
     bordercolor="#eeeeee"
     borderopacity="1"
     inkscape:showpageshadow="0"
     inkscape:pageopacity="0"
     inkscape:pagecheckerboard="0"
     inkscape:deskcolor="#505050"
     showgrid="false"
     inkscape:zoom="4.2301186"
     inkscape:cx="55.908599"
     inkscape:cy="63.827998"
     inkscape:window-width="1838"
     inkscape:window-height="1011"
     inkscape:window-x="40"
     inkscape:window-y="47"
     inkscape:window-maximized="1"
     inkscape:current-layer="svg1" />
  <path
     style="fill:#68090c"
     d="m 74.368673,118.36767 c -2.92148,-3.24939 -2.97807,-3.26551 -8.19169,-2.33382 -6.695067,1.19643 -15.510608,0.92326 -22.345618,-0.69243 -4.518516,-1.06812 -4.249348,-1.1375 -7.022415,1.81028 l -2.438074,2.59169 -2.416947,-0.22376 c -2.989768,-0.27679 -2.886014,-0.10744 -1.297257,-2.11737 0.734301,-0.92896 1.751036,-2.513 2.259411,-3.52008 l 0.924317,-1.83107 -1.511709,-0.87817 c -4.660905,-2.70758 -11.27171,-8.17322 -11.27171,-9.31915 0,-0.26386 -0.649783,-1.20245 -1.443962,-2.085771 -0.794179,-0.88332 -2.054179,-2.59525 -2.8,-3.80428 -1.566814,-2.53993 -1.515517,-2.51272 -2.284205,-1.21144 -1.80476,3.05521 -6.9024526,2.90343 -7.3535576,-0.21895 l -0.188781,-1.30667 h 1.450492 c 3.7630026,0 3.5185586,-5.21213 -0.291077,-6.20645 -6.171471,-1.61076 -9.55606,-7.06638 -7.58434802,-12.2252 1.39621702,-3.6531 2.71281602,-4.449 7.52075002,-4.54639 5.0223696,-0.10174 5.0414726,-0.11159 6.2156286,-3.20266 0.555635,-1.462761 1.929789,-4.034913 3.053675,-5.715894 3.011231,-4.503854 2.926821,-6.898915 -0.333525,-9.463504 -0.908719,-0.714798 -1.405132,-3.25054 -0.783079,-4.000068 3.328874,-4.011048 72.951251,-4.338148 78.838991,-0.370401 3.16558,2.133286 2.57446,2.678174 -3.49502,3.221676 -13.55928,1.214188 -44.441056,1.707786 -55.001982,0.879122 l -3.84,-0.301306 3.52,-0.0932 c 2.576958,-0.06823 3.177075,-0.153179 2.24,-0.317067 -0.855415,-0.149606 -0.133952,-0.222503 2.175001,-0.219761 1.90025,0.0023 3.528989,0.123818 3.61942,0.270138 0.09043,0.14632 0.446656,0.114988 0.791612,-0.06963 0.344957,-0.184615 0.772618,-0.245786 0.950359,-0.135936 1.513587,0.935448 41.27425,-0.406843 42.32352,-1.428812 1.75361,-1.707969 -53.261111,-2.109079 -61.562268,-0.448848 -1.517329,0.303466 -1.086758,0.651013 1.222356,0.986659 l 2.16,0.313971 -3.68,0.02702 c -2.024,0.01486 -4.688,-0.08908 -5.92,-0.230988 -2.646989,-0.304884 -2.786099,-0.254524 -1.484106,0.537265 5.050082,3.071138 52.849198,3.630203 73.415108,0.858673 1.89805,-0.255787 3.52927,-0.465068 3.62493,-0.465068 0.0957,0 -0.34337,0.604356 -0.97563,1.343013 -1.89027,2.208348 -2.09773,4.348111 -0.63763,6.576503 0.82952,1.266005 1.36107,1.133909 -9.30267,2.311805 -8.69437,0.960361 -14.6184,1.300418 -26.320003,1.510843 -5.851999,0.105234 -10.639999,0.314297 -10.639999,0.464585 0,0.359651 -7.418494,0.340806 -10.88,-0.02764 -6.518466,-0.693828 -6.430005,-0.69539 -3.28,0.05792 3.352027,0.801619 3.523878,1.045421 2.046917,2.903935 -0.555956,0.699579 -1.074473,1.909466 -1.325714,3.093368 -0.526542,2.481177 -0.824266,2.638447 -1.394409,0.736597 -0.276689,-0.922965 -0.529683,-1.340311 -0.637071,-1.050929 -0.462059,1.245129 -0.959255,3.537599 -1.145135,5.279999 l -0.204827,1.92 -0.737215,-1.40084 c -0.405469,-0.77045 -0.819401,-2.19712 -0.919848,-3.17036 l -0.182633,-1.76954 -1.053785,2.05037 c -3.615835,7.03539 -3.678635,16.68161 -0.159012,24.42459 1.037887,2.2833 4.272856,7.588331 4.990484,8.183911 0.882838,0.73269 0.902329,0.0689 0.04113,-1.40066 -0.929714,-1.58644 -1.196157,-4.357471 -0.418983,-4.357471 2.742943,0 3.663098,-1.73053 2.510018,-4.72057 -0.532185,-1.38 -1.196761,-3.87042 -1.476834,-5.53426 -0.280073,-1.66385 -0.593884,-3.45717 -0.697356,-3.98517 -0.177173,-0.90408 -0.120183,-0.87179 0.978322,0.55422 1.018813,1.32257 2.011063,2.16578 2.548589,2.16578 0.09059,0 -0.03578,-0.47983 -0.280816,-1.06629 -1.083817,-2.59394 -0.619465,-12.11582 0.822139,-16.858563 l 0.728029,-2.395146 0.424925,1.04 c 0.593891,1.453544 0.898195,1.308698 1.585387,-0.754627 0.655413,-1.967907 1.182181,-2.367125 1.338114,-1.014107 l 0.100413,0.871265 1.615495,-1.111265 c 0.888523,-0.611196 1.923337,-1.116368 2.299588,-1.122605 0.37625,-0.0062 1.044092,-0.217134 1.484092,-0.46866 0.636571,-0.363897 2.532346,-0.459747 9.28,-0.469194 12.800678,-0.01792 24.564088,-0.975494 35.663008,-2.903066 1.92666,-0.334607 3.52103,-0.576733 3.54305,-0.538058 0.022,0.03867 0.44861,0.790318 0.94799,1.670318 0.49937,0.88 1.1637,1.931606 1.47629,2.336902 0.3126,0.405296 0.94956,1.881541 1.41547,3.280544 1.084197,3.255562 0.849927,3.181302 7.424517,2.353332 9.55161,-1.202874 9.48577,14.68123 -0.0703,16.96925 -3.96182,0.94858 -4.49417,6.51642 -0.59339,6.20618 l 1.40949,-0.11211 -0.19781,1.44295 c -0.5255,3.83342 -5.10868,3.36324 -7.640217,-0.78379 l -1.26192,-2.06721 -1.32073,2.46697 c -4.19467,7.835161 -10.43736,14.061051 -17.73769,17.689971 -1.56783,0.77936 -2.86056,1.56101 -2.87273,1.73701 -0.0346,0.50099 3.43943,4.25923 4.14385,4.48281 1.10174,0.34967 0.69459,0.68515 -1.68885,1.39158 -3.02602,0.89689 -2.83479,0.93687 -4.52831,-0.94674 z m -6.5056,-7.21755 c -0.21665,-0.0877 -0.64865,-0.093 -0.96,-0.0119 -0.31135,0.0811 -0.13409,0.15285 0.39391,0.15937 0.528,0.007 0.78274,-0.0599 0.56609,-0.14751 z m 3.91391,-0.90713 c 17.6573,-2.93701 27.95126,-17.453991 25.93783,-36.578601 -0.25572,-2.42891 -0.61634,-4.814407 -0.80139,-5.301114 -0.18504,-0.486707 -0.33644,-1.190267 -0.33644,-1.563466 0,-0.373199 -0.27723,-0.975825 -0.61606,-1.339168 -0.33884,-0.363343 -1.00147,-1.430665 -1.47251,-2.371825 l -0.85646,-1.711201 -0.63534,1.071201 c -0.34944,0.58916 -0.85196,1.240698 -1.11673,1.447861 -0.41059,0.321263 -0.33921,0.450185 0.48534,0.876577 0.78902,0.408017 0.96136,0.69173 0.93746,1.54334 -0.0161,0.573882 0.1294,1.475422 0.32333,2.003422 0.3915,1.065893 1.03775,7.881633 1.03362,10.901233 -0.004,2.85036 -0.53554,5.2614 -1.72768,7.83515 l -1.05754,2.28316 -0.21456,-2.30863 c -0.36145,-3.88905 -0.82224,-3.7777 -0.83314,0.20134 -0.0131,4.78831 -2.12423,9.46401 -6.34289,14.048231 -1.97564,2.14685 -2.2073,2.09731 -1.71255,-0.36623 0.40083,-1.995861 0.48237,-4.877891 0.16166,-5.713651 -0.31068,-0.80962 -3.56787,2.51107 -3.82915,3.9038 -0.12732,0.67866 -0.32603,0.968191 -0.56189,0.81869 -1.39346,-0.88327 -2.03863,-0.38259 -2.2573,1.751751 -0.3759,3.66901 -1.50353,5.38 -5.14761,7.81064 -1.056,0.70437 -1.632,1.21085 -1.28,1.12553 0.352,-0.0853 1.216,-0.25094 1.92,-0.36804 z M 26.357966,96.240019 c -5.646413,-11.21284 -6.717917,-22.51614 -2.746018,-28.967737 0.759336,-1.233397 0.81108,-1.672265 0.197165,-1.672265 -0.754946,0 -3.838502,2.502829 -4.432132,3.597426 -0.307999,0.567926 -0.559999,0.863076 -0.559999,0.655886 0,-0.792542 1.670781,-4.790704 2.512888,-6.013312 l 0.881636,-1.28 h 3.712762 c 2.042018,0 3.645752,-0.108 3.563852,-0.24 -0.0819,-0.132 -0.752411,-0.240413 -1.490024,-0.240918 -0.737613,-5.04e-4 -3.061875,-0.286468 -5.165026,-0.635474 -2.9989,-0.497652 -3.882067,-0.549234 -4.093463,-0.239083 -0.148254,0.217511 -0.776736,1.382232 -1.396627,2.58827 -1.21757,2.368858 -1.298656,3.32208 -0.101383,1.19182 1.075598,-1.913768 1.023512,-1.532565 -0.366213,2.680227 -1.206081,3.6561 -1.676166,5.86262 -0.82243,3.86039 0.34736,-0.81465 0.386782,-0.27459 0.268619,3.68 -0.180022,6.02481 1.130276,11.24706 4.08914,16.29743 1.166655,1.99132 7.443033,9.297341 7.987057,9.297341 0.141053,0 -0.776859,-2.052001 -2.039804,-4.560001 z m 78.339954,-10.45587 c 4.17538,-2.58052 5.98179,-10.42205 2.18112,-9.46815 -4.90321,1.23063 -6.13185,2.24671 -6.14762,5.08402 -0.005,0.9299 -0.70808,4.67965 -1.121257,5.98146 -0.20905,0.65866 3.137507,-0.392 5.087757,-1.59733 z m -91.942976,0.08587 c -0.19178,-0.6765 -0.439101,-2.54838 -0.549601,-4.15972 -0.228598,-3.33347 0.02504,-3.05597 -4.0844096,-4.46854 -2.846166,-0.97834 -2.743951,-1.00316 -2.743951,0.66625 0,3.44291 2.251026,6.88667 5.5302656,8.46055 2.305619,1.10659 2.302935,1.10732 1.847696,-0.49854 z M 36.416981,60.215797 c 0,-0.145321 -0.362721,-0.604978 -0.806046,-1.021461 -0.461466,-0.433524 -0.889345,-1.278161 -1.000899,-1.97578 -0.187453,-1.172266 -3.313055,-2.042998 -3.313055,-0.922952 0,1.713034 0.809357,3.546033 1.57496,3.566904 0.453772,0.01237 1.11304,0.146249 1.46504,0.297509 0.835429,0.358996 2.08,0.392372 2.08,0.05578 z m -6.322974,-2.37578 c -0.180565,-2.035524 -0.477339,-2.386934 -2.253829,-2.668756 l -1.376804,-0.218415 0.202612,1.723585 c 0.312779,2.660753 0.325245,2.673474 2.744022,2.800007 0.814671,0.04262 0.829742,0.0066 0.683999,-1.636421 z m -7.566858,-0.364069 c -0.09979,-0.371762 -0.183395,-1.544884 -0.185798,-2.606937 -0.0041,-1.790016 -0.07223,-1.971089 -0.933743,-2.48 -1.411325,-0.83369 -1.611141,-0.6719 -0.91297,0.739228 0.350548,0.708522 0.710732,2.202268 0.800408,3.319436 0.146147,1.820688 0.227849,2.014268 0.788289,1.86771 0.455209,-0.11904 0.575903,-0.347323 0.443814,-0.839437 z m 3.009832,-0.329759 c 0,-1.921979 -0.247417,-2.426172 -1.19057,-2.426172 -0.772575,0 -0.793924,0.05451 -0.580021,1.480911 0.433554,2.891144 1.770591,3.604944 1.770591,0.945261 z M 94.147553,44.896875 c -0.22214,-0.07405 -0.29356,-0.988603 -0.20192,-2.585714 0.42516,-7.409737 -2.1929,-8.761058 -12.56865,-6.487346 -22.056701,4.833437 -22.641274,-7.575682 -0.64,-13.585718 7.78359,-2.126226 8.97655,-4.205905 4.53202,-7.900665 -6.5594,-5.452866 -9.8588,-9.640151 -9.0747,-11.516766 l 0.46389,-1.110249 -2.60061,0.144329 c -4.47227,0.248203 -4.90827,1.246527 -1.8806,4.306116 l 1.84,1.859401 v 2.469878 c 0,4.163451 -4.48966,10.109345 -8.89302,11.777507 -1.26884,0.480686 -3.67498,1.407403 -5.346983,2.059371 -7.715284,3.008448 -9.990164,3.034274 -17.85042,0.202653 -8.404433,-3.027657 -12.147292,-2.907857 -20.709579,0.662868 -7.241671,3.01999 -6.840681,11.062119 0.763343,15.309365 2.281564,1.274373 2.431794,1.738112 0.563068,1.738112 -1.858155,0 -6.978604,-3.643825 -8.217137,-5.847498 C 8.5845044,26.176452 26.82106,17.318538 43.456981,22.243056 56.815319,26.197353 71.039433,20.763094 72.421573,11.177265 72.850433,8.202853 71.515693,5.728097 68.717943,4.310371 64.725333,2.287164 69.744013,0.07858 78.489893,0.01 L 79.762803,0 78.569893,0.983297 c -2.28548,1.883886 -1.82812,3.172929 2.23236,6.291807 13.59098,10.439312 13.59386,13.136395 0.0177,16.558078 -5.90113,1.487292 -7.19694,1.9997 -10.19579,4.031767 -7.39438,5.010547 3.93476,8.845078 15.06308,5.098343 4.25824,-1.433687 5.08031,-1.531947 6.05127,-0.723293 0.90529,0.753964 4.82905,7.35789 4.87536,8.205524 0.0884,1.617743 -0.48333,3.714476 -1.01282,3.714476 -0.14208,0 -0.44989,0.191571 -0.68403,0.425714 -0.23415,0.234143 -0.58039,0.374158 -0.76943,0.311144 z m -12.40742,-1.720084 c -1.8434,-1.45002 -0.43803,-4.776774 2.01792,-4.776774 1.66492,0 2.48773,3.320285 1.15347,4.654546 -0.9599,0.959901 -2.05291,1.002027 -3.17139,0.122228 z m 2.34559,-1.235737 c 0.53997,-1.008946 0.38144,-1.815443 -0.42949,-2.184926 -0.94113,-0.42881 -1.47925,0.0091 -1.47925,1.203889 0,1.487291 1.28448,2.147477 1.90874,0.981037 z M 32.045859,41.613583 c -2.856986,-0.68074 -4.076065,-2.179757 -3.784522,-4.653566 0.594409,-5.043713 4.795351,-7.77601 8.362305,-5.438852 0.401952,0.263369 0.931444,0.478852 1.176649,0.478852 0.780687,0 2.13669,3.085035 2.13669,4.861171 0,4.112517 -2.998286,5.918222 -7.891122,4.752395 z m 4.18495,-1.807802 c 0.903704,-0.346784 0.536325,-1.125404 -0.773828,-1.640047 -1.390248,-0.546105 -1.427711,-0.615543 -0.974799,-1.806791 0.277801,-0.730673 0.399706,-0.775635 1.357887,-0.500832 0.578978,0.166048 1.089638,0.301906 1.134799,0.301906 0.408965,0 -0.07616,-2.067774 -0.637887,-2.718908 -2.193093,-2.542152 -6.559609,-0.564076 -7.145277,3.236883 -0.199436,1.294328 -0.183807,1.321805 0.871099,1.531445 0.590798,0.117409 1.506178,0.567605 2.034178,1.000436 0.952111,0.780498 2.915302,1.0635 4.133828,0.595908 z m 16.658415,-3.754749 c -2.665712,-1.21025 -1.559252,-5.795802 1.55242,-6.43376 3.228716,-0.661955 4.052015,0.05814 4.05414,3.545942 0.0017,2.793504 -2.723034,4.196957 -5.60656,2.887818 z m 1.287757,-1.811015 c 0.11172,-0.352 0.350905,-0.64 0.531522,-0.64 0.180617,0 0.403708,0.288 0.495758,0.64 0.350983,1.342161 1.783485,0.522416 1.636458,-0.936458 -0.161064,-1.598153 -1.53655,-2.312139 -2.73514,-1.419754 -1.146239,0.853408 -1.694065,2.274564 -1.036998,2.690154 0.688557,0.435506 0.882757,0.376997 1.1084,-0.333942 z"
     id="path1" />
</svg>
