<?xml version="1.0" encoding="UTF-8" standalone="no"?>
<!-- Created with Inkscape (http://www.inkscape.org/) -->

<svg
   version="1.1"
   id="svg1"
   width="114.95387"
   height="99.021622"
   viewBox="0 0 114.95387 99.021624"
   sodipodi:docname="Icon_nodashii.svg"
   inkscape:version="1.4.2 (ebf0e940d0, 2025-05-08)"
   xmlns:inkscape="http://www.inkscape.org/namespaces/inkscape"
   xmlns:sodipodi="http://sodipodi.sourceforge.net/DTD/sodipodi-0.dtd"
   xmlns="http://www.w3.org/2000/svg"
   xmlns:svg="http://www.w3.org/2000/svg">
  <defs
     id="defs1" />
  <sodipodi:namedview
     id="namedview1"
     pagecolor="#505050"
     bordercolor="#eeeeee"
     borderopacity="1"
     inkscape:showpageshadow="0"
     inkscape:pageopacity="0"
     inkscape:pagecheckerboard="0"
     inkscape:deskcolor="#505050"
     showgrid="false"
     inkscape:zoom="4.2301186"
     inkscape:cx="58.036199"
     inkscape:cy="56.263199"
     inkscape:window-width="1838"
     inkscape:window-height="1011"
     inkscape:window-x="40"
     inkscape:window-y="47"
     inkscape:window-maximized="1"
     inkscape:current-layer="svg1" />
  <path
     style="fill:#66090c"
     d="m 34.325242,98.572546 c -3.87867,-1.19213 -8.312646,-9.74341 -7.827324,-15.09563 0.34453,-3.79953 4.177718,-8.3036 12.038463,-14.14541 3.653445,-2.7151 4.23647,-3.24795 2.664235,-2.43491 -1.565805,0.80971 -12.960295,1.35443 -17.772905,0.84965 -11.62998,-1.21983 -18.3010375,2.15502 -15.5895075,7.88667 2.5557485,5.40235 6.4974405,7.44526 10.3854785,5.38262 3.899134,-2.06854 5.117265,-0.26664 2.015603,2.98154 -4.037004,4.2277 -10.5079965,3.91551 -15.0890285,-0.72796 -7.558554,-7.66159 -6.707903,-16.87022 1.962714,-21.24713 3.9194755,-1.978548 4.7970715,-2.071955 17.2259405,-1.83345 12.622411,0.24222 14.713102,0.03911 18.308406,-1.778678 3.093497,-1.564071 3.257928,-1.858723 2.070852,-3.710856 -2.89493,-4.516812 -3.074166,-6.821243 -0.707939,-9.101982 l 1.591318,-1.533827 -1.784654,-2.487345 C 40.025447,36.291555 38.887171,32.434937 38.832612,24.688504 38.711401,7.4784061 52.294482,-4.5735659 64.775143,1.6702561 c 12.94317,6.475199 16.44725,28.2160099 6.57336,40.7838899 l -1.49807,1.906802 1.32424,1.436628 c 2.09265,2.270253 1.80274,5.019718 -0.95135,9.022658 l -1.0279,1.493997 0.93174,0.753699 c 3.78463,3.06143 7.29654,3.555033 22.37175,3.144377 11.794617,-0.321292 15.032137,0.44211 19.246897,4.538389 9.82714,9.55089 -5.05939,28.38162 -15.945637,20.17045 -4.05992,-3.06228 -3.32807,-6.14545 0.92337,-3.89002 4.005807,2.12513 8.413907,-0.35325 10.781457,-6.0617 2.1779,-5.25117 -4.27677,-8.1549 -16.135567,-7.25881 -6.73304,0.50877 -15.05254,0.0227 -17.05443,-0.99644 -2.51092,-1.27827 -1.68418,-0.33235 2.42481,2.77433 12.6138,9.53692 14.28032,14.1346 8.7805,24.22414 -3.79148,6.955584 -13.19314,7.028504 -16.24205,0.12599 -1.55888,-3.52921 0.43195,-8.51013 3.40143,-8.51013 2.11742,0 2.53335,1.15302 0.93922,2.60365 -1.99851,1.81861 -0.78984,4.68906 2.21152,5.25212 3.73313,0.70034 6.5693,-6.83777 4.06087,-10.79316 -1.40356,-2.21317 -7.63888,-6.97088 -12.31973,-9.40024 l -1.81575,-0.94237 -0.89902,-2.88 c -0.57215,-1.83288 -1.06243,-2.88 -1.34846,-2.88 -0.840006,0 -0.430171,2.45665 1.12039,6.71587 1.62077,4.45208 1.64522,4.77322 0.60822,7.98601 -0.36467,1.1298 -1.04608,2.11572 -2.384315,3.44981 -1.954014,1.94795 -2.508025,3.54499 -1.379927,3.97788 0.667633,0.2562 0.959469,-0.0952 0.519414,-0.62545 -0.434848,-0.52396 0.09626,-1.18412 0.95264,-1.18412 1.378428,0 2.011038,2.66824 1.065928,4.49589 -0.991278,1.91692 -3.328441,0.98605 -4.7904,-1.90797 -0.845437,-1.67359 -0.483367,-3.03961 1.678178,-6.33146 2.660192,-4.05125 2.786152,-6.08744 0.606666,-9.80645 -1.250189,-2.13329 -1.68967,-2.37164 -1.937461,-1.05081 -0.280938,1.49754 -1.098375,2.44617 -3.631343,4.21417 -3.911538,2.73024 -5.471711,7.50987 -2.181855,6.68417 1.238176,-0.31077 1.081809,1.36906 -0.193784,2.0818 -1.688547,0.94347 -3.665594,-0.57904 -4.001219,-3.08132 -0.376731,-2.80874 0.584291,-4.71515 4.088827,-8.11114 3.103041,-3.00693 3.170609,-3.10355 3.170609,-4.53419 0,-3.15351 -1.568084,-3.51232 -3.327785,-0.76147 -0.924209,1.44477 -1.590255,1.96332 -5.344006,4.16055 -7.296818,4.27112 -11.803706,7.7745 -13.311689,10.34768 -1.960017,3.34452 0.498594,10.32055 3.637342,10.32055 3.294237,0 5.285015,-3.47097 2.971719,-5.18126 -1.91986,-1.41942 -0.246941,-3.67585 1.844731,-2.48818 7.983709,4.53323 0.209348,15.732944 -8.963981,12.91348 z m -2.927949,-14.37567 c 0.670466,-1.1989 1.625595,-2.64288 2.12251,-3.20883 l 0.903481,-1.02901 -1.164935,-0.136 c -2.279505,-0.26612 -3.658558,2.3416 -3.599516,6.8065 0.03528,2.66823 0.06778,2.82891 0.279676,1.38307 0.136348,-0.93033 0.765527,-2.57607 1.458784,-3.81573 z m 48.14162,-7.37072 c 0,-1.14746 -3.29694,-5.26401 -4.88,-6.09317 l -0.88,-0.46092 v 1.3274 c 0,1.0988 0.0768,1.26364 0.4461,0.95717 0.42269,-0.35081 1.16978,0.77307 1.89574,2.85187 0.0922,0.264 0.179,-0.012 0.19289,-0.61332 l 0.0253,-1.09331 1.1082,1.25331 c 0.60951,0.68933 1.19522,1.50532 1.30157,1.81332 0.2404,0.69624 0.79023,0.73636 0.79023,0.0577 z m 31.636067,-7.29526 c -1.04871,-4.4487 -2.38139,-5.2875 -12.560417,-7.905608 -3.93951,-1.013265 -8.031,-0.397082 -7.44819,1.121708 0.15923,0.41495 0.82499,0.50151 3.85723,0.50151 8.180997,0 13.017597,2.38722 15.919567,7.85748 0.98375,1.85441 1.00547,1.70686 0.23181,-1.57509 z M 8.3336305,65.824516 c 1.6852395,-1.007 2.1836605,-1.13351 5.6735795,-1.44 3.330211,-0.29247 4.911939,-0.80773 2.518368,-0.82038 -1.929517,-0.0102 -2.51727,-0.38526 -1.295311,-0.82656 1.050785,-0.37949 0.970325,-0.40165 -1.541678,-0.42473 -3.205975,-0.0294 -7.5830025,1.41561 -8.0559845,2.65964 -0.146861,0.38628 -0.520842,0.9124 -0.831069,1.16917 -0.599857,0.49648 -1.723846,2.73654 -1.735595,3.45896 -0.0039,0.23766 0.764086,-0.26634 1.706558,-1.12 0.942472,-0.85366 2.544982,-2.04891 3.561132,-2.6561 z M 65.458913,55.191551 c 1.81364,-0.992281 2.71484,-2.644341 2.26377,-4.149893 -0.64306,-2.146354 -3.22377,-1.816079 -3.22377,0.412575 0,0.934773 -0.78113,2.574282 -1.68399,3.534521 -1.299144,1.381707 0.269345,1.502012 2.64399,0.202797 z m -13.233275,-0.08777 c -0.741543,-0.687239 -0.847336,-1.035067 -0.851627,-2.8 -0.0056,-2.314517 -0.153648,-2.648072 -1.382445,-3.11526 -4.678667,-1.778826 -3.845468,4.215661 0.851003,6.122578 1.916678,0.778232 2.372732,0.709871 1.383069,-0.207318 z M 43.521594,18.932439 c 0.119092,-0.794164 0.349635,-1.443934 0.512318,-1.443934 0.162682,0 0.714324,-0.828 1.225871,-1.84 2.265752,-4.482368 4.492653,-6.6555159 8.78677,-8.5746789 2.055503,-0.918663 2.640369,-1.425321 1.645331,-1.425321 -0.267864,0 -1.439782,0.432 -2.604261,0.96 -3.154717,1.430417 -3.539653,1.011281 -0.892692,-0.972004 2.363216,-1.770684 1.353492,-2.129367 -1.178335,-0.418578 -1.832359,1.238149 -6.46979,5.9235259 -6.093245,6.1562439 0.216464,0.133782 0.0058,0.891857 -0.589422,2.121258 -0.509444,1.052194 -1.010066,2.70508 -1.112494,3.67308 -0.102427,0.968 -0.250729,2.163158 -0.329559,2.655907 -0.07883,0.492749 -0.01811,0.81852 0.134929,0.723935 0.153042,-0.09458 0.375697,-0.821743 0.494789,-1.615908 z m 45.008339,57.627257 c -1.03903,-0.57578 -5.47102,-4.99544 -5.47102,-5.4558 0,-0.39221 0.63466,-1.13539 0.9696,-1.13539 0.11087,0 0.92919,0.72 1.81849,1.6 2.30231,2.27826 3.63054,1.95735 6.31456,-1.52566 l 1.29735,-1.68354 2.83761,0.12657 c 2.91963,0.13022 3.62274,0.46292 3.0969,1.46538 -0.14345,0.27349 -0.36374,1.25924 -0.48953,2.19056 -0.52031,3.85241 -6.66909,6.47094 -10.37396,4.41788 z m 4.01437,-2.10682 c 0.45355,-0.005 3.63461,-2.83588 3.63461,-3.23403 0,-0.15969 -0.204,-0.29034 -0.45334,-0.29034 -0.24933,0 -0.50133,-0.14143 -0.56,-0.31429 -0.0587,-0.17285 -1.11466,0.7144 -2.34666,1.97167 -1.75432,1.79029 -2.06654,2.241 -1.44,2.07865 0.44,-0.11401 0.96442,-0.20926 1.16539,-0.21166 z m -72.365391,1.83884 c -1.210908,-0.43676 -4.203966,-2.62798 -4.597939,-3.36615 -0.725837,-1.35998 -0.785396,-4.15924 -0.09634,-4.52801 1.813889,-0.97077 5.81428,-0.22099 5.81428,1.08974 0,0.95217 2.661832,3.03579 3.839999,3.00586 2.412688,-0.0613 3.362654,-0.71629 2.414286,-1.66465 -0.701426,-0.70143 -0.621326,-0.86 0.43441,-0.86 2.579831,0 2.182776,4.97435 -0.507658,6.36001 -0.877827,0.45211 -6.017369,0.4262 -7.301038,-0.0368 z m 77.360001,-17.117518 -1.36,-0.122493 v -2.310424 c 0,-3.977527 -2.45259,-8.005914 -5.09551,-8.369409 -3.82811,-0.526499 -6.74503,1.406886 -8.86904,5.878557 -1.95065,4.106679 -2.18718,4.565812 -2.4324,4.721571 -0.55144,0.35026 -5.79768,-0.972796 -6.60254,-1.665101 l -0.83349,-0.716945 0.68457,-1.620345 c 6.27538,-14.853402 16.82477,-18.934956 25.5835,-9.89825 3.301087,3.405854 4.093147,5.167472 4.233667,9.416085 0.17151,5.185997 0.17732,5.180876 -5.308757,4.686754 z m -4.04737,-13.172273 c -1.20058,-1.229509 -1.202,-1.234107 -0.32809,-1.067049 0.85489,0.163421 0.86452,0.148973 0.37072,-0.556032 -0.27884,-0.398098 -0.43468,-0.912238 -0.3463,-1.142535 0.44537,-1.160618 -4.12647,-1.772875 -7.25448,-0.971516 -2.5041,0.641522 -2.6813,0.797822 -2.39295,2.110706 l 0.22628,1.03025 2.7661,-0.210981 c 3.15028,-0.240284 5.3179,0.250349 6.91358,1.56487 1.40293,1.155726 1.43229,0.662854 0.0451,-0.757713 z M 12.978912,58.448504 c -2.061221,-2.061221 0.609737,-10.638273 4.497479,-14.442429 7.373157,-7.214632 17.958043,-3.128141 23.70439,9.151519 1.928914,4.121995 -1.05841,7.214164 -5.380377,5.569212 -1.263884,-0.481038 -1.190111,-0.380155 -2.777597,-3.798302 -2.329228,-5.015256 -6.858006,-7.923936 -9.904933,-6.361602 -2.184928,1.120337 -4.054711,4.311572 -4.062484,6.933606 -0.0019,0.653397 -0.09278,1.727996 -0.20187,2.387996 l -0.198348,1.199999 h -2.51813 c -2.091464,0 -2.626571,-0.10844 -3.15813,-0.639999 z m 5.770428,-9.04 c 1.332712,-2.183657 4.234186,-5.022715 5.707767,-5.584984 1.137849,-0.434166 1.117454,-0.439981 -0.989175,-0.282044 -3.880856,0.290955 -6.64902,2.97537 -6.64902,6.44786 0,1.610859 0.726159,1.39237 1.930428,-0.580832 z"
     id="path1" />
</svg>
