<?xml version="1.0" encoding="UTF-8" standalone="no"?>
<!-- Created with Inkscape (http://www.inkscape.org/) -->

<svg
   version="1.1"
   id="svg1"
   width="113.67722"
   height="77.614296"
   viewBox="0 0 113.67722 77.614298"
   sodipodi:docname="Icon_oracle.svg"
   inkscape:version="1.4.2 (ebf0e940d0, 2025-05-08)"
   xmlns:inkscape="http://www.inkscape.org/namespaces/inkscape"
   xmlns:sodipodi="http://sodipodi.sourceforge.net/DTD/sodipodi-0.dtd"
   xmlns="http://www.w3.org/2000/svg"
   xmlns:svg="http://www.w3.org/2000/svg">
  <defs
     id="defs1" />
  <sodipodi:namedview
     id="namedview1"
     pagecolor="#505050"
     bordercolor="#eeeeee"
     borderopacity="1"
     inkscape:showpageshadow="0"
     inkscape:pageopacity="0"
     inkscape:pagecheckerboard="0"
     inkscape:deskcolor="#505050"
     showgrid="false"
     inkscape:zoom="4.2301186"
     inkscape:cx="60.400198"
     inkscape:cy="33.095999"
     inkscape:window-width="1838"
     inkscape:window-height="1011"
     inkscape:window-x="40"
     inkscape:window-y="47"
     inkscape:window-maximized="1"
     inkscape:current-layer="svg1" />
  <path
     style="fill:#0064ab"
     d="m 32.468143,76.202863 c -0.112156,-0.66999 -0.258251,-2.65816 -0.324656,-4.41816 -0.179562,-4.75909 -1.393963,-10.80021 -1.476309,-7.344 -0.06436,2.70138 -0.749555,2.48951 -1.086668,-0.336 -0.391387,-3.28041 -2.71668,-5.31243 -7.346674,-6.4201 -2.637354,-0.63095 -3.008431,-0.87591 -2.413266,-1.59304 0.446474,-0.53797 0.494523,-0.72574 0.730243,-2.85378 0.07718,-0.6968 0.293912,-1.3181 0.481619,-1.38067 0.187706,-0.0626 0.26453,-0.31378 0.17072,-0.55825 -0.09381,-0.24446 0.05828,-0.7712 0.337977,-1.17052 0.651064,-0.92953 0.707089,-1.99209 0.06008,-1.13954 -0.36268,0.4779 -0.406591,-0.0356 -0.287337,-3.36002 0.09803,-2.73287 0.01782,-4.21556 -0.264244,-4.88411 -0.222754,-0.52798 -0.417881,-1.10397 -0.433615,-1.27997 C 20.177682,34.561478 11.701289,31.33141 3.8168797,33.063117 l -1.049566,0.230523 0.228467,-1.874469 c 0.273407,-2.243183 -0.0075,-1.941768 3.533889,-3.792298 1.584,-0.827716 2.52,-1.198869 2.08,-0.824785 l -0.8,0.680154 0.88,-0.380136 c 0.484,-0.209074 0.88,-0.487338 0.88,-0.618363 0,-0.296213 2.7002953,-1.899042 3.1993263,-1.899042 0.200949,0 0.967307,-0.408292 1.703018,-0.907315 2.672095,-1.812448 13.186366,-6.887711 17.977655,-8.677857 2.805759,-1.048301 6.128053,-1.892065 8.16,-2.072397 5.200858,-0.461568 7.28694,-0.510055 9.92,-0.230572 4.190616,0.444809 4.647679,0.538779 9.6,1.973732 1.32,0.382475 3.230524,0.931254 4.245609,1.219509 1.101884,0.312903 1.788783,0.672199 1.704583,0.891619 -0.0835,0.217597 0.33846,0.446804 1.03439,0.561878 1.68444,0.278528 2.04202,0.248059 1.79423,-0.15288 -0.14106,-0.228246 -0.005,-0.295107 0.38111,-0.187942 0.33004,0.09149 1.17608,0.257439 1.88008,0.368781 3.52096,0.556862 27.84844,6.01048 25.63908,5.74765 -0.8585,-0.10213 -1.7585,-0.261513 -1.99999,-0.354185 -0.2415,-0.09267 -0.43909,-0.03542 -0.43909,0.127232 0,0.343627 3.84025,1.280761 6.399999,1.561789 2.81183,0.308704 7.71302,-1.632258 11.01799,-4.363327 1.89336,-1.56458 1.86353,-1.568354 1.22483,0.154942 -0.28959,0.781361 -0.62805,1.357919 -0.75212,1.28124 -0.12407,-0.07668 -0.68724,0.580024 -1.2515,1.459342 -0.56426,0.879319 -1.15491,1.598761 -1.31256,1.598761 -0.15766,0 -0.28664,0.206296 -0.28664,0.458436 0,0.252139 -0.288,0.549843 -0.64,0.661564 -0.352,0.11172 -0.64,0.334511 -0.64,0.495091 0,0.400293 -3.22268,2.218191 -3.93889,2.221906 -0.31839,0.0017 -0.50107,0.128901 -0.40597,0.282778 0.21382,0.34598 -4.465599,2.133258 -6.855139,2.618278 -0.968,0.196481 -2.30084,0.473698 -2.96186,0.616037 -1.26502,0.272401 -1.99257,-0.120386 -0.87814,-0.47409 0.35711,-0.113343 0.57517,-0.326012 0.48457,-0.472599 -0.0906,-0.146586 0.37531,-0.204402 1.03535,-0.128478 0.7581,0.0872 1.67149,-0.08203 2.48008,-0.459505 l 1.28,-0.597547 -5.2256,0.105997 c -2.87407,0.0583 -5.33845,0.175748 -5.47639,0.260999 -0.13794,0.08525 -1.53042,0.302375 -3.09441,0.482498 -3.2336,0.372412 -9.88465,2.219891 -14.8436,4.123143 -4.403108,1.689918 -3.54064,1.658101 2.56209,-0.09452 2.71951,-0.781004 4.99788,-1.366685 5.06305,-1.301515 0.18702,0.18702 -2.9834,1.719676 -3.90177,1.886208 -0.45553,0.0826 -1.22764,0.358798 -1.7158,0.613767 -0.82361,0.430175 -1.5275,0.736886 -3.36757,1.467381 -3.048076,1.210073 -18.930211,4.461613 -22.000002,4.504063 -2.66212,0.0368 -2.66212,0.38882 0,2.90993 4.136133,3.91705 14.215365,11.18018 15.515021,11.18018 0.271514,0 0.743709,0.13368 1.049321,0.29707 1.257325,0.67221 3.77836,1.75731 4.23077,1.821 0.26669,0.0375 1.77667,0.59799 3.35551,1.24545 2.97133,1.21848 4.81293,1.53132 13.99751,2.37782 3.72194,0.34304 8.08322,-0.18882 10.10049,-1.23176 0.30326,-0.15678 1.24608,-0.62358 2.09516,-1.03732 2.74505,-1.33762 5.638569,-6.1708 4.715549,-7.8766 -0.16537,-0.30562 -0.38303,-0.94734 -0.48369,-1.42607 -0.10066,-0.47872 -0.73833,-1.45415 -1.417039,-2.16762 l -1.23402,-1.29723 -2.59017,0.10046 c -2.79984,0.10859 -3.71665,0.60124 -4.72482,2.53891 -1.50168,2.88618 1.21402,5.01081 3.5726,2.79503 1.12049,-1.05264 1.65732,-0.42416 0.58962,0.69028 -3.04987,3.18337 -7.47942,1.80528 -8.42898,-2.62236 -0.67002,-3.12419 1.35775,-5.81309 5.89805,-7.82103 1.72254,-0.76179 3.23464,-1.04128 2.92526,-0.5407 -0.0834,0.13493 0.66411,0.24638 1.66112,0.24766 1.95574,0.003 4.326529,1.10696 6.737549,3.13874 1.15383,0.97234 1.15369,0.97188 -0.12481,-0.38868 -2.21066,-2.35254 -5.296409,-3.63625 -8.434529,-3.50887 -2.68796,0.1091 -3.39086,-0.14318 -1.56547,-0.56188 11.271979,-2.585556 19.628609,14.81399 10.990449,22.88348 -0.45675,0.42668 -0.83045,0.96668 -0.83045,1.2 0,0.23332 -0.22232,0.42422 -0.49403,0.42422 -0.29299,0 -0.45577,0.22788 -0.4,0.56 0.0624,0.37157 -0.25591,0.71402 -0.94597,1.01775 -0.572,0.25176 -1.04,0.64776 -1.04,0.88 0,0.23223 -0.33,0.42225 -0.73334,0.42225 -0.403329,0 -1.267659,0.504 -1.920739,1.12 -0.65307,0.616 -1.51107,1.11905 -1.90667,1.11789 -0.66975,-0.002 -0.65318,-0.0483 0.24075,-0.67375 0.53229,-0.37241 0.67486,-0.5689 0.32,-0.44102 -2.39938,0.86465 -12.18574,3.13783 -12.70286,2.95063 -0.22943,-0.0831 0.0869,-0.30064 0.70286,-0.48352 0.99789,-0.29626 0.83012,-0.33566 -1.53889,-0.36137 -1.89902,-0.0206 -2.5951,0.0743 -2.43569,0.33227 1.11817,1.80924 -14.10602,-1.31035 -17.465423,-3.57884 -0.44,-0.29713 -1.580784,-0.93368 -2.535076,-1.41455 -2.391462,-1.20511 -5.163001,-3.07961 -4.983286,-3.37039 0.08179,-0.13234 -0.92023,-0.96277 -2.226714,-1.8454 -1.306483,-0.88263 -2.288311,-1.6919 -2.18184,-1.79837 0.106471,-0.10647 -0.06882,-0.19358 -0.389545,-0.19358 -0.32072,0 -1.02872,-0.33787 -1.573333,-0.75081 -1.338702,-1.01505 -6.259899,-4.04919 -6.567539,-4.04919 -0.135653,0 -0.843,-0.432 -1.571883,-0.96 -0.728883,-0.528 -1.40135,-0.96 -1.494371,-0.96 -0.09302,0 -0.739407,-0.36 -1.436412,-0.8 -2.488058,-1.57065 -2.822006,-1.29434 -2.938748,2.4315 -0.05569,1.77732 0.0091,3.29927 0.143968,3.38211 0.134871,0.0828 0.150788,0.3034 0.03537,0.49015 -0.115417,0.18675 -0.180861,1.5448 -0.145433,3.01789 0.04129,1.71665 -0.05759,2.67835 -0.275372,2.67835 -0.36382,0 -0.471413,-1.08646 -0.369446,-3.73061 0.06043,-1.56705 -0.395249,-2.73242 -0.500047,-1.27884 -0.05258,0.72937 -0.421003,11.82897 -0.527404,15.88945 -0.07545,2.87944 -1.230989,3.84788 -1.644416,1.37816 z m 26.701526,-11.45166 c 0,-0.18644 -2.432037,-1.44717 -2.787252,-1.44486 -0.310123,0.002 2.211496,1.5744 2.547252,1.58837 0.132,0.005 0.24,-0.0591 0.24,-0.14351 z m 29.920002,-12.0065 c -0.31856,-0.352 -0.73688,-0.63521 -0.9296,-0.62936 -0.19272,0.006 -0.0105,0.29386 0.40505,0.64 0.97722,0.81411 1.26564,0.80826 0.52455,-0.0106 z M 65.409668,36.596257 c 1.235863,-0.56589 0.661023,-0.574194 -0.8,-0.01156 -0.616,0.237221 -0.904,0.435771 -0.64,0.441222 0.264,0.0055 0.912,-0.187898 1.44,-0.429665 z M 54.370764,34.397719 c 5.682758,-0.784288 8.894129,-1.842098 21.438907,-7.06187 2.3783,-0.989592 2.6195,-1.160351 1.92,-1.359296 -1.91257,-0.543953 -8.71128,-3.007245 -11.25929,-4.079434 -1.528613,-0.643231 -4.552613,-1.597799 -6.720003,-2.121263 -7.843172,-1.894266 -7.287776,-1.858741 -6.580233,-0.420893 2.640404,5.365754 -0.390008,11.828842 -6.733875,14.361623 -3.432422,1.37039 -13.084575,-3.348741 -12.295373,-6.011456 0.05017,-0.169287 -0.07099,-0.503259 -0.269261,-0.742158 -0.646934,-0.779508 -0.752905,-4.090553 -0.184325,-5.759243 0.819237,-2.404329 -0.12753,-2.1131 -11.714471,3.603412 -8.603935,4.244822 -8.775654,4.38876 -5.685926,4.766077 0.969516,0.118397 3.346756,0.690057 5.282756,1.270355 5.254543,1.575001 12.24953,3.257152 15.256382,3.668847 1.464407,0.200506 2.698002,0.399999 2.741321,0.443318 0.290116,0.290116 11.802372,-0.143842 14.803391,-0.558019 z m -8.101071,-7.192651 c 3.788251,-3.244533 -0.661577,-8.752418 -4.955863,-6.134242 -0.580712,0.354053 -0.967585,0.786532 -0.859718,0.961064 0.107867,0.174532 -0.029,0.40372 -0.304161,0.509307 -0.705444,0.270705 -0.632688,1.982417 0.137989,3.246429 1.419138,2.327571 4.160617,2.977195 5.981753,1.417442 z m -0.634085,-1.233675 c -0.09338,-0.151098 0.02317,-0.632916 0.258996,-1.070708 0.38789,-0.72007 0.450424,-0.74021 0.655683,-0.211171 0.237617,0.612441 -0.601562,1.788512 -0.914679,1.281879 z M 41.729669,13.704701 c -0.250873,-0.405921 -1.451881,-0.405921 -2.08,0 -0.350957,0.226806 -0.109302,0.311517 0.898886,0.3151 0.838842,0.003 1.301428,-0.120429 1.181114,-0.3151 z m 29.920002,58.568502 c -1.496,-0.32255 -3.25538,-0.81642 -3.90972,-1.09748 -0.65435,-0.28106 -1.48235,-0.51102 -1.84,-0.51102 -0.357657,0 -0.650283,-0.10929 -0.650283,-0.24287 0,-0.13357 -0.943051,-0.58107 -2.09567,-0.99445 -1.152618,-0.41337 -3.613683,-1.67208 -5.469033,-2.79713 -1.85535,-1.12506 -3.491376,-2.04555 -3.635612,-2.04555 -0.357974,0 -2.879684,-1.6669 -2.879684,-1.90353 0,-0.10441 -0.648,-0.54383 -1.44,-0.97647 -1.402569,-0.76619 -1.828322,-1.28 -1.060625,-1.28 0.208657,0 0.676657,0.27396 1.04,0.60879 0.363344,0.33484 1.164625,0.89286 1.780625,1.24004 0.616,0.34717 2.056,1.23031 3.2,1.96252 2.613959,1.67305 10.802174,5.68782 12.399952,6.07983 0.66003,0.16193 2.20805,0.58063 3.44005,0.93045 1.232,0.34981 3.14026,0.73622 4.24057,0.85868 1.10032,0.12246 2.08082,0.35249 2.17889,0.51117 0.28602,0.4628 -2.35502,0.29188 -5.29946,-0.34298 z m 19.38261,-0.29191 c -0.0963,-0.15588 0.18317,-0.35191 0.62112,-0.43563 0.87841,-0.16792 1.09137,0.21732 0.29009,0.5248 -0.65617,0.2518 -0.70333,0.24718 -0.91121,-0.0892 z M 1.9821657,19.930987 c -3.925615,-2.35291 -2.33034498,-3.938307 7.584635,-7.537693 3.2796273,-1.190586 8.1157573,-3.3004495 11.6800003,-5.0956465 9.98235,-5.027794 14.022656,-6.57909401 18.366302,-7.05184901 7.785267,-0.847337 19.320415,0.570647 25.277468,3.10728801 9.52323,4.055197 26.53139,6.7307065 33.22381,5.226352 2.780829,-0.625089 9.271619,-2.965327 9.695289,-3.49561 0.8706,-1.089695 4.61484,-3.838723 4.80635,-3.528841 0.16804,0.271895 0.29511,0.2786 0.45253,0.02388 0.12039,-0.19479 0.36419,-0.354164 0.54179,-0.354164 0.1776,0 -0.0109,0.446832 -0.41888,0.992959 -0.40799,0.546128 -0.88579,1.230128 -1.06179,1.52 -2.17445,3.581312 -8.33634,8.2443315 -13.027879,9.8588575 -3.58507,1.233749 -10.78464,2.113525 -11.9516,1.460465 -0.40023,-0.223984 0.32044,-0.369905 2.61342,-0.529156 3.30876,-0.229798 6.15204,-0.638167 8.23836,-1.183238 2.030609,-0.53052 1.13404,-0.623126 -1.41459,-0.146113 -6.69327,1.252742 -21.18398,0.394402 -22.16662,-1.313014 -0.19934,-0.346367 -0.59076,-0.412871 -1.51298,-0.257063 -0.8516,0.143878 -1.56139,0.05188 -2.24996,-0.291621 -0.55324,-0.275992 -1.14343,-0.416801 -1.31153,-0.312908 -0.1681,0.103893 -0.58822,-0.114418 -0.9336,-0.485136 -0.34537,-0.370718 -0.90494,-0.6740325 -1.24348,-0.6740325 -0.33855,0 -1.37694,-0.277717 -2.307539,-0.617149 -3.456264,-1.260654 -9.80293,-2.245687 -14.844461,-2.30393 -3.794728,-0.04384 -9.588275,0.539888 -10.22014,1.029727 -0.304869,0.236343 -1.249345,0.508701 -4.307402,1.242124 -3.054193,0.732495 -8.446025,2.8726185 -9.67691,3.8409535 -0.4823,0.379425 -1.01345,0.605478 -1.180332,0.502339 -0.166883,-0.103139 -0.420273,0.0025 -0.56309,0.234689 -0.306565,0.498469 -4.021565,2.320254 -5.331769,2.614626 -0.501655,0.11271 -1.328272,0.512616 -1.836926,0.88868 -1.45528,1.075935 -9.9101803,3.444131 -12.2909723,3.442671 -0.798172,-4.9e-4 -1.787238,-0.304811 -2.627504,-0.808445 z M 80.874301,14.84815 c -0.82246,-0.188897 -1.61145,-0.460444 -1.75333,-0.603437 -0.30253,-0.30492 4.33634,0.0462 5.9687,0.45178 0.97543,0.242357 0.9088,0.260879 -0.51626,0.143499 -0.89994,-0.07413 -1.76394,-0.02534 -1.92,0.108415 -0.15606,0.133756 -0.95666,0.08864 -1.77911,-0.100257 z"
     id="path1" />
</svg>
