<?xml version="1.0" encoding="UTF-8" standalone="no"?>
<!-- Created with Inkscape (http://www.inkscape.org/) -->

<svg
   version="1.1"
   id="svg1"
   width="114.453"
   height="83.599632"
   viewBox="0 0 114.453 83.599634"
   sodipodi:docname="Icon_vortox.svg"
   inkscape:version="1.4.2 (ebf0e940d0, 2025-05-08)"
   xmlns:inkscape="http://www.inkscape.org/namespaces/inkscape"
   xmlns:sodipodi="http://sodipodi.sourceforge.net/DTD/sodipodi-0.dtd"
   xmlns="http://www.w3.org/2000/svg"
   xmlns:svg="http://www.w3.org/2000/svg">
  <defs
     id="defs1" />
  <sodipodi:namedview
     id="namedview1"
     pagecolor="#505050"
     bordercolor="#eeeeee"
     borderopacity="1"
     inkscape:showpageshadow="0"
     inkscape:pageopacity="0"
     inkscape:pagecheckerboard="0"
     inkscape:deskcolor="#505050"
     showgrid="false"
     inkscape:zoom="4.2301186"
     inkscape:cx="60.163798"
     inkscape:cy="53.899199"
     inkscape:window-width="1838"
     inkscape:window-height="1011"
     inkscape:window-x="40"
     inkscape:window-y="47"
     inkscape:window-maximized="1"
     inkscape:current-layer="svg1" />
  <path
     style="fill:#931519"
     d="m 53.362345,82.901863 c -7.010067,-1.45848 -8.487731,-2.17197 -9.791701,-4.72796 -1.47529,-2.89181 -1.119789,-5.52851 1.327751,-9.84772 1.548853,-2.73329 1.495529,-2.85852 -0.899932,-2.11356 -4.904279,1.52516 -6.767821,4.45897 -5.178718,8.15294 0.60947,1.41675 1.90627,2.80969 1.900815,2.04174 -0.0058,-0.81806 -0.721384,-2.63763 -0.975518,-2.48057 -0.575622,0.35575 -0.30041,-0.71357 0.330631,-1.28466 0.504302,-0.45638 0.658959,-0.48278 0.759136,-0.12959 2.011243,7.09103 1.930866,7.25304 -2.003949,4.03917 -5.79813,-4.7358 -3.859765,-9.42032 4.811278,-11.62761 3.573019,-0.90954 3.744122,-1.0888 2.21339,-2.31893 -0.714679,-0.57433 -1.293183,-1.31879 -1.293183,-1.66415 0,-0.72503 0.0088,-0.72739 1.127466,-0.30208 0.639641,0.24319 1.550826,0.1581 3.693349,-0.34491 3.869214,-0.90838 4.315766,-0.74351 2.105318,0.77733 -4.081199,2.80797 -5.080423,4.68337 -5.032076,9.4445 0.06302,6.20596 1.74383,9.06797 6.625363,11.28136 3.110956,1.41058 3.067234,1.16186 -0.38694,-2.20112 -8.868442,-8.63432 -7.181543,-14.83497 6.023859,-22.14233 15.285173,-8.45823 17.048343,-10.0214 17.500943,-15.51585 0.17207,-2.088894 0.23423,-2.231878 1.06652,-2.453339 1.6686,-0.443991 2.41553,1.350029 2.01949,4.850539 -0.11829,1.04554 -0.12882,1.90098 -0.0234,1.90098 0.55051,0 2.54773,-5.0489 2.50003,-6.320003 -0.0281,-0.748 -0.015,-1.36 0.0291,-1.36 0.68832,0 12.35045,-3.994919 13.63095,-4.669351 0.968,-0.50984 1.868,-0.975806 2,-1.035482 2.882743,-1.303242 -7.64142,10.670266 -14.13811,16.085146 -2.74408,2.28714 -6.9392,4.90995 -11.57157,7.23458 -12.743775,6.39513 -19.263082,15.40308 -16.432319,22.70511 0.845645,2.18136 0.941997,2.106 0.941997,-0.73681 0,-6.46684 6.029994,-12.70861 15.648382,-16.19795 5.11189,-1.85449 7.74482,-3.87188 9.01229,-6.90537 l 0.46795,-1.11987 h -1.4443 c -1.07048,0 -1.44429,0.12423 -1.44429,0.48 0,0.26666 0.28444,0.48 0.64,0.48 0.83733,0 0.81425,0.48165 -0.0521,1.08851 -0.80605,0.56458 -1.15624,0.4215 -1.55861,-0.63682 -0.45104,-1.18631 -0.12062,-1.57639 2.26775,-2.67726 4.06699,-1.8746 4.52436,-0.7234 1.68608,4.24385 -2.45256,4.2922 -2.41036,4.18336 -2.66161,6.86586 -0.32588,3.47943 -1.60144,4.62177 -5.60146,5.01646 -9.991025,0.98583 -15.200002,5.47584 -15.200002,13.10201 0,2.12135 0.309792,2.05303 -4.64,1.02321 z m 16.160002,-15.37707 c 4.30132,-1.33231 6.17949,-2.11308 6.55859,-2.72648 0.52664,-0.85211 -5.8684,0.75857 -8.71293,2.19448 -1.942802,0.98073 -4.041306,2.55401 -2.805663,2.10345 0.352,-0.12835 2.584003,-0.8355 4.960003,-1.57145 z m -25.365921,-7.8933 c -4.150677,-0.60956 -7.294967,-4.01077 -5.807078,-6.28157 l 0.49253,-0.7517 1.020234,0.68189 c 4.735515,3.16509 10.92142,4.18831 17.191333,2.84365 2.317251,-0.49696 2.270892,-0.20148 -0.183762,1.17124 -2.114962,1.18275 -2.898257,1.37323 -9.587338,2.3314 -0.88,0.12605 -2.286664,0.12834 -3.125919,0.005 z m 2.805919,-4.10412 c -3.899767,-0.84721 -7.150097,-3.63335 -3.6,-3.08587 5.220149,0.80502 13.391892,0.80441 20.04516,-0.002 2.714872,-0.32886 1.773106,0.28734 -2.759664,1.80564 -4.341583,1.45426 -10.31584,2.01379 -13.685496,1.28175 z m -7.04,-3.88508 c -14.942534,-0.23197 -17.795867,-0.61868 -19.183588,-2.59993 -1.62941,-2.32631 1.626233,-4.57159 7.548378,-5.20579 l 2.114052,-0.2264 -0.03942,1.21148 c -0.178279,5.4789 31.757692,6.8004 41.00058,1.69659 2.02048,-1.11568 2.21449,-0.68068 0.32,0.71749 -5.45368,4.0249 -10.574885,4.73545 -31.760002,4.40656 z m -22.475141,-1.27754 c -3.940093,-1.95032 -3.850026,-4.69078 0.279584,-8.50692 3.463871,-3.200927 15.401874,-6.059715 31.155557,-7.460804 9.628141,-0.8563 16.105367,-1.997747 22.880002,-4.032019 27.94462,-8.391152 40.840073,-20.9661173 26.9812,-26.3106623 -4.20757,-1.622611 -5.9536,-1.812735 -12.80238,-1.394043 -6.56779,0.401514 -7.36948,0.559315 -18.15146,3.572858 -12.771593,3.569638 -18.00621,4.0891863 -29.307362,2.908826 -6.344767,-0.662686 -12.223128,-0.641388 -15.359999,0.05565 l -1.76,0.391087 1.367293,0.102413 c 0.752012,0.05633 1.283513,0.237972 1.181115,0.4036563 -0.258455,0.418189 -2.293887,0.333757 -3.828408,-0.1588063 l -1.28,-0.410865 1.192308,-0.525623 c 1.752174,-0.772437 5.290039,-1.071596 13.367691,-1.13036 13.832342,-0.10063 18.846632,-0.814887 31.999999,-4.558218 10.912173,-3.10550602 23.128373,-4.15478102 30.249053,-2.59815402 2.77991,0.60770702 3.79099,0.67521602 7.560693,0.50482102 14.49148,-0.65503002 15.20638,17.1670433 1.07026,26.6809123 -10.745333,7.2318 -26.599093,11.23214 -52.320005,13.201781 -27.507669,2.10646 -29.236593,2.39421 -32.10018,5.34241 -1.553404,1.59931 -1.518568,2.36886 0.163221,3.60566 l 1.343041,0.98769 -1.263041,-2.6e-4 c -0.694672,-1.3e-4 -1.872854,-0.3021 -2.618182,-0.67103 z M 104.08235,21.259902 c 9.33817,-6.285675 9.49466,-18.2131033 0.23907,-18.2220763 l -1.84092,-0.0018 1.26223,1.140344 c 2.49542,2.254469 3.28516,5.754692 1.95796,8.6779423 -0.33419,0.736057 -0.91539,2.464057 -1.29156,3.84 -0.64927,2.374869 -1.05659,3.273928 -2.44509,5.396967 -0.67936,1.03875 -0.63299,1.020549 2.11831,-0.831392 z M 46.962345,47.620343 c -3.320573,-0.41438 -5.589305,-1.13799 -6.646329,-2.11984 -0.606602,-0.56345 -1.516036,-1.32554 -2.020966,-1.69353 l -0.918053,-0.66906 7.352674,-0.22725 c 7.330105,-0.22655 17.267629,-1.02063 24.720546,-1.97536 5.42067,-0.694386 5.43963,-0.682717 2.95213,1.81672 -2.1934,2.20392 -4.3958,3.45252 -7.200003,4.08188 -3.365317,0.75529 -14.605952,1.23995 -18.239999,0.78644 z M 21.602346,37.83604 c 0.05627,-0.281343 -0.562317,-0.428104 -2.085292,-0.494741 -2.11901,-0.09272 -2.181603,-0.12058 -2.928436,-1.30364 -0.419729,-0.664894 -1.317348,-1.678222 -1.994708,-2.25184 -0.705679,-0.597599 -0.95828,-0.949152 -0.591564,-0.823297 0.352,0.120804 7.048,0.29199 14.879999,0.380414 7.832,0.08842 14.456,0.285167 14.72,0.437207 0.358704,0.206581 0.262961,0.278895 -0.378877,0.286167 -1.750676,0.01983 -12.087866,1.916489 -16.484844,3.024619 -5.086649,1.28194 -5.248335,1.305396 -5.136278,0.745111 z m 22.319999,-5.217428 c -0.264,-0.05675 -1.308,-0.19441 -2.32,-0.305905 -2.357754,-0.259761 -2.314748,-0.486076 0.32,-1.683974 4.546504,-2.067086 12.598475,-3.646776 21.666373,-4.250656 16.032689,-1.067703 34.206519,-8.252992 36.844722,-14.567097 0.80465,-1.9257983 0.60587,-2.9820113 -0.660823,-3.5112673 -1.81705,-0.759213 -2.03272,-0.650494 -1.85405,0.934627 0.0956,0.8484173 0.0172,1.4850453 -0.19931,1.6188863 -0.21198,0.13101 -0.35848,-0.01449 -0.36077,-0.358299 -0.002,-0.318387 -0.36212,-1.2055843 -0.8,-1.9715493 -1.05207,-1.840346 -1.04894,-1.84825 0.81914,-2.069497 3.281603,-0.388657 5.246053,1.075617 5.203763,3.8788143 -0.0945,6.263273 -11.272233,12.59926 -34.818333,19.736405 -6.4892,1.966964 -19.88619,3.399631 -23.840712,2.549512 z M 11.282346,31.516429 C -0.00158016,30.064866 -2.9367062,26.43477 2.9977808,21.270269 9.0159358,16.032956 15.000118,13.370139 23.122346,12.31532 c 3.313093,-0.430265 20.516657,-0.724195 19.839999,-0.338974 -0.894266,0.509104 -6.536134,1.282763 -11.68,1.601657 -11.280463,0.699332 -20.106883,5.177256 -18.38738,9.328503 2.002716,4.834984 9.059552,5.956905 27.98738,4.449535 10.061891,-0.801307 10.72864,-0.780236 6.452589,0.203916 -1.907076,0.438922 -5.939076,1.607071 -8.96,2.595887 l -5.492589,1.797848 -8.48,0.07981 c -6.76495,0.06367 -9.418422,-0.04091 -13.119999,-0.517076 z m 15.199999,-6.235592 c -2.112,-0.779772 -4.379999,-1.721063 -5.039999,-2.091757 -1.439763,-0.808654 -1.732146,-0.120731 -0.50422,1.186336 1.004821,1.069583 -0.01707,1.00114 -1.311228,-0.08782 -4.436018,-3.732663 0.393365,-7.526609 11.789675,-9.261927 9.757892,-1.485835 9.644519,-1.463658 21.443296,-4.194533 19.541778,-4.5230253 27.721078,-4.5512573 32.775818,-0.113129 1.44067,1.264917 1.65076,1.217778 2.12522,-0.476849 0.63462,-2.2666333 -0.52964,-3.6397043 -2.28818,-2.6985633 -0.54984,0.294265 -0.62954,0.258054 -0.52828,-0.24 0.24315,-1.195976 5.3779,0.07138 5.3779,1.327375 0,0.583417 -3.8864,8.6877033 -4.55971,9.5083443 -0.88327,1.076534 -21.043266,5.493446 -22.508054,4.931354 -0.815785,-0.313046 -0.476987,-0.744167 1.127084,-1.43422 1.94229,-0.83555 2.19248,-0.848036 1.49242,-0.07448 -1.288816,1.424124 6.03969,-0.608883 9.28504,-2.575771 6.3441,-3.844929 -8.53649,-6.833418 -21.467579,-4.311362 -17.29467,3.373121 -22.535316,7.835899 -9.929203,8.455414 l 4.8,0.235892 -2.4,0.5197 -2.4,0.519701 2.373333,0.03575 c 1.305334,0.01966 2.30675,0.102332 2.225371,0.183711 -0.123348,0.123348 -10.747718,1.363281 -16.438704,1.918503 -1.335695,0.130313 -2.23433,-0.0781 -5.44,-1.261669 z"
     id="path1" />
</svg>
