<?xml version="1.0" encoding="UTF-8" standalone="no"?>
<!-- Created with Inkscape (http://www.inkscape.org/) -->

<svg
   version="1.1"
   id="svg1"
   width="113.08913"
   height="95.795197"
   viewBox="0 0 113.08914 95.795199"
   sodipodi:docname="Icon_sweetheart.svg"
   inkscape:version="1.4.2 (ebf0e940d0, 2025-05-08)"
   xmlns:inkscape="http://www.inkscape.org/namespaces/inkscape"
   xmlns:sodipodi="http://sodipodi.sourceforge.net/DTD/sodipodi-0.dtd"
   xmlns="http://www.w3.org/2000/svg"
   xmlns:svg="http://www.w3.org/2000/svg">
  <defs
     id="defs1" />
  <sodipodi:namedview
     id="namedview1"
     pagecolor="#505050"
     bordercolor="#eeeeee"
     borderopacity="1"
     inkscape:showpageshadow="0"
     inkscape:pageopacity="0"
     inkscape:pagecheckerboard="0"
     inkscape:deskcolor="#505050"
     showgrid="false"
     inkscape:zoom="4.2301186"
     inkscape:cx="57.326999"
     inkscape:cy="44.443199"
     inkscape:window-width="1838"
     inkscape:window-height="1011"
     inkscape:window-x="40"
     inkscape:window-y="47"
     inkscape:window-maximized="1"
     inkscape:current-layer="svg1" />
  <path
     style="fill:#0062aa"
     d="m 33.62971,93.153828 c -3.622851,-3.59754 -6.001961,-8.3032 -6.020116,-11.90723 -0.008,-1.57927 -0.308149,-1.81218 -1.768169,-1.37188 -3.323772,1.00236 -6.107119,5.62611 -5.846888,9.71296 l 0.135106,2.12179 -0.613757,-0.75782 c -8.59399,-10.61125 -2.742874,-25.64401 13.858608,-35.60569 1.32,-0.79206 3.264,-2.09381 4.32,-2.89276 2.407038,-1.82113 2.300841,-1.84573 2.45457,0.56853 0.108877,1.70989 0.296411,2.23912 1.195855,3.37476 0.586701,0.74077 1.013369,1.38887 0.948152,1.44024 -0.06522,0.0514 -0.766577,0.53721 -1.558577,1.07967 -2.257897,1.54649 -7.911051,7.51393 -10.228748,10.79743 -0.248464,0.352 0.90736,-0.67717 2.568498,-2.28704 7.586738,-7.35258 9.860837,-8.62497 14.45093,-8.08548 4.709779,0.55356 4.660408,0.43255 1.51433,3.71189 -10.09635,10.52402 -15.534015,23.66491 -12.785171,30.89719 0.745598,1.96169 0.723976,1.84344 0.337057,1.84344 -0.166707,0 -1.499463,-1.188 -2.96168,-2.64 z m 49.322636,-2.86158 c -1.82483,-2.6387 -3.99954,-5.06581 -6.31332,-7.04606 -3.09774,-2.65121 -3.98834,-4.21537 -5.20783,-9.14658 -1.89998,-7.68284 -6.16965,-12.95323 -11.093435,-13.69349 -1.551357,-0.23324 -1.503709,-0.57245 0.178614,-1.27159 0.647965,-0.26928 1.687091,-0.89695 2.309171,-1.39482 0.62208,-0.49787 1.88915,-1.28938 2.81572,-1.75891 l 1.68467,-0.85369 1.50428,1.32074 c 2.0019,1.75764 3.25132,3.30106 6.28269,7.76108 1.39613,2.0541 2.59581,3.67734 2.66596,3.60719 0.15525,-0.15525 -2.82193,-5.76307 -4.32304,-8.14286 -3.6463,-5.78069 -3.24031,-7.88578 1.51867,-7.8745 4.19172,0.01 8.12873,3.34644 11.63262,9.85835 4.46334,8.29502 8.64052,11.98489 14.767384,13.04461 l 2.24,0.38743 -2.88,0.91886 c -6.846474,2.18433 -12.096444,2.01193 -18.354594,-0.60271 -1.32522,-0.55368 -1.49735,-0.40508 -1.04241,0.89994 0.19635,0.56325 0.3595,2.4786 0.36255,4.25634 0.006,3.54945 0.53333,6.54989 1.57397,8.95754 0.81496,1.88548 0.67696,2.21715 -0.32167,0.77313 z M 48.60905,56.776328 c -3.946117,-1.30047 -4.902569,-2.99803 -5.15114,-9.142503 -0.117723,-2.910027 -0.352615,-4.688834 -0.781735,-5.919999 l -0.613444,-1.76 -2.504118,-0.287159 c -3.495012,-0.400788 -6.906338,0.123026 -11.278395,1.731814 -1.986431,0.730948 -4.496849,1.521477 -5.578708,1.756731 l -1.967015,0.427734 2.079999,0.01718 c 1.407271,0.01162 2.75273,-0.22421 4.16,-0.729167 1.144,-0.41049 3.16,-1.137051 4.48,-1.614579 5.184058,-1.875404 12.139105,-0.589472 9.472923,1.751467 -0.573326,0.503387 -1.207217,1.462164 -1.408646,2.130615 -0.938679,3.115054 -5.051152,5.440036 -10.944277,6.187336 -3.874476,0.49132 -5.529623,0.90876 -9.662641,2.43697 -9.7808301,3.61654 -12.8472461,1.92025 -16.4102601,-9.077866 -4.698855,-14.504165 -2.82767295,-25.412496 6.032868,-35.1695002 3.2350211,-3.562324 5.4096771,-3.806849 12.7154631,-1.429767 7.0178,2.2833802 15.005794,9.4828012 20.861447,18.8020092 0.778998,1.239767 0.816543,1.465404 0.532462,3.2 -0.409596,2.500985 -0.404233,2.531253 0.330661,1.866184 0.76519,-0.692488 0.800443,-0.375209 0.16,1.44 -0.538805,1.527136 -0.638646,3.52 -0.176349,3.52 0.167008,0 3.371008,-0.773122 7.12,-1.718048 9.355374,-2.358005 9.697038,-2.399353 10.10707,-1.223135 0.381145,1.093355 2.980431,4.587371 4.023291,5.408189 2.32213,1.827719 2.07258,12.435464 -0.3424,14.554294 -2.708225,2.37612 -11.627994,4.03718 -15.257056,2.8412 z m 0.603375,-2.1825 c -0.64058,-1.55601 -0.716465,-1.50958 3.423316,-2.09445 2.166314,-0.30606 5.162753,-0.70826 6.658753,-0.89378 3.214382,-0.39861 3.069007,-0.28515 3.346554,-2.611773 0.261068,-2.188517 0.0808,-2.250614 -1.538305,-0.529879 -2.250005,2.391242 -8.814365,3.602572 -11.966553,2.208212 -1.865918,-0.825386 -2.002599,-0.808846 -1.997039,0.24167 0.0041,0.78288 0.734995,3.30458 1.154459,3.98329 0.334185,0.54072 1.154769,0.26986 0.918815,-0.30329 z m -28.123229,-3.58658 c 4.394309,-1.05357 15.574856,-5.470532 15.085671,-5.959716 -0.534695,-0.534696 -18.92219,1.527729 -21.873316,2.45341 -2.002933,0.628261 -3.593235,3.277576 -2.28355,3.804206 1.302849,0.52389 6.332535,0.35871 9.071195,-0.2979 z m 26.558721,-10.6406 c 2.014489,-1.170726 10.953973,-2.170568 12.186472,-1.363003 0.777966,0.509743 1.011916,0.229992 0.356104,-0.425819 -0.671776,-0.671777 -8.73869,-0.304172 -13.295999,0.60589 l -1.68,0.335484 v 1.43835 c 0,2.352747 0.657221,3.200289 1.093295,1.409898 0.258715,-1.06221 0.598823,-1.569988 1.340128,-2.0008 z M 8.5823339,32.47617 c 5.1948251,-9.544606 18.7015231,-9.365103 27.3019991,0.362842 4.480334,5.067679 8.653655,8.248059 5.446632,4.150739 -2.197088,-2.80702 -4.845081,-5.318584 -8.104958,-7.687378 -3.624857,-2.634008 -6.35873,-5.161948 -12.624625,-11.673658 -1.98236,-2.060129 -3.206926,-3.040314 -4.64,-3.714018 -3.664524,-1.722732 -3.738501,-1.542513 -0.607974,1.48112 4.374738,4.225359 4.267754,5.004908 -1.200895,8.750458 -5.5226741,3.782551 -7.4723271,6.750173 -7.9013841,12.026916 -0.264939,3.258339 0.234867,3.528939 0.907256,0.491197 0.322541,-1.45719 0.963318,-3.341889 1.423949,-4.188218 z M 99.454496,47.477225 c -4.21418,-1.567389 -10.74427,-2.95809 -15.84,-3.373413 -1.32,-0.107585 -3.624,-0.41812 -5.12,-0.690077 -2.59985,-0.472626 -6.45445,-0.434846 -8.68851,0.08516 -0.69752,0.162356 -0.8909,0.06381 -1.08675,-0.553784 -0.13103,-0.413206 -0.58747,-1.304683 -1.0143,-1.98106 -1.25948,-1.995816 -0.89981,-2.266421 7.26956,-5.469355 2.552,-1.000553 5.08539,-2.080372 5.62976,-2.399598 0.54438,-0.319226 2.38616,-1.19282 4.09286,-1.941319 3.66541,-1.607526 3.70906,-1.767071 0.30683,-1.12168 -3.23083,0.612878 -7.46491,2.268477 -14.29646,5.590161 -6.15716,2.993775 -5.88752,2.982524 -6.89138,0.287544 -0.85304,-2.290101 -2.076176,-4.592537 -2.959311,-5.57064 C 59.38461,28.70867 73.232556,11.545776 80.276736,6.2704428 c 14.78672,-11.073665 21.802744,-7.960694 29.723994,13.1883832 4.154,11.090833 4.10791,26.979049 -0.0799,27.542587 -0.82848,0.111485 -2.24849,0.407386 -3.15557,0.657557 -2.2431,0.618636 -5.36765,0.54096 -7.310754,-0.181744 z m 6.252784,-3.39262 c 2.16411,-1.263913 1.35564,-2.70138 -2.39829,-4.264143 -4.391594,-1.828226 -6.637254,-1.904186 -13.934494,-0.471343 -2.2,0.43198 -5.656,1.051357 -7.68,1.376395 -2.02784,0.325655 -3.14305,0.608338 -2.484,0.629645 0.6578,0.02127 2.58156,0.398667 4.27503,0.838667 1.69347,0.44 3.69964,0.8 4.45815,0.8 0.75852,0 3.15475,0.349243 5.32497,0.776096 2.17022,0.426853 4.30585,0.847084 4.74585,0.933846 2.009364,0.396221 6.584744,0.02797 7.692784,-0.619163 z M 76.167826,41.840492 c -0.10633,-0.106333 -0.38233,-0.117701 -0.61333,-0.02526 -0.25528,0.102153 -0.17945,0.177979 0.19333,0.193333 0.33733,0.0139 0.52633,-0.06174 0.42,-0.16807 z m -9.792,-9.867334 c 0.94527,-0.429368 2.43867,-0.954612 3.31867,-1.16721 2.0101,-0.485618 1.94033,-0.394126 1.13314,-1.485911 -0.79604,-1.076696 -0.5606,-2.90302 0.65752,-5.100421 l 0.67951,-1.22579 -1.07509,1.146186 c -4.15317,4.427848 -6.67508,7.444001 -6.67508,7.983267 0,0.779861 -0.1035,0.787783 1.96133,-0.150121 z M 105.25627,25.793826 C 104.7214,19.484478 103.17254,16.8301 97.342156,12.230975 94.399136,9.9094558 93.082766,8.4624878 92.028486,6.3901578 l -0.6327,-1.243669 -0.20914,2.474112 c -0.37969,4.4917462 -1.17565,5.5529672 -9.03062,12.0401632 -6.05797,5.003103 -5.96499,5.005079 1.61847,0.0344 11.64065,-7.630023 16.04572,-6.5403 20.160004,4.987166 1.52133,4.262499 1.59408,4.32368 1.32177,1.111498 z"
     id="path1" />
</svg>
