<?xml version="1.0" encoding="UTF-8" standalone="no"?>
<!-- Created with Inkscape (http://www.inkscape.org/) -->

<svg
   version="1.1"
   id="svg1"
   width="66.671738"
   height="122.65543"
   viewBox="0 0 66.671739 122.65544"
   sodipodi:docname="Icon_sage.svg"
   inkscape:version="1.4.2 (ebf0e940d0, 2025-05-08)"
   xmlns:inkscape="http://www.inkscape.org/namespaces/inkscape"
   xmlns:sodipodi="http://sodipodi.sourceforge.net/DTD/sodipodi-0.dtd"
   xmlns="http://www.w3.org/2000/svg"
   xmlns:svg="http://www.w3.org/2000/svg">
  <defs
     id="defs1" />
  <sodipodi:namedview
     id="namedview1"
     pagecolor="#505050"
     bordercolor="#eeeeee"
     borderopacity="1"
     inkscape:showpageshadow="0"
     inkscape:pageopacity="0"
     inkscape:pagecheckerboard="0"
     inkscape:deskcolor="#505050"
     showgrid="false"
     inkscape:zoom="4.2301186"
     inkscape:cx="33.923399"
     inkscape:cy="65.246398"
     inkscape:window-width="1838"
     inkscape:window-height="1011"
     inkscape:window-x="40"
     inkscape:window-y="47"
     inkscape:window-maximized="1"
     inkscape:current-layer="svg1" />
  <path
     style="fill:#0163ab"
     d="m 0.101676,113.29543 c 0.05638,-5.19025 0.237484,-9.57133 0.406528,-9.83438 0.167668,-0.2609 0.323448,-0.7268 0.346177,-1.03533 0.07037,-0.95513 1.118363,-1.81083 2.342917,-1.913 1.41838,-0.11835 1.74591,-1.121206 0.688057,-2.106746 -1.793344,-1.67075 0.514926,-3.81776 5.184973,-4.82274 3.799351,-0.8176 3.705943,-0.76309 2.861128,-1.66989 -2.023611,-2.17209 -0.590222,-6.76404 1.889425,-6.05289 1.816407,0.52094 2.122152,0.41715 2.317519,-0.78676 0.162914,-1.00392 0.856466,-2.24028 2.135675,-3.80717 0.264431,-0.32389 0.503612,-1.04389 0.531514,-1.6 0.0279,-0.5561 0.220924,-4.15242 0.428939,-7.99182 l 0.378208,-6.98073 -1.141745,-1.659271 c -1.483402,-2.155793 -0.63442,-5.613999 1.510379,-6.152309 0.814721,-0.204482 1.510514,-3.235507 1.5029,-6.546962 l -0.0033,-1.44 -0.634101,1.04 c -1.01093,1.658045 -1.923507,1.2486 -1.923507,-0.863017 0,-0.48987 -0.302371,-1.275076 -0.671935,-1.744901 -0.917742,-1.166719 -1.111603,-2.973368 -0.481004,-4.482606 0.718204,-1.718903 0.637689,-3.021609 -0.278713,-4.509476 -0.999625,-1.622986 -1.015592,-2.569454 -0.05398,-3.199529 0.989057,-0.648055 1.444229,-4.32761 0.679682,-5.494458 -2.846013,-4.343564 9.386255,-8.766996 17.488517,-6.324197 0.877837,0.264665 1.004133,-1.640666 0.277238,-4.182484 -0.351895,-1.230512 -0.639808,-2.273753 -0.639808,-2.318313 0,-0.04456 0.36,-0.08102 0.8,-0.08102 0.672442,0 0.799999,0.150434 0.799999,0.943481 0,0.518914 0.363239,2.093335 0.807198,3.498713 l 0.807198,2.555232 1.1928,-0.171254 c 0.65605,-0.09419 2.71047,-0.876611 4.56539,-1.738714 3.46835,-1.611969 4.72398,-1.848602 6.28659,-1.184753 0.49545,0.210488 2.05283,0.462488 3.46083,0.56 l 2.56,0.177295 0.2068,2.56 c 0.11374,1.408 0.31391,2.896923 0.44483,3.308719 0.13092,0.411796 0.0617,2.427796 -0.15392,4.48 -0.26563,2.528783 -0.29776,4.48702 -0.0997,6.076298 0.42887,3.441079 -0.52291,7.869999 -1.55428,7.232573 -0.15606,-0.09645 -0.28374,-0.589487 -0.28374,-1.095642 0,-0.506156 -0.14935,-1.313106 -0.33189,-1.793224 -0.99005,-2.604017 -1.53143,2.404055 -1.94056,17.951277 -0.16211,6.16 -0.31392,11.776002 -0.33737,12.480002 -0.0412,1.23579 0.25603,4.36037 0.55515,5.83672 0.10936,0.53976 0.50102,0.80631 1.58635,1.0796 0.96305,0.2425 1.65689,0.66588 2.09149,1.27622 0.3577,0.50234 1.14551,1.14831 1.75071,1.43549 1.35122,0.6412 1.62421,1.52869 1.93044,6.2759 l 0.22086,3.42393 0.99741,0.21512 c 2.71857,0.58634 3.21734,1.12592 4.17395,4.51544 1.68625,5.974806 1.38229,6.416526 -4.45654,6.476256 -1.408,0.0144 -3.784,0.2418 -5.28,0.50532 -1.53745,0.27082 -4.64109,0.47931 -7.13871,0.47956 -2.43028,2.4e-4 -5.40896,0.15408 -6.61927,0.34187 -1.85508,0.28782 -2.80224,0.23758 -6.032824,-0.32 -4.609979,-0.79567 -10.042253,-0.8628 -13.649198,-0.16868 -1.429556,0.27511 -3.778124,0.45514 -5.318559,0.40771 -2.550746,-0.0785 -2.853041,-0.0195 -4.012729,0.7842 -0.714569,0.4952 -1.926616,0.96131 -2.817109,1.08336 -1.153174,0.15806 -1.886468,0.50652 -2.79695,1.32908 l -1.234011,1.11486 0.08481,3.90174 c 0.07475,3.43888 0.01456,3.97199 -0.507342,4.4939 -0.484766,0.48476 -0.556802,0.89293 -0.39722,2.25073 0.28692,2.44122 -0.668643,3.34167 -3.546202,3.34167 H 0 Z m 0.483433,5.60609 c -0.08113,-0.31135 -0.152851,-0.13409 -0.159373,0.39391 -0.0065,0.528 0.05986,0.78274 0.147516,0.56609 0.08766,-0.21665 0.09299,-0.64865 0.01186,-0.96 z m 3.883112,0.63391 c 0.545783,-1.06351 0.687919,-3.20141 0.337573,-5.07752 -0.905055,-4.8466 0.495446,-10.58794 2.491406,-10.21349 1.013827,0.19019 2.986152,-0.56 2.986152,-1.13582 0,-1.38943 -7.573993,-1.43912 -8.429241,-0.0553 -0.720174,1.16526 -0.550322,2.84279 0.437903,4.32491 1.08133,1.62176 1.265874,2.90788 0.685223,4.77545 -0.565574,1.81908 -0.818044,6.92659 -0.369128,7.4675 0.533916,0.64333 1.50903,0.59838 1.860112,-0.0857 z m -3.252939,-6.24 c -0.08877,-0.22 -0.161403,-0.04 -0.161403,0.4 0,0.44 0.07263,0.62 0.161403,0.4 0.08877,-0.22 0.08877,-0.58 0,-0.8 z m 0.329827,-1.75391 c -0.08113,-0.31135 -0.152852,-0.13409 -0.159373,0.39391 -0.0065,0.528 0.05986,0.78274 0.147516,0.56609 0.08766,-0.21665 0.09299,-0.64865 0.01186,-0.96 z m 46.578245,-9.56898 c 4.78382,-0.18344 8.95662,-1.07711 5.02936,-1.07711 -1.03015,0 -3.76177,-1.522926 -3.98324,-2.220726 -0.19917,-0.62751 -0.21539,-0.62702 -1.60622,0.0487 -1.27814,0.62097 -1.55832,0.64725 -3.10246,0.29104 -1.47789,-0.34093 -1.96647,-0.31346 -3.77744,0.21237 -1.86949,0.54283 -2.241936,0.5592 -3.680003,0.16177 -1.116718,-0.30862 -2.526557,-0.38614 -4.667555,-0.25663 -1.695773,0.10258 -4.086301,0.0275 -5.345656,-0.1679 -2.028731,-0.31477 -2.481082,-0.28246 -4.132444,0.29521 -1.019889,0.35678 -2.142344,0.69284 -2.494344,0.746806 -0.77681,0.1191 -0.837544,0.855 -0.108517,1.31486 0.382092,0.24101 1.115724,0.19339 2.610005,-0.16942 1.44903,-0.35182 2.50145,-0.42565 3.474995,-0.24377 0.768061,0.14349 3.193559,0.43192 5.389996,0.64096 2.196436,0.20904 5.14552,0.49138 6.55352,0.62742 1.408003,0.13604 2.920003,0.1949 3.360003,0.13079 0.44,-0.0641 3.356,-0.21457 6.48,-0.33437 z m -35.249166,-0.64682 c 0.59904,-0.29134 1.988579,-1.28901 3.087865,-2.217036 2.352468,-1.986 4.281274,-2.54421 7.699631,-2.22834 1.177917,0.10884 2.861668,0.21751 3.741668,0.24149 2.082663,0.0567 11.4976,-0.8759 12.004472,-1.18917 1.26905,-0.78431 7.65691,-0.19411 10.67275,0.98609 1.20349,0.47097 -0.0816,-1.11965 -1.32876,-1.64472 -1.29136,-0.54366 -0.97466,-1.17867 0.81154,-1.62719 1.09273,-0.27439 0.86579,-0.68749 -0.59354,-1.08044 -1.62118,-0.43654 -2.2262,-0.232 -2.1246,0.71827 0.0696,0.65083 -0.0444,0.72107 -1.04186,0.64223 -1.35949,-0.10746 -1.04686,-0.10997 -9.920002,0.0799 -3.96,0.0847 -9.242985,0.30134 -11.739965,0.48135 -2.496981,0.18002 -6.156324,0.32731 -8.131875,0.32731 -2.198844,0 -4.223351,0.18169 -5.220034,0.46848 -0.895469,0.25767 -2.029023,0.54964 -2.519009,0.64883 -0.963982,0.19514 -1.719385,1.39317 -1.401227,2.22228 0.250458,0.65268 2.476619,0.66965 3.716803,0.0283 1.534162,-0.79334 1.860939,0.93844 0.427713,2.266706 -1.374794,1.27411 -0.148714,1.85183 1.85843,0.87567 z m 14.63432,-9.735306 c 2.189587,-0.5052 3.317324,-0.57768 6.32,-0.40619 3.62882,0.20726 4.501685,-0.0216 3.094843,-0.81137 -0.612266,-0.34373 -0.69097,-0.28192 1.066611,-0.83759 0.753099,-0.2381 0.371724,-0.92066 -0.692759,-1.23986 -2.314386,-0.69399 -2.303003,-0.66698 -0.681505,-1.61724 1.642673,-0.96267 1.942559,-1.82571 0.867653,-2.497 -1.07003,-0.66824 0.946942,-2.16573 2.917033,-2.16573 1.85122,0 2.19777,-2.45474 0.60297,-4.27111 -1.06865,-1.21713 -1.19395,-1.85637 -0.48,-2.44889 0.264,-0.2191 0.48095,-0.84874 0.48211,-1.39918 10e-4,-0.55045 0.28821,-1.43282 0.63789,-1.96082 0.77395,-1.16863 0.79923,-1.693661 0.11779,-2.446639 -0.69916,-0.772564 -0.19699,-1.99367 1.50223,-3.652912 1.42747,-1.393895 1.55239,-2.152774 0.6466,-3.928263 -0.5286,-1.036148 -0.58856,-1.652586 -0.43385,-4.460255 0.14641,-2.657013 0.075,-3.53176 -0.38742,-4.742465 -0.42327,-1.108301 -0.52381,-2.021961 -0.39673,-3.605163 0.0936,-1.16635 0.0285,-2.385441 -0.1447,-2.709091 -0.22878,-0.427482 -0.18108,-0.736359 0.17438,-1.129142 0.32226,-0.356091 0.39154,-0.698908 0.20291,-1.004113 -0.37111,-0.600462 -0.54731,-0.398317 -1.29177,1.481924 l -0.61611,1.556117 0.0569,-2.304523 c 0.0457,-1.848745 -0.0604,-2.43416 -0.53626,-2.96 -0.87102,-0.962467 -1.05012,-0.828703 -1.297361,0.968939 l -0.223414,1.624416 -0.700824,-0.65839 c -0.385453,-0.362115 -1.27043,-0.854218 -1.966614,-1.093563 -1.152746,-0.396309 -1.292013,-0.568317 -1.559421,-1.926026 -0.212466,-1.078747 -0.444887,-1.490853 -0.840818,-1.490853 -0.300952,0 -0.731889,-0.222553 -0.957637,-0.494563 -0.225747,-0.272009 -0.603379,-0.420529 -0.839182,-0.330043 -0.235802,0.09049 -0.441109,-0.01096 -0.456236,-0.225437 -0.01513,-0.214476 -0.148728,0.01372 -0.29689,0.50711 -0.337787,1.124852 -0.468345,5.328054 -0.414451,13.342933 0.02308,3.432 -0.07489,8.544 -0.217704,11.36 -0.487459,9.611602 -0.41206,12.906402 0.31655,13.832682 0.757235,0.96267 0.843376,2.85455 0.173518,3.81091 -0.427615,0.61051 -0.402598,0.6951 0.300254,1.01534 1.14079,0.51978 1.496135,1.38313 0.955441,2.32133 -0.247152,0.42886 -0.616108,1.18775 -0.819902,1.68644 -0.288868,0.70686 -0.520277,0.86651 -1.049924,0.72437 -0.373663,-0.10028 -1.090794,-0.1843 -1.593624,-0.1867 -0.703911,-0.003 -0.869247,-0.12161 -0.718679,-0.51399 0.130281,-0.3395 -0.01749,-0.56532 -0.442695,-0.67652 -0.483366,-0.1264 -0.593152,-0.34659 -0.452408,-0.90736 0.324642,-1.29348 -7.463984,-2.20926 -8.470898,-0.996 -1.315281,1.58481 -0.713798,3.16413 1.408594,3.69855 2.368342,0.59636 1.648761,0.75806 -2.809677,0.6314 l -4.24,-0.12045 -0.106238,0.75038 c -0.241957,1.709 0.834755,2.91356 2.986238,3.34081 2.010659,0.39929 8.823355,0.13642 11.305156,-0.43621 z m 20.095076,-6.54554 c -0.0991,-0.25819 -0.32558,-0.46944 -0.50333,-0.46944 -0.20282,0 -0.18127,0.31146 0.0579,0.83629 0.38288,0.84034 0.78244,0.5113 0.44547,-0.36685 z m -15.633831,-1.10383 c -0.155294,-0.82083 -1.713941,-0.78291 -2.301523,0.056 -0.47732,0.68147 -0.476048,0.76807 0.01658,1.12829 0.667485,0.48808 2.428649,-0.42472 2.284948,-1.18427 z m 25.993601,0.66251 c 0,-0.16053 -0.57444,-0.38892 -1.27652,-0.50754 -1.16182,-0.19628 -1.24527,-0.27405 -0.92876,-0.86546 0.51281,-0.95821 -0.14175,-1.43356 -2.71719,-1.97325 -2.66134,-0.55769 -2.80425,-0.75032 -2.21907,-2.99121 0.56788,-2.17464 0.35848,-2.48882 -0.51614,-0.77442 -1.26703,2.48359 -0.98097,3.35346 1.33768,4.06769 1.85563,0.5716 1.99353,0.67845 1.91035,1.48033 -0.0943,0.90893 0.78156,1.34705 3.28965,1.64558 0.528,0.0628 0.996,0.13584 1.04,0.16221 0.044,0.0264 0.08,-0.0834 0.08,-0.24393 z m -30.258841,-2.73795 c -0.812669,-0.61467 -1.287987,-0.62086 -0.781161,-0.0102 0.2191,0.264 0.624255,0.48 0.900344,0.48 0.401854,0 0.378082,-0.0937 -0.119183,-0.46983 z m -1.421161,-2.43121 c 0,-0.8458 0.499636,-1.78933 1.646928,-3.1101 l 0.913072,-1.05113 V 66.94765 58.622139 l -0.966755,-0.337012 c -1.888088,-0.658191 -1.779267,-2.961253 0.182147,-3.854933 0.928477,-0.423043 1.074589,-1.839067 0.272523,-2.641132 -0.43856,-0.438561 -0.495992,-1.289369 -0.4,-5.925746 l 0.112085,-5.413662 -0.951793,0.556032 c -0.556707,0.325225 -1.072031,0.975281 -1.241458,1.566037 -0.198357,0.691631 -0.579209,1.110941 -1.208208,1.330211 -0.76502,0.266688 -0.918541,0.499483 -0.918541,1.392852 0,0.589955 -0.133107,1.209446 -0.295794,1.376646 -0.181204,0.186232 -0.122941,2.473406 0.150398,5.904 0.245404,3.08 0.450511,5.78 0.455793,6 0.0053,0.22 -0.274833,0.4 -0.622477,0.4 -0.530521,0 -0.586324,0.120347 -0.347304,0.749015 0.885983,2.330312 0.395015,4.951858 -0.978853,5.226632 -1.253677,0.250735 -1.01639,0.807515 0.560772,1.315816 l 1.276692,0.411463 0.07033,1.828537 c 0.03868,1.005695 0.104769,3.196539 0.146858,4.868539 0.05121,2.03422 0.244801,3.35761 0.585145,4 0.279741,0.528 0.603572,1.356 0.719625,1.84 0.246449,1.02782 0.838812,1.18245 0.838812,0.21896 z m 4.16,-0.17504 c 0,-0.70881 -1.110046,-1.76905 -1.639459,-1.5659 -0.394272,0.1513 -1.246261,1.42773 -1.239522,1.85703 5.61e-4,0.0357 0.648561,0.0688 1.44,0.0734 0.887192,0.005 1.438981,-0.13457 1.438981,-0.36455 z m 18.391782,-5.22803 c 0.53793,-1.04024 0.63712,-2.12609 0.21789,-2.38519 -0.14868,-0.0919 -0.21022,-5.032389 -0.13676,-10.978887 0.1745,-14.126115 0.18336,-13.890485 -0.60127,-15.987606 -0.57489,-1.536543 -0.63827,-2.145518 -0.42412,-4.075346 0.32127,-2.895237 0.32143,-4.421861 8.8e-4,-8.226002 -0.33235,-3.944 -0.14377,-4.76286 1.09686,-4.76286 0.51319,0 1.28261,-0.132895 1.70983,-0.295321 2.39353,-0.910019 3.32037,1.497044 3.03625,7.885336 l -0.14988,3.370109 1.05547,1.055472 c 1.44318,1.44318 1.7218,0.577036 0.75905,-2.359621 -0.69262,-2.1127 -0.69509,-2.193413 -0.19874,-6.49489 0.67534,-5.852648 0.12175,-7.770254 -2.53624,-8.78535 -2.05458,-0.784649 -2.94086,-0.704705 -4.781,0.431255 -1.78798,1.103759 -3.45095,1.439727 -9.980654,2.016375 -3.125823,0.276047 -4.487078,0.279856 -5.247751,0.01468 -1.857017,-0.64736 -7.362366,-0.469511 -7.548918,0.243866 -0.119575,0.457254 -0.536146,0.638309 -1.733284,0.753338 -2.665264,0.256098 -3.650758,1.826141 -2.024358,3.225112 l 0.825037,0.709666 -0.688263,0.874984 c -0.378544,0.481242 -0.589249,0.874984 -0.468234,0.874984 0.121016,0 -0.02278,0.370575 -0.319547,0.823498 -0.325476,0.496739 -0.504784,1.305384 -0.451891,2.037945 0.05848,0.809906 -0.09383,1.395961 -0.457227,1.759359 -0.716227,0.716228 -0.692765,1.866201 0.05182,2.540044 0.612126,0.553967 0.574227,1.382171 -0.192158,4.199154 -0.318082,1.16917 -0.153341,2.800269 0.257202,2.54654 0.164021,-0.101371 0.298221,-0.47805 0.298221,-0.837064 0,-0.359014 0.209561,-1.106516 0.465691,-1.661115 0.25613,-0.554598 0.523774,-2.304361 0.594763,-3.888361 0.28422,-6.341865 2.684087,-12.368701 3.099546,-7.783954 0.265569,2.930658 1.623764,3.69793 3.201196,1.808421 1.764184,-2.113208 1.90028,-1.547022 1.759316,7.3191 -0.0694,4.365038 -0.03992,7.576433 0.0655,7.136433 l 0.191687,-0.8 0.21273,0.8 c 0.118436,0.445394 0.31631,-1.23179 0.446407,-3.783764 0.364828,-7.156436 0.671443,-8.344869 3.069224,-11.896236 0.653566,-0.968 1.257103,-1.967102 1.341195,-2.220228 0.218436,-0.657518 3.056122,-0.714347 4.323299,-0.08658 0.959721,0.475453 1.106601,0.457533 2.920011,-0.356278 2.27282,-1.019982 2.81832,-1.059821 3.25817,-0.237951 0.53147,0.993065 0.39936,1.478969 -0.78874,2.901037 -0.91822,1.099041 -1.12,1.601953 -1.12,2.791492 0,1.208749 0.18695,1.657872 1.12,2.690646 1.3141,1.454559 1.32163,1.508124 0.45158,3.213568 -0.66242,1.29845 -0.66287,1.317722 -0.0502,2.147252 1.03851,1.40609 1.19331,3.067459 0.32353,3.472105 -0.77238,0.359333 -0.81407,0.321799 1.16049,1.044784 l 0.9254,0.338836 -0.2854,2.150658 c -0.15697,1.182863 -0.2854,5.9685 -0.2854,10.63475 0,8.312669 -0.0145,8.502662 -0.72,9.403155 -0.396,0.505485 -0.71657,1.151643 -0.71237,1.43591 0.0489,3.30707 2.50743,5.48959 3.66415,3.25274 z m 5.20085,-45.455494 c -0.22392,-1.669511 -0.93429,-2.465604 -2.60345,-2.917658 l -1.30918,-0.354561 1.12,-0.364089 c 0.8805,-0.286235 1.14204,-0.55632 1.22308,-1.263061 0.26807,-2.337691 2.29886,0.698111 2.29202,3.426294 -0.006,2.423909 -0.46848,3.366706 -0.72247,1.473075 z M 29.803352,56.415432 c 0,-1.061692 -0.107896,-1.28 -0.632623,-1.28 -0.540466,0 -1.924534,1.489159 -1.570724,1.689986 0.06784,0.03851 0.411347,0.241546 0.763347,0.451195 1.137083,0.677243 1.44,0.496086 1.44,-0.861181 z m -8.74807,-10 c -0.08877,-0.22 -0.161404,-0.04 -0.161404,0.4 0,0.44 0.07263,0.62 0.161404,0.4 0.08877,-0.22 0.08877,-0.58 0,-0.8 z m 1.286666,-10.86 c -0.102152,-0.255274 -0.177978,-0.179448 -0.193333,0.193334 -0.01389,0.337333 0.06174,0.526333 0.16807,0.42 0.106334,-0.106334 0.117702,-0.382334 0.02526,-0.613334 z M 38.28013,18.650221 c -0.102341,-0.165592 0.144516,-0.748227 0.548573,-1.294742 1.329751,-1.798581 1.071511,-5.039237 -0.625352,-7.8476412 -0.748,-1.237983 -1.371746,-2.602221 -1.386103,-3.031641 -0.02493,-0.745662 -0.04512,-0.737523 -0.448999,0.181013 -0.232593,0.528977 -0.940846,1.731447 -1.573897,2.672156 -1.185666,1.7618932 -1.403151,2.8169942 -0.809359,3.9265052 0.310283,0.579769 0.415568,0.490014 1.147026,-0.977832 1.285046,-2.5787512 3.094808,-1.019135 2.484305,2.140923 l -0.292973,1.516471 h -1.520518 c -1.651543,0 -1.700066,0.05355 -1.1475,1.266295 0.789923,1.733694 -1.427013,0.971024 -2.574523,-0.885687 -2.032475,-3.288612 -1.633513,-5.896157 1.409465,-9.2120342 2.253973,-2.456113 2.784361,-3.725355 2.514032,-6.016187 -0.215613,-1.82715296 0.281881,-1.27781896 0.984977,1.087613 0.261569,0.88 1.071462,2.608 1.799762,3.84 3.070448,5.1939932 3.293908,11.2879672 0.461248,12.5786122 -0.478009,0.217795 -0.856725,0.239724 -0.970164,0.05618 z"
     id="path1" />
</svg>
