<?xml version="1.0" encoding="UTF-8" standalone="no"?>
<!-- Created with Inkscape (http://www.inkscape.org/) -->

<svg
   version="1.1"
   id="svg1"
   width="85.546539"
   height="114.74711"
   viewBox="0 0 85.546542 114.74711"
   sodipodi:docname="Icon_philosopher.svg"
   inkscape:version="1.4.2 (ebf0e940d0, 2025-05-08)"
   xmlns:inkscape="http://www.inkscape.org/namespaces/inkscape"
   xmlns:sodipodi="http://sodipodi.sourceforge.net/DTD/sodipodi-0.dtd"
   xmlns="http://www.w3.org/2000/svg"
   xmlns:svg="http://www.w3.org/2000/svg">
  <defs
     id="defs1" />
  <sodipodi:namedview
     id="namedview1"
     pagecolor="#505050"
     bordercolor="#eeeeee"
     borderopacity="1"
     inkscape:showpageshadow="0"
     inkscape:pageopacity="0"
     inkscape:pagecheckerboard="0"
     inkscape:deskcolor="#505050"
     showgrid="false"
     inkscape:zoom="4.2301186"
     inkscape:cx="45.270599"
     inkscape:cy="55.317599"
     inkscape:window-width="1838"
     inkscape:window-height="1011"
     inkscape:window-x="40"
     inkscape:window-y="47"
     inkscape:window-maximized="1"
     inkscape:current-layer="svg1" />
  <path
     style="fill:#015fa9"
     d="M 15.091493,114.31524 C 8.0608483,111.98925 3.0541373,103.80073 0.87509727,91.064209 c -1.812307,-10.59297 -1.326669,-11.63446 6.47917903,-13.89499 11.4356727,-3.31172 22.2491557,-0.80794 22.3056357,5.16471 0.02248,2.37685 4.310806,-7.38502 7.387121,-16.8159 C 41.920446,50.577883 43.13217,47.093831 45.755018,40.480094 60.690605,2.8187117 64.872935,-2.1691173 79.141765,0.66311767 c 9.48254,1.88219803 8.0021,7.61496703 -1.58348,6.13180603 -10.66227,-1.649755 -12.98394,2.406139 -31.75163,55.4692853 -11.024095,31.16915 -17.465001,47.048501 -20.18814,49.771641 -2.309078,2.30908 -7.22191,3.37284 -10.527022,2.27939 z m 1.871777,-11.62948 c 0.114523,-0.11452 0.208223,0.524 0.208223,1.41894 0,0.89494 0.08741,1.85494 0.194237,2.13333 0.298944,0.77904 0.765763,0.59992 0.765763,-0.29382 0,-0.44 0.144,-0.8 0.32,-0.8 0.176,0 0.322205,0.396 0.3249,0.88 0.0033,0.60024 0.09048,0.74501 0.274091,0.45539 0.2572,-0.40569 -0.06529,-2.97074 -0.452206,-3.59678 -0.101505,-0.16424 0.03488,-0.29861 0.303071,-0.29861 0.698302,0 1.149381,1.02278 1.155044,2.61896 0.0033,0.93449 0.09721,1.23522 0.290394,0.93006 0.157021,-0.24804 0.207682,-0.65376 0.112579,-0.90159 -0.0951,-0.24784 -0.01365,-0.76489 0.18101,-1.14902 0.194658,-0.38413 0.405585,-1.27441 0.468728,-1.97841 0.06477,-0.7221 0.13825,-0.2688 0.168596,1.04 0.06887,2.97012 0.994235,2.99411 1.009424,0.0262 0.0054,-1.04977 0.299567,-1.86617 0.672484,-1.86617 0.153803,0 0.19173,0.684 0.08428,1.52 -0.127106,0.98895 -0.08644,1.4082 0.116393,1.2 0.387183,-0.39743 1.053907,-8.843181 0.827313,-10.480001 -0.137936,-0.99639 -0.07023,-1.2 0.399018,-1.2 0.523957,0 0.552789,0.37895 0.395645,5.2 -0.09322,2.860001 -0.06082,4.768001 0.07201,4.240001 0.132828,-0.528 0.260747,-3.120001 0.284265,-5.760001 0.02352,-2.64 0.163914,-4.9911 0.311989,-5.22467 0.387243,-0.61081 0.672211,1.43751 0.68235,4.90467 0.0059,2.02556 0.103155,2.73759 0.327733,2.4 0.394567,-0.59313 0.331955,-8.90921 -0.06894,-9.15698 -0.158572,-0.098 -0.620927,0.0397 -1.027457,0.30612 -0.406529,0.26637 -1.300196,0.57737 -1.985927,0.69112 l -1.246784,0.20682 1.136979,-1.06354 c 0.625339,-0.58495 1.813339,-1.66713 2.64,-2.40484 1.483724,-1.32408 2.33019,-4.02739 1.103021,-3.52266 -5.118643,2.10532 -7.418125,2.91592 -9.597214,3.38316 -2.459338,0.52734 -2.649814,0.62617 -2.744041,1.42374 -0.115228,0.97533 -1.018745,1.19105 -1.018745,0.24323 0,-2.44837 -1.535469,-2.25106 -1.66403,0.21383 -0.126675,2.42871 -0.664172,2.34445 -1.020625,-0.16 -0.371089,-2.60729 -0.835345,-2.56283 -0.835345,0.08 0,2.61546 -0.5364117,2.71469 -0.8262527,0.15284 -0.212635,-1.87945 -0.624106,-2.69886 -0.930554,-1.85313 -0.08376,0.23116 0.0361,1.31664 0.266362,2.41218 0.47237,2.2475 0.294356,2.64811 -1.176709,2.64811 h -0.939155 l 0.88939,0.69959 c 0.821533,0.64622 0.843137,0.71775 0.283155,0.93751 -0.587715,0.23065 -0.587259,0.2386 0.01493,0.26041 0.614882,0.0223 0.614882,0.0272 0,0.49231 -0.556156,0.42065 -0.563195,0.47089 -0.06726,0.48 0.557586,0.0102 0.646591,0.23774 1.120986,2.86524 0.380286,2.10627 1.072386,2.10983 0.823009,0.004 -0.371394,-3.13584 0.6412077,-1.74527 1.1821007,1.62333 0.264,1.644161 0.637313,3.040611 0.829584,3.103231 0.24404,0.0795 0.217877,-0.77583 -0.08666,-2.833001 -0.352009,-2.37786 -0.357721,-2.99576 -0.02958,-3.20009 0.404557,-0.25193 0.74967,1.56271 1.396596,7.343441 0.145247,1.29788 0.335852,1.906 0.534989,1.70686 0.199137,-0.19914 0.163671,-1.28856 -0.09955,-3.05779 -0.362483,-2.436441 -0.303571,-3.490141 0.168727,-3.017841 0.08476,0.0848 0.283926,0.936761 0.442591,1.893331 0.193825,1.16855 0.304097,1.42423 0.336069,0.77923 0.07795,-1.57259 0.871561,-0.17661 1.144353,2.01295 0.374713,3.00762 0.90809,3.51972 1.147711,1.10194 0.109296,-1.10281 0.292421,-2.09881 0.406944,-2.21334 z m -5.005453,0.78218 c -0.07654,-0.39805 -0.142073,-0.14773 -0.145625,0.55627 -0.0036,0.704 0.05907,1.02968 0.139167,0.72373 0.08009,-0.30595 0.083,-0.88195 0.0065,-1.28 z m 2.545606,-0.004 c -0.08877,-0.22 -0.161403,-0.04 -0.161403,0.4 0,0.44 0.07263,0.62 0.161403,0.4 0.08877,-0.22 0.08877,-0.58 0,-0.8 z m -4.37683,-3.05889 c 0.0027,-0.412021 -0.1366587,-0.651401 -0.3150997,-0.541111 -0.176,0.10877 -0.317794,0.657271 -0.315099,1.218881 0.0037,0.77698 0.07906,0.90636 0.315099,0.54112 0.17061,-0.264 0.3124047,-0.8125 0.3150997,-1.21889 z M 7.6807923,96.093489 c -0.105036,-0.64727 -0.303079,-1.10756 -0.440095,-1.02288 -0.227634,0.14068 -0.151614,0.89035 0.206781,2.03913 0.264615,0.84818 0.423538,0.15596 0.233314,-1.01625 z m -0.114199,-7.82928 c -0.0057,-1.40113 -0.236986,-1.8308 -1.115099,-2.07177 -0.352,-0.0966 -0.928,-0.27313 -1.28,-0.3923 -0.352,-0.11917 -0.226327,0.0223 0.279274,0.3145 0.851654,0.49209 0.905066,0.63482 0.726122,1.94036 -0.183506,1.33883 -0.153504,1.40921 0.600725,1.40921 0.704909,0 0.793329,-0.13449 0.788978,-1.2 z m 19.7344767,0.0229 c -0.428536,-0.42854 -0.862858,0.29553 -0.465116,0.77541 0.374379,0.45168 0.426265,0.44638 0.523826,-0.0535 0.05956,-0.30518 0.03314,-0.63002 -0.05871,-0.72187 z m -24.5295757,-2.6818 c 0,-0.16561 -0.144,-0.30111 -0.32,-0.30111 -0.176,0 -0.32,0.2245 -0.32,0.49888 0,0.27439 0.144,0.40989 0.32,0.30112 0.176,-0.10878 0.32,-0.33328 0.32,-0.49889 z m 12.1968447,-1.21214 c 0.419735,-0.32506 1.330882,-0.68051 2.02477,-0.78988 0.693889,-0.10937 1.389512,-0.42739 1.545829,-0.70671 0.156317,-0.27933 0.66859,-0.65464 1.138384,-0.83403 0.952013,-0.36352 0.374249,-1.11529 -1.065829,-1.38682 -6.215334,-1.17191 -12.0520427,-0.55335 -12.2683147,1.30017 -0.05957,0.51056 -0.257205,1.1083 -0.439182,1.3283 -0.228006,0.27564 -0.227493,0.4 0.0016,0.4 0.182883,0 0.382766,-0.15076 0.444184,-0.33501 0.07224,-0.21671 0.527322,-0.16134 1.28878,0.15682 0.647411,0.27051 1.426159,0.39626 1.730552,0.27945 0.44449,-0.17056 0.507603,-0.0912 0.320595,0.40318 -0.218216,0.57688 -0.198717,0.5818 0.3103287,0.0782 0.494024,-0.48869 0.611562,-0.4925 1.298894,-0.0421 0.530969,0.3479 0.874201,0.39714 1.154116,0.16556 0.219119,-0.18128 0.796722,-0.30631 1.283561,-0.27785 0.789749,0.0462 0.826273,0.0949 0.338839,0.45175 -0.300479,0.22 -0.394222,0.4 -0.208318,0.4 0.185904,0 0.681426,-0.26597 1.101162,-0.59103 z m 18.004659,-1.51326 c 0.04778,-1.47601 -0.543085,-1.75557 -1.062109,-0.50254 -0.309404,0.74697 -0.303684,1.0727 0.02817,1.60408 0.546703,0.87541 0.985067,0.40838 1.033941,-1.10154 z M 4.6553543,82.627739 c 0.28946,-0.34878 0.216978,-0.42126 -0.360818,-0.36084 -0.946226,0.099 -0.953785,0.10395 -0.723042,0.4773 0.272819,0.44143 0.65493,0.40037 1.08386,-0.11646 z m 22.5196987,-3.16599 c -0.793781,-0.88028 -5.270151,-2.15826 -7.540079,-2.15265 -3.354755,0.008 -3.118173,0.53341 0.314791,0.69872 3.492782,0.16819 5.248758,0.87016 6.377389,2.54944 l 0.594114,0.88397 0.38048,-0.70852 c 0.309437,-0.57622 0.285781,-0.81353 -0.126695,-1.27096 z m 6.63644,1.04245 c 0,-0.367 0.213333,-0.64 0.500114,-0.64 0.309053,0 0.461875,-0.22573 0.400019,-0.59084 -0.05505,-0.32497 0.05515,-0.79297 0.244898,-1.04 0.189747,-0.24704 1.156224,-2.75316 2.147727,-5.56916 0.991503,-2.816 3.107464,-8.78235 4.702136,-13.258556 1.594672,-4.476204 2.847548,-8.292203 2.784168,-8.479999 -0.06338,-0.187796 0.05476,-0.485447 0.262527,-0.661447 0.20777,-0.176 0.853527,-1.688 1.435017,-3.36 1.69664,-4.878473 10.150326,-23.04 10.724486,-23.04 0.20738,0 0.54788,-0.756 0.75665,-1.68 2.10269,-9.306169 10.17891,-18.6428133 16.12226,-18.6383933 2.44019,0.0018 2.55186,-0.138974 1.19022,-1.500611 l -0.96977,-0.969774 -2.08233,0.392907 c -1.14528,0.216099 -2.54488,0.699575 -3.11023,1.07439 -0.56534,0.374815 -1.44721,0.897482 -1.9597,1.161482 -4.16965,2.1479 -9.02452,9.6914313 -13.13244,20.4052803 -2.27891,5.943624 -9.38471,25.060694 -9.781156,26.314719 -0.139101,0.44 -2.28279,6.247907 -4.763754,12.906462 -2.480963,6.65855 -4.510842,12.35855 -4.510842,12.66667 0,0.30811 -0.108,0.6682 -0.24,0.8002 -0.132,0.132 -0.252235,0.336 -0.267189,0.45333 -0.01495,0.11734 -0.335792,0.86134 -0.712972,1.65334 -0.81501,1.71135 -0.866893,2.24 -0.219839,2.24 0.266667,0 0.48,-0.28445 0.48,-0.64 z m 10.178199,-16.48847 c -0.09852,-0.0985 -0.277456,0.0791 -0.397626,0.39467 -0.173659,0.45606 -0.136902,0.49282 0.179135,0.17913 0.218694,-0.21707 0.317014,-0.47528 0.218491,-0.5738 z"
     id="path1" />
</svg>
