<?xml version="1.0" encoding="UTF-8" standalone="no"?>
<!-- Created with Inkscape (http://www.inkscape.org/) -->

<svg
   version="1.1"
   id="svg1"
   width="96.108116"
   height="114.86118"
   viewBox="0 0 96.108119 114.86119"
   sodipodi:docname="Icon_fanggu.svg"
   inkscape:version="1.4.2 (ebf0e940d0, 2025-05-08)"
   xmlns:inkscape="http://www.inkscape.org/namespaces/inkscape"
   xmlns:sodipodi="http://sodipodi.sourceforge.net/DTD/sodipodi-0.dtd"
   xmlns="http://www.w3.org/2000/svg"
   xmlns:svg="http://www.w3.org/2000/svg">
  <defs
     id="defs1" />
  <sodipodi:namedview
     id="namedview1"
     pagecolor="#505050"
     bordercolor="#eeeeee"
     borderopacity="1"
     inkscape:showpageshadow="0"
     inkscape:pageopacity="0"
     inkscape:pagecheckerboard="0"
     inkscape:deskcolor="#505050"
     showgrid="false"
     inkscape:zoom="4.2301186"
     inkscape:cx="51.180599"
     inkscape:cy="56.499599"
     inkscape:window-width="1838"
     inkscape:window-height="1011"
     inkscape:window-x="40"
     inkscape:window-y="47"
     inkscape:window-maximized="1"
     inkscape:current-layer="svg1" />
  <path
     style="fill:#9b181c"
     d="m 51.927533,113.82513 c -0.293123,-0.70154 -0.458856,-2.3563 -0.472734,-4.72 -0.08814,-15.011224 -0.72631,-17.338424 -5.554993,-20.257194 l -2.928252,-1.77003 -5.76,-0.50298 c -3.214198,-0.28067 -6.224457,-0.70773 -6.810857,-0.96625 -0.577971,-0.25481 -1.277939,-0.46328 -1.555485,-0.46328 -0.277546,0 -1.748661,-0.49894 -3.269143,-1.10875 -3.606155,-1.4463 -7.592287,-2.51382 -8.518566,-2.28134 -0.549241,0.13785 -0.866282,-0.0143 -1.250047,-0.60003 -0.282794,-0.4316 -1.665203,-1.74822 -3.072021,-2.92583 -2.01871,-1.6898 -2.7562241,-2.55243 -3.4990041,-4.09257 -0.517635,-1.07332 -1.666488,-3.46348 -2.553006,-5.31148 -0.886518,-1.848 -2.120355,-4.05973 -2.741861,-4.91494 -1.925546,-2.649637 -1.121254,-2.933781 1.909991,-0.67478 0.528,0.39349 1.32,0.81914 1.76,0.9459 0.44,0.12675 1.124,0.43146 1.52,0.67714 0.396,0.24567 1.1160001,0.69413 1.6000001,0.99657 0.484,0.30245 -0.143009,-0.53989 -1.3933541,-1.87185 C -7.1957261,46.370196 -0.94110014,15.901413 21.531554,4.5847404 c 21.337344,-10.74496 47.069312,-1.847084 54.370032,18.8006536 0.46673,1.32 0.91838,2.596914 1.00366,2.837587 0.11073,0.312464 0.34346,0.198089 0.81391,-0.4 0.36237,-0.460673 0.8644,-0.837587 1.11562,-0.837587 0.3348,0 0.45678,-0.427269 0.45678,-1.6 0,-1.647668 0.26082,-1.93346 1.04703,-1.147254 0.7157,0.715697 2.15297,5.159967 2.15297,6.657319 0,0.447598 0.77832,3.317621 1.72961,6.377829 2.37976,7.655469 2.39088,7.957677 0.40027,10.8749 -1.97526,2.894725 -2.15302,3.293298 -2.81041,6.301531 -0.57709,2.640819 -0.88827,8.289508 -0.49198,8.930718 0.11026,0.178399 -0.34262,1.170499 -1.00639,2.204659 -2.46595,3.842 -2.81372,5.80936 -1.83945,10.40592 0.59485,2.80652 3.77477,7.48909 6.84463,10.07905 1.17355,0.99009 2.81149,2.59548 3.63988,3.56754 1.82548,2.14205 5.01922,4.8485 5.73465,4.85966 0.64856,0.0101 1.09018,0.5535 1.35631,1.66883 0.55396,2.32155 -2.87369,3.49701 -5.71712,1.96061 -0.704,-0.3804 -1.73536,-0.93945 -2.2919,-1.24234 -2.06627,-1.12453 -6.00841,2.75009 -5.81365,5.714074 0.15724,2.3931 -0.30009,2.20113 -3.43458,-1.441704 -1.55762,-1.81024 -4.8862,-5.30734 -7.39683,-7.77134 -4.90739,-4.81624 -5.18269,-4.92193 -4.58292,-1.75935 0.15693,0.82751 0.43768,3.25903 0.62387,5.40339 0.43647,5.026634 1.33719,9.128174 3.08915,14.066854 1.51902,4.282 1.61659,4.74174 1.00686,4.74377 -0.22,7.3e-4 -0.91303,0.0982 -1.54007,0.21659 -1.00025,0.18886 -1.45155,0.0193 -3.68,-1.38294 -5.16255,-3.24842 -6.2442,-3.44083 -9.08718,-1.6165 -1.896223,1.21681 -2.592512,1.8415 -3.308379,2.96819 -0.749074,1.17895 -1.441248,1.10924 -1.988394,-0.20027 z m 3.881085,-4.99973 c 1.406918,-1.29686 1.894428,-1.43389 4.568068,-1.28402 0.8658,0.0485 1.04636,-0.0402 0.89329,-0.43911 -0.11079,-0.28873 0.028,-0.623 0.3286,-0.7912 0.4094,-0.22911 0.57412,-1.09121 0.77204,-4.04066 0.13839,-2.06218 0.47333,-4.778924 0.74432,-6.037214 1.55993,-7.24317 1.33205,-8.86634 -1.88223,-13.40704 -0.96525,-1.36358 -1.91935,-3.09158 -2.12023,-3.84 -0.64539,-2.40464 -0.87064,-2.75127 -1.98833,-3.05988 -1.271994,-0.35122 -4.462066,-0.11218 -4.198311,0.31458 0.532361,0.86138 -0.197283,1.26598 -1.110439,0.61576 -0.860839,-0.61298 -1.370624,-0.65359 -8.08132,-0.6439 -7.612778,0.011 -8.686603,-0.14266 -10.26214,-1.46838 -0.578105,-0.48645 -1.080762,-0.70485 -1.195378,-0.5194 -0.114719,0.18562 -1.029943,-0.20907 -2.179187,-0.93976 -3.105469,-1.97447 -3.922992,-1.7424 -2.325817,0.66022 0.526493,0.792 0.957877,1.60577 0.95863,1.80839 0.0013,0.33909 1.125554,1.16628 3.180854,2.3403 0.461149,0.26341 1.491638,0.44385 2.352837,0.41198 1.357243,-0.0502 1.574681,0.0363 1.90306,0.75698 0.203906,0.44752 0.954361,1.10992 1.667678,1.472 0.713318,0.36207 1.642633,0.92831 2.065147,1.2583 0.639923,0.4998 1.097338,0.56627 2.739183,0.39806 1.607978,-0.16474 2.070581,-0.10233 2.511794,0.33888 0.829709,0.82971 0.653463,1.13461 -0.659183,1.14037 l -1.2,0.005 1.171291,0.71473 c 0.64421,0.39311 1.86821,1.13713 2.72,1.65339 0.85179,0.51625 2.157491,1.48825 2.901559,2.16 1.718792,1.55172 1.873031,1.53941 4.367147,-0.34838 1.14064,-0.86334 2.156265,-1.48734 2.256945,-1.38666 0.49372,0.49372 -0.13791,1.80842 -2.07792,4.32508 l -0.685064,0.88869 1.147077,-0.67679 1.147077,-0.6768 0.39409,0.86494 c 0.41882,0.91921 0.18919,1.22625 -2.386648,3.19127 l -0.838943,0.64 0.283226,3.68 c 0.155775,2.024004 0.291537,5.372004 0.301695,7.440004 0.021,4.27508 -0.04061,4.19092 1.815532,2.48 z m 3.832168,-25.836794 c -1.07417,-1.49516 -1.59444,-1.83429 -4.589233,-2.99132 -0.979479,-0.37842 -0.938197,-1.25189 0.05917,-1.25189 2.011384,0 3.915454,1.4492 5.192184,3.95182 1.06421,2.08602 0.73218,2.23215 -0.66212,0.29139 z m 22.65716,11.16564 c 1.86559,-2.08032 5.66369,-2.63687 8.03361,-1.1772 2.6604,1.63859 2.32753,0.75432 -0.77835,-2.06764 -1.74094,-1.58179 -4.43801,-4.27248 -5.9935,-5.97931 -1.55548,-1.70682 -3.64754,-3.93043 -4.64902,-4.94134 -4.18659,-4.22602 -4.42575,-12.80891 -0.50989,-18.298858 0.64893,-0.909783 0.73411,-1.418667 0.76073,-4.544504 0.028,-3.283426 0.11099,-3.724314 1.23538,-6.56 0.66297,-1.672 1.51757,-4.192 1.8991,-5.6 l 0.6937,-2.56 -0.66133,-3.459242 c -0.36987,-1.934726 -0.85348,-3.578005 -1.09735,-3.728723 -0.3234,-0.199871 -0.38417,-0.707349 -0.23526,-1.964614 0.2844,-2.401371 -0.36111,-6.178154 -0.96964,-5.673125 -1.34615,1.117211 -1.87811,5.583114 -0.92231,7.743059 0.59416,1.342699 0.49046,2.122645 -0.28222,2.122645 -0.79874,0 -0.67683,3.251764 0.14996,4 0.76149,0.689146 0.90265,2.480701 0.1734,2.200862 -0.31981,-0.122721 -0.52984,0.106953 -0.6676,0.730043 -0.29624,1.339898 -1.98459,6.063819 -2.57593,7.207359 -0.30736,0.594373 -0.43892,1.35651 -0.32901,1.906055 0.17808,0.890398 -4.5e-4,1.06454 -0.97042,0.946559 -0.69059,-0.084 -1.78722,2.107733 -1.40859,2.815216 0.51942,0.970536 0.43477,2.061476 -0.14185,1.828142 -0.264,-0.10683 -0.696,-0.281643 -0.96,-0.388473 -0.64528,-0.261115 -0.62101,0.394875 0.15698,4.243299 0.74583,3.6893 0.81365,5.02115 0.24607,4.83196 -0.57673,-0.19225 -1.1501,-2.3623 -1.17846,-4.46019 -0.0351,-2.598131 -0.42959,-3.460833 -1.58244,-3.460833 -0.94961,0 -1.32215,-0.458201 -1.32215,-1.626171 0,-0.337606 0.144,-0.613828 0.32,-0.613828 0.176,0 0.32,-0.288 0.32,-0.64 0,-0.468023 0.21333,-0.64 0.7939,-0.64 0.60606,0 0.83946,-0.208211 0.98646,-0.88 0.1059,-0.484 0.31336,-1.265116 0.46101,-1.735812 0.26103,-0.832087 0.23815,-0.850891 -0.82536,-0.678308 -1.20971,0.196308 -1.72778,-0.547817 -2.22386,-3.19421 -0.40152,-2.141978 -2.07215,0.274275 -2.07215,2.996984 0,2.910872 -1.0161,8.038045 -2.29057,11.558028 -1.40253,3.8737 -1.62362,6.14984 -0.73065,7.52206 1.14805,1.76418 0.33034,2.59839 -0.95204,0.97126 l -0.81965,-1.04 -0.004,1.61272 c -0.002,0.90167 0.41503,2.95184 0.94584,4.64996 1.02284,3.27226 1.34864,3.69984 4.49061,5.89366 3.18396,2.22315 5.4623,4.42238 9.37082,9.04545 l 3.85672,4.56178 0.79262,-1.36178 c 0.43594,-0.74899 1.09574,-1.69981 1.46623,-2.11294 z m -12.89898,-13.08885 c -0.53244,-2.01391 -0.79003,-6.04645 -0.40157,-6.28653 0.19042,-0.11769 0.26509,-0.42536 0.16595,-0.68372 -0.3257,-0.84874 0.22224,-0.49815 2.6309,1.68337 2.00923,1.81975 2.97794,3.28688 2.17026,3.28688 -0.28521,0 -2.98678,-2.22241 -3.88992,-3.2 -0.64927,-0.70279 -0.72024,-0.72223 -0.58401,-0.16 0.0853,0.352 0.24772,1.72 0.36098,3.04 0.11325,1.32 0.27728,2.652 0.36452,2.96 0.0872,0.308 0.0105,0.56 -0.17062,0.56 -0.18108,0 -0.472,-0.54 -0.64649,-1.2 z m -29.467412,3.0812 c -0.44,-0.17503 -1.504985,-0.91217 -2.366632,-1.63809 -1.890572,-1.59276 -4.632551,-2.60445 -5.827499,-2.15014 -1.11494,0.4239 -2.132889,0.10523 -3.190673,-0.99886 -0.492214,-0.51376 -1.058719,-0.93411 -1.2589,-0.93411 -0.200181,0 -1.278514,-0.792 -2.396296,-1.76 -2.408669,-2.08591 -3.700888,-2.3196 -5.149936,-0.93132 -1.277458,1.22388 -2.369752,0.61842 -2.08597,-1.15625 0.218872,-1.36875 -0.01099,-1.71479 -1.924717,-2.89754 l -1.177597,-0.72779 -0.762834,0.93645 -0.762833,0.93645 -0.623412,-0.74972 c -0.48452,-0.58268 -0.549203,-0.88837 -0.290328,-1.37209 0.89797,-1.67787 -2.2346971,-4.51416 -3.8545051,-3.48983 -1.24374,0.78652 2.7614271,6.82587 5.2017991,7.84375 0.89764,0.37441 1.256881,0.74063 1.392708,1.41976 0.204781,1.0239 1.211429,1.62813 2.712499,1.62813 0.530617,0 1.737597,0.36561 2.682177,0.81247 1.930338,0.91319 6.017937,1.86207 6.864297,1.59345 0.905726,-0.28747 2.87097,0.73329 3.547263,1.84247 0.345948,0.56738 0.629535,0.91511 0.630193,0.77272 6.58e-4,-0.14239 0.181196,-0.14269 0.401196,-6.8e-4 0.564,0.36407 5.874039,1.28126 7.6,1.31274 1.265217,0.0231 1.342898,-0.0124 0.64,-0.29197 z m -12.48,-8.08212 c 0,-1.67065 -1.703221,-3.71908 -3.092316,-3.71908 -1.667806,0 -1.028163,1.72072 1.177911,3.16872 1.650187,1.08314 1.914405,1.1591 1.914405,0.55036 z m 31.914862,-3.71924 -0.0181,-1.92017 -1.46839,0.84087 c -2.040416,1.16844 -2.608266,1.71946 -1.771971,1.71946 0.348461,0 1.135321,0.27973 1.748571,0.62163 1.54928,0.86375 1.53005,0.87982 1.50987,-1.26179 z m -10.244873,0.6567 c 6.963612,-1.24063 12.350173,-5.84495 13.683713,-11.696543 1.06745,-4.684005 1.46258,-6.786301 1.65396,-8.799999 0.25644,-2.698294 1.90032,-5.76 3.09262,-5.76 0.1653,0 1.15067,-0.432 2.1897,-0.96 2.83835,-1.442347 3.79002,-1.030115 3.79002,1.641723 0,1.46918 0.70535,0.965355 1.16365,-0.831185 C 81.534446,19.78616 55.765707,-4.5745466 28.665762,3.0815774 -1.5322581,11.612953 -7.2454501,53.857634 19.731388,69.144426 l 2.298654,1.30257 2.790756,-0.20285 c 3.16967,-0.23039 4.909544,0.19655 7.506207,1.84188 1.131166,0.71675 2.143229,1.03819 3.99113,1.2676 1.361623,0.16905 2.55167,0.38845 2.644549,0.48756 0.304581,0.32502 6.493785,-0.18628 10.158859,-0.83925 z m -17.829989,-3.31024 c 0.729628,-0.3403 0.637366,-0.38217 -1.048853,-0.47595 -1.73019,-0.0962 -2.381557,-0.71035 -0.753423,-0.71035 0.395974,0 0.999476,-0.21142 1.341115,-0.46983 0.377213,-0.28531 1.357229,-0.47382 2.495397,-0.48 1.526292,-0.008 1.840274,-0.0987 1.691295,-0.48691 -0.121201,-0.31585 0.06969,-0.54014 0.565614,-0.66461 0.411705,-0.10334 0.914505,-0.5521 1.117333,-0.99726 0.322102,-0.70694 0.506648,-0.78352 1.45804,-0.60503 0.829853,0.15568 1.227891,0.0618 1.671372,-0.39441 0.39507,-0.40636 1.493981,-0.73661 3.420066,-1.02782 3.985434,-0.60256 6.364469,-2.26954 3.899058,-2.732054 -0.629246,-0.118047 -1.22434,-0.344488 -1.322431,-0.503203 -0.379651,-0.614288 -2.619492,-1.335438 -4.42472,-1.424604 -1.039576,-0.05135 -2.839576,-0.252759 -4,-0.447579 -2.1414,-0.359514 -3.637085,-0.310163 -9.595868,0.316621 -1.829303,0.192418 -3.494532,0.285182 -3.700509,0.206141 -0.205977,-0.07904 -1.117234,-0.0087 -2.025014,0.156279 -1.347539,0.244923 -1.843064,0.199794 -2.699491,-0.245853 -0.576939,-0.300214 -1.984981,-0.774002 -3.128981,-1.052862 -1.841162,-0.4488 -2.091035,-0.601941 -2.176108,-1.333685 -0.08021,-0.689878 -0.25979,-0.826667 -1.085295,-0.826667 -1.149255,0 -1.70375,-0.620934 -2.009395,-2.250158 -0.232644,-1.2401 1.4e-5,-1.548561 1.430799,-1.896976 0.44,-0.107146 1.376,-0.450966 2.08,-0.764045 1.828482,-0.813153 4.837148,-1.304019 9.472547,-1.545453 2.669841,-0.139058 4.210167,-0.35793 4.558161,-0.64769 0.289087,-0.240711 0.886441,-0.36868 1.327452,-0.284375 0.504166,0.09638 0.801839,0.0072 0.801839,-0.24021 0,-0.219406 -0.58669,-0.472183 -1.326118,-0.571361 -2.991543,-0.40125 -0.810341,-1.883308 2.606118,-1.770774 0.616,0.02029 1.74679,-0.137458 2.512867,-0.350551 0.766076,-0.213093 2.118428,-0.44146 3.005226,-0.507484 3.685581,-0.274396 -0.02197,-3.357589 -4.037517,-3.357589 -0.844487,0 -2.94037,-1.380098 -3.399924,-2.238783 -0.287161,-0.536563 -0.144852,-0.764551 0.990666,-1.587116 l 1.325996,-0.960547 -0.838657,-0.318857 c -0.461261,-0.175371 -0.838657,-0.46642 -0.838657,-0.646777 0,-0.451729 -1.515867,-0.38697 -2.953475,0.126174 -0.995985,0.355511 -1.287221,0.354871 -1.76,-0.0039 -0.311589,-0.23643 -1.098026,-0.434451 -1.747639,-0.440049 -0.649613,-0.0056 -1.271563,-0.156526 -1.382112,-0.335397 -0.110548,-0.178871 -0.337395,-0.24092 -0.504105,-0.137888 -0.16671,0.103032 -0.206996,0.342844 -0.08953,0.532916 0.117471,0.190072 0.22782,0.720122 0.24522,1.177889 0.03777,0.993636 1.385765,1.38619 1.858615,0.541253 0.386036,-0.689807 1.951652,-0.643955 2.603425,0.07625 0.628813,0.694831 0.729554,2.415458 0.129596,2.213464 -0.22,-0.07407 -0.4,-0.55407 -0.4,-1.066667 0,-1.338428 -1.233574,-1.339095 -1.3862,-7.49e-4 -0.249886,2.191199 -2.2945,3.289672 -3.341317,1.79513 -0.244095,-0.348494 -0.97226,-0.854426 -1.618146,-1.124294 -1.74772,-0.730245 -1.605894,-5.010252 0.216094,-6.521263 0.291263,-0.24155 0.529569,-0.665671 0.529569,-0.94249 0,-0.276819 0.386941,-0.907187 0.859869,-1.400818 l 0.85987,-0.89751 h -2.292135 c -2.494245,0 -3.668563,-0.482985 -4.861417,-1.999454 -0.362416,-0.460737 -0.97364,-0.883343 -1.358274,-0.939125 -2.383816,-0.345711 -3.81508,-5.484159 -1.815566,-6.518147 l 0.992346,-0.513163 -0.631545,-0.695055 c -1.612768,-1.774952 -0.813482,-3.735055 1.523071,-3.735055 1.23814,0 1.282231,-0.0376 1.47774,-1.260246 0.110836,-0.693135 0.421149,-1.344525 0.689582,-1.447532 0.67079,-0.257407 0.885664,0.03832 0.428281,0.589436 -0.219019,0.263901 -0.290817,0.809985 -0.169859,1.291919 0.183496,0.731107 0.07975,0.880036 -0.835293,1.19902 -0.931733,0.324804 -0.986249,0.407047 -0.503706,0.759892 0.694731,0.507999 1.229627,2.215388 1.174323,3.74844 -0.03613,1.001649 0.09377,1.263394 0.782867,1.577365 1.082286,0.493123 3.679846,-0.656037 3.679846,-1.627964 0,-1.116759 0.376198,-1.63033 1.194237,-1.63033 1.059015,0 0.815772,-1.719616 -0.393894,-2.784651 -0.967682,-0.851983 -0.99858,-1.055349 -0.160343,-1.055349 0.352,0 0.64,-0.198368 0.64,-0.440818 0,-0.759586 -0.90135,-1.250912 -1.920794,-1.047024 -1.063429,0.212686 -1.181904,-0.0053 -0.505602,-0.930175 0.677117,-0.926014 3.259562,0.892617 3.163018,2.227487 -0.03486,0.481967 0.06958,1.226005 0.23208,1.653417 0.316888,0.833478 0.951298,1.060612 0.951298,0.340587 0,-0.518957 2.710524,-1.625987 3.216108,-1.313519 0.193198,0.119403 0.66461,-0.07532 1.047581,-0.432708 0.382971,-0.357392 1.128311,-0.753478 1.656311,-0.880191 1.375039,-0.329989 2.72,-1.357919 2.72,-2.078846 0,-0.488924 0.226032,-0.61821 1.080818,-0.61821 0.594449,0 1.269024,-0.226775 1.499054,-0.503944 0.493198,-0.5942676 3.623546,-0.4799896 6.140128,0.224155 1.996119,0.558519 1.917424,0.792159 -0.353352,1.049068 -1.030344,0.11657 -2.14603,0.411333 -2.479304,0.655029 -0.506541,0.370391 -0.317324,0.367799 1.153352,-0.0158 2.530964,-0.66016 6.696587,0.116826 7.164566,1.336358 0.188814,0.492044 1.154738,0.636625 1.154738,0.172844 0,-0.286552 2.045325,0.300951 2.447358,0.702983 0.473281,0.473281 2.30423,0.227012 2.410385,-0.324204 0.07324,-0.380324 0.432104,-0.548464 1.195208,-0.56 1.476951,-0.02233 1.541089,-0.522763 0.243355,-1.898761 -1.323671,-1.403501 -1.130148,-1.4548666 0.820521,-0.217789 2.56269,1.625216 3.18408,3.514647 1.25049,3.802319 -1.579915,0.235053 -0.0624,3.193736 2.03268,3.963171 0.704,0.258546 1.43655,0.780146 1.6279,1.159112 0.19135,0.378965 0.83935,1.019127 1.44,1.422581 2.42974,1.632039 -0.60192,5.346242 -3.46653,4.246986 -0.27035,-0.103744 -0.84817,0.04504 -1.28404,0.330634 -0.43587,0.285593 -1.315576,0.507886 -1.954907,0.493986 -2.23802,-0.04866 -4.20242,0.32123 -4.20242,0.791301 0,0.286905 0.348837,0.449972 0.962591,0.449972 0.821174,0 1.036381,0.18442 1.464864,1.255305 0.573868,1.434238 1.165446,1.784434 2.065195,1.222532 0.493895,-0.308443 0.760339,-0.308733 1.252507,-0.0014 0.44014,0.274869 0.6884,0.28811 0.83881,0.04474 0.11877,-0.192165 0.61724,-0.264966 1.12243,-0.163928 0.49983,0.09997 1.00286,0.02954 1.11784,-0.1565 0.12674,-0.205083 0.66707,-0.253289 1.3724,-0.122443 3.39472,0.629757 3.66732,4.130131 0.82664,10.614566 -1.02123,2.331173 -3.40682,3.261472 -4.37755,1.707096 -0.50415,-0.80728 -1.19764,-0.838193 -0.98999,-0.04413 0.0935,0.357538 -0.0465,0.6735 -0.349956,0.789957 -0.27818,0.106748 -0.505782,0.468974 -0.505782,0.804947 0,1.047204 -0.746644,1.402306 -1.796878,0.854592 -1.309953,-0.683162 -2.275978,-0.672508 -1.585979,0.01749 1.239794,1.239794 -0.536377,5.562112 -2.115903,5.149057 -0.357459,-0.09348 -0.994471,-0.03896 -1.415582,0.121143 -0.675491,0.256821 -0.765657,0.200818 -0.765657,-0.475552 0,-1.707945 -4.610758,-1.454392 -6.200244,0.340963 -0.526633,0.594842 -1.153565,1.081532 -1.393181,1.081532 -0.239616,0 -0.791575,0.355909 -1.226575,0.790909 -0.634538,0.634538 -0.991059,0.750879 -1.803246,0.588441 -0.93397,-0.186794 -0.95832,-0.222449 -0.314546,-0.460597 1.29963,-0.480764 0.706992,-0.84788 -1.296635,-0.803214 -1.338569,0.02984 -2.162218,0.210418 -2.504669,0.549129 -0.280632,0.277568 -1.182342,0.830027 -2.003799,1.227687 -0.821456,0.397661 -1.574854,0.85456 -1.674217,1.015332 -0.252456,0.408483 1.041995,0.365735 1.838845,-0.06073 0.385826,-0.206487 0.742392,-0.232155 0.858963,-0.06183 0.614019,0.897152 3.212263,1.200175 5.102236,0.595054 0.520312,-0.166591 0.93313,-0.06574 1.377662,0.336553 0.518635,0.469359 1.319209,0.592483 4.377067,0.67317 2.058286,0.05431 4.246339,0.130866 4.862339,0.170123 0.616,0.03926 1.48,-0.05383 1.92,-0.206856 l 0.8,-0.27823 -0.630297,0.705402 c -0.506067,0.56637 -0.91045,0.685126 -2.051709,0.602528 -0.930248,-0.06733 -1.468046,0.03534 -1.55637,0.297127 -0.07423,0.22 0.05426,0.4 0.285525,0.4 1.999211,0 4.603078,2.063735 3.80983,3.01954 -0.261898,0.315569 -0.256455,0.647077 0.02061,1.255168 0.423319,0.929086 -0.03004,1.805296 -0.934068,1.805296 -1.505098,0 -4.960735,1.46783 -5.265039,2.23641 -0.729601,1.84273 -1.060321,2.32118 -1.907165,2.75911 -0.522837,0.27036 -0.891316,0.32522 -0.891316,0.13269 0,-0.18051 0.14068,-0.32821 0.312623,-0.32821 0.564585,0 1.349168,-1.5412 1.13235,-2.22433 -0.215562,-0.67918 -1.25794,-0.89718 -1.604973,-0.33567 -0.108774,0.176 -0.541107,0.32 -0.96074,0.32 -0.419633,0 -0.951135,0.2545 -1.181115,0.56556 -0.507817,0.68685 -2.009373,1.67444 -2.545855,1.67444 -0.214624,0 -0.975691,0.26373 -1.691258,0.58607 -3.104352,1.39843 -3.744584,1.65279 -4.111889,1.63364 -0.214028,-0.0112 -0.02914,-0.18819 0.410857,-0.39341 z m -12.72,-13.882118 c -0.396,-0.276236 -0.72,-0.777323 -0.72,-1.113527 0,-0.336205 0.324,-0.741513 0.72,-0.900686 0.396,-0.159172 0.576,-0.301734 0.4,-0.316803 -0.176,-0.01507 0.04,-0.308995 0.48,-0.653168 l 0.8,-0.625769 -0.903017,-0.0071 c -3.003328,-0.02366 -4.430159,2.640715 -1.984739,3.706183 1.37339,0.598385 2.114894,0.543673 1.207756,-0.08911 z m 25.04,-13.864184 c -0.12014,-0.378527 -0.290436,-0.616231 -0.378436,-0.528231 -0.088,0.088 -0.0617,0.469704 0.05844,0.848231 0.12014,0.378527 0.290436,0.616231 0.378436,0.528231 0.088,-0.088 0.0617,-0.469704 -0.05844,-0.848231 z m 1.940918,-3.774092 c -0.374888,-1.181169 -3.080818,-1.292648 -4.470045,-0.184158 -1.265266,1.00958 -0.97083,1.560752 0.502763,0.941153 1.359697,-0.57171 2.826364,-0.278763 2.826364,0.564528 v 0.674791 l 0.673501,-0.673501 c 0.451523,-0.451523 0.605578,-0.887507 0.467417,-1.322813 z m -6.347585,0.380759 c -0.106333,-0.106334 -0.382333,-0.117702 -0.613333,-0.02526 -0.255275,0.102152 -0.179449,0.177978 0.193333,0.193333 0.337334,0.01389 0.526334,-0.06174 0.42,-0.16807 z m 19.775369,-3.230352 c 1.22677,-1.130059 1.45888,-1.849761 0.49823,-1.544862 -0.33719,0.107019 -0.70569,0.04472 -0.81889,-0.138436 -0.26912,-0.435452 -1.86371,-0.429346 -2.301873,0.0088 -0.628957,0.628957 -2.771814,0.218127 -3.182432,-0.610137 -0.265287,-0.535114 -0.441433,-0.634309 -0.618273,-0.348175 -0.151262,0.244747 0.02101,0.61739 0.443621,0.959599 0.380003,0.307708 0.690914,0.851889 0.690914,1.20929 0,0.357402 0.144,0.738818 0.32,0.847592 0.176,0.108774 0.32,0.04527 0.32,-0.141114 0,-0.186387 0.36,-0.338886 0.8,-0.338886 0.44,0 0.8,-0.144 0.8,-0.32 0,-0.176 0.2592,-0.32 0.576003,-0.32 0.3168,0 0.73912,-0.163121 0.93849,-0.36249 1.08113,-1.081134 1.54381,0.466175 0.50319,1.682801 -0.24477,0.286171 -0.50867,1.078171 -0.58644,1.76 l -0.1414,1.239689 0.32379,-1.28 c 0.195,-0.770891 0.76579,-1.687162 1.43507,-2.303685 z M 48.377317,27.999222 c 0.10683,-0.278394 0.194237,-0.623405 0.194237,-0.76669 0,-0.38385 -2.284695,-0.190772 -3.12,0.26367 -0.880032,0.478774 -0.944627,0.803614 -0.106931,0.53774 0.337189,-0.10702 0.705687,-0.04472 0.818886,0.138436 0.3257,0.526993 1.995246,0.396408 2.213808,-0.173156 z M 28.505196,24.815067 c -0.736914,-0.93209 -1.033947,-1.092928 -1.693642,-0.917082 -0.44,0.117286 -1.808,0.321636 -3.04,0.454113 -1.232,0.132477 -2.816,0.478129 -3.52,0.768116 l -1.28,0.52725 1.44,-0.177278 c 6.112837,-0.752551 6.847677,-0.788546 7.342421,-0.359654 0.409404,0.354911 0.991032,0.658469 1.551221,0.809599 0.0515,0.01389 -0.308496,-0.483384 -0.8,-1.105064 z M 49.846653,15.32428 c 0.0027,-0.297613 -0.139099,-0.630111 -0.315099,-0.738885 -0.192216,-0.118796 -0.318044,0.288962 -0.3151,1.021114 0.0036,0.904806 0.08483,1.0952 0.3151,0.738886 0.170609,-0.264 0.312404,-0.723502 0.315099,-1.021115 z M 26.343316,68.393566 c -0.533371,-0.39001 -0.492811,-0.41748 0.418839,-0.28368 0.55517,0.0815 1.009399,0.2758 1.009399,0.43183 0,0.42176 -0.756095,0.34333 -1.428238,-0.14815 z M 52.527405,55.163418 c -0.125586,-0.500372 -0.459125,-0.730127 -1.161374,-0.8 -1.397701,-0.139069 -1.442822,-0.764144 -0.05799,-0.803399 0.713805,-0.02023 1.212539,0.137138 1.319711,0.416425 0.101545,0.264622 0.623299,0.44895 1.27079,0.44895 1.284493,0 4.119994,1.335173 3.238964,1.525158 -0.30472,0.06571 -0.876758,-0.106567 -1.271195,-0.382842 -0.863015,-0.604479 -1.534754,-0.649262 -1.534754,-0.102316 0,0.735331 -1.611499,0.465601 -1.804148,-0.301976 z M 16.333451,47.565455 c -0.394957,-0.218453 -0.622957,-0.492334 -0.506667,-0.608624 0.11629,-0.116291 -0.27542,-0.211437 -0.870468,-0.211437 -0.974962,0 -1.033112,-0.04879 -0.588282,-0.493622 0.438916,-0.438917 1.484515,-0.648091 6.52352,-1.305042 1.554762,-0.2027 3.290415,0.316425 2.24,0.669972 -0.352,0.118476 -0.887112,0.347066 -1.189137,0.507979 -0.302026,0.160913 -1.342482,0.385811 -2.312126,0.499773 -1.327243,0.155992 -1.80981,0.354728 -1.952426,0.804072 -0.215052,0.677568 -0.343333,0.690633 -1.344414,0.136929 z M 55.737194,29.331246 c -0.486552,-1.267936 1.485352,-2.804468 3.480302,-2.711887 4.09032,0.189821 6.31569,-1.091194 5.39728,-3.106893 -0.1865,-0.409319 -0.23644,-0.807658 -0.11098,-0.885197 0.83828,-0.518081 0.38513,-3.609743 -0.71796,-4.89846 -1.17393,-1.371471 -1.48463,-2.825065 -0.75896,-3.550734 0.28265,-0.282657 0.28563,-0.572155 0.0121,-1.172573 -0.39407,-0.864897 -0.10303,-1.256497 0.70374,-0.946909 0.39129,0.150154 0.50888,0.665123 0.50888,2.228704 v 2.033429 l 1.28,0.344669 c 0.704,0.189567 1.28,0.477508 1.28,0.639868 0,0.16236 0.324,0.601003 0.72,0.974763 l 0.72,0.679563 -1.05667,0.890119 c -1.14068,0.960899 -1.22097,1.338464 -0.75041,3.52881 0.32146,1.496329 -0.16518,3.109921 -1.00965,3.347738 -2.23751,0.630121 -5.31975,1.139138 -6.8978,1.139138 -1.97779,0 -2.744646,0.490672 -2.375565,1.52 0.199709,0.556969 -0.209816,0.504703 -0.424267,-0.05415 z m 8.217062,-8.318496 c -0.23865,-0.287552 -0.33898,-0.617742 -0.22297,-0.733755 0.29886,-0.298857 0.93812,0.412851 0.78457,0.873489 -0.0883,0.264775 -0.2617,0.22162 -0.5616,-0.139734 z m 7.01829,29.412131 c 1.15468,-0.597109 2.0923,-3.336842 1.30788,-3.82164 -0.9125,-0.563958 -3.14837,2.403439 -2.75198,3.652365 0.24671,0.777305 0.26431,0.779368 1.4441,0.169275 z"
     id="path1" />
</svg>
