<?xml version="1.0" encoding="UTF-8" standalone="no"?>
<!-- Created with Inkscape (http://www.inkscape.org/) -->

<svg
   version="1.1"
   id="svg1"
   width="112.32566"
   height="98.891846"
   viewBox="0 0 112.32566 98.891848"
   sodipodi:docname="Icon_klutz.svg"
   inkscape:version="1.4.2 (ebf0e940d0, 2025-05-08)"
   xmlns:inkscape="http://www.inkscape.org/namespaces/inkscape"
   xmlns:sodipodi="http://sodipodi.sourceforge.net/DTD/sodipodi-0.dtd"
   xmlns="http://www.w3.org/2000/svg"
   xmlns:svg="http://www.w3.org/2000/svg">
  <defs
     id="defs1" />
  <sodipodi:namedview
     id="namedview1"
     pagecolor="#505050"
     bordercolor="#eeeeee"
     borderopacity="1"
     inkscape:showpageshadow="0"
     inkscape:pageopacity="0"
     inkscape:pagecheckerboard="0"
     inkscape:deskcolor="#505050"
     showgrid="false"
     inkscape:zoom="4.2301186"
     inkscape:cx="54.726599"
     inkscape:cy="56.972399"
     inkscape:window-width="1838"
     inkscape:window-height="1011"
     inkscape:window-x="40"
     inkscape:window-y="47"
     inkscape:window-maximized="1"
     inkscape:current-layer="svg1" />
  <path
     style="fill:#0166ac"
     d="m 66.191707,98.504394 c -2.87587,-0.61209 -7.929697,-3.10977 -10.080002,-4.98169 -0.44,-0.38303 -1.034987,-0.77849 -1.322194,-0.87878 -0.31328,-0.10941 -0.682258,-0.8643 -0.922287,-1.88691 -0.220051,-0.93751 -0.549465,-1.99255 -0.73203,-2.34455 -0.780907,-1.50565 -2.806377,-9.86129 -3.939009,-16.24953 -1.066881,-6.01739 -1.717158,-8.235 -1.727606,-5.89159 -0.0192,4.30559 -7.879903,10.36135 -16.156874,12.44699 -1.906376,0.48037 -4.418331,1.50334 -7.430416,3.02596 -10.810284,5.46463 -17.3560902,4.27697 -22.3315882,-4.05183 -2.54476402,-4.25984 -1.78102602,-9.91364 1.020712,-7.55613 4.850728,4.08162 10.9463532,4.42252 17.8612922,0.9989 1.936,-0.95852 4.71787,-2.23967 6.181933,-2.847 16.713794,-6.933299 19.928522,-20.150475 9.32525,-38.340251 -2.153308,-3.693973 -3.187183,-6.595636 -3.187183,-8.945119 0,-1.914191 -0.486066,-2.907668 -2.24589,-4.590401 -0.736252,-0.704 -2.027052,-2.292203 -2.868445,-3.529339 -0.841392,-1.237136 -1.777874,-2.455217 -2.08107,-2.706848 -0.303197,-0.2516311 -0.672507,-0.7763971 -0.82069,-1.1661461 -0.148182,-0.38975 -0.601181,-0.755668 -1.006664,-0.813152 -1.25497,-0.177912 -1.23451,-1.864515 0.02262,-1.864515 1.182804,0 1.442719,-0.356691 0.840067,-1.152857 -0.588722,-0.777763 -0.609197,-1.727143 -0.03725,-1.727143 0.243473,0 0.521114,-0.299939 0.61698,-0.666532 0.136182,-0.520758 0.383994,-0.644537 1.133091,-0.565961 0.757585,0.07947 1.202139,-0.15 2.118424,-1.093468 1.389649,-1.430876 1.61224,-1.463627 2.018912,-0.297049 1.709648,4.904301 11.809142,13.5569491 21.522726,18.4393961 12.074641,6.069213 13.936991,7.77668 18.000641,16.503613 3.15023,6.765331 4.67476,10.174552 5.36614,12 1.82189,4.810356 6.00762,11.418581 10.54041,16.640642 3.2574,3.75275 3.41723,3.85642 11.84012,7.67941 l 7.402683,3.35995 h 2.71449 c 4.19365,0 5.12509,0.69032 4.13351,3.06349 -1.66507,3.98508 -12.915583,3.25582 -30.091943,-1.95056 -4.56359,-1.38329 -4.35819,-1.61688 -2.2824,2.5957 3.38502,6.86949 5.29964,8.73619 7.7204,7.5272 4.9898,-2.49202 10.96394,2.7268 7.64145,6.67535 -2.81159,3.34139 -21.50897,6.683676 -28.75831,5.14075 z m 6.96631,-2.3878 c 1.31043,-0.25073 3.9511,-1.09135 5.86815,-1.86805 1.91704,-0.77671 4.09754,-1.58534 4.84554,-1.79698 0.748,-0.21164 1.36,-0.52301 1.36,-0.69195 0,-0.16893 0.396,-0.31032 0.88,-0.31418 2.225,-0.0178 6.74993,-3.25019 5.6627,-4.04519 -0.46181,-0.33769 -0.70302,-0.30024 -1.43819,0.22324 -0.48582,0.34594 -1.01289,0.62898 -1.17126,0.62898 -0.15838,0 -0.9616,0.42721 -1.78494,0.94936 -2.34211,1.48532 -7.69271,3.54858 -10.06928,3.88284 -1.18747,0.16702 -3.23444,0.60444 -4.54883,0.97204 -3.03452,0.84868 -4.68305,0.67014 -7.6615,-0.82979 -2.4995,-1.25873 -2.92188,-1.65652 -1.06225,-1.0004 1.79637,0.63379 4.19175,0.86243 5.99355,0.57208 l 1.6,-0.25784 -1.28,-0.42224 c -0.704,-0.23223 -1.95386,-0.82952 -2.77745,-1.32731 -0.8236,-0.4978 -2.7676,-1.42658 -4.32,-2.06396 -3.710172,-1.52332 -6.927377,-3.44277 -8.638504,-5.15389 -0.761227,-0.76123 -1.384048,-1.29164 -1.384048,-1.17868 0,0.65231 0.759837,4.49469 0.968546,4.89779 0.406603,0.7853 3.455928,4.51483 3.659369,4.47565 0.103236,-0.0199 1.300188,0.38487 2.659897,0.89945 1.3597,0.51459 3.98419,1.3517 5.83219,1.86025 3.61443,0.99467 3.3088,1.49565 -0.4695,0.76959 -1.06178,-0.20403 -2.2905,-0.44009 -2.7305,-0.52457 l -0.8,-0.15359 0.86634,0.49967 c 2.39363,1.38056 6.0308,1.74562 9.93997,0.99768 z m 2.30942,-7.34515 c -7.12658,-4.82785 -12.86932,-13.52607 -13.75833,-20.83898 -0.56925,-4.68264 -1.842639,-10.740709 -2.731878,-12.996728 -0.325765,-0.826472 -0.824184,-2.41631 -1.107598,-3.532975 C 56.72573,46.895735 53.642065,39.830973 51.99609,37.946315 50.564518,36.30715 47.471705,31.640834 47.471705,31.120099 c 0,-0.835141 0.460715,-0.497165 1.435316,1.052935 0.525424,0.835686 1.872651,2.738828 2.993838,4.229206 3.922731,5.21443 7.706689,15.648989 10.154718,28.002424 2.64813,13.36319 11.04223,23.72032 19.3189,23.83678 l 0.78277,0.011 -0.99081,-1.04 c -1.20822,-1.26821 -3.75373,-6.3139 -5.36779,-10.64 -0.65665,-1.76 -1.31468,-3.42727 -1.46228,-3.70505 -0.33885,-0.63771 -1.83365,-8.93702 -3.51125,-19.494952 -1.70151,-10.708399 -2.69719,-13.463705 -5.41789,-14.992826 -2.37747,-1.33621 -3.08387,-3.123644 -0.76783,-1.942859 2.16074,1.101609 4.73638,4.420873 6.41719,8.269931 0.42889,0.982165 1.26452,2.793754 1.85695,4.025754 0.59243,1.232 1.51456,3.445107 2.04918,4.918015 0.95825,2.640062 2.20375,5.113477 5.74152,11.401987 2.09824,3.72969 4.93591,6.77646 8.86361,9.51675 3.96164,2.76396 8.49332,4.22068 11.665863,3.75001 2.56335,-0.38029 7.038,-0.51397 7.038,-0.21025 0,0.14369 0.144,0.17226 0.32,0.0635 0.82635,-0.51071 0.12529,-0.8 -1.93871,-0.8 -2.98623,0 -6.26,-0.52804 -8.953373,-1.44411 -1.20544,-0.41 -2.47312,-0.67186 -2.81706,-0.58191 -0.41242,0.10785 -1.04513,-0.20579 -1.85811,-0.92107 -0.67801,-0.59653 -1.88075,-1.56991 -2.67275,-2.16308 -3.87035,-2.89868 -13.75938,-14.894579 -13.7602,-16.691817 -5.5e-4,-1.210786 -2.39845,-7.582379 -3.97356,-10.558385 -1.07524,-2.031538 -1.78624,-3.775849 -1.78624,-4.382189 0,-1.074013 -3.13878,-7.7247 -4.74641,-10.057053 -1.97905,-2.871217 -5.69924,-5.85668 -9.37465,-7.523192 -1.165603,-0.528509 -3.62204,-1.826596 -5.458749,-2.884636 -4.869266,-2.80495 -7.946503,-4.298601 -8.454454,-4.103682 -0.245389,0.09416 -0.914067,-0.227846 -1.48595,-0.71558 -0.571884,-0.487734 -1.761696,-1.406489 -2.644028,-2.041678 -2.260791,-1.627541 -5.026149,-4.6298441 -5.856667,-6.3584881 -0.387615,-0.806783 -1.063481,-1.803884 -1.501924,-2.21578 l -0.79717,-0.748902 v 0.886382 c 0,0.987552 0.754527,2.200306 2.703397,4.345179 0.719625,0.7920001 2.137349,2.6640001 3.150498,4.1600001 1.013149,1.496 2.295499,3.330994 2.849666,4.077764 1.183463,1.594782 1.00394,2.004632 -0.552885,1.262234 -1.734552,-0.82715 -3.990676,-0.159559 -3.990676,1.180849 0,1.628632 2.033415,5.69266 2.255304,4.5075 l 0.177552,-0.948348 0.744346,1.44 c 0.852941,1.650084 3.010905,4.117082 5.061972,5.786875 0.774811,0.630781 2.297965,2.494627 3.384787,4.141878 1.577131,2.390396 2.177413,3.046737 2.973574,3.251271 3.813183,0.979609 6.810316,8.368257 8.737481,21.539975 0.503642,3.442273 0.830585,4.628453 1.894988,6.875163 1.510658,3.18867 1.513058,3.18006 -0.62821,2.25891 -2.739256,-1.17839 -3.995901,-0.25741 -2.157371,1.58112 0.967819,0.96782 0.997567,1.07786 0.816263,3.0194 -0.276946,2.96574 3.087816,11.52849 5.010266,12.75028 3.33327,2.11841 8.31961,3.59596 12.52478,3.71134 l 1.59572,0.0438 z M 65.116227,57.452462 c -0.17646,-0.924 -0.7055,-3.696 -1.17563,-6.16 -0.92824,-4.864921 -1.43847,-6.291988 -3.30955,-9.256506 -1.525685,-2.417279 -2.04214,-3.81314 -1.121871,-3.032167 1.290971,1.095559 1.516541,1.098756 1.300481,0.01843 -0.28847,-1.442351 -0.11749,-1.309441 2.01452,1.566011 2.11718,2.855438 2.55153,4.033249 4.15316,11.261879 1.37873,6.222684 1.14558,7.296197 -0.904,4.162353 -0.9733,-1.488185 -1.27474,-1.496829 -0.72642,-0.02083 0.49662,1.336824 0.7275,3.140832 0.40197,3.140832 -0.17149,0 -0.45619,-0.756 -0.63266,-1.68 z M 55.891191,36.886563 c -1.518279,-2.057165 -1.540868,-2.072593 -1.639761,-1.12 -0.1364,1.313872 -0.812783,1.220551 -1.696735,-0.234101 -0.401064,-0.66 -0.830414,-1.272 -0.954112,-1.36 -0.123698,-0.088 -0.808872,-1.288924 -1.52261,-2.66872 -0.713738,-1.379796 -1.858289,-3.116882 -2.543447,-3.860191 -0.685158,-0.743309 -1.650239,-2.062384 -2.144625,-2.931279 -0.494386,-0.868895 -1.535413,-2.244111 -2.313394,-3.056035 -1.479886,-1.544454 -1.353714,-2.13413 0.364371,-1.702918 0.763902,0.191728 1.672433,-0.555766 1.336382,-1.099508 -0.104249,-0.168677 -0.0086,-0.370448 0.212451,-0.448378 0.506084,-0.178382 6.001994,2.541411 6.001994,2.970241 0,0.511494 -0.542267,0.375337 -2.558321,-0.642364 -1.881261,-0.949657 -2.561679,-0.834101 -2.561679,0.435053 0,0.08689 1.336565,0.89627 2.970146,1.798631 4.062744,2.244188 6.120896,4.209678 4.899095,4.678527 -0.352078,0.135105 -0.135749,0.850971 0.988155,3.269957 3.836146,8.256564 4.189722,10.07332 1.16209,5.971085 z M 18.972462,80.563634 c 1.048213,-0.4063 2.488442,-1.36696 3.620116,-2.41469 1.033648,-0.95698 2.770308,-2.34432 3.859244,-3.08298 2.820635,-1.91334 7.579883,-5.71094 7.579883,-6.0483 0,-0.5311 -0.516616,-0.28901 -1.44,0.6748 -0.505856,0.528 -1.199745,0.96 -1.541977,0.96 -0.342231,0 -2.007289,0.99154 -3.70013,2.20343 -4.556327,3.26182 -7.363816,4.99086 -9.157892,5.64006 -0.88,0.31843 -1.744859,0.75138 -1.921908,0.9621 -0.486698,0.57927 -5.515058,0.80003 -5.961794,0.26175 -0.195065,-0.23504 -0.5230512,-0.42734 -0.7288582,-0.42734 -0.471947,0 -5.543533,-3.07211 -6.50744,-3.94188 -1.675249,-1.51164 -0.52373,-0.0474 1.848421,2.35039 3.860555,3.90229 8.7830912,4.90508 14.0523352,2.86266 z m 9.087942,-3.74435 c 5.395356,-2.8568 7.232477,-4.62565 11.722472,-11.28682 2.385808,-3.539491 2.982234,-4.704504 2.546366,-4.973886 -0.399851,-0.247121 -0.398641,-0.248232 -0.99496,0.914311 -0.254027,0.495235 -1.821028,2.595915 -3.482223,4.668165 -3.045562,3.79919 -4.287399,4.89268 -12.005111,10.57097 -4.852604,3.5703 -4.370909,3.59364 2.213456,0.10726 z m 22.908809,-10.39734 c 0.02581,-0.99906 -1.608595,-4.769662 -1.811081,-4.178189 -0.122503,0.357839 0.691662,4.717269 1.092301,5.848709 0.22517,0.6359 0.686917,-0.43725 0.71878,-1.67052 z M 73.389137,51.866445 c -1.00851,-2.641029 -1.88822,-4.171315 -1.90726,-3.317759 -0.0108,0.486208 2.62603,6.134236 2.78817,5.972095 0.0528,-0.05281 -0.3436,-1.247261 -0.88091,-2.654336 z"
     id="path1" />
</svg>
