<?xml version="1.0" encoding="UTF-8" standalone="no"?>
<!-- Created with Inkscape (http://www.inkscape.org/) -->

<svg
   version="1.1"
   id="svg1"
   width="75.197533"
   height="110.87076"
   viewBox="0 0 75.197535 110.87076"
   sodipodi:docname="Icon_artist.svg"
   inkscape:version="1.4.2 (ebf0e940d0, 2025-05-08)"
   xmlns:inkscape="http://www.inkscape.org/namespaces/inkscape"
   xmlns:sodipodi="http://sodipodi.sourceforge.net/DTD/sodipodi-0.dtd"
   xmlns="http://www.w3.org/2000/svg"
   xmlns:svg="http://www.w3.org/2000/svg">
  <defs
     id="defs1" />
  <sodipodi:namedview
     id="namedview1"
     pagecolor="#505050"
     bordercolor="#eeeeee"
     borderopacity="1"
     inkscape:showpageshadow="0"
     inkscape:pageopacity="0"
     inkscape:pagecheckerboard="0"
     inkscape:deskcolor="#505050"
     inkscape:zoom="4.2301186"
     inkscape:cx="36.760199"
     inkscape:cy="59.572798"
     inkscape:window-width="1838"
     inkscape:window-height="1011"
     inkscape:window-x="40"
     inkscape:window-y="47"
     inkscape:window-maximized="1"
     inkscape:current-layer="svg1" />
  <path
     style="fill:#0164ab"
     d="m 121.84,145.57436 c -0.65269,-0.38015 -0.73162,-1.27474 -0.16268,-1.84369 0.39384,-0.39384 0.12794,-0.7346 -0.87732,-1.12433 -0.80938,-0.31379 0.47641,-1.34653 2.11094,-1.69549 6.41197,-1.36892 12.8274,0.64629 7.48906,2.35246 -0.65912,0.21065 -0.99469,0.54969 -1.07067,1.08175 -0.20289,1.42084 -0.58322,1.57552 -3.84852,1.56521 -1.69445,-0.005 -3.33281,-0.15651 -3.64081,-0.33591 z m 5.51602,-1.4186 c -0.97727,-1.04025 -0.64902,-1.35272 1.89105,-1.80015 4.14205,-0.7296 0.98008,-1.3274 -4.20707,-0.79537 -1.94513,0.1995 -3.60785,0.83976 -2.18084,0.83976 1.29994,0 1.95599,0.63939 1.44938,1.41257 -0.57234,0.87351 -0.30074,0.99074 2.54724,1.09948 l 1.25578,0.048 z m -65.756022,0.23918 c -3.754839,-0.0998 -4.417075,-0.25124 -3.631096,-0.83034 0.290897,-0.21432 0.578897,-0.74255 0.64,-1.17383 0.246727,-1.74147 12.111096,-1.63901 12.111096,0.10458 0,1.34907 -3.376093,2.05227 -9.12,1.89959 z m 7.141518,-1.63203 c 0.607082,-0.38495 -3.916959,-0.67304 -6.901518,-0.43949 -1.76971,0.13848 -2.250874,0.25975 -1.68,0.42342 1.132297,0.32463 8.074409,0.33763 8.581518,0.0161 z m 41.228074,0.97189 c -1.29697,-1.43314 -0.77249,-1.84946 2.43782,-1.93505 4.17127,-0.11121 5.98553,0.93402 3.94946,2.27535 -0.81732,0.53843 -5.83391,0.27116 -6.38728,-0.3403 z M 115.52,143.04 c 0.32665,-0.2111 -0.44011,-0.29412 -2.4,-0.25987 l -2.88,0.0503 2.08,0.20954 c 1.144,0.11524 2.224,0.23218 2.4,0.25986 0.176,0.0277 0.536,-0.0892 0.8,-0.25986 z m -35.200002,0.75175 c -0.264,-0.1074 -0.747352,-0.42848 -1.074116,-0.71351 -0.326763,-0.28503 -1.099373,-0.51824 -1.716909,-0.51824 -1.625074,0 -2.346761,-1.10222 -1.364701,-2.08428 0.482574,-0.48257 0.919764,-0.63382 1.448516,-0.50111 0.658457,0.16526 0.781123,0.054 0.939582,-0.85227 0.944598,-5.40236 1.494812,-25.1269 0.760355,-27.25785 -0.472452,-1.37077 -1.473834,-2.10105 -1.14223,-0.83299 0.553375,2.11611 -1.793227,3.21301 -2.414199,1.1285 -1.694716,-5.68892 0.858796,-11.1227 5.211081,-11.08899 0.875942,0.007 1.592621,-0.0448 1.592621,-0.11469 0,-0.0699 -0.636866,-2.329616 -1.415257,-5.021673 -2.667249,-9.224645 -5.269732,-18.658496 -7.020443,-25.4487 -1.533379,-5.947272 -1.889763,-6.964296 -2.859415,-8.16 -2.651703,-3.269881 -3.216694,-6.343079 -2.257535,-12.279576 0.219575,-1.359012 0.264234,-2.839371 0.111017,-3.68 -0.140983,-0.773505 -0.160198,-1.98022 -0.0427,-2.681589 l 0.213634,-1.275217 0.673366,0.955217 c 0.370352,0.525369 0.773963,1.279217 0.896914,1.675217 0.262753,0.846278 0.820418,0.962803 0.820418,0.171428 0,-4.228705 4.842064,9.281592 5.442577,15.185846 0.654653,6.436551 0.456682,5.707754 8.165265,30.058994 3.171863,10.019843 2.845237,9.504891 5.749265,9.064169 2.10939,-0.320125 2.093889,-0.225153 1.09687,-6.720438 -0.499792,-3.256 -1.228556,-8.152 -1.619475,-10.88 -0.39092,-2.728 -0.831175,-5.008857 -0.978347,-5.068571 -0.648549,-0.263147 -1.216155,-1.118818 -1.216155,-1.833364 0,-0.426922 -0.479988,-1.316636 -1.066639,-1.977143 -1.445776,-1.627791 -1.551639,-1.972568 -1.80769,-5.887318 -0.171101,-2.615961 -0.38074,-3.674083 -0.903444,-4.56 -0.659434,-1.117658 -0.581925,-1.312713 0.470401,-1.183776 0.204946,0.02511 0.537163,-0.452889 0.738261,-1.062222 0.247997,-0.751437 0.591406,-1.140008 1.067372,-1.207742 0.514402,-0.0732 0.729669,-0.356146 0.806362,-1.059863 0.159623,-1.464666 0.583007,-1.625517 1.189837,-0.452038 l 0.548922,1.061499 0.472534,-1.184731 c 0.562031,-1.409115 0.955204,-1.505564 1.24223,-0.30473 0.322186,1.347938 0.391932,1.381068 1.493467,0.70943 1.299173,-0.792145 1.603006,-0.791665 1.351065,0.0021 -0.193275,0.608953 -0.158248,0.613929 0.978394,0.13901 1.311246,-0.547874 1.255694,-0.710312 0.584322,1.708603 -0.197076,0.710054 -0.184931,0.713043 0.957499,0.235706 1.150798,-0.480835 1.157106,-0.479085 1.157106,0.320824 0,0.644581 0.158861,0.804294 0.8,0.804294 0.999662,0 0.996353,0.105272 -0.04628,1.472233 -0.796455,1.044207 -0.812868,1.133962 -0.27877,1.524504 0.531456,0.38861 0.503369,0.503517 -0.442102,1.808702 -2.387451,3.29578 -2.624261,7.315688 -0.901166,15.297493 0.620133,2.872612 1.180288,5.275704 1.244788,5.340204 0.545145,0.545145 7.675834,-30.049164 7.473414,-32.064776 -0.37271,-3.711273 1.06816,-8.523251 5.20367,-17.378359 l 0.97141,-2.08 0.0379,3.04 c 0.0209,1.672 0.23242,4.590114 0.47014,6.484698 0.53762,4.284709 0.17512,6.711741 -1.66018,11.115302 -1.96818,4.722402 -2.52852,6.782023 -3.43882,12.639999 -1.08506,6.982574 -3.67129,20.167346 -5.08395,25.918345 -0.60503,2.463089 -1.07093,4.50747 -1.03534,4.543068 0.0356,0.0356 3.929,-4.753449 8.65199,-10.642326 9.62089,-11.995835 8.91743,-11.247219 9.93953,-10.577513 2.27203,1.48869 1.76533,2.487793 -6.83559,13.478426 l -7.01181,8.959999 1.3801,1.198855 c 3.06509,2.66256 3.48051,9.75412 0.64089,10.94059 -1.72137,0.71923 -1.92883,8.76676 -0.60497,23.46683 0.61424,6.82046 0.59741,6.94105 -1.07038,7.66668 -1.23298,0.53644 -24.486551,1.00614 -25.684503,0.5188 z M 102.4,143.2373 c 0,-0.0675 -0.35564,-0.19068 -0.79032,-0.27377 -0.43467,-0.0831 -0.71417,-0.0279 -0.62111,0.12269 0.16386,0.26514 1.41143,0.39868 1.41143,0.15108 z m 1.44,-0.1973 c 0.42199,-0.18134 0.47649,-0.28101 0.16,-0.29261 -0.264,-0.01 -0.696,0.122 -0.96,0.29261 -0.58495,0.37802 -0.0797,0.37802 0.8,0 z m -26.320002,-1.49193 c -0.22,-0.0888 -0.58,-0.0888 -0.8,0 -0.22,0.0888 -0.04,0.1614 0.4,0.1614 0.44,0 0.62,-0.0726 0.4,-0.1614 z m 27.952592,-5.73854 c -0.31937,-0.83226 -0.83259,-0.45842 -0.83259,0.60647 0,1.49771 0.76386,2.22012 0.90254,0.85357 0.0564,-0.55578 0.0249,-1.21279 -0.07,-1.46004 z M 104.17358,125.44 c -0.40543,-4.59377 -0.44573,-4.80338 -0.31003,-1.61281 0.19105,4.49197 0.5762,8.7783 0.69125,7.69281 0.0466,-0.44 -0.12492,-3.176 -0.38122,-6.08 z m -15.829099,-1.2 c 0.01347,-0.132 0.07528,-0.50942 0.137366,-0.8387 0.06208,-0.32929 -0.01537,-0.93603 -0.172119,-1.34831 -0.172209,-0.45295 -0.143198,-2.19694 0.0733,-4.40673 l 0.358304,-3.65711 -0.892436,-1.52283 c -0.810342,-1.38274 -0.874492,-1.715 -0.697358,-3.61189 0.198054,-2.12092 0.848456,-3.56087 0.848456,-1.87843 0,0.55466 0.171852,0.864 0.48,0.864 0.298666,0 0.48,-0.30222 0.48,-0.8 0,-0.84809 1.321503,-1.18951 1.773482,-0.45819 0.11619,0.188 0.395141,0.27125 0.619892,0.18501 0.595612,-0.22856 1.126626,0.43488 1.126626,1.40758 0,1.45273 0.807953,1.83748 4.32,2.05721 l 3.199999,0.20021 0.480007,-1.05591 c 0.32352,-0.71169 0.7408,-1.09199 1.28,-1.16657 1.05206,-0.14553 1.6,-0.62291 1.6,-1.39395 0,-0.5396 -0.1439,-0.59495 -1.04,-0.40005 -1.84413,0.40109 -2.485381,0.75713 -2.785547,1.54663 -0.161735,0.42539 -0.590237,0.98089 -0.952226,1.23444 -0.361989,0.25354 -0.559822,0.55933 -0.439629,0.67953 0.283593,0.28359 -0.903231,0.10006 -1.413784,-0.21863 -0.215149,-0.1343 -0.564874,-0.82392 -0.777166,-1.53249 -0.212292,-0.70857 -0.739681,-1.56652 -1.171975,-1.90656 -0.954438,-0.75077 -2.042968,-0.83553 -1.7754,-0.13826 0.229876,0.59905 -0.187626,0.61546 -1.013077,0.0398 -0.64147,-0.44733 -4.635161,-1.28509 -7.831202,-1.64276 -0.968,-0.10833 -2.559978,-0.55507 -3.537729,-0.99277 -1.44147,-0.64527 -1.940829,-0.73379 -2.64,-0.46797 -1.537066,0.58439 -0.534579,1.5973 1.596897,1.6135 3.241121,0.0246 4.713549,1.36645 4.428935,4.03607 -0.286788,2.69003 0.0052,3.62545 1.300371,4.16663 1.19999,0.50139 1.147174,0.30677 1.728012,6.36748 0.437017,4.56001 1.097382,7.10455 1.307997,5.04 z m 15.244719,-6.72 c -0.0733,-0.484 -0.13331,-0.088 -0.13331,0.88 0,0.968 0.06,1.364 0.13331,0.88 0.0733,-0.484 0.0733,-1.276 0,-1.76 z m 2.89324,-8.77044 c 0.28058,-0.28058 0.50196,-0.26128 0.91269,0.0796 0.50324,0.41766 0.53054,0.28629 0.37941,-1.82593 -0.20951,-2.92811 -0.41955,-3.26392 -1.38792,-2.21903 -0.41583,0.44869 -0.99435,0.81581 -1.28558,0.81581 -0.35138,0 -0.46417,0.17028 -0.33528,0.50617 0.10683,0.27839 0.19424,1.07039 0.19424,1.76 0,1.31371 0.6911,1.71472 1.52244,0.88339 z m -7.317718,-2.7676 c 0.132498,-0.22992 1.381358,-0.7102 2.775238,-1.06727 2.61285,-0.66936 4.38147,-1.43431 2.54004,-1.09861 -0.528,0.0962 -1.86464,0.27027 -2.97031,0.3867 -1.10567,0.11643 -2.086169,0.33443 -2.178886,0.48445 -0.09272,0.15002 -0.664079,0.27277 -1.269692,0.27277 -1.280492,0 -1.264007,-0.0433 -0.551968,1.44986 0.576187,1.20827 0.736576,1.16682 1.655578,-0.4279 z m -21.265447,-0.34843 c 0.214026,-0.3463 -0.716005,-0.75041 -1.133374,-0.49246 -0.162989,0.10073 -0.213495,0.3172 -0.112237,0.48104 0.234427,0.37931 1.013824,0.38646 1.245611,0.0114 z M 86.23982,96.77217 C 81.841502,81.418403 77.357227,68.137834 77.118976,69.759998 c -0.774979,5.276534 9.217121,36.191702 10.476447,32.413722 0.05672,-0.17016 -0.553302,-2.600855 -1.355603,-5.40155 z m 5.204582,4.61066 c 1.422418,-0.0734 1.994095,-0.22825 1.99472,-0.54043 7.97e-4,-0.39821 -4.649588,-0.2738 -5.078657,0.13587 -0.348568,0.3328 0.318809,1.1475 0.6886,0.8406 0.220821,-0.18327 1.298723,-0.37949 2.395337,-0.43604 z m 7.3261,-0.90283 c 2.432148,-8.012918 5.810038,-23.047602 6.830068,-30.400002 0.18312,-1.32 0.39831,-2.796 0.47819,-3.28 0.20577,-1.246746 -0.63978,-1.153367 -1.44879,0.16 -1.58661,2.575736 -6.378969,23.321803 -6.397841,27.696181 -0.0043,1.0031 -0.273026,2.615818 -0.597109,3.583818 -1.161097,3.468073 -1.181691,3.903313 -0.179057,3.784223 0.730584,-0.0868 0.950619,-0.34526 1.314539,-1.54422 z m 11.255188,-8.785333 c 3.90187,-4.655931 7.09431,-8.672525 7.09431,-8.925763 0,-0.530185 -0.95987,-0.992573 -1.2858,-0.619397 -0.29055,0.332671 -8.5364,10.378327 -11.46285,13.964831 -1.68786,2.068551 -2.22412,2.941091 -1.98481,3.229443 0.18035,0.217306 0.23315,0.489853 0.11735,0.605659 -0.11581,0.11581 -0.067,0.21056 0.10847,0.21056 0.17546,0 3.51146,-3.809401 7.41333,-8.465333 z M 96.318999,88.481201 c 0.321608,-0.387513 0.2405,-0.982344 -0.425425,-3.12 -0.452535,-1.452662 -1.054129,-3.750862 -1.336876,-5.107112 l -0.514085,-2.465909 -1.133437,0.540498 c -1.086179,0.517963 -1.124925,0.594094 -0.929282,1.825909 0.112286,0.706976 0.388999,2.616725 0.614918,4.243888 0.539677,3.886968 2.292179,5.80819 3.724187,4.082726 z m 22.253461,-6.901367 c 0.21946,-0.355096 -0.7047,-1.579836 -1.1921,-1.579836 -0.49531,0 -0.66483,0.952645 -0.25698,1.444075 0.46156,0.556147 1.14944,0.620593 1.44908,0.135761 z m 1.26345,-1.573223 c 0.27961,-0.452422 -0.4152,-1.606613 -0.96717,-1.606613 -0.56509,0 -0.62028,1.000459 -0.0847,1.536 0.46584,0.465846 0.79403,0.487876 1.05191,0.07061 z m -28.174751,-3.05679 c 0.341639,-0.258403 0.477162,-0.469823 0.301162,-0.469823 -0.176,0 -0.599523,0.21142 -0.941162,0.469823 -0.341639,0.258403 -0.477161,0.469823 -0.301161,0.469823 0.176,0 0.599522,-0.21142 0.941161,-0.469823 z m 3.058839,-0.789823 c 0,-0.176 -0.351502,-0.32 -0.781115,-0.32 -0.429613,0 -0.870111,0.144 -0.978885,0.32 -0.115384,0.186695 0.21001,0.32 0.781114,0.32 0.538387,0 0.978886,-0.144 0.978886,-0.32 z m -3.389142,-0.803464 c 0.863971,-0.262095 2.015971,-0.488913 2.559999,-0.504041 l 0.989143,-0.0275 -0.96,-0.30611 c -1.70285,-0.542979 -4.64,0.115539 -4.64,1.040302 0,0.375868 0.213323,0.35479 2.050858,-0.202646 z m 0.335226,-7.596536 c 0.08705,-0.396 0.368489,-1.783492 0.625414,-3.083317 0.256925,-1.299824 0.618043,-2.514224 0.802485,-2.698666 0.669736,-0.669736 0.774899,0.159508 0.28166,2.220978 -0.433243,1.810718 -0.441904,2.224955 -0.06175,2.953552 0.394109,0.755348 0.44238,0.77439 0.444137,0.175205 0.0034,-1.158836 0.683252,-2.687752 1.195145,-2.687752 0.380415,0 0.446464,0.233521 0.294155,1.04 -0.362254,1.918145 -0.368951,2.250618 -0.04733,2.349612 0.176,0.05417 0.622739,-0.54233 0.992754,-1.325559 0.532645,-1.127477 0.578137,-1.424053 0.218436,-1.424053 -0.514423,0 -0.325264,-0.962861 0.42213,-2.148741 0.568917,-0.902694 0.561161,-1.051259 -0.05488,-1.051259 -0.362744,0 -0.442958,-0.18465 -0.289817,-0.667153 0.205819,-0.648478 0.188577,-0.651972 -0.615966,-0.124815 -0.455241,0.298285 -1.054752,0.455214 -1.332246,0.348729 -0.48942,-0.187808 -0.475033,-0.446391 0.117767,-2.116761 0.120904,-0.340676 -0.03636,-0.298358 -0.541813,0.145796 -0.573803,0.504217 -0.826562,0.554352 -1.301006,0.258057 -1.159043,-0.723835 -1.57446,0.360561 -1.78092,4.648886 -0.174005,3.614217 0.16346,5.317041 0.63165,3.187261 z m -15.17062,-1.148175 c 1.238059,-1.002519 0.482724,-1.352048 -1.296948,-0.600159 -0.879184,0.371445 -1.598516,0.790775 -1.598516,0.931844 0,0.498184 2.178857,0.248588 2.895464,-0.331685 z m 11.402219,-4.211825 c -0.510295,-2.448897 -1.337683,-3.047662 -1.337683,-0.968057 0,0.788297 0.14895,1.288057 0.383896,1.288057 0.213196,0 0.568919,0.889308 0.8,2 0.362309,1.741434 0.427164,1.855203 0.501658,0.88 0.04706,-0.616 -0.109486,-2.056 -0.347871,-3.2 z m -12.64288,2.350404 c 0.975263,-0.882601 0.753239,-1.477296 -0.454803,-1.218198 -1.645533,0.35293 -2.182811,1.207656 -0.96,1.52721 0.308,0.08049 0.620661,0.163048 0.694803,0.183464 0.07414,0.02042 0.398142,-0.201198 0.72,-0.492476 z m 31.763219,-2.724333 c -0.0326,-2.249382 -0.73957,-2.300312 -1.47237,-0.106071 -0.69584,2.083563 -0.7,2.01688 0.13435,2.152654 1.11423,0.18132 1.36476,-0.201876 1.33802,-2.046583 z M 89.672137,61.474721 c -0.16451,-0.107098 -0.541302,-0.626723 -0.837315,-1.154723 -0.473031,-0.843748 -0.512831,-0.863123 -0.328665,-0.16 0.115247,0.44 0.408508,1.027339 0.65169,1.305197 0.243183,0.277859 0.463727,0.853859 0.490097,1.28 0.04117,0.665252 0.06741,0.643976 0.185624,-0.150475 0.07572,-0.508902 0.0031,-1.012902 -0.161431,-1.119999 z M 76.277912,59.351004 c -0.04709,-2.854254 -1.604856,-8.350009 -2.651154,-9.353189 -0.319986,-0.306799 -0.769277,-1.133816 -0.998424,-1.837816 -0.396192,-1.217206 -0.427971,-1.240754 -0.647786,-0.48 -0.127135,0.44 -0.678275,1.88 -1.224755,3.2 -0.718415,1.7353 -0.988287,2.887446 -0.974414,4.16 0.01503,1.378808 0.08187,1.604057 0.308591,1.04 0.159173,-0.396 0.435301,-0.72 0.61362,-0.72 0.327614,0 0.452396,0.409303 0.824687,2.705115 0.169634,1.04608 1.257282,3.693472 1.518225,3.695438 0.04042,3.05e-4 0.0735,-1.031086 0.0735,-2.291979 0,-1.548859 0.129756,-2.336224 0.4,-2.42722 0.288321,-0.09708 0.4,0.364145 0.4,1.651979 0,1.006547 0.143181,1.786666 0.32792,1.786666 0.180356,0 0.468776,0.370478 0.640933,0.823285 0.70363,1.850688 1.434847,0.822987 1.389061,-1.952279 z M 107.52,58.879998 c 0,-0.176 -0.1525,-0.32 -0.33889,-0.32 -0.18639,0 -0.24989,0.144 -0.14111,0.32 0.10877,0.176 0.26127,0.32 0.33888,0.32 0.0776,0 0.14112,-0.144 0.14112,-0.32 z m -0.47411,-4.653199 c -0.29091,-1.707775 -0.45077,-3.699441 -0.35525,-4.425923 0.16885,-1.284249 0.16075,-1.276509 -0.29231,0.279123 -0.61833,2.123078 -0.5974,2.731201 0.18435,5.356153 0.9044,3.036805 1.09967,2.526975 0.46321,-1.209353 z m 4.33078,-4.08562 c 0.47425,-2.811695 0.22495,-6.783798 -0.47427,-7.556424 -0.27632,-0.305332 -0.5107,-0.759811 -0.52084,-1.009953 -0.0373,-0.92002 -1.65437,3.107005 -1.73766,4.327303 -0.0731,1.071262 -0.0262,1.180134 0.31025,0.72 0.73439,-1.004325 1.22298,-0.659689 0.93271,0.657894 -0.30129,1.367556 -0.2837,3.186711 0.0485,5.018119 0.32175,1.773759 0.93245,0.859829 1.4413,-2.156939 z m -40.764742,-3.50118 c -0.08877,-0.22 -0.161404,-0.04 -0.161404,0.4 0,0.44 0.07263,0.62 0.161404,0.4 0.08877,-0.22 0.08877,-0.58 0,-0.8 z m 50.371952,31.999999 c 0.11163,-0.859649 -0.037,-1.549664 -0.29893,-1.38778 -0.74146,0.458244 -1.95996,-0.619017 -1.95933,-1.73222 0.002,-2.899309 2.74787,-6.467469 6.91492,-8.984486 1.46628,-0.885679 3.44519,-2.322492 4.39758,-3.192919 0.95239,-0.870427 1.81942,-1.582595 1.92674,-1.582595 0.44256,0 0.14909,0.902482 -0.47803,1.470015 -0.8767,0.793404 -2.34283,3.300658 -2.08237,3.561112 0.11122,0.111219 0.61691,-0.195094 1.12377,-0.680695 1.12315,-1.076039 1.51552,-0.657515 0.85828,0.915482 -0.49573,1.186435 -0.12199,1.58156 0.70949,0.750086 0.83311,-0.833117 1.09523,0.249476 0.2949,1.218026 -0.42083,0.509286 -1.17726,1.691953 -1.68095,2.628148 -2.05228,3.814495 -10.06044,9.592766 -9.72607,7.017826 z m -0.38572,-5.601821 c 0.90697,-1.694686 1.22875,-0.817459 0.33951,0.925579 -1.01707,1.993621 -0.61525,1.746772 1.40261,-0.861665 1.01352,-1.310151 2.0609,-2.382093 2.32752,-2.382093 0.36193,0 0.26661,0.286015 -0.37614,1.12871 -1.15097,1.508994 -0.83532,1.697589 0.51298,0.306496 1.21438,-1.252914 1.80118,-1.457706 1.25554,-0.438181 -0.55276,1.032843 0.0658,0.646767 2.231,-1.392488 2.21134,-2.082714 2.72054,-3.411328 0.94277,-2.459896 -1.27052,0.679966 -1.68814,0.108019 -0.87812,-1.202627 0.93517,-1.513126 0.57353,-1.383421 -3.18027,1.140629 -3.42784,2.304873 -5.87971,5.73975 -5.78695,8.107079 0.0172,0.43967 0.18711,0.156518 0.4269,-0.711543 0.21906,-0.793002 0.57125,-1.765002 0.78265,-2.16 z m 5.48184,0.03258 c 0,-0.282257 -1.15709,0.504225 -1.76358,1.198723 -0.52123,0.596855 -0.41922,0.566384 0.56358,-0.168341 0.66,-0.493407 1.2,-0.957079 1.2,-1.030382 z m 3.04,-0.430761 c 0.31855,-0.352 0.50719,-0.64 0.41919,-0.64 -0.088,0 -0.42064,0.288 -0.73919,0.64 -0.31856,0.352 -0.5072,0.64 -0.4192,0.64 0.088,0 0.42064,-0.288 0.7392,-0.64 z"
     id="path1"
     transform="translate(-57.675975,-35.039967)" />
</svg>
