<?xml version="1.0" encoding="UTF-8" standalone="no"?>
<!-- Created with Inkscape (http://www.inkscape.org/) -->

<svg
   version="1.1"
   id="svg1"
   width="95.700012"
   height="107.07372"
   viewBox="0 0 95.700015 107.07372"
   sodipodi:docname="Icon_savant.svg"
   inkscape:version="1.4.2 (ebf0e940d0, 2025-05-08)"
   xmlns:inkscape="http://www.inkscape.org/namespaces/inkscape"
   xmlns:sodipodi="http://sodipodi.sourceforge.net/DTD/sodipodi-0.dtd"
   xmlns="http://www.w3.org/2000/svg"
   xmlns:svg="http://www.w3.org/2000/svg">
  <defs
     id="defs1" />
  <sodipodi:namedview
     id="namedview1"
     pagecolor="#505050"
     bordercolor="#eeeeee"
     borderopacity="1"
     inkscape:showpageshadow="0"
     inkscape:pageopacity="0"
     inkscape:pagecheckerboard="0"
     inkscape:deskcolor="#505050"
     showgrid="false"
     inkscape:zoom="4.2301186"
     inkscape:cx="41.488199"
     inkscape:cy="54.135599"
     inkscape:window-width="1838"
     inkscape:window-height="1011"
     inkscape:window-x="40"
     inkscape:window-y="47"
     inkscape:window-maximized="1"
     inkscape:current-layer="svg1" />
  <path
     style="fill:#0160a9"
     d="M 28.825603,106.89526 C 1.5134466,104.47096 -9.6792424,72.608939 9.8231666,52.801387 L 11.801156,50.792449 10.924895,47.081038 C 9.9295876,42.865404 8.4893186,36.473485 6.5915476,27.849627 5.2505166,21.755712 3.7700206,15.237292 2.8685936,11.457979 1.6916146,6.5233862 3.2471876,3.6950882 8.5932206,1.0496282 c 4.0979944,-2.02787297 4.4780554,-1.64582697 5.9006674,5.931495 1.227709,6.5392048 4.448795,25.8851168 4.774945,28.6784298 0.451711,3.868672 0.55969,3.871057 16.661016,0.367919 26.903634,-5.853378 26.255404,-5.74281 28.404324,-4.844935 1.89466,0.791639 2.16674,2.269872 1.30076,7.06709 -0.72737,4.029411 -0.93236,9.788226 -0.50688,14.24 0.53889,5.638378 0.50305,5.538265 1.90384,5.318613 4.23515,-0.664097 4.74167,-0.643794 5.61034,0.224882 2.35429,2.354287 -0.39223,8.356767 -4.37258,9.556207 -2.56783,0.77378 -0.91792,7.13244 2.91353,11.22857 l 1.43828,1.53764 1.46409,-1.48569 c 1.70985,-1.73507 2.06388,-1.93357 7.00697,-3.92868 3.81869,-1.54127 7.14186,-3.52353 9.73773,-5.80851 1.80209,-1.58626 1.45388,-1.69068 3.30235,0.99026 l 1.56741,2.2733 -3.19518,2.9714 c -3.06467,2.85004 -3.17292,2.99608 -2.65013,3.57539 3.09248,3.42682 3.06523,10.45461 -0.0573,14.76506 -5.5282,7.631451 -19.53265,4.11804 -20.16296,-5.05844 l -0.16484,-2.4 -1.12,-0.10646 c -2.93092,-0.27857 -5.21415,1.46334 -8.02038,6.11889 -6.43568,10.676821 -17.608623,15.866561 -31.50367,14.633201 z m 8.217759,-2.68479 c 1.79581,-0.12244 6.666288,-2.06525 6.666288,-2.65915 0,-0.56913 -0.329839,-0.53461 -2.295711,0.24027 -4.836553,1.90639 -10.2255,2.24251 -15.464408,0.96454 -3.902409,-0.95194 -4.31988,-0.96922 -4.31988,-0.17888 0,1.44075 7.140066,2.1973 15.413711,1.63322 z m -16.447044,-2.70084 c 0.06967,-0.209 -0.101334,-0.38 -0.38,-0.38 -0.278667,0 -0.506667,0.228 -0.506667,0.50666 0,0.5651 0.688883,0.46669 0.886667,-0.12666 z m 11.273333,-0.38 c 0.78259,-0.78259 0.796383,-1.550811 0.157812,-8.789781 -0.627259,-7.11075 -0.890415,-7.95954 -2.202978,-7.1056 -0.371159,0.24147 -1.610834,0.5423 -2.754834,0.66851 -3.199465,0.35297 -4.805564,1.42117 -9.580315,6.37176 l -2.380315,2.46797 1.388271,1.41454 c 2.292651,2.33604 6.471406,4.181081 11.58365,5.114511 3.168748,0.57857 3.064309,0.58249 3.788709,-0.14191 z m 4.530411,-0.24 c 0.02773,-0.484 0.02311,-1.096001 -0.01026,-1.360001 -0.03337,-0.264 -0.164056,-2.856 -0.290411,-5.76 l -0.229737,-5.28 -0.64,0.95119 c -0.603792,0.89739 -0.987977,9.54785 -0.522678,11.768811 0.207479,0.99033 1.633465,0.72081 1.693089,-0.32 z m -18.290411,-0.40246 c 0,-0.15658 -1.071519,-1.004521 -2.381153,-1.884311 -2.531207,-1.70042 -4.202912,-3.26083 -4.501592,-4.20188 -0.100216,-0.31576 -0.536596,-0.8063 -0.969733,-1.0901 -0.4694274,-0.30758 -0.7875224,-0.82184 -0.7875224,-1.27318 0,-1.31388 -1.11572,-2.38901 -1.790573,-1.72543 -0.712763,0.70086 -0.01936,1.66003 4.4978414,6.22176 3.870246,3.908401 5.932732,5.282691 5.932732,3.953141 z m 27.519999,0.36246 c 0,-0.154 0.396,-0.36169 0.88,-0.46154 0.977513,-0.20165 4.082563,-2.082571 3.839383,-2.325751 -0.28391,-0.28391 -5.720374,2.422071 -5.519396,2.747271 0.243697,0.39431 0.800013,0.42214 0.800013,0.04 z m -1.356714,-1.924021 c 2.203729,-1.11573 7.741477,-5.22027 9.493697,-7.03666 1.71271,-1.77544 0.73061,-2.67372 -8.258846,-7.55398 l -2.841863,-1.54281 -0.540718,0.71684 c -0.410829,0.54465 -1.014259,0.77269 -2.512018,0.94929 -1.084214,0.12784 -2.06955,0.33068 -2.189635,0.45077 -0.865605,0.8656 -0.329622,12.39864 0.689586,14.83818 l 0.425145,1.017611 1.948969,-0.45466 c 1.071933,-0.25007 2.77549,-0.873131 3.785683,-1.384581 z m 11.646567,-3.50335 c 5.14688,-5.47581 8.59015,-14.02681 8.59015,-21.33278 0,-2.85195 -1.77955,-1.2788 -2.25852,1.99657 -0.14827,1.01397 -0.49689,2.77958 -0.7747,3.92358 -0.27781,1.144 -0.55414,2.6608 -0.61407,3.37067 -0.0599,0.70987 -0.39733,1.86187 -0.74978,2.56 -0.35245,0.69813 -0.74781,1.62933 -0.87859,2.06933 -0.13078,0.44 -0.68865,1.2202 -1.2397,1.73378 -0.62961,0.5868 -0.85379,0.98317 -0.60328,1.06667 0.21925,0.0731 0.39864,0.2818 0.39864,0.46382 0,0.52689 -4.51532,5.39167 -4.8261,5.1996 -0.3572,-0.22077 -1.5739,0.41837 -1.5739,0.82677 0,1.13652 2.77953,-0.0158 4.52985,-1.87801 z m -4.80904,0.34737 c 0.39804,-0.50754 0.38673,-0.51886 -0.12081,-0.12082 -0.53304,0.41804 -0.70256,0.68082 -0.43918,0.68082 0.0664,0 0.31844,-0.252 0.55999,-0.56 z m 1.28,-0.96 c 0.39804,-0.50754 0.38673,-0.51886 -0.12081,-0.12082 -0.53304,0.41804 -0.70256,0.68082 -0.43919,0.68082 0.0665,0 0.31845,-0.252 0.56,-0.56 z m 28.25647,-1.88131 c -0.96388,-3.12408 -0.83815,-3.0679 -2.72871,-1.2194 -2.81071,2.74817 -2.42918,3.57523 1.67668,3.6346 l 1.80526,0.0261 z m 1.92817,-0.74415 c -1.08187,-3.18364 -1.3242,-3.19106 -0.44368,-0.0136 0.69671,2.51414 0.90799,3.01594 1.16263,2.7613 0.0882,-0.0882 -0.23536,-1.32464 -0.71895,-2.74772 z m 3.81084,1.23708 c 1.61454,-1.42118 1.64796,-1.73441 0.21857,-2.04836 -0.51579,-0.11329 -1.53553,-0.63897 -2.2661,-1.16819 -1.74542,-1.26437 -1.81091,-1.10429 -0.79552,1.94463 1.0003,3.00362 0.9177,2.96667 2.84305,1.27192 z M 20.75095,86.516929 c 1.111783,-0.93926 1.53891,-1.7073 0.949472,-1.7073 -0.195054,0 -7.607514,6.17753 -8.822559,7.3527 -0.149483,0.14458 -0.171475,0.57893 -0.04887,0.96522 0.202892,0.63926 0.514871,0.41938 3.473087,-2.44779 1.787593,-1.73257 3.789586,-3.60585 4.448871,-4.16283 z m 53.038703,4.40381 c 0,-0.15888 0.76696,-0.79796 1.70436,-1.42018 2.96586,-1.96862 2.9283,-2.39472 -0.26436,-2.99929 -0.528,-0.1 -1.20489,-0.30676 -1.50419,-0.45951 -0.9615,-0.4907 -1.72358,3.8921 -0.83181,4.78387 0.45427,0.45427 0.896,0.50116 0.896,0.0951 z m -59.615498,-1.90578 c 1.559017,-1.23233 7.464374,-6.86853 6.429514,-6.13647 -0.712642,0.50413 -1.214018,0.16954 -1.214018,-0.81016 0,-2.36771 -2.336925,-8.7787 -3.2,-8.7787 -0.682932,0 -1.199526,-0.79166 -1.768094,-2.70953 -0.53618,-1.80862 -1.575183,-2.46039 -4.224341,-2.64993 l -2.2109604,-0.15819 -0.529149,1.39882 c -2.297492,6.07351 -0.870623,15.04337 3.1367494,19.71883 1.427075,1.66499 1.623773,1.67187 3.580299,0.12533 z m 74.160718,0.29857 c 0.10065,-0.16285 -0.64685,-0.53101 -1.66111,-0.81812 -1.01426,-0.28711 -2.13211,-0.60375 -2.48411,-0.70365 -1.27915,-0.36303 -0.0679,0.38916 1.70397,1.05816 2.20108,0.83106 2.21278,0.83328 2.44125,0.46361 z M 7.5496506,88.205549 c 0,-0.0682 -0.426448,-1.04024 -0.947663,-2.16 -3.913564,-8.40776 -2.375607,-18.37441 4.3718464,-28.331526 2.628227,-3.878435 3.214936,-6.180866 0.89828,-3.525134 -2.1134804,2.422819 -6.0504394,8.32893 -5.9936554,8.9915 0.03154,0.36808 -0.381238,1.4996 -0.917294,2.51449 -0.536057,1.0149 -0.928943,2.1669 -0.873081,2.56 0.05586,0.39311 -0.133357,0.94967 -0.420488,1.2368 -0.40659,0.40659 -0.572732,1.50362 -0.751183,4.96 l -0.229127,4.43795 1.346506,4.16 c 0.740577,2.288 1.568928,4.412 1.840778,4.72 0.422935,0.47917 1.675081,0.80503 1.675081,0.43592 z m 81.6000024,-1.3588 c 0,-3.66009 -0.76658,-4.15893 -3.05916,-1.9907 -2.15621,2.03925 -2.16246,1.97693 0.25916,2.58209 2.84679,0.71141 2.8,0.7213 2.8,-0.59139 z m 1.82427,-1.96469 c -0.16104,-2.12992 -1.59222,-5.5288 -2.43527,-5.78351 -0.28802,-0.087 -0.38159,0.0241 -0.25893,0.30741 1.651,3.81397 1.81566,4.40015 1.83251,6.52367 0.0166,2.08927 0.0513,2.19693 0.51563,1.6 0.37388,-0.48062 0.46006,-1.13995 0.34606,-2.64757 z m -9.09418,2.40757 c 0.18014,-0.5024 -0.32522,-1.52 -0.75486,-1.52 -0.80992,0 -1.21052,0.78307 -0.69573,1.36 0.58453,0.65508 1.24687,0.72814 1.45059,0.16 z m -24.61009,-0.49528 c 0.33056,-0.53487 -0.44043,-1.02709 -5.83436,-3.72477 -4.29468,-2.14791 -7.247887,-3.33775 -5.778976,-2.32833 1.608426,1.10529 3.874676,2.46838 4.103896,2.46838 0.16523,0 0.9798,0.51858 1.81016,1.15241 0.83036,0.63383 1.95739,1.30435 2.50451,1.49005 0.54712,0.18569 1.27881,0.53111 1.62597,0.76758 0.71156,0.4847 1.33434,0.55404 1.5688,0.17468 z m 27.84121,-2.20518 c 1.47516,-1.32044 1.72475,-1.69954 1.11895,-1.69954 -0.44933,0 -2.84016,2.20966 -2.84016,2.62494 0,0.47335 0.39705,0.25987 1.72121,-0.9254 z m -12.30731,-0.85731 c 0.77572,-1.25515 0.8148,-1.48223 0.25509,-1.48223 -0.42419,0 -1.50899,1.5883 -1.50899,2.20937 0,0.6825 0.59647,0.3366 1.2539,-0.72714 z m -13.95992,-1.08223 c 0.91752,-2.05537 1.06694,-2.64765 1.32557,-5.25435 0.23488,-2.36736 -4.38583,-7.7574 -7.49656,-8.7447 -2.88186,-0.91467 -7.754657,4.30402 -7.559735,8.09635 0.09159,1.78186 0.02084,1.72859 6.531355,4.91874 6.78313,3.32375 6.191,3.24282 7.19937,0.98396 z m 22.94602,0.88 c 0,-0.528 -0.144,-0.96 -0.32,-0.96 -0.35593,0 -0.44166,1.37167 -0.10667,1.70666 0.36153,0.36153 0.42667,0.24753 0.42667,-0.74666 z m 3.50176,-1.15447 c 2.24095,-2.07473 2.49005,-2.71662 0.65373,-1.68455 -1.95631,1.09951 -3.93551,3.47902 -2.89373,3.47902 0.16596,0 1.17396,-0.80751 2.24,-1.79447 z m -4.976,0.96829 c 0.30039,-0.7828 0.23526,-0.88624 -0.28576,-0.45382 -0.53196,0.44148 -0.63687,0.96 -0.19424,0.96 0.15717,0 0.37317,-0.22778 0.48,-0.50618 z m -44.80644,-1.1088 c 0.814373,-0.36023 1.480678,-0.86423 1.480678,-1.12 0,-0.25576 0.262898,-0.46502 0.584219,-0.46502 3.309428,0 3.667845,-6.88715 0.517109,-9.93648 -3.095924,-2.99628 -9.939209,0.19349 -11.191342,5.21648 -0.288619,1.1578 0.526115,1.20839 1.135107,0.0705 1.518905,-2.8381 4.010465,-3.88433 7.834907,-3.28995 2.736241,0.42526 0.79714,7.43632 -2.443438,8.83455 -1.032109,0.44534 -1.876562,0.93012 -1.876562,1.07731 0,0.50841 2.483563,0.26543 3.959322,-0.38737 z m 46.4781,-2.35237 c 0.18068,-1.53733 0.1392,-1.85152 -0.22831,-1.72898 -0.32015,0.10674 -0.44911,0.71124 -0.44911,2.10517 0,2.38937 0.37699,2.18002 0.67742,-0.37619 z m -2.60673,-2.60371 c 1.20244,-0.34956 1.72493,-0.64132 1.51838,-0.84787 -0.5417,-0.5417 -3.63156,1.18792 -5.34907,2.99427 l -1.6,1.68276 1.79869,-1.6481 c 1.31695,-1.20669 2.28972,-1.79085 3.632,-2.18106 z m -44.251166,0.90214 c 0.711062,-0.62367 1.180077,-2.02432 0.922149,-2.75388 -0.171565,-0.48527 -0.484964,-0.26211 -1.872914,1.33365 -1.06634,1.226 -1.523102,1.97333 -1.267817,2.07433 0.547345,0.21656 1.569516,-0.0848 2.218582,-0.6541 z m 51.283516,-0.69641 c -1.70344,-1.24797 -3.43709,-1.71553 -4.20425,-1.13387 -0.5321,0.40344 -0.50134,0.44046 0.38121,0.45885 0.528,0.011 1.752,0.3595 2.72,0.77443 2.37116,1.0164 2.59816,0.99594 1.10304,-0.0994 z m -52.28262,-3.98225 c -0.850303,-0.8503 -3.860422,1.29369 -3.860422,2.74963 0,1.36252 0.405801,1.25301 2.298974,-0.62041 1.125308,-1.11357 1.739533,-1.95114 1.561448,-2.12922 z m 57.55904,0.60054 c 1.3875,-0.87589 1.87749,-1.45296 1.2337,-1.45296 -0.56786,0 -2.81316,1.54163 -2.81316,1.93153 0,0.45254 0.20094,0.39165 1.57946,-0.47857 z m -1.68576,-0.94809 c 0.85047,-0.42632 1.9423,-0.87393 2.4263,-0.99469 1.00048,-0.24963 1.05951,-0.42235 0.43585,-1.27527 -0.4301,-0.5882 -0.4883,-0.57872 -1.84,0.29982 -3.3141,2.15398 -3.99078,3.45826 -1.02215,1.97014 z m -64.496772,-0.99001 0.51693,-1.10429 -2.27693,-1.2429 c -9.935876,-5.42367 -13.31693,-6.96552 -13.31693,-6.07287 0,0.20614 -0.230925,0.62997 -0.5131684,0.94185 -0.556219,0.61461 -0.175824,0.86643 2.7792994,1.83988 1.105042,0.36401 2.267716,1.04801 8.422699,4.95508 3.316566,2.1053 3.694855,2.1642 4.3881,0.68325 z m 18.886649,-2.67372 c 1.472031,-1.38538 3.597213,-3.36538 4.722633,-4.4 2.4014,-2.20769 3.90329,-4.15192 3.67229,-4.75389 -0.11005,-0.28679 -0.74469,0.14311 -1.92258,1.30232 -0.96707,0.95174 -1.87531,1.73043 -2.01832,1.73043 -0.14301,0 -0.99637,0.70229 -1.89635,1.56065 -1.37832,1.31458 -4.758194,3.28712 -6.827326,3.98452 -0.492902,0.16613 -0.466869,0.32576 0.267359,1.63944 1.034363,1.85068 0.855302,1.89826 4.002294,-1.06347 z m 19.290243,0.40462 c 2.48389,-0.95316 -2.23538,-9.64906 -8.75145,-16.125762 -4.45418,-4.427267 -5.77655,-5.268047 -6.75174,-4.292852 l -0.65153,0.651526 1.57048,1.017633 c 0.86376,0.559698 2.10455,1.630996 2.75732,2.380663 3.48284,3.999863 4.66729,5.33363 6.44193,7.254082 2.13897,2.3147 3.65117,5.64763 3.65117,8.04725 0,1.30521 0.42783,1.56862 1.73382,1.06746 z m 1.68793,-1.95967 c -0.0811,-0.31135 -0.15285,-0.13409 -0.15937,0.39391 -0.007,0.528 0.0599,0.78274 0.14752,0.56609 0.0877,-0.21665 0.093,-0.64865 0.0119,-0.96 z m -31.981562,-1.06622 c 1.164265,-0.40587 2.293097,-9.579873 1.178772,-9.579873 -0.897887,0 -1.38673,0.808123 -1.690952,2.795363 -0.390905,2.55348 -0.768874,7.12464 -0.589106,7.12464 0.06908,0 0.564655,-0.15306 1.101286,-0.34013 z m 30.655932,-3.46805 c -0.4548,-0.8975 -0.89491,-1.63182 -0.97804,-1.63182 -0.0831,0 0.23533,0.78797 0.70767,1.75105 0.47234,0.96309 0.91246,1.6974 0.97804,1.63182 0.0656,-0.0656 -0.25287,-0.85355 -0.70767,-1.75105 z m -51.54369,-4.466058 c -0.204843,-0.204842 -2.048047,1.830488 -2.063823,2.278938 -0.0047,0.13459 0.459391,0.53011 1.031391,0.87894 l 1.04,0.63424 0.09705,-1.79522 c 0.05338,-0.98738 0.0063,-1.885978 -0.10462,-1.996898 z m 59.49133,2.256588 c 0.27705,-2.021268 0.15816,-2.09844 -2.87386,-1.865381 -2.22771,0.171236 -2.79806,0.333823 -3.52085,1.003681 -0.84873,0.78658 -0.604,1.06784 0.45198,0.51946 0.29643,-0.15394 1.38309,-0.38232 2.4148,-0.5075 2.46863,-0.29955 2.37391,0.47522 -0.11583,0.94739 -3.15408,0.59816 -2.2806,1.38375 1.48535,1.3359 l 1.96535,-0.025 z m -43.223406,-0.40338 c 0.847196,-0.16552 1.890901,-0.21297 2.319346,-0.10543 l 0.77899,0.19551 -0.200272,-5.394526 c -0.242023,-6.519117 0.156318,-6.064046 -4.287751,-4.898399 -6.63019,1.739051 -6.261139,1.611839 -5.656956,1.949957 0.313581,0.175489 0.546287,0.690026 0.546287,1.2079 0,1.296127 0.92122,6.395628 1.27467,7.056058 0.324536,0.6064 2.084384,0.60267 5.225686,-0.0111 z m 33.930066,0.16723 c -0.10422,-0.27159 -0.25812,-0.42517 -0.342,-0.34129 -0.0839,0.0839 -0.0576,0.30609 0.0584,0.4938 0.31553,0.51055 0.49996,0.41136 0.28358,-0.15251 z m -19.772448,-1.41299 c 10.407398,-0.60202 11.611288,-1.131695 8.553768,-3.763396 -2.38717,-2.054707 -5.02079,-3.929816 -5.519487,-3.929816 -0.21522,0 -0.745811,-0.278852 -1.179092,-0.619671 -1.350017,-1.061923 -4.65506,-1.984416 -6.725254,-1.877131 l -1.867909,0.0968 -0.211966,1.6 c -0.505938,3.819007 -0.314007,9.487124 0.30994,9.153194 0.317886,-0.17013 3.305886,-0.46712 6.64,-0.659982 z M 22.083119,58.969626 c -0.249543,-1.38935 -0.74855,-2.489593 -0.761953,-1.68 -0.01086,0.65614 0.620797,2.880003 0.818026,2.880003 0.0877,0 0.06247,-0.540003 -0.05607,-1.200003 z m 37.868924,-8.879999 c -0.56609,-6.539519 -0.70848,-7.416819 -1.27729,-7.869688 -0.46605,-0.371062 -0.57785,-0.70603 -0.41105,-1.23159 0.19067,-0.600735 0.12983,-0.692435 -0.36246,-0.546337 -1.5465,0.458952 -6.31225,1.166364 -12.353549,1.833719 -5.75538,0.635771 -8.078048,1.232892 -4.858311,1.248996 5.379483,0.0269 10.08416,3.053173 17.0005,10.935525 1.52065,1.733043 2.79507,3.114624 2.83205,3.070181 0.037,-0.04444 -0.21947,-3.392806 -0.56989,-7.440806 z m -38.578498,4.930261 c -0.121146,-0.825418 -0.205519,-0.917634 -0.446161,-0.487631 -0.323417,0.577913 -0.04248,1.899875 0.351952,1.656105 0.133984,-0.08281 0.176378,-0.60862 0.09421,-1.168474 z m 42.482588,-5.117223 c -0.0449,-8.128924 -0.12399,-8.678472 -1.2311,-8.549988 -0.76701,0.08902 -0.83323,0.214802 -0.80911,1.53695 0.0538,2.947447 0.86365,11.050724 1.13375,11.344 0.15399,0.1672 0.27998,0.6112 0.27998,0.986666 0,0.619686 0.24025,1.109334 0.54431,1.109334 0.0647,0 0.10169,-2.892133 0.0822,-6.426962 z M 21.24593,48.511478 c 10.689913,-2.677889 16.204607,-2.720483 22.270158,-0.172009 2.640312,1.109341 3.109857,1.154042 3.824735,0.364114 0.50551,-0.558581 0.4038,-0.641011 -2.170453,-1.759059 -5.151841,-2.237546 -8.876155,-2.638492 -13.813919,-1.487156 -3.040897,0.709045 -3.585063,0.677062 -1.975804,-0.116125 1.365943,-0.67326 0.942419,-0.659831 -2.675771,0.08484 -4.431413,0.912045 -7.795751,2.1822 -9.715225,3.667839 -0.884555,0.68463 -0.702135,0.659667 4.256279,-0.582446 z M 17.9858,36.597003 C 16.81263,31.150296 14.440646,18.323266 13.468672,12.169628 12.097433,3.4882162 11.990684,3.0828202 11.229651,3.6665612 c -0.525324,0.402944 -0.559999,0.543529 -0.193522,0.784596 0.300352,0.19757 0.383102,0.61057 0.252839,1.261888 -0.106502,0.532507 -0.05342,1.807083 0.117969,2.832389 0.171385,1.025307 0.525492,4.0241938 0.786906,6.6641938 1.058567,10.690413 1.736105,13.864638 4.39031,20.568357 2.282615,5.765196 2.493556,5.888454 1.401647,0.819018 z m 20.203851,2.264253 c 0.484,-0.103604 2.422442,-0.240643 4.307648,-0.30453 2.507016,-0.08496 3.646269,-0.259405 4.241602,-0.649482 0.588022,-0.385284 0.927562,-0.439032 1.223262,-0.19363 0.29547,0.245222 2.03874,-0.02068 6.26841,-0.956131 5.84671,-1.293081 6.78799,-1.318678 6.34821,-0.17263 -0.11256,0.293331 -1.10883,0.603382 -2.76834,0.86154 -1.42588,0.221812 -2.65416,0.503063 -2.72952,0.625001 -0.19484,0.315247 5.2394,0.03557 6.36853,-0.327758 1.23379,-0.39701 1.74805,0.108084 0.7919,0.777794 -0.63618,0.445596 -0.65797,0.530529 -0.18289,0.712834 1.03236,0.396154 2.14918,-1.539211 2.56292,-4.441359 0.23704,-1.662736 -6.74309,-1.34374 -11.31173,0.516953 -0.616,0.250881 -2.344,0.552764 -3.84,0.67085 -1.496,0.118085 -3.656003,0.424312 -4.800003,0.680504 -3.818151,0.85505 -8.476297,2.155183 -8.799999,2.456164 -0.308021,0.286401 -0.114813,0.265071 2.32,-0.25612 z m -20.88,-10.691629 c -0.12014,-0.378527 -0.290436,-0.61623 -0.378436,-0.52823 -0.088,0.088 -0.0617,0.469703 0.05844,0.84823 0.12014,0.378527 0.290436,0.616231 0.378436,0.528231 0.088,-0.088 0.0617,-0.469704 -0.05844,-0.848231 z M 15.061997,14.488545 C 14.415748,10.66114 13.829095,7.4696282 13.758325,7.3962942 c -0.323427,-0.335139 -0.05488,1.89866 0.809033,6.7296768 0.515739,2.884011 1.047584,5.963656 1.181878,6.843656 0.134293,0.88 0.298978,1.347513 0.365965,1.038917 0.06699,-0.308595 -0.406955,-3.692595 -1.053204,-7.519999 z"
     id="path1" />
</svg>
