<?xml version="1.0" encoding="UTF-8" standalone="no"?>
<!-- Created with Inkscape (http://www.inkscape.org/) -->

<svg
   version="1.1"
   id="svg1"
   width="107.59536"
   height="95.663406"
   viewBox="0 0 107.59536 95.663409"
   sodipodi:docname="Icon_vigormortis.svg"
   inkscape:version="1.4.2 (ebf0e940d0, 2025-05-08)"
   xmlns:inkscape="http://www.inkscape.org/namespaces/inkscape"
   xmlns:sodipodi="http://sodipodi.sourceforge.net/DTD/sodipodi-0.dtd"
   xmlns="http://www.w3.org/2000/svg"
   xmlns:svg="http://www.w3.org/2000/svg">
  <defs
     id="defs1" />
  <sodipodi:namedview
     id="namedview1"
     pagecolor="#505050"
     bordercolor="#eeeeee"
     borderopacity="1"
     inkscape:showpageshadow="0"
     inkscape:pageopacity="0"
     inkscape:pagecheckerboard="0"
     inkscape:deskcolor="#505050"
     showgrid="false"
     inkscape:zoom="4.2301186"
     inkscape:cx="54.017399"
     inkscape:cy="41.606399"
     inkscape:window-width="1838"
     inkscape:window-height="1011"
     inkscape:window-x="40"
     inkscape:window-y="47"
     inkscape:window-maximized="1"
     inkscape:current-layer="svg1" />
  <path
     style="fill:#931216"
     d="m 53.095743,94.585635 c -0.958352,-1.26313 -1.095383,-1.99342 -0.488013,-2.60079 0.309316,-0.30932 0.309316,-0.52437 0,-1.01966 -0.297484,-0.47635 -0.391987,-5.05973 -0.391987,-19.01118 0,-19.82963 0.05095,-19.23425 -1.843769,-21.5465 -1.807974,-2.2064 -1.720065,-3.758796 0.323769,-5.717445 1.749039,-1.676142 1.739286,-1.636887 0.843157,-3.393444 -0.617345,-1.210096 -0.641773,-1.472904 -0.277901,-2.989693 0.495117,-2.063881 0.414612,-2.190619 -1.935921,-3.047666 -2.47294,-0.901679 -2.492942,-0.869384 1.541009,-2.48801 l 3.450344,-1.384454 3.189656,1.349487 c 4.045988,1.711784 4.026608,1.68727 1.903645,2.408888 -2.536528,0.862193 -2.788842,1.224734 -2.341216,3.364017 0.330234,1.578245 0.298237,1.86837 -0.344874,3.127063 l -0.708879,1.387415 1.62049,1.71343 c 2.147122,2.270262 2.177032,3.198012 0.185773,5.762362 -1.865379,2.40224 -1.803929,1.80018 -1.697311,16.62938 l 0.09203,12.8 h 1.759997 1.760003 l 0.0953,-2 0.0953,-2 h 1.61896 c 1.30762,0 1.58355,0.0923 1.43478,0.48 -0.10131,0.264 -0.0601,0.48 0.0915,0.48 0.15165,0 0.35861,-0.216 0.45992,-0.48 0.11561,-0.30128 0.60495,-0.48 1.31423,-0.48 h 1.13001 v 3.04 c 0,3.02933 -0.003,3.04 -0.8,3.04 -0.66596,0 -0.8,-0.15261 -0.8,-0.91084 0,-3.12002 -2.02887,-3.83442 -2.17527,-0.76595 l -0.0953,1.99679 h -3.024732 c -2.811397,0 -3.02473,0.0451 -3.02473,0.64 0,0.59486 0.213333,0.64 3.02473,0.64 h 3.024732 l 0.0953,1.99678 c 0.10062,2.10889 1.02746,3.1105 1.43527,1.55105 0.0961,-0.36731 0.30185,-0.66783 0.45732,-0.66783 0.15547,0 0.28268,-0.576 0.28268,-1.28 0,-1.152 0.08,-1.28 0.8,-1.28 0.79647,0 0.8,0.0132 0.8,3.00148 v 3.00148 l -3.04,0.0514 -3.04,0.0514 v -1.9329 -1.93286 h -1.920003 -1.919999 v 2.10103 c 0,1.15557 -0.14439,2.37083 -0.320866,2.70058 -0.214487,0.40078 -0.214487,0.66529 0,0.79785 0.598569,0.36994 0.32452,1.79015 -0.559134,2.89762 -1.070558,1.34172 -0.999027,1.34448 -2.08,-0.0803 z m 0.395099,-30.8968 c 0.0027,-0.308 -0.139099,-0.56 -0.315099,-0.56 -0.176,0 -0.317795,0.468 -0.3151,1.04 0.0037,0.78919 0.07971,0.92424 0.3151,0.56 0.170609,-0.264 0.312404,-0.732 0.315099,-1.04 z m 0.21683,-7.36 c -0.08877,-0.22 -0.161403,-0.04 -0.161403,0.4 0,0.44 0.07263,0.62 0.161403,0.4 0.08877,-0.22 0.08877,-0.58 0,-0.8 z m 1.529925,-7.0312 c 1.054703,-1.5058 -0.284198,-3.601768 -1.677428,-2.625912 -1.12348,0.786912 -0.561361,3.337112 0.735574,3.337112 0.24404,0 0.667874,-0.32004 0.941854,-0.7112 z m 19.858148,8.10003 c -0.704,-0.31999 -2.21337,-1.31189 -3.35416,-2.20422 -1.1728,-0.91738 -2.1608,-1.48221 -2.27355,-1.29978 -1.05141,1.70122 -4.30176,-2.22888 -6.78573,-8.204833 -1.48131,-3.563764 -0.26601,-11.253412 1.54146,-9.753344 0.29352,0.243604 0.44973,0.138906 0.59388,-0.398055 0.1544,-0.575119 1.86423,-1.553808 8.11685,-4.645993 13.59589,-6.723746 21.32508,-11.973003 28.082575,-19.072195 5.0836,-5.3406524 6.11025,-6.1135174 6.4298,-4.8403404 0.61174,2.437389 -0.69566,5.5849824 -3.38521,8.1499284 l -1.8455,1.76 -0.20879,2.4 c -0.36085,4.147882 -4.246385,10.039502 -7.092095,10.753731 -0.42874,0.107608 -0.77953,0.311688 -0.77953,0.453512 0,0.141823 -0.73959,0.712933 -1.64353,1.269132 l -1.64352,1.01127 1.64352,0.761456 c 0.90394,0.418801 1.64353,0.880039 1.64353,1.024975 0,0.760681 -1.27182,1.83556 -3.49369,2.952695 -5.02958,2.52882 -5.41407,3.383119 -2.67147,5.93573 l 1.83484,1.707737 -0.87263,0.219016 c -0.47995,0.120459 -0.80341,0.331011 -0.71882,0.467893 0.29722,0.480912 -2.71596,0.962852 -6.01994,0.962852 -1.83606,0 -3.79519,0.09138 -4.35362,0.203063 l -1.01532,0.20307 0.64718,0.68889 c 0.35596,0.37889 1.80285,1.25235 3.21533,1.94101 3.67931,1.79387 2.47902,2.54392 -3.4861,2.17845 l -3.01339,-0.18462 1.96627,2.82594 c 1.08145,1.55427 1.93367,2.8503 1.89382,2.88006 -0.52909,0.3951 -1.91118,0.32627 -2.95246,-0.14703 z m -8.35198,-13.388833 c -0.11229,-0.483999 -0.40303,-1.198933 -0.64609,-1.588741 -0.24306,-0.389808 -0.44193,-0.930329 -0.44193,-1.20116 0,-0.27083 -0.288,-1.029764 -0.64,-1.686519 -0.352,-0.656756 -0.64,-1.592234 -0.64,-2.07884 0,-0.486607 -0.144,-0.884739 -0.32,-0.884739 -0.69391,0 0.0509,3.4497 1.40671,6.51543 0.83789,1.894621 1.64079,2.473972 1.28131,0.924569 z m 14.10318,-4.026827 c -0.7294,-0.493231 -1.7512,-0.89779 -1.7512,-0.693349 0,0.190718 1.68472,1.091453 2.0712,1.107365 0.17116,0.007 0.0272,-0.179261 -0.32,-0.414016 z M 65.680755,36.78585 c -0.24669,-0.24669 -0.34501,-0.06838 -0.34501,0.625649 0,1.263219 0.44901,1.715331 0.58501,0.589051 0.0578,-0.478326 -0.0502,-1.024941 -0.24,-1.2147 z m 12.45499,1.874241 c 0,-0.08181 -0.324,-0.305751 -0.72,-0.497653 -0.6914,-0.335052 -0.69533,-0.329144 -0.0988,0.148741 0.65288,0.523069 0.81884,0.593783 0.81884,0.348912 z M 31.288229,55.208835 c 0.999723,-1.364 1.958633,-2.65953 2.130911,-2.87896 0.246682,-0.31419 -0.527774,-0.39491 -3.645081,-0.37993 -5.253748,0.0253 -6.01345,-0.23981 -4.025822,-1.40463 1.819221,-1.06614 1.827506,-1.06562 1.827506,0.11478 0,0.84291 0.07758,0.92974 0.587083,0.65706 0.428191,-0.22916 0.558238,-0.60029 0.480506,-1.37126 -0.05862,-0.58138 -0.02183,-0.87414 0.08175,-0.65056 0.131164,0.28311 0.381364,0.16109 0.82431,-0.40203 1.357505,-1.72578 1.894639,-1.65589 1.350698,0.17576 -0.690681,2.32577 -0.380136,2.65608 0.452221,0.481 1.169045,-3.054905 1.351772,-2.917261 -3.706627,-2.792124 -8.218029,0.203302 -11.183403,-1.083924 -7.910945,-3.434025 2.853437,-2.049183 2.698784,-2.995879 -0.785541,-4.808624 -2.798731,-1.45606 -2.927288,-1.624269 -2.46588,-3.226459 0.177399,-0.616 0.298739,-2.128 0.269645,-3.36 -0.02909,-1.232 -0.06622,-3.363386 -0.08249,-4.736414 -0.0233,-1.965209 -0.115138,-2.42542 -0.431604,-2.162776 -0.221105,0.183501 -0.473138,0.262508 -0.560074,0.175572 -0.08694,-0.08694 -0.179696,0.454314 -0.206134,1.202776 -0.03476,0.983957 0.03797,1.227906 0.262608,0.880842 0.267776,-0.413716 0.311354,-0.405277 0.315577,0.06111 0.0027,0.297613 -0.144957,0.633732 -0.328116,0.746931 -0.183159,0.113198 -0.244429,0.484933 -0.136154,0.826076 0.781287,2.461618 -0.35361,2.908322 -2.854655,1.123613 C 8.1622633,26.785723 6.3272783,23.803067 5.6460463,18.528912 5.4710943,17.174423 5.1773033,16.684436 3.4151413,14.808184 0.16043634,11.342758 -1.3177667,5.0856906 1.4647703,6.5524846 2.4809693,7.0881666 13.805217,18.672592 14.365654,19.74977 c 0.434118,0.834389 0.532883,0.881688 0.872169,0.417688 0.346485,-0.473847 0.462277,-0.449386 1.226302,0.259058 0.464029,0.430272 0.909257,0.782313 0.989395,0.782313 0.08014,0 1.778424,0.987765 3.773966,2.195032 1.995543,1.207268 6.65226,3.790398 10.34826,5.740288 3.696,1.949891 6.813306,3.734126 6.927346,3.964968 0.11404,0.230841 0.369581,0.779712 0.567868,1.219712 0.343511,0.762253 0.352979,0.750929 0.200654,-0.24 -0.08793,-0.572 -0.05547,-1.037631 0.07213,-1.034736 0.64244,0.01458 2.831722,1.536747 3.107881,2.160857 0.338425,0.764827 0.804119,0.958264 0.804119,0.33401 0,-0.208929 0.43728,0.03907 0.971733,0.55111 2.894416,2.773026 2.213689,7.870458 -2.024032,15.156415 -2.71694,4.67125 -3.747701,5.65902 -3.747701,3.59138 0,-1.61428 -0.210548,-1.63618 -1.617227,-0.1682 -1.74028,1.81612 -4.043508,3.00265 -5.835369,3.00616 l -1.532596,0.003 z M 17.004485,23.46987 c 0.642413,-1.20036 0.369096,-1.84702 -0.309938,-0.733303 -0.724059,1.187566 -0.764259,1.352266 -0.330062,1.352266 0.169807,0 0.457807,-0.278533 0.64,-0.618963 z m -1.239318,-1.968455 c -0.20456,-0.511691 -0.315706,-0.592315 -0.32914,-0.238754 -0.02695,0.709333 0.387284,1.763468 0.527583,1.342574 0.06073,-0.182181 -0.02857,-0.6789 -0.198443,-1.10382 z m 52.450578,33.78742 c -0.57137,-0.32662 -0.64744,-0.46056 -0.26617,-0.46866 0.75161,-0.016 1.54617,0.32468 1.54617,0.66289 0,0.39396 -0.34179,0.3421 -1.28,-0.19423 z m -53.0592,-20.134988 c 0.06116,-0.971068 0.265835,-1.629898 0.533779,-1.718193 0.343724,-0.113268 0.387014,0.149107 0.207065,1.254985 -0.333489,2.049465 -0.861547,2.379629 -0.740844,0.463208 z m -1.325205,-0.0062 c -0.300016,-0.361497 -0.242123,-0.526301 0.283742,-0.807736 0.563952,-0.301818 0.660662,-0.261006 0.660662,0.278798 0,0.832748 -0.472593,1.097435 -0.944404,0.528938 z m 2.014828,-3.232594 c -0.25914,-0.675309 0.173392,-1.039904 0.542075,-0.456932 0.391746,0.619441 0.383891,0.950733 -0.02254,0.950733 -0.181523,0 -0.415313,-0.222211 -0.519532,-0.493801 z m 35.569575,-2.04493 C 47.930336,28.906991 44.753048,26.839725 44.364317,25.282193 44.242609,24.794541 43.595513,23.54844 42.926326,22.513078 39.06426,16.537711 39.757121,7.2456716 44.379766,3.0208346 c 3.850202,-3.51886799 16.795979,-4.172274 16.795979,-0.847736 0,0.771969 0.16544,1.084354 0.64,1.208454 0.51948,0.135849 0.64,0.0098 0.64,-0.669304 0,-0.815853 0.0362,-0.801176 1.45717,0.589958 3.49508,3.421819 4.31992,7.4258874 2.92087,14.1790094 -0.78085,3.76912 -1.98396,6.378643 -1.59136,3.451644 0.11603,-0.865104 0.0542,-1.324027 -0.17845,-1.324027 -0.39154,0 -0.55528,0.60638 -0.83745,3.101391 -0.39555,3.497562 -1.02495,4.262604 -4.970783,6.041967 -2.856738,1.288239 -5.737271,1.698984 -7.839999,1.117932 z m 3.426878,-3.868968 c -0.69722,-1.641673 -1.034685,-1.646033 -1.724295,-0.02228 l -0.55634,1.309958 h 1.413757 1.413756 z m 2.182692,-1.72715 c -0.274958,-0.723193 -0.209716,-0.789167 0.979025,-0.990003 1.530037,-0.258498 2.988177,-1.409159 3.444497,-2.718148 0.39505,-1.133243 0.56176,-1.114321 -2.773364,-0.314779 -3.19922,0.766963 -2.932076,0.75998 -2.974789,0.07776 -0.01928,-0.308 -0.159999,0.07674 -0.3127,0.854985 -0.243501,1.240997 -0.197358,1.471216 0.375258,1.872292 0.359094,0.251519 0.784245,0.802776 0.94478,1.225015 0.160535,0.42224 0.363882,0.767708 0.451882,0.767708 0.088,0 0.02743,-0.348672 -0.134589,-0.774828 z m -4.990402,-1.137252 c 1.836977,-0.698417 0.934375,-1.96501 -1.899168,-2.665043 -3.904119,-0.964521 -4.022473,-0.963648 -3.645863,0.02691 0.869662,2.287384 3.356121,3.470355 5.545031,2.638133 z"
     id="path1" />
</svg>
