<?xml version="1.0" encoding="UTF-8" standalone="no"?>
<!-- Created with Inkscape (http://www.inkscape.org/) -->

<svg
   version="1.1"
   id="svg1"
   width="119.20045"
   height="73.3041"
   viewBox="0 0 119.20045 73.304102"
   sodipodi:docname="Icon_dreamer.svg"
   inkscape:version="1.4.2 (ebf0e940d0, 2025-05-08)"
   xmlns:inkscape="http://www.inkscape.org/namespaces/inkscape"
   xmlns:sodipodi="http://sodipodi.sourceforge.net/DTD/sodipodi-0.dtd"
   xmlns="http://www.w3.org/2000/svg"
   xmlns:svg="http://www.w3.org/2000/svg">
  <defs
     id="defs1" />
  <sodipodi:namedview
     id="namedview1"
     pagecolor="#505050"
     bordercolor="#eeeeee"
     borderopacity="1"
     inkscape:showpageshadow="0"
     inkscape:pageopacity="0"
     inkscape:pagecheckerboard="0"
     inkscape:deskcolor="#505050"
     showgrid="false"
     inkscape:zoom="4.2301186"
     inkscape:cx="60.400198"
     inkscape:cy="34.987199"
     inkscape:window-width="1838"
     inkscape:window-height="1011"
     inkscape:window-x="40"
     inkscape:window-y="47"
     inkscape:window-maximized="1"
     inkscape:current-layer="svg1" />
  <path
     style="fill:#0167ad"
     d="m 47.360009,72.924979 c 0,-0.18565 0.432,-1.35273 0.96,-2.59351 1.010588,-2.37485 1.167919,-3.14895 0.64,-3.14895 -0.176,0 -0.32,0.36 -0.32,0.8 0,0.89565 -0.464194,1.05732 -0.883668,0.30776 -0.212377,-0.3795 -0.448421,-0.12298 -1.030601,1.12 -1.104141,2.35739 -1.800092,1.90324 -0.925975,-0.60426 0.554392,-1.59033 -0.09317,-1.99864 -1.314308,-0.82872 -1.190062,1.14015 -1.48215,0.91942 -0.767225,-0.5798 0.924756,-1.93923 0.120083,-2.43866 -1.625085,-1.00862 -2.122559,1.73927 -2.417873,1.30764 -0.482207,-0.70481 1.677095,-1.74361 1.546535,-1.77735 -0.618223,-0.15976 -1.190182,0.88935 -1.512629,-0.0121 -0.373182,-1.04326 0.34074,-0.30837 0.767726,-0.98579 0.948858,-1.50539 l 0.329332,-0.94472 -2.708858,0.21979 c -3.359957,0.27263 -3.446709,-0.0786 -0.314763,-1.27437 3.254951,-1.24274 2.870192,-1.76771 -0.794095,-1.08347 -1.071228,0.20003 -0.550125,-0.58033 0.656,-0.98237 1.856837,-0.61895 1.442081,-1.19187 -0.767717,-1.06049 -2.207586,0.13125 -2.299574,-0.0971 -0.288283,-0.71554 l 1.52,-0.4674 -2.96,-0.0223 c -2.596746,-0.0196 -2.960147,-0.091 -2.961196,-0.58229 -0.0016,-0.73912 -1.172143,-2.64 -1.625708,-2.64 -0.20139,0 -0.05865,0.5045 0.328299,1.16033 0.900424,1.5261 0.528757,1.83124 -0.638835,0.52448 l -0.924547,-1.03475 0.190994,0.95497 c 0.283149,1.41574 -0.303073,1.15751 -1.101083,-0.48503 -0.418449,-0.8613 -0.916596,-1.44 -1.239545,-1.44 -0.450154,0 -0.414963,0.13303 0.211621,0.8 0.651064,0.69302 0.676156,0.8 0.187654,0.8 -0.483325,0 -0.532083,0.18837 -0.341201,1.31819 0.318083,1.88272 -0.413971,1.50682 -1.225652,-0.62935 -0.687658,-1.80977 -1.396937,-2.08498 -1.976682,-0.76697 -0.404693,0.92003 -0.791438,0.91918 -0.849528,-0.002 -0.02498,-0.396 -0.142406,-0.144 -0.260957,0.56 -0.215446,1.27939 -0.215717,1.2796 -0.574852,0.43108 -0.707716,-1.67209 -1.34324,-1.16115 -1.354412,1.08892 -0.0093,1.86642 -0.620053,0.76775 -0.709749,-1.27669 -0.112248,-2.55848 -0.802364,-3.10784 -1.49565,-1.19059 -0.26372,0.72931 -0.573171,1.09355 -0.841548,0.99057 -0.233451,-0.0896 -0.507357,0.0532 -0.608679,0.31719 -0.101323,0.26405 -0.323738,0.39386 -0.494256,0.28847 -0.198688,-0.1228 -0.19233,-0.50119 0.0177,-1.05363 0.227872,-0.59934 0.224146,-0.89654 -0.01223,-0.97533 -0.186981,-0.0623 -0.340703,-0.42533 -0.341605,-0.80666 -0.0013,-0.55334 -0.160822,-0.43488 -0.790013,0.58667 -0.791456,1.285 -1.189505,0.83012 -0.462421,-0.52845 0.640726,-1.1972 0.07535,-0.93607 -0.783638,0.36194 -0.986149,1.49017 -1.735311,1.74402 -1.010506,0.3424 1.223663,-2.3663 0.365545,-3.44201 -1.244902,-1.56057 -1.168429,1.36505 -1.572503,1.21174 -0.623534,-0.23657 0.736255,-1.12366 0.371233,-1.27165 -0.769358,-0.3119 -1.655847,1.3933 -1.992388,0.58451 -0.393988,-0.94685 0.528,-0.50586 0.954006,-1.0728 0.946679,-1.25987 -0.0073,-0.18707 -0.51133,0.22386 -1.120008,0.91319 -1.257578,1.42421 -1.848613,1.30737 -0.963785,-0.19052 0.621466,-1.05206 0.505813,-1.03814 -1.20131,0.14458 -1.490505,1.03264 -1.414524,0.29479 0.111476,-1.08255 1.574907,-1.42148 1.150541,-1.34916 -0.747809,0.12744 -1.672836,1.30119 -1.8934,0.82082 -0.364451,-0.79373 l 1.259208,-1.32972 -2.181689,1.52724 c -2.147915,1.50359 -3.489401,1.78272 -1.701774,0.3541 0.657725,-0.52564 0.793268,-0.78218 0.48,-0.9085 -0.307692,-0.12408 -0.105967,-0.46357 0.683463,-1.15024 1.323114,-1.15088 1.194368,-1.2006 -0.935288,-0.36116 -2.049915,0.808 -2.531257,0.23842 -0.525198,-0.62148 1.698313,-0.72798 1.919407,-1.05572 0.422599,-0.62644 -1.320784,0.37879 -1.607671,0.37498 -1.364711,-0.0181 0.107344,-0.17369 0.979843,-0.5439 1.938885,-0.8227 3.021235,-0.8783 2.070115,-1.30026 -1.356676,-0.60189 -0.784747,0.15993 -1.29915,-0.33922 -0.618685,-0.60034 0.240488,-0.0923 1.114487,-0.26935 1.942221,-0.39347 1.049317,-0.15736 1.403429,-0.32723 1.169591,-0.56106 -0.227904,-0.22791 -0.568887,-0.23259 -1.064058,-0.0146 -0.806174,0.3549 -3.44868,0.19114 -3.44868,-0.21373 0,-0.14099 0.710782,-0.35411 1.579515,-0.4736 1.108912,-0.15251 1.53179,-0.3416 1.419334,-0.63466 -0.09586,-0.24982 -0.440988,-0.34721 -0.859515,-0.24255 -0.692416,0.17314 -0.693304,0.16804 -0.08974,-0.515365 0.609049,-0.689619 0.608708,-0.690238 -0.381115,-0.690238 -0.54489,0 -1.079707,-0.144 -1.188481,-0.32 -0.124099,-0.200797 0.577049,-0.32 1.882229,-0.32 1.169873,0 2.175367,-0.154306 2.29795,-0.35265 0.119873,-0.193958 0.736908,-0.569486 1.37119,-0.834505 L 10.064608,37.353397 9.272304,36.705588 C 8.836537,36.349293 8.517944,35.926987 8.564321,35.76713 8.74295,35.151406 7.9297,34.221838 5.923956,32.749118 4.008671,31.342818 3.437281,30.702407 4.097831,30.702407 c 0.141806,0 0.745457,0.359759 1.341444,0.799465 1.384251,1.021268 1.967432,0.418314 0.787052,-0.813737 C 5.294733,29.71576 5.243378,29.426145 6,29.411761 6.548009,29.401341 8,28.384479 8,28.011113 8,27.644385 6.834082,27.82864 6.221161,28.29223 5.158998,29.09561 4.677139,28.879546 5.421256,27.933555 6.264876,26.861065 6.098468,26.701069 4.64,27.182407 3.388643,27.595392 2.677966,27.339993 3.616692,26.814656 c 0.342673,-0.19177 0.501957,-0.538419 0.397961,-0.86608 -0.124689,-0.392861 0.118573,-0.671243 0.865974,-0.991 L 5.92,24.512908 4.32,24.295215 C 3.022083,24.118624 2.855937,24.031289 3.44,23.832643 c 0.721761,-0.245479 1.000572,-0.810236 0.4,-0.810236 -0.700528,0 -0.265422,-0.639953 0.56,-0.823646 2.148261,-0.478083 2.176992,-0.49552 1.559943,-0.946718 C 5.652108,21.026949 4.185188,20.66201 2.700121,20.441069 0.857663,20.166957 0,19.903257 0,19.610882 0,19.061529 0.0207,19.063502 4.135882,20.005118 4.810541,20.15949 4.857614,20.117404 4.4967,19.682529 4.268414,19.407462 3.890043,19.182407 3.655875,19.182407 2.900568,19.182407 1.6,18.45192 1.6,18.027688 c 0,-0.303004 0.23279,-0.338993 0.88,-0.136047 0.484,0.151767 1.384,0.357865 2,0.457995 L 5.6,18.53169 4.763739,17.817049 C 4.303796,17.423996 3.475796,16.857105 2.92374,16.55729 1.887716,15.994641 1.5855,15.342407 2.360818,15.342407 c 0.242449,0 0.62552,0.222553 0.851268,0.494563 0.225748,0.27201 0.625766,0.411939 0.888929,0.310954 0.263163,-0.100985 0.817999,0.135354 1.232969,0.525199 0.573081,0.538381 0.84389,0.61941 1.126299,0.337001 0.28241,-0.28241 -0.06484,-0.571713 -1.444238,-1.20322 C 2.266359,14.548056 2.528034,13.842777 5.303391,15.032434 7.412685,15.936583 7.829099,15.625653 6,14.512286 4.534445,13.620208 3.890146,12.785999 5.04,13.269321 7.052355,14.115183 7.232628,13.87669 5.778549,12.292256 4.488569,10.886631 4.364641,9.8371502 5.610759,10.871336 5.998013,11.192729 6.08,11.142103 6.08,10.581589 c 0,-0.7815728 0.48335,-0.9089678 0.75572,-0.199182 0.101307,0.264 0.385293,0.48 0.631082,0.48 0.245789,0 0.862308,0.31176 1.370043,0.6928 0.507735,0.38104 0.136074,-0.12296 -0.825914,-1.12 -2.254732,-2.3368888 -1.488907,-2.3457148 1.167571,-0.01346 1.127213,0.989639 2.118663,1.730159 2.203221,1.6456 0.08456,-0.08456 -0.06574,-0.335895 -0.33399,-0.558525 C 10.77948,11.286192 10.56,10.87873 10.56,10.603353 c 0,-0.361515 0.265916,-0.245924 0.956662,0.415853 1.172068,1.122912 1.693702,0.811159 0.617933,-0.369305 C 11.443997,9.8920932 11.429401,9.8254002 12,10.034872 c 1.157349,0.424875 1.280032,0.358344 1.276907,-0.6924678 -0.0036,-1.224548 0.11759,-1.259613 1.25679,-0.363518 1.122428,0.882902 1.393173,0.569013 0.541212,-0.627456 -1.064993,-1.495645 -0.760439,-1.935953 0.417285,-0.603287 1.421392,1.608393 2.690631,1.281205 1.761879,-0.454183 -0.478616,-0.894303 -0.109631,-1.133426 0.665927,-0.431556 0.853638,0.772533 1.011938,0.534943 0.611018,-0.917068 -0.484224,-1.753716 -0.200126,-2.084096 0.610581,-0.71005 0.827657,1.402775 1.53408,1.359059 1.417183,-0.0877 -0.04467,-0.55285 0.02733,-1.004197 0.16,-1.002994 0.374246,0.0034 1.681218,2.054729 1.681218,2.638729 0,0.286723 0.163131,0.622134 0.362513,0.745359 0.263815,0.163047 0.299947,-0.289214 0.132712,-1.661114 -0.249809,-2.049276 0.189749,-2.127862 0.700066,-0.125161 0.358199,1.405729 0.853282,1.445939 0.984983,0.08 0.07449,-0.772604 -0.02835,-1.04 -0.4,-1.04 -0.275151,0 -0.500274,-0.216 -0.500274,-0.48 0,-0.264 0.220519,-0.48 0.490043,-0.48 0.269523,0 0.575815,-0.223519 0.680648,-0.496709 0.162164,-0.422592 0.28438,-0.396053 0.81906,0.177859 0.691565,0.742308 1.665713,0.73872 1.733336,-0.0064 0.0237,-0.261121 0.06574,-0.690766 0.09341,-0.954766 0.02768,-0.264 0.310286,0.0079 0.628017,0.604258 0.568437,1.066889 0.581299,1.072015 0.802926,0.32 l 0.225235,-0.764258 0.293349,0.72 c 0.353021,0.866462 0.587446,0.89912 1.148518,0.16 0.259615,-0.342 0.429062,-0.404285 0.435277,-0.16 0.01862,0.731826 0.897622,0.412648 1.101583,-0.4 0.24993,-0.9958 0.815804,-1.048092 0.865715,-0.08 0.02793,0.541815 0.07334,0.581412 0.183463,0.16 0.184252,-0.705061 0.739416,-0.735708 0.739416,-0.04082 0,0.412692 0.09339,0.441679 0.455296,0.14132 0.368346,-0.3057 0.475292,-0.24158 0.56,0.335753 0.295467,2.013765 0.992445,0.94814 0.833433,-1.274255 -0.177362,-2.47887398 0.204272,-3.12270698 0.54652,-0.922001 0.385167,2.476683 1.124751,3.393607 1.124751,1.394448 0,-1.072519 0.390324,-1.276141 0.852031,-0.444484 0.384519,0.692622 0.405872,0.667569 0.41663,-0.488849 0.0068,-0.728699 0.14003,-1.13934998 0.331339,-1.02111498 0.176,0.108774 0.32,0.67564098 0.32,1.25970398 0,1.103732 0.686519,1.987088 1.265983,1.62896 0.183709,-0.113539 0.334017,-0.621438 0.334017,-1.128664 0,-1.222756 0.63117,-1.57670298 1.222771,-0.685704 0.435826,0.656388 0.505996,0.668364 1.047068,0.1787 0.545591,-0.493753 0.591006,-0.470592 0.766841,0.391085 0.412561,2.021746 0.664804,2.515919 1.284215,2.515919 0.460625,0 0.644304,-0.244878 0.696895,-0.929089 0.132639,-1.725665 0.429226,-2.051436 0.902141,-0.990911 l 0.428089,0.96 0.02599,-1.021114 c 0.02503,-0.983255 0.66599,-1.899488 0.66599,-0.952007 0,0.255557 0.216,0.547536 0.48,0.648842 0.264,0.101306 0.48,0.404713 0.48,0.674236 0,0.269524 0.144,0.490043 0.32,0.490043 0.176,0 0.32,-0.288 0.32,-0.64 0,-0.352 0.144,-0.64 0.32,-0.64 0.176,0 0.32,0.280653 0.32,0.623672 0,0.593192 0.05695,0.599876 1.165335,0.136763 1.34484,-0.56191 2.60594,0.07629 1.78095,0.90128 -0.462738,0.462739 -0.517097,1.858285 -0.07238,1.858285 0.172647,0 0.402031,-0.396 0.509743,-0.88 0.368959,-1.657915 0.499824,-2 0.765101,-2 0.146091,0 0.244387,0.396 0.218436,0.88 -0.0549,1.023851 0.543643,1.379213 0.695073,0.412676 0.119976,-0.765779 0.550778,-0.857226 0.813464,-0.172676 0.251584,0.655616 1.381924,0.606072 1.764378,-0.07733 0.526677,-0.94112 0.742241,-0.222566 0.359568,1.198574 -0.199319,0.740213 -0.285303,1.546748 -0.191075,1.792301 0.320514,0.835246 0.805861,0.449937 1.150723,-0.913541 0.671897,-2.656477 0.985207,-2.777386 0.804814,-0.310586 l -0.170347,2.329415 0.769684,-0.504317 c 0.780895,-0.511662 1.144256,-1.339346 1.152165,-2.624469 0.0032,-0.521308 0.141709,-0.657254 0.521234,-0.511617 0.410097,0.157369 0.477463,0.485802 0.326121,1.589957 -0.221868,1.618705 0.235524,1.879875 0.615793,0.351617 l 0.258778,-1.04 0.120539,1.2 c 0.129533,1.28955 1.353367,1.720044 2.274288,0.8 0.32047,-0.320167 0.35829,-0.136591 0.18952,0.91981 -0.20896,1.30798 0.32439,2.3260208 0.66036,1.260472 0.52724,-1.67217 0.49579,-1.628247 0.81005,-1.131314 0.2197,0.347403 0.29917,0.361089 0.30279,0.05215 0.003,-0.230387 0.16057,-0.322678 0.35083,-0.20509 0.19026,0.117588 0.26365,0.541609 0.16309,0.94227 -0.11199,0.446211 0.002,0.8818348 0.29407,1.1242718 0.40943,0.339793 0.47691,0.209137 0.47691,-0.9233838 0,-0.725551 0.144,-1.319183 0.32,-1.319183 0.176,0 0.32,0.639502 0.32,1.421115 0,1.5906838 0.4428,2.2314128 0.54684,0.7912618 0.16582,-2.2955118 1.159,-2.7201058 1.49197,-0.6378318 0.24982,1.5622688 0.84119,2.0433728 0.84119,0.6843408 0,-1.2798218 0.4534,-1.2493358 0.90893,0.06111 l 0.36151,1.04 -0.15522,-1.04 c -0.0854,-0.572 -0.24522,-1.4719998 -0.35522,-1.9999998 -0.12446,-0.597395 -0.0695,-0.96 0.1455,-0.96 0.19002,0 0.44035,0.505591 0.55627,1.123535 0.29796,1.5882408 0.85661,1.7956228 0.73385,0.272418 -0.0955,-1.184487 -0.0621,-1.231927 0.80158,-1.139263 0.6374,0.06839 0.83147,-0.01613 0.66299,-0.288735 -0.17834,-0.288564 0.11589,-0.33624 1.1708,-0.189712 1.17067,0.162607 1.28722,0.135515 0.68901,-0.160166 -1.12166,-0.554408 -0.84912,-0.835751 0.56,-0.578077 1.41614,0.25896 1.63055,0.05288 0.60884,-0.585197 -1.16551,-0.727868 -0.41004,-0.769639 0.99116,-0.0548 1.48672,0.758472 1.94826,0.63115 1.32571,-0.365714 -0.56804,-0.909576 -0.0893,-1.243234 0.5083,-0.354286 0.26623,0.396 0.66708,0.72 0.89078,0.72 0.65265,0 0.78777,-0.828213 0.25843,-1.583957 -0.79508,-1.135129 -0.14154,-1.208694 0.73928,-0.08322 0.84281,1.076916 1.56549,1.100581 1.22895,0.04024 -0.27172,-0.856099 0.065,-0.764363 0.97987,0.26693 l 0.78063,0.88 -0.35298,-1.056335 c -0.49401,-1.478411 -0.10015,-1.661432 0.56658,-0.263283 0.30414,0.63779 0.63431,1.157413 0.73371,1.154718 0.48381,-0.01312 0.92949,-0.553501 1.05164,-1.2751 0.1253,-0.740186 0.18364,-0.698423 0.78034,0.558583 0.638,1.343987 1.06876,1.484282 1.06876,0.348084 0,-0.749593 0.63656,-0.775701 0.65017,-0.02667 0.009,0.521334 0.0409,0.519535 0.45433,-0.02605 0.42119,-0.555758 0.44962,-0.547486 0.54983,0.16 0.15167,1.070833 0.69473,0.919071 1.05184,-0.293946 0.40144,-1.363598 0.94237,-1.345546 0.68566,0.02288 -0.24636,1.313188 0.0523,1.664934 0.8222,0.96822 0.38163,-0.345372 0.58597,-0.394824 0.58597,-0.141812 0,0.213665 0.13515,0.304954 0.30033,0.202865 0.16518,-0.102088 0.44421,0.06941 0.62007,0.381115 0.2561,0.453939 0.40013,0.487122 0.72367,0.16673 0.65109,-0.644757 0.9236,-0.461842 0.59593,0.4 -0.41255,1.08508 -0.2034,1.009507 1.10703,-0.4 1.292079,-1.389773 1.506009,-1.029974 0.33297,0.56 -1.60469,2.17503 -0.98707,2.450834 1.437439,0.641906 2.0588,-1.536072 2.48792,-1.407871 0.86176,0.25746 -1.868599,1.91362 -1.42323,2.3050338 0.79467,0.698399 1.79627,-1.301217 2.01934,-0.884 0.3566,0.666986 -1.6025,1.4947988 -1.41633,1.6013638 0.53549,0.306511 1.82985,-1.213938 2.14584,-0.910099 0.52072,0.5007038 -1.44964,1.258468 -1.2956,1.326749 1.01332,0.449177 1.96284,-0.7460368 2.12808,-0.518684 0.54251,0.746441 -1.25522,1.001547 -1.29903,1.641692 -0.11445,1.672477 0.42457,0.01103 0.73594,0.191034 0.69194,0.4 -0.0969,0.460154 -0.0252,0.464927 1.01916,0.06786 1.14011,-0.433465 1.03354,0.09923 -0.21539,1.076662 -1.07118,0.838326 -1.00306,1.285284 0.23623,1.550005 0.57439,0.122695 0.54978,0.180351 -0.24,0.562426 -1.01995,0.493417 -1.1791,0.981286 -0.24,0.735707 0.74068,-0.193693 0.78636,0.08225 0.19135,1.15596 -0.23429,0.422774 -0.34821,1.070774 -0.25317,1.44 0.14628,0.568293 0.0984,0.610359 -0.31213,0.274096 -0.45898,-0.375957 -0.90605,-0.250514 -0.90605,0.254223 0,0.126683 0.684,0.326886 1.52,0.444894 0.836,0.118009 1.77409,0.288727 2.08464,0.379373 0.84793,0.247497 0.31411,0.790692 -0.56116,0.571014 -1.31735,-0.330633 -2.35059,0.155537 -1.5833,0.744991 0.46263,0.355412 0.51178,0.516396 0.1938,0.634787 -0.30475,0.113467 -0.16903,0.426843 0.47676,1.100911 l 0.90278,0.942294 -1.67676,-0.191713 c -1.91477,-0.218926 -2.08263,-0.06987 -0.71676,0.63645 0.97218,0.502738 1.40533,1.68868 0.48,1.314236 -0.264,-0.10683 -0.696,-0.281643 -0.96,-0.388473 -0.71876,-0.290852 -0.57881,0.438837 0.16,0.834237 1.50823,0.807181 -0.40287,1.274931 -2.52,0.616781 -1.08304,-0.336679 -0.59083,0.808213 0.96609,2.247177 2.13023,1.96884 1.83786,2.471362 -0.40081,0.688906 -1.16768,-0.92972 -1.84936,-1.265831 -2.28613,-1.127206 -0.51778,0.164339 -0.58653,0.0847 -0.40918,-0.474068 0.15008,-0.472846 0.0749,-0.67159 -0.25417,-0.67159 -1.070699,0 -0.819229,1.026514 0.63138,2.577334 1.71416,1.832574 1.46533,2.093947 -0.44045,0.462666 -2.026499,-1.734606 -2.755469,-1.433908 -1.078199,0.444754 0.961599,1.077059 1.467949,2.275246 0.961509,2.275246 -0.15952,0 -0.29004,0.36 -0.29004,0.8 0,1.0896 0.47661,1.007001 0.96284,-0.166866 0.58365,-1.409065 1.1033,-1.603839 0.84595,-0.31708 -0.25376,1.268761 0.27234,2.134155 0.95366,1.568709 0.35256,-0.292599 0.4394,-0.184598 0.4471,0.556054 l 0.01,0.919182 1.2609,-1.439999 c 0.85942,-0.981495 1.26394,-1.264891 1.27045,-0.890044 0.006,0.358686 0.17856,0.4851 0.49551,0.363474 0.40651,-0.15599 0.4323,-0.04531 0.15771,0.676897 -0.46187,1.214809 0.58043,2.241129 1.06602,1.049672 0.11074,-0.271732 0.35735,-0.160193 0.76903,0.347833 l 0.60602,0.747833 1.01763,-0.856279 c 0.55969,-0.470953 1.01763,-1.160278 1.01763,-1.531832 0,-1.666871 0.68464,0.180821 0.86525,2.335106 0.19218,2.292354 0.20814,2.327134 0.75683,1.649535 0.77078,-0.951876 0.93792,-0.873852 0.93792,0.437849 0,0.70929 0.17872,1.19863 0.48,1.31424 0.29143,0.11183 0.48,0.59581 0.48,1.23197 0,1.44091 1.5968,2.69177 3.20115,2.50764 l 1.11885,-0.12842 -1.2,0.65991 c -1.44371,0.79393 -1.53764,1.11214 -0.25241,0.8551 0.52117,-0.10424 1.03195,-0.053 1.13506,0.11381 0.10311,0.16683 -0.39259,0.39608 -1.10155,0.50945 -1.6622,0.2658 -2.333,0.97571 -1.19244,1.26197 0.44283,0.11114 1.09142,0.11122 1.44131,1.6e-4 0.34989,-0.11105 0.72429,-0.0593 0.83199,0.11494 0.1077,0.17427 -0.27803,0.40574 -0.85717,0.51439 -2.33149,0.43739 -3.24279,1.94291 -1.53615,2.5378 l 1.10864,0.38645 -1.58864,0.40202 -1.58864,0.40202 0.88949,0.46845 c 1.17105,0.61673 0.8371,1.11557 -0.4917,0.73448 -1.27046,-0.36436 -1.27756,-0.36438 -1.05383,-0.002 0.1,0.16173 1.11953,0.8185 2.26573,1.45949 2.95668,1.65347 1.71921,2.59186 -1.49475,1.13348 -2.44417,-1.10907 -2.8283,-0.75064 -1.19236,1.11259 1.29596,1.47602 0.95304,1.81893 -0.52297,0.52297 -0.62804,-0.55142 -1.28594,-1.00258 -1.46201,-1.00258 -0.43156,0 0.094,0.95597 0.95276,1.73317 0.3683,0.33331 0.66964,0.82795 0.66964,1.0992 0,0.3314 -0.36739,0.13709 -1.12,-0.59237 -1.16843,-1.13249 -1.48955,-0.99001 -0.60736,0.26949 0.28195,0.40254 0.43997,0.80456 0.35116,0.89337 -0.21054,0.21054 -1.59009,-0.56765 -1.9197,-1.08286 -0.82372,-1.28755 -0.74005,-0.10109 0.0959,1.36 1.23577,2.15991 0.81956,2.31568 -0.64125,0.24 -0.58835,-0.836 -1.11676,-1.58 -1.17424,-1.65334 -0.42536,-0.54266 -0.36019,0.41403 0.0733,1.07556 0.74905,1.14319 0.31623,1.44529 -0.52977,0.36978 -0.77831,-0.98946 -1.16273,-0.90853 -0.608,0.128 0.48968,0.91499 0.12961,1.2432 -0.50096,0.45664 -0.47557,-0.59322 -0.48152,-0.59009 -0.1567,0.0823 0.60953,1.26175 0.33185,1.24169 -0.81609,-0.059 l -1.12972,-1.28 0.65935,1.34258 c 0.36265,0.73842 0.53653,1.4185 0.3864,1.51128 -0.15012,0.0928 -0.53406,-0.41034 -0.85319,-1.11804 -0.82375,-1.82677 -1.13445,-1.85195 -0.89232,-0.0723 0.19155,1.40789 0.16445,1.49974 -0.32386,1.09731 -0.2931,-0.24155 -0.53291,-0.78155 -0.53291,-1.2 0,-0.41845 -0.144,-0.76081 -0.32,-0.76081 -0.176,0 -0.32,0.2965 -0.32,0.65888 0,0.36239 -0.144,0.56989 -0.32,0.46112 -0.176,-0.10878 -0.32,0.0267 -0.32,0.30111 0,0.71797 -0.53501,0.61493 -0.73272,-0.14111 -0.28191,-1.07803 -0.867279,-0.71086 -0.867279,0.544 0,1.25898 -0.50259,1.14534 -0.69291,-0.15668 -0.15678,-1.07262 -0.71156,-1.01722 -0.92815,0.0927 -0.18591,0.95265 -0.19072,0.94898 -0.6292,-0.48 -0.42429,-1.38276 -0.44657,-1.40184 -0.56042,-0.48 -0.19267,1.55998 -0.66476,1.67137 -0.89814,0.21191 -0.28826,-1.80267 -0.76881,-1.687 -0.78136,0.18809 -0.0106,1.57858 -0.11921,1.56772 -1.13268,-0.11323 -0.27406,-0.45456 -0.3152,-0.33169 -0.20499,0.61228 0.15528,1.33015 -0.39108,1.62598 -0.70356,0.38095 -0.28993,-1.15517 -1.14859,-1.03555 -1.14859,0.16 0,1.03907 -0.50151,1.31037 -0.73942,0.4 -0.09,-0.34453 -0.16063,-0.22141 -0.18346,0.32 -0.0704,1.66941 -0.96172,0.81522 -1.02902,-0.98618 l -0.0319,-0.85382 -0.22862,0.8 -0.22861,0.8 -0.49357,-0.92798 c -0.66244,-1.24549 -2.35107,-1.53566 -2.05424,-0.353 0.308,1.22716 -0.36407,1.23449 -0.76872,0.008 -0.54791,-1.66017 -1.10598,-1.83351 -0.85527,-0.26565 0.26847,1.67895 0.0144,1.85803 -1.19158,0.84004 -0.98393,-0.83051 -0.99679,-0.83228 -1.09785,-0.15107 -0.14298,0.96377 -0.64179,0.85944 -0.91184,-0.19072 l -0.22628,-0.88 -0.21577,0.8 c -0.22606,0.83819 -0.227,0.83718 -0.8159,-0.88 -0.16384,-0.47773 -0.23649,-0.44437 -0.4945,0.22707 l -0.30245,0.78707 -0.73254,-0.91869 c -0.72964,-0.91506 -1.47846,-0.91333 -1.47846,0.003 0,0.60756 -0.31917,0.58458 -0.78812,-0.0567 -0.28179,-0.38538 -0.63944,-0.46058 -1.39807,-0.29396 -1.51074,0.33181 -1.00348,0.66831 1.70619,1.13182 2.10709,0.36043 3.05804,0.75349 2.67204,1.10445 -0.0616,0.056 -0.98976,-0.0418 -2.06252,-0.21745 -1.57377,-0.25766 -2.12686,-0.22692 -2.86371,0.15915 l -0.91324,0.4785 1.64107,0.83159 c 1.61933,0.82057 2.78024,1.86253 1.49885,1.34527 -3.80085,-1.5343 -5.12782,-1.32977 -3.64046,0.56111 0.84876,1.07902 0.33856,1.11106 -0.91367,0.0574 -1.45504,-1.22433 -1.8327,-0.95222 -0.68668,0.49475 1.45857,1.84159 0.89921,1.9831 -0.69223,0.17513 -1.75843,-1.99768 -2.36208,-1.52504 -0.96082,0.7523 0.55075,0.89509 1.00137,1.76927 1.00137,1.94262 0,0.69015 -0.53051,0.24092 -1.42276,-1.2048 -0.62397,-1.01101 -0.9764,-1.34757 -1.05246,-1.00505 -0.0629,0.28322 0.33962,1.24524 0.89448,2.13783 0.55487,0.89259 0.95699,1.77846 0.89361,1.9686 -0.12214,0.3664 -3.15287,-3.62484 -3.15287,-4.15209 0,-0.17011 -0.288,-0.30929 -0.64,-0.30929 -0.49996,0 -0.64,0.21333 -0.64,0.97494 v 0.97494 l -0.78995,-0.57494 c -0.434467,-0.31622 -0.794467,-0.89044 -0.799998,-1.27606 -0.0055,-0.38561 -0.144105,-0.78396 -0.307944,-0.88522 -0.615334,-0.38029 -0.690846,0.53468 -0.172838,2.09426 0.86129,2.5931 0.326124,2.6947 -0.695703,0.13208 -0.463057,-1.16129 -0.833135,-1.62854 -1.349701,-1.70408 -0.565559,-0.0827 -0.667327,-0.24393 -0.495573,-0.78508 0.198398,-0.6251 0.173986,-0.63884 -0.2974,-0.16745 -0.470056,0.47005 -0.470583,0.63961 -0.0062,2.00241 0.646209,1.89652 0.513853,1.99332 -1.11357,0.81442 -1.492893,-1.08144 -1.520078,-1.04489 -0.854562,1.14892 0.563859,1.85871 0.580378,2.05086 0.176309,2.05086 -0.168935,0 -0.476164,-0.56411 -0.68273,-1.25356 -0.251863,-0.84064 -0.519611,-1.19829 -0.812846,-1.08577 -0.309499,0.11877 -0.437269,-0.11127 -0.437269,-0.78725 0,-0.94981 -0.667441,-1.85932 -1.069443,-1.45731 -0.115807,0.1158 -0.210557,0.83455 -0.210557,1.59722 0,1.84284 -0.496987,1.76633 -0.866142,-0.13333 l -0.295377,-1.52 -0.247368,1.36 c -0.333018,1.83089 -0.831113,1.72541 -0.831113,-0.176 0,-1.39455 -0.393903,-2.304 -0.997911,-2.304 -0.12645,0 -0.541391,0.936 -0.922089,2.08 -0.380699,1.144 -0.842439,2.08 -1.02609,2.08 -0.33368,0 -0.206258,-1.17147 0.25806,-2.3725 0.146733,-0.37954 0.115434,-0.53749 -0.0823,-0.41529 -0.175498,0.10847 -0.582769,1.06809 -0.905045,2.1325 -0.322277,1.06441 -0.707159,1.93529 -0.855294,1.93529 -0.39081,0 -0.333748,-0.62694 0.229775,-2.52453 0.855573,-2.88103 0.354863,-2.84848 -0.941647,0.0612 -1.105697,2.48146 -1.797463,3.42274 -1.797463,2.44578 z m 13.133533,-4.90687 c -0.291705,-0.76724 -0.404534,-0.82011 -1.032693,-0.48393 l -0.705209,0.37741 0.942184,0.75186 c 1.048416,0.83664 1.285927,0.64401 0.795718,-0.64534 z m 8.306469,-0.53448 c 0,-0.16561 -0.21148,-0.30111 -0.46996,-0.30111 -0.28547,0 -0.39792,0.18771 -0.28647,0.47816 0.18889,0.49224 0.75643,0.35941 0.75643,-0.17705 z m -23.468072,-2.62111 c -0.08877,-0.22 -0.161404,-0.04 -0.161404,0.4 0,0.44 0.07263,0.62 0.161404,0.4 0.08877,-0.22 0.08877,-0.58 0,-0.8 z m 22.340832,-1.1349 c 0.85994,-0.24124 0.73523,-0.30338 -1.28,-0.63779 -5.240317,-0.86961 -6.552762,-1.66952 -6.552762,-3.99379 0,-3.72237 6.699182,-4.85346 18.880002,-3.18769 21.790039,2.97986 33.256609,-0.0513 31.523799,-8.33325 -1.07421,-5.13419 -8.91773,-8.048995 -16.643799,-6.18516 l -1.6,0.38598 1.6288,0.84275 c 3.63408,1.88027 4.66011,4.49675 2.54546,6.49112 -2.54926,2.40426 -6.46005,2.62535 -18.87972,1.06731 -15.693502,-1.96874 -22.306098,-1.21602 -27.628068,3.14493 -7.782689,6.37733 5.337782,13.95947 18.006288,10.40559 z m 17.00747,-2.15566 c -0.233,-0.60718 -1.16023,-0.61145 -1.16023,-0.005 0,0.56254 1.0675,1.24412 1.23018,0.78544 0.0606,-0.17086 0.0291,-0.52191 -0.0699,-0.7801 z m 8.43977,0.30389 c 0,-0.5651 -0.68889,-0.46668 -0.88667,0.12667 -0.0697,0.209 0.10133,0.38 0.38,0.38 0.27867,0 0.50667,-0.228 0.50667,-0.50667 z m 5.70225,-0.82827 c -0.1294,-0.87939 -0.90225,-1.17497 -0.90225,-0.34506 0,0.66414 0.25861,1.04 0.71559,1.04 0.1589,0 0.2429,-0.31272 0.18666,-0.69494 z m -22.15573,0.0979 c -0.15932,-0.25778 -1.78652,-0.11716 -1.78652,0.15439 0,0.0675 0.4405,0.1227 0.97888,0.1227 0.53839,0 0.90183,-0.12469 0.80764,-0.27709 z m 39.786809,-4.00358 c -0.46968,-0.42505 -2.87657,-1.45581 -2.68837,-1.1513 0.12753,0.20634 0.68258,0.57131 1.23345,0.81104 0.9532,0.41482 1.74085,0.59903 1.45492,0.34026 z m -75.813331,-1.44015 c 0,-0.62397 -0.946245,-0.97352 -3.586455,-1.32486 -3.701331,-0.49256 -4.039633,-0.4144 -3.140848,0.72568 0.702142,0.89064 6.727303,1.42728 6.727303,0.59918 z m -1.101488,-1.92928 c -0.250119,-0.4047 -3.00335,-1.30995 -3.984088,-1.30995 -0.759644,0 -0.777214,0.0344 -0.274625,0.53694 0.690671,0.69067 4.652237,1.40975 4.258713,0.77301 z m 2.141488,0.0781 c -0.22,-0.0888 -0.58,-0.0888 -0.8,0 -0.22,0.0888 -0.04,0.1614 0.4,0.1614 0.44,0 0.62,-0.0726 0.4,-0.1614 z m -8.650666,-1.44674 c -0.487797,-0.4878 -0.784926,-0.19067 -0.514376,0.51438 0.148834,0.38785 0.30952,0.44781 0.551533,0.2058 0.242012,-0.24202 0.231187,-0.45184 -0.03716,-0.72018 z m 10.983824,0.67738 c 0.311322,-0.50373 -0.03401,-0.706 -0.793689,-0.46489 -0.367819,0.11674 -0.586173,0.34589 -0.48523,0.50922 0.248737,0.40246 1.019292,0.37575 1.278919,-0.0443 z m -2.093158,-0.54751 c 0,-0.82205 -0.906,-1.99202 -1.538145,-1.9863 -0.466808,0.004 -0.475375,0.0479 -0.06186,0.3151 0.724787,0.46839 0.126146,0.38129 -1.206561,-0.17555 -0.652303,-0.27255 -1.531278,-0.40888 -1.953277,-0.30297 l -0.767272,0.19257 0.903424,0.94298 c 0.516349,0.53895 1.254813,0.9526 1.723555,0.96546 0.451072,0.0124 1.108131,0.14625 1.460131,0.29751 1.015882,0.43654 1.44,0.36326 1.44,-0.2488 z m 2.24,-1.61193 c 0,-0.34856 -0.447479,-0.79412 -1.119257,-1.11447 l -1.119257,-0.53374 0.399257,0.70808 c 0.781883,1.38666 1.839257,1.92713 1.839257,0.94013 z m 1.92,-1.03382 c 0,-0.61896 -1.613256,-1.96884 -2.120402,-1.77423 -0.270568,0.10383 -0.696165,0.18878 -0.94577,0.18878 -0.249605,0 -0.453828,0.12088 -0.453828,0.26863 0,0.41665 1.535331,1.0161 2.073511,0.80958 0.276725,-0.10619 0.564752,0.0334 0.678028,0.32859 0.219461,0.5719 0.768461,0.69954 0.768461,0.17865 z m 0.497232,-1.87757 c -0.118252,-0.19132 -0.582457,-0.34786 -1.031568,-0.34786 h -0.816566 l 0.755451,0.61728 c 0.741301,0.60573 1.515561,0.41483 1.092683,-0.2694 z m 2.382768,-0.0279 c 0,-0.352 -0.135502,-0.64 -0.301115,-0.64 -0.429552,0 -0.73223,0.58244 -0.498885,0.96 0.334438,0.54113 0.8,0.3549 0.8,-0.32 z m -20.748147,-0.041 c 2.831837,-0.36317 3.306699,-0.69272 1.553128,-1.07787 -3.597934,-0.79024 -3.191122,-4.10111 0.742744,-6.04487 5.826971,-2.87916 8.597611,-2.699829 29.652275,1.91926 16.814182,3.68879 26.846942,-1.85738 19.773492,-10.930914 -3.47693,-4.460068 -12.13787,-6.715956 -18.548404,-4.831246 l -1.385088,0.407219 2.044423,0.219466 c 3.590857,0.385474 7.247519,2.930102 7.020759,4.885665 -0.40121,3.460075 -7.00612,4.516661 -19.945182,3.190627 -10.932294,-1.120375 -11.434167,-1.144926 -16.48,-0.806172 -5.701317,0.38276 -10.100255,1.052011 -12.915741,1.96499 -9.737259,3.157507 -7.945958,9.694455 3.04734,11.120585 1.115621,0.14473 2.162649,0.2814 2.326729,0.30372 0.164081,0.0223 1.565167,-0.12189 3.113525,-0.32046 z m 25.468296,-0.67896 c -0.07325,-0.22 -0.404667,-0.45261 -0.73648,-0.51691 -0.521952,-0.10115 -0.545454,-0.0472 -0.174301,0.4 0.507585,0.6116 1.10085,0.68775 0.910781,0.11691 z m -6.320149,-0.85971 c 0,-0.32006 -0.240972,-0.77956 -0.535493,-1.02111 -0.47701,-0.39122 -0.51523,-0.36055 -0.349958,0.28082 0.102044,0.396 0.07702,0.72 -0.05561,0.72 -0.132627,0 -0.3974,-0.324 -0.588384,-0.72 -0.196674,-0.4078 -0.356634,-0.52081 -0.3689,-0.26063 -0.02759,0.58529 1.26226,1.97598 1.624857,1.75188 0.150417,-0.093 0.273485,-0.43089 0.273485,-0.75096 z m -2.88,0.007 c 0,-0.27204 -1.821817,-1.82098 -2.849352,-2.42258 -0.247143,-0.1447 0.01177,0.40714 0.575373,1.2263 0.922579,1.34092 2.273979,2.05186 2.273979,1.19628 z m 37.890572,-0.50729 c -0.55548,-0.84778 -0.77057,-0.98814 -0.77057,-0.50286 0,0.301 0.8845,1.30286 1.15023,1.30286 0.0795,0 -0.0914,-0.36 -0.37966,-0.8 z m -41.410572,0.23697 c 0,-0.13366 -0.288,-0.42288 -0.64,-0.64271 -0.692509,-0.43248 -0.741399,-0.39085 -0.445763,0.37957 0.194188,0.50604 1.085763,0.72213 1.085763,0.26314 z m 7.561792,-0.88345 c -0.108499,-0.28275 -0.349281,-0.42014 -0.535071,-0.30532 -0.231982,0.14338 -0.218405,0.35263 0.04334,0.66802 0.464971,0.56025 0.761868,0.34126 0.491731,-0.3627 z m 39.79821,-0.0651 c 0,-0.30364 0.18411,-0.40627 0.50674,-0.28246 0.30432,0.11678 0.45789,0.0479 0.38446,-0.17238 -0.0673,-0.20176 -0.62257,-0.38186 -1.23403,-0.40022 -1.00378,-0.0301 -1.4391,0.70054 -0.96317,1.61666 0.14348,0.27617 1.306,-0.40176 1.306,-0.7616 z m -37.440002,-0.10733 c 0,-0.16561 -0.144,-0.30111 -0.32,-0.30111 -0.176,0 -0.32,0.2245 -0.32,0.49888 0,0.27439 0.144,0.40989 0.32,0.30112 0.176,-0.10878 0.32,-0.33328 0.32,-0.49889 z m -14.4,-2.54111 c -0.626091,-0.40461 -1.28,-0.40461 -1.28,0 0,0.176 0.396,0.31779 0.88,0.3151 0.68574,-0.004 0.77404,-0.0734 0.4,-0.3151 z M 7.20001,40.302516 c 0.421997,-0.181338 0.476498,-0.281009 0.16,-0.292608 -0.264,-0.0097 -0.696,0.121999 -0.96,0.292608 -0.584949,0.378023 -0.07971,0.378023 0.8,0 z m 103.54103,-0.651258 c 0.60173,-0.322037 0.88457,-1.588742 0.35475,-1.588742 -0.43311,0 -1.6797,1.469421 -1.44538,1.70374 0.28386,0.283862 0.36044,0.275787 1.09063,-0.114998 z M 9.28001,39.182516 c 0,-0.541889 -0.05609,-0.561186 -0.800659,-0.275467 -0.42518,0.163157 -0.446658,0.259266 -0.106172,0.4751 0.630768,0.399843 0.906831,0.33907 0.906831,-0.199633 z m 78.952371,-0.534154 c -0.51165,-0.316218 -0.67408,-0.08458 -0.41469,0.591385 0.18214,0.474645 0.2624,0.490971 0.50264,0.102247 0.18173,-0.294045 0.14969,-0.546766 -0.088,-0.693632 z m 20.247629,0.374154 c 0,-0.352 -0.144,-0.64 -0.32,-0.64 -0.176,0 -0.32,0.288 -0.32,0.64 0,0.352 0.144,0.64 0.32,0.64 0.176,0 0.32,-0.288 0.32,-0.64 z m -5.76,-1.240817 c 0,-0.15445 -0.20318,-0.449442 -0.45151,-0.655539 -0.50147,-0.416179 -1.01437,0.05672 -0.66849,0.616356 0.24369,0.394312 1.12,0.424969 1.12,0.03918 z M 93.531421,36.77753 c -0.18021,-0.689135 -0.73141,-1.201644 -0.73141,-0.680071 0,0.545762 0.37891,1.325057 0.64427,1.325057 0.1407,0 0.17991,-0.290244 0.0871,-0.644986 z m -5.68376,-0.610898 c -0.20237,-0.637608 -1.44765,-0.967194 -1.44765,-0.383147 0,0.302063 1.3678,1.315776 1.54921,1.148167 0.0601,-0.0555 0.0144,-0.399757 -0.10156,-0.76502 z m 2.19638,0.125898 c -0.2919,-0.445493 -0.5932,-0.747515 -0.66955,-0.671161 -0.18983,0.189824 0.63831,1.481148 0.94987,1.481148 0.13772,0 0.0116,-0.364494 -0.28032,-0.809987 z m 2.00554,0.02379 c -0.10422,-0.271591 -0.34307,-0.493801 -0.53079,-0.493801 -0.23666,0 -0.23179,0.204626 0.0159,0.667406 0.39722,0.742206 0.8126,0.602157 0.51491,-0.173605 z m 3.66585,-2.104992 c -0.2774,-0.694966 -0.31727,-0.614323 -0.33514,0.677857 -0.0112,0.806667 0.0877,1.576429 0.21972,1.710582 0.37518,0.381307 0.46653,-1.508825 0.11542,-2.388439 z m 2.557,0.875617 c -0.5799,-0.579906 -0.79998,0.04487 -0.34316,0.974221 l 0.43322,0.881353 0.12585,-0.756908 c 0.0692,-0.416299 -0.0279,-0.910699 -0.21591,-1.098666 z m -1.1337,-1.357186 c -0.21312,-1.136025 -2.14162,-4.018555 -2.32349,-3.47293 -0.0627,0.187981 0.24887,1.121162 0.69229,2.073736 0.44342,0.952575 0.80763,2.099154 0.80935,2.547954 0.002,0.4488 0.18313,0.997902 0.40313,1.220227 0.49398,0.499203 0.71849,-0.77103 0.41872,-2.368987 z m 2.69638,0.897808 c 0.006,-1.262006 -1.50757,-3.125573 -2.18375,-2.688768 -0.34656,0.223875 -0.2915,0.54566 0.28754,1.680311 0.62835,1.231266 0.74686,1.324906 0.96616,0.763409 0.18109,-0.463655 0.25751,-0.243223 0.27736,0.8 0.0322,1.691059 0.64452,1.170403 0.65269,-0.554952 z M 9.76001,35.822519 c -0.108774,-0.176 -0.369273,-0.317795 -0.578886,-0.3151 -0.228997,0.0029 -0.189528,0.128712 0.09889,0.3151 0.614759,0.397288 0.725537,0.397288 0.48,0 z m 85.137931,-2.711943 c -0.25999,-1.733746 -1.08639,-2.590294 -1.91473,-1.984593 -0.54007,0.394906 -0.51451,0.532396 0.45668,2.456308 1.16871,2.315194 1.84325,2.096963 1.45805,-0.471715 z m -3.34472,1.337158 c -0.41071,-0.410715 -0.82721,-0.09328 -0.52315,0.398714 0.11779,0.190581 0.36076,0.255908 0.53993,0.145173 0.21856,-0.135079 0.21304,-0.314069 -0.0168,-0.543887 z m 1.49751,0.102772 c -0.22991,-0.368151 -0.51332,-0.51339 -0.67883,-0.347883 -0.36794,0.367943 0.0128,0.979896 0.6097,0.979896 0.38177,0 0.394,-0.111814 0.0691,-0.632013 z M 10.56001,34.765292 c 0,-0.05348 -0.54,-0.593475 -1.2,-1.2 l -1.2,-1.102773 1.102773,1.2 c 1.026438,1.116934 1.297227,1.347132 1.297227,1.102773 z m 2.24,-1.182773 c 0.37404,-0.241724 0.28574,-0.311282 -0.4,-0.3151 -0.484,-0.0027 -0.88,0.1391 -0.88,0.3151 0,0.404611 0.653909,0.404611 1.28,0 z m 78.160001,-0.08023 c 1.17402,0.06414 1.75649,-0.624383 0.8,-0.945652 -0.89511,-0.300648 -3.72821,0.416387 -3.54382,0.896912 0.12464,0.3248 0.38836,0.393847 0.86171,0.225611 0.37516,-0.133337 1.22211,-0.212928 1.88211,-0.176871 z M 56.640009,32.683678 c 0,-0.142361 -0.227756,-0.538361 -0.506124,-0.88 -0.46314,-0.568409 -0.490316,-0.57138 -0.32,-0.03499 0.102368,0.322394 0.186124,0.718394 0.186124,0.88 0,0.161605 0.144,0.293828 0.32,0.293828 0.176,0 0.32,-0.116478 0.32,-0.258838 z M 11.457177,31.78135 c 0.115626,-0.810563 -1.413276,-1.235552 -2.949486,-0.819869 l -0.93232,0.252276 0.91528,0.719959 c 1.181339,0.929241 2.824274,0.844858 2.966526,-0.152366 z m 1.982833,0.398489 c 0,-0.243473 -0.288,-0.517992 -0.64,-0.610042 -0.352,-0.09205 -0.64,-0.120622 -0.64,-0.06349 0,0.05713 -0.08741,0.331647 -0.194237,0.610042 -0.146508,0.381793 0.01076,0.506172 0.64,0.506172 0.496951,0 0.834237,-0.178977 0.834237,-0.442678 z m 40.901513,-0.181865 c 0.08436,-0.253075 -0.0045,-0.334303 -0.22,-0.201115 -0.228074,0.140958 -0.365106,-0.0493 -0.371245,-0.515457 -0.0088,-0.671859 -0.04031,-0.686323 -0.346778,-0.159449 -0.185376,0.31869 -0.252921,0.798665 -0.150101,1.066611 0.213817,0.557198 0.877617,0.44093 1.088124,-0.19059 z m 32.058488,-0.39636 c 0,-0.420606 -0.72729,-0.157228 -0.88674,0.32112 -0.078,0.23384 0.0684,0.305356 0.38,0.185764 0.2787,-0.10695 0.50674,-0.335048 0.50674,-0.506884 z m 5.03634,-0.03007 c -0.0613,-0.183841 -0.46353,-0.560891 -0.89388,-0.837888 -0.71887,-0.462699 -0.74929,-0.46146 -0.3743,0.01524 0.33662,0.427921 0.3226,0.551711 -0.08,0.706202 -0.85927,0.329735 -0.5223,0.74158 0.48572,0.593635 0.53563,-0.07861 0.92374,-0.293351 0.86246,-0.477192 z m -50.1142,-0.143172 c 0.147714,-0.147714 -0.438265,-0.542863 -1.302177,-0.87811 -6.863054,-2.663251 -8.454528,-7.800853 -2.965044,-9.571763 6.73066,-2.171314 13.965153,-1.702905 28.545078,1.848198 19.227763,4.683135 27.902093,4.651351 33.079713,-0.12121 3.438769,-3.169752 2.601679,-7.674543 -1.87971,-10.115605 -2.68921,-1.464838 -11.17499,-3.5561688 -9.31713,-2.296217 6.0411,4.096926 2.96186,7.44885 -6.84287,7.44885 h -5.92 l -7.82316,-2.179954 C 48.156798,10.340571 42.213231,9.6684332 28.320009,11.200035 12.695699,12.922474 5.966639,22.601702 16.651567,27.984181 c 3.895896,1.962538 7.262414,2.928812 13.268442,3.808372 1.576254,0.230836 11.111684,-0.07372 11.402142,-0.364181 z m 56.27786,-0.595053 c 0,-0.541103 -1.3791,-1.174657 -1.55284,-0.713367 -0.15508,0.411745 0.93262,1.568109 1.2756,1.356133 0.15248,-0.09424 0.27724,-0.383481 0.27724,-0.642766 z M 47.360009,29.891258 c 0,-0.392098 -0.129184,-0.422122 -0.64,-0.148741 -0.352,0.188384 -0.64,0.409451 -0.64,0.491258 0,0.08181 0.288,0.148742 0.64,0.148742 0.362074,0 0.64,-0.213334 0.64,-0.491259 z M 10.72001,29.742517 c 0.108774,-0.176 0.05377,-0.32 -0.122229,-0.32 -0.176,0 -0.408997,0.144 -0.517771,0.32 -0.108774,0.176 -0.05377,0.32 0.122229,0.32 0.176,0 0.408997,-0.144 0.517771,-0.32 z m 43.596189,-2.140953 c -0.297524,-0.297523 -0.6308,-0.451104 -0.740615,-0.34129 -0.314938,0.314939 0.16854,0.882243 0.751882,0.882243 0.488471,0 0.487595,-0.04209 -0.01127,-0.540953 z m -3.660033,-0.208066 c 0.09055,-0.23596 0.03616,-0.63196 -0.120864,-0.88 -0.207775,-0.328214 -0.286827,-0.211425 -0.290393,0.429019 -0.0053,0.955594 0.15159,1.127662 0.411257,0.450981 z m 2.463843,-0.530981 c 0,-0.352 -0.144,-0.64 -0.32,-0.64 -0.176,0 -0.32,0.288 -0.32,0.64 0,0.352 0.144,0.64 0.32,0.64 0.176,0 0.32,-0.288 0.32,-0.64 z M 104.1333,26.428318 c -0.11097,-0.289191 -0.42468,-0.525801 -0.69713,-0.525801 -0.41869,0 -0.40544,0.09935 0.0856,0.641962 0.65286,0.721398 0.9139,0.671813 0.61152,-0.116161 z M 55.360009,26.203631 c 0,-0.165613 -0.305632,-0.301114 -0.679183,-0.301114 -0.565203,0 -0.61282,0.07996 -0.283741,0.476476 0.399691,0.481599 0.962924,0.379026 0.962924,-0.175362 z m -7.4852,-1.203457 c -0.57948,-0.57948 -0.733887,-0.04093 -0.307123,1.071197 0.194299,0.506336 0.227462,0.505846 0.5148,-0.0076 0.220464,-0.393947 0.161865,-0.694056 -0.207677,-1.063597 z m -2.4348,-0.03877 c 0,-0.432118 -0.58334,-0.731674 -0.96522,-0.495659 -0.178871,0.110548 -0.242372,0.335047 -0.141114,0.498885 0.240215,0.388677 1.106334,0.386152 1.106334,-0.0032 z m 60.320001,-1.618887 c -0.10878,-0.176 -0.40528,-0.32 -0.65889,-0.32 -0.25361,0 -0.46111,0.144 -0.46111,0.32 0,0.176 0.29649,0.32 0.65888,0.32 0.36239,0 0.56989,-0.144 0.46112,-0.32 z m -98.08,-0.517322 c 0,-0.06747 -0.288,-0.122678 -0.64,-0.122678 -0.352,0 -0.64,0.130519 -0.64,0.290042 0,0.159523 0.288,0.214728 0.64,0.122678 0.352,-0.09205 0.64,-0.222569 0.64,-0.290042 z m -0.16,-4.282678 c -0.108774,-0.176 -0.413771,-0.32 -0.677771,-0.32 -0.264,0 -0.391003,0.144 -0.282229,0.32 0.108774,0.176 0.413771,0.32 0.677771,0.32 0.264,0 0.391003,-0.144 0.282229,-0.32 z M 7.878377,11.883741 C 7.111106,11.11647 6.876395,11.686965 7.545628,12.69253 c 0.514818,0.773549 0.608244,0.811773 0.714094,0.292164 0.06698,-0.328803 -0.104624,-0.824232 -0.381345,-1.100953 z m 75.001634,0.933013 c 0,-0.373207 -0.93466,-0.727673 -1.30888,-0.49639 -0.564,0.34857 -0.2819,0.782153 0.50888,0.782153 0.44,0 0.8,-0.128593 0.8,-0.285763 z m -7.04,-1.295351 c 0,-0.377556 -0.62412,-0.781439 -0.85334,-0.552219 -0.22922,0.22922 0.17467,0.853333 0.55222,0.853333 0.16562,0 0.30112,-0.135501 0.30112,-0.301114 z M 14.72001,10.222517 C 14.531625,9.8705172 14.327354,9.5825172 14.266073,9.5825172 c -0.06128,0 -0.186733,0.288 -0.278783,0.6399998 -0.124925,0.477713 -0.0098,0.64 0.453937,0.64 0.52214,0 0.566634,-0.102145 0.278783,-0.64 z M 63.578605,9.5225172 c -0.102152,-0.255274 -0.177979,-0.179448 -0.193333,0.193334 -0.01389,0.3373328 0.06174,0.5263328 0.16807,0.4199998 0.106333,-0.106334 0.117702,-0.3823338 0.02526,-0.6133338 z m -45.178595,0.06 c 0.108774,-0.176 0.05377,-0.32 -0.122229,-0.32 -0.176,0 -0.408997,0.144 -0.517771,0.32 -0.108774,0.176 -0.05377,0.32 0.122229,0.32 0.176,0 0.408997,-0.144 0.517771,-0.32 z m 59.504001,-0.700778 c 0.1672,-0.142572 -0.3008,-0.259222 -1.04,-0.259222 -1.4323,0 -1.44383,0.0075 -1.1571,0.754711 0.18689,0.487037 1.35335,0.223978 2.1971,-0.495489 z M 65.174632,8.7304742 c -0.09462,-0.09462 -0.340998,-0.06762 -0.547498,0.06 -0.278381,0.172049 -0.263201,0.301785 0.05871,0.501789 0.426703,0.265109 0.840309,-0.210268 0.488788,-0.561789 z m 31.305379,-0.694623 c 0,-0.57877 -0.62634,-0.473109 -0.75056,0.126617 -0.0691,0.33367 0.0508,0.479956 0.32,0.390236 0.2368,-0.07894 0.43056,-0.31152 0.43056,-0.516853 z m -40.090669,-0.752 c -0.488804,-0.488804 -0.849484,-0.128124 -0.578375,0.578375 0.160074,0.417146 0.298853,0.45848 0.583532,0.173801 0.28468,-0.28468 0.283453,-0.463566 -0.0052,-0.752176 z M 21.38001,7.0425172 c 0.08,-0.24 -0.04,-0.36 -0.28,-0.28 -0.231,0.077 -0.483,0.329 -0.56,0.56 -0.08,0.24 0.04,0.36 0.28,0.28 0.231,-0.077 0.483,-0.329 0.56,-0.56 z m 14.700149,-1.06 c -0.07325,-0.22 -0.404668,-0.452609 -0.736481,-0.516908 -0.521951,-0.101146 -0.545453,-0.04721 -0.1743,0.4 0.507584,0.611601 1.100849,0.687753 0.910781,0.116908 z m 20.87985,0.119183 c 0,-0.507925 -0.884017,-1.061011 -1.110397,-0.694721 -0.115189,0.186379 0.04996,0.337717 0.371511,0.340438 0.490819,0.0042 0.505862,0.05209 0.09889,0.3151 -0.410208,0.265097 -0.398575,0.310913 0.08,0.3151 0.308,0.0027 0.56,-0.121468 0.56,-0.275917 z m -30.4,-1.325855 c -0.712658,-0.450649 -0.96,-0.380223 -0.96,0.273339 0,0.876604 0.380066,1.090429 0.940953,0.52938 0.441691,-0.441819 0.44388,-0.534076 0.01905,-0.802719 z m 25.500584,-0.233328 c -0.08049,-0.308 -0.146343,-0.056 -0.146343,0.56 0,0.616 0.06585,0.868 0.146343,0.56 0.08049,-0.308 0.08049,-0.812 0,-1.12 z m -0.860584,0.410043 c 0,-0.570714 -0.133218,-0.738836 -0.48,-0.605763 -0.497957,0.191084 -0.63782,0.811233 -0.266667,1.182387 0.433417,0.433417 0.746667,0.191506 0.746667,-0.576624 z m -18.88,-0.04428 c 0,-0.337447 -0.174017,-0.44746 -0.506172,-0.32 -0.278394,0.10683 -0.574893,0.194236 -0.658885,0.194236 -0.08399,0 -0.06372,0.144 0.04506,0.32 0.315123,0.509879 1.12,0.370293 1.12,-0.194236 z m 6.588287,-0.684143 c -0.349567,-0.349568 -0.589272,0.206354 -0.338297,0.784578 0.237977,0.548278 0.255228,0.547777 0.38782,-0.01125 0.07632,-0.321775 0.05403,-0.669775 -0.04952,-0.773333 z m 1.645238,0.458953 c -0.214323,-0.642967 -0.873525,-0.595638 -0.873525,0.06272 0,0.460193 0.147639,0.599969 0.493525,0.46724 0.271438,-0.104161 0.442438,-0.342641 0.38,-0.529957 z m 2.7251,-0.620574 c 0.220272,-0.598979 -0.07287,-1.2 -0.585292,-1.2 -0.249333,0 -0.453333,0.264 -0.453333,0.586667 0,0.958844 0.748927,1.401103 1.038625,0.613333 z"
     id="path1" />
</svg>
