<?xml version="1.0" encoding="UTF-8" standalone="no"?>
<!-- Created with Inkscape (http://www.inkscape.org/) -->

<svg
   version="1.1"
   id="svg1"
   width="90.525574"
   height="108.00143"
   viewBox="0 0 90.525576 108.00143"
   sodipodi:docname="Icon_mutant.svg"
   inkscape:version="1.4.2 (ebf0e940d0, 2025-05-08)"
   xmlns:inkscape="http://www.inkscape.org/namespaces/inkscape"
   xmlns:sodipodi="http://sodipodi.sourceforge.net/DTD/sodipodi-0.dtd"
   xmlns="http://www.w3.org/2000/svg"
   xmlns:svg="http://www.w3.org/2000/svg">
  <defs
     id="defs1" />
  <sodipodi:namedview
     id="namedview1"
     pagecolor="#505050"
     bordercolor="#eeeeee"
     borderopacity="1"
     inkscape:showpageshadow="0"
     inkscape:pageopacity="0"
     inkscape:pagecheckerboard="0"
     inkscape:deskcolor="#505050"
     showgrid="false"
     inkscape:zoom="4.2301186"
     inkscape:cx="45.743399"
     inkscape:cy="60.991198"
     inkscape:window-width="1838"
     inkscape:window-height="1011"
     inkscape:window-x="40"
     inkscape:window-y="47"
     inkscape:window-maximized="1"
     inkscape:current-layer="svg1" />
  <path
     style="fill:#0162ab"
     d="m 73.578127,106.97507 c -2.6361,-2.05616 -5.1462,-4.74361 -6.10993,-6.54161 -1.70093,-3.17337 -2.30844,-3.2925 -18.869457,-3.69996 -11.783972,-0.28993 -20.917175,2.14496 -22.647282,6.0377 -0.05867,0.132 -0.252437,0.24 -0.430601,0.24 -0.762566,0 -2.259271,1.45232 -2.996964,2.90808 -0.894523,1.76526 -1.147692,1.88346 -1.82471,0.85192 -0.331666,-0.50535 -1.162072,-0.89695 -2.785365,-1.31352 -1.272049,-0.32644 -4.010971,-1.22143 -6.086492,-1.98887 -3.4074804,-1.25994 -4.1513374,-1.41668 -7.6655024,-1.61528 -3.73870301,-0.2113 -5.481871,-0.98672 -3.013049,-1.34032 0.376261,-0.0539 0.757309,-0.37789 0.846773,-0.72 0.11529,-0.44087 0.440992,-0.62201 1.118383,-0.62201 1.114402,0 0.871845,0.5032 3.103273,-6.438 4.4659154,-13.89193 7.3274024,-27.801458 7.2308334,-35.148682 -0.06923,-5.267305 0.0088,-5.194817 -1.773155,-1.646685 -2.5241444,5.025872 -2.8124204,2.006907 -0.730164,-7.646635 l 0.448653,-2.08 1.572377,-0.07921 c 1.193569,-0.06013 1.456738,0.0039 1.092377,0.265883 -1.614727,1.160894 5.015339,-1.247664 6.914206,-2.51178 0.722812,-0.481192 1.897115,-1.264053 2.60956,-1.739693 2.776739,-1.853792 6.920007,-6.61936 10.482399,-12.056806 3.197816,-4.880976 7.513835,-12.564069 7.513835,-13.375634 0,-0.387744 0.144,-0.793986 0.32,-0.90276 0.176,-0.108774 0.32,-0.457853 0.32,-0.775731 0,-0.984043 1.133487,-2.076396 2.834164,-2.731311 1.577562,-0.607505 1.637608,-0.677299 1.92714,-2.24 0.822623,-4.4399652 1.027834,-6.3201492 0.832198,-7.6247422 -0.189128,-1.261198 -0.127109,-1.49041198 0.527281,-1.94876498 1.34387,-0.941283 4.119219,-0.438371 4.119219,0.74642998 0,0.143091 0.69566,0.249671 1.54592,0.236845 2.34715,-0.03541 3.17451,0.743669 5.44977,5.131725 4.19316,8.0869062 9.17928,9.8471822 12.96537,4.5772282 0.94368,-1.3135412 3.60814,-3.6868392 2.95783,-2.6346132 -0.3116,0.504183 0.19809,0.492326 0.73367,-0.01707 1.13225,-1.076908 -0.8415,1.9257772 -2.07993,3.1642112 -0.77842,0.778413 -1.98233,2.543063 -2.67537,3.921446 -3.46915,6.899813 -10.05995,5.63976 -14.20839,-2.716416 -2.94418,-5.9304412 -6.270553,-7.1421312 -6.284503,-2.289241 l -0.0044,1.52 h 1.576773 c 1.65975,0 2.90323,0.953586 2.90323,2.226391 0,0.49931 0.73463,1.941251 6.19796,12.165395 6.64061,12.427327 15.64242,21.071555 19.68834,18.906246 0.5219,-0.279313 0.67827,-0.267888 0.69398,0.05071 0.0112,0.226192 0.1601,0.06135 0.33099,-0.366323 0.49061,-1.227825 1.11947,-0.267596 1.70544,2.604091 0.62618,3.068783 0.63167,3.773491 0.0294,3.773491 -0.64382,0 -0.35944,2.072473 0.84764,6.177348 1.2277,4.17503 0.67244,4.968069 -1.67806,2.396651 -1.52698,-1.670489 -1.65227,-1.553938 -1.11451,1.036817 0.23623,1.138051 0.36365,2.178717 0.28316,2.312591 -0.8309,1.382055 5.97604,31.708158 7.57454,33.745928 1.6723,2.13184 0.13587,3.07345 -6.15568,3.77255 -7.53155,0.83689 -10.74091,3.00307 -8.08965,5.46018 1.88858,1.75027 0.0764,2.25875 -2.07356,0.58181 z M 22.52635,103.4112 c 0.105244,-0.308 0.68743,-0.93519 1.293747,-1.39375 4.209357,-3.18354 6.161188,-7.44818 6.553582,-14.31918 0.296886,-5.19862 0.409253,-5.44748 2.239105,-4.95907 1.572609,0.41976 1.605341,0.38586 1.605341,-1.66277 0,-2.21134 1.770861,-9.23191 2.760662,-10.94463 0.432087,-0.74767 1.138909,-2.44169 1.570714,-3.764494 0.431805,-1.322799 1.301836,-3.431189 1.933402,-4.685311 0.906299,-1.79967 1.058409,-2.337205 0.721761,-2.550609 -1.560156,-0.988999 -3.232561,0.665494 -3.921817,3.879812 -0.549868,2.56429 -2.807233,10.417102 -4.391418,15.276652 -0.954565,2.92817 -1.67748,3.93494 -3.164351,4.40685 -0.951977,0.30215 -2.60098,4.11798 -4.349387,10.06458 -1.314431,4.47059 -4.035814,8.97192 -5.424181,8.97192 -1.396507,0 0.486844,1.91803 2.163051,2.20288 0.12014,0.0204 0.304545,-0.21488 0.409789,-0.52288 z m 1.73443,-3.6 c 1.893042,-2.55512 3.346085,-4.92529 3.923543,-6.4 0.310127,-0.792 0.567439,-1.152 0.571806,-0.8 0.01758,1.41711 -3.294252,6.83637 -5.013344,8.2035 -0.301882,0.24007 -0.06879,-0.2115 0.517995,-1.0035 z m 49.169647,2.74951 c 0.34387,-2.29312 -0.0595,-3.38157 -1.92042,-5.18204 -1.54969,-1.49936 -1.78507,-1.93006 -2.8855,-5.28 -0.65899,-2.00611 -2.02581,-5.23147 -3.03737,-7.16747 -1.01157,-1.936 -2.22065,-4.528 -2.68685,-5.76 -0.46619,-1.232 -1.34947,-3.104 -1.96284,-4.16 -3.82087,-6.57815 -7.19932,-14.945561 -7.19932,-17.830551 0,-2.049881 -0.234,-2.190468 -0.78885,-0.473936 -0.37076,1.147012 -1.45115,1.522371 -2.32868,0.809049 -0.455347,-0.37014 -0.492997,-0.346524 -0.293705,0.18423 0.125727,0.334837 0.465054,1.558837 0.754055,2.72 0.28901,1.161163 1.2252,3.335205 2.08044,4.831205 0.85523,1.496003 1.85335,3.728003 2.21805,4.960003 0.36469,1.232 1.36148,3.752 2.21508,5.6 0.85361,1.848 2.13859,5.016 2.85552,7.04 1.34492,3.79691 5.02247,11.58664 6.26952,13.28 0.38884,0.528 1.08099,1.70707 1.53811,2.62015 0.45712,0.91309 1.33723,2.04618 1.95579,2.51798 0.61857,0.47181 1.12467,1.04857 1.12467,1.2817 0,0.40731 1.1779,1.42017 1.65159,1.42017 0.12606,0 0.32437,-0.63472 0.44071,-1.41049 z m -6.36505,-9.54807 c -1.69387,-2.98978 -5.96117,-13.57933 -6.15801,-15.28144 -0.1101,-0.952 -0.088,-1 0.14705,-0.32 1.09791,3.17575 4.84036,12.16263 6.16022,14.79275 1.96795,3.9216 1.88107,4.39234 -0.14926,0.80869 z M 15.313676,94.9312 c 2.320539,-5.59321 3.324421,-7.26373 6.093645,-10.1402 3.090809,-3.2105 5.078616,-7.57053 6.571884,-14.41466 0.479383,-2.19717 1.431252,-5.55714 2.115263,-7.466596 1.723977,-4.812579 0.82949,-6.893046 -1.160227,-2.698546 -0.735899,1.551339 -4.203818,9.703832 -5.070548,11.920002 -0.582077,1.48833 -3.364504,6.62723 -4.071661,7.52 -0.721212,0.91051 -0.520909,0.42194 2.820626,-6.88 3.801943,-8.30803 5.98191,-14.414257 4.472669,-12.528234 -0.504456,0.630394 -0.95692,0.877277 -1.466168,0.8 -0.688101,-0.104417 -0.79523,0.119761 -1.628705,3.408231 -2.097195,8.274463 -7.979533,24.639033 -9.568663,26.619863 -0.538376,0.67107 -1.478747,2.56608 -2.089713,4.21112 -0.610967,1.64505 -1.349112,3.25427 -1.640323,3.57606 -0.500072,0.55257 -0.479057,0.59261 0.378448,0.72106 2.292637,0.34343 2.072534,0.58452 4.243473,-4.6481 z m -8.6463214,2.16 c 0.48355,-1.232 1.475685,-3.1552 2.204744,-4.27378 1.5900874,-2.43964 2.9312914,-5.81265 4.0295124,-10.13388 0.446226,-1.75579 1.314279,-4.35052 1.929007,-5.76608 0.614729,-1.41556 1.496913,-3.93556 1.96041,-5.6 0.463497,-1.66444 1.418627,-4.92459 2.122512,-7.244769 1.773751,-5.84672 1.438713,-7.00972 -1.035173,-3.593354 -0.781133,1.078722 -1.799868,2.231832 -2.263856,2.562468 -0.524818,0.373982 -0.925625,1.038308 -1.060634,1.757972 -0.119362,0.63625 -0.304211,1.069628 -0.410777,0.963061 -0.106567,-0.106566 -1.088269,3.802722 -2.18156,8.687302 -2.9115314,13.00806 -6.0397394,24.17449 -6.9482294,24.80235 -0.272845,0.18856 -0.214075,0.24302 0.189838,0.17591 0.392735,-0.0652 0.873996,-0.83346 1.464206,-2.3372 z m 79.3277224,1.55387 c 0.7262,-0.1945 0.721,-0.21199 -0.357,-1.19939 -1.14729,-1.05088 -2.08663,-3.50676 -2.80387,-7.33061 -0.3008,-1.60366 -0.59991,-2.12595 -2.19916,-3.84 -3.40927,-3.654 -6.70452,-9.12905 -8.38239,-13.92734 -0.53399,-1.52709 -1.60469,-3.94791 -2.37933,-5.37959 -1.01698,-1.879557 -1.52564,-3.29689 -1.8301,-5.09942 -0.46833,-2.772745 -0.81451,-3.128613 -1.86647,-1.918744 -0.84845,0.975801 -1.44324,1.048909 -1.70946,0.210119 -0.56185,-1.770217 -2.38207,-1.138879 -2.40206,0.833145 -0.0117,1.157139 3.0797,10.12527 4.41375,12.80417 0.68303,1.37158 1.64714,3.53939 2.14246,4.81735 0.63869,1.64786 1.37403,2.82082 2.52863,4.03348 2.38676,2.50678 3.51879,4.00831 4.50273,5.97247 0.4823,0.96277 1.20644,2.19006 1.60921,2.72731 0.40276,0.53725 1.4066,2.12125 2.23074,3.52 2.37892,4.03755 3.37326,4.61514 6.50232,3.77705 z M 67.960737,66.352669 c -0.99672,-1.858191 -1.75247,-3.438277 -1.67945,-3.511303 0.073,-0.07303 0.96328,1.447312 1.97833,3.378529 1.01506,1.931215 1.77081,3.511305 1.67945,3.511305 -0.0914,0 -0.98161,-1.52034 -1.97833,-3.378531 z m -2.18308,-4.473842 c -0.30879,-0.804702 -0.2177,-1.012338 0.15953,-0.363629 0.18678,0.321201 0.27219,0.651411 0.1898,0.733801 -0.0824,0.08239 -0.23959,-0.08419 -0.34933,-0.370172 z M 87.977297,97.9712 c -4.5e-4,-0.132 -0.52385,-1.104 -1.16312,-2.16 -0.63927,-1.056 -1.42073,-2.496 -1.73657,-3.2 -0.84725,-1.88844 -0.74066,-0.52295 0.15091,1.93331 0.86381,2.37974 2.75327,4.73519 2.74878,3.42669 z m -1.23993,-5.57856 c -0.69006,-2.12593 -3.53326,-15.93665 -4.5006,-21.86144 -0.94611,-5.794816 -1.94081,-9.034204 -2.64117,-8.60136 -0.14161,0.08752 -0.25747,0.02204 -0.25747,-0.145521 0,-0.167557 -0.24008,-0.396776 -0.53351,-0.509375 -1.18054,-0.453013 -1.10395,0.446511 0.34042,3.99867 1.93671,4.762946 0.96162,4.261546 -1.44378,-0.742417 -1.04549,-2.174943 -1.73222,-2.031168 -0.81332,0.170278 0.2364,0.566348 1.04171,3.117725 1.78957,5.669725 0.74786,2.552 2.0587,6.152 2.91297,8 0.90804,1.9643 2.01809,5.15447 2.67234,7.68 1.08926,4.20473 2.3779,7.84407 2.673,7.54897 0.0804,-0.0804 -0.009,-0.62374 -0.19845,-1.20753 z M 16.692161,57.971198 c 0.292614,-0.484 1.835661,-2.383398 3.428995,-4.220884 1.593333,-1.837487 2.898935,-3.565487 2.901339,-3.84 0.0024,-0.274514 0.0912,-0.823116 0.197322,-1.219116 0.145468,-0.542814 0.05722,-0.72 -0.358606,-0.72 -0.37573,0 -0.488486,-0.164366 -0.353705,-0.515599 0.155387,-0.40493 0.04254,-0.479364 -0.525764,-0.346786 -0.397989,0.09285 -2.040969,0.343314 -3.651066,0.556595 -3.495731,0.463062 -3.481374,0.455254 -3.729877,2.028484 l -0.196293,1.242695 4.009691,-0.154466 c 5.237617,-0.201768 5.131197,0.829353 -0.126027,1.221098 -3.566575,0.265766 -3.444312,0.116476 -2.272902,2.775334 0.77663,1.762791 0.881942,2.27117 0.585297,2.825456 -0.45745,0.854754 -0.67079,0.599765 -1.575635,-1.883232 -0.402947,-1.105731 -0.786695,-1.956355 -0.852774,-1.890276 -0.161396,0.161395 1.595436,5.020697 1.815183,5.020697 0.09504,0 0.412209,-0.396 0.704822,-0.88 z m 64.380916,-0.934554 c -0.62745,-0.822004 -1.56457,-2.334004 -2.08249,-3.36 -0.51792,-1.025995 -1.01341,-1.865446 -1.10109,-1.865446 -0.3481,0 2.14297,4.519619 3.07806,5.584633 1.4024,1.597241 1.45701,1.411354 0.10552,-0.359187 z M 28.604425,54.419768 c 1.351629,-1.821287 2.407838,-3.361099 2.347132,-3.421805 -0.204682,-0.204682 -3.263168,3.700617 -4.216489,5.383921 -1.223075,2.159616 -1.071169,2.000171 1.869357,-1.962116 z m 7.8537,2.561026 c 0,-0.324723 0.288,-0.851041 0.64,-1.169596 0.352,-0.318556 0.64,-0.751427 0.64,-0.961936 0,-0.210509 0.36,-1.05981 0.8,-1.887336 0.44,-0.827527 0.8,-1.568974 0.8,-1.647661 0,-0.07869 -1.44,-0.143067 -3.2,-0.143067 -1.76,0 -3.2,0.06428 -3.2,0.142855 0,0.07857 0.484952,0.978571 1.077671,2 0.59272,1.02143 1.251887,2.397145 1.464817,3.057145 0.406513,1.260033 0.977512,1.616119 0.977512,0.609596 z m 46.153412,-2.160362 c -0.55691,-2.450542 -0.60568,-2.53227 -1.56774,-2.626797 l -0.99295,-0.09756 1.43341,2.761127 c 1.71306,3.299811 1.88427,3.294227 1.12728,-0.03677 z m -23.47771,-2.201935 c 0.55236,-1.403985 1.00335,-2.699985 1.00219,-2.88 -0.005,-0.716204 -1.31582,1.698786 -1.82034,3.352701 -0.76381,2.503959 -0.80273,2.501615 -2.19473,-0.132152 -1.83498,-3.471913 -1.80155,-2.649968 0.043,1.058342 1.49963,3.014806 1.5834,3.117002 1.76984,2.159198 0.10763,-0.552963 0.64763,-2.154104 1.2,-3.558089 z m -34.388085,2.818302 c -0.491928,-1.634552 -0.98347,-2.390462 -0.650079,-0.999714 0.27721,1.156386 0.793838,2.494113 0.963224,2.494113 0.07513,0 -0.06578,-0.67248 -0.313145,-1.494399 z M 45.84088,51.050901 c 1.40959,-2.564434 1.563602,-3.494225 0.23063,-1.392347 -1.544545,2.435495 -1.848517,3.182015 -2.049221,5.032644 l -0.190874,1.76 0.41611,-1.629282 c 0.22886,-0.896104 0.94587,-2.593061 1.593355,-3.771015 z m 20.372197,3.880297 c 0.41404,-0.748 1.08952,-1.768193 1.50106,-2.267095 1.06821,-1.294947 0.74131,-1.492905 -2.46525,-1.492905 h -2.85148 l 0.79036,1.164655 c 0.4347,0.64056 0.79036,1.293185 0.79036,1.450278 0,2.166916 1.3005,2.833224 2.23495,1.145067 z m 8.77689,-2.429738 c 0.30544,-0.588356 0.47529,-1.149797 0.37744,-1.247647 -0.22698,-0.226979 -1.45292,2.453683 -1.46226,3.197385 -0.0117,0.935148 -0.51834,0.629811 -1.1018,-0.66406 -0.30358,-0.673233 -0.89894,-1.645233 -1.32302,-2.16 -0.42843,-0.520063 -0.13367,0.19813 0.66338,1.616311 0.78893,1.403738 1.44729,2.699738 1.46303,2.88 0.0157,0.180262 0.20845,-0.320251 0.42825,-1.112251 0.2198,-0.792 0.64955,-1.921382 0.95498,-2.509738 z m -32.732779,1.973739 c -0.37723,-0.64871 -0.468324,-0.441074 -0.159531,0.363628 0.109743,0.285985 0.266942,0.452563 0.349332,0.370173 0.08239,-0.08239 -0.003,-0.412601 -0.189801,-0.733801 z m -31.079063,0.415078 c 0,-0.06651 0.217933,-0.642506 0.484295,-1.28 0.584494,-1.398891 -0.124664,-1.722914 -0.75293,-0.344022 -0.456119,1.001073 -0.478016,1.744943 -0.05136,1.744943 0.176,0 0.32,-0.05441 0.32,-0.120921 z m 42.138362,-2.485647 1.01836,-1.553432 h -2.40503 c -1.322764,0 -2.357026,0.109782 -2.298359,0.243961 1.235776,2.826388 2.016109,3.979112 2.329569,3.441286 0.1854,-0.318111 0.79536,-1.277428 1.35546,-2.131815 z M 41.45598,52.559488 c -0.270727,-0.499559 -0.497997,-0.807066 -0.505043,-0.683347 -0.02166,0.380375 0.722804,1.866107 0.864211,1.7247 0.07318,-0.07318 -0.08844,-0.541793 -0.359168,-1.041353 z M 24.732322,48.358265 c 0.278596,-0.755113 0.380353,-1.294945 0.226125,-1.199626 -0.550737,0.340373 -1.299563,3.194686 -1.256538,4.789563 l 0.04378,1.622996 0.240045,-1.92 c 0.132025,-1.056 0.467988,-2.53782 0.746585,-3.292933 z m -11.309827,2.215628 c 0.0024,-0.287482 0.0942,-0.85817 0.20399,-1.268195 0.179025,-0.668582 0.104678,-0.734615 -0.72058,-0.64 -0.833452,0.09555 -1.732632,2.073981 -1.189471,2.617141 0.323362,0.323362 1.702221,-0.249617 1.706061,-0.708946 z m 27.234693,0.06131 c -0.37723,-0.64871 -0.468324,-0.441074 -0.159531,0.363628 0.109743,0.285985 0.266942,0.452563 0.349332,0.370173 0.08239,-0.08239 -0.003,-0.412601 -0.189801,-0.733801 z m 38.245699,-1.903924 c -0.41972,-2.315612 -0.55733,-2.006656 -0.30582,0.686638 0.11936,1.278265 0.29257,1.959565 0.41178,1.619721 0.11317,-0.322615 0.0655,-1.360477 -0.10596,-2.306359 z m -8.29123,-1.31294 c -0.0693,-0.663925 -0.12711,-0.199137 -0.12853,1.032863 -10e-4,1.232 0.0553,1.775212 0.12595,1.207137 0.0707,-0.568074 0.0718,-1.576074 0.003,-2.24 z M 32.285766,46.560031 c 0.367644,-0.857679 0.612442,-1.615417 0.543996,-1.683862 -0.231599,-0.2316 -1.544579,3.170754 -1.673632,4.33692 l -0.128161,1.158109 0.294677,-1.125876 c 0.162072,-0.619232 0.595476,-1.827613 0.96312,-2.685291 z m 7.247571,3.209663 c 0.01937,-0.02117 0.125721,-0.943878 0.236343,-2.050456 l 0.201132,-2.01196 -2.956343,0.09196 -2.956344,0.09196 -0.376627,1.908376 c -0.207145,1.049606 -0.317729,2.003675 -0.245742,2.120151 0.101028,0.163467 5.942289,0.01974 6.097581,-0.150031 z m 30.20479,-1.299611 c 0,-2.152588 0.1936,-2.048453 -4.28382,-2.304177 l -3.71618,-0.212247 v 2.12877 2.128769 h 4 4 z m -15.68,-0.818885 v -2.24 h -2.56 -2.560003 v 2.24 2.24 h 2.560003 2.56 z m 1.23379,-2.08 c 9.5e-4,-0.996246 -0.0597,-1.138123 -0.27379,-0.64 -0.15126,0.352 -0.26712,1.576 -0.25746,2.72 0.0173,2.046984 0.0216,2.057143 0.27379,0.64 0.14093,-0.792 0.25678,-2.016 0.25746,-2.72 z m -13.789514,0 c 0,-1.508279 -0.05238,-1.71414 -0.244278,-0.96 -0.134354,0.528 -0.244279,1.824 -0.244279,2.88 0,1.508279 0.05238,1.71414 0.244279,0.96 0.134353,-0.528 0.244278,-1.824 0.244278,-2.88 z m 19.189254,0.567137 c -0.0693,-0.663925 -0.12711,-0.199137 -0.12853,1.032863 -0.001,1.232 0.0553,1.775212 0.12595,1.207137 0.0707,-0.568074 0.0718,-1.576074 0.003,-2.24 z m 15.34705,1.592863 c -0.0805,-0.308 -0.14634,-0.056 -0.14634,0.56 0,0.616 0.0658,0.868 0.14634,0.56 0.0805,-0.308 0.0805,-0.812 0,-1.12 z m -28.924996,-2.64 c 0.106052,-1.623408 0.07336,-2.332968 -0.08109,-1.76 -0.258325,0.958322 -0.440901,4.865937 -0.21555,4.613333 0.06542,-0.07333 0.198909,-1.357333 0.296638,-2.853333 z m 26.684996,1.36 c -0.0805,-0.308 -0.14634,-0.056 -0.14634,0.56 0,0.616 0.0658,0.868 0.14634,0.56 0.0805,-0.308 0.0805,-0.812 0,-1.12 z m 0.63135,-0.16 c -0.0888,-0.22 -0.16141,-0.04 -0.16141,0.4 0,0.44 0.0726,0.62 0.16141,0.4 0.0888,-0.22 0.0888,-0.58 0,-0.8 z M 22.266389,46.024235 c 3.186359,-0.443182 3.135624,-0.412416 7.296623,-4.424683 1.932677,-1.863595 3.042951,-2.812354 2.467275,-2.108354 -0.575676,0.704 -2.226916,2.409892 -3.669423,3.790871 l -2.622739,2.510871 2.56,-1.906549 c 3.306516,-2.462512 6.591266,-5.941397 8.933334,-9.461308 2.473537,-3.717496 2.170753,-3.72118 -0.926969,-0.01128 -1.397237,1.673363 -2.687908,3.133624 -2.868158,3.245025 -0.18025,0.1114 0.193399,-0.438744 0.83033,-1.222543 3.940921,-4.849645 9.456856,-15.866363 8.448809,-16.87441 -0.274964,-0.274964 -0.316291,-0.217673 -5.373631,7.44932 -7.024854,10.649771 -11.839389,15.945051 -16.712438,18.381224 -2.142697,1.071194 -1.978285,1.134651 1.636987,0.631813 z m 45.810598,-2.138911 c -4.19131,-4.392029 -12.88723,-19.522706 -13.77323,-23.965057 -0.45485,-2.280565 -0.36912,-2.156758 -1.18948,-1.717711 -0.57175,0.305987 -0.64626,0.549544 -0.47295,1.545926 0.71672,4.120484 3.40988,12.073742 6.30611,18.622716 1.05077,2.376 2.0398,4.775346 2.19786,5.33188 0.31612,1.113079 -0.32378,0.971795 6.67283,1.473305 1.54068,0.110434 1.55034,0.06227 0.25886,-1.291059 z m -33.531181,-2.32496 c 2.308226,-3.255533 4.986309,-7.901842 4.71241,-8.175741 -0.1899,-0.1899 -0.596508,0.42906 -3.991982,6.076805 -1.491223,2.480374 -2.949093,4.786523 -3.239711,5.124776 -0.290619,0.338254 -0.349228,0.510268 -0.130242,0.382254 0.218986,-0.128014 1.411272,-1.661656 2.649525,-3.408094 z m 3.014715,3.210834 h 2.330052 l 1.789116,-2.96 c 4.055134,-6.709012 5.632205,-12.422621 5.65289,-20.479999 0.0088,-3.426704 -0.983959,-3.118131 -1.544277,0.48 -1.093184,7.019966 -5.707146,16.518268 -10.406468,21.422752 -1.346928,1.405732 -1.584079,2.087031 -0.594252,1.707199 0.243588,-0.09347 1.49141,-0.169952 2.772939,-0.169952 z M 53.911517,43.590634 C 52.206427,36.797005 50.79003,27.491749 50.68161,22.371199 50.58825,17.962091 50.550393,17.72611 49.920745,17.628942 c -0.660568,-0.101939 -0.662621,-0.06366 -0.662621,12.36 0,6.854241 -0.09,12.912256 -0.2,13.462256 l -0.2,1 h 2.634693 2.63469 z m 19.98661,0.75016 c 0,-0.06072 -0.324,-0.384722 -0.72,-0.72 l -0.72,-0.609596 0.60959,0.72 c 0.57287,0.676622 0.83041,0.865677 0.83041,0.609596 z m -15.68,-3.089596 c -1.06508,-1.584 -2.00851,-2.88 -2.09651,-2.88 -0.088,0 0.71143,1.296 1.77651,2.88 1.06508,1.584 2.0085,2.88 2.0965,2.88 0.088,0 -0.71142,-1.296 -1.7765,-2.88 z M 45.236393,38.016035 c -0.09233,-0.149386 4.21e-4,-0.598586 0.206104,-0.998223 0.747996,-1.453344 -0.330262,-0.02338 -1.902308,2.522798 -1.121561,1.816546 -1.455349,2.586554 -1.098535,2.534185 0.281904,-0.04138 1.002674,-0.99961 1.601712,-2.129412 0.599038,-1.129802 0.99211,-1.766185 0.873494,-1.414185 -0.660975,1.961484 -1.095893,3.50338 -1.074916,3.810858 0.0131,0.192028 0.36998,-0.641657 0.793066,-1.852634 0.423086,-1.210977 0.693708,-2.324001 0.601383,-2.473387 z m 11.832304,3.715163 c -0.2883,-0.44 -0.58812,-0.8 -0.66626,-0.8 -0.15682,0 0.14496,0.579699 0.62469,1.2 0.55099,0.712431 0.58104,0.42333 0.0416,-0.4 z m -11.213432,-2.72 c 0.157627,-0.64251 0.110207,-0.611012 -0.240877,0.16 -0.240428,0.528 -0.525459,1.32 -0.633404,1.76 -0.157626,0.64251 -0.110207,0.611012 0.240877,-0.16 0.240428,-0.528 0.52546,-1.32 0.633404,-1.76 z m 19.461492,-2.32 c -1.91519,-2.508 -4.173,-5.604 -5.01735,-6.88 -1.61391,-2.438976 -2.32436,-3.168393 -1.09087,-1.12 1.98345,3.293827 8.94721,12.56 9.43915,12.56 0.0832,0 -1.41574,-2.052 -3.33093,-4.56 z m -6.2324,4 c -3.13703,-5.723756 -5.07037,-8.78315 -3.23551,-5.12 1.05498,2.106175 3.00444,5.36 3.21133,5.36 0.0857,0 0.0965,-0.108 0.0242,-0.24 z m 10.30921,-24.588445 c 1.42484,-1.198924 1.26349,-1.321863 -1.52319,-1.160545 -3.20384,0.185468 -5.03078,-0.527396 -6.31152,-2.462728 -0.93803,-1.417466 -1.35491,-1.74736 -0.74338,-0.588281 0.98319,1.863537 2.96276,4.467365 3.58792,4.719378 1.52655,0.615376 3.9482,0.368937 4.99017,-0.507824 z M 49.538124,14.046299 c 2.726643,-0.0033 3.883953,-0.105743 3.560003,-0.3151 -0.264,-0.17061 -1.272,-0.315925 -2.240003,-0.322923 -0.968,-0.007 -2.390824,-0.158157 -3.161831,-0.335911 -1.56523,-0.360859 -3.210637,0.01117 -3.932571,0.889172 -0.381578,0.464065 -0.313893,0.49547 0.654403,0.303631 0.594,-0.117683 2.898,-0.216174 5.119999,-0.218869 z m -0.265742,-2.7951 c 0.0078,-0.484 0.08462,-2.0565512 0.17061,-3.4945572 0.09709,-1.623522 0.03104,-2.692007 -0.174258,-2.818886 -0.201745,-0.124685 -0.332453,0.208404 -0.335339,0.854558 -0.0041,0.924853 -0.640286,4.131806 -1.146342,5.7788852 -0.132913,0.432597 0.01485,0.56 0.649507,0.56 0.679462,0 0.824031,-0.15221 0.835822,-0.88 z m 6.812695,-8.1152682 c -0.71343,-0.713432 -3.40337,-1.225382 -3.7228,-0.708525 -0.0986,0.159522 0.27864,0.24114 0.83829,0.181374 0.60519,-0.06463 1.47144,0.149551 2.13756,0.52851 1.44546,0.822334 1.57042,0.822106 0.74695,-0.0014 z m -5.226953,-0.753134 c 0,-0.317079 -1.052957,-1.131598 -1.462857,-1.131598 -0.568236,0 -0.618572,1.488784 -0.05714,1.690093 0.376598,0.135034 1.52,-0.285087 1.52,-0.558495 z"
     id="path1" />
</svg>
