<?xml version="1.0" encoding="UTF-8" standalone="no"?>
<!-- Created with Inkscape (http://www.inkscape.org/) -->

<svg
   version="1.1"
   id="svg1"
   width="116.26974"
   height="74.575005"
   viewBox="0 0 116.26975 74.575007"
   sodipodi:docname="Icon_eviltwin.svg"
   inkscape:version="1.4.2 (ebf0e940d0, 2025-05-08)"
   xmlns:inkscape="http://www.inkscape.org/namespaces/inkscape"
   xmlns:sodipodi="http://sodipodi.sourceforge.net/DTD/sodipodi-0.dtd"
   xmlns="http://www.w3.org/2000/svg"
   xmlns:svg="http://www.w3.org/2000/svg">
  <defs
     id="defs1" />
  <sodipodi:namedview
     id="namedview1"
     pagecolor="#505050"
     bordercolor="#eeeeee"
     borderopacity="1"
     inkscape:showpageshadow="0"
     inkscape:pageopacity="0"
     inkscape:pagecheckerboard="0"
     inkscape:deskcolor="#505050"
     showgrid="false"
     inkscape:zoom="4.2301186"
     inkscape:cx="58.745398"
     inkscape:cy="35.932799"
     inkscape:window-width="1838"
     inkscape:window-height="1011"
     inkscape:window-x="40"
     inkscape:window-y="47"
     inkscape:window-maximized="1"
     inkscape:current-layer="svg1" />
  <path
     style="fill:#971519"
     d="m 19.912347,74.038276 c -0.712182,-0.5538 1.338955,-2.79357 3.140767,-3.42961 1.081312,-0.38171 1.117734,-0.55402 1.320519,-6.24737 l 0.162418,-4.56 -1.822433,-0.0369 c -3.398937,-0.0688 -6.57552,-1.09592 -6.318962,-2.04309 0.09535,-0.352 0.4737,-2.224 0.840788,-4.16 0.367089,-1.936 0.937044,-4.41329 1.266567,-5.50508 0.344956,-1.14292 0.677769,-3.51868 0.78449,-5.6 0.101946,-1.988207 0.265796,-4.190923 0.364111,-4.894922 l 0.178755,-1.28 -4.200812,4.159999 c -2.310447,2.288003 -4.553459,4.758093 -4.984472,5.489103 -1.9667661,3.33567 -4.4335901,4.3944 -6.8162211,2.92544 -2.235001,-1.37794 -2.077698,-2.90045 0.474715,-4.59464 1.959667,-1.30076 1.865935,-0.9435 1.191113,-4.539903 -0.337732,-1.799913 0.935211,-1.399914 2.291304,0.72 0.619222,0.968003 1.211279,1.760003 1.315682,1.760003 0.625127,0 10.3505101,-11.895551 10.3505101,-12.660171 0,-1.508997 1.034707,-2.234627 2.54235,-1.782926 2.749814,0.823864 3.795124,-0.101444 3.363811,-2.977644 l -0.202946,-1.353345 -2.43513,-0.378581 c -4.073598,-0.633308 -7.559428,-2.687894 -8.902678,-5.247335 -0.698625,-1.331168 -1.085407,-1.061656 -1.085407,0.75632 v 1.63632 l -1.04,-0.202108 c -0.572,-0.11116 -1.7240001,-0.289825 -2.5600001,-0.397034 -1.798277,-0.230611 -1.765585,-0.12124 -0.56,-1.873498 1.092646,-1.588107 1.140997,-1.76 0.495057,-1.76 -1.096712,0 -2.193845,0.856224 -2.911284,2.272022 -1.185641,2.33975 -3.909907,4.035663 -3.418322,2.127978 0.17032,-0.660958 0.13821,-0.681154 -0.391576,-0.246278 -0.541049,0.444121 -0.562537,0.407367 -0.343878,-0.588179 0.220782,-1.005215 0.197381,-1.042713 -0.438382,-0.702463 -0.79553799,0.425759 -0.86029199,0.108699 -0.17703,-0.866795 0.485065,-0.692528 0.474286,-0.702388 -0.55999999,-0.512258 -1.008216,0.185337 -1.026445,0.171491 -0.414585,-0.314906 0.485729,-0.38613 0.524297,-0.512519 0.16,-0.524335 -0.265403,-0.0086 -0.02743,-0.305493 0.53229199,-0.664058 1.362709,-0.872972 1.983472,-1.898702 2.361866,-3.902674 0.543203,-2.876799 3.636274,-3.931343 6.17799,-2.106309 L 10.555483,10.588001 10.33375,9.834653 C 10.211798,9.420311 9.7633299,8.577304 9.3371549,7.961304 l -0.774863,-1.12 1.5368191,-0.196811 c 0.845251,-0.108246 2.012634,-0.442864 2.594185,-0.743595 1.436064,-0.742618 1.518437,-0.530236 0.76642,1.976049 -0.720086,2.399868 -0.405888,3.070593 0.699759,1.493787 4.34708,-6.19954 14.109831,-8.561545 21.126131,-5.111269 2.561039,1.259395 2.570472,1.253999 2.881282,-1.648308 0.175671,-1.64039 0.31709,-2.019693 0.698455,-1.87335 0.263003,0.100924 1.129815,0.183497 1.92625,0.183497 1.032339,0 1.401115,0.114837 1.284527,0.4 -0.683856,1.672659 -0.773181,1.577604 1.265722,1.346928 1.531792,-0.173303 1.976703,-0.115931 2.321347,0.29934 0.732429,0.882523 2.523171,0.653417 3.488128,-0.446268 0.805401,-0.917851 1.979868,-1.303459 1.979868,-0.650043 0,0.170477 0.201434,0.23266 0.447632,0.138185 0.649548,-0.249256 0.908468,0.370336 0.348844,0.834783 -0.682504,0.566427 -0.588228,0.951314 0.243524,0.994196 0.541814,0.02793 0.581411,0.07334 0.16,0.183464 -0.755539,0.197443 -0.704642,0.601814 0.151202,1.20127 0.605555,0.424147 0.626672,0.498145 0.142155,0.498145 -0.456593,0 -0.391617,0.156095 0.328798,0.789888 0.88156,0.775561 0.884582,0.790071 0.166586,0.8 -0.622934,0.0086 -0.682188,0.101802 -0.4,0.629075 0.45919,0.858005 0.414935,1.08162 -0.169666,0.857287 -0.38454,-0.147561 -0.453879,-0.04399 -0.298436,0.445764 0.198018,0.623901 -0.185378,0.812469 -1.350469,0.664208 -0.214406,-0.02728 -0.972453,0.247626 -1.684549,0.61091 -1.41304,0.72088 -1.754209,0.646522 -3.705314,-0.807572 -0.82346,-0.613698 -2.277684,-0.959224 -3.459489,-0.821981 -0.65013,0.0755 0.620282,1.019345 1.837143,1.364894 1.710091,0.485612 2.056051,0.800669 1.43446,1.306328 -0.27125,0.22066 -0.81608,0.87308 -1.210733,1.449824 l -0.717552,1.048625 -1.111226,-0.97567 c -1.194223,-1.048541 -1.711058,-1.019235 -1.716036,0.09731 -0.0096,2.142487 -3.471179,6.486691 -6.209278,7.7924 -1.467914,0.699999 -1.471029,2.590666 -0.0079,4.823611 l 0.521803,0.796372 0.94835,-1.150513 c 0.952639,-1.155716 2.510199,-1.007373 2.510199,0.239072 0,0.683327 1.350249,1.213282 8.738232,3.429641 7.280859,2.184222 8.121398,2.340815 11.901768,2.217309 2.935835,-0.09591 16.475884,-4.975628 17.037814,-6.140275 0.80034,-1.658794 1.33132,-1.799807 2.37571,-0.630926 1.10497,1.236667 1.65501,1.017019 2.17921,-0.870213 0.64993,-2.339862 0.48844,-2.773308 -1.43835,-3.86072 -3.29168,-1.857715 -5.4704,-4.490246 -6.07275,-7.337675 l -0.22699,-1.073032 -1.16732,1.131325 -1.16732,1.131325 -1.29703,-1.417264 c -1.2111,-1.323365 -1.33261,-2.059323 -0.34,-2.059323 0.66364,0 3.07016,-1.352226 2.8991,-1.629009 -0.45453,-0.735449 -4.77944,0.437353 -4.48098,1.215124 0.0971,0.253002 -0.44874,0.721158 -1.40688,1.206684 -1.63331,0.827661 -2.167713,0.628302 -1.54675,-0.577021 0.27033,-0.524723 0.22857,-0.545467 -0.410061,-0.203684 -0.643655,0.344473 -0.69428,0.316442 -0.534181,-0.295778 0.12249,-0.468402 0.02798,-0.676316 -0.307417,-0.676316 -0.297265,0 -0.413717,-0.183879 -0.301558,-0.476161 0.100496,-0.261889 0.0799,-0.460836 -0.04576,-0.442105 -0.722837,0.10774 -0.735076,-0.132207 -0.04426,-0.867778 l 0.77578,-0.826044 -0.88,0.220735 c -0.924733,0.231955 -1.143766,-0.09688 -0.496,-0.744647 0.298667,-0.298666 0.263112,-0.384 -0.16,-0.384 -0.83206,0 -0.647445,-0.606588 0.318575,-1.046736 L 63.09639,4.281557 62.153815,4.096532 61.21124,3.911507 l 0.88,-0.426464 c 0.957356,-0.463952 1.164791,-0.963735 0.4,-0.963735 -0.713396,0 -0.580794,-0.564881 0.190033,-0.809532 0.478938,-0.152008 0.921015,0.0278 1.550054,0.630449 1.1347,1.08711 2.80745,1.368815 4.11449,0.692915 0.54651,-0.282607 1.57371,-0.513832 2.28268,-0.513832 1.26252,0 1.28145,-0.01663 0.92057,-0.80868 -0.47809,-1.049289 -0.16517,-1.305965 1.86613,-1.530726 L 75.059147,0 l 0.13116,2.059763 c 0.1525,2.39496 0.59042,3.08175 1.46206,2.292932 2.72298,-2.464263 9.85371,-3.454385 14.53003,-2.017534 3.40859,1.047325 8.58885,4.654653 8.58885,5.98093 0,0.156869 0.216,0.285217 0.480003,0.285217 0.62125,0 0.61926,-0.01649 -0.313123,-2.601284 -0.85637,-2.374041 -0.82183,-2.439714 0.903763,-1.718716 0.63184,0.264 1.8075,0.48 2.61257,0.48 h 1.46376 l -0.81348,1.388115 c -1.17533,2.005539 -1.10717,2.688037 0.17391,1.741465 2.26702,-1.675062 4.8672,-0.781967 6.42294,2.20611 0.80233,1.541015 3.00773,2.98431 4.56013,2.98431 0.43547,0 0.88075,0.144 0.98953,0.32 0.11953,0.193405 -0.34773,0.328025 -1.18112,0.340284 -1.10424,0.01624 -1.242,0.07551 -0.69163,0.297575 1.11233,0.448799 1.27711,1.024488 0.21956,0.767052 l -0.90687,-0.220756 0.61171,0.690259 0.61172,0.690259 -1.09172,-0.204659 c -0.901,-0.168908 -1.02184,-0.130187 -0.69171,0.221656 0.63295,0.674597 0.46803,0.948343 -0.37763,0.626822 -0.75316,-0.28635 -0.7671,-0.265448 -0.443,0.664255 0.42581,1.221489 0.20346,1.434205 -0.80707,0.772083 -0.77294,-0.506451 -0.79671,-0.501382 -0.63044,0.134431 0.52051,1.990433 -1.30827,0.420454 -2.09989,-1.802726 -0.57987,-1.628502 -2.79948,-3.272022 -4.44197,-3.289074 -0.99403,-0.01032 -0.92493,0.210975 0.7202,2.306563 1.70091,2.166648 1.70074,2.165962 0.52003,2.165962 -0.50587,0 -1.53418,0.216778 -2.28513,0.481728 -1.73156,0.61093 -2.16996,0.28532 -2.29861,-1.707223 l -0.0965,-1.494505 -0.86777,1.476111 c -1.670553,2.84168 -4.707993,4.76978 -8.637383,5.482833 -2.38467,0.432739 -2.4836,0.54112 -2.48995,2.727916 -0.006,2.220102 0.84346,2.738381 3.13771,1.913376 1.61826,-0.581924 2.35421,-0.29355 2.79498,1.095185 0.26878,0.846853 12.354503,8.874489 13.487083,8.958451 0.53548,0.0397 1.43874,-0.294305 2.2474,-0.831027 2.07329,-1.376089 3.01894,-0.733168 1.52793,1.038796 -1.15019,1.366921 -1.03111,2.14444 0.47395,3.094541 2.59577,1.63864 1.90723,3.86721 -1.37821,4.46075 -1.40665,0.25412 -1.84785,-0.0136 -2.98124,-1.809 -0.41714,-0.6608 -1.33356,-1.582053 -2.03648,-2.047221 -0.7029,-0.465167 -1.27801,-1.079496 -1.27801,-1.365176 0,-0.403235 -7.764103,-5.114975 -9.989413,-6.062202 -0.35284,-0.150188 -0.31196,1.343608 0.0638,2.33197 0.17293,0.454833 0.47089,2.516207 0.66215,4.580832 0.20671,2.231437 0.72471,5.051667 1.27724,6.953867 0.88537,3.04804 2.46602,9.09038 2.62943,10.05146 0.0886,0.52086 -1.80922,1.08833 -5.60323,1.67547 -1.88069,0.29105 -2.48056,0.50575 -2.48231,0.88843 -0.001,0.27755 0.1593,2.37664 0.35681,4.66464 l 0.35912,4.16 1.42711,1.34727 c 3.29496,3.11061 -1.17589,4.66042 -7.52816,2.60961 l -1.06742,-0.34462 0.88377,-0.92245 c 0.48607,-0.50735 1.14641,-1.00581 1.46742,-1.1077 0.77646,-0.24643 0.73714,-0.99931 -0.32467,-6.21691 l -0.87809,-4.3148 -1.51752,-0.25442 c -0.83463,-0.13992 -3.4002,-0.21426 -5.70125,-0.1652 l -4.18374,0.0892 -1.99011,4.64 c -1.09456,2.552 -2.08927,5.13707 -2.21046,5.74461 -0.53802,2.69713 -2.10087,3.11894 -5.9172,1.59705 -3.893528,-1.55269 -3.774664,-2.47713 0.45547,-3.54229 1.69051,-0.42567 1.74099,-0.50591 3.37091,-5.3575 1.44478,-4.3005 1.36342,-3.88187 0.75449,-3.88187 -1.04838,0 -5.843764,-2.16584 -7.434173,-3.35766 -2.314909,-1.73474 -2.242855,-2.13612 1.00704,-5.60976 2.691843,-2.87716 9.568503,-16.323701 8.761023,-17.131186 -0.0927,-0.09275 -3.37261,0.678354 -7.651383,1.79887 -0.706458,0.185006 -1.225449,0.542227 -1.321519,0.9096 -0.242374,0.926839 -1.579984,1.636239 -3.810839,2.021076 -4.267477,0.736168 -6.168906,0.246135 -6.556056,-1.689615 -0.122812,-0.614061 -0.429923,-1.006065 -0.869095,-1.109336 -1.481975,-0.348486 -8.361666,-1.6956 -8.4033,-1.645452 -0.66575,0.801901 6.731466,13.793613 9.326174,16.379543 3.909215,3.89598 4.085481,4.41757 1.912632,5.65964 -2.384485,1.36306 -5.860975,3.07999 -6.954676,3.43471 -1.44622,0.46906 -1.49994,-0.0482 0.517164,4.97957 l 1.668966,4.16 2.282614,-0.11246 c 2.326524,-0.11462 4.000667,0.43787 4.38838,1.44823 0.146165,0.3809 -6.198199,2.66423 -7.402719,2.66423 -0.900896,0 -2.934741,-1.29306 -3.137351,-1.99464 -0.181406,-0.62815 -3.549893,-7.85982 -4.287826,-9.20536 -0.780714,-1.42355 -11.349302,-0.30529 -11.645358,1.23219 -0.930893,4.83431 -1.276377,9.28101 -0.761116,9.79627 1.918503,1.91851 -6.627919,4.9921 -8.921592,3.20852 z m 8.732545,-11.39345 c 0.113895,-1.45162 0.04632,-2.19047 -0.215114,-2.35204 -0.555169,-0.34312 -0.558642,-0.33038 -0.956578,3.50851 -0.200684,1.936 -0.429006,4.024 -0.507381,4.64 -0.08789,0.69077 0.174725,0.20023 0.685257,-1.28 0.455267,-1.32 0.902484,-3.35241 0.993816,-4.51647 z m 60.566295,1.15647 v -4.64 h -0.90789 c -1.18134,0 -0.95162,6.27661 0.31916,8.72 0.52894,1.01702 0.58873,0.60265 0.58873,-4.08 z m -40.859522,3.64556 c -0.03274,-0.24506 -0.414562,-1.52556 -0.848502,-2.84556 -0.433941,-1.32 -0.955579,-3.12 -1.159195,-4 -0.458849,-1.98308 -0.666555,-2.19811 -1.868263,-1.93417 l -0.958736,0.21057 0.5232,1.3418 c 0.28776,0.73799 0.981632,2.10652 1.541937,3.04117 0.560306,0.93466 1.275319,2.41291 1.588919,3.285 0.509099,1.41575 1.333432,2.04497 1.18064,0.90119 z m 22.699522,-4.08305 c 2.45411,-4.67499 2.49724,-4.84251 1.24653,-4.84251 -0.8434,0 -1.03986,0.25995 -2.56118,3.38899 -2.19243,4.50937 -2.37766,5.53463 -1.00535,5.56471 0.088,0.002 1.132,-1.84811 2.32,-4.11119 z m -23.200002,-9.11492 c 1.98,-0.90092 3.6,-1.76788 3.6,-1.92658 0,-0.26284 -1.771201,-4.03871 -4.697772,-10.01479 -0.617813,-1.261573 -1.830444,-3.133573 -2.694738,-4.159997 -0.864293,-1.026424 -1.837384,-2.410487 -2.162424,-3.075695 -0.453429,-0.927961 -0.669873,-1.114164 -0.929928,-0.8 -0.250595,0.302737 0.411883,1.952584 2.541529,6.329469 4.091615,8.409163 4.096163,9.172133 0.07725,12.960003 -3.54441,3.34064 -2.082507,3.57626 4.266083,0.68759 z m 23.920002,1.07748 c -0.352,-0.14939 -0.89748,-0.35322 -1.21217,-0.45297 -2.48546,-0.78779 -3.43661,-6.62159 -1.65335,-10.14068 0.43203,-0.85258 0.78552,-1.90947 0.78552,-2.34864 0,-0.43918 0.85351,-2.567964 1.8967,-4.730641 2.12205,-4.399311 2.29006,-4.892141 1.66776,-4.892141 -0.23954,0 -0.76483,0.864 -1.16731,1.92 -2.66323,6.987612 -6.76478,14.779692 -9.066153,17.223772 -0.928321,0.98588 -0.475165,1.81623 0.991199,1.81623 0.329934,0 0.914414,0.17347 1.298834,0.38549 1.03094,0.56859 4.68995,1.47719 5.97897,1.48468 0.89998,0.005 0.99427,-0.0468 0.48,-0.2651 z M 8.3786369,47.929726 c 0.932997,-0.7339 2.6428041,-3.80843 2.1179391,-3.80843 -0.178964,0 -0.32539,0.23829 -0.32539,0.52954 0,0.75785 -2.4543461,2.98964 -3.2934741,2.99483 -1.417801,0.009 -2.35885,0.38926 -1.64939,0.6669 1.125224,0.44034 2.282626,0.29968 3.150315,-0.38284 z m 4.5125491,-6.13738 c 1.056,-1.109079 2.627466,-2.598563 3.492146,-3.309963 0.964345,-0.793396 1.482307,-1.438817 1.339768,-1.669452 -0.244449,-0.395525 -1.983071,0.960489 -5.835833,4.551575 -1.875902,1.74849 -2.2387841,2.43122 -1.297196,2.44057 0.209613,0.002 1.245115,-0.90365 2.301115,-2.01273 z m 98.263784,1.33046 c 0.12486,-0.20203 -0.21605,-0.70096 -0.78111,-1.14319 -0.55147,-0.43159 -1.00267,-1.045477 -1.00267,-1.364193 0,-0.318717 -0.29869,-0.657594 -0.66375,-0.753059 -0.36506,-0.09547 -0.74368,-0.479234 -0.84138,-0.852818 -0.2456,-0.939177 -1.19099,-0.687867 -1.31171,0.348687 -0.0761,0.653071 0.0956,0.91247 0.8,1.208998 0.49326,0.207642 1.30218,0.948245 1.79759,1.645795 0.90205,1.2701 1.58784,1.58158 2.00303,0.90978 z M 30.267185,33.817294 c 0.2112,-0.2112 0.384,-0.9312 0.384,-1.6 0,-1.218782 0.49582,-1.644073 0.847691,-0.727111 0.953157,2.483887 5.232309,1.653282 5.232309,-1.015617 0,-0.916751 0.110955,-1.073272 0.760818,-1.073272 0.712908,0 1.741396,-0.804453 1.428509,-1.11734 -0.658386,-0.658386 -2.509327,0.669168 -2.509327,1.799771 0,2.1959 -2.457215,2.648043 -4.117074,0.757569 -1.274365,-1.451422 -1.492913,-1.414019 -1.932238,0.330696 -0.585936,2.326965 -2.082433,2.583963 -4.088164,0.702073 l -1.017476,-0.954655 -0.865679,0.680943 c -0.500217,0.393471 -1.32826,0.680943 -1.961409,0.680943 -0.649001,0 -1.015099,0.130464 -0.897959,0.32 0.306525,0.495969 2.49566,0.377389 3.288797,-0.178146 0.391162,-0.27398 0.711202,-0.365462 0.711202,-0.203295 0,1.139844 3.883652,2.449789 4.736,1.597441 z M 90.192107,32.8822 c 0.19989,-0.373502 0.27985,-1.097018 0.1777,-1.607814 -0.1675,-0.837461 -0.12556,-0.896508 0.42678,-0.600906 1.42584,0.763088 2.36122,0.271887 2.73067,-1.433976 0.19392,-0.895385 0.1757,-0.918955 -0.27787,-0.359483 -0.47922,0.591114 -1.52428,0.617086 -2.79356,0.06943 -0.40577,-0.175081 -0.55596,0.02786 -0.70632,0.954431 -0.20292,1.250455 -1.00538,2.377416 -1.69286,2.377416 -0.99205,0 -2.04883,-0.800591 -2.37955,-1.80269 -0.50457,-1.528848 -0.75657,-1.544935 -1.7498,-0.111701 -1.41823,2.046513 -2.39611,1.434815 -2.39611,-1.498855 v -1.53532 l -0.79314,1.1672 c -0.48764,0.717627 -1.23225,1.312123 -1.93319,1.543455 -1.77649,0.586293 -2.06991,0.307929 -2.09978,-1.992046 l -0.0261,-2.010043 -0.46992,1.077015 c -1.4162,3.245831 0.55845,5.477411 3.01656,3.409048 l 0.98317,-0.827281 0.22099,1.473657 c 0.3808,2.539392 2.98227,2.860508 3.70238,0.457009 l 0.38479,-1.28434 0.67389,1.201373 c 1.12788,2.010714 4.20056,2.830558 5.00127,1.334425 z M 52.408042,32.44508 c 0.521387,-0.628233 0.253872,-0.702806 -3.356857,-0.935768 -1.584,-0.102199 -3.456,-0.277065 -4.16,-0.388593 -1.013875,-0.160618 -1.202441,-0.11988 -0.90696,0.195939 0.205172,0.219293 1.584305,0.521489 3.06474,0.671545 1.480435,0.150057 3.040567,0.412261 3.46696,0.582677 1.098185,0.438909 1.442446,0.416021 1.892117,-0.1258 z m 12.848155,-0.361794 c 1.27773,-0.460904 3.33831,-0.964636 4.57907,-1.119404 1.48964,-0.185813 2.39066,-0.463882 2.65261,-0.818632 0.61551,-0.83357 0.28314,-0.861091 -1.89625,-0.157012 -1.11124,0.359001 -2.92224,0.875282 -4.02443,1.147292 -1.92885,0.476022 -4.799142,1.742511 -4.015084,1.771621 0.209511,0.0078 1.426348,-0.362961 2.704084,-0.823865 z M 33.043801,25.161294 c -0.893079,-3.719651 -1.887281,-3.969155 -1.90294,-0.477559 l -0.0097,2.157403 1.15799,7.8e-5 1.15799,7.8e-5 z m 50.476706,-1.44 c 0.21043,-3.159226 -0.86678,-3.736 -1.79295,-0.96 -0.30828,0.924 -0.62719,1.837845 -0.7087,2.030767 -0.11891,0.281466 1.12273,0.890208 2.15505,1.056565 0.1115,0.01797 0.26746,-0.939332 0.3466,-2.127332 z M 33.531185,19.629786 c 1.276706,-0.63831 5.12,-4.237941 5.12,-4.795395 0,-0.117929 -0.684,0.306789 -1.52,0.943818 -2.198087,1.674933 -6.220855,4.010568 -6.919182,4.017305 -0.494449,0.0048 -0.529999,0.08914 -0.203385,0.482687 0.471822,0.56851 1.447931,0.388833 3.522567,-0.648415 z M 11.375174,17.485025 c -0.117207,-0.698148 -0.137163,-0.691814 -0.564551,0.179185 -0.380777,0.776007 -0.37814,0.943489 0.01876,1.191574 0.527394,0.329654 0.741141,-0.20717 0.545794,-1.370759 z m 68.876013,1.036269 c -0.18839,-0.352 -0.4888,-0.64 -0.66758,-0.64 -0.61439,0 -2.54352,-2.401181 -2.91807,-3.632116 -0.35972,-1.182238 -1.65389,-2.435014 -2.07767,-2.011231 -0.11184,0.111841 -0.0514,0.203347 0.13437,0.203347 0.18575,0 0.42929,0.468 0.54121,1.04 0.27644,1.412831 1.97102,3.569831 3.71177,4.724644 1.70542,1.131372 1.71379,1.133441 1.27597,0.315356 z m 23.271603,-1.404935 c 0.0401,-0.0401 -0.19352,-0.774802 -0.51916,-1.632665 -0.63164,-1.663984 -0.7216,-1.591964 -1.14655,0.917824 -0.19112,1.128817 0.81847,1.562084 1.66571,0.714841 z M 21.571903,15.321294 c 1.930028,0 2.674552,-3.253962 1.103898,-4.824615 -2.481622,-2.481622 -6.457414,0.493702 -4.799419,3.591694 0.392147,0.732735 2.159795,1.60442 2.800976,1.381253 0.234394,-0.08158 0.63694,-0.148332 0.894545,-0.148332 z M 19.01434,14.018068 c -1.523636,-1.198492 -0.796052,-3.503878 1.102043,-3.491874 2.253316,0.01425 2.795177,2.856331 0.724459,3.799813 -0.98018,0.4466 -0.836457,0.47083 -1.826502,-0.307939 z M 94.995797,13.10591 c 1.82342,-1.823421 0.48149,-4.504616 -2.25454,-4.504616 -1.70137,0 -2.89007,1.087611 -2.89007,2.644293 0,2.619458 3.22081,3.784123 5.14461,1.860323 z m -3.47341,-0.202761 c -1.40526,-0.98428 -0.61351,-3.661855 1.08279,-3.661855 1.82689,0 2.71146,2.21455 1.40601,3.52 -0.76884,0.768836 -1.53159,0.812311 -2.4888,0.141855 z M 9.2570369,12.203443 c 0.38622,-0.38622 -1.036523,-1.597339 -2.227634,-1.896289 -0.927184,-0.232708 -1.658217,0.528455 -1.658217,1.72656 0,0.6549 0.08253,0.705927 0.650307,0.402064 0.591276,-0.316442 0.631701,-0.273904 0.445341,0.468613 l -0.204965,0.816646 1.337687,-0.5989 c 0.735728,-0.329395 1.481595,-0.742808 1.657481,-0.918694 z m 24.8184981,0.504445 c 1.396413,-1.158919 1.083847,-3.744621 -0.555112,-4.592159 -1.469167,-0.759736 -2.791305,-0.601598 -3.853853,0.46095 -2.720267,2.720267 1.426861,6.606136 4.408965,4.131209 z m -3.566204,-0.977796 c -0.869907,-1.241965 -0.614134,-2.399283 0.680902,-3.080938 1.900646,-1.000424 3.685841,1.805437 2.075755,3.262544 -0.835238,0.75588 -2.161201,0.668527 -2.756657,-0.181606 z m 75.996519,0.09861 c -0.45315,-0.846727 -0.0177,-0.853613 1.04646,-0.01655 l 0.82743,0.650858 -0.48977,-1.437384 c -0.68489,-2.010052 -2.55511,-2.3615 -4.23554,-0.795937 -0.98336,0.91614 -0.85919,1.152554 0.73059,1.390956 0.77761,0.116609 1.59013,0.424439 1.8056,0.684067 0.54089,0.651735 0.74989,0.336147 0.31523,-0.47601 z m -62.641189,0.190562 c 0.198088,-0.51621 -1.59045,-1.283553 -1.884137,-0.808359 -0.208191,0.336861 0.755172,1.203484 1.356425,1.220213 0.20117,0.0056 0.43864,-0.179737 0.527712,-0.411854 z M 83.568027,11.45807 c 1.11564,-0.87756 1.17745,-2.753183 0.12316,-3.737273 -2.72433,-2.542929 -6.73058,0.839148 -4.10462,3.465114 1.14398,1.143983 2.73487,1.25273 3.98146,0.272159 z m -2.83684,-0.359158 c -1.88962,-1.071535 -1.27671,-3.777618 0.8556,-3.777618 2.07036,0 2.57594,2.797013 0.68543,3.792095 -0.83146,0.437651 -0.74224,0.438489 -1.54103,-0.01448 z M 65.048917,10.84496 c 0.11211,-0.181396 -0.0163,-0.235043 -0.30111,-0.125764 -0.55438,0.212733 -0.65581,0.442098 -0.19551,0.442098 0.16561,0 0.38909,-0.14235 0.49662,-0.316334 z M 19.357113,8.357635 c 0.38826,-0.248328 0.864952,-0.353224 1.059314,-0.233101 0.194363,0.120123 0.784707,0.03975 1.311876,-0.178614 0.719603,-0.29807 1.049757,-0.305752 1.324686,-0.03082 0.513626,0.513626 1.88793,0.455755 2.700994,-0.113737 0.376861,-0.263963 0.923297,-0.388568 1.214302,-0.276899 0.308033,0.118203 0.915137,-0.08238 1.453042,-0.480066 0.508169,-0.375705 1.353276,-0.683101 1.878015,-0.683101 0.52474,0 1.034598,-0.130293 1.133019,-0.289541 0.09842,-0.159248 0.754919,-0.212288 1.458885,-0.117866 0.840374,0.112717 1.279939,0.04731 1.279939,-0.190459 0,-0.199173 0.252,-0.367899 0.56,-0.374946 2.055172,-0.04702 -4.188928,-1.893847 -6.432186,-1.902458 -2.922828,-0.01122 -9.407791,1.89964 -10.441172,3.076597 -1.869716,2.129488 -0.878712,3.315962 1.499286,1.795014 z m 51.730184,-1.04745 c 0.47286,-0.433486 -0.0541,-0.856634 -0.9856,-0.791415 -1.5531,0.108741 -1.66142,0.150245 -1.98885,0.762043 -0.33784,0.631264 2.28959,0.657209 2.97445,0.02937 z M 45.371185,7.169512 c 0,-0.290319 -1.903819,-1.134047 -2.709333,-1.200714 -0.445867,-0.0369 -0.810667,-0.198237 -0.810667,-0.358524 0,-0.27727 2.55701,-0.06854 3.763897,0.307252 0.305857,0.09524 -0.0079,-0.341957 -0.697212,-0.971538 -1.393759,-1.272966 -2.502303,-1.452982 -4.042576,-0.656476 -0.911846,0.471534 -1.274766,1.111782 -0.630206,1.111782 0.172647,0 0.407814,0.374167 0.522592,0.831482 0.176879,0.704739 0.342114,0.804797 1.084007,0.656418 0.481425,-0.09628 1.290258,-0.05083 1.797408,0.101013 1.084407,0.324676 1.72209,0.391072 1.72209,0.179305 z M 96.571187,7.156783 c 0,-2.617726 -11.19014,-5.712846 -14.97028,-4.140682 -3.38744,1.408841 -4.45185,3.521223 -1.17774,2.337288 0.89676,-0.324273 1.128,-0.297824 1.60997,0.184147 0.36596,0.365961 0.85227,0.505167 1.39043,0.398007 0.46262,-0.09212 1.10156,0.03599 1.44878,0.290477 0.72813,0.533674 1.77884,0.602859 1.77884,0.117129 0,-0.189533 0.31256,-0.119214 0.7112,0.16 0.89833,0.629212 2.04509,0.642088 2.28165,0.02562 0.15654,-0.407944 0.31647,-0.39701 1.17012,0.08 0.94547,0.528322 1.00835,0.52637 1.4353,-0.04455 0.43345,-0.579622 0.47167,-0.577283 1.30727,0.08 0.75337,0.592603 3.01446,0.97707 3.01446,0.512567 z M 73.581907,5.329754 c -0.76409,-1.367712 -2.19813,-1.689568 -4.37072,-0.980962 l -1.6,0.521852 0.95858,0.258668 c 0.52723,0.142267 1.43136,0.128129 2.0092,-0.03142 0.89283,-0.246524 1.18137,-0.174961 1.92141,0.476545 1.27783,1.124959 1.78286,1.010701 1.08153,-0.244683 z"
     id="path1" />
</svg>
