<?xml version="1.0" encoding="UTF-8" standalone="no"?>
<!-- Created with Inkscape (http://www.inkscape.org/) -->

<svg
   version="1.1"
   id="svg1"
   width="103.8924"
   height="92.149139"
   viewBox="0 0 103.8924 92.149142"
   sodipodi:docname="Icon_mathematician.svg"
   inkscape:version="1.4.2 (ebf0e940d0, 2025-05-08)"
   xmlns:inkscape="http://www.inkscape.org/namespaces/inkscape"
   xmlns:sodipodi="http://sodipodi.sourceforge.net/DTD/sodipodi-0.dtd"
   xmlns="http://www.w3.org/2000/svg"
   xmlns:svg="http://www.w3.org/2000/svg">
  <defs
     id="defs1" />
  <sodipodi:namedview
     id="namedview1"
     pagecolor="#505050"
     bordercolor="#eeeeee"
     borderopacity="1"
     inkscape:showpageshadow="0"
     inkscape:pageopacity="0"
     inkscape:pagecheckerboard="0"
     inkscape:deskcolor="#505050"
     showgrid="false"
     inkscape:zoom="4.2301186"
     inkscape:cx="51.889799"
     inkscape:cy="60.281998"
     inkscape:window-width="1838"
     inkscape:window-height="1011"
     inkscape:window-x="40"
     inkscape:window-y="47"
     inkscape:window-maximized="1"
     inkscape:current-layer="svg1" />
  <path
     style="fill:#0162ab"
     d="m 1.4338819,91.858881 c 0,-0.16561 0.146349,-0.39156 0.32522,-0.50211 0.404801,-0.25018 0.08024,-0.83025 -0.42935,-0.76735 -1.13403502,0.14 -1.57062402,-0.0338 -1.20169602,-0.4783 0.284696,-0.34304 0.280444,-0.47958 -0.01803,-0.57908 -0.258778,-0.0863 0.0067,-0.77376 0.786644,-2.03743 1.21838702,-1.97394 1.66114102,-3.27169 0.53721502,-1.57461 -1.04718702,1.5812 -0.72452702,0.68699 0.595863,-1.65135 0.679725,-1.20376 1.838067,-3.32887 2.574092,-4.72246 0.736025,-1.39359 1.746195,-2.99845 2.244822,-3.56636 0.498627,-0.5679 1.164689,-1.73169 1.480138,-2.58619 0.31545,-0.8545 0.749058,-1.76964 0.963575,-2.03364 1.0551851,-1.29859 4.2745601,-6.867358 6.7210011,-11.625767 0.799046,-1.55417 2.381543,-4.342699 3.516659,-6.19673 1.135117,-1.854031 2.063849,-3.446876 2.063849,-3.539655 0,-0.09278 0.565932,-1.06478 1.257627,-2.160001 0.691694,-1.095221 1.476347,-2.514782 1.743671,-3.15458 0.267325,-0.639798 0.661393,-1.163269 0.875707,-1.163269 0.214314,0 0.294911,-0.09475 0.179105,-0.210557 -0.115806,-0.115806 -0.08117,-0.367806 0.07696,-0.56 0.158135,-0.192194 0.711026,-1.141443 1.228647,-2.109443 0.517621,-0.968 1.790988,-3.251214 2.829705,-5.073809 1.038718,-1.822595 2.501068,-4.461479 3.249667,-5.864185 0.748599,-1.402707 1.991058,-3.439493 2.761019,-4.526191 C 36.565954,24.089116 37.52224,22.552 37.921074,21.76 c 0.398833,-0.792 1.048667,-1.872 1.444075,-2.4 0.395408,-0.528 1.241638,-2.006378 1.880512,-3.285284 0.638874,-1.278906 1.734582,-3.261443 2.434906,-4.405636 0.700324,-1.144194 1.273316,-2.159892 1.273316,-2.257106 0,-0.268075 2.873452,-4.955368 3.728559,-6.082179 0.413292,-0.544613 0.751441,-1.122084 0.751441,-1.28327 C 49.433883,1.754446 50.94089,0 51.191776,0 c 1.203237,0 2.390895,1.503952 6.270987,7.941062 0.77611,1.287584 2.23294,3.663584 3.23738,5.28 1.00445,1.616416 2.32268,3.874938 2.92941,5.018938 0.60673,1.144 1.48012,2.631135 1.94088,3.304744 0.46076,0.67361 1.18329,1.906655 1.60563,2.740101 0.42234,0.833445 0.99512,1.703942 1.27285,1.934437 0.27773,0.230495 0.50497,0.595477 0.50497,0.81107 0,0.215593 0.80621,1.673961 1.79157,3.240818 2.15641,3.428959 3.00843,5.051932 3.00843,5.730626 0,0.279012 0.33621,0.843506 0.74714,1.254432 1.02347,1.023475 2.5266,3.645568 2.30001,4.012197 -0.10179,0.164705 0.0929,0.448247 0.43271,0.630095 0.33979,0.181847 0.92667,0.945072 1.30418,1.696055 0.37752,0.750983 1.31325,2.373424 2.0794,3.605424 0.95474,1.535262 1.27716,2.313966 1.02478,2.4751 -0.26714,0.170561 -0.25733,0.236445 0.0358,0.24 0.49147,0.006 2.63603,3.282387 2.63603,4.027283 0,0.29322 0.432,1.025148 0.96,1.626507 0.528,0.601358 0.96,1.222186 0.96,1.379616 0,0.15743 0.55119,1.124419 1.22487,2.148865 1.30637,1.986568 1.79528,2.973231 1.69394,3.418586 -0.0345,0.151777 0.19438,0.464004 0.5087,0.693837 0.31431,0.229833 0.46594,0.523414 0.33696,0.652401 -0.12899,0.128988 -0.0249,0.392762 0.23138,0.586164 0.25625,0.193402 0.93802,1.239199 1.51503,2.323993 1.28784,2.42115 4.24511,7.45008 6.80912,11.57912 2.737817,4.40895 3.679997,6.25536 3.679997,7.21183 0,0.54447 0.17424,0.8367 0.49888,0.8367 0.27477,0 0.40324,0.15476 0.28597,0.34451 -0.11711,0.18948 0.0784,0.61589 0.4344,0.94758 1.16674,1.08698 -0.16912,3.0495 -1.92157,2.823 -0.40573,-0.0524 -0.94519,0.0337 -1.1988,0.19144 -0.29687,0.18463 -0.505527,0.15353 -0.585807,-0.0873 -0.0788,-0.23624 -0.32155,-0.27597 -0.65889,-0.1078 -0.2938,0.14646 -1.18218,0.1936 -1.97418,0.10475 -1.53145,-0.17181 -10.6768,-0.16919 -18.88,0.005 -2.728,0.0581 -5.88197,-0.013 -7.00882,-0.1579 -1.12685,-0.1449 -2.13485,-0.14555 -2.24,-10e-4 -0.27979,0.38347 -27.298453,0.44031 -27.758629,0.0584 -0.218491,-0.18133 -0.450099,-0.19112 -0.553759,-0.0234 -0.292602,0.47344 -12.997795,0.45062 -13.003692,-0.0234 -0.0031,-0.2507 -0.09036,-0.2753 -0.24,-0.0677 -0.152531,0.21163 -4.379146,0.32401 -12.034562,0.32 -11.7969741,-0.006 -11.7996261,-0.006 -12.5764871,0.71382 -0.815081,0.75526 -1.38405,0.92746 -1.38405,0.41888 z m 93.6796811,-4.92087 c 2.15583,-0.0319 3.91983,-0.0685 3.92,-0.0813 1.8e-4,-0.0128 -0.43168,-0.91511 -0.95968,-2.0051 -0.528,-1.09 -0.96,-2.05843 -0.96,-2.15208 0,-0.0937 -0.53305,-0.99136 -1.18454,-1.9949 -0.6515,-1.00355 -1.4075,-2.20602 -1.68,-2.67217 -1.67815,-2.87066 -4.01546,-4.71254 -4.01546,-3.1643 0,0.0336 -0.648,0.12864 -1.44,0.21115 -0.792,0.0825 -2.304,0.34712 -3.36,0.58804 -1.056,0.24091 -2.856,0.62079 -4,0.84418 -1.144,0.22339 -2.8,0.67564 -3.68,1.00501 -0.88,0.32937 -2.31147,0.67137 -3.18105,0.76 -0.86957,0.0886 -1.69087,0.22902 -1.8251,0.31198 -0.13423,0.0829 -1.00676,0.23222 -1.93895,0.33169 -0.9322,0.0995 -1.8389,0.29552 -2.0149,0.43565 -0.176,0.14012 -1.184,0.41761 -2.24,0.61663 -1.79841,0.33894 -3.4271,0.72711 -6.87241,1.63791 -1.19529,0.31599 -3.236166,0.6936 -5.773218,1.06819 -0.267095,0.0394 -0.627095,0.1539 -0.8,0.25436 -0.324894,0.18876 -2.556828,0.69871 -4.794374,1.09541 -1.736525,0.30787 -1.783693,0.31825 -5.572406,1.22611 -1.832824,0.43919 -3.426884,0.74013 -3.542357,0.66876 -0.115472,-0.0714 -0.842352,0.057 -1.615289,0.28519 l -1.405338,0.41495 1.107695,0.18372 c 0.938609,0.15568 3.954434,0.0856 4.467695,-0.10383 0.088,-0.0325 0.304,-0.02 0.48,0.0278 0.176,0.0477 3.128,0.0452 6.56,-0.006 3.432,-0.0509 10.416002,-0.0733 15.520002,-0.0497 5.104,0.0236 9.856,0.0257 10.56,0.005 2.84334,-0.0849 3.89951,-0.0611 4.18272,0.0943 0.1635,0.0897 2.66538,0.19025 5.55974,0.22341 2.89435,0.0332 5.33483,0.13267 5.42328,0.22112 0.0885,0.0885 0.38435,0.0745 0.65754,-0.0311 0.27319,-0.10557 2.26058,-0.21805 4.4164,-0.24995 z m -76.092238,-0.43303 c 0.262295,-0.30298 1.612556,-4.42931 1.612556,-4.92789 0,-0.18121 0.422199,-1.43819 0.938219,-2.79328 0.51602,-1.3551 1.60469,-4.62381 2.419268,-7.26381 1.436823,-4.65667 3.975332,-12.710419 5.446585,-17.280002 0.396662,-1.232 1.472122,-4.616 2.38991,-7.52 0.917788,-2.904 2.022919,-6.288 2.455847,-7.52 1.282244,-3.64893 1.252463,-3.479266 0.531712,-3.02915 -0.346152,0.216176 -0.963109,1.16617 -1.371016,2.111098 -0.407906,0.944929 -0.865145,1.718052 -1.016086,1.718052 -0.150941,0 -0.274439,0.151036 -0.274439,0.335635 0,0.184599 -0.554993,1.156599 -1.233317,2.16 -1.09896,1.625618 -3.298872,5.212914 -4.552998,7.424365 -0.249527,0.44 -0.533188,0.872 -0.630358,0.96 -0.09717,0.088 -0.429093,0.664 -0.737606,1.28 -0.308513,0.616 -1.058893,1.984 -1.667512,3.04 -0.608618,1.056 -1.475153,2.676 -1.925633,3.6 -0.450479,0.924 -0.952596,1.68 -1.115814,1.68 -0.163219,0 -0.302368,0.18 -0.309219,0.4 -0.0069,0.22 -0.498518,1.192 -1.092591,2.159999 -0.594073,0.968 -1.65598,2.840003 -2.359793,4.160003 -0.703814,1.32 -1.616148,2.99728 -2.02741,3.72728 -0.411262,0.73001 -1.379684,2.45801 -2.152049,3.84 -0.772365,1.382 -1.647789,2.87272 -1.945387,3.31272 -0.297598,0.44 -0.8637701,1.61169 -1.2581611,2.60377 -0.39439,0.99207 -1.000575,2.10807 -1.347078,2.48 -0.346502,0.37192 -0.547768,0.67623 -0.447256,0.67623 0.100511,0 -0.174105,0.63918 -0.61026,1.42041 l -0.793007,1.42041 0.862725,0.0996 c 1.798654,0.20763 11.9910131,-0.0223 12.2101681,-0.27543 z m 7.273808,-0.81686 c 2.329746,-0.49853 2.338246,-0.50495 2.507884,-1.89374 0.256067,-2.09637 0.525908,-3.64686 0.79959,-4.59438 0.152507,-0.528 0.505858,-2.688 0.785226,-4.8 0.279368,-2.112 0.792462,-5.784 1.14021,-8.16 1.371374,-9.369971 1.748722,-12.869052 1.311359,-12.160002 -0.345319,0.559829 -1.189686,3.185818 -6.636637,20.640002 -2.705474,8.6694 -3.381894,11.70593 -2.569589,11.53517 0.374388,-0.0787 1.572269,-0.33387 2.661957,-0.56705 z m 8.104374,-1.63153 c 0.267094,-0.0478 0.628191,-0.175 0.802437,-0.28269 0.174246,-0.10769 0.84574,-0.29503 1.492208,-0.41631 1.114272,-0.20904 1.73685,-0.85976 1.378036,-1.44033 -0.09007,-0.14574 -0.228727,-4.41675 -0.30812,-9.49112 -0.07939,-5.07438 -0.166286,-9.298143 -0.193098,-9.386143 -0.02681,-0.088 -0.0235,-4.117122 0.0074,-8.953605 0.03086,-4.836483 -0.01229,-8.724483 -0.09588,-8.64 -0.201537,0.20369 -2.620044,14.799553 -3.259879,19.673605 -0.866052,6.597303 -1.995825,15.598093 -2.203789,17.557373 l -0.19927,1.87738 1.047188,-0.20563 c 0.575953,-0.1131 1.26572,-0.24474 1.532814,-0.29253 z m 7.354374,-3.73659 c 0.44,-0.34418 0.962368,-0.62897 1.160817,-0.63289 1.37629,-0.0271 1.353198,-0.68808 -0.363601,-10.40711 -1.105947,-6.260913 -2.397216,-14.591328 -2.397216,-15.465253 0,-0.402886 -0.142029,-0.644741 -0.31562,-0.537456 -0.634701,0.392267 0.118622,27.688639 0.763789,27.675589 0.193507,-0.004 0.711831,-0.28871 1.151831,-0.63288 z m 16.800002,-1.62399 c 1.584,-0.35433 3.312,-0.77254 3.84,-0.92936 0.528,-0.15683 2.256,-0.52114 3.84,-0.80958 1.584,-0.28844 3.96,-0.7973 5.28,-1.13081 1.32,-0.3335 3.048,-0.66813 3.84,-0.74361 1.54044,-0.14682 6.05473,-0.98283 8.16,-1.51116 0.704,-0.17668 2.324,-0.58274 3.6,-0.90236 1.276,-0.31961 2.32,-0.50492 2.32,-0.41179 0,0.0931 0.0872,0.0821 0.19376,-0.0244 0.21894,-0.21894 -2.24892,-3.51025 -3.5095,-4.6805 l -0.82685,-0.7676 -1.8487,0.65325 c -4.95162,1.74967 -7.24921,2.66422 -8.25525,3.28599 -0.60531,0.3741 -2.17629,1.0216 -3.49107,1.43889 -1.31479,0.41729 -3.04569,1.12448 -3.84645,1.57155 -0.80077,0.44706 -1.45594,0.72606 -1.45594,0.62 0,-0.10607 -0.18,-0.0572 -0.4,0.10869 -0.22,0.16585 -1.012,0.49453 -1.76,0.73041 -0.748,0.23587 -1.36,0.53302 -1.36,0.66033 0,0.12731 -0.324,0.30724 -0.72,0.39983 -1.36602,0.31941 -6.154971,2.25 -7.116207,2.86878 -0.888588,0.57202 -0.90137,0.60472 -0.163796,0.41907 0.44,-0.11075 2.096,-0.49126 3.680003,-0.84558 z m -9.855059,0.30354 c 0.492281,-0.19824 1.471057,-0.61115 2.175057,-0.91757 3.850062,-1.67578 11.112782,-4.68259 15.040002,-6.22665 2.112,-0.83037 4.272,-1.69979 4.8,-1.93205 0.528,-0.23226 1.464,-0.56267 2.08,-0.73425 1.25761,-0.3503 5.73223,-2.08731 7.2,-2.79498 0.528,-0.25458 1.52102,-0.682814 2.20671,-0.951645 l 1.24671,-0.488784 -0.60671,-0.708304 c -1.86008,-2.17155 -3.4808,-3.765319 -3.82899,-3.765319 -0.52701,0 -7.1227,3.76062 -8.13772,4.639836 -0.264,0.228677 -1.488,0.954656 -2.72,1.613296 -1.232,0.65863 -2.312,1.29693 -2.4,1.41844 -0.088,0.12151 -1.6,1.06428 -3.36,2.09505 -1.76,1.03077 -4.856,2.87824 -6.880003,4.1055 -2.023999,1.22726 -4.471999,2.65078 -5.439999,3.16338 -2.560718,1.35603 -3.455676,2.32193 -1.375057,1.48405 z m -0.439965,-3.58718 0.904978,-0.75625 -0.984978,-2.17232 c -0.541738,-1.19478 -0.984978,-2.44041 -0.984978,-2.76806 0,-0.32766 -0.11984,-0.59574 -0.26631,-0.59574 -0.146471,0 -0.420023,-0.468 -0.607895,-1.04 -1.368713,-4.167231 -3.240473,-8.011666 -3.183639,-6.538921 0.03181,0.824398 0.174342,1.498909 0.316729,1.498912 0.142387,4e-6 0.176038,0.134056 0.07478,0.297895 -0.101257,0.163839 -0.03776,0.388337 0.141115,0.498885 0.178871,0.110549 0.326929,0.660499 0.329018,1.222112 0.0021,0.561613 0.204954,1.776737 0.450812,2.700267 0.256651,0.96407 0.32367,1.75539 0.157376,1.85816 -0.161981,0.10011 -0.09527,0.55886 0.151348,1.04085 0.242543,0.47401 0.541609,1.50984 0.664591,2.30184 0.635791,4.09446 0.751905,4.19483 2.837053,2.45237 z m 9.708724,-4.73854 c 2.0208,-1.22783 4.42494,-2.71267 5.34251,-3.29963 0.91758,-0.58697 2.67081,-1.59741 3.89606,-2.245426 7.32317,-3.873103 9.37325,-5.704269 7.64202,-6.825971 l -1.13778,-0.737194 -2.61826,1.918712 c -1.44004,1.055292 -3.84225,2.860051 -5.33825,4.010576 -7.4689,5.744083 -11.450299,8.857623 -12.320002,9.634503 l -0.96,0.85754 0.909756,-0.54035 c 0.500365,-0.29719 2.563141,-1.54493 4.583946,-2.77276 z m -5.710849,1.22513 c 0.56562,-0.58357 0.939846,-1.1496 0.831612,-1.25783 -0.108233,-0.10823 0.105235,-0.3854 0.474373,-0.61594 0.369139,-0.23053 0.671161,-0.57311 0.671161,-0.76129 0,-0.18819 0.642015,-1.09429 1.4267,-2.01358 1.348885,-1.580255 4.437843,-5.975404 5.719133,-8.137516 0.32221,-0.543709 1.22207,-1.815396 1.99969,-2.825971 l 1.41385,-1.837409 -1.03969,-0.326713 c -1.94244,-0.610398 -3.85862,-1.054601 -5.01079,-1.161589 -0.63189,-0.05868 -3.236893,-0.323483 -5.788892,-0.58846 -2.552,-0.264977 -4.856,-0.484703 -5.12,-0.48828 -0.264,-0.0036 -1.816134,-0.108609 -3.449187,-0.233406 l -2.969187,-0.226902 0.649187,1.514492 c 0.357053,0.83297 0.649187,1.647679 0.649187,1.810465 0,0.162785 0.72,1.891755 1.6,3.842156 0.88,1.9504 1.6,3.675451 1.6,3.833448 0,0.157996 0.769092,1.841413 1.709094,3.740925 0.940002,1.89951 1.670392,3.71736 1.623088,4.03966 -0.119175,0.81199 0.521003,2.11478 1.039182,2.11478 0.23575,0 0.428636,0.144 0.428636,0.32 0,0.57651 0.497375,0.33762 1.542853,-0.74104 z m 12.284199,-9.888868 6.43621,-5.189906 -1.61429,-0.707492 c -2.51378,-1.101705 -2.60875,-1.083868 -3.88926,0.730495 -1.30467,1.848585 -6.61934,8.936381 -7.34598,9.796811 -1.108218,1.31226 0.34726,0.26152 6.41332,-4.629908 z m 17.72135,-3.271465 c -0.2531,-0.605754 -0.33737,-1.145754 -0.18726,-1.2 0.1501,-0.05425 0.0612,-0.458629 -0.19746,-0.898629 l -0.47038,-0.8 0.19341,0.8 0.1934,0.8 -0.68068,-0.8 c -0.37438,-0.44 -0.90302,-1.300756 -1.17477,-1.912791 -0.27174,-0.612035 -0.88964,-1.692035 -1.37311,-2.4 -0.48347,-0.707965 -1.05502,-1.827209 -1.27011,-2.487209 -0.21509,-0.66 -0.52391,-1.2 -0.68626,-1.2 -0.16235,0 -0.29518,-0.161163 -0.29518,-0.358141 0,-0.196977 -0.5077,-1.193895 -1.12821,-2.215373 -0.62052,-1.021477 -1.08852,-2.00215 -1.04,-2.179273 0.0485,-0.177122 -0.15956,-0.512204 -0.46239,-0.744627 -0.30283,-0.232422 -2.14517,-3.287763 -4.09409,-6.789646 -3.12804,-5.620557 -4.14368,-7.404922 -5.66139,-9.946428 -0.21234,-0.355581 -1.02483,-1.909063 -1.80552,-3.452182 -0.7807,-1.543119 -1.60934,-3.034477 -1.84143,-3.314129 -0.23209,-0.279652 -0.57161,-0.770609 -0.75448,-1.091015 C 59.211143,17.996867 56.999377,14.289999 56.31388,13.165113 56.13788,12.876301 55.500376,11.776 54.897203,10.72 54.29403,9.664 53.481603,8.32149 53.091809,7.736645 L 52.383093,6.673289 51.548487,7.573375 c -0.459034,0.495047 -0.834606,1.023327 -0.834606,1.173956 0,0.15063 -0.3058,0.703328 -0.679556,1.228219 -0.373755,0.524891 -1.093428,1.77112 -1.599274,2.769398 -0.505845,0.998279 -1.052908,2.031052 -1.215695,2.295052 -0.162788,0.264 -0.735439,1.23219 -1.27256,2.151535 l -0.976582,1.671534 3.284148,3.448465 c 3.437447,3.609434 4.157008,4.386122 11.051101,11.928465 2.33266,2.552 4.98982,5.443175 5.90481,6.424833 2.31234,2.480834 6.4095,7.011449 9.09317,10.055167 1.24144,1.408 2.77765,3.056248 3.4138,3.662773 0.63615,0.606525 1.15664,1.211225 1.15664,1.343777 0,0.132552 0.72,1.003849 1.6,1.936216 0.88,0.932367 1.6,1.803667 1.6,1.936223 0,0.132556 0.14593,0.241011 0.32429,0.241011 0.19274,0 0.13761,-0.446793 -0.13589,-1.101371 z m -13.3084,-5.73638 c 0,-0.06476 -1.61721,-1.396763 -3.59379,-2.96 -1.97659,-1.563237 -3.95659,-3.158987 -4.4,-3.546112 -0.44342,-0.387125 -2.75021,-2.233262 -5.126213,-4.102528 -2.375999,-1.869266 -5.471999,-4.328686 -6.879999,-5.465377 -4.573985,-3.69262 -7.995451,-6.172518 -8.206269,-5.947952 -0.403817,0.430151 -1.897296,4.976749 -1.755853,5.345343 0.07918,0.206341 2.42505,1.60764 5.213043,3.113998 2.787993,1.506358 6.293079,3.414875 7.789079,4.241147 1.496,0.826273 3.799999,2.084389 5.119999,2.795814 1.320003,0.711425 3.696003,2.051514 5.280003,2.977976 5.32672,3.115531 6.56,3.782497 6.56,3.547691 z M 54.39388,50.563073 c -3.791369,-1.620875 -13.645121,-5.184619 -13.828481,-5.001259 -0.432864,0.432864 0.379695,3.477277 0.993328,3.721703 1.557545,0.620408 14.254,1.886136 12.835153,1.279556 z m 4.044773,-1.123074 c -0.93535,-0.616 -1.764785,-1.12 -1.843192,-1.12 -0.07841,0 -2.621839,-1.417391 -5.65207,-3.149758 -6.380473,-3.647681 -10.925027,-6.130242 -11.221969,-6.130242 -1.049639,0 -0.0034,4.433156 1.095977,4.643715 0.427065,0.0818 1.496482,0.434781 2.376482,0.784408 0.88,0.349628 3.4,1.275164 5.6,2.056747 2.2,0.781584 5.511999,2.003385 7.359999,2.715114 4.137493,1.593494 4.441003,1.620064 2.284773,0.200016 z m 8.5032,-2.330992 c -0.82939,-0.842045 -1.50797,-1.649321 -1.50797,-1.793945 0,-0.144625 -0.35338,-0.540924 -0.7853,-0.880666 C 63.965523,43.897102 60.792313,40.336063 54.61281,33.172076 50.990013,28.972114 43.883,21.74288 43.627763,21.998118 c -0.399434,0.399434 -2.129201,5.950753 -1.96987,6.321881 0.07556,0.176 2.73616,2.264 5.912448,4.64 3.176288,2.376 6.921317,5.256 8.322288,6.4 3.244644,2.6495 4.824204,3.867695 6.821254,5.260702 0.88,0.61383 2.392,1.759458 3.36,2.545839 2.32044,1.885077 2.75312,1.856397 0.86797,-0.05753 z M 35.572477,34.819999 c -0.102152,-0.255274 -0.177978,-0.179448 -0.193333,0.193334 -0.0139,0.337333 0.06174,0.526333 0.16807,0.42 0.106334,-0.106334 0.117702,-0.382334 0.02526,-0.613334 z"
     id="path1" />
</svg>
