<?xml version="1.0" encoding="UTF-8" standalone="no"?>
<!-- Created with Inkscape (http://www.inkscape.org/) -->

<svg
   version="1.1"
   id="svg1"
   width="112.26154"
   height="74.553085"
   viewBox="0 0 112.26154 74.553087"
   sodipodi:docname="Icon_witch.svg"
   inkscape:version="1.4.2 (ebf0e940d0, 2025-05-08)"
   xmlns:inkscape="http://www.inkscape.org/namespaces/inkscape"
   xmlns:sodipodi="http://sodipodi.sourceforge.net/DTD/sodipodi-0.dtd"
   xmlns="http://www.w3.org/2000/svg"
   xmlns:svg="http://www.w3.org/2000/svg">
  <defs
     id="defs1" />
  <sodipodi:namedview
     id="namedview1"
     pagecolor="#505050"
     bordercolor="#eeeeee"
     borderopacity="1"
     inkscape:showpageshadow="0"
     inkscape:pageopacity="0"
     inkscape:pagecheckerboard="0"
     inkscape:deskcolor="#505050"
     showgrid="false"
     inkscape:zoom="4.2301186"
     inkscape:cx="56.144999"
     inkscape:cy="44.915999"
     inkscape:window-width="1838"
     inkscape:window-height="1011"
     inkscape:window-x="40"
     inkscape:window-y="47"
     inkscape:window-maximized="1"
     inkscape:current-layer="svg1" />
  <path
     style="fill:#67090c"
     d="m 77.880974,74.223382 c -8.272,-0.11144 -26.416002,-0.38692 -40.320002,-0.61219 -17.579124,-0.28482 -26.88841,-0.31214 -30.5599989,-0.0897 -6.00431,0.36377 -6.78478,0.16355 -6.97956,-1.79047 -0.349802,-3.50919 3.561618,-6.5323 13.5395599,-10.46463 6.488233,-2.55703 13.863592,-6.71639 13.158951,-7.42103 -0.09351,-0.0935 0.420514,-1.0396 1.142271,-2.10244 1.625735,-2.393998 2.09943,-3.929533 2.371273,-7.686733 0.117117,-1.61871 0.317069,-3.087109 0.444336,-3.263109 0.127267,-0.176 0.408652,-1.256 0.625299,-2.4 3.862475,-20.395717 22.212276,-36.7429466 42.977871,-38.28756063 2.53344,-0.188446 2.8,-0.154921 2.8,0.352162 0,0.523751 0.40322,0.54296103 6.16,0.293471 9.98229,-0.432618 9.08881,-0.815449 11.43937,4.90142703 2.12335,5.1642666 1.67433,6.2415696 -1.85588,4.4526766 -7.84885,-3.9773126 -18.53549,6.477307 -15.54307,15.20561 0.98852,2.883299 1.22122,7.108138 0.61888,11.236227 -0.18314,1.255142 -0.15408,1.970802 0.0921,2.267396 0.2863,0.344975 0.0432,0.581616 -1.19176,1.160036 l -1.55143,0.726654 1.34671,1.241357 1.34671,1.241356 0.19603,3.604594 c 0.19455,3.577306 1.08588,7.305766 1.80372,7.545046 0.57551,0.19183 0.37669,0.57948 -0.50271,0.98016 -1.06379,0.4847 -0.95326,0.58097 1.35292,1.17835 1.03864,0.26904 2.40548,0.82968 3.03741,1.24587 3.14458,2.07101 10.19502,5.17387 17.119016,7.53398 5.61529,1.91403 7.04537,2.69447 9.48227,5.17475 l 1.83027,1.86285 -0.66188,1.12179 -0.66187,1.1218 -9.00839,-0.0635 c -4.954646,-0.035 -15.776416,-0.15476 -24.048416,-0.2662 z m 0.24609,-2.7602 c -0.21665,-0.0877 -0.64865,-0.093 -0.96,-0.0119 -0.31135,0.0811 -0.13409,0.15285 0.39391,0.15937 0.528,0.007 0.78274,-0.0599 0.56609,-0.14751 z m -59.606091,-0.58901 c 8.322128,-0.59593 11.272408,-0.97662 12.503916,-1.61346 0.683089,-0.35324 1.101901,-0.40838 1.375722,-0.18113 0.216515,0.17969 0.710938,0.24374 1.098717,0.14234 0.387779,-0.10141 0.907876,-0.016 1.155771,0.18968 0.317647,0.26363 0.765915,0.2833 1.518296,0.0666 1.049003,-0.30208 1.051938,-0.30793 0.168692,-0.33629 -0.512151,-0.0164 -0.813797,-0.16654 -0.701115,-0.34886 0.274768,-0.44459 1.76,-0.403 1.76,0.0493 0,0.48171 7.750816,0.117 11.36,-0.53455 1.408,-0.25418 2.992,-0.4751 3.52,-0.49093 1.585502,-0.0475 -0.02692,-0.57448 -1.84,-0.60131 -0.836,-0.0124 -1.52,-0.14652 -1.52,-0.29811 0,-0.73232 -14.52313,-0.53931 -19.36,0.25729 l -1.6,0.26351 1.6,0.0764 c 1.563265,0.0747 -5.093721,0.89808 -7.36,0.91039 -0.833218,0.005 -0.769828,-0.0541 0.48,-0.44363 3.307964,-1.03108 8.878599,-1.58413 24.48,-2.43037 2.132433,-0.11566 -3.198101,-0.53408 -7.84,-0.6154 -3.223449,-0.0565 -4.343804,-0.15266 -3.2,-0.27473 3.249103,-0.34677 0.788811,-0.66068 -3.92946,-0.50136 -5.895805,0.19908 -4.589698,-0.35144 2.089348,-0.88065 4.43379,-0.35131 4.938111,-0.33109 8.32,0.33362 3.974714,0.78122 5.680112,0.88464 5.680112,0.34444 0,-0.24625 0.691087,-0.29561 2.24,-0.16 1.232,0.10786 3.233239,0.28352 4.447198,0.39036 1.356364,0.11938 2.435713,0.0614 2.8,-0.15026 0.466644,-0.27121 0.116093,-0.35111 -1.647198,-0.37547 -1.232,-0.017 -3.752,-0.22124 -5.6,-0.45383 -3.830652,-0.48213 -3.031717,-0.61123 3.36,-0.54296 2.760553,0.0295 3.9447,-0.055 3.52,-0.25116 -0.352,-0.16257 -1.116499,-0.30571 -1.698886,-0.31808 -1.633948,-0.0347 -0.882143,-0.65784 0.837771,-0.69439 2.104781,-0.0447 0.550082,-0.53074 -1.858885,-0.58111 -0.968,-0.0202 -1.976,-0.18854 -2.24,-0.37401 -0.340348,-0.23911 0.963078,-0.28162 4.48,-0.14612 2.975649,0.11465 5.145352,0.0683 5.423312,-0.11589 0.64235,-0.42563 -0.897744,-0.82586 -3.114294,-0.80932 -1.533563,0.0114 -1.622932,-0.0252 -0.96,-0.39318 0.662125,-0.36757 0.550124,-0.41256 -1.189018,-0.47764 l -1.92,-0.0719 1.84,-0.11546 c 1.012,-0.0635 1.839999,-0.24271 1.839999,-0.39824 0,-0.15552 0.396,-0.3394 0.88,-0.4086 0.484,-0.0692 -2.935999,-0.16718 -7.599999,-0.21772 -8.993852,-0.0975 -17.545371,-0.0323 -18.677543,0.14227 -0.375351,0.0579 -1.906457,0.19505 -3.402457,0.30481 -1.496,0.10976 -3.152,0.26785 -3.68,0.3513 -0.528,0.0835 -1.622196,0.20954 -2.431546,0.28018 -0.966121,0.0843 -2.065211,0.50601 -3.2,1.22773 -0.950649,0.60461 -2.952453,1.57232 -4.448453,2.15046 -4.933272,1.9065 -6.3851099,2.66673 -5.36,2.80667 1.380401,0.18844 1.029204,0.71708 -0.48,0.72252 -0.9959859,0.004 -1.2315249,0.0879 -0.8799999,0.3151 0.382477,0.24717 0.317461,0.31619 -0.32,0.33969 -0.44,0.0162 -1.376,0.23185 -2.08,0.47917 -1.158346,0.40695 -1.182335,0.43602 -0.252408,0.30589 1.6357,-0.22888 1.52457,0.37327 -0.172944,0.9371 -1.499084,0.49791 -3.281425,1.91233 -3.924915,3.1147 -0.407994,0.76235 5.934727,0.80455 15.7102669,0.10454 z m 13.119999,-3.53892 c 1.16327,-0.25105 5.74838,-0.33209 5.374631,-0.095 -0.228047,0.14466 -1.638631,0.24853 -3.134631,0.23081 -1.496,-0.0177 -2.504,-0.0788 -2.24,-0.13581 z m 0.96,-4.80021 c 1.136717,-0.24582 10.551665,-0.33395 10.175366,-0.0952 -0.228451,0.14492 -2.719366,0.24899 -5.535366,0.23127 -2.816,-0.0177 -4.904,-0.0789 -4.64,-0.13602 z m 11.297694,-0.68548 c -0.410203,-0.0796 -0.636501,-0.30784 -0.544091,-0.54866 0.169577,-0.44191 -2.557966,-0.82114 -5.937603,-0.82555 -1.064279,-10e-4 -1.625516,-0.11654 -1.44,-0.29547 0.38953,-0.37568 11.546094,-0.81383 12.938027,-0.50811 1.887033,0.41446 0.353087,0.77207 -2.460157,0.57353 -2.245833,-0.15849 -2.65387,-0.11232 -2.65387,0.30025 0,0.58241 1.235946,0.87191 3.96,0.92758 l 1.96,0.04 -1.44,0.25623 c -1.531985,0.2726 -3.231087,0.30367 -4.382306,0.0802 z m 5.922306,-2.55508 c 0.231,-0.0924 0.507,-0.0811 0.613333,0.0253 0.106333,0.10634 -0.08267,0.18197 -0.42,0.16807 -0.372782,-0.0153 -0.448608,-0.0912 -0.193333,-0.19333 z m 6.38,0.007 c 0.22,-0.0888 0.58,-0.0888 0.8,0 0.22,0.0888 0.04,0.1614 -0.4,0.1614 -0.44,0 -0.62,-0.0726 -0.4,-0.1614 z m 6.480002,9.21751 c 0,-0.15092 -0.85486,-0.36376 -1.899696,-0.47297 -1.044831,-0.1092 -2.520831,-0.29213 -3.28,-0.4065 -1.005026,-0.15141 -1.290409,-0.11127 -1.049658,0.14762 0.181857,0.19556 1.549857,0.48284 3.04,0.63839 1.490143,0.15556 2.817354,0.30197 2.949354,0.32536 0.132,0.0234 0.24,-0.081 0.24,-0.2319 z m 0.92924,-1.64751 c 0.34642,-0.20253 -0.33258,-0.30174 -2.110357,-0.30834 -1.441613,-0.005 -2.704347,0.12494 -2.806075,0.28954 -0.402545,0.65133 3.806992,0.66743 4.916432,0.0188 z m -33.015908,-9.79141 c -0.106334,-0.10633 -0.382334,-0.1177 -0.613334,-0.0253 -0.255274,0.10215 -0.179448,0.17798 0.193334,0.19333 0.337333,0.0139 0.526333,-0.0617 0.42,-0.16807 z m 2.566666,-0.34725 c -0.308,-0.0805 -0.812,-0.0805 -1.12,0 -0.308,0.0805 -0.056,0.14635 0.56,0.14635 0.616,0 0.868,-0.0659 0.56,-0.14635 z m 3.84,-0.32861 c -0.484,-0.0733 -1.276,-0.0733 -1.76,0 -0.484,0.0733 -0.088,0.1333 0.88,0.1333 0.968,0 1.364,-0.06 0.88,-0.1333 z m 4.152863,-0.32434 c -0.663926,-0.0693 -1.671926,-0.0681 -2.24,0.003 -0.568075,0.0707 -0.02486,0.12737 1.207137,0.12595 1.232,-10e-4 1.696788,-0.0593 1.032863,-0.12853 z m -11.672863,-0.29839 c -0.22,-0.0888 -0.58,-0.0888 -0.8,0 -0.22,0.0888 -0.04,0.1614 0.4,0.1614 0.44,0 0.62,-0.0726 0.4,-0.1614 z m 16.64,-0.0196 c -0.572,-0.071 -1.508,-0.071 -2.08,0 -0.572,0.071 -0.104,0.12906 1.04,0.12906 1.144,0 1.612,-0.0581 1.04,-0.12906 z m 22.640002,-1.0488 c 0.57604,-0.18448 0.17292,-0.2662 -1.44,-0.2919 -1.232,-0.0196 -3.032,-0.24828 -4,-0.5081 -0.968,-0.25982 -2.156003,-0.47412 -2.640003,-0.4762 -0.878979,-0.004 -0.879996,-0.006 -0.877314,-2.3238 l 0.0027,-2.320003 1.837317,-0.08092 c 2.89493,-0.1275 4.2861,-0.656568 1.81848,-0.691575 -2.111696,-0.02996 -4.167549,-0.945043 -2.221168,-0.988667 l 0.960008,-0.02152 -0.800008,-0.457321 -0.8,-0.457322 0.944,-0.01134 c 0.734228,-0.0088 0.858668,-0.09667 0.560008,-0.395339 -0.748309,-0.748301 -0.35269,-0.896 2.4,-0.896 3.6145,0 3.18655,-0.587935 -0.68479,-0.940791 -1.52984,-0.139438 -2.944811,-0.416803 -3.144375,-0.616367 -0.199563,-0.199563 -0.622043,-0.362842 -0.938843,-0.362842 -1.00363,0 -0.866987,10.691787 0.144,11.267447 1.094323,0.62312 7.443788,1.0325 8.880008,0.57255 z m -27.680002,-0.25877 c 1.052787,0.30588 16.10293,-0.03 16.30934,-0.36398 0.108606,-0.17573 0.269989,-11.498403 0.195579,-13.721868 -0.08037,-2.401601 -4.290913,-3.386247 -9.111289,-2.130699 -2.438253,0.635084 -7.631955,0.335542 -6.009618,-0.346599 0.529723,-0.222732 3.171025,-0.5682 5.86956,-0.767707 2.698535,-0.199507 5.698428,-0.590174 6.666428,-0.868149 0.968,-0.277974 3.440218,-0.594693 5.493819,-0.703819 2.053603,-0.109126 3.844003,-0.308811 3.978663,-0.443745 0.48049,-0.481435 -0.55076,-1.015273 -2.35714,-1.220207 -4.987695,-0.565854 -8.950021,-1.574459 -6.185301,-1.574459 0.452497,0 0.56682,-0.165282 0.442678,-0.64 -0.141501,-0.541102 -0.436485,-0.64 -1.908927,-0.64 -1.003525,0 -1.662903,-0.127275 -1.555947,-0.300333 0.102088,-0.165183 -0.06941,-0.448804 -0.381115,-0.630269 -0.409511,-0.238407 0.648654,-0.332636 3.814384,-0.339667 2.409613,-0.0054 4.448339,-0.117731 4.530503,-0.249731 0.08216,-0.132 -0.881338,-0.215478 -2.141114,-0.185506 l -2.290503,0.05449 2.559999,-0.409544 2.56,-0.409544 -2.395261,-0.04495 -2.395261,-0.04495 1.257519,-0.67399 c 1.099496,-0.589294 1.670803,-0.65869 4.546386,-0.552244 3.65579,0.135327 3.63827,-0.188824 -0.0418,-0.774356 -2.450472,-0.389887 -2.9845,-0.899035 -1.265133,-1.206195 0.732903,-0.13093 0.831103,-0.231181 0.456823,-0.466334 -0.388525,-0.244106 -0.329296,-0.345699 0.32,-0.548885 0.65722,-0.205663 0.61679,-0.223905 -0.23082,-0.104147 -0.565171,0.07985 -1.11959,-0.0037 -1.232038,-0.18562 -0.360863,-0.583888 0.09776,-0.677522 1.672968,-0.341562 2.37288,0.506085 2.02868,0.187981 -0.745296,-0.688791 -2.291005,-0.72412 -2.400805,-0.795537 -1.268854,-0.825297 1.117306,-0.02938 1.195988,-0.08501 0.8,-0.565658 -0.450032,-0.546249 0.206652,-0.51438 1.77109,0.08595 0.83345,0.319825 0.57917,-0.421179 -0.37027,-1.07901 -1.252007,-0.867465 -1.869299,-1.036565 -2.281009,-0.624855 -0.265325,0.265324 -0.358994,0.217052 -0.358994,-0.185007 0,-0.699499 2.444373,-0.730491 4.320003,-0.05477 1.6975,0.611546 1.77436,0.587564 0.64,-0.19968 l -0.96,-0.666235 0.86608,0.141309 c 0.76029,0.124047 0.82734,0.06891 0.5489,-0.451363 -0.29543,-0.552025 1.93336,0.04845 3.28852,0.885987 0.14107,0.08719 0.2565,0.08446 0.2565,-0.0061 0,-0.09053 -1.03856,-0.78159 -2.30791,-1.535695 l -2.3079,-1.371099 -4.093889,-0.180985 c -4.844751,-0.214179 -6.5365,-0.926358 -2.314303,-0.974257 2.138915,-0.02426 2.378399,-0.07668 1.503999,-0.329149 -1.476594,-0.426352 -1.288416,-0.709836 0.32,-0.482073 0.748,0.105923 2.078423,0.08472 2.956503,-0.04712 l 1.59651,-0.239706 -2.51359,-0.592579 c -1.382468,-0.325918 -3.036896,-0.746207 -3.676502,-0.933976 l -1.16292,-0.341397 0.96,-0.22471 c 0.528,-0.12359 1.679999,-0.258451 2.559999,-0.29969 0.88,-0.04124 1.312003,-0.147655 0.96,-0.236477 -1.20843,-0.304933 -2.168599,-0.74233 -1.999893,-0.911036 0.139131,-0.139132 5.154776,0.869142 6.559896,1.318707 1.22412,0.391655 0.075,-0.356445 -2,-1.302061 -3.375383,-1.5382106 -2.989758,-1.5885176 2.24,-0.292223 0.352,0.08725 -0.512,-0.4486886 -1.92,-1.1909746 l -2.560053,-1.349576 1.760003,-0.274903 c 0.968,-0.151196 2.17661,-0.195013 2.68581,-0.09737 1.0528,0.201883 1.79419,-0.266175 1.79419,-1.132716 0,-0.916561 0.96233,-1.25542 2.55136,-0.89839 2.13621,0.479974 2.3934,-0.190872 0.31034,-0.809474 -2.09505,-0.622165 -2.24755,-0.623915 -2.01701,-0.02314 0.13236,0.344923 -0.0983,0.53766 -0.81518,0.681027 -0.76717,0.153433 -0.92052,0.295461 -0.65911,0.61044 0.73248,0.882576 -1.99664,1.219157 -6.890403,0.849791 -2.988532,-0.225566 -3.399211,-0.319738 -2.719999,-0.62372 0.645894,-0.289071 0.683533,-0.361948 0.195391,-0.378325 -1.282644,-0.04303 -7.342595,4.3171666 -10.541124,7.5844466 l -1.865734,1.905837 3.945734,-0.09222 3.945733,-0.09222 -2.88,0.31745 c -7.34486,0.809592 -8.438819,1.560112 -1.918255,1.316034 2.55104,-0.09549 4.638255,-0.08461 4.638255,0.02417 0,0.288794 -3.927593,1.418922 -6.825031,1.963837 -2.761393,0.51933 -4.33662,1.330322 -5.351033,2.754934 -0.76516,1.074568 -0.729362,1.085684 1.545833,0.480029 0.929373,-0.247398 2.801373,-0.526858 4.16,-0.621023 2.298374,-0.159296 2.36312,-0.147343 0.930651,0.171808 -1.077335,0.240028 -1.489684,0.473043 -1.373392,0.776093 0.173429,0.451949 0.124476,0.46932 -5.354191,1.899945 -3.083276,0.805126 -4.065955,1.324289 -1.869287,0.987571 1.633706,-0.250423 1.555209,0.153591 -0.205262,1.056448 -2.084987,1.069286 -3.844635,3.809055 -4.395018,6.843039 l -0.220676,1.216469 2.998703,-1.591669 c 2.837316,-1.506007 6.517121,-2.92127 7.595553,-2.92127 0.843457,0 0.01511,0.499083 -3.15685,1.902021 -3.945109,1.744895 -4.121583,1.806172 -3.36,1.16668 0.479339,-0.402496 0.298596,-0.371505 -0.72,0.123453 -0.748,0.363469 -1.36,0.734993 -1.36,0.825608 0,0.09062 0.278533,0.01569 0.618963,-0.166503 0.810253,-0.433635 1.073181,-0.419236 0.787428,0.04312 -0.161794,0.261789 -0.04718,0.303168 0.381115,0.13759 0.336872,-0.130234 1.044494,-0.31915 1.572494,-0.419812 l 0.96,-0.183022 -0.807528,0.651651 c -0.44414,0.358408 -1.746094,1.167552 -2.893229,1.798096 -1.919806,1.055258 -4.139243,3.398678 -4.139243,4.370472 0,0.733885 5.529807,0.343063 6.994675,-0.494352 1.169603,-0.668622 1.35969,-0.706731 1.177887,-0.236146 -1.100683,2.84905 -3.02898,14.718051 -2.480308,15.266721 0.05953,0.0595 0.495125,0.002 0.96799,-0.12751 0.472866,-0.12967 1.291756,-0.11024 1.819756,0.0432 z m 0.413954,-1.823 c -1.528899,-0.85453 -1.327052,-6.672315 0.366621,-10.567043 l 0.560456,-1.28881 4.545333,-0.07121 c 6.908924,-0.108242 7.073636,0.05035 7.073636,6.810779 0,5.041764 0.388198,4.616694 -4.582111,5.017414 -2.143839,0.17284 -4.617889,0.3747 -5.497889,0.44859 -1.054415,0.0885 -1.895314,-0.0307 -2.466046,-0.34972 z m 4.232324,-4.23614 c -1.824012,-0.160422 -2.438394,-0.607965 -1.823025,-1.327975 0.804672,-0.941502 0.866714,-1.258436 0.34791,-1.77724 -1.158382,-1.158382 -0.03419,-1.549472 3.858442,-1.342299 3.214209,0.171065 3.444416,0.146981 2.570395,-0.26891 -0.528,-0.251241 -1.824,-0.480334 -2.88,-0.509096 -1.056,-0.02876 -2.352,-0.156635 -2.88,-0.284163 -2.735251,-0.660647 2.992245,-0.778989 6.24,-0.128932 0.779719,0.156066 0.783923,0.147163 0.165828,-0.35119 -0.51512,-0.415326 -1.326112,-0.49451 -4.32,-0.421801 l -3.685828,0.08951 -0.03301,1.28 c -0.01816,0.704 -0.129603,2.06137 -0.247662,3.016378 -0.25893,2.094547 -0.06749,2.273185 2.360672,2.202815 1.706103,-0.04944 1.716095,-0.05487 0.326278,-0.177101 z m -11.766278,4.80031 c -2.345896,-0.11167 -2.711734,-0.31893 -1.84,-1.0424 0.264,-0.2191 0.48,-0.54984 0.48,-0.73497 0,-0.18512 -0.333281,-0.0235 -0.740624,0.35919 -1.332074,1.25142 -1.93587,0.87164 -0.836414,-0.5261 1.103691,-1.403111 0.123485,-1.150007 -1.256588,0.32447 l -1.289209,1.37741 0.861418,0.20214 c 0.473779,0.11117 2.229417,0.19056 3.901417,0.17641 2.649071,-0.0224 2.741659,-0.0399 0.72,-0.13615 z m 40.346172,-8.114547 c 3.87081,-0.03824 2.69933,-0.482979 -1.73543,-0.658836 -2.52201,-0.100008 -2.73676,-0.06123 -2.59795,0.469079 0.0907,0.346652 0.33713,0.506795 0.61543,0.4 0.25527,-0.09795 1.92834,-0.192563 3.71795,-0.210243 z M 35.907793,43.046632 c 4.321557,-0.359984 4.249922,-1.25445 -0.08652,-1.080276 -3.667332,0.1473 -3.388996,0.0055 -3.664037,1.866724 l -0.212796,1.44 0.619065,-0.999719 c 0.59179,-0.955674 0.739132,-1.009721 3.344285,-1.226729 z M 60.120971,38.55308 c -0.2191,-0.264 -0.552255,-0.48 -0.740343,-0.48 -0.188089,0 -0.06246,0.21142 0.279182,0.469823 0.802709,0.607139 0.959467,0.610598 0.461161,0.01018 z m 7.000003,-8.36 c 1.99136,-0.398272 0.98405,-0.785286 -1.48,-0.568625 -4.799019,0.421973 -5.690634,0.689087 -2.44,0.730987 1.606,0.0207 3.37,-0.05236 3.92,-0.162362 z m -3.87627,-0.979866 c -0.30595,-0.08009 -0.88195,-0.083 -1.28,-0.0065 -0.39805,0.07654 -0.14773,0.142073 0.55627,0.145625 0.704,0.0036 1.02968,-0.05907 0.72373,-0.139167 z M 43.960972,18.87308 c 0.515796,-0.221645 0.410782,-0.279382 -0.541115,-0.297508 -0.649613,-0.01237 -1.270111,0.121508 -1.378885,0.297508 -0.238645,0.386135 1.021416,0.386135 1.92,0 z m 4.32,-1.626458 c 0.878973,-0.216792 0.731048,-0.23959 -0.687378,-0.10594 -0.994058,0.09366 -2.218058,0.300529 -2.72,0.459699 -1.145203,0.363154 1.697129,0.06806 3.407378,-0.353759 z m 22.080002,-4.311245 c 0,-0.224013 -3.0913,-1.615919 -4.16,-1.873105 -0.44,-0.105887 0.208,0.300192 1.44,0.902398 2.30931,1.128798 2.72,1.275365 2.72,0.970707 z m 8,-4.7431136 c 0,-0.06645 -0.252,-0.31845 -0.56,-0.56 -0.50754,-0.398039 -0.51886,-0.38672 -0.12082,0.120818 0.41804,0.533039 0.68082,0.702553 0.68082,0.439182 z m 0.16106,-1.157462 c -0.10819,-0.175053 -0.51269,-0.472718 -0.89888,-0.661476 -0.60494,-0.295667 -0.59139,-0.252573 0.0978,0.311163 0.89591,0.732813 1.08988,0.817641 0.80106,0.350313 z m -2.76188,-0.88172 c -0.55419,-0.706641 -0.99099,-1.029288 -1.39918,-1.033511 -0.176,-0.0018 0.112,0.350796 0.64,0.783592 1.14458,0.938202 1.3527,1.006714 0.75918,0.249919 z m 0.68082,-1.394237 c 0,-0.19483 0.22803,-0.266732 0.50674,-0.159782 0.31165,0.119592 0.45794,0.04808 0.38,-0.185764 -0.21409,-0.642257 -1.8755,-1.049682 -2.19885,-0.53922 -0.40856,0.64497 -0.35239,0.855221 0.27211,1.018418 0.94109,0.245933 1.04,0.233222 1.04,-0.133652 z m -2.28275,-0.252573 c 0.31039,-0.196637 -0.0365,-0.434376 -1.1957,-0.81939 -2.27553,-0.755807 -3.18424,-0.496611 -1.32155,0.376947 1.65514,0.776224 1.91757,0.82235 2.51725,0.442443 z m 13.80275,-1.321195 c 0.38432,-0.556289 2.21609,-0.66241 2.96491,-0.171767 0.83335,0.54603 1.19509,0.393989 1.19509,-0.502303 0,-1.432204 -2.60516,-1.70103503 -5.89025,-0.607826 -1.9734,0.656703 -2.45145,0.693798 -5.65273,0.438631 -1.92336,-0.153307 -3.49702,-0.168487 -3.49702,-0.03374 0,0.26984 0.35459,0.319448 2.72,0.380525 0.88,0.02272 2.032,0.267926 2.56,0.544897 0.97644,0.51221 5.23813,0.475361 5.6,-0.04842 z M 75.887064,0.42318137 c -0.21665,-0.08765 -0.64865,-0.09299 -0.96,-0.01186 -0.31135,0.08113 -0.13409,0.152852 0.39391,0.159373 0.528,0.0065 0.78274,-0.05986 0.56609,-0.147516 z"
     id="path1" />
</svg>
