<?xml version="1.0" encoding="UTF-8" standalone="no"?>
<!-- Created with Inkscape (http://www.inkscape.org/) -->

<svg
   version="1.1"
   id="svg1"
   width="115.01998"
   height="84.248108"
   viewBox="0 0 115.01998 84.24811"
   sodipodi:docname="Icon_juggler.svg"
   inkscape:version="1.4.2 (ebf0e940d0, 2025-05-08)"
   xmlns:inkscape="http://www.inkscape.org/namespaces/inkscape"
   xmlns:sodipodi="http://sodipodi.sourceforge.net/DTD/sodipodi-0.dtd"
   xmlns="http://www.w3.org/2000/svg"
   xmlns:svg="http://www.w3.org/2000/svg">
  <defs
     id="defs1" />
  <sodipodi:namedview
     id="namedview1"
     pagecolor="#505050"
     bordercolor="#eeeeee"
     borderopacity="1"
     inkscape:showpageshadow="0"
     inkscape:pageopacity="0"
     inkscape:pagecheckerboard="0"
     inkscape:deskcolor="#505050"
     showgrid="false"
     inkscape:zoom="4.2301186"
     inkscape:cx="60.400198"
     inkscape:cy="45.388799"
     inkscape:window-width="1838"
     inkscape:window-height="1011"
     inkscape:window-x="40"
     inkscape:window-y="47"
     inkscape:window-maximized="1"
     inkscape:current-layer="svg1" />
  <path
     style="fill:#0163ab"
     d="m 99.586448,132.7596 c -0.847829,-0.41967 -1.636301,-1.13643 -2.06004,-1.8727 l -0.686492,-1.1928 -8.499959,-1.51843 c -4.674977,-0.83514 -12.374312,-2.21645 -17.109631,-3.06958 -7.713102,-1.38963 -8.699131,-1.50489 -9.46873,-1.10692 -1.646192,0.85128 -4.966195,1.17411 -10.970772,1.06679 L 44.862543,124.96 41.674464,122.80264 c -5.411061,-3.66163 -7.431754,-6.51472 -7.424311,-10.48264 0.01822,-9.7113 11.946273,-11.68993 23.189846,-3.84675 8.001829,5.58184 10.186303,6.58934 19.039999,8.78143 3.256,0.80616 9.376,2.5264 13.6,3.82276 l 7.679999,2.35703 0.965678,-0.90797 c 2.045495,-1.92327 4.487845,-1.87845 6.768755,0.12422 5.37999,4.72369 0.40611,13.23429 -5.907982,10.10888 z m 5.182632,-1.53056 c 2.08659,-1.96024 1.79283,-6.2175 -0.55905,-8.10193 -1.48168,-1.18719 -2.01252,-0.24241 -0.85003,1.51289 2.2027,3.32596 -1.32549,7.09569 -4.90104,5.23657 -0.677326,-0.35218 -0.675639,-0.33806 0.05449,0.45623 1.71503,1.86574 4.75937,2.3019 6.25563,0.89624 z M 102.336,128.896 c 1.00312,-1.00313 0.20598,-3.66493 -1.10928,-3.70408 -3.259062,-0.097 -30.353015,-7.6725 -35.022489,-9.7923 -0.438317,-0.19899 -0.543345,0.0928 -0.699417,1.94311 -0.101007,1.1975 -0.276513,2.48141 -0.390014,2.85314 -0.1474,0.48275 -0.03899,0.74254 0.379416,0.90921 2.809987,1.11932 25.469701,5.83785 32.347748,6.7359 0.925081,0.12079 2.005081,0.48919 2.399996,0.81867 0.83528,0.69687 1.55256,0.77783 2.09404,0.23635 z m -46.647606,-5.39466 c 1.491382,-0.18626 2.848404,-0.47426 3.015604,-0.64 0.1672,-0.16574 0.617615,-0.30134 1.000921,-0.30134 2.127734,0 3.449025,-1.13641 3.919545,-3.37109 0.730663,-3.4702 -0.03259,-4.74083 -5.02531,-8.36585 -0.285536,-0.20732 -1.059155,-0.47534 -1.719155,-0.59562 l -1.2,-0.21867 -0.007,3.63561 c -0.0082,4.2676 -0.41784,5.46883 -2.694736,7.90302 -2.285491,2.44337 -2.1265,2.558 2.710159,1.95394 z m 45.142236,-0.49825 c 0.37115,-0.44721 0.34765,-0.50115 -0.1743,-0.4 -0.33181,0.0643 -0.663231,0.29691 -0.736482,0.51691 -0.190068,0.57084 0.403192,0.49469 0.910782,-0.11691 z m -51.130538,-1.61875 c 6.143246,-5.1631 5.791844,-13.67449 -0.606003,-14.67815 l -2.37409,-0.37243 v 1.08902 c 0,1.36329 -0.65329,1.1077 -1.909138,-0.74692 -0.56562,-0.8353 -1.117863,-1.26868 -1.703859,-1.33712 -0.899128,-0.105 -1.208645,0.47024 -0.41656,0.77419 2.493148,0.95672 2.141669,7.03801 -0.594729,10.29003 -0.450856,0.53582 -0.745127,1.16864 -0.653936,1.40628 0.234519,0.61115 -1.08352,1.39702 -1.553986,0.92655 -0.262339,-0.26234 -0.167666,-0.4062 0.357727,-0.5436 0.392964,-0.10276 0.714481,-0.31096 0.714481,-0.46265 0,-0.1517 -0.36,-0.1118 -0.8,0.0887 -1.048215,0.4776 -1.060624,1.67626 -0.02438,2.35523 0.974361,0.63842 2.127751,0.13334 3.647104,-1.59711 1.492859,-1.70027 1.948708,-1.0812 0.696173,0.94545 l -0.641106,1.03733 1.681106,1.30186 c 2.080698,1.61131 1.636632,1.66194 4.181199,-0.47664 z m 4.064479,-2.67331 c 0.349485,-0.68504 0.635428,-1.42914 0.635428,-1.65355 0,-0.2244 -0.302729,0.16586 -0.672731,0.86726 -0.370002,0.70139 -0.802002,1.41206 -0.96,1.57926 -0.157998,0.1672 -0.287269,0.4277 -0.287269,0.57888 0,0.55252 0.665311,-0.15799 1.284572,-1.37185 z m 83.765479,10.45706 c -7.52968,-3.16206 -9.4752,-5.64158 -13.20296,-16.82682 -1.15219,-3.45718 -1.62756,-4.50127 -2.04937,-4.50127 -0.43598,0 -0.52307,-0.22393 -0.42241,-1.08618 0.0697,-0.5974 -0.10446,-1.57355 -0.38713,-2.16923 -1.42515,-3.00329 -19.51911,-21.668613 -20.5707,-21.220281 -4.566111,1.946705 -6.898461,-5.464468 -2.667768,-8.476987 2.747968,-1.956722 6.797178,-0.444085 7.690328,2.872823 0.26887,0.998505 1.33693,2.22514 5.36781,6.164765 15.79629,15.438685 17.2905,16.65175 25.51215,20.7118 9.3736,4.62891 12.43136,8.99102 12.47003,17.78936 0.0258,5.85769 -5.83339,9.22247 -11.73998,6.74202 z m 6.64022,-0.67176 c 1.43453,-0.59939 1.4011,-0.94773 -0.13513,-1.408 -0.73054,-0.21887 -1.71906,-0.89785 -2.39262,-1.6434 -1.10366,-1.22162 -1.16139,-1.24498 -1.50235,-0.60788 -0.50254,0.939 -0.13602,2.02921 0.8302,2.46945 0.89113,0.40602 0.80563,1.09718 -0.10062,0.8134 -0.45548,-0.14263 -0.44323,-0.0854 0.0714,0.33397 0.77275,0.62965 1.79171,0.64304 3.22911,0.0425 z m -5.91901,-1.1153 c -1.79021,-3.34502 4.1177,-9.56363 7.96424,-8.38309 1.49083,0.45755 1.48232,0.50545 0.51412,-2.89428 -1.8816,-6.60696 -3.23875,-7.57363 -8.66239,-6.17011 -3.51399,0.90934 -7.56181,4.23798 -6.98417,5.74328 0.1292,0.33668 -0.019,0.48317 -0.48883,0.48317 -0.99229,0 -0.83052,0.40729 0.62698,1.57856 1.423,1.14356 1.46986,1.80834 0.0548,0.77818 -1.47836,-1.07628 -1.67606,-1.14882 -1.67606,-0.61497 0,0.27475 0.9,1.16011 2,1.96746 2.03604,1.49437 2.85217,2.4403 1.47702,1.71196 -0.41636,-0.22053 -1.18902,-0.71727 -1.71702,-1.10387 -1.42756,-1.04524 -1.90324,-1.28798 -1.61727,-0.82526 0.1329,0.21503 1.34314,1.19672 2.68945,2.18154 1.3463,0.98482 2.50782,1.83914 2.58115,1.89849 0.93818,0.75927 -0.62902,0.11874 -1.92012,-0.78477 -2.21651,-1.55113 -2.53321,-1.74283 -2.53321,-1.53337 0,0.0945 1.53037,1.1985 3.40084,2.45345 2.38675,1.60133 3.505,2.55767 3.75015,3.20715 0.19213,0.509 0.46681,0.92545 0.61042,0.92545 0.14361,0 0.11204,-0.27854 -0.0701,-0.61897 z M 128.96,115.2 c 0,-0.176 -0.1525,-0.32 -0.33889,-0.32 -0.18639,0 -0.24989,0.144 -0.14111,0.32 0.10877,0.176 0.26127,0.32 0.33888,0.32 0.0776,0 0.14112,-0.144 0.14112,-0.32 z m 0.33557,-1.2 c -0.17982,-0.308 -0.70168,-0.992 -1.15969,-1.52 -0.88879,-1.02463 -0.672,-0.34008 0.43071,1.36 0.5478,0.84455 1.21401,0.99078 0.72898,0.16 z m 0.94443,-0.65723 c 0,-0.14147 -0.52563,-0.75347 -1.16806,-1.36 -1.16931,-1.10396 -1.17916,-0.91133 -0.0377,0.73723 0.58392,0.84333 1.20574,1.1645 1.20574,0.62277 z m 0.64,-0.98202 c 0,-0.30279 -2.74196,-2.92075 -3.05909,-2.92075 -0.275,0 2.52866,3.16815 2.81909,3.18559 0.132,0.008 0.24,-0.11125 0.24,-0.26484 z m 2.53442,-1.78354 c 1.77998,-1.19784 4.30543,-2.09404 5.92366,-2.10211 2.27241,-0.0113 1.71659,-0.54174 -2.93939,-2.80495 -6.36347,-3.09321 -6.82648,-3.12584 -9.99869,-0.70469 l -0.8,0.61059 3.04,2.92579 c 2.75097,2.64762 3.11211,3.18848 0.96,1.43772 -0.44,-0.35794 -0.2366,-0.0467 0.452,0.69156 0.6886,0.73831 1.35003,1.28178 1.46984,1.20774 0.11982,-0.074 0.97148,-0.6418 1.89258,-1.26165 z M 127.27416,103.12 c 2.09231,-1.09317 2.11751,-0.93913 -0.49967,-3.05372 C 124.4257,98.168539 120.2945,94.304929 112.15906,86.397517 104.93197,79.372997 101.44,76.978146 101.44,79.046211 c 0,1.481394 1.11976,2.87835 5.04775,6.297301 5.04819,4.393984 8.25092,7.520593 14.1119,13.776485 C 123.11422,101.804 125.2657,104 125.38072,104 c 0.11502,0 0.96707,-0.396 1.89344,-0.88 z M 112.96,92.67918 c 0,-0.06645 -0.252,-0.31845 -0.56,-0.56 -0.50754,-0.398039 -0.51886,-0.38672 -0.12082,0.120818 0.41804,0.533039 0.68082,0.702553 0.68082,0.439182 z M 99.203305,79.509976 c 0.407921,-1.236014 1.649705,-2.066941 3.100805,-2.074878 1.43623,-0.0079 1.79787,-0.381154 1.3409,-1.384105 -0.8142,-1.786977 -5.042754,-0.858555 -6.189477,1.358963 -0.61494,1.189163 -0.634538,1.950042 -0.05023,1.950042 0.24492,0 0.537142,0.365889 0.649381,0.813087 0.256521,1.022061 0.671533,0.78247 1.148617,-0.663109 z M 87.495781,107.8382 c -11.562933,-4.56556 -8.404293,-21.041999 4.15633,-21.6807 l 2.907887,-0.147864 1.983423,1.330588 c 10.441549,7.004764 2.477196,25.048496 -9.04764,20.497976 z m 3.334477,-0.60069 c 0.335306,-0.21251 0.178368,-0.60268 -0.711119,-1.76798 -1.685695,-2.20838 -3.2082,-7.693674 -3.620895,-13.045388 -0.230725,-2.99198 -0.398977,-3.067843 -1.472984,-0.664144 -2.782506,6.227429 -1.166682,13.332922 3.434561,15.103282 1.909441,0.73467 1.823204,0.72105 2.370437,0.37423 z m 8.039602,-4.31867 c -0.0056,-0.19736 -0.328223,0.0682 -0.716994,0.59021 -0.388772,0.52198 -0.96021,1.16599 -1.269863,1.43112 -0.309653,0.26513 -0.5571,0.63006 -0.549881,0.81094 0.0072,0.18089 0.583218,-0.30163 1.28,-1.07227 0.696781,-0.77063 1.262314,-1.56263 1.256738,-1.76 z m 1.31079,-3.475531 c 1.50001,-5.570614 -2.457706,-10.44478 -8.660652,-10.666121 l -2.72,-0.09706 1.105708,0.859934 c 4.85584,3.776494 7.041144,6.170527 8.583977,9.403868 1.048808,2.19801 1.219961,2.24855 1.690967,0.499377 z M 43.199999,83.191091 C 36.655228,82.041783 36.33577,73.096716 42.778292,71.383006 c 1.36799,-0.363885 2.73897,-0.180465 4.764954,0.637491 2.190253,0.884278 38.218394,-11.188495 38.661834,-12.955304 0.239062,-0.952498 4.867561,-4.04734 10.114918,-6.763331 2.199999,-1.138703 4.363372,-2.360209 4.807482,-2.714457 0.86307,-0.688422 8.55658,-0.447004 11.6076,0.36424 4.26489,1.134003 5.91701,9.236298 2.6496,12.994076 -5.14041,5.911876 -8.76728,7.108748 -19.152726,6.320421 -8.755593,-0.664609 -6.819204,-0.992531 -24.711956,4.184906 -15.733247,4.552564 -17.025421,5.008725 -20.750394,7.325267 -3.468169,2.156835 -5.445827,2.787727 -7.569605,2.414776 z m 4.470274,-2.059374 c 1.267951,-1.527787 0.590312,-7.202756 -0.917203,-7.681222 -0.337671,-0.107173 -0.694731,-0.405378 -0.793466,-0.662678 -0.220374,-0.574286 -2.32832,-0.629305 -3.618773,-0.09445 l -0.900832,0.373366 1.356644,0.207701 c 2.817287,0.431325 4.483341,4.049368 3.299048,7.164293 -0.298914,0.786203 -0.193714,0.906249 0.985125,1.124153 0.11045,0.02042 0.375705,-0.173605 0.589457,-0.43116 z M 43.92439,78.431846 c 0.239509,-0.915884 -0.1037,-2.271848 -0.575029,-2.271848 -0.228816,0 -0.480314,-0.18 -0.558886,-0.4 -0.254413,-0.712357 -0.549587,-0.06027 -0.604255,1.334904 -0.06823,1.741287 1.347641,2.830329 1.73817,1.336944 z m 8.627279,-0.310235 c 3.812876,-1.503952 9.443782,-3.352952 19.608329,-6.438715 10.827627,-3.287062 11.655175,-3.620847 12.30442,-4.962898 l 0.464421,-0.96 0.317353,0.88 c 0.513629,1.424264 4.527264,-0.03029 5.245677,-1.901045 0.743555,-1.93623 0.741871,-2.175773 -0.0157,-2.233991 -0.393895,-0.03027 -1.652173,-0.153348 -2.796173,-0.273507 -1.729794,-0.181688 -2.376329,-0.10091 -3.84,0.479769 C 80.068799,64.207361 52.56422,73.31917 51.279997,73.497809 l -1.36,0.18918 v 2.676505 c 0,1.472077 0.06825,2.676504 0.15167,2.676504 0.08342,0 1.199418,-0.413274 2.48,-0.918387 z M 105.6,66.597153 c 2.23942,-1.620363 1.96587,-8.702574 -0.4522,-11.707431 l -0.6678,-0.82985 -2.72,0.930889 c -7.238382,2.477254 -11.082139,4.667261 -5.319929,3.031064 0.348244,-0.09889 0.518392,-0.03823 0.405439,0.144532 -0.247898,0.401107 -2.736319,1.033641 -4.066397,1.033641 -0.851191,0 -0.954727,0.07561 -0.63351,0.462656 0.285408,0.343896 0.588307,0.384966 1.180014,0.16 1.044965,-0.397295 2.124468,-0.387306 1.874381,0.01734 -0.108774,0.176 -0.470117,0.32 -0.802985,0.32 -0.332868,0 -0.720369,0.186237 -0.861115,0.41386 -0.140745,0.227622 -0.875119,0.613053 -1.631942,0.856513 -0.756823,0.24346 -1.446034,0.555904 -1.53158,0.69432 -0.08555,0.138416 0.533673,0.04254 1.376042,-0.21305 0.842369,-0.255593 1.616665,-0.466274 1.720658,-0.468179 0.372271,-0.0068 0.975079,3.547013 0.764375,4.506343 -0.440607,2.006071 1.504841,1.143374 2.051683,-0.909807 0.285606,-1.072338 0.619468,-1.68 0.923026,-1.68 0.478883,0 0.463515,0.375648 -0.120491,2.945285 l -0.196655,0.865285 2.354492,0.125754 c 3.416044,0.182451 5.444504,-0.04073 6.354494,-0.699169 z m 9.51047,-5.317155 c 1.59873,-1.852216 -0.24815,-8.894663 -2.52187,-9.616314 -0.99385,-0.315434 -1.0144,-0.01119 -0.11865,1.756494 0.78451,1.548158 0.83417,2.259821 0.15767,2.259821 -0.16204,0 -0.60199,-0.612 -0.97767,-1.36 -1.59712,-3.179966 -3.30025,-4.476741 -2.35283,-1.791466 1.05821,2.999278 0.496,3.034472 -1.68909,0.105738 -0.39916,-0.534999 -0.14922,0.1705 0.56886,1.605728 1.35042,2.699086 1.87323,5.289658 1.89323,9.381232 l 0.01,2.021232 1.96282,-1.541232 c 1.07956,-0.847678 2.46,-2.117233 3.06765,-2.821233 z"
     id="path1"
     transform="translate(-34.250133,-49.184576)" />
</svg>
